<?xml version="1.0" encoding="UTF-8" standalone="no"?>
<!DOCTYPE svg PUBLIC "-//W3C//DTD SVG 1.1//EN"
 "http://www.w3.org/Graphics/SVG/1.1/DTD/svg11.dtd">
<!-- Generated by graphviz version 2.40.1 (20161225.0304)
 -->
<!-- Title: block Pages: 1 -->
<svg width="1144pt" height="144pt"
 viewBox="0.00 0.00 1144.24 143.83" xmlns="http://www.w3.org/2000/svg" xmlns:xlink="http://www.w3.org/1999/xlink">
<g id="graph0" class="graph" transform="scale(1 1) rotate(0) translate(4 139.8313)">
<title>block</title>
<polygon fill="#ffffff" stroke="transparent" points="-4,4 -4,-139.8313 1140.2401,-139.8313 1140.2401,4 -4,4"/>
<!-- s1313 -->
<g id="node1" class="node">
<title>s1313</title>
<polygon fill="none" stroke="#000000" points="0,-46.6156 0,-88.2156 56.4418,-88.2156 56.4418,-46.6156 0,-46.6156"/>
<text text-anchor="middle" x="28.2209" y="-71.6156" font-family="Times,serif" font-size="14.00" fill="#000000">s1313</text>
<text text-anchor="middle" x="28.2209" y="-54.8156" font-family="Times,serif" font-size="14.00" fill="#000000">→ SEQ</text>
</g>
<!-- s1314 -->
<g id="node2" class="node">
<title>s1314</title>
<ellipse fill="none" stroke="#000000" cx="166.6204" cy="-67.4156" rx="73.3577" ry="29.3315"/>
<text text-anchor="middle" x="166.6204" y="-71.6156" font-family="Times,serif" font-size="14.00" fill="#000000">s1314 STRING</text>
<text text-anchor="middle" x="166.6204" y="-54.8156" font-family="Times,serif" font-size="14.00" fill="#000000">&quot;{&quot;</text>
</g>
<!-- s1313&#45;&gt;s1314 -->
<g id="edge1" class="edge">
<title>s1313&#45;&gt;s1314</title>
<path fill="none" stroke="#000000" d="M56.5621,-67.4156C64.6032,-67.4156 73.7912,-67.4156 83.3533,-67.4156"/>
<polygon fill="#000000" stroke="#000000" points="83.4211,-70.9157 93.421,-67.4156 83.421,-63.9157 83.4211,-70.9157"/>
</g>
<!-- s1315 -->
<g id="node3" class="node">
<title>s1315</title>
<polygon fill="none" stroke="#000000" points="276.799,-46.6156 276.799,-88.2156 359.6826,-88.2156 359.6826,-46.6156 276.799,-46.6156"/>
<text text-anchor="middle" x="318.2408" y="-71.6156" font-family="Times,serif" font-size="14.00" fill="#000000">s1315</text>
<text text-anchor="middle" x="318.2408" y="-54.8156" font-family="Times,serif" font-size="14.00" fill="#000000">→ REPEAT</text>
</g>
<!-- s1314&#45;&gt;s1315 -->
<g id="edge4" class="edge">
<title>s1314&#45;&gt;s1315</title>
<path fill="none" stroke="#000000" d="M240.2099,-67.4156C249.1143,-67.4156 258.0595,-67.4156 266.5537,-67.4156"/>
<polygon fill="#000000" stroke="#000000" points="266.658,-70.9157 276.6579,-67.4156 266.6579,-63.9157 266.658,-70.9157"/>
</g>
<!-- s1316 -->
<g id="node4" class="node">
<title>s1316</title>
<g id="a_node4"><a xlink:href="rust-grammar.json._statement.dot.svg" xlink:title="s1316 SYMBOL\n_statement">
<ellipse fill="none" stroke="#000000" cx="475.3654" cy="-67.4156" rx="78.8659" ry="29.3315"/>
<text text-anchor="middle" x="475.3654" y="-71.6156" font-family="Times,serif" font-size="14.00" fill="#000000">s1316 SYMBOL</text>
<text text-anchor="middle" x="475.3654" y="-54.8156" font-family="Times,serif" font-size="14.00" fill="#000000">_statement</text>
</a>
</g>
</g>
<!-- s1315&#45;&gt;s1316 -->
<g id="edge2" class="edge">
<title>s1315&#45;&gt;s1316</title>
<path fill="none" stroke="#000000" d="M359.9348,-61.3752C368.7743,-61.0083 378.419,-60.7837 388.2445,-60.7014"/>
<polygon fill="#000000" stroke="#000000" points="388.5347,-64.2005 398.5229,-60.6671 388.5113,-57.2006 388.5347,-64.2005"/>
</g>
<!-- s1316&#45;&gt;s1315 -->
<g id="edge3" class="edge">
<title>s1316&#45;&gt;s1315</title>
<path fill="none" stroke="#000000" d="M398.5229,-74.1642C388.8552,-74.1804 379.1527,-74.0602 370.0014,-73.8037"/>
<polygon fill="#000000" stroke="#000000" points="370.0497,-70.3033 359.9348,-73.4561 369.8081,-77.2992 370.0497,-70.3033"/>
</g>
<!-- s1317 -->
<g id="node5" class="node">
<title>s1317</title>
<polygon fill="none" stroke="#000000" points="591.0481,-42.6156 591.0481,-92.2156 692.6477,-92.2156 692.6477,-42.6156 591.0481,-42.6156"/>
<text text-anchor="middle" x="632.0979" y="-71.6156" font-family="Times,serif" font-size="14.00" fill="#000000">s1317</text>
<text text-anchor="middle" x="632.0979" y="-54.8156" font-family="Times,serif" font-size="14.00" fill="#000000">→ CHOICE</text>
<polyline fill="none" stroke="#000000" points="673.1477,-42.6156 673.1477,-92.2156 "/>
<text text-anchor="middle" x="682.8977" y="-75.6156" font-family="Times,serif" font-size="14.00" fill="#000000"> </text>
<polyline fill="none" stroke="#000000" points="673.1477,-67.4156 692.6477,-67.4156 "/>
<text text-anchor="middle" x="682.8977" y="-50.8156" font-family="Times,serif" font-size="14.00" fill="#000000"> </text>
</g>
<!-- s1316&#45;&gt;s1317 -->
<g id="edge7" class="edge">
<title>s1316&#45;&gt;s1317</title>
<path fill="none" stroke="#000000" d="M554.2188,-67.4156C563.0618,-67.4156 571.971,-67.4156 580.5458,-67.4156"/>
<polygon fill="#000000" stroke="#000000" points="580.8124,-70.9157 590.8124,-67.4156 580.8123,-63.9157 580.8124,-70.9157"/>
</g>
<!-- s1318 -->
<g id="node6" class="node">
<title>s1318</title>
<g id="a_node6"><a xlink:href="rust-grammar.json._expression.dot.svg" xlink:title="s1318 SYMBOL\n_expression">
<ellipse fill="none" stroke="#000000" cx="874.2001" cy="-106.4156" rx="78.8659" ry="29.3315"/>
<text text-anchor="middle" x="874.2001" y="-110.6156" font-family="Times,serif" font-size="14.00" fill="#000000">s1318 SYMBOL</text>
<text text-anchor="middle" x="874.2001" y="-93.8156" font-family="Times,serif" font-size="14.00" fill="#000000">_expression</text>
</a>
</g>
</g>
<!-- s1317&#45;&gt;s1318 -->
<g id="edge5" class="edge">
<title>s1317:p0&#45;&gt;s1318</title>
<path fill="none" stroke="#000000" d="M692.6477,-79.4156C726.7215,-79.4156 764.0049,-84.1261 795.8722,-89.6121"/>
<polygon fill="#000000" stroke="#000000" points="795.5592,-93.1112 806.0175,-91.4155 796.7844,-86.2193 795.5592,-93.1112"/>
<text text-anchor="middle" x="744.0825" y="-89.6156" font-family="Times,serif" font-size="14.00" fill="#000000">_expression</text>
</g>
<!-- s1319 -->
<g id="node7" class="node">
<title>s1319</title>
<ellipse fill="none" stroke="#000000" cx="874.2001" cy="-29.4156" rx="45.3054" ry="29.3315"/>
<text text-anchor="middle" x="874.2001" y="-33.6156" font-family="Times,serif" font-size="14.00" fill="#000000">s1319 </text>
<text text-anchor="middle" x="874.2001" y="-16.8156" font-family="Times,serif" font-size="14.00" fill="#000000">BLANK</text>
</g>
<!-- s1317&#45;&gt;s1319 -->
<g id="edge6" class="edge">
<title>s1317:p1&#45;&gt;s1319</title>
<path fill="none" stroke="#000000" d="M692.6477,-55.4156C736.3048,-55.4156 785.2761,-47.9576 821.3462,-41.0302"/>
<polygon fill="#000000" stroke="#000000" points="822.0273,-44.4634 831.1625,-39.0971 820.6747,-37.5953 822.0273,-44.4634"/>
</g>
<!-- s1320 -->
<g id="node8" class="node">
<title>s1320</title>
<ellipse fill="none" stroke="#000000" cx="1063.0614" cy="-67.4156" rx="73.3577" ry="29.3315"/>
<text text-anchor="middle" x="1063.0614" y="-71.6156" font-family="Times,serif" font-size="14.00" fill="#000000">s1320 STRING</text>
<text text-anchor="middle" x="1063.0614" y="-54.8156" font-family="Times,serif" font-size="14.00" fill="#000000">&quot;}&quot;</text>
</g>
<!-- s1318&#45;&gt;s1320 -->
<g id="edge8" class="edge">
<title>s1318&#45;&gt;s1320</title>
<path fill="none" stroke="#000000" d="M943.185,-92.1702C957.654,-89.1823 972.9843,-86.0166 987.6732,-82.9834"/>
<polygon fill="#000000" stroke="#000000" points="988.636,-86.3585 997.7215,-80.9084 987.2203,-79.5031 988.636,-86.3585"/>
</g>
<!-- s1319&#45;&gt;s1320 -->
<g id="edge9" class="edge">
<title>s1319&#45;&gt;s1320</title>
<path fill="none" stroke="#000000" d="M918.0034,-38.2291C938.5983,-42.3729 963.7547,-47.4345 987.2985,-52.1717"/>
<polygon fill="#000000" stroke="#000000" points="986.7781,-55.6371 997.272,-54.1784 988.1589,-48.7746 986.7781,-55.6371"/>
</g>
</g>
</svg>
