<?xml version="1.0" encoding="UTF-8" standalone="no"?>
<!DOCTYPE svg PUBLIC "-//W3C//DTD SVG 1.1//EN"
 "http://www.w3.org/Graphics/SVG/1.1/DTD/svg11.dtd">
<!-- Generated by graphviz version 2.40.1 (20161225.0304)
 -->
<!-- Title: slice_pattern Pages: 1 -->
<svg width="1403pt" height="258pt"
 viewBox="0.00 0.00 1402.72 257.83" xmlns="http://www.w3.org/2000/svg" xmlns:xlink="http://www.w3.org/1999/xlink">
<g id="graph0" class="graph" transform="scale(1 1) rotate(0) translate(4 253.8313)">
<title>slice_pattern</title>
<polygon fill="#ffffff" stroke="transparent" points="-4,4 -4,-253.8313 1398.7171,-253.8313 1398.7171,4 -4,4"/>
<!-- s1369 -->
<g id="node1" class="node">
<title>s1369</title>
<polygon fill="none" stroke="#000000" points="0,-92.6156 0,-134.2156 56.4418,-134.2156 56.4418,-92.6156 0,-92.6156"/>
<text text-anchor="middle" x="28.2209" y="-117.6156" font-family="Times,serif" font-size="14.00" fill="#000000">s1369</text>
<text text-anchor="middle" x="28.2209" y="-100.8156" font-family="Times,serif" font-size="14.00" fill="#000000">→ SEQ</text>
</g>
<!-- s1370 -->
<g id="node2" class="node">
<title>s1370</title>
<ellipse fill="none" stroke="#000000" cx="166.6204" cy="-113.4156" rx="73.3577" ry="29.3315"/>
<text text-anchor="middle" x="166.6204" y="-117.6156" font-family="Times,serif" font-size="14.00" fill="#000000">s1370 STRING</text>
<text text-anchor="middle" x="166.6204" y="-100.8156" font-family="Times,serif" font-size="14.00" fill="#000000">&quot;[&quot;</text>
</g>
<!-- s1369&#45;&gt;s1370 -->
<g id="edge1" class="edge">
<title>s1369&#45;&gt;s1370</title>
<path fill="none" stroke="#000000" d="M56.5621,-113.4156C64.6032,-113.4156 73.7912,-113.4156 83.3533,-113.4156"/>
<polygon fill="#000000" stroke="#000000" points="83.4211,-116.9157 93.421,-113.4156 83.421,-109.9157 83.4211,-116.9157"/>
</g>
<!-- s1371 -->
<g id="node3" class="node">
<title>s1371</title>
<polygon fill="none" stroke="#000000" points="276.799,-88.6156 276.799,-138.2156 378.3986,-138.2156 378.3986,-88.6156 276.799,-88.6156"/>
<text text-anchor="middle" x="317.8488" y="-117.6156" font-family="Times,serif" font-size="14.00" fill="#000000">s1371</text>
<text text-anchor="middle" x="317.8488" y="-100.8156" font-family="Times,serif" font-size="14.00" fill="#000000">→ CHOICE</text>
<polyline fill="none" stroke="#000000" points="358.8986,-88.6156 358.8986,-138.2156 "/>
<text text-anchor="middle" x="368.6486" y="-121.6156" font-family="Times,serif" font-size="14.00" fill="#000000"> </text>
<polyline fill="none" stroke="#000000" points="358.8986,-113.4156 378.3986,-113.4156 "/>
<text text-anchor="middle" x="368.6486" y="-96.8156" font-family="Times,serif" font-size="14.00" fill="#000000"> </text>
</g>
<!-- s1370&#45;&gt;s1371 -->
<g id="edge10" class="edge">
<title>s1370&#45;&gt;s1371</title>
<path fill="none" stroke="#000000" d="M240.0435,-113.4156C248.7685,-113.4156 257.6051,-113.4156 266.139,-113.4156"/>
<polygon fill="#000000" stroke="#000000" points="266.3705,-116.9157 276.3705,-113.4156 266.3704,-109.9157 266.3705,-116.9157"/>
</g>
<!-- s1372 -->
<g id="node4" class="node">
<title>s1372</title>
<polygon fill="none" stroke="#000000" points="415.3986,-131.6156 415.3986,-173.2156 471.8404,-173.2156 471.8404,-131.6156 415.3986,-131.6156"/>
<text text-anchor="middle" x="443.6195" y="-156.6156" font-family="Times,serif" font-size="14.00" fill="#000000">s1372</text>
<text text-anchor="middle" x="443.6195" y="-139.8156" font-family="Times,serif" font-size="14.00" fill="#000000">→ SEQ</text>
</g>
<!-- s1371&#45;&gt;s1372 -->
<g id="edge8" class="edge">
<title>s1371:p0&#45;&gt;s1372</title>
<path fill="none" stroke="#000000" d="M378.3986,-125.4156C387.5698,-125.4156 396.9524,-127.7229 405.6392,-130.9886"/>
<polygon fill="#000000" stroke="#000000" points="404.5306,-134.3203 415.1029,-135.0109 407.2687,-127.8781 404.5306,-134.3203"/>
</g>
<!-- s1378 -->
<g id="node10" class="node">
<title>s1378</title>
<ellipse fill="none" stroke="#000000" cx="535.2431" cy="-97.4156" rx="45.3054" ry="29.3315"/>
<text text-anchor="middle" x="535.2431" y="-101.6156" font-family="Times,serif" font-size="14.00" fill="#000000">s1378 </text>
<text text-anchor="middle" x="535.2431" y="-84.8156" font-family="Times,serif" font-size="14.00" fill="#000000">BLANK</text>
</g>
<!-- s1371&#45;&gt;s1378 -->
<g id="edge9" class="edge">
<title>s1371:p1&#45;&gt;s1378</title>
<path fill="none" stroke="#000000" d="M378.3986,-101.4156C411.9018,-101.4156 449.4175,-100.4923 479.3559,-99.5328"/>
<polygon fill="#000000" stroke="#000000" points="479.7318,-103.0224 489.6105,-99.1934 479.5002,-96.0262 479.7318,-103.0224"/>
</g>
<!-- s1373 -->
<g id="node5" class="node">
<title>s1373</title>
<g id="a_node5"><a xlink:href="rust-grammar.json._pattern.dot.svg" xlink:title="s1373 SYMBOL\n_pattern">
<ellipse fill="none" stroke="#000000" cx="677.3284" cy="-154.4156" rx="78.8659" ry="29.3315"/>
<text text-anchor="middle" x="677.3284" y="-158.6156" font-family="Times,serif" font-size="14.00" fill="#000000">s1373 SYMBOL</text>
<text text-anchor="middle" x="677.3284" y="-141.8156" font-family="Times,serif" font-size="14.00" fill="#000000">_pattern</text>
</a>
</g>
</g>
<!-- s1372&#45;&gt;s1373 -->
<g id="edge2" class="edge">
<title>s1372&#45;&gt;s1373</title>
<path fill="none" stroke="#000000" d="M472.2768,-152.6609C501.1598,-152.9081 547.2296,-153.3023 588.3908,-153.6545"/>
<polygon fill="#000000" stroke="#000000" points="588.4302,-157.1549 598.4598,-153.7407 588.4902,-150.1552 588.4302,-157.1549"/>
</g>
<!-- s1374 -->
<g id="node6" class="node">
<title>s1374</title>
<polygon fill="none" stroke="#000000" points="793.0112,-137.6156 793.0112,-179.2156 875.8948,-179.2156 875.8948,-137.6156 793.0112,-137.6156"/>
<text text-anchor="middle" x="834.453" y="-162.6156" font-family="Times,serif" font-size="14.00" fill="#000000">s1374</text>
<text text-anchor="middle" x="834.453" y="-145.8156" font-family="Times,serif" font-size="14.00" fill="#000000">→ REPEAT</text>
</g>
<!-- s1373&#45;&gt;s1374 -->
<g id="edge7" class="edge">
<title>s1373&#45;&gt;s1374</title>
<path fill="none" stroke="#000000" d="M755.8907,-156.4156C764.945,-156.6461 773.9992,-156.8766 782.5725,-157.0949"/>
<polygon fill="#000000" stroke="#000000" points="782.6731,-160.5985 792.759,-157.3542 782.8513,-153.6008 782.6731,-160.5985"/>
</g>
<!-- s1375 -->
<g id="node7" class="node">
<title>s1375</title>
<polygon fill="none" stroke="#000000" points="935.4737,-161.6156 935.4737,-203.2156 991.9155,-203.2156 991.9155,-161.6156 935.4737,-161.6156"/>
<text text-anchor="middle" x="963.6946" y="-186.6156" font-family="Times,serif" font-size="14.00" fill="#000000">s1375</text>
<text text-anchor="middle" x="963.6946" y="-169.8156" font-family="Times,serif" font-size="14.00" fill="#000000">→ SEQ</text>
</g>
<!-- s1374&#45;&gt;s1375 -->
<g id="edge5" class="edge">
<title>s1374&#45;&gt;s1375</title>
<path fill="none" stroke="#000000" d="M876.0572,-166.1415C891.7657,-169.0585 909.5614,-172.3632 924.9932,-175.2289"/>
<polygon fill="#000000" stroke="#000000" points="924.7735,-178.7478 935.2445,-177.1325 926.0516,-171.8655 924.7735,-178.7478"/>
</g>
<!-- s1379 -->
<g id="node11" class="node">
<title>s1379</title>
<polygon fill="none" stroke="#000000" points="912.8948,-69.6156 912.8948,-119.2156 1014.4944,-119.2156 1014.4944,-69.6156 912.8948,-69.6156"/>
<text text-anchor="middle" x="953.9446" y="-98.6156" font-family="Times,serif" font-size="14.00" fill="#000000">s1379</text>
<text text-anchor="middle" x="953.9446" y="-81.8156" font-family="Times,serif" font-size="14.00" fill="#000000">→ CHOICE</text>
<polyline fill="none" stroke="#000000" points="994.9944,-69.6156 994.9944,-119.2156 "/>
<text text-anchor="middle" x="1004.7444" y="-102.6156" font-family="Times,serif" font-size="14.00" fill="#000000"> </text>
<polyline fill="none" stroke="#000000" points="994.9944,-94.4156 1014.4944,-94.4156 "/>
<text text-anchor="middle" x="1004.7444" y="-77.8156" font-family="Times,serif" font-size="14.00" fill="#000000"> </text>
</g>
<!-- s1374&#45;&gt;s1379 -->
<g id="edge13" class="edge">
<title>s1374&#45;&gt;s1379</title>
<path fill="none" stroke="#000000" d="M876.0572,-137.8134C885.1163,-133.3273 894.8696,-128.4975 904.4634,-123.7467"/>
<polygon fill="#000000" stroke="#000000" points="906.1765,-126.8041 913.5848,-119.2298 903.0701,-120.5311 906.1765,-126.8041"/>
</g>
<!-- s1376 -->
<g id="node8" class="node">
<title>s1376</title>
<ellipse fill="none" stroke="#000000" cx="1127.173" cy="-183.4156" rx="73.3577" ry="29.3315"/>
<text text-anchor="middle" x="1127.173" y="-187.6156" font-family="Times,serif" font-size="14.00" fill="#000000">s1376 STRING</text>
<text text-anchor="middle" x="1127.173" y="-170.8156" font-family="Times,serif" font-size="14.00" fill="#000000">&quot;,&quot;</text>
</g>
<!-- s1375&#45;&gt;s1376 -->
<g id="edge3" class="edge">
<title>s1375&#45;&gt;s1376</title>
<path fill="none" stroke="#000000" d="M992.1703,-182.5898C1006.671,-182.6785 1025.1327,-182.7915 1043.7131,-182.9051"/>
<polygon fill="#000000" stroke="#000000" points="1043.699,-186.405 1053.7202,-182.9663 1043.7419,-179.4051 1043.699,-186.405"/>
</g>
<!-- s1377 -->
<g id="node9" class="node">
<title>s1377</title>
<g id="a_node9"><a xlink:href="rust-grammar.json._pattern.dot.svg" xlink:title="s1377 SYMBOL\n_pattern">
<ellipse fill="none" stroke="#000000" cx="1316.0344" cy="-220.4156" rx="78.8659" ry="29.3315"/>
<text text-anchor="middle" x="1316.0344" y="-224.6156" font-family="Times,serif" font-size="14.00" fill="#000000">s1377 SYMBOL</text>
<text text-anchor="middle" x="1316.0344" y="-207.8156" font-family="Times,serif" font-size="14.00" fill="#000000">_pattern</text>
</a>
</g>
</g>
<!-- s1376&#45;&gt;s1377 -->
<g id="edge4" class="edge">
<title>s1376&#45;&gt;s1377</title>
<path fill="none" stroke="#000000" d="M1192.9624,-196.3045C1206.9746,-199.0496 1221.9161,-201.9769 1236.3831,-204.8111"/>
<polygon fill="#000000" stroke="#000000" points="1235.8193,-208.2671 1246.3056,-206.755 1237.1651,-201.3977 1235.8193,-208.2671"/>
</g>
<!-- s1377&#45;&gt;s1374 -->
<g id="edge6" class="edge">
<title>s1377&#45;&gt;s1374</title>
<path fill="none" stroke="#000000" d="M1243.423,-232.102C1160.8515,-242.4385 1023.2013,-250.6057 912.8948,-212.4156 895.9458,-206.5476 879.2752,-195.9557 865.6907,-185.6973"/>
<polygon fill="#000000" stroke="#000000" points="867.6855,-182.8139 857.6563,-179.3983 863.3666,-188.3227 867.6855,-182.8139"/>
</g>
<!-- s1378&#45;&gt;s1379 -->
<g id="edge14" class="edge">
<title>s1378&#45;&gt;s1379</title>
<path fill="none" stroke="#000000" d="M580.6893,-97.0974C658.0896,-96.5555 815.5415,-95.453 902.5268,-94.8439"/>
<polygon fill="#000000" stroke="#000000" points="902.8001,-98.3422 912.7753,-94.7722 902.7511,-91.3424 902.8001,-98.3422"/>
</g>
<!-- s1380 -->
<g id="node12" class="node">
<title>s1380</title>
<ellipse fill="none" stroke="#000000" cx="1127.173" cy="-106.4156" rx="73.3577" ry="29.3315"/>
<text text-anchor="middle" x="1127.173" y="-110.6156" font-family="Times,serif" font-size="14.00" fill="#000000">s1380 STRING</text>
<text text-anchor="middle" x="1127.173" y="-93.8156" font-family="Times,serif" font-size="14.00" fill="#000000">&quot;,&quot;</text>
</g>
<!-- s1379&#45;&gt;s1380 -->
<g id="edge11" class="edge">
<title>s1379:p0&#45;&gt;s1380</title>
<path fill="none" stroke="#000000" d="M1014.4944,-106.4156C1023.9316,-106.4156 1033.8135,-106.4156 1043.6373,-106.4156"/>
<polygon fill="#000000" stroke="#000000" points="1043.8326,-109.9157 1053.8326,-106.4156 1043.8325,-102.9157 1043.8326,-109.9157"/>
<text text-anchor="middle" x="1034.2444" y="-110.6156" font-family="Times,serif" font-size="14.00" fill="#000000">,</text>
</g>
<!-- s1381 -->
<g id="node13" class="node">
<title>s1381</title>
<ellipse fill="none" stroke="#000000" cx="1127.173" cy="-29.4156" rx="45.3054" ry="29.3315"/>
<text text-anchor="middle" x="1127.173" y="-33.6156" font-family="Times,serif" font-size="14.00" fill="#000000">s1381 </text>
<text text-anchor="middle" x="1127.173" y="-16.8156" font-family="Times,serif" font-size="14.00" fill="#000000">BLANK</text>
</g>
<!-- s1379&#45;&gt;s1381 -->
<g id="edge12" class="edge">
<title>s1379:p1&#45;&gt;s1381</title>
<path fill="none" stroke="#000000" d="M1004.6946,-69.4156C1004.6946,-39.0381 1039.161,-29.6335 1071.5264,-27.499"/>
<polygon fill="#000000" stroke="#000000" points="1072.0773,-30.9783 1081.9145,-27.044 1071.7709,-23.985 1072.0773,-30.9783"/>
</g>
<!-- s1382 -->
<g id="node14" class="node">
<title>s1382</title>
<ellipse fill="none" stroke="#000000" cx="1316.0344" cy="-68.4156" rx="73.3577" ry="29.3315"/>
<text text-anchor="middle" x="1316.0344" y="-72.6156" font-family="Times,serif" font-size="14.00" fill="#000000">s1382 STRING</text>
<text text-anchor="middle" x="1316.0344" y="-55.8156" font-family="Times,serif" font-size="14.00" fill="#000000">&quot;]&quot;</text>
</g>
<!-- s1380&#45;&gt;s1382 -->
<g id="edge15" class="edge">
<title>s1380&#45;&gt;s1382</title>
<path fill="none" stroke="#000000" d="M1192.6975,-93.2317C1207.9916,-90.1545 1224.4052,-86.8519 1240.1083,-83.6924"/>
<polygon fill="#000000" stroke="#000000" points="1241.1929,-87.0444 1250.306,-81.6406 1239.8121,-80.1819 1241.1929,-87.0444"/>
</g>
<!-- s1381&#45;&gt;s1382 -->
<g id="edge16" class="edge">
<title>s1381&#45;&gt;s1382</title>
<path fill="none" stroke="#000000" d="M1170.5016,-38.363C1191.2748,-42.6527 1216.7695,-47.9174 1240.5843,-52.8352"/>
<polygon fill="#000000" stroke="#000000" points="1240.1679,-56.3229 1250.6691,-54.9177 1241.5836,-49.4676 1240.1679,-56.3229"/>
</g>
</g>
</svg>
