<?xml version="1.0" encoding="UTF-8" standalone="no"?>
<!DOCTYPE svg PUBLIC "-//W3C//DTD SVG 1.1//EN"
 "http://www.w3.org/Graphics/SVG/1.1/DTD/svg11.dtd">
<!-- Generated by graphviz version 2.40.1 (20161225.0304)
 -->
<!-- Title: scoped_use_list Pages: 1 -->
<svg width="776pt" height="144pt"
 viewBox="0.00 0.00 775.54 143.83" xmlns="http://www.w3.org/2000/svg" xmlns:xlink="http://www.w3.org/1999/xlink">
<g id="graph0" class="graph" transform="scale(1 1) rotate(0) translate(4 139.8313)">
<title>scoped_use_list</title>
<polygon fill="#ffffff" stroke="transparent" points="-4,4 -4,-139.8313 771.5363,-139.8313 771.5363,4 -4,4"/>
<!-- s671 -->
<g id="node1" class="node">
<title>s671</title>
<polygon fill="none" stroke="#000000" points="0,-46.6156 0,-88.2156 56.4418,-88.2156 56.4418,-46.6156 0,-46.6156"/>
<text text-anchor="middle" x="28.2209" y="-71.6156" font-family="Times,serif" font-size="14.00" fill="#000000">s671</text>
<text text-anchor="middle" x="28.2209" y="-54.8156" font-family="Times,serif" font-size="14.00" fill="#000000">→ SEQ</text>
</g>
<!-- s672 -->
<g id="node2" class="node">
<title>s672</title>
<polygon fill="none" stroke="#000000" points="93.4418,-42.6156 93.4418,-92.2156 195.0414,-92.2156 195.0414,-42.6156 93.4418,-42.6156"/>
<text text-anchor="middle" x="134.4916" y="-71.6156" font-family="Times,serif" font-size="14.00" fill="#000000">s672</text>
<text text-anchor="middle" x="134.4916" y="-54.8156" font-family="Times,serif" font-size="14.00" fill="#000000">→ CHOICE</text>
<polyline fill="none" stroke="#000000" points="175.5414,-42.6156 175.5414,-92.2156 "/>
<text text-anchor="middle" x="185.2914" y="-75.6156" font-family="Times,serif" font-size="14.00" fill="#000000"> </text>
<polyline fill="none" stroke="#000000" points="175.5414,-67.4156 195.0414,-67.4156 "/>
<text text-anchor="middle" x="185.2914" y="-50.8156" font-family="Times,serif" font-size="14.00" fill="#000000"> </text>
</g>
<!-- s671&#45;&gt;s672 -->
<g id="edge3" class="edge">
<title>s671&#45;&gt;s672</title>
<path fill="none" stroke="#000000" d="M56.6028,-67.4156C64.6824,-67.4156 73.8102,-67.4156 83.0459,-67.4156"/>
<polygon fill="#000000" stroke="#000000" points="83.0657,-70.9157 93.0657,-67.4156 83.0656,-63.9157 83.0657,-70.9157"/>
</g>
<!-- s673 -->
<g id="node3" class="node">
<title>s673</title>
<g id="a_node3"><a xlink:href="rust-grammar.json._path.dot.svg" xlink:title="s673 SYMBOL\n_path">
<ellipse fill="none" stroke="#000000" cx="335.8796" cy="-106.4156" rx="73.9667" ry="29.3315"/>
<text text-anchor="middle" x="335.8796" y="-110.6156" font-family="Times,serif" font-size="14.00" fill="#000000">s673 SYMBOL</text>
<text text-anchor="middle" x="335.8796" y="-93.8156" font-family="Times,serif" font-size="14.00" fill="#000000">_path</text>
</a>
</g>
</g>
<!-- s672&#45;&gt;s673 -->
<g id="edge1" class="edge">
<title>s672:p0&#45;&gt;s673</title>
<path fill="none" stroke="#000000" d="M195.0414,-79.4156C218.0345,-79.4156 242.7676,-82.9297 264.9927,-87.4223"/>
<polygon fill="#000000" stroke="#000000" points="264.504,-90.8964 275.0125,-89.5463 265.9557,-84.0486 264.504,-90.8964"/>
<text text-anchor="middle" x="228.594" y="-86.6156" font-family="Times,serif" font-size="14.00" fill="#000000">_path</text>
</g>
<!-- s674 -->
<g id="node4" class="node">
<title>s674</title>
<ellipse fill="none" stroke="#000000" cx="335.8796" cy="-29.4156" rx="45.3054" ry="29.3315"/>
<text text-anchor="middle" x="335.8796" y="-33.6156" font-family="Times,serif" font-size="14.00" fill="#000000">s674 </text>
<text text-anchor="middle" x="335.8796" y="-16.8156" font-family="Times,serif" font-size="14.00" fill="#000000">BLANK</text>
</g>
<!-- s672&#45;&gt;s674 -->
<g id="edge2" class="edge">
<title>s672:p1&#45;&gt;s674</title>
<path fill="none" stroke="#000000" d="M195.0414,-55.4156C224.9159,-55.4156 257.7714,-49.6884 284.2291,-43.61"/>
<polygon fill="#000000" stroke="#000000" points="285.1194,-46.9959 294.0365,-41.2744 283.4977,-40.1864 285.1194,-46.9959"/>
</g>
<!-- s675 -->
<g id="node5" class="node">
<title>s675</title>
<ellipse fill="none" stroke="#000000" cx="514.8415" cy="-67.4156" rx="68.4585" ry="29.3315"/>
<text text-anchor="middle" x="514.8415" y="-71.6156" font-family="Times,serif" font-size="14.00" fill="#000000">s675 STRING</text>
<text text-anchor="middle" x="514.8415" y="-54.8156" font-family="Times,serif" font-size="14.00" fill="#000000">&quot;::&quot;</text>
</g>
<!-- s673&#45;&gt;s675 -->
<g id="edge4" class="edge">
<title>s673&#45;&gt;s675</title>
<path fill="none" stroke="#000000" d="M400.742,-92.2806C414.6674,-89.2459 429.4553,-86.0233 443.6073,-82.9392"/>
<polygon fill="#000000" stroke="#000000" points="444.753,-86.2718 453.7784,-80.7227 443.2624,-79.4323 444.753,-86.2718"/>
</g>
<!-- s674&#45;&gt;s675 -->
<g id="edge5" class="edge">
<title>s674&#45;&gt;s675</title>
<path fill="none" stroke="#000000" d="M379.2013,-38.6144C398.4883,-42.7097 421.7152,-47.6416 443.455,-52.2578"/>
<polygon fill="#000000" stroke="#000000" points="442.8106,-55.6989 453.3195,-54.3523 444.2645,-48.8515 442.8106,-55.6989"/>
</g>
<!-- s676 -->
<g id="node6" class="node">
<title>s676</title>
<g id="a_node6"><a xlink:href="rust-grammar.json.use_list.dot.svg" xlink:title="s676 SYMBOL\nuse_list">
<ellipse fill="none" stroke="#000000" cx="693.8033" cy="-67.4156" rx="73.9667" ry="29.3315"/>
<text text-anchor="middle" x="693.8033" y="-71.6156" font-family="Times,serif" font-size="14.00" fill="#000000">s676 SYMBOL</text>
<text text-anchor="middle" x="693.8033" y="-54.8156" font-family="Times,serif" font-size="14.00" fill="#000000">use_list</text>
</a>
</g>
</g>
<!-- s675&#45;&gt;s676 -->
<g id="edge6" class="edge">
<title>s675&#45;&gt;s676</title>
<path fill="none" stroke="#000000" d="M583.2653,-67.4156C592.0119,-67.4156 601.0431,-67.4156 609.9982,-67.4156"/>
<polygon fill="#000000" stroke="#000000" points="610.0573,-70.9157 620.0572,-67.4156 610.0572,-63.9157 610.0573,-70.9157"/>
</g>
</g>
</svg>
