<?xml version="1.0" encoding="UTF-8" standalone="no"?>
<!DOCTYPE svg PUBLIC "-//W3C//DTD SVG 1.1//EN"
 "http://www.w3.org/Graphics/SVG/1.1/DTD/svg11.dtd">
<!-- Generated by graphviz version 2.40.1 (20161225.0304)
 -->
<!-- Title: call_expression Pages: 1 -->
<svg width="552pt" height="67pt"
 viewBox="0.00 0.00 552.18 66.83" xmlns="http://www.w3.org/2000/svg" xmlns:xlink="http://www.w3.org/1999/xlink">
<g id="graph0" class="graph" transform="scale(1 1) rotate(0) translate(4 62.8313)">
<title>call_expression</title>
<polygon fill="#ffffff" stroke="transparent" points="-4,4 -4,-62.8313 548.1812,-62.8313 548.1812,4 -4,4"/>
<!-- s1053 -->
<g id="node1" class="node">
<title>s1053</title>
<polygon fill="none" stroke="#000000" points="0,-8.6156 0,-50.2156 65.0084,-50.2156 65.0084,-8.6156 0,-8.6156"/>
<text text-anchor="middle" x="32.5042" y="-33.6156" font-family="Times,serif" font-size="14.00" fill="#000000">s1053</text>
<text text-anchor="middle" x="32.5042" y="-16.8156" font-family="Times,serif" font-size="14.00" fill="#000000">→ PREC</text>
</g>
<!-- s1054 -->
<g id="node2" class="node">
<title>s1054</title>
<polygon fill="none" stroke="#000000" points="101.0084,-8.6156 101.0084,-50.2156 157.4502,-50.2156 157.4502,-8.6156 101.0084,-8.6156"/>
<text text-anchor="middle" x="129.2293" y="-33.6156" font-family="Times,serif" font-size="14.00" fill="#000000">s1054</text>
<text text-anchor="middle" x="129.2293" y="-16.8156" font-family="Times,serif" font-size="14.00" fill="#000000">→ SEQ</text>
</g>
<!-- s1053&#45;&gt;s1054 -->
<g id="edge3" class="edge">
<title>s1053&#45;&gt;s1054</title>
<path fill="none" stroke="#000000" d="M65.2509,-29.4156C73.4333,-29.4156 82.2837,-29.4156 90.7169,-29.4156"/>
<polygon fill="#000000" stroke="#000000" points="90.7236,-32.9157 100.7236,-29.4156 90.7235,-25.9157 90.7236,-32.9157"/>
</g>
<!-- s1055 -->
<g id="node3" class="node">
<title>s1055</title>
<g id="a_node3"><a xlink:href="rust-grammar.json._expression.dot.svg" xlink:title="s1055 SYMBOL\n_expression">
<ellipse fill="none" stroke="#000000" cx="272.1329" cy="-29.4156" rx="78.8659" ry="29.3315"/>
<text text-anchor="middle" x="272.1329" y="-33.6156" font-family="Times,serif" font-size="14.00" fill="#000000">s1055 SYMBOL</text>
<text text-anchor="middle" x="272.1329" y="-16.8156" font-family="Times,serif" font-size="14.00" fill="#000000">_expression</text>
</a>
</g>
</g>
<!-- s1054&#45;&gt;s1055 -->
<g id="edge1" class="edge">
<title>s1054&#45;&gt;s1055</title>
<path fill="none" stroke="#000000" d="M157.4625,-29.4156C165.1682,-29.4156 173.9482,-29.4156 183.1411,-29.4156"/>
<polygon fill="#000000" stroke="#000000" points="183.2471,-32.9157 193.2471,-29.4156 183.2471,-25.9157 183.2471,-32.9157"/>
</g>
<!-- s1056 -->
<g id="node4" class="node">
<title>s1056</title>
<g id="a_node4"><a xlink:href="rust-grammar.json.arguments.dot.svg" xlink:title="s1056 SYMBOL\narguments">
<ellipse fill="none" stroke="#000000" cx="465.4984" cy="-29.4156" rx="78.8659" ry="29.3315"/>
<text text-anchor="middle" x="465.4984" y="-33.6156" font-family="Times,serif" font-size="14.00" fill="#000000">s1056 SYMBOL</text>
<text text-anchor="middle" x="465.4984" y="-16.8156" font-family="Times,serif" font-size="14.00" fill="#000000">arguments</text>
</a>
</g>
</g>
<!-- s1055&#45;&gt;s1056 -->
<g id="edge2" class="edge">
<title>s1055&#45;&gt;s1056</title>
<path fill="none" stroke="#000000" d="M351.061,-29.4156C359.3761,-29.4156 367.8727,-29.4156 376.2932,-29.4156"/>
<polygon fill="#000000" stroke="#000000" points="376.5094,-32.9157 386.5094,-29.4156 376.5093,-25.9157 376.5094,-32.9157"/>
</g>
</g>
</svg>
