<?xml version="1.0" encoding="UTF-8" standalone="no"?>
<!DOCTYPE svg PUBLIC "-//W3C//DTD SVG 1.1//EN"
 "http://www.w3.org/Graphics/SVG/1.1/DTD/svg11.dtd">
<!-- Generated by graphviz version 2.40.1 (20161225.0304)
 -->
<!-- Title: _literal_pattern Pages: 1 -->
<svg width="1145pt" height="405pt"
 viewBox="0.00 0.00 1144.60 404.83" xmlns="http://www.w3.org/2000/svg" xmlns:xlink="http://www.w3.org/1999/xlink">
<g id="graph0" class="graph" transform="scale(1 1) rotate(0) translate(4 400.8313)">
<title>_literal_pattern</title>
<polygon fill="#ffffff" stroke="transparent" points="-4,4 -4,-400.8313 1140.5962,-400.8313 1140.5962,4 -4,4"/>
<!-- s1464 -->
<g id="node1" class="node">
<title>s1464</title>
<polygon fill="none" stroke="#000000" points="0,-151.4156 0,-275.4156 101.5996,-275.4156 101.5996,-151.4156 0,-151.4156"/>
<text text-anchor="middle" x="41.0498" y="-217.6156" font-family="Times,serif" font-size="14.00" fill="#000000">s1464</text>
<text text-anchor="middle" x="41.0498" y="-200.8156" font-family="Times,serif" font-size="14.00" fill="#000000">→ CHOICE</text>
<polyline fill="none" stroke="#000000" points="82.0996,-151.4156 82.0996,-275.4156 "/>
<text text-anchor="middle" x="91.8496" y="-258.8156" font-family="Times,serif" font-size="14.00" fill="#000000"> </text>
<polyline fill="none" stroke="#000000" points="82.0996,-250.6156 101.5996,-250.6156 "/>
<text text-anchor="middle" x="91.8496" y="-234.0156" font-family="Times,serif" font-size="14.00" fill="#000000"> </text>
<polyline fill="none" stroke="#000000" points="82.0996,-225.8156 101.5996,-225.8156 "/>
<text text-anchor="middle" x="91.8496" y="-209.2156" font-family="Times,serif" font-size="14.00" fill="#000000"> </text>
<polyline fill="none" stroke="#000000" points="82.0996,-201.0156 101.5996,-201.0156 "/>
<text text-anchor="middle" x="91.8496" y="-184.4156" font-family="Times,serif" font-size="14.00" fill="#000000"> </text>
<polyline fill="none" stroke="#000000" points="82.0996,-176.2156 101.5996,-176.2156 "/>
<text text-anchor="middle" x="91.8496" y="-159.6156" font-family="Times,serif" font-size="14.00" fill="#000000"> </text>
</g>
<!-- s1465 -->
<g id="node2" class="node">
<title>s1465</title>
<g id="a_node2"><a xlink:href="rust-grammar.json.string_literal.dot.svg" xlink:title="s1465 SYMBOL\nstring_literal">
<ellipse fill="none" stroke="#000000" cx="318.8053" cy="-367.4156" rx="78.8659" ry="29.3315"/>
<text text-anchor="middle" x="318.8053" y="-371.6156" font-family="Times,serif" font-size="14.00" fill="#000000">s1465 SYMBOL</text>
<text text-anchor="middle" x="318.8053" y="-354.8156" font-family="Times,serif" font-size="14.00" fill="#000000">string_literal</text>
</a>
</g>
</g>
<!-- s1464&#45;&gt;s1465 -->
<g id="edge1" class="edge">
<title>s1464:p0&#45;&gt;s1465</title>
<path fill="none" stroke="#000000" d="M91.7998,-275.4156C91.7998,-337.7793 166.298,-358.883 229.9391,-365.5334"/>
<polygon fill="#000000" stroke="#000000" points="229.7638,-369.0323 240.0468,-366.4808 230.4171,-362.0628 229.7638,-369.0323"/>
<text text-anchor="middle" x="169.3598" y="-367.6156" font-family="Times,serif" font-size="14.00" fill="#000000">string_literal</text>
</g>
<!-- s1466 -->
<g id="node3" class="node">
<title>s1466</title>
<g id="a_node3"><a xlink:href="rust-grammar.json.raw_string_literal.dot.svg" xlink:title="s1466 SYMBOL\nraw_string_literal">
<ellipse fill="none" stroke="#000000" cx="318.8053" cy="-290.4156" rx="81.8709" ry="29.3315"/>
<text text-anchor="middle" x="318.8053" y="-294.6156" font-family="Times,serif" font-size="14.00" fill="#000000">s1466 SYMBOL</text>
<text text-anchor="middle" x="318.8053" y="-277.8156" font-family="Times,serif" font-size="14.00" fill="#000000">raw_string_literal</text>
</a>
</g>
</g>
<!-- s1464&#45;&gt;s1466 -->
<g id="edge2" class="edge">
<title>s1464:p1&#45;&gt;s1466</title>
<path fill="none" stroke="#000000" d="M101.5996,-238.4156C153.2206,-238.4156 209.8929,-252.4785 252.4024,-265.9778"/>
<polygon fill="#000000" stroke="#000000" points="251.4772,-269.3572 262.0693,-269.1152 253.6381,-262.6991 251.4772,-269.3572"/>
<text text-anchor="middle" x="169.3598" y="-258.6156" font-family="Times,serif" font-size="14.00" fill="#000000">raw_string_literal</text>
</g>
<!-- s1467 -->
<g id="node4" class="node">
<title>s1467</title>
<g id="a_node4"><a xlink:href="rust-grammar.json.char_literal.dot.svg" xlink:title="s1467 SYMBOL\nchar_literal">
<ellipse fill="none" stroke="#000000" cx="318.8053" cy="-213.4156" rx="78.8659" ry="29.3315"/>
<text text-anchor="middle" x="318.8053" y="-217.6156" font-family="Times,serif" font-size="14.00" fill="#000000">s1467 SYMBOL</text>
<text text-anchor="middle" x="318.8053" y="-200.8156" font-family="Times,serif" font-size="14.00" fill="#000000">char_literal</text>
</a>
</g>
</g>
<!-- s1464&#45;&gt;s1467 -->
<g id="edge3" class="edge">
<title>s1464:p2&#45;&gt;s1467</title>
<path fill="none" stroke="#000000" d="M101.5996,-213.4156C143.7475,-213.4156 190.4959,-213.4156 229.7932,-213.4156"/>
<polygon fill="#000000" stroke="#000000" points="229.8783,-216.9157 239.8782,-213.4156 229.8782,-209.9157 229.8783,-216.9157"/>
<text text-anchor="middle" x="169.3598" y="-217.6156" font-family="Times,serif" font-size="14.00" fill="#000000">char_literal</text>
</g>
<!-- s1468 -->
<g id="node5" class="node">
<title>s1468</title>
<g id="a_node5"><a xlink:href="rust-grammar.json.boolean_literal.dot.svg" xlink:title="s1468 SYMBOL\nboolean_literal">
<ellipse fill="none" stroke="#000000" cx="318.8053" cy="-136.4156" rx="78.8659" ry="29.3315"/>
<text text-anchor="middle" x="318.8053" y="-140.6156" font-family="Times,serif" font-size="14.00" fill="#000000">s1468 SYMBOL</text>
<text text-anchor="middle" x="318.8053" y="-123.8156" font-family="Times,serif" font-size="14.00" fill="#000000">boolean_literal</text>
</a>
</g>
</g>
<!-- s1464&#45;&gt;s1468 -->
<g id="edge4" class="edge">
<title>s1464:p3&#45;&gt;s1468</title>
<path fill="none" stroke="#000000" d="M101.5996,-188.4156C153.5803,-188.4156 210.683,-174.1561 253.289,-160.5713"/>
<polygon fill="#000000" stroke="#000000" points="254.5486,-163.8421 262.9722,-157.4161 252.3798,-157.1865 254.5486,-163.8421"/>
<text text-anchor="middle" x="169.3598" y="-191.6156" font-family="Times,serif" font-size="14.00" fill="#000000">boolean_literal</text>
</g>
<!-- s1469 -->
<g id="node6" class="node">
<title>s1469</title>
<polygon fill="none" stroke="#000000" points="290.5844,-46.6156 290.5844,-88.2156 347.0262,-88.2156 347.0262,-46.6156 290.5844,-46.6156"/>
<text text-anchor="middle" x="318.8053" y="-71.6156" font-family="Times,serif" font-size="14.00" fill="#000000">s1469</text>
<text text-anchor="middle" x="318.8053" y="-54.8156" font-family="Times,serif" font-size="14.00" fill="#000000">→ SEQ</text>
</g>
<!-- s1464&#45;&gt;s1469 -->
<g id="edge12" class="edge">
<title>s1464:p4&#45;&gt;s1469</title>
<path fill="none" stroke="#000000" d="M91.7998,-151.4156C91.7998,-72.0021 215.5044,-64.0599 280.2758,-65.3442"/>
<polygon fill="#000000" stroke="#000000" points="280.4189,-68.8496 290.5138,-65.6338 280.6168,-61.8524 280.4189,-68.8496"/>
</g>
<!-- s1470 -->
<g id="node7" class="node">
<title>s1470</title>
<polygon fill="none" stroke="#000000" points="437.4905,-42.6156 437.4905,-92.2156 539.0901,-92.2156 539.0901,-42.6156 437.4905,-42.6156"/>
<text text-anchor="middle" x="478.5403" y="-71.6156" font-family="Times,serif" font-size="14.00" fill="#000000">s1470</text>
<text text-anchor="middle" x="478.5403" y="-54.8156" font-family="Times,serif" font-size="14.00" fill="#000000">→ CHOICE</text>
<polyline fill="none" stroke="#000000" points="519.5901,-42.6156 519.5901,-92.2156 "/>
<text text-anchor="middle" x="529.3401" y="-75.6156" font-family="Times,serif" font-size="14.00" fill="#000000"> </text>
<polyline fill="none" stroke="#000000" points="519.5901,-67.4156 539.0901,-67.4156 "/>
<text text-anchor="middle" x="529.3401" y="-50.8156" font-family="Times,serif" font-size="14.00" fill="#000000"> </text>
</g>
<!-- s1469&#45;&gt;s1470 -->
<g id="edge7" class="edge">
<title>s1469&#45;&gt;s1470</title>
<path fill="none" stroke="#000000" d="M347.1732,-67.4156C368.8988,-67.4156 399.6715,-67.4156 426.9388,-67.4156"/>
<polygon fill="#000000" stroke="#000000" points="427.1914,-70.9157 437.1914,-67.4156 427.1914,-63.9157 427.1914,-70.9157"/>
</g>
<!-- s1471 -->
<g id="node8" class="node">
<title>s1471</title>
<ellipse fill="none" stroke="#000000" cx="652.9293" cy="-106.4156" rx="73.3577" ry="29.3315"/>
<text text-anchor="middle" x="652.9293" y="-110.6156" font-family="Times,serif" font-size="14.00" fill="#000000">s1471 STRING</text>
<text text-anchor="middle" x="652.9293" y="-93.8156" font-family="Times,serif" font-size="14.00" fill="#000000">&quot;&#45;&quot;</text>
</g>
<!-- s1470&#45;&gt;s1471 -->
<g id="edge5" class="edge">
<title>s1470:p0&#45;&gt;s1471</title>
<path fill="none" stroke="#000000" d="M539.0901,-79.4156C554.6693,-79.4156 571.1319,-81.8393 586.5501,-85.2343"/>
<polygon fill="#000000" stroke="#000000" points="585.9744,-88.6946 596.5115,-87.5898 587.5853,-81.8824 585.9744,-88.6946"/>
<text text-anchor="middle" x="559.4204" y="-84.6156" font-family="Times,serif" font-size="14.00" fill="#000000">&#45;</text>
</g>
<!-- s1472 -->
<g id="node9" class="node">
<title>s1472</title>
<ellipse fill="none" stroke="#000000" cx="652.9293" cy="-29.4156" rx="45.3054" ry="29.3315"/>
<text text-anchor="middle" x="652.9293" y="-33.6156" font-family="Times,serif" font-size="14.00" fill="#000000">s1472 </text>
<text text-anchor="middle" x="652.9293" y="-16.8156" font-family="Times,serif" font-size="14.00" fill="#000000">BLANK</text>
</g>
<!-- s1470&#45;&gt;s1472 -->
<g id="edge6" class="edge">
<title>s1470:p1&#45;&gt;s1472</title>
<path fill="none" stroke="#000000" d="M539.0901,-55.4156C560.3348,-55.4156 583.2625,-51.0588 602.9353,-45.9121"/>
<polygon fill="#000000" stroke="#000000" points="603.89,-49.2795 612.6039,-43.253 602.0337,-42.5301 603.89,-49.2795"/>
</g>
<!-- s1473 -->
<g id="node10" class="node">
<title>s1473</title>
<polygon fill="none" stroke="#000000" points="763.108,-49.6156 763.108,-99.2156 864.7076,-99.2156 864.7076,-49.6156 763.108,-49.6156"/>
<text text-anchor="middle" x="804.1578" y="-78.6156" font-family="Times,serif" font-size="14.00" fill="#000000">s1473</text>
<text text-anchor="middle" x="804.1578" y="-61.8156" font-family="Times,serif" font-size="14.00" fill="#000000">→ CHOICE</text>
<polyline fill="none" stroke="#000000" points="845.2076,-49.6156 845.2076,-99.2156 "/>
<text text-anchor="middle" x="854.9576" y="-82.6156" font-family="Times,serif" font-size="14.00" fill="#000000"> </text>
<polyline fill="none" stroke="#000000" points="845.2076,-74.4156 864.7076,-74.4156 "/>
<text text-anchor="middle" x="854.9576" y="-57.8156" font-family="Times,serif" font-size="14.00" fill="#000000"> </text>
</g>
<!-- s1471&#45;&gt;s1473 -->
<g id="edge10" class="edge">
<title>s1471&#45;&gt;s1473</title>
<path fill="none" stroke="#000000" d="M718.8699,-93.3077C730.1712,-91.0612 741.8684,-88.736 753.0298,-86.5172"/>
<polygon fill="#000000" stroke="#000000" points="753.977,-89.8975 763.1027,-84.5149 752.6122,-83.0318 753.977,-89.8975"/>
</g>
<!-- s1472&#45;&gt;s1473 -->
<g id="edge11" class="edge">
<title>s1472&#45;&gt;s1473</title>
<path fill="none" stroke="#000000" d="M694.8043,-41.1214C712.6558,-46.1116 733.8284,-52.0302 753.3355,-57.4832"/>
<polygon fill="#000000" stroke="#000000" points="752.483,-60.879 763.0561,-60.2005 754.3676,-54.1375 752.483,-60.879"/>
</g>
<!-- s1474 -->
<g id="node11" class="node">
<title>s1474</title>
<g id="a_node11"><a xlink:href="rust-grammar.json.integer_literal.dot.svg" xlink:title="s1474 SYMBOL\ninteger_literal">
<ellipse fill="none" stroke="#000000" cx="1057.9135" cy="-113.4156" rx="78.8659" ry="29.3315"/>
<text text-anchor="middle" x="1057.9135" y="-117.6156" font-family="Times,serif" font-size="14.00" fill="#000000">s1474 SYMBOL</text>
<text text-anchor="middle" x="1057.9135" y="-100.8156" font-family="Times,serif" font-size="14.00" fill="#000000">integer_literal</text>
</a>
</g>
</g>
<!-- s1473&#45;&gt;s1474 -->
<g id="edge8" class="edge">
<title>s1473:p0&#45;&gt;s1474</title>
<path fill="none" stroke="#000000" d="M864.7076,-86.4156C902.4691,-86.4156 943.9861,-91.537 978.8246,-97.3188"/>
<polygon fill="#000000" stroke="#000000" points="978.4898,-100.8123 988.9364,-99.0461 979.6685,-93.9122 978.4898,-100.8123"/>
<text text-anchor="middle" x="921.9692" y="-97.6156" font-family="Times,serif" font-size="14.00" fill="#000000">integer_literal</text>
</g>
<!-- s1475 -->
<g id="node12" class="node">
<title>s1475</title>
<g id="a_node12"><a xlink:href="rust-grammar.json.float_literal.dot.svg" xlink:title="s1475 SYMBOL\nfloat_literal">
<ellipse fill="none" stroke="#000000" cx="1057.9135" cy="-36.4156" rx="78.8659" ry="29.3315"/>
<text text-anchor="middle" x="1057.9135" y="-40.6156" font-family="Times,serif" font-size="14.00" fill="#000000">s1475 SYMBOL</text>
<text text-anchor="middle" x="1057.9135" y="-23.8156" font-family="Times,serif" font-size="14.00" fill="#000000">float_literal</text>
</a>
</g>
</g>
<!-- s1473&#45;&gt;s1475 -->
<g id="edge9" class="edge">
<title>s1473:p1&#45;&gt;s1475</title>
<path fill="none" stroke="#000000" d="M864.7076,-62.4156C902.2888,-62.4156 943.6176,-57.5241 978.3725,-51.9844"/>
<polygon fill="#000000" stroke="#000000" points="979.1612,-55.4019 988.4627,-50.329 978.0279,-48.4942 979.1612,-55.4019"/>
<text text-anchor="middle" x="921.9692" y="-65.6156" font-family="Times,serif" font-size="14.00" fill="#000000">float_literal</text>
</g>
</g>
</svg>
