<?xml version="1.0" encoding="UTF-8" standalone="no"?>
<!DOCTYPE svg PUBLIC "-//W3C//DTD SVG 1.1//EN"
 "http://www.w3.org/Graphics/SVG/1.1/DTD/svg11.dtd">
<!-- Generated by graphviz version 2.40.1 (20161225.0304)
 -->
<!-- Title: fragment_specifier Pages: 1 -->
<svg width="313pt" height="760pt"
 viewBox="0.00 0.00 313.16 759.83" xmlns="http://www.w3.org/2000/svg" xmlns:xlink="http://www.w3.org/1999/xlink">
<g id="graph0" class="graph" transform="scale(1 1) rotate(0) translate(4 755.8313)">
<title>fragment_specifier</title>
<polygon fill="#ffffff" stroke="transparent" points="-4,4 -4,-755.8313 309.1625,-755.8313 309.1625,4 -4,4"/>
<!-- s104 -->
<g id="node1" class="node">
<title>s104</title>
<polygon fill="none" stroke="#000000" points="0,-251.4156 0,-499.4156 101.5996,-499.4156 101.5996,-251.4156 0,-251.4156"/>
<text text-anchor="middle" x="41.0498" y="-379.6156" font-family="Times,serif" font-size="14.00" fill="#000000">s104</text>
<text text-anchor="middle" x="41.0498" y="-362.8156" font-family="Times,serif" font-size="14.00" fill="#000000">→ CHOICE</text>
<polyline fill="none" stroke="#000000" points="82.0996,-251.4156 82.0996,-499.4156 "/>
<text text-anchor="middle" x="91.8496" y="-482.8156" font-family="Times,serif" font-size="14.00" fill="#000000"> </text>
<polyline fill="none" stroke="#000000" points="82.0996,-474.6156 101.5996,-474.6156 "/>
<text text-anchor="middle" x="91.8496" y="-458.0156" font-family="Times,serif" font-size="14.00" fill="#000000"> </text>
<polyline fill="none" stroke="#000000" points="82.0996,-449.8156 101.5996,-449.8156 "/>
<text text-anchor="middle" x="91.8496" y="-433.2156" font-family="Times,serif" font-size="14.00" fill="#000000"> </text>
<polyline fill="none" stroke="#000000" points="82.0996,-425.0156 101.5996,-425.0156 "/>
<text text-anchor="middle" x="91.8496" y="-408.4156" font-family="Times,serif" font-size="14.00" fill="#000000"> </text>
<polyline fill="none" stroke="#000000" points="82.0996,-400.2156 101.5996,-400.2156 "/>
<text text-anchor="middle" x="91.8496" y="-383.6156" font-family="Times,serif" font-size="14.00" fill="#000000"> </text>
<polyline fill="none" stroke="#000000" points="82.0996,-375.4156 101.5996,-375.4156 "/>
<text text-anchor="middle" x="91.8496" y="-358.8156" font-family="Times,serif" font-size="14.00" fill="#000000"> </text>
<polyline fill="none" stroke="#000000" points="82.0996,-350.6156 101.5996,-350.6156 "/>
<text text-anchor="middle" x="91.8496" y="-334.0156" font-family="Times,serif" font-size="14.00" fill="#000000"> </text>
<polyline fill="none" stroke="#000000" points="82.0996,-325.8156 101.5996,-325.8156 "/>
<text text-anchor="middle" x="91.8496" y="-309.2156" font-family="Times,serif" font-size="14.00" fill="#000000"> </text>
<polyline fill="none" stroke="#000000" points="82.0996,-301.0156 101.5996,-301.0156 "/>
<text text-anchor="middle" x="91.8496" y="-284.4156" font-family="Times,serif" font-size="14.00" fill="#000000"> </text>
<polyline fill="none" stroke="#000000" points="82.0996,-276.2156 101.5996,-276.2156 "/>
<text text-anchor="middle" x="91.8496" y="-259.6156" font-family="Times,serif" font-size="14.00" fill="#000000"> </text>
</g>
<!-- s105 -->
<g id="node2" class="node">
<title>s105</title>
<ellipse fill="none" stroke="#000000" cx="236.9337" cy="-722.4156" rx="68.4585" ry="29.3315"/>
<text text-anchor="middle" x="236.9337" y="-726.6156" font-family="Times,serif" font-size="14.00" fill="#000000">s105 STRING</text>
<text text-anchor="middle" x="236.9337" y="-709.8156" font-family="Times,serif" font-size="14.00" fill="#000000">&quot;ident&quot;</text>
</g>
<!-- s104&#45;&gt;s105 -->
<g id="edge1" class="edge">
<title>s104:p0&#45;&gt;s105</title>
<path fill="none" stroke="#000000" d="M91.7998,-499.4156C91.7998,-588.049 104.5327,-622.278 168.7048,-683.4156 172.9448,-687.4551 177.681,-691.2364 182.6278,-694.7325"/>
<polygon fill="#000000" stroke="#000000" points="180.8309,-697.7404 191.1014,-700.3422 184.6951,-691.9036 180.8309,-697.7404"/>
<text text-anchor="middle" x="135.1522" y="-666.6156" font-family="Times,serif" font-size="14.00" fill="#000000">ident</text>
</g>
<!-- s106 -->
<g id="node3" class="node">
<title>s106</title>
<ellipse fill="none" stroke="#000000" cx="236.9337" cy="-645.4156" rx="68.4585" ry="29.3315"/>
<text text-anchor="middle" x="236.9337" y="-649.6156" font-family="Times,serif" font-size="14.00" fill="#000000">s106 STRING</text>
<text text-anchor="middle" x="236.9337" y="-632.8156" font-family="Times,serif" font-size="14.00" fill="#000000">&quot;path&quot;</text>
</g>
<!-- s104&#45;&gt;s106 -->
<g id="edge2" class="edge">
<title>s104:p1&#45;&gt;s106</title>
<path fill="none" stroke="#000000" d="M101.5996,-462.4156C129.8664,-462.4156 108.3169,-497.4982 119.5996,-523.4156 136.7078,-562.7146 138.1713,-576.3356 168.7048,-606.4156 172.8766,-610.5255 177.5675,-614.3536 182.4861,-617.8788"/>
<polygon fill="#000000" stroke="#000000" points="180.6687,-620.8739 190.9274,-623.5218 184.5591,-615.0544 180.6687,-620.8739"/>
<text text-anchor="middle" x="135.1522" y="-589.6156" font-family="Times,serif" font-size="14.00" fill="#000000">path</text>
</g>
<!-- s107 -->
<g id="node4" class="node">
<title>s107</title>
<ellipse fill="none" stroke="#000000" cx="236.9337" cy="-568.4156" rx="68.4585" ry="29.3315"/>
<text text-anchor="middle" x="236.9337" y="-572.6156" font-family="Times,serif" font-size="14.00" fill="#000000">s107 STRING</text>
<text text-anchor="middle" x="236.9337" y="-555.8156" font-family="Times,serif" font-size="14.00" fill="#000000">&quot;expr&quot;</text>
</g>
<!-- s104&#45;&gt;s107 -->
<g id="edge3" class="edge">
<title>s104:p2&#45;&gt;s107</title>
<path fill="none" stroke="#000000" d="M101.5996,-437.4156C107.9259,-437.4156 163.9904,-525.1971 168.7048,-529.4156 173.1341,-533.379 178.0316,-537.1228 183.1097,-540.607"/>
<polygon fill="#000000" stroke="#000000" points="181.4793,-543.721 191.7756,-546.2185 185.2841,-537.8453 181.4793,-543.721"/>
<text text-anchor="middle" x="135.1522" y="-506.6156" font-family="Times,serif" font-size="14.00" fill="#000000">expr</text>
</g>
<!-- s108 -->
<g id="node5" class="node">
<title>s108</title>
<ellipse fill="none" stroke="#000000" cx="236.9337" cy="-491.4156" rx="68.4585" ry="29.3315"/>
<text text-anchor="middle" x="236.9337" y="-495.6156" font-family="Times,serif" font-size="14.00" fill="#000000">s108 STRING</text>
<text text-anchor="middle" x="236.9337" y="-478.8156" font-family="Times,serif" font-size="14.00" fill="#000000">&quot;ty&quot;</text>
</g>
<!-- s104&#45;&gt;s108 -->
<g id="edge4" class="edge">
<title>s104:p3&#45;&gt;s108</title>
<path fill="none" stroke="#000000" d="M101.5996,-412.4156C136.3207,-412.4156 138.7193,-434.9108 168.7048,-452.4156 174.484,-455.7894 180.5532,-459.302 186.5891,-462.7763"/>
<polygon fill="#000000" stroke="#000000" points="184.956,-465.8745 195.3709,-467.8186 188.4416,-459.804 184.956,-465.8745"/>
<text text-anchor="middle" x="135.1522" y="-441.6156" font-family="Times,serif" font-size="14.00" fill="#000000">ty</text>
</g>
<!-- s109 -->
<g id="node6" class="node">
<title>s109</title>
<ellipse fill="none" stroke="#000000" cx="236.9337" cy="-414.4156" rx="68.4585" ry="29.3315"/>
<text text-anchor="middle" x="236.9337" y="-418.6156" font-family="Times,serif" font-size="14.00" fill="#000000">s109 STRING</text>
<text text-anchor="middle" x="236.9337" y="-401.8156" font-family="Times,serif" font-size="14.00" fill="#000000">&quot;pat&quot;</text>
</g>
<!-- s104&#45;&gt;s109 -->
<g id="edge5" class="edge">
<title>s104:p4&#45;&gt;s109</title>
<path fill="none" stroke="#000000" d="M101.5996,-387.4156C124.246,-387.4156 148.6193,-391.0966 170.3567,-395.7403"/>
<polygon fill="#000000" stroke="#000000" points="169.6199,-399.1619 180.1431,-397.9319 171.1496,-392.3311 169.6199,-399.1619"/>
<text text-anchor="middle" x="135.1522" y="-395.6156" font-family="Times,serif" font-size="14.00" fill="#000000">pat</text>
</g>
<!-- s110 -->
<g id="node7" class="node">
<title>s110</title>
<ellipse fill="none" stroke="#000000" cx="236.9337" cy="-337.4156" rx="68.4585" ry="29.3315"/>
<text text-anchor="middle" x="236.9337" y="-341.6156" font-family="Times,serif" font-size="14.00" fill="#000000">s110 STRING</text>
<text text-anchor="middle" x="236.9337" y="-324.8156" font-family="Times,serif" font-size="14.00" fill="#000000">&quot;stmt&quot;</text>
</g>
<!-- s104&#45;&gt;s110 -->
<g id="edge6" class="edge">
<title>s104:p5&#45;&gt;s110</title>
<path fill="none" stroke="#000000" d="M101.5996,-363.4156C123.9061,-363.4156 147.9153,-359.967 169.4282,-355.5817"/>
<polygon fill="#000000" stroke="#000000" points="170.3989,-358.9533 179.4448,-353.4377 168.9337,-352.1084 170.3989,-358.9533"/>
<text text-anchor="middle" x="135.1522" y="-366.6156" font-family="Times,serif" font-size="14.00" fill="#000000">stmt</text>
</g>
<!-- s111 -->
<g id="node8" class="node">
<title>s111</title>
<ellipse fill="none" stroke="#000000" cx="236.9337" cy="-260.4156" rx="68.4585" ry="29.3315"/>
<text text-anchor="middle" x="236.9337" y="-264.6156" font-family="Times,serif" font-size="14.00" fill="#000000">s111 STRING</text>
<text text-anchor="middle" x="236.9337" y="-247.8156" font-family="Times,serif" font-size="14.00" fill="#000000">&quot;block&quot;</text>
</g>
<!-- s104&#45;&gt;s111 -->
<g id="edge7" class="edge">
<title>s104:p6&#45;&gt;s111</title>
<path fill="none" stroke="#000000" d="M101.5996,-338.4156C136.0952,-338.4156 138.8182,-316.6417 168.7048,-299.4156 174.582,-296.0281 180.7499,-292.4854 186.8738,-288.9755"/>
<polygon fill="#000000" stroke="#000000" points="188.8367,-291.8848 195.7757,-283.8784 185.3584,-285.8101 188.8367,-291.8848"/>
<text text-anchor="middle" x="135.1522" y="-339.6156" font-family="Times,serif" font-size="14.00" fill="#000000">block</text>
</g>
<!-- s112 -->
<g id="node9" class="node">
<title>s112</title>
<ellipse fill="none" stroke="#000000" cx="236.9337" cy="-183.4156" rx="68.4585" ry="29.3315"/>
<text text-anchor="middle" x="236.9337" y="-187.6156" font-family="Times,serif" font-size="14.00" fill="#000000">s112 STRING</text>
<text text-anchor="middle" x="236.9337" y="-170.8156" font-family="Times,serif" font-size="14.00" fill="#000000">&quot;item&quot;</text>
</g>
<!-- s104&#45;&gt;s112 -->
<g id="edge8" class="edge">
<title>s104:p7&#45;&gt;s112</title>
<path fill="none" stroke="#000000" d="M101.5996,-313.4156C104.7403,-313.4156 166.3588,-224.5039 168.7048,-222.4156 173.1444,-218.4638 178.0487,-214.7277 183.131,-211.2481"/>
<polygon fill="#000000" stroke="#000000" points="185.3044,-214.0108 191.8016,-205.6419 181.5037,-208.1325 185.3044,-214.0108"/>
<text text-anchor="middle" x="135.1522" y="-293.6156" font-family="Times,serif" font-size="14.00" fill="#000000">item</text>
</g>
<!-- s113 -->
<g id="node10" class="node">
<title>s113</title>
<ellipse fill="none" stroke="#000000" cx="236.9337" cy="-106.4156" rx="68.4585" ry="29.3315"/>
<text text-anchor="middle" x="236.9337" y="-110.6156" font-family="Times,serif" font-size="14.00" fill="#000000">s113 STRING</text>
<text text-anchor="middle" x="236.9337" y="-93.8156" font-family="Times,serif" font-size="14.00" fill="#000000">&quot;meta&quot;</text>
</g>
<!-- s104&#45;&gt;s113 -->
<g id="edge9" class="edge">
<title>s104:p8&#45;&gt;s113</title>
<path fill="none" stroke="#000000" d="M101.5996,-288.4156C130.2076,-288.4156 108.1002,-252.8107 119.5996,-226.6156 136.5524,-187.998 138.5178,-174.8684 168.7048,-145.4156 172.8964,-141.326 177.6005,-137.5113 182.5273,-133.9945"/>
<polygon fill="#000000" stroke="#000000" points="184.5986,-136.8201 190.9779,-128.361 180.7159,-130.9957 184.5986,-136.8201"/>
<text text-anchor="middle" x="135.1522" y="-230.6156" font-family="Times,serif" font-size="14.00" fill="#000000">meta</text>
</g>
<!-- s114 -->
<g id="node11" class="node">
<title>s114</title>
<ellipse fill="none" stroke="#000000" cx="236.9337" cy="-29.4156" rx="68.4585" ry="29.3315"/>
<text text-anchor="middle" x="236.9337" y="-33.6156" font-family="Times,serif" font-size="14.00" fill="#000000">s114 STRING</text>
<text text-anchor="middle" x="236.9337" y="-16.8156" font-family="Times,serif" font-size="14.00" fill="#000000">&quot;tt&quot;</text>
</g>
<!-- s104&#45;&gt;s114 -->
<g id="edge10" class="edge">
<title>s104:p9&#45;&gt;s114</title>
<path fill="none" stroke="#000000" d="M91.7998,-251.4156C91.7998,-163.1922 104.6852,-129.1189 168.7048,-68.4156 172.9544,-64.3862 177.6969,-60.6116 182.6477,-57.1197"/>
<polygon fill="#000000" stroke="#000000" points="184.7141,-59.9493 191.1258,-51.5148 180.8537,-54.11 184.7141,-59.9493"/>
<text text-anchor="middle" x="135.1522" y="-127.6156" font-family="Times,serif" font-size="14.00" fill="#000000">tt</text>
</g>
</g>
</svg>
