<?xml version="1.0" encoding="UTF-8" standalone="no"?>
<!DOCTYPE svg PUBLIC "-//W3C//DTD SVG 1.1//EN"
 "http://www.w3.org/Graphics/SVG/1.1/DTD/svg11.dtd">
<!-- Generated by graphviz version 2.40.1 (20161225.0304)
 -->
<!-- Title: array_type Pages: 1 -->
<svg width="1179pt" height="144pt"
 viewBox="0.00 0.00 1178.79 143.83" xmlns="http://www.w3.org/2000/svg" xmlns:xlink="http://www.w3.org/1999/xlink">
<g id="graph0" class="graph" transform="scale(1 1) rotate(0) translate(4 139.8313)">
<title>array_type</title>
<polygon fill="#ffffff" stroke="transparent" points="-4,4 -4,-139.8313 1174.7884,-139.8313 1174.7884,4 -4,4"/>
<!-- s807 -->
<g id="node1" class="node">
<title>s807</title>
<polygon fill="none" stroke="#000000" points="0,-46.6156 0,-88.2156 56.4418,-88.2156 56.4418,-46.6156 0,-46.6156"/>
<text text-anchor="middle" x="28.2209" y="-71.6156" font-family="Times,serif" font-size="14.00" fill="#000000">s807</text>
<text text-anchor="middle" x="28.2209" y="-54.8156" font-family="Times,serif" font-size="14.00" fill="#000000">→ SEQ</text>
</g>
<!-- s808 -->
<g id="node2" class="node">
<title>s808</title>
<ellipse fill="none" stroke="#000000" cx="160.6707" cy="-67.4156" rx="68.4585" ry="29.3315"/>
<text text-anchor="middle" x="160.6707" y="-71.6156" font-family="Times,serif" font-size="14.00" fill="#000000">s808 STRING</text>
<text text-anchor="middle" x="160.6707" y="-54.8156" font-family="Times,serif" font-size="14.00" fill="#000000">&quot;[&quot;</text>
</g>
<!-- s807&#45;&gt;s808 -->
<g id="edge1" class="edge">
<title>s807&#45;&gt;s808</title>
<path fill="none" stroke="#000000" d="M56.6347,-67.4156C64.3113,-67.4156 73.0073,-67.4156 82.0218,-67.4156"/>
<polygon fill="#000000" stroke="#000000" points="82.2976,-70.9157 92.2975,-67.4156 82.2975,-63.9157 82.2976,-70.9157"/>
</g>
<!-- s809 -->
<g id="node3" class="node">
<title>s809</title>
<g id="a_node3"><a xlink:href="rust-grammar.json._type.dot.svg" xlink:title="s809 SYMBOL\n_type">
<ellipse fill="none" stroke="#000000" cx="338.6325" cy="-67.4156" rx="73.9667" ry="29.3315"/>
<text text-anchor="middle" x="338.6325" y="-71.6156" font-family="Times,serif" font-size="14.00" fill="#000000">s809 SYMBOL</text>
<text text-anchor="middle" x="338.6325" y="-54.8156" font-family="Times,serif" font-size="14.00" fill="#000000">_type</text>
</a>
</g>
</g>
<!-- s808&#45;&gt;s809 -->
<g id="edge2" class="edge">
<title>s808&#45;&gt;s809</title>
<path fill="none" stroke="#000000" d="M228.9664,-67.4156C237.3502,-67.4156 245.9933,-67.4156 254.5752,-67.4156"/>
<polygon fill="#000000" stroke="#000000" points="254.6022,-70.9157 264.6022,-67.4156 254.6022,-63.9157 254.6022,-70.9157"/>
</g>
<!-- s810 -->
<g id="node4" class="node">
<title>s810</title>
<polygon fill="none" stroke="#000000" points="448.3655,-42.6156 448.3655,-92.2156 549.9651,-92.2156 549.9651,-42.6156 448.3655,-42.6156"/>
<text text-anchor="middle" x="489.4153" y="-71.6156" font-family="Times,serif" font-size="14.00" fill="#000000">s810</text>
<text text-anchor="middle" x="489.4153" y="-54.8156" font-family="Times,serif" font-size="14.00" fill="#000000">→ CHOICE</text>
<polyline fill="none" stroke="#000000" points="530.4651,-42.6156 530.4651,-92.2156 "/>
<text text-anchor="middle" x="540.2151" y="-75.6156" font-family="Times,serif" font-size="14.00" fill="#000000"> </text>
<polyline fill="none" stroke="#000000" points="530.4651,-67.4156 549.9651,-67.4156 "/>
<text text-anchor="middle" x="540.2151" y="-50.8156" font-family="Times,serif" font-size="14.00" fill="#000000"> </text>
</g>
<!-- s809&#45;&gt;s810 -->
<g id="edge7" class="edge">
<title>s809&#45;&gt;s810</title>
<path fill="none" stroke="#000000" d="M412.7902,-67.4156C421.2237,-67.4156 429.7477,-67.4156 437.9869,-67.4156"/>
<polygon fill="#000000" stroke="#000000" points="438.2426,-70.9157 448.2425,-67.4156 438.2425,-63.9157 438.2426,-70.9157"/>
</g>
<!-- s811 -->
<g id="node5" class="node">
<title>s811</title>
<polygon fill="none" stroke="#000000" points="585.9651,-78.6156 585.9651,-120.2156 642.4069,-120.2156 642.4069,-78.6156 585.9651,-78.6156"/>
<text text-anchor="middle" x="614.186" y="-103.6156" font-family="Times,serif" font-size="14.00" fill="#000000">s811</text>
<text text-anchor="middle" x="614.186" y="-86.8156" font-family="Times,serif" font-size="14.00" fill="#000000">→ SEQ</text>
</g>
<!-- s810&#45;&gt;s811 -->
<g id="edge5" class="edge">
<title>s810:p0&#45;&gt;s811</title>
<path fill="none" stroke="#000000" d="M549.9651,-79.4156C558.6102,-79.4156 567.6259,-81.0882 576.0749,-83.466"/>
<polygon fill="#000000" stroke="#000000" points="575.0862,-86.8242 585.6767,-86.5232 577.21,-80.1542 575.0862,-86.8242"/>
</g>
<!-- s814 -->
<g id="node8" class="node">
<title>s814</title>
<ellipse fill="none" stroke="#000000" cx="746.6358" cy="-29.4156" rx="45.3054" ry="29.3315"/>
<text text-anchor="middle" x="746.6358" y="-33.6156" font-family="Times,serif" font-size="14.00" fill="#000000">s814 </text>
<text text-anchor="middle" x="746.6358" y="-16.8156" font-family="Times,serif" font-size="14.00" fill="#000000">BLANK</text>
</g>
<!-- s810&#45;&gt;s814 -->
<g id="edge6" class="edge">
<title>s810:p1&#45;&gt;s814</title>
<path fill="none" stroke="#000000" d="M549.9651,-55.4156C598.7574,-55.4156 653.776,-47.4534 693.1875,-40.3413"/>
<polygon fill="#000000" stroke="#000000" points="693.9122,-43.7668 703.1104,-38.5092 692.6411,-36.8831 693.9122,-43.7668"/>
</g>
<!-- s812 -->
<g id="node6" class="node">
<title>s812</title>
<ellipse fill="none" stroke="#000000" cx="746.6358" cy="-106.4156" rx="68.4585" ry="29.3315"/>
<text text-anchor="middle" x="746.6358" y="-110.6156" font-family="Times,serif" font-size="14.00" fill="#000000">s812 STRING</text>
<text text-anchor="middle" x="746.6358" y="-93.8156" font-family="Times,serif" font-size="14.00" fill="#000000">&quot;;&quot;</text>
</g>
<!-- s811&#45;&gt;s812 -->
<g id="edge3" class="edge">
<title>s811&#45;&gt;s812</title>
<path fill="none" stroke="#000000" d="M642.5998,-100.9173C650.4706,-101.3333 659.413,-101.8059 668.6717,-102.2952"/>
<polygon fill="#000000" stroke="#000000" points="668.6358,-105.7981 678.8066,-102.8309 669.0053,-98.8079 668.6358,-105.7981"/>
</g>
<!-- s813 -->
<g id="node7" class="node">
<title>s813</title>
<g id="a_node7"><a xlink:href="rust-grammar.json._expression.dot.svg" xlink:title="s813 SYMBOL\n_expression">
<ellipse fill="none" stroke="#000000" cx="924.5977" cy="-101.4156" rx="73.9667" ry="29.3315"/>
<text text-anchor="middle" x="924.5977" y="-105.6156" font-family="Times,serif" font-size="14.00" fill="#000000">s813 SYMBOL</text>
<text text-anchor="middle" x="924.5977" y="-88.8156" font-family="Times,serif" font-size="14.00" fill="#000000">_expression</text>
</a>
</g>
</g>
<!-- s812&#45;&gt;s813 -->
<g id="edge4" class="edge">
<title>s812&#45;&gt;s813</title>
<path fill="none" stroke="#000000" d="M814.9316,-104.4968C823.3858,-104.2593 832.1037,-104.0143 840.7566,-103.7712"/>
<polygon fill="#000000" stroke="#000000" points="840.9671,-107.2668 850.8649,-103.4872 840.7705,-100.2696 840.9671,-107.2668"/>
</g>
<!-- s815 -->
<g id="node9" class="node">
<title>s815</title>
<ellipse fill="none" stroke="#000000" cx="1102.5595" cy="-67.4156" rx="68.4585" ry="29.3315"/>
<text text-anchor="middle" x="1102.5595" y="-71.6156" font-family="Times,serif" font-size="14.00" fill="#000000">s815 STRING</text>
<text text-anchor="middle" x="1102.5595" y="-54.8156" font-family="Times,serif" font-size="14.00" fill="#000000">&quot;]&quot;</text>
</g>
<!-- s813&#45;&gt;s815 -->
<g id="edge8" class="edge">
<title>s813&#45;&gt;s815</title>
<path fill="none" stroke="#000000" d="M991.1172,-88.7069C1003.7371,-86.2959 1017.002,-83.7616 1029.8031,-81.3159"/>
<polygon fill="#000000" stroke="#000000" points="1030.7833,-84.692 1039.9488,-79.3776 1029.4697,-77.8164 1030.7833,-84.692"/>
</g>
<!-- s814&#45;&gt;s815 -->
<g id="edge9" class="edge">
<title>s814&#45;&gt;s815</title>
<path fill="none" stroke="#000000" d="M791.7138,-34.2284C850.5496,-40.5099 954.4069,-51.5982 1025.7666,-59.2169"/>
<polygon fill="#000000" stroke="#000000" points="1025.735,-62.7333 1036.0501,-60.3148 1026.4782,-55.7729 1025.735,-62.7333"/>
</g>
</g>
</svg>
