<?xml version="1.0" encoding="UTF-8" standalone="no"?>
<!DOCTYPE svg PUBLIC "-//W3C//DTD SVG 1.1//EN"
 "http://www.w3.org/Graphics/SVG/1.1/DTD/svg11.dtd">
<!-- Generated by graphviz version 2.40.1 (20161225.0304)
 -->
<!-- Title: parameters Pages: 1 -->
<svg width="1945pt" height="465pt"
 viewBox="0.00 0.00 1945.19 464.83" xmlns="http://www.w3.org/2000/svg" xmlns:xlink="http://www.w3.org/1999/xlink">
<g id="graph0" class="graph" transform="scale(1 1) rotate(0) translate(4 460.8313)">
<title>parameters</title>
<polygon fill="#ffffff" stroke="transparent" points="-4,4 -4,-460.8313 1941.1935,-460.8313 1941.1935,4 -4,4"/>
<!-- s707 -->
<g id="node1" class="node">
<title>s707</title>
<polygon fill="none" stroke="#000000" points="0,-135.6156 0,-177.2156 56.4418,-177.2156 56.4418,-135.6156 0,-135.6156"/>
<text text-anchor="middle" x="28.2209" y="-160.6156" font-family="Times,serif" font-size="14.00" fill="#000000">s707</text>
<text text-anchor="middle" x="28.2209" y="-143.8156" font-family="Times,serif" font-size="14.00" fill="#000000">→ SEQ</text>
</g>
<!-- s708 -->
<g id="node2" class="node">
<title>s708</title>
<ellipse fill="none" stroke="#000000" cx="161.6707" cy="-156.4156" rx="68.4585" ry="29.3315"/>
<text text-anchor="middle" x="161.6707" y="-160.6156" font-family="Times,serif" font-size="14.00" fill="#000000">s708 STRING</text>
<text text-anchor="middle" x="161.6707" y="-143.8156" font-family="Times,serif" font-size="14.00" fill="#000000">&quot;(&quot;</text>
</g>
<!-- s707&#45;&gt;s708 -->
<g id="edge1" class="edge">
<title>s707&#45;&gt;s708</title>
<path fill="none" stroke="#000000" d="M56.5222,-156.4156C64.5856,-156.4156 73.7846,-156.4156 83.3101,-156.4156"/>
<polygon fill="#000000" stroke="#000000" points="83.321,-159.9157 93.321,-156.4156 83.3209,-152.9157 83.321,-159.9157"/>
</g>
<!-- s709 -->
<g id="node3" class="node">
<title>s709</title>
<polygon fill="none" stroke="#000000" points="266.8995,-131.6156 266.8995,-181.2156 368.4991,-181.2156 368.4991,-131.6156 266.8995,-131.6156"/>
<text text-anchor="middle" x="307.9493" y="-160.6156" font-family="Times,serif" font-size="14.00" fill="#000000">s709</text>
<text text-anchor="middle" x="307.9493" y="-143.8156" font-family="Times,serif" font-size="14.00" fill="#000000">→ CHOICE</text>
<polyline fill="none" stroke="#000000" points="348.9991,-131.6156 348.9991,-181.2156 "/>
<text text-anchor="middle" x="358.7491" y="-164.6156" font-family="Times,serif" font-size="14.00" fill="#000000"> </text>
<polyline fill="none" stroke="#000000" points="348.9991,-156.4156 368.4991,-156.4156 "/>
<text text-anchor="middle" x="358.7491" y="-139.8156" font-family="Times,serif" font-size="14.00" fill="#000000"> </text>
</g>
<!-- s708&#45;&gt;s709 -->
<g id="edge24" class="edge">
<title>s708&#45;&gt;s709</title>
<path fill="none" stroke="#000000" d="M230.1071,-156.4156C238.9349,-156.4156 247.9288,-156.4156 256.6274,-156.4156"/>
<polygon fill="#000000" stroke="#000000" points="256.6756,-159.9157 266.6755,-156.4156 256.6755,-152.9157 256.6756,-159.9157"/>
</g>
<!-- s710 -->
<g id="node4" class="node">
<title>s710</title>
<polygon fill="none" stroke="#000000" points="405.4991,-186.6156 405.4991,-228.2156 461.9409,-228.2156 461.9409,-186.6156 405.4991,-186.6156"/>
<text text-anchor="middle" x="433.72" y="-211.6156" font-family="Times,serif" font-size="14.00" fill="#000000">s710</text>
<text text-anchor="middle" x="433.72" y="-194.8156" font-family="Times,serif" font-size="14.00" fill="#000000">→ SEQ</text>
</g>
<!-- s709&#45;&gt;s710 -->
<g id="edge22" class="edge">
<title>s709:p0&#45;&gt;s710</title>
<path fill="none" stroke="#000000" d="M368.4991,-168.4156C381.0738,-168.4156 393.3257,-173.8217 403.7523,-180.6084"/>
<polygon fill="#000000" stroke="#000000" points="401.8792,-183.5719 412.0482,-186.5456 405.9531,-177.8795 401.8792,-183.5719"/>
</g>
<!-- s726 -->
<g id="node20" class="node">
<title>s726</title>
<ellipse fill="none" stroke="#000000" cx="525.3436" cy="-89.4156" rx="45.3054" ry="29.3315"/>
<text text-anchor="middle" x="525.3436" y="-93.6156" font-family="Times,serif" font-size="14.00" fill="#000000">s726 </text>
<text text-anchor="middle" x="525.3436" y="-76.8156" font-family="Times,serif" font-size="14.00" fill="#000000">BLANK</text>
</g>
<!-- s709&#45;&gt;s726 -->
<g id="edge23" class="edge">
<title>s709:p1&#45;&gt;s726</title>
<path fill="none" stroke="#000000" d="M368.4991,-144.4156C408.5092,-144.4156 451.19,-128.2809 481.9111,-113.4894"/>
<polygon fill="#000000" stroke="#000000" points="483.6401,-116.5388 491.0451,-108.9614 480.531,-110.2672 483.6401,-116.5388"/>
</g>
<!-- s711 -->
<g id="node5" class="node">
<title>s711</title>
<polygon fill="none" stroke="#000000" points="588.7462,-184.4156 588.7462,-308.4156 690.3458,-308.4156 690.3458,-184.4156 588.7462,-184.4156"/>
<text text-anchor="middle" x="629.796" y="-250.6156" font-family="Times,serif" font-size="14.00" fill="#000000">s711</text>
<text text-anchor="middle" x="629.796" y="-233.8156" font-family="Times,serif" font-size="14.00" fill="#000000">→ CHOICE</text>
<polyline fill="none" stroke="#000000" points="670.8458,-184.4156 670.8458,-308.4156 "/>
<text text-anchor="middle" x="680.5958" y="-291.8156" font-family="Times,serif" font-size="14.00" fill="#000000"> </text>
<polyline fill="none" stroke="#000000" points="670.8458,-283.6156 690.3458,-283.6156 "/>
<text text-anchor="middle" x="680.5958" y="-267.0156" font-family="Times,serif" font-size="14.00" fill="#000000"> </text>
<polyline fill="none" stroke="#000000" points="670.8458,-258.8156 690.3458,-258.8156 "/>
<text text-anchor="middle" x="680.5958" y="-242.2156" font-family="Times,serif" font-size="14.00" fill="#000000"> </text>
<polyline fill="none" stroke="#000000" points="670.8458,-234.0156 690.3458,-234.0156 "/>
<text text-anchor="middle" x="680.5958" y="-217.4156" font-family="Times,serif" font-size="14.00" fill="#000000"> </text>
<polyline fill="none" stroke="#000000" points="670.8458,-209.2156 690.3458,-209.2156 "/>
<text text-anchor="middle" x="680.5958" y="-192.6156" font-family="Times,serif" font-size="14.00" fill="#000000"> </text>
</g>
<!-- s710&#45;&gt;s711 -->
<g id="edge7" class="edge">
<title>s710&#45;&gt;s711</title>
<path fill="none" stroke="#000000" d="M462.3393,-212.8384C492.2518,-218.5063 540.0948,-227.5716 578.5333,-234.8549"/>
<polygon fill="#000000" stroke="#000000" points="578.1165,-238.3382 588.5933,-236.7611 579.4198,-231.4605 578.1165,-238.3382"/>
</g>
<!-- s712 -->
<g id="node6" class="node">
<title>s712</title>
<g id="a_node6"><a xlink:href="rust-grammar.json.parameter.dot.svg" xlink:title="s712 SYMBOL\nparameter">
<ellipse fill="none" stroke="#000000" cx="922.1062" cy="-427.4156" rx="73.9667" ry="29.3315"/>
<text text-anchor="middle" x="922.1062" y="-431.6156" font-family="Times,serif" font-size="14.00" fill="#000000">s712 SYMBOL</text>
<text text-anchor="middle" x="922.1062" y="-414.8156" font-family="Times,serif" font-size="14.00" fill="#000000">parameter</text>
</a>
</g>
</g>
<!-- s711&#45;&gt;s712 -->
<g id="edge2" class="edge">
<title>s711:p0&#45;&gt;s712</title>
<path fill="none" stroke="#000000" d="M680.546,-308.4156C680.546,-381.0465 769.5113,-409.349 839.4606,-420.377"/>
<polygon fill="#000000" stroke="#000000" points="839.2255,-423.8802 849.6302,-421.8819 840.2503,-416.9556 839.2255,-423.8802"/>
<text text-anchor="middle" x="762.369" y="-419.6156" font-family="Times,serif" font-size="14.00" fill="#000000">parameter</text>
</g>
<!-- s713 -->
<g id="node7" class="node">
<title>s713</title>
<g id="a_node7"><a xlink:href="rust-grammar.json.self_parameter.dot.svg" xlink:title="s713 SYMBOL\nself_parameter">
<ellipse fill="none" stroke="#000000" cx="922.1062" cy="-350.4156" rx="73.9667" ry="29.3315"/>
<text text-anchor="middle" x="922.1062" y="-354.6156" font-family="Times,serif" font-size="14.00" fill="#000000">s713 SYMBOL</text>
<text text-anchor="middle" x="922.1062" y="-337.8156" font-family="Times,serif" font-size="14.00" fill="#000000">self_parameter</text>
</a>
</g>
</g>
<!-- s711&#45;&gt;s713 -->
<g id="edge3" class="edge">
<title>s711:p1&#45;&gt;s713</title>
<path fill="none" stroke="#000000" d="M690.3458,-271.4156C699.0822,-271.4156 792.1923,-304.0012 857.6958,-327.3166"/>
<polygon fill="#000000" stroke="#000000" points="856.552,-330.6246 867.1466,-330.6844 858.9017,-324.0307 856.552,-330.6246"/>
<text text-anchor="middle" x="762.369" y="-314.6156" font-family="Times,serif" font-size="14.00" fill="#000000">self_parameter</text>
</g>
<!-- s714 -->
<g id="node8" class="node">
<title>s714</title>
<g id="a_node8"><a xlink:href="rust-grammar.json.variadic_parameter.dot.svg" xlink:title="s714 SYMBOL\nvariadic_parameter">
<ellipse fill="none" stroke="#000000" cx="922.1062" cy="-273.4156" rx="87.9286" ry="29.3315"/>
<text text-anchor="middle" x="922.1062" y="-277.6156" font-family="Times,serif" font-size="14.00" fill="#000000">s714 SYMBOL</text>
<text text-anchor="middle" x="922.1062" y="-260.8156" font-family="Times,serif" font-size="14.00" fill="#000000">variadic_parameter</text>
</a>
</g>
</g>
<!-- s711&#45;&gt;s714 -->
<g id="edge4" class="edge">
<title>s711:p2&#45;&gt;s714</title>
<path fill="none" stroke="#000000" d="M690.3458,-246.4156C738.1676,-246.4156 791.1692,-252.1574 834.4037,-258.3454"/>
<polygon fill="#000000" stroke="#000000" points="833.9206,-261.8119 844.322,-259.797 834.9343,-254.8856 833.9206,-261.8119"/>
<text text-anchor="middle" x="762.369" y="-258.6156" font-family="Times,serif" font-size="14.00" fill="#000000">variadic_parameter</text>
</g>
<!-- s715 -->
<g id="node9" class="node">
<title>s715</title>
<ellipse fill="none" stroke="#000000" cx="922.1062" cy="-196.4156" rx="68.4585" ry="29.3315"/>
<text text-anchor="middle" x="922.1062" y="-200.6156" font-family="Times,serif" font-size="14.00" fill="#000000">s715 STRING</text>
<text text-anchor="middle" x="922.1062" y="-183.8156" font-family="Times,serif" font-size="14.00" fill="#000000">&quot;_&quot;</text>
</g>
<!-- s711&#45;&gt;s715 -->
<g id="edge5" class="edge">
<title>s711:p3&#45;&gt;s715</title>
<path fill="none" stroke="#000000" d="M690.3458,-221.4156C743.3957,-221.4156 802.8843,-214.8606 848.308,-208.4637"/>
<polygon fill="#000000" stroke="#000000" points="848.9638,-211.9055 858.3639,-207.0179 847.9676,-204.9767 848.9638,-211.9055"/>
<text text-anchor="middle" x="762.369" y="-224.6156" font-family="Times,serif" font-size="14.00" fill="#000000">_</text>
</g>
<!-- s716 -->
<g id="node10" class="node">
<title>s716</title>
<g id="a_node10"><a xlink:href="rust-grammar.json._type.dot.svg" xlink:title="s716 SYMBOL\n_type">
<ellipse fill="none" stroke="#000000" cx="922.1062" cy="-119.4156" rx="73.9667" ry="29.3315"/>
<text text-anchor="middle" x="922.1062" y="-123.6156" font-family="Times,serif" font-size="14.00" fill="#000000">s716 SYMBOL</text>
<text text-anchor="middle" x="922.1062" y="-106.8156" font-family="Times,serif" font-size="14.00" fill="#000000">_type</text>
</a>
</g>
</g>
<!-- s711&#45;&gt;s716 -->
<g id="edge6" class="edge">
<title>s711:p4&#45;&gt;s716</title>
<path fill="none" stroke="#000000" d="M690.3458,-196.4156C694.7089,-196.4156 789.3323,-164.5629 856.3051,-141.8311"/>
<polygon fill="#000000" stroke="#000000" points="857.6283,-145.0781 865.9717,-138.5483 855.3773,-138.4499 857.6283,-145.0781"/>
<text text-anchor="middle" x="762.369" y="-194.6156" font-family="Times,serif" font-size="14.00" fill="#000000">_type</text>
</g>
<!-- s717 -->
<g id="node11" class="node">
<title>s717</title>
<polygon fill="none" stroke="#000000" points="1046.8203,-197.6156 1046.8203,-239.2156 1129.7039,-239.2156 1129.7039,-197.6156 1046.8203,-197.6156"/>
<text text-anchor="middle" x="1088.2621" y="-222.6156" font-family="Times,serif" font-size="14.00" fill="#000000">s717</text>
<text text-anchor="middle" x="1088.2621" y="-205.8156" font-family="Times,serif" font-size="14.00" fill="#000000">→ REPEAT</text>
</g>
<!-- s712&#45;&gt;s717 -->
<g id="edge17" class="edge">
<title>s712&#45;&gt;s717</title>
<path fill="none" stroke="#000000" d="M979.6672,-408.9929C990.6005,-403.6121 1001.2767,-396.841 1009.8203,-388.4156 1049.4853,-349.2995 1071.1984,-286.3638 1081.2184,-249.0339"/>
<polygon fill="#000000" stroke="#000000" points="1084.6399,-249.7816 1083.7397,-239.2251 1077.8603,-248.0389 1084.6399,-249.7816"/>
</g>
<!-- s713&#45;&gt;s717 -->
<g id="edge18" class="edge">
<title>s713&#45;&gt;s717</title>
<path fill="none" stroke="#000000" d="M977.1186,-330.5388C988.4708,-325.206 999.9598,-318.8225 1009.8203,-311.4156 1033.3584,-293.7347 1054.5174,-267.74 1068.911,-247.7249"/>
<polygon fill="#000000" stroke="#000000" points="1071.9597,-249.4736 1074.8423,-239.2785 1066.2311,-245.4509 1071.9597,-249.4736"/>
</g>
<!-- s714&#45;&gt;s717 -->
<g id="edge19" class="edge">
<title>s714&#45;&gt;s717</title>
<path fill="none" stroke="#000000" d="M984.9226,-252.6225C1001.97,-246.9796 1020.2294,-240.9354 1036.5851,-235.5215"/>
<polygon fill="#000000" stroke="#000000" points="1038.1013,-238.7064 1046.4948,-232.2412 1035.9015,-232.061 1038.1013,-238.7064"/>
</g>
<!-- s715&#45;&gt;s717 -->
<g id="edge20" class="edge">
<title>s715&#45;&gt;s717</title>
<path fill="none" stroke="#000000" d="M987.7754,-205.1106C1003.8424,-207.238 1020.8189,-209.4858 1036.1528,-211.5161"/>
<polygon fill="#000000" stroke="#000000" points="1036.1018,-215.0398 1046.4747,-212.8828 1037.0207,-208.1003 1036.1018,-215.0398"/>
</g>
<!-- s716&#45;&gt;s717 -->
<g id="edge21" class="edge">
<title>s716&#45;&gt;s717</title>
<path fill="none" stroke="#000000" d="M974.6024,-140.3463C986.4531,-145.7277 998.7853,-151.8657 1009.8203,-158.4156 1025.6929,-167.837 1042.0879,-179.9453 1055.7588,-190.8144"/>
<polygon fill="#000000" stroke="#000000" points="1053.9126,-193.8225 1063.8899,-197.3867 1058.3129,-188.3785 1053.9126,-193.8225"/>
</g>
<!-- s718 -->
<g id="node12" class="node">
<title>s718</title>
<polygon fill="none" stroke="#000000" points="1189.2828,-176.6156 1189.2828,-218.2156 1245.7246,-218.2156 1245.7246,-176.6156 1189.2828,-176.6156"/>
<text text-anchor="middle" x="1217.5037" y="-201.6156" font-family="Times,serif" font-size="14.00" fill="#000000">s718</text>
<text text-anchor="middle" x="1217.5037" y="-184.8156" font-family="Times,serif" font-size="14.00" fill="#000000">→ SEQ</text>
</g>
<!-- s717&#45;&gt;s718 -->
<g id="edge15" class="edge">
<title>s717&#45;&gt;s718</title>
<path fill="none" stroke="#000000" d="M1129.8663,-211.6555C1145.5748,-209.1031 1163.3705,-206.2115 1178.8024,-203.7041"/>
<polygon fill="#000000" stroke="#000000" points="1179.7444,-207.097 1189.0536,-202.0384 1178.6217,-200.1876 1179.7444,-207.097"/>
</g>
<!-- s727 -->
<g id="node21" class="node">
<title>s727</title>
<polygon fill="none" stroke="#000000" points="1166.7039,-40.6156 1166.7039,-90.2156 1268.3035,-90.2156 1268.3035,-40.6156 1166.7039,-40.6156"/>
<text text-anchor="middle" x="1207.7537" y="-69.6156" font-family="Times,serif" font-size="14.00" fill="#000000">s727</text>
<text text-anchor="middle" x="1207.7537" y="-52.8156" font-family="Times,serif" font-size="14.00" fill="#000000">→ CHOICE</text>
<polyline fill="none" stroke="#000000" points="1248.8035,-40.6156 1248.8035,-90.2156 "/>
<text text-anchor="middle" x="1258.5535" y="-73.6156" font-family="Times,serif" font-size="14.00" fill="#000000"> </text>
<polyline fill="none" stroke="#000000" points="1248.8035,-65.4156 1268.3035,-65.4156 "/>
<text text-anchor="middle" x="1258.5535" y="-48.8156" font-family="Times,serif" font-size="14.00" fill="#000000"> </text>
</g>
<!-- s717&#45;&gt;s727 -->
<g id="edge27" class="edge">
<title>s717&#45;&gt;s727</title>
<path fill="none" stroke="#000000" d="M1105.9616,-197.4625C1127.6021,-171.8438 1164.4744,-128.1933 1189.8647,-98.1355"/>
<polygon fill="#000000" stroke="#000000" points="1192.598,-100.3235 1196.3773,-90.4257 1187.2505,-95.8064 1192.598,-100.3235"/>
</g>
<!-- s719 -->
<g id="node13" class="node">
<title>s719</title>
<ellipse fill="none" stroke="#000000" cx="1376.0324" cy="-193.4156" rx="68.4585" ry="29.3315"/>
<text text-anchor="middle" x="1376.0324" y="-197.6156" font-family="Times,serif" font-size="14.00" fill="#000000">s719 STRING</text>
<text text-anchor="middle" x="1376.0324" y="-180.8156" font-family="Times,serif" font-size="14.00" fill="#000000">&quot;,&quot;</text>
</g>
<!-- s718&#45;&gt;s719 -->
<g id="edge8" class="edge">
<title>s718&#45;&gt;s719</title>
<path fill="none" stroke="#000000" d="M1245.8454,-196.7005C1260.4234,-196.3327 1278.9864,-195.8643 1297.4965,-195.3973"/>
<polygon fill="#000000" stroke="#000000" points="1297.8403,-198.8898 1307.7488,-195.1386 1297.6637,-191.892 1297.8403,-198.8898"/>
</g>
<!-- s720 -->
<g id="node14" class="node">
<title>s720</title>
<polygon fill="none" stroke="#000000" points="1498.6903,-168.4156 1498.6903,-292.4156 1600.2899,-292.4156 1600.2899,-168.4156 1498.6903,-168.4156"/>
<text text-anchor="middle" x="1539.7401" y="-234.6156" font-family="Times,serif" font-size="14.00" fill="#000000">s720</text>
<text text-anchor="middle" x="1539.7401" y="-217.8156" font-family="Times,serif" font-size="14.00" fill="#000000">→ CHOICE</text>
<polyline fill="none" stroke="#000000" points="1580.7899,-168.4156 1580.7899,-292.4156 "/>
<text text-anchor="middle" x="1590.5399" y="-275.8156" font-family="Times,serif" font-size="14.00" fill="#000000"> </text>
<polyline fill="none" stroke="#000000" points="1580.7899,-267.6156 1600.2899,-267.6156 "/>
<text text-anchor="middle" x="1590.5399" y="-251.0156" font-family="Times,serif" font-size="14.00" fill="#000000"> </text>
<polyline fill="none" stroke="#000000" points="1580.7899,-242.8156 1600.2899,-242.8156 "/>
<text text-anchor="middle" x="1590.5399" y="-226.2156" font-family="Times,serif" font-size="14.00" fill="#000000"> </text>
<polyline fill="none" stroke="#000000" points="1580.7899,-218.0156 1600.2899,-218.0156 "/>
<text text-anchor="middle" x="1590.5399" y="-201.4156" font-family="Times,serif" font-size="14.00" fill="#000000"> </text>
<polyline fill="none" stroke="#000000" points="1580.7899,-193.2156 1600.2899,-193.2156 "/>
<text text-anchor="middle" x="1590.5399" y="-176.6156" font-family="Times,serif" font-size="14.00" fill="#000000"> </text>
</g>
<!-- s719&#45;&gt;s720 -->
<g id="edge14" class="edge">
<title>s719&#45;&gt;s720</title>
<path fill="none" stroke="#000000" d="M1437.1871,-206.4605C1453.8265,-210.0098 1471.8451,-213.8533 1488.4767,-217.401"/>
<polygon fill="#000000" stroke="#000000" points="1488.1181,-220.9031 1498.6282,-219.5664 1489.5784,-214.0572 1488.1181,-220.9031"/>
</g>
<!-- s720&#45;&gt;s717 -->
<g id="edge16" class="edge">
<title>s720&#45;&gt;s717</title>
<path fill="none" stroke="#000000" d="M1498.6441,-230.9963C1481.3823,-231.1675 1461.9827,-231.3314 1444.2612,-231.4156 1320.891,-232.0018 1289.7622,-236.2031 1166.7039,-227.4156 1157.9618,-226.7914 1148.6934,-225.9175 1139.707,-224.9577"/>
<polygon fill="#000000" stroke="#000000" points="1140.0498,-221.4744 1129.7239,-223.8463 1139.2752,-228.4314 1140.0498,-221.4744"/>
</g>
<!-- s721 -->
<g id="node15" class="node">
<title>s721</title>
<g id="a_node15"><a xlink:href="rust-grammar.json.parameter.dot.svg" xlink:title="s721 SYMBOL\nparameter">
<ellipse fill="none" stroke="#000000" cx="1849.4794" cy="-384.4156" rx="73.9667" ry="29.3315"/>
<text text-anchor="middle" x="1849.4794" y="-388.6156" font-family="Times,serif" font-size="14.00" fill="#000000">s721 SYMBOL</text>
<text text-anchor="middle" x="1849.4794" y="-371.8156" font-family="Times,serif" font-size="14.00" fill="#000000">parameter</text>
</a>
</g>
</g>
<!-- s720&#45;&gt;s721 -->
<g id="edge9" class="edge">
<title>s720:p0&#45;&gt;s721</title>
<path fill="none" stroke="#000000" d="M1590.4901,-292.4156C1590.4901,-368.2208 1690.2303,-385.3708 1765.9182,-387.4719"/>
<polygon fill="#000000" stroke="#000000" points="1765.8898,-390.9719 1775.9563,-387.6679 1766.0265,-383.9733 1765.8898,-390.9719"/>
<text text-anchor="middle" x="1689.7422" y="-389.6156" font-family="Times,serif" font-size="14.00" fill="#000000">parameter</text>
</g>
<!-- s722 -->
<g id="node16" class="node">
<title>s722</title>
<g id="a_node16"><a xlink:href="rust-grammar.json.self_parameter.dot.svg" xlink:title="s722 SYMBOL\nself_parameter">
<ellipse fill="none" stroke="#000000" cx="1849.4794" cy="-307.4156" rx="73.9667" ry="29.3315"/>
<text text-anchor="middle" x="1849.4794" y="-311.6156" font-family="Times,serif" font-size="14.00" fill="#000000">s722 SYMBOL</text>
<text text-anchor="middle" x="1849.4794" y="-294.8156" font-family="Times,serif" font-size="14.00" fill="#000000">self_parameter</text>
</a>
</g>
</g>
<!-- s720&#45;&gt;s722 -->
<g id="edge10" class="edge">
<title>s720:p1&#45;&gt;s722</title>
<path fill="none" stroke="#000000" d="M1600.4901,-255.4156C1663.211,-255.4156 1732.9779,-271.422 1782.6661,-285.6737"/>
<polygon fill="#000000" stroke="#000000" points="1781.7478,-289.0516 1792.328,-288.4954 1783.7102,-282.3323 1781.7478,-289.0516"/>
<text text-anchor="middle" x="1689.7422" y="-278.6156" font-family="Times,serif" font-size="14.00" fill="#000000">self_parameter</text>
</g>
<!-- s723 -->
<g id="node17" class="node">
<title>s723</title>
<g id="a_node17"><a xlink:href="rust-grammar.json.variadic_parameter.dot.svg" xlink:title="s723 SYMBOL\nvariadic_parameter">
<ellipse fill="none" stroke="#000000" cx="1849.4794" cy="-230.4156" rx="87.9286" ry="29.3315"/>
<text text-anchor="middle" x="1849.4794" y="-234.6156" font-family="Times,serif" font-size="14.00" fill="#000000">s723 SYMBOL</text>
<text text-anchor="middle" x="1849.4794" y="-217.8156" font-family="Times,serif" font-size="14.00" fill="#000000">variadic_parameter</text>
</a>
</g>
</g>
<!-- s720&#45;&gt;s723 -->
<g id="edge11" class="edge">
<title>s720:p2&#45;&gt;s723</title>
<path fill="none" stroke="#000000" d="M1600.4901,-230.4156C1650.2226,-230.4156 1705.5427,-230.4156 1751.3837,-230.4156"/>
<polygon fill="#000000" stroke="#000000" points="1751.6155,-233.9157 1761.6155,-230.4156 1751.6154,-226.9157 1751.6155,-233.9157"/>
<text text-anchor="middle" x="1689.7422" y="-234.6156" font-family="Times,serif" font-size="14.00" fill="#000000">variadic_parameter</text>
</g>
<!-- s724 -->
<g id="node18" class="node">
<title>s724</title>
<ellipse fill="none" stroke="#000000" cx="1849.4794" cy="-153.4156" rx="68.4585" ry="29.3315"/>
<text text-anchor="middle" x="1849.4794" y="-157.6156" font-family="Times,serif" font-size="14.00" fill="#000000">s724 STRING</text>
<text text-anchor="middle" x="1849.4794" y="-140.8156" font-family="Times,serif" font-size="14.00" fill="#000000">&quot;_&quot;</text>
</g>
<!-- s720&#45;&gt;s724 -->
<g id="edge12" class="edge">
<title>s720:p3&#45;&gt;s724</title>
<path fill="none" stroke="#000000" d="M1600.4901,-205.4156C1664.453,-205.4156 1735.7438,-188.7691 1785.5941,-174.3132"/>
<polygon fill="#000000" stroke="#000000" points="1786.6699,-177.645 1795.2697,-171.4568 1784.6879,-170.9314 1786.6699,-177.645"/>
<text text-anchor="middle" x="1689.7422" y="-206.6156" font-family="Times,serif" font-size="14.00" fill="#000000">_</text>
</g>
<!-- s725 -->
<g id="node19" class="node">
<title>s725</title>
<g id="a_node19"><a xlink:href="rust-grammar.json._type.dot.svg" xlink:title="s725 SYMBOL\n_type">
<ellipse fill="none" stroke="#000000" cx="1849.4794" cy="-76.4156" rx="73.9667" ry="29.3315"/>
<text text-anchor="middle" x="1849.4794" y="-80.6156" font-family="Times,serif" font-size="14.00" fill="#000000">s725 SYMBOL</text>
<text text-anchor="middle" x="1849.4794" y="-63.8156" font-family="Times,serif" font-size="14.00" fill="#000000">_type</text>
</a>
</g>
</g>
<!-- s720&#45;&gt;s725 -->
<g id="edge13" class="edge">
<title>s720:p4&#45;&gt;s725</title>
<path fill="none" stroke="#000000" d="M1590.4901,-168.4156C1590.4901,-92.6105 1690.2303,-75.4605 1765.9182,-73.3594"/>
<polygon fill="#000000" stroke="#000000" points="1766.0265,-76.858 1775.9563,-73.1634 1765.8898,-69.8593 1766.0265,-76.858"/>
<text text-anchor="middle" x="1689.7422" y="-104.6156" font-family="Times,serif" font-size="14.00" fill="#000000">_type</text>
</g>
<!-- s726&#45;&gt;s727 -->
<g id="edge28" class="edge">
<title>s726&#45;&gt;s727</title>
<path fill="none" stroke="#000000" d="M569.2948,-81.3879C616.7507,-73.429 694.6532,-62.4156 762.369,-62.4156 762.369,-62.4156 762.369,-62.4156 1088.2621,-62.4156 1110.5437,-62.4156 1134.9803,-62.8668 1156.5496,-63.4192"/>
<polygon fill="#000000" stroke="#000000" points="1156.4714,-66.9183 1166.5617,-63.6879 1156.6592,-59.9208 1156.4714,-66.9183"/>
</g>
<!-- s728 -->
<g id="node22" class="node">
<title>s728</title>
<ellipse fill="none" stroke="#000000" cx="1376.0324" cy="-106.4156" rx="68.4585" ry="29.3315"/>
<text text-anchor="middle" x="1376.0324" y="-110.6156" font-family="Times,serif" font-size="14.00" fill="#000000">s728 STRING</text>
<text text-anchor="middle" x="1376.0324" y="-93.8156" font-family="Times,serif" font-size="14.00" fill="#000000">&quot;,&quot;</text>
</g>
<!-- s727&#45;&gt;s728 -->
<g id="edge25" class="edge">
<title>s727:p0&#45;&gt;s728</title>
<path fill="none" stroke="#000000" d="M1268.3035,-77.4156C1283.7947,-77.4156 1300.1215,-80.2463 1315.2498,-84.1389"/>
<polygon fill="#000000" stroke="#000000" points="1314.4263,-87.5424 1324.9973,-86.8311 1316.29,-80.795 1314.4263,-87.5424"/>
<text text-anchor="middle" x="1288.0535" y="-83.6156" font-family="Times,serif" font-size="14.00" fill="#000000">,</text>
</g>
<!-- s729 -->
<g id="node23" class="node">
<title>s729</title>
<ellipse fill="none" stroke="#000000" cx="1376.0324" cy="-29.4156" rx="45.3054" ry="29.3315"/>
<text text-anchor="middle" x="1376.0324" y="-33.6156" font-family="Times,serif" font-size="14.00" fill="#000000">s729 </text>
<text text-anchor="middle" x="1376.0324" y="-16.8156" font-family="Times,serif" font-size="14.00" fill="#000000">BLANK</text>
</g>
<!-- s727&#45;&gt;s729 -->
<g id="edge26" class="edge">
<title>s727:p1&#45;&gt;s729</title>
<path fill="none" stroke="#000000" d="M1268.3035,-53.4156C1287.3811,-53.4156 1307.9141,-49.7855 1325.8849,-45.3489"/>
<polygon fill="#000000" stroke="#000000" points="1326.7874,-48.7307 1335.5796,-42.819 1325.0198,-41.9575 1326.7874,-48.7307"/>
</g>
<!-- s730 -->
<g id="node24" class="node">
<title>s730</title>
<ellipse fill="none" stroke="#000000" cx="1549.4901" cy="-61.4156" rx="68.4585" ry="29.3315"/>
<text text-anchor="middle" x="1549.4901" y="-65.6156" font-family="Times,serif" font-size="14.00" fill="#000000">s730 STRING</text>
<text text-anchor="middle" x="1549.4901" y="-48.8156" font-family="Times,serif" font-size="14.00" fill="#000000">&quot;)&quot;</text>
</g>
<!-- s728&#45;&gt;s730 -->
<g id="edge29" class="edge">
<title>s728&#45;&gt;s730</title>
<path fill="none" stroke="#000000" d="M1434.7572,-91.1807C1449.592,-87.3321 1465.6513,-83.1659 1480.9238,-79.2037"/>
<polygon fill="#000000" stroke="#000000" points="1482.0251,-82.534 1490.8257,-76.6349 1480.2672,-75.7583 1482.0251,-82.534"/>
</g>
<!-- s729&#45;&gt;s730 -->
<g id="edge30" class="edge">
<title>s729&#45;&gt;s730</title>
<path fill="none" stroke="#000000" d="M1419.8031,-37.4906C1437.0669,-40.6755 1457.369,-44.4209 1476.719,-47.9906"/>
<polygon fill="#000000" stroke="#000000" points="1476.2609,-51.4651 1486.73,-49.8375 1477.5309,-44.5812 1476.2609,-51.4651"/>
</g>
</g>
</svg>
