<?xml version="1.0" encoding="UTF-8" standalone="no"?>
<!DOCTYPE svg PUBLIC "-//W3C//DTD SVG 1.1//EN"
 "http://www.w3.org/Graphics/SVG/1.1/DTD/svg11.dtd">
<!-- Generated by graphviz version 2.40.1 (20161225.0304)
 -->
<!-- Title: while_expression Pages: 1 -->
<svg width="1239pt" height="144pt"
 viewBox="0.00 0.00 1239.29 143.83" xmlns="http://www.w3.org/2000/svg" xmlns:xlink="http://www.w3.org/1999/xlink">
<g id="graph0" class="graph" transform="scale(1 1) rotate(0) translate(4 139.8313)">
<title>while_expression</title>
<polygon fill="#ffffff" stroke="transparent" points="-4,4 -4,-139.8313 1235.2941,-139.8313 1235.2941,4 -4,4"/>
<!-- s1217 -->
<g id="node1" class="node">
<title>s1217</title>
<polygon fill="none" stroke="#000000" points="0,-46.6156 0,-88.2156 56.4418,-88.2156 56.4418,-46.6156 0,-46.6156"/>
<text text-anchor="middle" x="28.2209" y="-71.6156" font-family="Times,serif" font-size="14.00" fill="#000000">s1217</text>
<text text-anchor="middle" x="28.2209" y="-54.8156" font-family="Times,serif" font-size="14.00" fill="#000000">→ SEQ</text>
</g>
<!-- s1218 -->
<g id="node2" class="node">
<title>s1218</title>
<polygon fill="none" stroke="#000000" points="92.4418,-42.6156 92.4418,-92.2156 194.0414,-92.2156 194.0414,-42.6156 92.4418,-42.6156"/>
<text text-anchor="middle" x="133.4916" y="-71.6156" font-family="Times,serif" font-size="14.00" fill="#000000">s1218</text>
<text text-anchor="middle" x="133.4916" y="-54.8156" font-family="Times,serif" font-size="14.00" fill="#000000">→ CHOICE</text>
<polyline fill="none" stroke="#000000" points="174.5414,-42.6156 174.5414,-92.2156 "/>
<text text-anchor="middle" x="184.2914" y="-75.6156" font-family="Times,serif" font-size="14.00" fill="#000000"> </text>
<polyline fill="none" stroke="#000000" points="174.5414,-67.4156 194.0414,-67.4156 "/>
<text text-anchor="middle" x="184.2914" y="-50.8156" font-family="Times,serif" font-size="14.00" fill="#000000"> </text>
</g>
<!-- s1217&#45;&gt;s1218 -->
<g id="edge5" class="edge">
<title>s1217&#45;&gt;s1218</title>
<path fill="none" stroke="#000000" d="M56.653,-67.4156C64.4832,-67.4156 73.2894,-67.4156 82.209,-67.4156"/>
<polygon fill="#000000" stroke="#000000" points="82.2817,-70.9157 92.2817,-67.4156 82.2817,-63.9157 82.2817,-70.9157"/>
</g>
<!-- s1219 -->
<g id="node3" class="node">
<title>s1219</title>
<polygon fill="none" stroke="#000000" points="230.0414,-78.6156 230.0414,-120.2156 286.4832,-120.2156 286.4832,-78.6156 230.0414,-78.6156"/>
<text text-anchor="middle" x="258.2623" y="-103.6156" font-family="Times,serif" font-size="14.00" fill="#000000">s1219</text>
<text text-anchor="middle" x="258.2623" y="-86.8156" font-family="Times,serif" font-size="14.00" fill="#000000">→ SEQ</text>
</g>
<!-- s1218&#45;&gt;s1219 -->
<g id="edge3" class="edge">
<title>s1218:p0&#45;&gt;s1219</title>
<path fill="none" stroke="#000000" d="M194.0414,-79.4156C202.6865,-79.4156 211.7022,-81.0882 220.1511,-83.466"/>
<polygon fill="#000000" stroke="#000000" points="219.1625,-86.8242 229.753,-86.5232 221.2863,-80.1542 219.1625,-86.8242"/>
</g>
<!-- s1222 -->
<g id="node6" class="node">
<title>s1222</title>
<ellipse fill="none" stroke="#000000" cx="401.1659" cy="-29.4156" rx="45.3054" ry="29.3315"/>
<text text-anchor="middle" x="401.1659" y="-33.6156" font-family="Times,serif" font-size="14.00" fill="#000000">s1222 </text>
<text text-anchor="middle" x="401.1659" y="-16.8156" font-family="Times,serif" font-size="14.00" fill="#000000">BLANK</text>
</g>
<!-- s1218&#45;&gt;s1222 -->
<g id="edge4" class="edge">
<title>s1218:p1&#45;&gt;s1222</title>
<path fill="none" stroke="#000000" d="M194.0414,-55.4156C246.6062,-55.4156 306.0946,-47.0697 347.788,-39.8349"/>
<polygon fill="#000000" stroke="#000000" points="348.489,-43.2653 357.7244,-38.0733 347.2669,-36.3728 348.489,-43.2653"/>
</g>
<!-- s1220 -->
<g id="node4" class="node">
<title>s1220</title>
<g id="a_node4"><a xlink:href="rust-grammar.json.loop_label.dot.svg" xlink:title="s1220 SYMBOL\nloop_label">
<ellipse fill="none" stroke="#000000" cx="401.1659" cy="-106.4156" rx="78.8659" ry="29.3315"/>
<text text-anchor="middle" x="401.1659" y="-110.6156" font-family="Times,serif" font-size="14.00" fill="#000000">s1220 SYMBOL</text>
<text text-anchor="middle" x="401.1659" y="-93.8156" font-family="Times,serif" font-size="14.00" fill="#000000">loop_label</text>
</a>
</g>
</g>
<!-- s1219&#45;&gt;s1220 -->
<g id="edge1" class="edge">
<title>s1219&#45;&gt;s1220</title>
<path fill="none" stroke="#000000" d="M286.4955,-100.7986C294.3207,-101.1819 303.2537,-101.6195 312.602,-102.0774"/>
<polygon fill="#000000" stroke="#000000" points="312.7167,-105.5871 322.876,-102.5807 313.0593,-98.5955 312.7167,-105.5871"/>
</g>
<!-- s1221 -->
<g id="node5" class="node">
<title>s1221</title>
<ellipse fill="none" stroke="#000000" cx="589.0273" cy="-101.4156" rx="73.3577" ry="29.3315"/>
<text text-anchor="middle" x="589.0273" y="-105.6156" font-family="Times,serif" font-size="14.00" fill="#000000">s1221 STRING</text>
<text text-anchor="middle" x="589.0273" y="-88.8156" font-family="Times,serif" font-size="14.00" fill="#000000">&quot;:&quot;</text>
</g>
<!-- s1220&#45;&gt;s1221 -->
<g id="edge2" class="edge">
<title>s1220&#45;&gt;s1221</title>
<path fill="none" stroke="#000000" d="M479.7476,-104.3242C488.3473,-104.0953 497.1234,-103.8617 505.7771,-103.6314"/>
<polygon fill="#000000" stroke="#000000" points="505.9582,-107.1279 515.8615,-103.363 505.7719,-100.1304 505.9582,-107.1279"/>
</g>
<!-- s1223 -->
<g id="node7" class="node">
<title>s1223</title>
<ellipse fill="none" stroke="#000000" cx="771.3845" cy="-67.4156" rx="73.3577" ry="29.3315"/>
<text text-anchor="middle" x="771.3845" y="-71.6156" font-family="Times,serif" font-size="14.00" fill="#000000">s1223 STRING</text>
<text text-anchor="middle" x="771.3845" y="-54.8156" font-family="Times,serif" font-size="14.00" fill="#000000">&quot;while&quot;</text>
</g>
<!-- s1221&#45;&gt;s1223 -->
<g id="edge6" class="edge">
<title>s1221&#45;&gt;s1223</title>
<path fill="none" stroke="#000000" d="M655.6365,-88.9965C668.4467,-86.6081 681.9561,-84.0893 695.0461,-81.6487"/>
<polygon fill="#000000" stroke="#000000" points="695.7668,-85.0748 704.9559,-79.8011 694.4838,-78.1933 695.7668,-85.0748"/>
</g>
<!-- s1222&#45;&gt;s1223 -->
<g id="edge7" class="edge">
<title>s1222&#45;&gt;s1223</title>
<path fill="none" stroke="#000000" d="M446.1919,-34.0372C506.6511,-40.2429 615.1234,-51.3767 690.0636,-59.0687"/>
<polygon fill="#000000" stroke="#000000" points="690.1018,-62.5909 700.407,-60.1304 690.8166,-55.6275 690.1018,-62.5909"/>
</g>
<!-- s1224 -->
<g id="node8" class="node">
<title>s1224</title>
<g id="a_node8"><a xlink:href="rust-grammar.json._expression.dot.svg" xlink:title="s1224 SYMBOL\n_expression">
<ellipse fill="none" stroke="#000000" cx="959.2459" cy="-67.4156" rx="78.8659" ry="29.3315"/>
<text text-anchor="middle" x="959.2459" y="-71.6156" font-family="Times,serif" font-size="14.00" fill="#000000">s1224 SYMBOL</text>
<text text-anchor="middle" x="959.2459" y="-54.8156" font-family="Times,serif" font-size="14.00" fill="#000000">_expression</text>
</a>
</g>
</g>
<!-- s1223&#45;&gt;s1224 -->
<g id="edge8" class="edge">
<title>s1223&#45;&gt;s1224</title>
<path fill="none" stroke="#000000" d="M844.8238,-67.4156C853.0911,-67.4156 861.5811,-67.4156 870.0203,-67.4156"/>
<polygon fill="#000000" stroke="#000000" points="870.2707,-70.9157 880.2707,-67.4156 870.2706,-63.9157 870.2707,-70.9157"/>
</g>
<!-- s1225 -->
<g id="node9" class="node">
<title>s1225</title>
<g id="a_node9"><a xlink:href="rust-grammar.json.block.dot.svg" xlink:title="s1225 SYMBOL\nblock">
<ellipse fill="none" stroke="#000000" cx="1152.6114" cy="-67.4156" rx="78.8659" ry="29.3315"/>
<text text-anchor="middle" x="1152.6114" y="-71.6156" font-family="Times,serif" font-size="14.00" fill="#000000">s1225 SYMBOL</text>
<text text-anchor="middle" x="1152.6114" y="-54.8156" font-family="Times,serif" font-size="14.00" fill="#000000">block</text>
</a>
</g>
</g>
<!-- s1224&#45;&gt;s1225 -->
<g id="edge9" class="edge">
<title>s1224&#45;&gt;s1225</title>
<path fill="none" stroke="#000000" d="M1038.174,-67.4156C1046.4891,-67.4156 1054.9857,-67.4156 1063.4062,-67.4156"/>
<polygon fill="#000000" stroke="#000000" points="1063.6224,-70.9157 1073.6223,-67.4156 1063.6223,-63.9157 1063.6224,-70.9157"/>
</g>
</g>
</svg>
