<?xml version="1.0" encoding="UTF-8" standalone="no"?>
<!DOCTYPE svg PUBLIC "-//W3C//DTD SVG 1.1//EN"
 "http://www.w3.org/Graphics/SVG/1.1/DTD/svg11.dtd">
<!-- Generated by graphviz version 2.40.1 (20161225.0304)
 -->
<!-- Title: token_repetition Pages: 1 -->
<svg width="1575pt" height="151pt"
 viewBox="0.00 0.00 1575.45 151.22" xmlns="http://www.w3.org/2000/svg" xmlns:xlink="http://www.w3.org/1999/xlink">
<g id="graph0" class="graph" transform="scale(1 1) rotate(0) translate(4 147.2156)">
<title>token_repetition</title>
<polygon fill="#ffffff" stroke="transparent" points="-4,4 -4,-147.2156 1571.4483,-147.2156 1571.4483,4 -4,4"/>
<!-- s135 -->
<g id="node1" class="node">
<title>s135</title>
<polygon fill="none" stroke="#000000" points="0,-46.6156 0,-88.2156 56.4418,-88.2156 56.4418,-46.6156 0,-46.6156"/>
<text text-anchor="middle" x="28.2209" y="-71.6156" font-family="Times,serif" font-size="14.00" fill="#000000">s135</text>
<text text-anchor="middle" x="28.2209" y="-54.8156" font-family="Times,serif" font-size="14.00" fill="#000000">→ SEQ</text>
</g>
<!-- s136 -->
<g id="node2" class="node">
<title>s136</title>
<ellipse fill="none" stroke="#000000" cx="161.6707" cy="-67.4156" rx="68.4585" ry="29.3315"/>
<text text-anchor="middle" x="161.6707" y="-71.6156" font-family="Times,serif" font-size="14.00" fill="#000000">s136 STRING</text>
<text text-anchor="middle" x="161.6707" y="-54.8156" font-family="Times,serif" font-size="14.00" fill="#000000">&quot;$&quot;</text>
</g>
<!-- s135&#45;&gt;s136 -->
<g id="edge1" class="edge">
<title>s135&#45;&gt;s136</title>
<path fill="none" stroke="#000000" d="M56.5222,-67.4156C64.5856,-67.4156 73.7846,-67.4156 83.3101,-67.4156"/>
<polygon fill="#000000" stroke="#000000" points="83.321,-70.9157 93.321,-67.4156 83.3209,-63.9157 83.321,-70.9157"/>
</g>
<!-- s137 -->
<g id="node3" class="node">
<title>s137</title>
<ellipse fill="none" stroke="#000000" cx="335.1284" cy="-67.4156" rx="68.4585" ry="29.3315"/>
<text text-anchor="middle" x="335.1284" y="-71.6156" font-family="Times,serif" font-size="14.00" fill="#000000">s137 STRING</text>
<text text-anchor="middle" x="335.1284" y="-54.8156" font-family="Times,serif" font-size="14.00" fill="#000000">&quot;(&quot;</text>
</g>
<!-- s136&#45;&gt;s137 -->
<g id="edge2" class="edge">
<title>s136&#45;&gt;s137</title>
<path fill="none" stroke="#000000" d="M230.2258,-67.4156C238.8698,-67.4156 247.7659,-67.4156 256.5496,-67.4156"/>
<polygon fill="#000000" stroke="#000000" points="256.7874,-70.9157 266.7873,-67.4156 256.7873,-63.9157 256.7874,-70.9157"/>
</g>
<!-- s138 -->
<g id="node4" class="node">
<title>s138</title>
<polygon fill="none" stroke="#000000" points="440.3573,-46.6156 440.3573,-88.2156 523.2409,-88.2156 523.2409,-46.6156 440.3573,-46.6156"/>
<text text-anchor="middle" x="481.7991" y="-71.6156" font-family="Times,serif" font-size="14.00" fill="#000000">s138</text>
<text text-anchor="middle" x="481.7991" y="-54.8156" font-family="Times,serif" font-size="14.00" fill="#000000">→ REPEAT</text>
</g>
<!-- s137&#45;&gt;s138 -->
<g id="edge5" class="edge">
<title>s137&#45;&gt;s138</title>
<path fill="none" stroke="#000000" d="M403.74,-67.4156C412.5387,-67.4156 421.4286,-67.4156 429.9,-67.4156"/>
<polygon fill="#000000" stroke="#000000" points="429.9915,-70.9157 439.9915,-67.4156 429.9915,-63.9157 429.9915,-70.9157"/>
</g>
<!-- s139 -->
<g id="node5" class="node">
<title>s139</title>
<g id="a_node5"><a xlink:href="rust-grammar.json._tokens.dot.svg" xlink:title="s139 SYMBOL\n_tokens">
<ellipse fill="none" stroke="#000000" cx="633.9739" cy="-67.4156" rx="73.9667" ry="29.3315"/>
<text text-anchor="middle" x="633.9739" y="-71.6156" font-family="Times,serif" font-size="14.00" fill="#000000">s139 SYMBOL</text>
<text text-anchor="middle" x="633.9739" y="-54.8156" font-family="Times,serif" font-size="14.00" fill="#000000">_tokens</text>
</a>
</g>
</g>
<!-- s138&#45;&gt;s139 -->
<g id="edge3" class="edge">
<title>s138&#45;&gt;s139</title>
<path fill="none" stroke="#000000" d="M523.3815,-61.3248C532.2641,-60.961 541.9426,-60.7477 551.758,-60.6851"/>
<polygon fill="#000000" stroke="#000000" points="552.0123,-64.185 562.0086,-60.6745 552.0049,-57.185 552.0123,-64.185"/>
</g>
<!-- s139&#45;&gt;s138 -->
<g id="edge4" class="edge">
<title>s139&#45;&gt;s138</title>
<path fill="none" stroke="#000000" d="M562.0086,-74.1568C552.3846,-74.198 542.6723,-74.0948 533.4902,-73.8473"/>
<polygon fill="#000000" stroke="#000000" points="533.4938,-70.3455 523.3815,-73.5065 533.2579,-77.3415 533.4938,-70.3455"/>
</g>
<!-- s140 -->
<g id="node6" class="node">
<title>s140</title>
<ellipse fill="none" stroke="#000000" cx="812.9358" cy="-67.4156" rx="68.4585" ry="29.3315"/>
<text text-anchor="middle" x="812.9358" y="-71.6156" font-family="Times,serif" font-size="14.00" fill="#000000">s140 STRING</text>
<text text-anchor="middle" x="812.9358" y="-54.8156" font-family="Times,serif" font-size="14.00" fill="#000000">&quot;)&quot;</text>
</g>
<!-- s139&#45;&gt;s140 -->
<g id="edge6" class="edge">
<title>s139&#45;&gt;s140</title>
<path fill="none" stroke="#000000" d="M707.7978,-67.4156C716.5174,-67.4156 725.4418,-67.4156 734.2257,-67.4156"/>
<polygon fill="#000000" stroke="#000000" points="734.452,-70.9157 744.452,-67.4156 734.452,-63.9157 734.452,-70.9157"/>
</g>
<!-- s141 -->
<g id="node7" class="node">
<title>s141</title>
<polygon fill="none" stroke="#000000" points="918.1646,-42.6156 918.1646,-92.2156 1019.7642,-92.2156 1019.7642,-42.6156 918.1646,-42.6156"/>
<text text-anchor="middle" x="959.2144" y="-71.6156" font-family="Times,serif" font-size="14.00" fill="#000000">s141</text>
<text text-anchor="middle" x="959.2144" y="-54.8156" font-family="Times,serif" font-size="14.00" fill="#000000">→ CHOICE</text>
<polyline fill="none" stroke="#000000" points="1000.2642,-42.6156 1000.2642,-92.2156 "/>
<text text-anchor="middle" x="1010.0142" y="-75.6156" font-family="Times,serif" font-size="14.00" fill="#000000"> </text>
<polyline fill="none" stroke="#000000" points="1000.2642,-67.4156 1019.7642,-67.4156 "/>
<text text-anchor="middle" x="1010.0142" y="-50.8156" font-family="Times,serif" font-size="14.00" fill="#000000"> </text>
</g>
<!-- s140&#45;&gt;s141 -->
<g id="edge9" class="edge">
<title>s140&#45;&gt;s141</title>
<path fill="none" stroke="#000000" d="M881.3722,-67.4156C890.2,-67.4156 899.1939,-67.4156 907.8925,-67.4156"/>
<polygon fill="#000000" stroke="#000000" points="907.9407,-70.9157 917.9406,-67.4156 907.9406,-63.9157 907.9407,-70.9157"/>
</g>
<!-- s142 -->
<g id="node8" class="node">
<title>s142</title>
<ellipse fill="none" stroke="#000000" cx="1171.4678" cy="-106.4156" rx="77.0571" ry="29.3315"/>
<text text-anchor="middle" x="1171.4678" y="-110.6156" font-family="Times,serif" font-size="14.00" fill="#000000">s142 PATTERN</text>
<text text-anchor="middle" x="1171.4678" y="-93.8156" font-family="Times,serif" font-size="14.00" fill="#000000">&quot;[^+*]+&quot;</text>
</g>
<!-- s141&#45;&gt;s142 -->
<g id="edge7" class="edge">
<title>s141:p0&#45;&gt;s142</title>
<path fill="none" stroke="#000000" d="M1019.7642,-79.4156C1045.2746,-79.4156 1072.8299,-83.1622 1097.3668,-87.864"/>
<polygon fill="#000000" stroke="#000000" points="1096.8315,-91.3262 1107.3236,-89.8545 1098.2038,-84.462 1096.8315,-91.3262"/>
<text text-anchor="middle" x="1057.1017" y="-87.6156" font-family="Times,serif" font-size="14.00" fill="#000000">[^+*]+</text>
</g>
<!-- s143 -->
<g id="node9" class="node">
<title>s143</title>
<ellipse fill="none" stroke="#000000" cx="1171.4678" cy="-29.4156" rx="45.3054" ry="29.3315"/>
<text text-anchor="middle" x="1171.4678" y="-33.6156" font-family="Times,serif" font-size="14.00" fill="#000000">s143 </text>
<text text-anchor="middle" x="1171.4678" y="-16.8156" font-family="Times,serif" font-size="14.00" fill="#000000">BLANK</text>
</g>
<!-- s141&#45;&gt;s143 -->
<g id="edge8" class="edge">
<title>s141:p1&#45;&gt;s143</title>
<path fill="none" stroke="#000000" d="M1019.7642,-55.4156C1053.2287,-55.4156 1090.2564,-49.1935 1119.3527,-42.8369"/>
<polygon fill="#000000" stroke="#000000" points="1120.3107,-46.2088 1129.2947,-40.5929 1118.7695,-39.3806 1120.3107,-46.2088"/>
</g>
<!-- s144 -->
<g id="node10" class="node">
<title>s144</title>
<polygon fill="none" stroke="#000000" points="1285.4963,-49.6156 1285.4963,-99.2156 1387.0959,-99.2156 1387.0959,-49.6156 1285.4963,-49.6156"/>
<text text-anchor="middle" x="1326.5461" y="-78.6156" font-family="Times,serif" font-size="14.00" fill="#000000">s144</text>
<text text-anchor="middle" x="1326.5461" y="-61.8156" font-family="Times,serif" font-size="14.00" fill="#000000">→ CHOICE</text>
<polyline fill="none" stroke="#000000" points="1367.5959,-49.6156 1367.5959,-99.2156 "/>
<text text-anchor="middle" x="1377.3459" y="-82.6156" font-family="Times,serif" font-size="14.00" fill="#000000"> </text>
<polyline fill="none" stroke="#000000" points="1367.5959,-74.4156 1387.0959,-74.4156 "/>
<text text-anchor="middle" x="1377.3459" y="-57.8156" font-family="Times,serif" font-size="14.00" fill="#000000"> </text>
</g>
<!-- s142&#45;&gt;s144 -->
<g id="edge12" class="edge">
<title>s142&#45;&gt;s144</title>
<path fill="none" stroke="#000000" d="M1240.4148,-93.0302C1252.014,-90.7783 1263.979,-88.4554 1275.3569,-86.2465"/>
<polygon fill="#000000" stroke="#000000" points="1276.0311,-89.681 1285.1807,-84.3393 1274.6969,-82.8093 1276.0311,-89.681"/>
</g>
<!-- s143&#45;&gt;s144 -->
<g id="edge13" class="edge">
<title>s143&#45;&gt;s144</title>
<path fill="none" stroke="#000000" d="M1213.4874,-40.8875C1232.2579,-46.012 1254.7425,-52.1506 1275.3129,-57.7665"/>
<polygon fill="#000000" stroke="#000000" points="1274.6638,-61.2174 1285.2326,-60.4747 1276.5075,-54.4645 1274.6638,-61.2174"/>
</g>
<!-- s145 -->
<g id="node11" class="node">
<title>s145</title>
<ellipse fill="none" stroke="#000000" cx="1499.2194" cy="-113.4156" rx="68.4585" ry="29.3315"/>
<text text-anchor="middle" x="1499.2194" y="-117.6156" font-family="Times,serif" font-size="14.00" fill="#000000">s145 STRING</text>
<text text-anchor="middle" x="1499.2194" y="-100.8156" font-family="Times,serif" font-size="14.00" fill="#000000">&quot;+&quot;</text>
</g>
<!-- s144&#45;&gt;s145 -->
<g id="edge10" class="edge">
<title>s144:p0&#45;&gt;s145</title>
<path fill="none" stroke="#000000" d="M1377.2961,-99.4156C1377.2961,-123.5983 1401.2623,-129.0897 1427.9433,-127.7102"/>
<polygon fill="#000000" stroke="#000000" points="1428.5751,-131.1704 1438.2577,-126.8697 1428.0065,-124.1935 1428.5751,-131.1704"/>
<text text-anchor="middle" x="1409.0432" y="-130.6156" font-family="Times,serif" font-size="14.00" fill="#000000">+</text>
</g>
<!-- s146 -->
<g id="node12" class="node">
<title>s146</title>
<ellipse fill="none" stroke="#000000" cx="1499.2194" cy="-36.4156" rx="68.4585" ry="29.3315"/>
<text text-anchor="middle" x="1499.2194" y="-40.6156" font-family="Times,serif" font-size="14.00" fill="#000000">s146 STRING</text>
<text text-anchor="middle" x="1499.2194" y="-23.8156" font-family="Times,serif" font-size="14.00" fill="#000000">&quot;*&quot;</text>
</g>
<!-- s144&#45;&gt;s146 -->
<g id="edge11" class="edge">
<title>s144:p1&#45;&gt;s146</title>
<path fill="none" stroke="#000000" d="M1387.0959,-62.4156C1402.7501,-62.4156 1419.3232,-59.9809 1434.787,-56.6015"/>
<polygon fill="#000000" stroke="#000000" points="1435.8314,-59.9516 1444.7679,-54.2604 1434.2329,-53.1365 1435.8314,-59.9516"/>
<text text-anchor="middle" x="1409.0432" y="-64.6156" font-family="Times,serif" font-size="14.00" fill="#000000">*</text>
</g>
</g>
</svg>
