<?xml version="1.0" encoding="UTF-8" standalone="no"?>
<!DOCTYPE svg PUBLIC "-//W3C//DTD SVG 1.1//EN"
 "http://www.w3.org/Graphics/SVG/1.1/DTD/svg11.dtd">
<!-- Generated by graphviz version 2.40.1 (20161225.0304)
 -->
<!-- Title: unit_type Pages: 1 -->
<svg width="409pt" height="67pt"
 viewBox="0.00 0.00 409.36 66.83" xmlns="http://www.w3.org/2000/svg" xmlns:xlink="http://www.w3.org/1999/xlink">
<g id="graph0" class="graph" transform="scale(1 1) rotate(0) translate(4 62.8313)">
<title>unit_type</title>
<polygon fill="#ffffff" stroke="transparent" points="-4,4 -4,-62.8313 405.3573,-62.8313 405.3573,4 -4,4"/>
<!-- s844 -->
<g id="node1" class="node">
<title>s844</title>
<polygon fill="none" stroke="#000000" points="0,-8.6156 0,-50.2156 56.4418,-50.2156 56.4418,-8.6156 0,-8.6156"/>
<text text-anchor="middle" x="28.2209" y="-33.6156" font-family="Times,serif" font-size="14.00" fill="#000000">s844</text>
<text text-anchor="middle" x="28.2209" y="-16.8156" font-family="Times,serif" font-size="14.00" fill="#000000">→ SEQ</text>
</g>
<!-- s845 -->
<g id="node2" class="node">
<title>s845</title>
<ellipse fill="none" stroke="#000000" cx="160.6707" cy="-29.4156" rx="68.4585" ry="29.3315"/>
<text text-anchor="middle" x="160.6707" y="-33.6156" font-family="Times,serif" font-size="14.00" fill="#000000">s845 STRING</text>
<text text-anchor="middle" x="160.6707" y="-16.8156" font-family="Times,serif" font-size="14.00" fill="#000000">&quot;(&quot;</text>
</g>
<!-- s844&#45;&gt;s845 -->
<g id="edge1" class="edge">
<title>s844&#45;&gt;s845</title>
<path fill="none" stroke="#000000" d="M56.6347,-29.4156C64.3113,-29.4156 73.0073,-29.4156 82.0218,-29.4156"/>
<polygon fill="#000000" stroke="#000000" points="82.2976,-32.9157 92.2975,-29.4156 82.2975,-25.9157 82.2976,-32.9157"/>
</g>
<!-- s846 -->
<g id="node3" class="node">
<title>s846</title>
<ellipse fill="none" stroke="#000000" cx="333.1284" cy="-29.4156" rx="68.4585" ry="29.3315"/>
<text text-anchor="middle" x="333.1284" y="-33.6156" font-family="Times,serif" font-size="14.00" fill="#000000">s846 STRING</text>
<text text-anchor="middle" x="333.1284" y="-16.8156" font-family="Times,serif" font-size="14.00" fill="#000000">&quot;)&quot;</text>
</g>
<!-- s845&#45;&gt;s846 -->
<g id="edge2" class="edge">
<title>s845&#45;&gt;s846</title>
<path fill="none" stroke="#000000" d="M229.3261,-29.4156C237.6067,-29.4156 246.1132,-29.4156 254.5222,-29.4156"/>
<polygon fill="#000000" stroke="#000000" points="254.7093,-32.9157 264.7092,-29.4156 254.7092,-25.9157 254.7093,-32.9157"/>
</g>
</g>
</svg>
