<?xml version="1.0" encoding="UTF-8" standalone="no"?>
<!DOCTYPE svg PUBLIC "-//W3C//DTD SVG 1.1//EN"
 "http://www.w3.org/Graphics/SVG/1.1/DTD/svg11.dtd">
<!-- Generated by graphviz version 2.40.1 (20161225.0304)
 -->
<!-- Title: line_comment Pages: 1 -->
<svg width="560pt" height="67pt"
 viewBox="0.00 0.00 560.18 66.83" xmlns="http://www.w3.org/2000/svg" xmlns:xlink="http://www.w3.org/1999/xlink">
<g id="graph0" class="graph" transform="scale(1 1) rotate(0) translate(4 62.8313)">
<title>line_comment</title>
<polygon fill="#ffffff" stroke="transparent" points="-4,4 -4,-62.8313 556.1806,-62.8313 556.1806,4 -4,4"/>
<!-- s1533 -->
<g id="node1" class="node">
<title>s1533</title>
<polygon fill="none" stroke="#000000" points="0,-8.6156 0,-50.2156 77.425,-50.2156 77.425,-8.6156 0,-8.6156"/>
<text text-anchor="middle" x="38.7125" y="-33.6156" font-family="Times,serif" font-size="14.00" fill="#000000">s1533</text>
<text text-anchor="middle" x="38.7125" y="-16.8156" font-family="Times,serif" font-size="14.00" fill="#000000">→ TOKEN</text>
</g>
<!-- s1534 -->
<g id="node2" class="node">
<title>s1534</title>
<polygon fill="none" stroke="#000000" points="113.425,-8.6156 113.425,-50.2156 169.8668,-50.2156 169.8668,-8.6156 113.425,-8.6156"/>
<text text-anchor="middle" x="141.6459" y="-33.6156" font-family="Times,serif" font-size="14.00" fill="#000000">s1534</text>
<text text-anchor="middle" x="141.6459" y="-16.8156" font-family="Times,serif" font-size="14.00" fill="#000000">→ SEQ</text>
</g>
<!-- s1533&#45;&gt;s1534 -->
<g id="edge3" class="edge">
<title>s1533&#45;&gt;s1534</title>
<path fill="none" stroke="#000000" d="M77.6272,-29.4156C85.9534,-29.4156 94.7465,-29.4156 103.0602,-29.4156"/>
<polygon fill="#000000" stroke="#000000" points="103.2635,-32.9157 113.2635,-29.4156 103.2634,-25.9157 103.2635,-32.9157"/>
</g>
<!-- s1535 -->
<g id="node3" class="node">
<title>s1535</title>
<ellipse fill="none" stroke="#000000" cx="279.0454" cy="-29.4156" rx="73.3577" ry="29.3315"/>
<text text-anchor="middle" x="279.0454" y="-33.6156" font-family="Times,serif" font-size="14.00" fill="#000000">s1535 STRING</text>
<text text-anchor="middle" x="279.0454" y="-16.8156" font-family="Times,serif" font-size="14.00" fill="#000000">&quot;//&quot;</text>
</g>
<!-- s1534&#45;&gt;s1535 -->
<g id="edge1" class="edge">
<title>s1534&#45;&gt;s1535</title>
<path fill="none" stroke="#000000" d="M170.1152,-29.4156C177.8503,-29.4156 186.636,-29.4156 195.7827,-29.4156"/>
<polygon fill="#000000" stroke="#000000" points="195.8169,-32.9157 205.8169,-29.4156 195.8169,-25.9157 195.8169,-32.9157"/>
</g>
<!-- s1536 -->
<g id="node4" class="node">
<title>s1536</title>
<ellipse fill="none" stroke="#000000" cx="470.2023" cy="-29.4156" rx="81.9566" ry="29.3315"/>
<text text-anchor="middle" x="470.2023" y="-33.6156" font-family="Times,serif" font-size="14.00" fill="#000000">s1536 PATTERN</text>
<text text-anchor="middle" x="470.2023" y="-16.8156" font-family="Times,serif" font-size="14.00" fill="#000000">&quot;.*&quot;</text>
</g>
<!-- s1535&#45;&gt;s1536 -->
<g id="edge2" class="edge">
<title>s1535&#45;&gt;s1536</title>
<path fill="none" stroke="#000000" d="M352.405,-29.4156C360.805,-29.4156 369.4473,-29.4156 378.0526,-29.4156"/>
<polygon fill="#000000" stroke="#000000" points="378.1207,-32.9157 388.1206,-29.4156 378.1206,-25.9157 378.1207,-32.9157"/>
</g>
</g>
</svg>
