<?xml version="1.0" encoding="UTF-8" standalone="no"?>
<!DOCTYPE svg PUBLIC "-//W3C//DTD SVG 1.1//EN"
 "http://www.w3.org/Graphics/SVG/1.1/DTD/svg11.dtd">
<!-- Generated by graphviz version 2.40.1 (20161225.0304)
 -->
<!-- Title: _declaration_statement Pages: 1 -->
<svg width="502pt" height="1607pt"
 viewBox="0.00 0.00 502.27 1606.83" xmlns="http://www.w3.org/2000/svg" xmlns:xlink="http://www.w3.org/1999/xlink">
<g id="graph0" class="graph" transform="scale(1 1) rotate(0) translate(4 1602.8313)">
<title>_declaration_statement</title>
<polygon fill="#ffffff" stroke="transparent" points="-4,4 -4,-1602.8313 498.2726,-1602.8313 498.2726,4 -4,4"/>
<!-- s13 -->
<g id="node1" class="node">
<title>s13</title>
<polygon fill="none" stroke="#000000" points="0,-539.0156 0,-1059.8156 101.5996,-1059.8156 101.5996,-539.0156 0,-539.0156"/>
<text text-anchor="middle" x="41.0498" y="-803.6156" font-family="Times,serif" font-size="14.00" fill="#000000">s13</text>
<text text-anchor="middle" x="41.0498" y="-786.8156" font-family="Times,serif" font-size="14.00" fill="#000000">→ CHOICE</text>
<polyline fill="none" stroke="#000000" points="82.0996,-539.0156 82.0996,-1059.8156 "/>
<text text-anchor="middle" x="91.8496" y="-1043.2156" font-family="Times,serif" font-size="14.00" fill="#000000"> </text>
<polyline fill="none" stroke="#000000" points="82.0996,-1035.0156 101.5996,-1035.0156 "/>
<text text-anchor="middle" x="91.8496" y="-1018.4156" font-family="Times,serif" font-size="14.00" fill="#000000"> </text>
<polyline fill="none" stroke="#000000" points="82.0996,-1010.2156 101.5996,-1010.2156 "/>
<text text-anchor="middle" x="91.8496" y="-993.6156" font-family="Times,serif" font-size="14.00" fill="#000000"> </text>
<polyline fill="none" stroke="#000000" points="82.0996,-985.4156 101.5996,-985.4156 "/>
<text text-anchor="middle" x="91.8496" y="-968.8156" font-family="Times,serif" font-size="14.00" fill="#000000"> </text>
<polyline fill="none" stroke="#000000" points="82.0996,-960.6156 101.5996,-960.6156 "/>
<text text-anchor="middle" x="91.8496" y="-944.0156" font-family="Times,serif" font-size="14.00" fill="#000000"> </text>
<polyline fill="none" stroke="#000000" points="82.0996,-935.8156 101.5996,-935.8156 "/>
<text text-anchor="middle" x="91.8496" y="-919.2156" font-family="Times,serif" font-size="14.00" fill="#000000"> </text>
<polyline fill="none" stroke="#000000" points="82.0996,-911.0156 101.5996,-911.0156 "/>
<text text-anchor="middle" x="91.8496" y="-894.4156" font-family="Times,serif" font-size="14.00" fill="#000000"> </text>
<polyline fill="none" stroke="#000000" points="82.0996,-886.2156 101.5996,-886.2156 "/>
<text text-anchor="middle" x="91.8496" y="-869.6156" font-family="Times,serif" font-size="14.00" fill="#000000"> </text>
<polyline fill="none" stroke="#000000" points="82.0996,-861.4156 101.5996,-861.4156 "/>
<text text-anchor="middle" x="91.8496" y="-844.8156" font-family="Times,serif" font-size="14.00" fill="#000000"> </text>
<polyline fill="none" stroke="#000000" points="82.0996,-836.6156 101.5996,-836.6156 "/>
<text text-anchor="middle" x="91.8496" y="-820.0156" font-family="Times,serif" font-size="14.00" fill="#000000"> </text>
<polyline fill="none" stroke="#000000" points="82.0996,-811.8156 101.5996,-811.8156 "/>
<text text-anchor="middle" x="91.8496" y="-795.2156" font-family="Times,serif" font-size="14.00" fill="#000000"> </text>
<polyline fill="none" stroke="#000000" points="82.0996,-787.0156 101.5996,-787.0156 "/>
<text text-anchor="middle" x="91.8496" y="-770.4156" font-family="Times,serif" font-size="14.00" fill="#000000"> </text>
<polyline fill="none" stroke="#000000" points="82.0996,-762.2156 101.5996,-762.2156 "/>
<text text-anchor="middle" x="91.8496" y="-745.6156" font-family="Times,serif" font-size="14.00" fill="#000000"> </text>
<polyline fill="none" stroke="#000000" points="82.0996,-737.4156 101.5996,-737.4156 "/>
<text text-anchor="middle" x="91.8496" y="-720.8156" font-family="Times,serif" font-size="14.00" fill="#000000"> </text>
<polyline fill="none" stroke="#000000" points="82.0996,-712.6156 101.5996,-712.6156 "/>
<text text-anchor="middle" x="91.8496" y="-696.0156" font-family="Times,serif" font-size="14.00" fill="#000000"> </text>
<polyline fill="none" stroke="#000000" points="82.0996,-687.8156 101.5996,-687.8156 "/>
<text text-anchor="middle" x="91.8496" y="-671.2156" font-family="Times,serif" font-size="14.00" fill="#000000"> </text>
<polyline fill="none" stroke="#000000" points="82.0996,-663.0156 101.5996,-663.0156 "/>
<text text-anchor="middle" x="91.8496" y="-646.4156" font-family="Times,serif" font-size="14.00" fill="#000000"> </text>
<polyline fill="none" stroke="#000000" points="82.0996,-638.2156 101.5996,-638.2156 "/>
<text text-anchor="middle" x="91.8496" y="-621.6156" font-family="Times,serif" font-size="14.00" fill="#000000"> </text>
<polyline fill="none" stroke="#000000" points="82.0996,-613.4156 101.5996,-613.4156 "/>
<text text-anchor="middle" x="91.8496" y="-596.8156" font-family="Times,serif" font-size="14.00" fill="#000000"> </text>
<polyline fill="none" stroke="#000000" points="82.0996,-588.6156 101.5996,-588.6156 "/>
<text text-anchor="middle" x="91.8496" y="-572.0156" font-family="Times,serif" font-size="14.00" fill="#000000"> </text>
<polyline fill="none" stroke="#000000" points="82.0996,-563.8156 101.5996,-563.8156 "/>
<text text-anchor="middle" x="91.8496" y="-547.2156" font-family="Times,serif" font-size="14.00" fill="#000000"> </text>
</g>
<!-- s14 -->
<g id="node2" class="node">
<title>s14</title>
<g id="a_node2"><a xlink:href="rust-grammar.json.const_item.dot.svg" xlink:title="s14 SYMBOL\nconst_item">
<ellipse fill="none" stroke="#000000" cx="385.1192" cy="-1569.4156" rx="68.5672" ry="29.3315"/>
<text text-anchor="middle" x="385.1192" y="-1573.6156" font-family="Times,serif" font-size="14.00" fill="#000000">s14 SYMBOL</text>
<text text-anchor="middle" x="385.1192" y="-1556.8156" font-family="Times,serif" font-size="14.00" fill="#000000">const_item</text>
</a>
</g>
</g>
<!-- s13&#45;&gt;s14 -->
<g id="edge1" class="edge">
<title>s13:p0&#45;&gt;s14</title>
<path fill="none" stroke="#000000" d="M91.7998,-1059.4156C91.7998,-1085.0733 102.5992,-1501.1985 119.5996,-1520.4156 165.8425,-1572.6884 248.1075,-1580.7327 308.8531,-1578.313"/>
<polygon fill="#000000" stroke="#000000" points="309.3568,-1581.7922 319.1685,-1577.7946 309.0054,-1574.801 309.3568,-1581.7922"/>
<text text-anchor="middle" x="188.7827" y="-1580.6156" font-family="Times,serif" font-size="14.00" fill="#000000">const_item</text>
</g>
<!-- s15 -->
<g id="node3" class="node">
<title>s15</title>
<g id="a_node3"><a xlink:href="rust-grammar.json.macro_invocation.dot.svg" xlink:title="s15 SYMBOL\nmacro_invocation">
<ellipse fill="none" stroke="#000000" cx="385.1192" cy="-1492.4156" rx="82.5786" ry="29.3315"/>
<text text-anchor="middle" x="385.1192" y="-1496.6156" font-family="Times,serif" font-size="14.00" fill="#000000">s15 SYMBOL</text>
<text text-anchor="middle" x="385.1192" y="-1479.8156" font-family="Times,serif" font-size="14.00" fill="#000000">macro_invocation</text>
</a>
</g>
</g>
<!-- s13&#45;&gt;s15 -->
<g id="edge2" class="edge">
<title>s13:p1&#45;&gt;s15</title>
<path fill="none" stroke="#000000" d="M101.5996,-1022.4156C124.9544,-1022.4156 104.3099,-1424.7615 119.5996,-1442.4156 162.2004,-1491.6045 236.6004,-1502.1655 295.8264,-1501.5189"/>
<polygon fill="#000000" stroke="#000000" points="296.0221,-1505.0155 305.9438,-1501.2994 295.8702,-1498.0172 296.0221,-1505.0155"/>
<text text-anchor="middle" x="188.7827" y="-1503.6156" font-family="Times,serif" font-size="14.00" fill="#000000">macro_invocation</text>
</g>
<!-- s16 -->
<g id="node4" class="node">
<title>s16</title>
<g id="a_node4"><a xlink:href="rust-grammar.json.macro_definition.dot.svg" xlink:title="s16 SYMBOL\nmacro_definition">
<ellipse fill="none" stroke="#000000" cx="385.1192" cy="-1415.4156" rx="79.4831" ry="29.3315"/>
<text text-anchor="middle" x="385.1192" y="-1419.6156" font-family="Times,serif" font-size="14.00" fill="#000000">s16 SYMBOL</text>
<text text-anchor="middle" x="385.1192" y="-1402.8156" font-family="Times,serif" font-size="14.00" fill="#000000">macro_definition</text>
</a>
</g>
</g>
<!-- s13&#45;&gt;s16 -->
<g id="edge3" class="edge">
<title>s13:p2&#45;&gt;s16</title>
<path fill="none" stroke="#000000" d="M101.5996,-997.4156C142.4264,-997.4156 92.8323,-1333.5881 119.5996,-1364.4156 162.947,-1414.3381 238.9733,-1424.7646 298.5964,-1424.0439"/>
<polygon fill="#000000" stroke="#000000" points="298.8522,-1427.5391 308.77,-1423.8124 298.6929,-1420.5409 298.8522,-1427.5391"/>
<text text-anchor="middle" x="188.7827" y="-1425.6156" font-family="Times,serif" font-size="14.00" fill="#000000">macro_definition</text>
</g>
<!-- s17 -->
<g id="node5" class="node">
<title>s17</title>
<g id="a_node5"><a xlink:href="rust-grammar.json.empty_statement.dot.svg" xlink:title="s17 SYMBOL\nempty_statement">
<ellipse fill="none" stroke="#000000" cx="385.1192" cy="-1338.4156" rx="78.8922" ry="29.3315"/>
<text text-anchor="middle" x="385.1192" y="-1342.6156" font-family="Times,serif" font-size="14.00" fill="#000000">s17 SYMBOL</text>
<text text-anchor="middle" x="385.1192" y="-1325.8156" font-family="Times,serif" font-size="14.00" fill="#000000">empty_statement</text>
</a>
</g>
</g>
<!-- s13&#45;&gt;s17 -->
<g id="edge4" class="edge">
<title>s13:p3&#45;&gt;s17</title>
<path fill="none" stroke="#000000" d="M101.5996,-973.4156C136.3239,-973.4156 96.8153,-1259.2116 119.5996,-1285.4156 163.0428,-1335.3794 239.0595,-1346.4071 298.6545,-1346.2191"/>
<polygon fill="#000000" stroke="#000000" points="298.8722,-1349.7165 308.8231,-1346.0792 298.7758,-1342.7172 298.8722,-1349.7165"/>
<text text-anchor="middle" x="188.7827" y="-1347.6156" font-family="Times,serif" font-size="14.00" fill="#000000">empty_statement</text>
</g>
<!-- s18 -->
<g id="node6" class="node">
<title>s18</title>
<g id="a_node6"><a xlink:href="rust-grammar.json.attribute_item.dot.svg" xlink:title="s18 SYMBOL\nattribute_item">
<ellipse fill="none" stroke="#000000" cx="385.1192" cy="-1261.4156" rx="68.5672" ry="29.3315"/>
<text text-anchor="middle" x="385.1192" y="-1265.6156" font-family="Times,serif" font-size="14.00" fill="#000000">s18 SYMBOL</text>
<text text-anchor="middle" x="385.1192" y="-1248.8156" font-family="Times,serif" font-size="14.00" fill="#000000">attribute_item</text>
</a>
</g>
</g>
<!-- s13&#45;&gt;s18 -->
<g id="edge5" class="edge">
<title>s13:p4&#45;&gt;s18</title>
<path fill="none" stroke="#000000" d="M101.5996,-948.4156C130.1143,-948.4156 100.91,-1182.88 119.5996,-1204.4156 165.2438,-1257.0104 246.608,-1267.8888 307.2783,-1267.6806"/>
<polygon fill="#000000" stroke="#000000" points="307.6382,-1271.1761 317.5892,-1267.5391 307.5421,-1264.1768 307.6382,-1271.1761"/>
<text text-anchor="middle" x="188.7827" y="-1268.6156" font-family="Times,serif" font-size="14.00" fill="#000000">attribute_item</text>
</g>
<!-- s19 -->
<g id="node7" class="node">
<title>s19</title>
<g id="a_node7"><a xlink:href="rust-grammar.json.inner_attribute_item.dot.svg" xlink:title="s19 SYMBOL\ninner_attribute_item">
<ellipse fill="none" stroke="#000000" cx="385.1192" cy="-1184.4156" rx="92.2785" ry="29.3315"/>
<text text-anchor="middle" x="385.1192" y="-1188.6156" font-family="Times,serif" font-size="14.00" fill="#000000">s19 SYMBOL</text>
<text text-anchor="middle" x="385.1192" y="-1171.8156" font-family="Times,serif" font-size="14.00" fill="#000000">inner_attribute_item</text>
</a>
</g>
</g>
<!-- s13&#45;&gt;s19 -->
<g id="edge6" class="edge">
<title>s13:p5&#45;&gt;s19</title>
<path fill="none" stroke="#000000" d="M101.5996,-923.4156C145.5597,-923.4156 90.8552,-1087.1553 119.5996,-1120.4156 159.5243,-1166.6128 226.464,-1182.5281 283.1401,-1186.9369"/>
<polygon fill="#000000" stroke="#000000" points="283.0188,-1190.4365 293.2298,-1187.6106 283.4852,-1183.452 283.0188,-1190.4365"/>
<text text-anchor="middle" x="188.7827" y="-1187.6156" font-family="Times,serif" font-size="14.00" fill="#000000">inner_attribute_item</text>
</g>
<!-- s20 -->
<g id="node8" class="node">
<title>s20</title>
<g id="a_node8"><a xlink:href="rust-grammar.json.mod_item.dot.svg" xlink:title="s20 SYMBOL\nmod_item">
<ellipse fill="none" stroke="#000000" cx="385.1192" cy="-1107.4156" rx="68.5672" ry="29.3315"/>
<text text-anchor="middle" x="385.1192" y="-1111.6156" font-family="Times,serif" font-size="14.00" fill="#000000">s20 SYMBOL</text>
<text text-anchor="middle" x="385.1192" y="-1094.8156" font-family="Times,serif" font-size="14.00" fill="#000000">mod_item</text>
</a>
</g>
</g>
<!-- s13&#45;&gt;s20 -->
<g id="edge7" class="edge">
<title>s13:p6&#45;&gt;s20</title>
<path fill="none" stroke="#000000" d="M101.5996,-898.4156C131.6448,-898.4156 99.9124,-1009.7192 119.5996,-1032.4156 165.5149,-1085.3493 245.657,-1102.277 305.9161,-1107.0641"/>
<polygon fill="#000000" stroke="#000000" points="305.9453,-1110.5745 316.1642,-1107.7776 306.4315,-1103.5914 305.9453,-1110.5745"/>
<text text-anchor="middle" x="188.7827" y="-1103.6156" font-family="Times,serif" font-size="14.00" fill="#000000">mod_item</text>
</g>
<!-- s21 -->
<g id="node9" class="node">
<title>s21</title>
<g id="a_node9"><a xlink:href="rust-grammar.json.foreign_mod_item.dot.svg" xlink:title="s21 SYMBOL\nforeign_mod_item">
<ellipse fill="none" stroke="#000000" cx="385.1192" cy="-1030.4156" rx="84.9933" ry="29.3315"/>
<text text-anchor="middle" x="385.1192" y="-1034.6156" font-family="Times,serif" font-size="14.00" fill="#000000">s21 SYMBOL</text>
<text text-anchor="middle" x="385.1192" y="-1017.8156" font-family="Times,serif" font-size="14.00" fill="#000000">foreign_mod_item</text>
</a>
</g>
</g>
<!-- s13&#45;&gt;s21 -->
<g id="edge8" class="edge">
<title>s13:p7&#45;&gt;s21</title>
<path fill="none" stroke="#000000" d="M101.5996,-873.4156C131.5757,-873.4156 99.0856,-916.5582 119.5996,-938.4156 164.6378,-986.4034 235.9396,-1009.363 293.3193,-1020.3467"/>
<polygon fill="#000000" stroke="#000000" points="293.0305,-1023.8515 303.4955,-1022.1984 294.2837,-1016.9646 293.0305,-1023.8515"/>
<text text-anchor="middle" x="188.7827" y="-1015.6156" font-family="Times,serif" font-size="14.00" fill="#000000">foreign_mod_item</text>
</g>
<!-- s22 -->
<g id="node10" class="node">
<title>s22</title>
<g id="a_node10"><a xlink:href="rust-grammar.json.struct_item.dot.svg" xlink:title="s22 SYMBOL\nstruct_item">
<ellipse fill="none" stroke="#000000" cx="385.1192" cy="-953.4156" rx="68.5672" ry="29.3315"/>
<text text-anchor="middle" x="385.1192" y="-957.6156" font-family="Times,serif" font-size="14.00" fill="#000000">s22 SYMBOL</text>
<text text-anchor="middle" x="385.1192" y="-940.8156" font-family="Times,serif" font-size="14.00" fill="#000000">struct_item</text>
</a>
</g>
</g>
<!-- s13&#45;&gt;s22 -->
<g id="edge9" class="edge">
<title>s13:p8&#45;&gt;s22</title>
<path fill="none" stroke="#000000" d="M101.5996,-849.4156C111.7345,-849.4156 110.676,-858.6108 119.5996,-863.4156 182.2637,-897.1564 259.9667,-921.7151 315.0854,-936.5732"/>
<polygon fill="#000000" stroke="#000000" points="314.1978,-939.9587 324.7613,-939.1445 315.9956,-933.1935 314.1978,-939.9587"/>
<text text-anchor="middle" x="188.7827" y="-921.6156" font-family="Times,serif" font-size="14.00" fill="#000000">struct_item</text>
</g>
<!-- s23 -->
<g id="node11" class="node">
<title>s23</title>
<g id="a_node11"><a xlink:href="rust-grammar.json.union_item.dot.svg" xlink:title="s23 SYMBOL\nunion_item">
<ellipse fill="none" stroke="#000000" cx="385.1192" cy="-876.4156" rx="68.5672" ry="29.3315"/>
<text text-anchor="middle" x="385.1192" y="-880.6156" font-family="Times,serif" font-size="14.00" fill="#000000">s23 SYMBOL</text>
<text text-anchor="middle" x="385.1192" y="-863.8156" font-family="Times,serif" font-size="14.00" fill="#000000">union_item</text>
</a>
</g>
</g>
<!-- s13&#45;&gt;s23 -->
<g id="edge10" class="edge">
<title>s13:p9&#45;&gt;s23</title>
<path fill="none" stroke="#000000" d="M101.5996,-824.4156C176.7795,-824.4156 261.3603,-842.3232 318.4183,-857.1207"/>
<polygon fill="#000000" stroke="#000000" points="317.8284,-860.5847 328.3901,-859.748 319.6118,-853.8157 317.8284,-860.5847"/>
<text text-anchor="middle" x="188.7827" y="-846.6156" font-family="Times,serif" font-size="14.00" fill="#000000">union_item</text>
</g>
<!-- s24 -->
<g id="node12" class="node">
<title>s24</title>
<g id="a_node12"><a xlink:href="rust-grammar.json.enum_item.dot.svg" xlink:title="s24 SYMBOL\nenum_item">
<ellipse fill="none" stroke="#000000" cx="385.1192" cy="-799.4156" rx="68.5672" ry="29.3315"/>
<text text-anchor="middle" x="385.1192" y="-803.6156" font-family="Times,serif" font-size="14.00" fill="#000000">s24 SYMBOL</text>
<text text-anchor="middle" x="385.1192" y="-786.8156" font-family="Times,serif" font-size="14.00" fill="#000000">enum_item</text>
</a>
</g>
</g>
<!-- s13&#45;&gt;s24 -->
<g id="edge11" class="edge">
<title>s13:p10&#45;&gt;s24</title>
<path fill="none" stroke="#000000" d="M101.5996,-799.4156C170.6704,-799.4156 249.2065,-799.4156 306.078,-799.4156"/>
<polygon fill="#000000" stroke="#000000" points="306.0809,-802.9157 316.0809,-799.4156 306.0809,-795.9157 306.0809,-802.9157"/>
<text text-anchor="middle" x="188.7827" y="-803.6156" font-family="Times,serif" font-size="14.00" fill="#000000">enum_item</text>
</g>
<!-- s25 -->
<g id="node13" class="node">
<title>s25</title>
<g id="a_node13"><a xlink:href="rust-grammar.json.type_item.dot.svg" xlink:title="s25 SYMBOL\ntype_item">
<ellipse fill="none" stroke="#000000" cx="385.1192" cy="-722.4156" rx="68.5672" ry="29.3315"/>
<text text-anchor="middle" x="385.1192" y="-726.6156" font-family="Times,serif" font-size="14.00" fill="#000000">s25 SYMBOL</text>
<text text-anchor="middle" x="385.1192" y="-709.8156" font-family="Times,serif" font-size="14.00" fill="#000000">type_item</text>
</a>
</g>
</g>
<!-- s13&#45;&gt;s25 -->
<g id="edge12" class="edge">
<title>s13:p11&#45;&gt;s25</title>
<path fill="none" stroke="#000000" d="M101.5996,-774.4156C176.7795,-774.4156 261.3603,-756.5081 318.4183,-741.7105"/>
<polygon fill="#000000" stroke="#000000" points="319.6118,-745.0156 328.3901,-739.0833 317.8284,-738.2466 319.6118,-745.0156"/>
<text text-anchor="middle" x="188.7827" y="-777.6156" font-family="Times,serif" font-size="14.00" fill="#000000">type_item</text>
</g>
<!-- s26 -->
<g id="node14" class="node">
<title>s26</title>
<g id="a_node14"><a xlink:href="rust-grammar.json.function_item.dot.svg" xlink:title="s26 SYMBOL\nfunction_item">
<ellipse fill="none" stroke="#000000" cx="385.1192" cy="-645.4156" rx="68.5672" ry="29.3315"/>
<text text-anchor="middle" x="385.1192" y="-649.6156" font-family="Times,serif" font-size="14.00" fill="#000000">s26 SYMBOL</text>
<text text-anchor="middle" x="385.1192" y="-632.8156" font-family="Times,serif" font-size="14.00" fill="#000000">function_item</text>
</a>
</g>
</g>
<!-- s13&#45;&gt;s26 -->
<g id="edge13" class="edge">
<title>s13:p12&#45;&gt;s26</title>
<path fill="none" stroke="#000000" d="M101.5996,-749.4156C111.9566,-749.4156 110.5411,-739.6366 119.5996,-734.6156 181.59,-700.2557 259.0595,-676.107 314.289,-661.6797"/>
<polygon fill="#000000" stroke="#000000" points="315.1749,-665.0659 323.9884,-659.1861 313.4319,-658.2863 315.1749,-665.0659"/>
<text text-anchor="middle" x="188.7827" y="-738.6156" font-family="Times,serif" font-size="14.00" fill="#000000">function_item</text>
</g>
<!-- s27 -->
<g id="node15" class="node">
<title>s27</title>
<g id="a_node15"><a xlink:href="rust-grammar.json.function_signature_item.dot.svg" xlink:title="s27 SYMBOL\nfunction_signature_item">
<ellipse fill="none" stroke="#000000" cx="385.1192" cy="-568.4156" rx="108.1745" ry="29.3315"/>
<text text-anchor="middle" x="385.1192" y="-572.6156" font-family="Times,serif" font-size="14.00" fill="#000000">s27 SYMBOL</text>
<text text-anchor="middle" x="385.1192" y="-555.8156" font-family="Times,serif" font-size="14.00" fill="#000000">function_signature_item</text>
</a>
</g>
</g>
<!-- s13&#45;&gt;s27 -->
<g id="edge14" class="edge">
<title>s13:p13&#45;&gt;s27</title>
<path fill="none" stroke="#000000" d="M101.5996,-725.4156C132.7768,-725.4156 98.2774,-680.3617 119.5996,-657.6156 159.5965,-614.9478 220.613,-592.6831 274.0725,-581.0681"/>
<polygon fill="#000000" stroke="#000000" points="274.8772,-584.4758 283.9598,-579.0207 273.4578,-577.6212 274.8772,-584.4758"/>
<text text-anchor="middle" x="188.7827" y="-661.6156" font-family="Times,serif" font-size="14.00" fill="#000000">function_signature_item</text>
</g>
<!-- s28 -->
<g id="node16" class="node">
<title>s28</title>
<g id="a_node16"><a xlink:href="rust-grammar.json.impl_item.dot.svg" xlink:title="s28 SYMBOL\nimpl_item">
<ellipse fill="none" stroke="#000000" cx="385.1192" cy="-491.4156" rx="68.5672" ry="29.3315"/>
<text text-anchor="middle" x="385.1192" y="-495.6156" font-family="Times,serif" font-size="14.00" fill="#000000">s28 SYMBOL</text>
<text text-anchor="middle" x="385.1192" y="-478.8156" font-family="Times,serif" font-size="14.00" fill="#000000">impl_item</text>
</a>
</g>
</g>
<!-- s13&#45;&gt;s28 -->
<g id="edge15" class="edge">
<title>s13:p14&#45;&gt;s28</title>
<path fill="none" stroke="#000000" d="M101.5996,-700.4156C132.2616,-700.4156 99.4262,-586.7067 119.5996,-563.6156 165.5773,-510.9881 245.7105,-494.931 305.9505,-490.8339"/>
<polygon fill="#000000" stroke="#000000" points="306.4153,-494.3129 316.1952,-490.2381 306.0089,-487.3247 306.4153,-494.3129"/>
<text text-anchor="middle" x="188.7827" y="-567.6156" font-family="Times,serif" font-size="14.00" fill="#000000">impl_item</text>
</g>
<!-- s29 -->
<g id="node17" class="node">
<title>s29</title>
<g id="a_node17"><a xlink:href="rust-grammar.json.trait_item.dot.svg" xlink:title="s29 SYMBOL\ntrait_item">
<ellipse fill="none" stroke="#000000" cx="385.1192" cy="-414.4156" rx="68.5672" ry="29.3315"/>
<text text-anchor="middle" x="385.1192" y="-418.6156" font-family="Times,serif" font-size="14.00" fill="#000000">s29 SYMBOL</text>
<text text-anchor="middle" x="385.1192" y="-401.8156" font-family="Times,serif" font-size="14.00" fill="#000000">trait_item</text>
</a>
</g>
</g>
<!-- s13&#45;&gt;s29 -->
<g id="edge16" class="edge">
<title>s13:p15&#45;&gt;s29</title>
<path fill="none" stroke="#000000" d="M101.5996,-675.4156C123.8895,-675.4156 104.9514,-492.4165 119.5996,-475.6156 165.3709,-423.1177 246.3197,-410.7625 306.8432,-409.7406"/>
<polygon fill="#000000" stroke="#000000" points="307.1552,-413.2386 317.1314,-409.6714 307.1081,-406.2388 307.1552,-413.2386"/>
<text text-anchor="middle" x="188.7827" y="-479.6156" font-family="Times,serif" font-size="14.00" fill="#000000">trait_item</text>
</g>
<!-- s30 -->
<g id="node18" class="node">
<title>s30</title>
<g id="a_node18"><a xlink:href="rust-grammar.json.associated_type.dot.svg" xlink:title="s30 SYMBOL\nassociated_type">
<ellipse fill="none" stroke="#000000" cx="385.1192" cy="-337.4156" rx="73.9748" ry="29.3315"/>
<text text-anchor="middle" x="385.1192" y="-341.6156" font-family="Times,serif" font-size="14.00" fill="#000000">s30 SYMBOL</text>
<text text-anchor="middle" x="385.1192" y="-324.8156" font-family="Times,serif" font-size="14.00" fill="#000000">associated_type</text>
</a>
</g>
</g>
<!-- s13&#45;&gt;s30 -->
<g id="edge17" class="edge">
<title>s13:p16&#45;&gt;s30</title>
<path fill="none" stroke="#000000" d="M101.5996,-650.4156C130.3138,-650.4156 100.7142,-414.2454 119.5996,-392.6156 164.1677,-341.571 242.5464,-330.4741 302.6322,-330.5412"/>
<polygon fill="#000000" stroke="#000000" points="302.8268,-334.0436 312.8666,-330.6594 302.9077,-327.0441 302.8268,-334.0436"/>
<text text-anchor="middle" x="188.7827" y="-396.6156" font-family="Times,serif" font-size="14.00" fill="#000000">associated_type</text>
</g>
<!-- s31 -->
<g id="node19" class="node">
<title>s31</title>
<g id="a_node19"><a xlink:href="rust-grammar.json.let_declaration.dot.svg" xlink:title="s31 SYMBOL\nlet_declaration">
<ellipse fill="none" stroke="#000000" cx="385.1192" cy="-260.4156" rx="70.2713" ry="29.3315"/>
<text text-anchor="middle" x="385.1192" y="-264.6156" font-family="Times,serif" font-size="14.00" fill="#000000">s31 SYMBOL</text>
<text text-anchor="middle" x="385.1192" y="-247.8156" font-family="Times,serif" font-size="14.00" fill="#000000">let_declaration</text>
</a>
</g>
</g>
<!-- s13&#45;&gt;s31 -->
<g id="edge18" class="edge">
<title>s13:p17&#45;&gt;s31</title>
<path fill="none" stroke="#000000" d="M101.5996,-625.4156C136.5236,-625.4156 96.6027,-337.8993 119.5996,-311.6156 165.1872,-259.5126 246.3616,-250.4476 306.9958,-252.126"/>
<polygon fill="#000000" stroke="#000000" points="307.1759,-255.6353 317.302,-252.5189 307.4426,-248.6404 307.1759,-255.6353"/>
<text text-anchor="middle" x="188.7827" y="-315.6156" font-family="Times,serif" font-size="14.00" fill="#000000">let_declaration</text>
</g>
<!-- s32 -->
<g id="node20" class="node">
<title>s32</title>
<g id="a_node20"><a xlink:href="rust-grammar.json.use_declaration.dot.svg" xlink:title="s32 SYMBOL\nuse_declaration">
<ellipse fill="none" stroke="#000000" cx="385.1192" cy="-183.4156" rx="73.3661" ry="29.3315"/>
<text text-anchor="middle" x="385.1192" y="-187.6156" font-family="Times,serif" font-size="14.00" fill="#000000">s32 SYMBOL</text>
<text text-anchor="middle" x="385.1192" y="-170.8156" font-family="Times,serif" font-size="14.00" fill="#000000">use_declaration</text>
</a>
</g>
</g>
<!-- s13&#45;&gt;s32 -->
<g id="edge19" class="edge">
<title>s13:p18&#45;&gt;s32</title>
<path fill="none" stroke="#000000" d="M101.5996,-601.4156C142.6262,-601.4156 92.6037,-263.509 119.5996,-232.6156 164.5086,-181.223 244.2048,-172.3704 304.6011,-174.2952"/>
<polygon fill="#000000" stroke="#000000" points="304.7395,-177.8041 314.8789,-174.7313 305.0363,-170.8104 304.7395,-177.8041"/>
<text text-anchor="middle" x="188.7827" y="-236.6156" font-family="Times,serif" font-size="14.00" fill="#000000">use_declaration</text>
</g>
<!-- s33 -->
<g id="node21" class="node">
<title>s33</title>
<g id="a_node21"><a xlink:href="rust-grammar.json.extern_crate_declaration.dot.svg" xlink:title="s33 SYMBOL\nextern_crate_declaration">
<ellipse fill="none" stroke="#000000" cx="385.1192" cy="-106.4156" rx="109.307" ry="29.3315"/>
<text text-anchor="middle" x="385.1192" y="-110.6156" font-family="Times,serif" font-size="14.00" fill="#000000">s33 SYMBOL</text>
<text text-anchor="middle" x="385.1192" y="-93.8156" font-family="Times,serif" font-size="14.00" fill="#000000">extern_crate_declaration</text>
</a>
</g>
</g>
<!-- s13&#45;&gt;s33 -->
<g id="edge20" class="edge">
<title>s13:p19&#45;&gt;s33</title>
<path fill="none" stroke="#000000" d="M101.5996,-576.4156C125.0543,-576.4156 104.1881,-172.2963 119.5996,-154.6156 156.6948,-112.0586 217.6973,-98.8858 271.8816,-96.8637"/>
<polygon fill="#000000" stroke="#000000" points="272.0037,-100.3618 281.9124,-96.6113 271.8275,-93.364 272.0037,-100.3618"/>
<text text-anchor="middle" x="188.7827" y="-158.6156" font-family="Times,serif" font-size="14.00" fill="#000000">extern_crate_declaration</text>
</g>
<!-- s34 -->
<g id="node22" class="node">
<title>s34</title>
<g id="a_node22"><a xlink:href="rust-grammar.json.static_item.dot.svg" xlink:title="s34 SYMBOL\nstatic_item">
<ellipse fill="none" stroke="#000000" cx="385.1192" cy="-29.4156" rx="68.5672" ry="29.3315"/>
<text text-anchor="middle" x="385.1192" y="-33.6156" font-family="Times,serif" font-size="14.00" fill="#000000">s34 SYMBOL</text>
<text text-anchor="middle" x="385.1192" y="-16.8156" font-family="Times,serif" font-size="14.00" fill="#000000">static_item</text>
</a>
</g>
</g>
<!-- s13&#45;&gt;s34 -->
<g id="edge21" class="edge">
<title>s13:p20&#45;&gt;s34</title>
<path fill="none" stroke="#000000" d="M91.7998,-539.4156C91.7998,-513.6582 102.4721,-95.8535 119.5996,-76.6156 166.0262,-24.4688 248.4608,-17.0584 309.1998,-19.9598"/>
<polygon fill="#000000" stroke="#000000" points="309.3257,-23.473 319.5123,-20.5603 309.7327,-16.4849 309.3257,-23.473"/>
<text text-anchor="middle" x="188.7827" y="-80.6156" font-family="Times,serif" font-size="14.00" fill="#000000">static_item</text>
</g>
</g>
</svg>
