<?xml version="1.0" encoding="UTF-8" standalone="no"?>
<!DOCTYPE svg PUBLIC "-//W3C//DTD SVG 1.1//EN"
 "http://www.w3.org/Graphics/SVG/1.1/DTD/svg11.dtd">
<!-- Generated by graphviz version 2.40.1 (20161225.0304)
 -->
<!-- Title: _expression_statement Pages: 1 -->
<svg width="698pt" height="144pt"
 viewBox="0.00 0.00 698.14 143.83" xmlns="http://www.w3.org/2000/svg" xmlns:xlink="http://www.w3.org/1999/xlink">
<g id="graph0" class="graph" transform="scale(1 1) rotate(0) translate(4 139.8313)">
<title>_expression_statement</title>
<polygon fill="#ffffff" stroke="transparent" points="-4,4 -4,-139.8313 694.135,-139.8313 694.135,4 -4,4"/>
<!-- s7 -->
<g id="node1" class="node">
<title>s7</title>
<polygon fill="none" stroke="#000000" points="0,-42.6156 0,-92.2156 101.5996,-92.2156 101.5996,-42.6156 0,-42.6156"/>
<text text-anchor="middle" x="41.0498" y="-71.6156" font-family="Times,serif" font-size="14.00" fill="#000000">s7</text>
<text text-anchor="middle" x="41.0498" y="-54.8156" font-family="Times,serif" font-size="14.00" fill="#000000">→ CHOICE</text>
<polyline fill="none" stroke="#000000" points="82.0996,-42.6156 82.0996,-92.2156 "/>
<text text-anchor="middle" x="91.8496" y="-75.6156" font-family="Times,serif" font-size="14.00" fill="#000000"> </text>
<polyline fill="none" stroke="#000000" points="82.0996,-67.4156 101.5996,-67.4156 "/>
<text text-anchor="middle" x="91.8496" y="-50.8156" font-family="Times,serif" font-size="14.00" fill="#000000"> </text>
</g>
<!-- s8 -->
<g id="node2" class="node">
<title>s8</title>
<polygon fill="none" stroke="#000000" points="148.8829,-81.6156 148.8829,-123.2156 205.3247,-123.2156 205.3247,-81.6156 148.8829,-81.6156"/>
<text text-anchor="middle" x="177.1038" y="-106.6156" font-family="Times,serif" font-size="14.00" fill="#000000">s8</text>
<text text-anchor="middle" x="177.1038" y="-89.8156" font-family="Times,serif" font-size="14.00" fill="#000000">→ SEQ</text>
</g>
<!-- s7&#45;&gt;s8 -->
<g id="edge3" class="edge">
<title>s7:p0&#45;&gt;s8</title>
<path fill="none" stroke="#000000" d="M101.5996,-79.4156C114.1251,-79.4156 127.3319,-82.3479 139.1366,-86.1184"/>
<polygon fill="#000000" stroke="#000000" points="138.0823,-89.4573 148.6771,-89.4369 140.382,-82.8458 138.0823,-89.4573"/>
</g>
<!-- s11 -->
<g id="node5" class="node">
<title>s11</title>
<polygon fill="none" stroke="#000000" points="144.5996,-16.6156 144.5996,-58.2156 209.608,-58.2156 209.608,-16.6156 144.5996,-16.6156"/>
<text text-anchor="middle" x="177.1038" y="-41.6156" font-family="Times,serif" font-size="14.00" fill="#000000">s11</text>
<text text-anchor="middle" x="177.1038" y="-24.8156" font-family="Times,serif" font-size="14.00" fill="#000000">→ PREC</text>
</g>
<!-- s7&#45;&gt;s11 -->
<g id="edge5" class="edge">
<title>s7:p1&#45;&gt;s11</title>
<path fill="none" stroke="#000000" d="M101.5996,-55.4156C112.4244,-55.4156 123.89,-53.6434 134.5285,-51.2111"/>
<polygon fill="#000000" stroke="#000000" points="135.5873,-54.5537 144.4269,-48.7131 133.8745,-47.7665 135.5873,-54.5537"/>
<text text-anchor="middle" x="123.0996" y="-58.6156" font-family="Times,serif" font-size="14.00" fill="#000000">1</text>
</g>
<!-- s9 -->
<g id="node3" class="node">
<title>s9</title>
<g id="a_node3"><a xlink:href="rust-grammar.json._expression.dot.svg" xlink:title="s9 SYMBOL\n_expression">
<ellipse fill="none" stroke="#000000" cx="386.5924" cy="-106.4156" rx="63.6674" ry="29.3315"/>
<text text-anchor="middle" x="386.5924" y="-110.6156" font-family="Times,serif" font-size="14.00" fill="#000000">s9 SYMBOL</text>
<text text-anchor="middle" x="386.5924" y="-93.8156" font-family="Times,serif" font-size="14.00" fill="#000000">_expression</text>
</a>
</g>
</g>
<!-- s8&#45;&gt;s9 -->
<g id="edge1" class="edge">
<title>s8&#45;&gt;s9</title>
<path fill="none" stroke="#000000" d="M205.3564,-102.9551C232.7151,-103.4775 275.3823,-104.2922 312.4463,-104.9999"/>
<polygon fill="#000000" stroke="#000000" points="312.6692,-108.5047 322.7343,-105.1963 312.8029,-101.506 312.6692,-108.5047"/>
</g>
<!-- s10 -->
<g id="node4" class="node">
<title>s10</title>
<ellipse fill="none" stroke="#000000" cx="626.8559" cy="-106.4156" rx="63.059" ry="29.3315"/>
<text text-anchor="middle" x="626.8559" y="-110.6156" font-family="Times,serif" font-size="14.00" fill="#000000">s10 STRING</text>
<text text-anchor="middle" x="626.8559" y="-93.8156" font-family="Times,serif" font-size="14.00" fill="#000000">&quot;;&quot;</text>
</g>
<!-- s9&#45;&gt;s10 -->
<g id="edge2" class="edge">
<title>s9&#45;&gt;s10</title>
<path fill="none" stroke="#000000" d="M450.663,-106.4156C482.1477,-106.4156 520.2551,-106.4156 552.965,-106.4156"/>
<polygon fill="#000000" stroke="#000000" points="553.3802,-109.9157 563.3802,-106.4156 553.3801,-102.9157 553.3802,-109.9157"/>
</g>
<!-- s12 -->
<g id="node6" class="node">
<title>s12</title>
<g id="a_node6"><a xlink:href="rust-grammar.json._expression_ending_with_block.dot.svg" xlink:title="s12 SYMBOL\n_expression_ending_with_block">
<ellipse fill="none" stroke="#000000" cx="386.5924" cy="-29.4156" rx="139.9687" ry="29.3315"/>
<text text-anchor="middle" x="386.5924" y="-33.6156" font-family="Times,serif" font-size="14.00" fill="#000000">s12 SYMBOL</text>
<text text-anchor="middle" x="386.5924" y="-16.8156" font-family="Times,serif" font-size="14.00" fill="#000000">_expression_ending_with_block</text>
</a>
</g>
</g>
<!-- s11&#45;&gt;s12 -->
<g id="edge4" class="edge">
<title>s11&#45;&gt;s12</title>
<path fill="none" stroke="#000000" d="M209.8364,-36.1656C218.2953,-35.8426 227.9687,-35.4732 238.3335,-35.0774"/>
<polygon fill="#000000" stroke="#000000" points="238.6065,-38.5696 248.4656,-34.6905 238.3393,-31.5747 238.6065,-38.5696"/>
</g>
</g>
</svg>
