<?xml version="1.0" encoding="UTF-8" standalone="no"?>
<!DOCTYPE svg PUBLIC "-//W3C//DTD SVG 1.1//EN"
 "http://www.w3.org/Graphics/SVG/1.1/DTD/svg11.dtd">
<!-- Generated by graphviz version 2.40.1 (20161225.0304)
 -->
<!-- Title: impl_item Pages: 1 -->
<svg width="2926pt" height="172pt"
 viewBox="0.00 0.00 2925.68 171.83" xmlns="http://www.w3.org/2000/svg" xmlns:xlink="http://www.w3.org/1999/xlink">
<g id="graph0" class="graph" transform="scale(1 1) rotate(0) translate(4 167.8313)">
<title>impl_item</title>
<polygon fill="#ffffff" stroke="transparent" points="-4,4 -4,-167.8313 2921.6772,-167.8313 2921.6772,4 -4,4"/>
<!-- s534 -->
<g id="node1" class="node">
<title>s534</title>
<polygon fill="none" stroke="#000000" points="0,-46.6156 0,-88.2156 56.4418,-88.2156 56.4418,-46.6156 0,-46.6156"/>
<text text-anchor="middle" x="28.2209" y="-71.6156" font-family="Times,serif" font-size="14.00" fill="#000000">s534</text>
<text text-anchor="middle" x="28.2209" y="-54.8156" font-family="Times,serif" font-size="14.00" fill="#000000">→ SEQ</text>
</g>
<!-- s535 -->
<g id="node2" class="node">
<title>s535</title>
<polygon fill="none" stroke="#000000" points="93.4418,-42.6156 93.4418,-92.2156 195.0414,-92.2156 195.0414,-42.6156 93.4418,-42.6156"/>
<text text-anchor="middle" x="134.4916" y="-71.6156" font-family="Times,serif" font-size="14.00" fill="#000000">s535</text>
<text text-anchor="middle" x="134.4916" y="-54.8156" font-family="Times,serif" font-size="14.00" fill="#000000">→ CHOICE</text>
<polyline fill="none" stroke="#000000" points="175.5414,-42.6156 175.5414,-92.2156 "/>
<text text-anchor="middle" x="185.2914" y="-75.6156" font-family="Times,serif" font-size="14.00" fill="#000000"> </text>
<polyline fill="none" stroke="#000000" points="175.5414,-67.4156 195.0414,-67.4156 "/>
<text text-anchor="middle" x="185.2914" y="-50.8156" font-family="Times,serif" font-size="14.00" fill="#000000"> </text>
</g>
<!-- s534&#45;&gt;s535 -->
<g id="edge3" class="edge">
<title>s534&#45;&gt;s535</title>
<path fill="none" stroke="#000000" d="M56.6028,-67.4156C64.6824,-67.4156 73.8102,-67.4156 83.0459,-67.4156"/>
<polygon fill="#000000" stroke="#000000" points="83.0657,-70.9157 93.0657,-67.4156 83.0656,-63.9157 83.0657,-70.9157"/>
</g>
<!-- s536 -->
<g id="node3" class="node">
<title>s536</title>
<ellipse fill="none" stroke="#000000" cx="335.8047" cy="-106.4156" rx="68.4585" ry="29.3315"/>
<text text-anchor="middle" x="335.8047" y="-110.6156" font-family="Times,serif" font-size="14.00" fill="#000000">s536 STRING</text>
<text text-anchor="middle" x="335.8047" y="-93.8156" font-family="Times,serif" font-size="14.00" fill="#000000">&quot;unsafe&quot;</text>
</g>
<!-- s535&#45;&gt;s536 -->
<g id="edge1" class="edge">
<title>s535:p0&#45;&gt;s536</title>
<path fill="none" stroke="#000000" d="M195.0414,-79.4156C219.21,-79.4156 245.3017,-83.3022 268.3783,-88.1261"/>
<polygon fill="#000000" stroke="#000000" points="267.892,-91.6025 278.4089,-90.3197 269.3876,-84.7641 267.892,-91.6025"/>
<text text-anchor="middle" x="231.3086" y="-87.6156" font-family="Times,serif" font-size="14.00" fill="#000000">unsafe</text>
</g>
<!-- s537 -->
<g id="node4" class="node">
<title>s537</title>
<ellipse fill="none" stroke="#000000" cx="335.8047" cy="-29.4156" rx="45.3054" ry="29.3315"/>
<text text-anchor="middle" x="335.8047" y="-33.6156" font-family="Times,serif" font-size="14.00" fill="#000000">s537 </text>
<text text-anchor="middle" x="335.8047" y="-16.8156" font-family="Times,serif" font-size="14.00" fill="#000000">BLANK</text>
</g>
<!-- s535&#45;&gt;s537 -->
<g id="edge2" class="edge">
<title>s535:p1&#45;&gt;s537</title>
<path fill="none" stroke="#000000" d="M195.0414,-55.4156C224.9005,-55.4156 257.7386,-49.6884 284.1821,-43.61"/>
<polygon fill="#000000" stroke="#000000" points="285.0678,-46.997 293.9842,-41.2744 283.4453,-40.1876 285.0678,-46.997"/>
</g>
<!-- s538 -->
<g id="node5" class="node">
<title>s538</title>
<ellipse fill="none" stroke="#000000" cx="509.2624" cy="-67.4156" rx="68.4585" ry="29.3315"/>
<text text-anchor="middle" x="509.2624" y="-71.6156" font-family="Times,serif" font-size="14.00" fill="#000000">s538 STRING</text>
<text text-anchor="middle" x="509.2624" y="-54.8156" font-family="Times,serif" font-size="14.00" fill="#000000">&quot;impl&quot;</text>
</g>
<!-- s536&#45;&gt;s538 -->
<g id="edge4" class="edge">
<title>s536&#45;&gt;s538</title>
<path fill="none" stroke="#000000" d="M396.4718,-92.7753C410.0721,-89.7175 424.615,-86.4477 438.5825,-83.3072"/>
<polygon fill="#000000" stroke="#000000" points="439.6409,-86.6567 448.6296,-81.0482 438.1053,-79.8272 439.6409,-86.6567"/>
</g>
<!-- s537&#45;&gt;s538 -->
<g id="edge5" class="edge">
<title>s537&#45;&gt;s538</title>
<path fill="none" stroke="#000000" d="M379.1279,-38.9066C396.9832,-42.8182 418.1455,-47.4543 438.1596,-51.8389"/>
<polygon fill="#000000" stroke="#000000" points="437.6666,-55.3138 448.184,-54.035 439.1646,-48.476 437.6666,-55.3138"/>
</g>
<!-- s539 -->
<g id="node6" class="node">
<title>s539</title>
<polygon fill="none" stroke="#000000" points="614.4913,-42.6156 614.4913,-92.2156 716.0909,-92.2156 716.0909,-42.6156 614.4913,-42.6156"/>
<text text-anchor="middle" x="655.5411" y="-71.6156" font-family="Times,serif" font-size="14.00" fill="#000000">s539</text>
<text text-anchor="middle" x="655.5411" y="-54.8156" font-family="Times,serif" font-size="14.00" fill="#000000">→ CHOICE</text>
<polyline fill="none" stroke="#000000" points="696.5909,-42.6156 696.5909,-92.2156 "/>
<text text-anchor="middle" x="706.3409" y="-75.6156" font-family="Times,serif" font-size="14.00" fill="#000000"> </text>
<polyline fill="none" stroke="#000000" points="696.5909,-67.4156 716.0909,-67.4156 "/>
<text text-anchor="middle" x="706.3409" y="-50.8156" font-family="Times,serif" font-size="14.00" fill="#000000"> </text>
</g>
<!-- s538&#45;&gt;s539 -->
<g id="edge8" class="edge">
<title>s538&#45;&gt;s539</title>
<path fill="none" stroke="#000000" d="M577.6989,-67.4156C586.5266,-67.4156 595.5205,-67.4156 604.2191,-67.4156"/>
<polygon fill="#000000" stroke="#000000" points="604.2673,-70.9157 614.2673,-67.4156 604.2672,-63.9157 604.2673,-70.9157"/>
</g>
<!-- s540 -->
<g id="node7" class="node">
<title>s540</title>
<g id="a_node7"><a xlink:href="rust-grammar.json.type_parameters.dot.svg" xlink:title="s540 SYMBOL\ntype_parameters">
<ellipse fill="none" stroke="#000000" cx="921.3301" cy="-106.4156" rx="76.9578" ry="29.3315"/>
<text text-anchor="middle" x="921.3301" y="-110.6156" font-family="Times,serif" font-size="14.00" fill="#000000">s540 SYMBOL</text>
<text text-anchor="middle" x="921.3301" y="-93.8156" font-family="Times,serif" font-size="14.00" fill="#000000">type_parameters</text>
</a>
</g>
</g>
<!-- s539&#45;&gt;s540 -->
<g id="edge6" class="edge">
<title>s539:p0&#45;&gt;s540</title>
<path fill="none" stroke="#000000" d="M716.0909,-79.4156C758.154,-79.4156 804.6553,-85.0593 842.7443,-91.1861"/>
<polygon fill="#000000" stroke="#000000" points="842.3082,-94.6614 852.7447,-92.8365 843.4481,-87.7549 842.3082,-94.6614"/>
<text text-anchor="middle" x="780.3462" y="-91.6156" font-family="Times,serif" font-size="14.00" fill="#000000">type_parameters</text>
</g>
<!-- s541 -->
<g id="node8" class="node">
<title>s541</title>
<ellipse fill="none" stroke="#000000" cx="921.3301" cy="-29.4156" rx="45.3054" ry="29.3315"/>
<text text-anchor="middle" x="921.3301" y="-33.6156" font-family="Times,serif" font-size="14.00" fill="#000000">s541 </text>
<text text-anchor="middle" x="921.3301" y="-16.8156" font-family="Times,serif" font-size="14.00" fill="#000000">BLANK</text>
</g>
<!-- s539&#45;&gt;s541 -->
<g id="edge7" class="edge">
<title>s539:p1&#45;&gt;s541</title>
<path fill="none" stroke="#000000" d="M716.0909,-55.4156C768.0188,-55.4156 826.7552,-47.1228 868.047,-39.904"/>
<polygon fill="#000000" stroke="#000000" points="868.6627,-43.3495 877.8914,-38.1456 867.4318,-36.4586 868.6627,-43.3495"/>
</g>
<!-- s542 -->
<g id="node9" class="node">
<title>s542</title>
<polygon fill="none" stroke="#000000" points="1035.0587,-49.6156 1035.0587,-99.2156 1136.6583,-99.2156 1136.6583,-49.6156 1035.0587,-49.6156"/>
<text text-anchor="middle" x="1076.1085" y="-78.6156" font-family="Times,serif" font-size="14.00" fill="#000000">s542</text>
<text text-anchor="middle" x="1076.1085" y="-61.8156" font-family="Times,serif" font-size="14.00" fill="#000000">→ CHOICE</text>
<polyline fill="none" stroke="#000000" points="1117.1583,-49.6156 1117.1583,-99.2156 "/>
<text text-anchor="middle" x="1126.9083" y="-82.6156" font-family="Times,serif" font-size="14.00" fill="#000000"> </text>
<polyline fill="none" stroke="#000000" points="1117.1583,-74.4156 1136.6583,-74.4156 "/>
<text text-anchor="middle" x="1126.9083" y="-57.8156" font-family="Times,serif" font-size="14.00" fill="#000000"> </text>
</g>
<!-- s540&#45;&gt;s542 -->
<g id="edge11" class="edge">
<title>s540&#45;&gt;s542</title>
<path fill="none" stroke="#000000" d="M990.1516,-93.0302C1001.6128,-90.801 1013.4317,-88.5023 1024.6859,-86.3134"/>
<polygon fill="#000000" stroke="#000000" points="1025.6883,-89.6841 1034.8361,-84.3393 1024.3518,-82.8129 1025.6883,-89.6841"/>
</g>
<!-- s541&#45;&gt;s542 -->
<g id="edge12" class="edge">
<title>s541&#45;&gt;s542</title>
<path fill="none" stroke="#000000" d="M963.2732,-40.8875C982.0096,-46.012 1004.4532,-52.1506 1024.9862,-57.7665"/>
<polygon fill="#000000" stroke="#000000" points="1024.3188,-61.2125 1034.8879,-60.4747 1026.1656,-54.4605 1024.3188,-61.2125"/>
</g>
<!-- s543 -->
<g id="node10" class="node">
<title>s543</title>
<g id="a_node10"><a xlink:href="rust-grammar.json._type_identifier.dot.svg" xlink:title="s543 SYMBOL\n_type_identifier">
<ellipse fill="none" stroke="#000000" cx="1402.9798" cy="-113.4156" rx="74.5836" ry="29.3315"/>
<text text-anchor="middle" x="1402.9798" y="-117.6156" font-family="Times,serif" font-size="14.00" fill="#000000">s543 SYMBOL</text>
<text text-anchor="middle" x="1402.9798" y="-100.8156" font-family="Times,serif" font-size="14.00" fill="#000000">_type_identifier</text>
</a>
</g>
</g>
<!-- s542&#45;&gt;s543 -->
<g id="edge9" class="edge">
<title>s542:p0&#45;&gt;s543</title>
<path fill="none" stroke="#000000" d="M1136.6583,-86.4156C1199.7463,-86.4156 1270.8141,-94.0079 1323.6586,-101.1404"/>
<polygon fill="#000000" stroke="#000000" points="1323.2586,-104.6182 1333.6419,-102.5115 1324.2111,-97.6833 1323.2586,-104.6182"/>
<text text-anchor="middle" x="1218.8042" y="-99.6156" font-family="Times,serif" font-size="14.00" fill="#000000">_type_identifier</text>
</g>
<!-- s544 -->
<g id="node11" class="node">
<title>s544</title>
<g id="a_node11"><a xlink:href="rust-grammar.json.scoped_type_identifier.dot.svg" xlink:title="s544 SYMBOL\nscoped_type_identifier">
<ellipse fill="none" stroke="#000000" cx="1402.9798" cy="-36.4156" rx="102.0594" ry="29.3315"/>
<text text-anchor="middle" x="1402.9798" y="-40.6156" font-family="Times,serif" font-size="14.00" fill="#000000">s544 SYMBOL</text>
<text text-anchor="middle" x="1402.9798" y="-23.8156" font-family="Times,serif" font-size="14.00" fill="#000000">scoped_type_identifier</text>
</a>
</g>
</g>
<!-- s542&#45;&gt;s544 -->
<g id="edge10" class="edge">
<title>s542:p1&#45;&gt;s544</title>
<path fill="none" stroke="#000000" d="M1136.6583,-62.4156C1191.4203,-62.4156 1252.2179,-56.9029 1301.8817,-50.9543"/>
<polygon fill="#000000" stroke="#000000" points="1302.4803,-54.4073 1311.982,-49.7203 1301.6314,-47.459 1302.4803,-54.4073"/>
<text text-anchor="middle" x="1218.8042" y="-65.6156" font-family="Times,serif" font-size="14.00" fill="#000000">scoped_type_identifier</text>
</g>
<!-- s545 -->
<g id="node12" class="node">
<title>s545</title>
<polygon fill="none" stroke="#000000" points="1542.0095,-56.6156 1542.0095,-106.2156 1643.6091,-106.2156 1643.6091,-56.6156 1542.0095,-56.6156"/>
<text text-anchor="middle" x="1583.0593" y="-85.6156" font-family="Times,serif" font-size="14.00" fill="#000000">s545</text>
<text text-anchor="middle" x="1583.0593" y="-68.8156" font-family="Times,serif" font-size="14.00" fill="#000000">→ CHOICE</text>
<polyline fill="none" stroke="#000000" points="1624.1091,-56.6156 1624.1091,-106.2156 "/>
<text text-anchor="middle" x="1633.8591" y="-89.6156" font-family="Times,serif" font-size="14.00" fill="#000000"> </text>
<polyline fill="none" stroke="#000000" points="1624.1091,-81.4156 1643.6091,-81.4156 "/>
<text text-anchor="middle" x="1633.8591" y="-64.8156" font-family="Times,serif" font-size="14.00" fill="#000000"> </text>
</g>
<!-- s543&#45;&gt;s545 -->
<g id="edge15" class="edge">
<title>s543&#45;&gt;s545</title>
<path fill="none" stroke="#000000" d="M1471.781,-101.8177C1491.3881,-98.5124 1512.6074,-94.9355 1531.721,-91.7134"/>
<polygon fill="#000000" stroke="#000000" points="1532.5219,-95.1279 1541.801,-90.0142 1531.3583,-88.2253 1532.5219,-95.1279"/>
</g>
<!-- s544&#45;&gt;s545 -->
<g id="edge16" class="edge">
<title>s544&#45;&gt;s545</title>
<path fill="none" stroke="#000000" d="M1481.8354,-55.1088C1498.6226,-59.0882 1516.1001,-63.2314 1532.0844,-67.0205"/>
<polygon fill="#000000" stroke="#000000" points="1531.2867,-70.4283 1541.8244,-69.3294 1532.9014,-63.6171 1531.2867,-70.4283"/>
</g>
<!-- s546 -->
<g id="node13" class="node">
<title>s546</title>
<g id="a_node13"><a xlink:href="rust-grammar.json.type_arguments.dot.svg" xlink:title="s546 SYMBOL\ntype_arguments">
<ellipse fill="none" stroke="#000000" cx="1843.5736" cy="-120.4156" rx="74.5876" ry="29.3315"/>
<text text-anchor="middle" x="1843.5736" y="-124.6156" font-family="Times,serif" font-size="14.00" fill="#000000">s546 SYMBOL</text>
<text text-anchor="middle" x="1843.5736" y="-107.8156" font-family="Times,serif" font-size="14.00" fill="#000000">type_arguments</text>
</a>
</g>
</g>
<!-- s545&#45;&gt;s546 -->
<g id="edge13" class="edge">
<title>s545:p0&#45;&gt;s546</title>
<path fill="none" stroke="#000000" d="M1643.6091,-93.4156C1684.5955,-93.4156 1729.8859,-99.0553 1766.985,-105.1797"/>
<polygon fill="#000000" stroke="#000000" points="1766.7768,-108.6943 1777.2212,-106.9156 1767.9472,-101.7928 1766.7768,-108.6943"/>
<text text-anchor="middle" x="1706.3195" y="-105.6156" font-family="Times,serif" font-size="14.00" fill="#000000">type_arguments</text>
</g>
<!-- s547 -->
<g id="node14" class="node">
<title>s547</title>
<ellipse fill="none" stroke="#000000" cx="1843.5736" cy="-43.4156" rx="45.3054" ry="29.3315"/>
<text text-anchor="middle" x="1843.5736" y="-47.6156" font-family="Times,serif" font-size="14.00" fill="#000000">s547 </text>
<text text-anchor="middle" x="1843.5736" y="-30.8156" font-family="Times,serif" font-size="14.00" fill="#000000">BLANK</text>
</g>
<!-- s545&#45;&gt;s547 -->
<g id="edge14" class="edge">
<title>s545:p1&#45;&gt;s547</title>
<path fill="none" stroke="#000000" d="M1643.6091,-69.4156C1693.6327,-69.4156 1750.1122,-61.3153 1790.2558,-54.1574"/>
<polygon fill="#000000" stroke="#000000" points="1790.886,-57.6003 1800.096,-52.3634 1789.6304,-50.7138 1790.886,-57.6003"/>
</g>
<!-- s548 -->
<g id="node15" class="node">
<title>s548</title>
<polygon fill="none" stroke="#000000" points="1955.1174,-63.6156 1955.1174,-113.2156 2056.717,-113.2156 2056.717,-63.6156 1955.1174,-63.6156"/>
<text text-anchor="middle" x="1996.1672" y="-92.6156" font-family="Times,serif" font-size="14.00" fill="#000000">s548</text>
<text text-anchor="middle" x="1996.1672" y="-75.8156" font-family="Times,serif" font-size="14.00" fill="#000000">→ CHOICE</text>
<polyline fill="none" stroke="#000000" points="2037.217,-63.6156 2037.217,-113.2156 "/>
<text text-anchor="middle" x="2046.967" y="-96.6156" font-family="Times,serif" font-size="14.00" fill="#000000"> </text>
<polyline fill="none" stroke="#000000" points="2037.217,-88.4156 2056.717,-88.4156 "/>
<text text-anchor="middle" x="2046.967" y="-71.8156" font-family="Times,serif" font-size="14.00" fill="#000000"> </text>
</g>
<!-- s546&#45;&gt;s548 -->
<g id="edge19" class="edge">
<title>s546&#45;&gt;s548</title>
<path fill="none" stroke="#000000" d="M1910.5423,-107.2153C1921.9104,-104.9745 1933.6622,-102.658 1944.868,-100.4492"/>
<polygon fill="#000000" stroke="#000000" points="1945.8444,-103.8242 1954.9787,-98.4563 1944.4906,-96.9563 1945.8444,-103.8242"/>
</g>
<!-- s547&#45;&gt;s548 -->
<g id="edge20" class="edge">
<title>s547&#45;&gt;s548</title>
<path fill="none" stroke="#000000" d="M1885.3811,-55.0043C1903.5446,-60.039 1925.1778,-66.0355 1945.0704,-71.5495"/>
<polygon fill="#000000" stroke="#000000" points="1944.4072,-74.9976 1954.9787,-74.296 1946.277,-68.2519 1944.4072,-74.9976"/>
</g>
<!-- s549 -->
<g id="node16" class="node">
<title>s549</title>
<g id="a_node16"><a xlink:href="rust-grammar.json.impl_for_clause.dot.svg" xlink:title="s549 SYMBOL\nimpl_for_clause">
<ellipse fill="none" stroke="#000000" cx="2259.3296" cy="-127.4156" rx="75.7815" ry="29.3315"/>
<text text-anchor="middle" x="2259.3296" y="-131.6156" font-family="Times,serif" font-size="14.00" fill="#000000">s549 SYMBOL</text>
<text text-anchor="middle" x="2259.3296" y="-114.8156" font-family="Times,serif" font-size="14.00" fill="#000000">impl_for_clause</text>
</a>
</g>
</g>
<!-- s548&#45;&gt;s549 -->
<g id="edge17" class="edge">
<title>s548:p0&#45;&gt;s549</title>
<path fill="none" stroke="#000000" d="M2056.717,-100.4156C2098.4139,-100.4156 2144.5181,-106.1036 2182.1997,-112.2582"/>
<polygon fill="#000000" stroke="#000000" points="2181.6497,-115.7148 2192.0906,-113.9156 2182.8066,-108.811 2181.6497,-115.7148"/>
<text text-anchor="middle" x="2120.203" y="-112.6156" font-family="Times,serif" font-size="14.00" fill="#000000">impl_for_clause</text>
</g>
<!-- s550 -->
<g id="node17" class="node">
<title>s550</title>
<ellipse fill="none" stroke="#000000" cx="2259.3296" cy="-50.4156" rx="45.3054" ry="29.3315"/>
<text text-anchor="middle" x="2259.3296" y="-54.6156" font-family="Times,serif" font-size="14.00" fill="#000000">s550 </text>
<text text-anchor="middle" x="2259.3296" y="-37.8156" font-family="Times,serif" font-size="14.00" fill="#000000">BLANK</text>
</g>
<!-- s548&#45;&gt;s550 -->
<g id="edge18" class="edge">
<title>s548:p1&#45;&gt;s550</title>
<path fill="none" stroke="#000000" d="M2056.717,-76.4156C2107.5555,-76.4156 2164.9901,-68.263 2205.6925,-61.0881"/>
<polygon fill="#000000" stroke="#000000" points="2206.4453,-64.5089 2215.6659,-59.2906 2205.2036,-57.6199 2206.4453,-64.5089"/>
</g>
<!-- s551 -->
<g id="node18" class="node">
<title>s551</title>
<polygon fill="none" stroke="#000000" points="2371.9703,-70.6156 2371.9703,-120.2156 2473.5699,-120.2156 2473.5699,-70.6156 2371.9703,-70.6156"/>
<text text-anchor="middle" x="2413.0201" y="-99.6156" font-family="Times,serif" font-size="14.00" fill="#000000">s551</text>
<text text-anchor="middle" x="2413.0201" y="-82.8156" font-family="Times,serif" font-size="14.00" fill="#000000">→ CHOICE</text>
<polyline fill="none" stroke="#000000" points="2454.0699,-70.6156 2454.0699,-120.2156 "/>
<text text-anchor="middle" x="2463.8199" y="-103.6156" font-family="Times,serif" font-size="14.00" fill="#000000"> </text>
<polyline fill="none" stroke="#000000" points="2454.0699,-95.4156 2473.5699,-95.4156 "/>
<text text-anchor="middle" x="2463.8199" y="-78.8156" font-family="Times,serif" font-size="14.00" fill="#000000"> </text>
</g>
<!-- s549&#45;&gt;s551 -->
<g id="edge23" class="edge">
<title>s549&#45;&gt;s551</title>
<path fill="none" stroke="#000000" d="M2327.2232,-114.1228C2338.6386,-111.8877 2350.4247,-109.5801 2361.6553,-107.3813"/>
<polygon fill="#000000" stroke="#000000" points="2362.6453,-110.754 2371.7865,-105.3977 2361.3003,-103.8844 2362.6453,-110.754"/>
</g>
<!-- s550&#45;&gt;s551 -->
<g id="edge24" class="edge">
<title>s550&#45;&gt;s551</title>
<path fill="none" stroke="#000000" d="M2301.4196,-62.0043C2319.8706,-67.0844 2341.8779,-73.1436 2362.0531,-78.6985"/>
<polygon fill="#000000" stroke="#000000" points="2361.2161,-82.0982 2371.7865,-81.3783 2363.0743,-75.3493 2361.2161,-82.0982"/>
</g>
<!-- s552 -->
<g id="node19" class="node">
<title>s552</title>
<g id="a_node19"><a xlink:href="rust-grammar.json.where_clause.dot.svg" xlink:title="s552 SYMBOL\nwhere_clause">
<ellipse fill="none" stroke="#000000" cx="2659.4783" cy="-134.4156" rx="73.9667" ry="29.3315"/>
<text text-anchor="middle" x="2659.4783" y="-138.6156" font-family="Times,serif" font-size="14.00" fill="#000000">s552 SYMBOL</text>
<text text-anchor="middle" x="2659.4783" y="-121.8156" font-family="Times,serif" font-size="14.00" fill="#000000">where_clause</text>
</a>
</g>
</g>
<!-- s551&#45;&gt;s552 -->
<g id="edge21" class="edge">
<title>s551:p0&#45;&gt;s552</title>
<path fill="none" stroke="#000000" d="M2473.5699,-107.4156C2510.2203,-107.4156 2550.5169,-112.6183 2584.1965,-118.456"/>
<polygon fill="#000000" stroke="#000000" points="2583.9653,-121.97 2594.4249,-120.283 2585.1962,-115.0791 2583.9653,-121.97"/>
<text text-anchor="middle" x="2529.6576" y="-118.6156" font-family="Times,serif" font-size="14.00" fill="#000000">where_clause</text>
</g>
<!-- s553 -->
<g id="node20" class="node">
<title>s553</title>
<ellipse fill="none" stroke="#000000" cx="2659.4783" cy="-57.4156" rx="45.3054" ry="29.3315"/>
<text text-anchor="middle" x="2659.4783" y="-61.6156" font-family="Times,serif" font-size="14.00" fill="#000000">s553 </text>
<text text-anchor="middle" x="2659.4783" y="-44.8156" font-family="Times,serif" font-size="14.00" fill="#000000">BLANK</text>
</g>
<!-- s551&#45;&gt;s553 -->
<g id="edge22" class="edge">
<title>s551:p1&#45;&gt;s553</title>
<path fill="none" stroke="#000000" d="M2473.5699,-83.4156C2518.5515,-83.4156 2569.0703,-75.8578 2606.0798,-68.8918"/>
<polygon fill="#000000" stroke="#000000" points="2606.9888,-72.281 2616.1444,-66.9494 2605.6623,-65.4078 2606.9888,-72.281"/>
</g>
<!-- s554 -->
<g id="node21" class="node">
<title>s554</title>
<g id="a_node21"><a xlink:href="rust-grammar.json.declaration_list.dot.svg" xlink:title="s554 SYMBOL\ndeclaration_list">
<ellipse fill="none" stroke="#000000" cx="2843.9442" cy="-95.4156" rx="73.9667" ry="29.3315"/>
<text text-anchor="middle" x="2843.9442" y="-99.6156" font-family="Times,serif" font-size="14.00" fill="#000000">s554 SYMBOL</text>
<text text-anchor="middle" x="2843.9442" y="-82.8156" font-family="Times,serif" font-size="14.00" fill="#000000">declaration_list</text>
</a>
</g>
</g>
<!-- s552&#45;&gt;s554 -->
<g id="edge25" class="edge">
<title>s552&#45;&gt;s554</title>
<path fill="none" stroke="#000000" d="M2724.7737,-120.6108C2739.0051,-117.602 2754.1745,-114.3949 2768.7551,-111.3122"/>
<polygon fill="#000000" stroke="#000000" points="2769.6768,-114.6948 2778.7366,-109.2019 2768.2288,-107.8462 2769.6768,-114.6948"/>
</g>
<!-- s553&#45;&gt;s554 -->
<g id="edge26" class="edge">
<title>s553&#45;&gt;s554</title>
<path fill="none" stroke="#000000" d="M2703.1941,-66.4211C2722.5963,-70.418 2746.0027,-75.2397 2768.1104,-79.7939"/>
<polygon fill="#000000" stroke="#000000" points="2767.6569,-83.2739 2778.1575,-81.8636 2769.0693,-76.4178 2767.6569,-83.2739"/>
</g>
</g>
</svg>
