<?xml version="1.0" encoding="UTF-8" standalone="no"?>
<!DOCTYPE svg PUBLIC "-//W3C//DTD SVG 1.1//EN"
 "http://www.w3.org/Graphics/SVG/1.1/DTD/svg11.dtd">
<!-- Generated by graphviz version 2.40.1 (20161225.0304)
 -->
<!-- Title: type_arguments Pages: 1 -->
<svg width="1593pt" height="294pt"
 viewBox="0.00 0.00 1592.54 293.83" xmlns="http://www.w3.org/2000/svg" xmlns:xlink="http://www.w3.org/1999/xlink">
<g id="graph0" class="graph" transform="scale(1 1) rotate(0) translate(4 289.8313)">
<title>type_arguments</title>
<polygon fill="#ffffff" stroke="transparent" points="-4,4 -4,-289.8313 1588.5444,-289.8313 1588.5444,4 -4,4"/>
<!-- s868 -->
<g id="node1" class="node">
<title>s868</title>
<polygon fill="none" stroke="#000000" points="0,-142.6156 0,-184.2156 56.4418,-184.2156 56.4418,-142.6156 0,-142.6156"/>
<text text-anchor="middle" x="28.2209" y="-167.6156" font-family="Times,serif" font-size="14.00" fill="#000000">s868</text>
<text text-anchor="middle" x="28.2209" y="-150.8156" font-family="Times,serif" font-size="14.00" fill="#000000">→ SEQ</text>
</g>
<!-- s869 -->
<g id="node2" class="node">
<title>s869</title>
<ellipse fill="none" stroke="#000000" cx="161.6707" cy="-163.4156" rx="68.4585" ry="29.3315"/>
<text text-anchor="middle" x="161.6707" y="-167.6156" font-family="Times,serif" font-size="14.00" fill="#000000">s869 STRING</text>
<text text-anchor="middle" x="161.6707" y="-150.8156" font-family="Times,serif" font-size="14.00" fill="#000000">&quot;&lt;&quot;</text>
</g>
<!-- s868&#45;&gt;s869 -->
<g id="edge1" class="edge">
<title>s868&#45;&gt;s869</title>
<path fill="none" stroke="#000000" d="M56.5222,-163.4156C64.5856,-163.4156 73.7846,-163.4156 83.3101,-163.4156"/>
<polygon fill="#000000" stroke="#000000" points="83.321,-166.9157 93.321,-163.4156 83.3209,-159.9157 83.321,-166.9157"/>
</g>
<!-- s870 -->
<g id="node3" class="node">
<title>s870</title>
<polygon fill="none" stroke="#000000" points="266.8995,-142.6156 266.8995,-184.2156 323.3413,-184.2156 323.3413,-142.6156 266.8995,-142.6156"/>
<text text-anchor="middle" x="295.1204" y="-167.6156" font-family="Times,serif" font-size="14.00" fill="#000000">s870</text>
<text text-anchor="middle" x="295.1204" y="-150.8156" font-family="Times,serif" font-size="14.00" fill="#000000">→ SEQ</text>
</g>
<!-- s869&#45;&gt;s870 -->
<g id="edge16" class="edge">
<title>s869&#45;&gt;s870</title>
<path fill="none" stroke="#000000" d="M229.9593,-163.4156C239.0674,-163.4156 248.1366,-163.4156 256.4876,-163.4156"/>
<polygon fill="#000000" stroke="#000000" points="256.6303,-166.9157 266.6303,-163.4156 256.6302,-159.9157 256.6303,-166.9157"/>
</g>
<!-- s871 -->
<g id="node4" class="node">
<title>s871</title>
<polygon fill="none" stroke="#000000" points="360.3413,-126.2156 360.3413,-200.6156 461.9409,-200.6156 461.9409,-126.2156 360.3413,-126.2156"/>
<text text-anchor="middle" x="401.3911" y="-167.6156" font-family="Times,serif" font-size="14.00" fill="#000000">s871</text>
<text text-anchor="middle" x="401.3911" y="-150.8156" font-family="Times,serif" font-size="14.00" fill="#000000">→ CHOICE</text>
<polyline fill="none" stroke="#000000" points="442.4409,-126.2156 442.4409,-200.6156 "/>
<text text-anchor="middle" x="452.1909" y="-184.0156" font-family="Times,serif" font-size="14.00" fill="#000000"> </text>
<polyline fill="none" stroke="#000000" points="442.4409,-175.8156 461.9409,-175.8156 "/>
<text text-anchor="middle" x="452.1909" y="-159.2156" font-family="Times,serif" font-size="14.00" fill="#000000"> </text>
<polyline fill="none" stroke="#000000" points="442.4409,-151.0156 461.9409,-151.0156 "/>
<text text-anchor="middle" x="452.1909" y="-134.4156" font-family="Times,serif" font-size="14.00" fill="#000000"> </text>
</g>
<!-- s870&#45;&gt;s871 -->
<g id="edge5" class="edge">
<title>s870&#45;&gt;s871</title>
<path fill="none" stroke="#000000" d="M323.5023,-163.4156C331.5819,-163.4156 340.7097,-163.4156 349.9455,-163.4156"/>
<polygon fill="#000000" stroke="#000000" points="349.9652,-166.9157 359.9652,-163.4156 349.9652,-159.9157 349.9652,-166.9157"/>
</g>
<!-- s872 -->
<g id="node5" class="node">
<title>s872</title>
<g id="a_node5"><a xlink:href="rust-grammar.json._type.dot.svg" xlink:title="s872 SYMBOL\n_type">
<ellipse fill="none" stroke="#000000" cx="645.5603" cy="-240.4156" rx="73.9667" ry="29.3315"/>
<text text-anchor="middle" x="645.5603" y="-244.6156" font-family="Times,serif" font-size="14.00" fill="#000000">s872 SYMBOL</text>
<text text-anchor="middle" x="645.5603" y="-227.8156" font-family="Times,serif" font-size="14.00" fill="#000000">_type</text>
</a>
</g>
</g>
<!-- s871&#45;&gt;s872 -->
<g id="edge2" class="edge">
<title>s871:p0&#45;&gt;s872</title>
<path fill="none" stroke="#000000" d="M461.9409,-188.4156C504.6424,-188.4156 550.8882,-201.5956 586.2863,-214.6846"/>
<polygon fill="#000000" stroke="#000000" points="585.3796,-218.0841 595.9708,-218.363 587.8652,-211.5403 585.3796,-218.0841"/>
<text text-anchor="middle" x="516.8841" y="-207.6156" font-family="Times,serif" font-size="14.00" fill="#000000">_type</text>
</g>
<!-- s873 -->
<g id="node6" class="node">
<title>s873</title>
<g id="a_node6"><a xlink:href="rust-grammar.json.type_binding.dot.svg" xlink:title="s873 SYMBOL\ntype_binding">
<ellipse fill="none" stroke="#000000" cx="645.5603" cy="-163.4156" rx="73.9667" ry="29.3315"/>
<text text-anchor="middle" x="645.5603" y="-167.6156" font-family="Times,serif" font-size="14.00" fill="#000000">s873 SYMBOL</text>
<text text-anchor="middle" x="645.5603" y="-150.8156" font-family="Times,serif" font-size="14.00" fill="#000000">type_binding</text>
</a>
</g>
</g>
<!-- s871&#45;&gt;s873 -->
<g id="edge3" class="edge">
<title>s871:p1&#45;&gt;s873</title>
<path fill="none" stroke="#000000" d="M461.9409,-163.4156C494.305,-163.4156 529.8777,-163.4156 561.0241,-163.4156"/>
<polygon fill="#000000" stroke="#000000" points="561.4062,-166.9157 571.4061,-163.4156 561.4061,-159.9157 561.4062,-166.9157"/>
<text text-anchor="middle" x="516.8841" y="-167.6156" font-family="Times,serif" font-size="14.00" fill="#000000">type_binding</text>
</g>
<!-- s874 -->
<g id="node7" class="node">
<title>s874</title>
<g id="a_node7"><a xlink:href="rust-grammar.json.lifetime.dot.svg" xlink:title="s874 SYMBOL\nlifetime">
<ellipse fill="none" stroke="#000000" cx="645.5603" cy="-86.4156" rx="73.9667" ry="29.3315"/>
<text text-anchor="middle" x="645.5603" y="-90.6156" font-family="Times,serif" font-size="14.00" fill="#000000">s874 SYMBOL</text>
<text text-anchor="middle" x="645.5603" y="-73.8156" font-family="Times,serif" font-size="14.00" fill="#000000">lifetime</text>
</a>
</g>
</g>
<!-- s871&#45;&gt;s874 -->
<g id="edge4" class="edge">
<title>s871:p2&#45;&gt;s874</title>
<path fill="none" stroke="#000000" d="M461.9409,-138.4156C504.6424,-138.4156 550.8882,-125.2357 586.2863,-112.1467"/>
<polygon fill="#000000" stroke="#000000" points="587.8652,-115.291 595.9708,-108.4683 585.3796,-108.7471 587.8652,-115.291"/>
<text text-anchor="middle" x="516.8841" y="-141.6156" font-family="Times,serif" font-size="14.00" fill="#000000">lifetime</text>
</g>
<!-- s875 -->
<g id="node8" class="node">
<title>s875</title>
<polygon fill="none" stroke="#000000" points="756.2933,-142.6156 756.2933,-184.2156 839.1769,-184.2156 839.1769,-142.6156 756.2933,-142.6156"/>
<text text-anchor="middle" x="797.7351" y="-167.6156" font-family="Times,serif" font-size="14.00" fill="#000000">s875</text>
<text text-anchor="middle" x="797.7351" y="-150.8156" font-family="Times,serif" font-size="14.00" fill="#000000">→ REPEAT</text>
</g>
<!-- s872&#45;&gt;s875 -->
<g id="edge13" class="edge">
<title>s872&#45;&gt;s875</title>
<path fill="none" stroke="#000000" d="M691.2178,-217.3131C708.8866,-208.3728 729.1764,-198.1062 747.2757,-188.948"/>
<polygon fill="#000000" stroke="#000000" points="749.1727,-191.9107 756.5153,-184.2728 746.0123,-185.6648 749.1727,-191.9107"/>
</g>
<!-- s873&#45;&gt;s875 -->
<g id="edge14" class="edge">
<title>s873&#45;&gt;s875</title>
<path fill="none" stroke="#000000" d="M719.4189,-163.4156C728.3558,-163.4156 737.3337,-163.4156 745.859,-163.4156"/>
<polygon fill="#000000" stroke="#000000" points="746.0002,-166.9157 756.0002,-163.4156 746.0002,-159.9157 746.0002,-166.9157"/>
</g>
<!-- s874&#45;&gt;s875 -->
<g id="edge15" class="edge">
<title>s874&#45;&gt;s875</title>
<path fill="none" stroke="#000000" d="M691.2178,-109.5182C708.8866,-118.4585 729.1764,-128.7251 747.2757,-137.8833"/>
<polygon fill="#000000" stroke="#000000" points="746.0123,-141.1665 756.5153,-142.5585 749.1727,-134.9206 746.0123,-141.1665"/>
</g>
<!-- s876 -->
<g id="node9" class="node">
<title>s876</title>
<polygon fill="none" stroke="#000000" points="898.7558,-195.6156 898.7558,-237.2156 955.1976,-237.2156 955.1976,-195.6156 898.7558,-195.6156"/>
<text text-anchor="middle" x="926.9767" y="-220.6156" font-family="Times,serif" font-size="14.00" fill="#000000">s876</text>
<text text-anchor="middle" x="926.9767" y="-203.8156" font-family="Times,serif" font-size="14.00" fill="#000000">→ SEQ</text>
</g>
<!-- s875&#45;&gt;s876 -->
<g id="edge11" class="edge">
<title>s875&#45;&gt;s876</title>
<path fill="none" stroke="#000000" d="M839.3394,-180.4769C855.3499,-187.0426 873.5288,-194.4974 889.1631,-200.9088"/>
<polygon fill="#000000" stroke="#000000" points="887.9464,-204.1927 898.5267,-204.7487 890.6024,-197.7161 887.9464,-204.1927"/>
</g>
<!-- s882 -->
<g id="node15" class="node">
<title>s882</title>
<polygon fill="none" stroke="#000000" points="876.1769,-69.6156 876.1769,-119.2156 977.7765,-119.2156 977.7765,-69.6156 876.1769,-69.6156"/>
<text text-anchor="middle" x="917.2267" y="-98.6156" font-family="Times,serif" font-size="14.00" fill="#000000">s882</text>
<text text-anchor="middle" x="917.2267" y="-81.8156" font-family="Times,serif" font-size="14.00" fill="#000000">→ CHOICE</text>
<polyline fill="none" stroke="#000000" points="958.2765,-69.6156 958.2765,-119.2156 "/>
<text text-anchor="middle" x="968.0265" y="-102.6156" font-family="Times,serif" font-size="14.00" fill="#000000"> </text>
<polyline fill="none" stroke="#000000" points="958.2765,-94.4156 977.7765,-94.4156 "/>
<text text-anchor="middle" x="968.0265" y="-77.8156" font-family="Times,serif" font-size="14.00" fill="#000000"> </text>
</g>
<!-- s875&#45;&gt;s882 -->
<g id="edge19" class="edge">
<title>s875&#45;&gt;s882</title>
<path fill="none" stroke="#000000" d="M836.8626,-142.5261C847.6493,-136.7673 859.5647,-130.4058 871.1013,-124.2467"/>
<polygon fill="#000000" stroke="#000000" points="873.0702,-127.1631 880.2433,-119.3658 869.7734,-120.988 873.0702,-127.1631"/>
</g>
<!-- s877 -->
<g id="node10" class="node">
<title>s877</title>
<ellipse fill="none" stroke="#000000" cx="1085.5054" cy="-220.4156" rx="68.4585" ry="29.3315"/>
<text text-anchor="middle" x="1085.5054" y="-224.6156" font-family="Times,serif" font-size="14.00" fill="#000000">s877 STRING</text>
<text text-anchor="middle" x="1085.5054" y="-207.8156" font-family="Times,serif" font-size="14.00" fill="#000000">&quot;,&quot;</text>
</g>
<!-- s876&#45;&gt;s877 -->
<g id="edge6" class="edge">
<title>s876&#45;&gt;s877</title>
<path fill="none" stroke="#000000" d="M955.3185,-217.1308C969.8964,-217.4986 988.4595,-217.967 1006.9696,-218.434"/>
<polygon fill="#000000" stroke="#000000" points="1007.1367,-221.9393 1017.2219,-218.6927 1007.3134,-214.9415 1007.1367,-221.9393"/>
</g>
<!-- s878 -->
<g id="node11" class="node">
<title>s878</title>
<polygon fill="none" stroke="#000000" points="1208.1634,-142.2156 1208.1634,-216.6156 1309.763,-216.6156 1309.763,-142.2156 1208.1634,-142.2156"/>
<text text-anchor="middle" x="1249.2132" y="-183.6156" font-family="Times,serif" font-size="14.00" fill="#000000">s878</text>
<text text-anchor="middle" x="1249.2132" y="-166.8156" font-family="Times,serif" font-size="14.00" fill="#000000">→ CHOICE</text>
<polyline fill="none" stroke="#000000" points="1290.263,-142.2156 1290.263,-216.6156 "/>
<text text-anchor="middle" x="1300.013" y="-200.0156" font-family="Times,serif" font-size="14.00" fill="#000000"> </text>
<polyline fill="none" stroke="#000000" points="1290.263,-191.8156 1309.763,-191.8156 "/>
<text text-anchor="middle" x="1300.013" y="-175.2156" font-family="Times,serif" font-size="14.00" fill="#000000"> </text>
<polyline fill="none" stroke="#000000" points="1290.263,-167.0156 1309.763,-167.0156 "/>
<text text-anchor="middle" x="1300.013" y="-150.4156" font-family="Times,serif" font-size="14.00" fill="#000000"> </text>
</g>
<!-- s877&#45;&gt;s878 -->
<g id="edge10" class="edge">
<title>s877&#45;&gt;s878</title>
<path fill="none" stroke="#000000" d="M1145.6857,-206.1909C1162.6992,-202.1694 1181.2212,-197.7914 1198.265,-193.7628"/>
<polygon fill="#000000" stroke="#000000" points="1199.18,-197.143 1208.1067,-191.4365 1197.5698,-190.3307 1199.18,-197.143"/>
</g>
<!-- s878&#45;&gt;s875 -->
<g id="edge12" class="edge">
<title>s878&#45;&gt;s875</title>
<path fill="none" stroke="#000000" d="M1207.9488,-177.646C1119.5052,-174.5778 938.6537,-168.3041 849.6127,-165.2153"/>
<polygon fill="#000000" stroke="#000000" points="849.5949,-161.7126 839.4795,-164.8638 849.3521,-168.7084 849.5949,-161.7126"/>
</g>
<!-- s879 -->
<g id="node12" class="node">
<title>s879</title>
<g id="a_node12"><a xlink:href="rust-grammar.json._type.dot.svg" xlink:title="s879 SYMBOL\n_type">
<ellipse fill="none" stroke="#000000" cx="1510.8114" cy="-256.4156" rx="73.9667" ry="29.3315"/>
<text text-anchor="middle" x="1510.8114" y="-260.6156" font-family="Times,serif" font-size="14.00" fill="#000000">s879 SYMBOL</text>
<text text-anchor="middle" x="1510.8114" y="-243.8156" font-family="Times,serif" font-size="14.00" fill="#000000">_type</text>
</a>
</g>
</g>
<!-- s878&#45;&gt;s879 -->
<g id="edge7" class="edge">
<title>s878:p0&#45;&gt;s879</title>
<path fill="none" stroke="#000000" d="M1309.9632,-204.4156C1357.7786,-204.4156 1410.0121,-218.3984 1449.2241,-231.8622"/>
<polygon fill="#000000" stroke="#000000" points="1448.3073,-235.2499 1458.9021,-235.2653 1450.6293,-228.6462 1448.3073,-235.2499"/>
<text text-anchor="middle" x="1382.1352" y="-224.6156" font-family="Times,serif" font-size="14.00" fill="#000000">_type</text>
</g>
<!-- s880 -->
<g id="node13" class="node">
<title>s880</title>
<g id="a_node13"><a xlink:href="rust-grammar.json.type_binding.dot.svg" xlink:title="s880 SYMBOL\ntype_binding">
<ellipse fill="none" stroke="#000000" cx="1510.8114" cy="-179.4156" rx="73.9667" ry="29.3315"/>
<text text-anchor="middle" x="1510.8114" y="-183.6156" font-family="Times,serif" font-size="14.00" fill="#000000">s880 SYMBOL</text>
<text text-anchor="middle" x="1510.8114" y="-166.8156" font-family="Times,serif" font-size="14.00" fill="#000000">type_binding</text>
</a>
</g>
</g>
<!-- s878&#45;&gt;s880 -->
<g id="edge8" class="edge">
<title>s878:p1&#45;&gt;s880</title>
<path fill="none" stroke="#000000" d="M1309.9632,-179.4156C1348.2059,-179.4156 1390.5445,-179.4156 1426.4506,-179.4156"/>
<polygon fill="#000000" stroke="#000000" points="1426.8856,-182.9157 1436.8855,-179.4156 1426.8855,-175.9157 1426.8856,-182.9157"/>
<text text-anchor="middle" x="1382.1352" y="-183.6156" font-family="Times,serif" font-size="14.00" fill="#000000">type_binding</text>
</g>
<!-- s881 -->
<g id="node14" class="node">
<title>s881</title>
<g id="a_node14"><a xlink:href="rust-grammar.json.lifetime.dot.svg" xlink:title="s881 SYMBOL\nlifetime">
<ellipse fill="none" stroke="#000000" cx="1510.8114" cy="-102.4156" rx="73.9667" ry="29.3315"/>
<text text-anchor="middle" x="1510.8114" y="-106.6156" font-family="Times,serif" font-size="14.00" fill="#000000">s881 SYMBOL</text>
<text text-anchor="middle" x="1510.8114" y="-89.8156" font-family="Times,serif" font-size="14.00" fill="#000000">lifetime</text>
</a>
</g>
</g>
<!-- s878&#45;&gt;s881 -->
<g id="edge9" class="edge">
<title>s878:p2&#45;&gt;s881</title>
<path fill="none" stroke="#000000" d="M1309.9632,-154.4156C1357.7786,-154.4156 1410.0121,-140.4329 1449.2241,-126.969"/>
<polygon fill="#000000" stroke="#000000" points="1450.6293,-130.1851 1458.9021,-123.566 1448.3073,-123.5814 1450.6293,-130.1851"/>
<text text-anchor="middle" x="1382.1352" y="-155.6156" font-family="Times,serif" font-size="14.00" fill="#000000">lifetime</text>
</g>
<!-- s883 -->
<g id="node16" class="node">
<title>s883</title>
<ellipse fill="none" stroke="#000000" cx="1085.5054" cy="-106.4156" rx="68.4585" ry="29.3315"/>
<text text-anchor="middle" x="1085.5054" y="-110.6156" font-family="Times,serif" font-size="14.00" fill="#000000">s883 STRING</text>
<text text-anchor="middle" x="1085.5054" y="-93.8156" font-family="Times,serif" font-size="14.00" fill="#000000">&quot;,&quot;</text>
</g>
<!-- s882&#45;&gt;s883 -->
<g id="edge17" class="edge">
<title>s882:p0&#45;&gt;s883</title>
<path fill="none" stroke="#000000" d="M977.7765,-106.4156C987.2157,-106.4156 997.12,-106.4156 1006.9393,-106.4156"/>
<polygon fill="#000000" stroke="#000000" points="1007.1182,-109.9157 1017.1182,-106.4156 1007.1181,-102.9157 1007.1182,-109.9157"/>
<text text-anchor="middle" x="997.5265" y="-110.6156" font-family="Times,serif" font-size="14.00" fill="#000000">,</text>
</g>
<!-- s884 -->
<g id="node17" class="node">
<title>s884</title>
<ellipse fill="none" stroke="#000000" cx="1085.5054" cy="-29.4156" rx="45.3054" ry="29.3315"/>
<text text-anchor="middle" x="1085.5054" y="-33.6156" font-family="Times,serif" font-size="14.00" fill="#000000">s884 </text>
<text text-anchor="middle" x="1085.5054" y="-16.8156" font-family="Times,serif" font-size="14.00" fill="#000000">BLANK</text>
</g>
<!-- s882&#45;&gt;s884 -->
<g id="edge18" class="edge">
<title>s882:p1&#45;&gt;s884</title>
<path fill="none" stroke="#000000" d="M967.9767,-69.4156C967.9767,-40.8528 999.4704,-31.1427 1029.8521,-28.4208"/>
<polygon fill="#000000" stroke="#000000" points="1030.3173,-31.8978 1040.0658,-27.7485 1029.8574,-24.913 1030.3173,-31.8978"/>
</g>
<!-- s885 -->
<g id="node18" class="node">
<title>s885</title>
<ellipse fill="none" stroke="#000000" cx="1258.9632" cy="-83.4156" rx="68.4585" ry="29.3315"/>
<text text-anchor="middle" x="1258.9632" y="-87.6156" font-family="Times,serif" font-size="14.00" fill="#000000">s885 STRING</text>
<text text-anchor="middle" x="1258.9632" y="-70.8156" font-family="Times,serif" font-size="14.00" fill="#000000">&quot;&gt;&quot;</text>
</g>
<!-- s883&#45;&gt;s885 -->
<g id="edge20" class="edge">
<title>s883&#45;&gt;s885</title>
<path fill="none" stroke="#000000" d="M1151.0823,-97.7203C1161.6243,-96.3225 1172.6102,-94.8658 1183.3641,-93.4399"/>
<polygon fill="#000000" stroke="#000000" points="1184.1281,-96.8693 1193.5813,-92.0851 1183.2079,-89.93 1184.1281,-96.8693"/>
</g>
<!-- s884&#45;&gt;s885 -->
<g id="edge21" class="edge">
<title>s884&#45;&gt;s885</title>
<path fill="none" stroke="#000000" d="M1126.6125,-42.2129C1146.5971,-48.4344 1171.0996,-56.0624 1193.566,-63.0565"/>
<polygon fill="#000000" stroke="#000000" points="1192.7964,-66.4826 1203.3848,-66.1133 1194.8772,-59.799 1192.7964,-66.4826"/>
</g>
</g>
</svg>
