<?xml version="1.0" encoding="UTF-8" standalone="no"?>
<!DOCTYPE svg PUBLIC "-//W3C//DTD SVG 1.1//EN"
 "http://www.w3.org/Graphics/SVG/1.1/DTD/svg11.dtd">
<!-- Generated by graphviz version 2.40.1 (20161225.0304)
 -->
<!-- Title: self_parameter Pages: 1 -->
<svg width="1376pt" height="158pt"
 viewBox="0.00 0.00 1375.82 157.83" xmlns="http://www.w3.org/2000/svg" xmlns:xlink="http://www.w3.org/1999/xlink">
<g id="graph0" class="graph" transform="scale(1 1) rotate(0) translate(4 153.8313)">
<title>self_parameter</title>
<polygon fill="#ffffff" stroke="transparent" points="-4,4 -4,-153.8313 1371.817,-153.8313 1371.817,4 -4,4"/>
<!-- s731 -->
<g id="node1" class="node">
<title>s731</title>
<polygon fill="none" stroke="#000000" points="0,-46.6156 0,-88.2156 56.4418,-88.2156 56.4418,-46.6156 0,-46.6156"/>
<text text-anchor="middle" x="28.2209" y="-71.6156" font-family="Times,serif" font-size="14.00" fill="#000000">s731</text>
<text text-anchor="middle" x="28.2209" y="-54.8156" font-family="Times,serif" font-size="14.00" fill="#000000">→ SEQ</text>
</g>
<!-- s732 -->
<g id="node2" class="node">
<title>s732</title>
<polygon fill="none" stroke="#000000" points="93.4418,-42.6156 93.4418,-92.2156 195.0414,-92.2156 195.0414,-42.6156 93.4418,-42.6156"/>
<text text-anchor="middle" x="134.4916" y="-71.6156" font-family="Times,serif" font-size="14.00" fill="#000000">s732</text>
<text text-anchor="middle" x="134.4916" y="-54.8156" font-family="Times,serif" font-size="14.00" fill="#000000">→ CHOICE</text>
<polyline fill="none" stroke="#000000" points="175.5414,-42.6156 175.5414,-92.2156 "/>
<text text-anchor="middle" x="185.2914" y="-75.6156" font-family="Times,serif" font-size="14.00" fill="#000000"> </text>
<polyline fill="none" stroke="#000000" points="175.5414,-67.4156 195.0414,-67.4156 "/>
<text text-anchor="middle" x="185.2914" y="-50.8156" font-family="Times,serif" font-size="14.00" fill="#000000"> </text>
</g>
<!-- s731&#45;&gt;s732 -->
<g id="edge3" class="edge">
<title>s731&#45;&gt;s732</title>
<path fill="none" stroke="#000000" d="M56.6028,-67.4156C64.6824,-67.4156 73.8102,-67.4156 83.0459,-67.4156"/>
<polygon fill="#000000" stroke="#000000" points="83.0657,-70.9157 93.0657,-67.4156 83.0656,-63.9157 83.0657,-70.9157"/>
</g>
<!-- s733 -->
<g id="node3" class="node">
<title>s733</title>
<ellipse fill="none" stroke="#000000" cx="310.1609" cy="-106.4156" rx="68.4585" ry="29.3315"/>
<text text-anchor="middle" x="310.1609" y="-110.6156" font-family="Times,serif" font-size="14.00" fill="#000000">s733 STRING</text>
<text text-anchor="middle" x="310.1609" y="-93.8156" font-family="Times,serif" font-size="14.00" fill="#000000">&quot;&amp;&quot;</text>
</g>
<!-- s732&#45;&gt;s733 -->
<g id="edge1" class="edge">
<title>s732:p0&#45;&gt;s733</title>
<path fill="none" stroke="#000000" d="M195.0414,-79.4156C211.7864,-79.4156 229.5482,-82.1569 245.9787,-85.8925"/>
<polygon fill="#000000" stroke="#000000" points="245.4723,-89.3712 256.016,-88.3313 247.1251,-82.5691 245.4723,-89.3712"/>
<text text-anchor="middle" x="218.4867" y="-84.6156" font-family="Times,serif" font-size="14.00" fill="#000000">&amp;</text>
</g>
<!-- s734 -->
<g id="node4" class="node">
<title>s734</title>
<ellipse fill="none" stroke="#000000" cx="310.1609" cy="-29.4156" rx="45.3054" ry="29.3315"/>
<text text-anchor="middle" x="310.1609" y="-33.6156" font-family="Times,serif" font-size="14.00" fill="#000000">s734 </text>
<text text-anchor="middle" x="310.1609" y="-16.8156" font-family="Times,serif" font-size="14.00" fill="#000000">BLANK</text>
</g>
<!-- s732&#45;&gt;s734 -->
<g id="edge2" class="edge">
<title>s732:p1&#45;&gt;s734</title>
<path fill="none" stroke="#000000" d="M195.0414,-55.4156C216.6885,-55.4156 240.0753,-50.9874 260.0788,-45.7859"/>
<polygon fill="#000000" stroke="#000000" points="261.1797,-49.1134 269.9032,-43.1009 259.3342,-42.3611 261.1797,-49.1134"/>
</g>
<!-- s735 -->
<g id="node5" class="node">
<title>s735</title>
<polygon fill="none" stroke="#000000" points="415.3897,-49.6156 415.3897,-99.2156 516.9893,-99.2156 516.9893,-49.6156 415.3897,-49.6156"/>
<text text-anchor="middle" x="456.4395" y="-78.6156" font-family="Times,serif" font-size="14.00" fill="#000000">s735</text>
<text text-anchor="middle" x="456.4395" y="-61.8156" font-family="Times,serif" font-size="14.00" fill="#000000">→ CHOICE</text>
<polyline fill="none" stroke="#000000" points="497.4893,-49.6156 497.4893,-99.2156 "/>
<text text-anchor="middle" x="507.2393" y="-82.6156" font-family="Times,serif" font-size="14.00" fill="#000000"> </text>
<polyline fill="none" stroke="#000000" points="497.4893,-74.4156 516.9893,-74.4156 "/>
<text text-anchor="middle" x="507.2393" y="-57.8156" font-family="Times,serif" font-size="14.00" fill="#000000"> </text>
</g>
<!-- s733&#45;&gt;s735 -->
<g id="edge6" class="edge">
<title>s733&#45;&gt;s735</title>
<path fill="none" stroke="#000000" d="M371.8275,-93.7684C382.784,-91.5213 394.1908,-89.1819 405.1302,-86.9383"/>
<polygon fill="#000000" stroke="#000000" points="405.926,-90.3481 415.0189,-84.9103 404.5196,-83.4908 405.926,-90.3481"/>
</g>
<!-- s734&#45;&gt;s735 -->
<g id="edge7" class="edge">
<title>s734&#45;&gt;s735</title>
<path fill="none" stroke="#000000" d="M351.9737,-41.4748C368.4252,-46.2196 387.6364,-51.7602 405.5581,-56.929"/>
<polygon fill="#000000" stroke="#000000" points="404.778,-60.3466 415.3563,-59.7549 406.7178,-53.6208 404.778,-60.3466"/>
</g>
<!-- s736 -->
<g id="node6" class="node">
<title>s736</title>
<g id="a_node6"><a xlink:href="rust-grammar.json.lifetime.dot.svg" xlink:title="s736 SYMBOL\nlifetime">
<ellipse fill="none" stroke="#000000" cx="670.2651" cy="-113.4156" rx="73.9667" ry="29.3315"/>
<text text-anchor="middle" x="670.2651" y="-117.6156" font-family="Times,serif" font-size="14.00" fill="#000000">s736 SYMBOL</text>
<text text-anchor="middle" x="670.2651" y="-100.8156" font-family="Times,serif" font-size="14.00" fill="#000000">lifetime</text>
</a>
</g>
</g>
<!-- s735&#45;&gt;s736 -->
<g id="edge4" class="edge">
<title>s735:p0&#45;&gt;s736</title>
<path fill="none" stroke="#000000" d="M516.9893,-86.4156C543.7055,-86.4156 572.6492,-90.4433 598.1144,-95.3875"/>
<polygon fill="#000000" stroke="#000000" points="597.563,-98.8467 608.0582,-97.3976 598.95,-91.9855 597.563,-98.8467"/>
<text text-anchor="middle" x="556.7607" y="-95.6156" font-family="Times,serif" font-size="14.00" fill="#000000">lifetime</text>
</g>
<!-- s737 -->
<g id="node7" class="node">
<title>s737</title>
<ellipse fill="none" stroke="#000000" cx="670.2651" cy="-36.4156" rx="45.3054" ry="29.3315"/>
<text text-anchor="middle" x="670.2651" y="-40.6156" font-family="Times,serif" font-size="14.00" fill="#000000">s737 </text>
<text text-anchor="middle" x="670.2651" y="-23.8156" font-family="Times,serif" font-size="14.00" fill="#000000">BLANK</text>
</g>
<!-- s735&#45;&gt;s737 -->
<g id="edge5" class="edge">
<title>s735:p1&#45;&gt;s737</title>
<path fill="none" stroke="#000000" d="M516.9893,-62.4156C550.9115,-62.4156 588.4693,-56.149 617.9169,-49.7688"/>
<polygon fill="#000000" stroke="#000000" points="618.9813,-53.1172 627.9754,-47.5174 617.4523,-46.2862 618.9813,-53.1172"/>
</g>
<!-- s738 -->
<g id="node8" class="node">
<title>s738</title>
<polygon fill="none" stroke="#000000" points="780.9981,-56.6156 780.9981,-106.2156 882.5977,-106.2156 882.5977,-56.6156 780.9981,-56.6156"/>
<text text-anchor="middle" x="822.0479" y="-85.6156" font-family="Times,serif" font-size="14.00" fill="#000000">s738</text>
<text text-anchor="middle" x="822.0479" y="-68.8156" font-family="Times,serif" font-size="14.00" fill="#000000">→ CHOICE</text>
<polyline fill="none" stroke="#000000" points="863.0977,-56.6156 863.0977,-106.2156 "/>
<text text-anchor="middle" x="872.8477" y="-89.6156" font-family="Times,serif" font-size="14.00" fill="#000000"> </text>
<polyline fill="none" stroke="#000000" points="863.0977,-81.4156 882.5977,-81.4156 "/>
<text text-anchor="middle" x="872.8477" y="-64.8156" font-family="Times,serif" font-size="14.00" fill="#000000"> </text>
</g>
<!-- s736&#45;&gt;s738 -->
<g id="edge10" class="edge">
<title>s736&#45;&gt;s738</title>
<path fill="none" stroke="#000000" d="M736.4328,-100.3077C747.773,-98.0612 759.5105,-95.736 770.7103,-93.5172"/>
<polygon fill="#000000" stroke="#000000" points="771.6887,-96.8915 780.8179,-91.5149 770.3284,-90.025 771.6887,-96.8915"/>
</g>
<!-- s737&#45;&gt;s738 -->
<g id="edge11" class="edge">
<title>s737&#45;&gt;s738</title>
<path fill="none" stroke="#000000" d="M712.2843,-48.1214C730.1973,-53.1116 751.4428,-59.0302 771.0171,-64.4832"/>
<polygon fill="#000000" stroke="#000000" points="770.1986,-67.8884 780.7711,-67.2005 772.0772,-61.1452 770.1986,-67.8884"/>
</g>
<!-- s739 -->
<g id="node9" class="node">
<title>s739</title>
<g id="a_node9"><a xlink:href="rust-grammar.json.mutable_specifier.dot.svg" xlink:title="s739 SYMBOL\nmutable_specifier">
<ellipse fill="none" stroke="#000000" cx="1101.1203" cy="-120.4156" rx="82.4621" ry="29.3315"/>
<text text-anchor="middle" x="1101.1203" y="-124.6156" font-family="Times,serif" font-size="14.00" fill="#000000">s739 SYMBOL</text>
<text text-anchor="middle" x="1101.1203" y="-107.8156" font-family="Times,serif" font-size="14.00" fill="#000000">mutable_specifier</text>
</a>
</g>
</g>
<!-- s738&#45;&gt;s739 -->
<g id="edge8" class="edge">
<title>s738:p0&#45;&gt;s739</title>
<path fill="none" stroke="#000000" d="M882.5977,-93.4156C927.5287,-93.4156 977.2668,-99.1074 1017.9259,-105.2644"/>
<polygon fill="#000000" stroke="#000000" points="1017.6405,-108.7619 1028.059,-106.8365 1018.7138,-101.8447 1017.6405,-108.7619"/>
<text text-anchor="middle" x="950.7436" y="-105.6156" font-family="Times,serif" font-size="14.00" fill="#000000">mutable_specifier</text>
</g>
<!-- s740 -->
<g id="node10" class="node">
<title>s740</title>
<ellipse fill="none" stroke="#000000" cx="1101.1203" cy="-43.4156" rx="45.3054" ry="29.3315"/>
<text text-anchor="middle" x="1101.1203" y="-47.6156" font-family="Times,serif" font-size="14.00" fill="#000000">s740 </text>
<text text-anchor="middle" x="1101.1203" y="-30.8156" font-family="Times,serif" font-size="14.00" fill="#000000">BLANK</text>
</g>
<!-- s738&#45;&gt;s740 -->
<g id="edge9" class="edge">
<title>s738:p1&#45;&gt;s740</title>
<path fill="none" stroke="#000000" d="M882.5977,-69.4156C939.1318,-69.4156 1003.3205,-60.7288 1047.4261,-53.3975"/>
<polygon fill="#000000" stroke="#000000" points="1048.0802,-56.8366 1057.3542,-51.7137 1046.9097,-49.9352 1048.0802,-56.8366"/>
</g>
<!-- s741 -->
<g id="node11" class="node">
<title>s741</title>
<g id="a_node11"><a xlink:href="rust-grammar.json.self.dot.svg" xlink:title="s741 SYMBOL\nself">
<ellipse fill="none" stroke="#000000" cx="1294.084" cy="-81.4156" rx="73.9667" ry="29.3315"/>
<text text-anchor="middle" x="1294.084" y="-85.6156" font-family="Times,serif" font-size="14.00" fill="#000000">s741 SYMBOL</text>
<text text-anchor="middle" x="1294.084" y="-68.8156" font-family="Times,serif" font-size="14.00" fill="#000000">self</text>
</a>
</g>
</g>
<!-- s739&#45;&gt;s741 -->
<g id="edge12" class="edge">
<title>s739&#45;&gt;s741</title>
<path fill="none" stroke="#000000" d="M1172.9728,-105.8935C1187.6863,-102.9197 1203.2187,-99.7805 1218.0725,-96.7784"/>
<polygon fill="#000000" stroke="#000000" points="1219.1207,-100.1374 1228.2291,-94.7256 1217.7339,-93.2761 1219.1207,-100.1374"/>
</g>
<!-- s740&#45;&gt;s741 -->
<g id="edge13" class="edge">
<title>s740&#45;&gt;s741</title>
<path fill="none" stroke="#000000" d="M1144.9067,-52.0384C1166.4075,-56.2725 1192.9447,-61.4985 1217.6477,-66.3632"/>
<polygon fill="#000000" stroke="#000000" points="1217.248,-69.8516 1227.7359,-68.3498 1218.6006,-62.9835 1217.248,-69.8516"/>
</g>
</g>
</svg>
