<?xml version="1.0" encoding="UTF-8" standalone="no"?>
<!DOCTYPE svg PUBLIC "-//W3C//DTD SVG 1.1//EN"
 "http://www.w3.org/Graphics/SVG/1.1/DTD/svg11.dtd">
<!-- Generated by graphviz version 2.40.1 (20161225.0304)
 -->
<!-- Title: _literal Pages: 1 -->
<svg width="408pt" height="452pt"
 viewBox="0.00 0.00 408.49 451.83" xmlns="http://www.w3.org/2000/svg" xmlns:xlink="http://www.w3.org/1999/xlink">
<g id="graph0" class="graph" transform="scale(1 1) rotate(0) translate(4 447.8313)">
<title>_literal</title>
<polygon fill="#ffffff" stroke="transparent" points="-4,4 -4,-447.8313 404.4905,-447.8313 404.4905,4 -4,4"/>
<!-- s1457 -->
<g id="node1" class="node">
<title>s1457</title>
<polygon fill="none" stroke="#000000" points="0,-147.0156 0,-295.8156 101.5996,-295.8156 101.5996,-147.0156 0,-147.0156"/>
<text text-anchor="middle" x="41.0498" y="-225.6156" font-family="Times,serif" font-size="14.00" fill="#000000">s1457</text>
<text text-anchor="middle" x="41.0498" y="-208.8156" font-family="Times,serif" font-size="14.00" fill="#000000">→ CHOICE</text>
<polyline fill="none" stroke="#000000" points="82.0996,-147.0156 82.0996,-295.8156 "/>
<text text-anchor="middle" x="91.8496" y="-279.2156" font-family="Times,serif" font-size="14.00" fill="#000000"> </text>
<polyline fill="none" stroke="#000000" points="82.0996,-271.0156 101.5996,-271.0156 "/>
<text text-anchor="middle" x="91.8496" y="-254.4156" font-family="Times,serif" font-size="14.00" fill="#000000"> </text>
<polyline fill="none" stroke="#000000" points="82.0996,-246.2156 101.5996,-246.2156 "/>
<text text-anchor="middle" x="91.8496" y="-229.6156" font-family="Times,serif" font-size="14.00" fill="#000000"> </text>
<polyline fill="none" stroke="#000000" points="82.0996,-221.4156 101.5996,-221.4156 "/>
<text text-anchor="middle" x="91.8496" y="-204.8156" font-family="Times,serif" font-size="14.00" fill="#000000"> </text>
<polyline fill="none" stroke="#000000" points="82.0996,-196.6156 101.5996,-196.6156 "/>
<text text-anchor="middle" x="91.8496" y="-180.0156" font-family="Times,serif" font-size="14.00" fill="#000000"> </text>
<polyline fill="none" stroke="#000000" points="82.0996,-171.8156 101.5996,-171.8156 "/>
<text text-anchor="middle" x="91.8496" y="-155.2156" font-family="Times,serif" font-size="14.00" fill="#000000"> </text>
</g>
<!-- s1458 -->
<g id="node2" class="node">
<title>s1458</title>
<g id="a_node2"><a xlink:href="rust-grammar.json.string_literal.dot.svg" xlink:title="s1458 SYMBOL\nstring_literal">
<ellipse fill="none" stroke="#000000" cx="318.8053" cy="-414.4156" rx="78.8659" ry="29.3315"/>
<text text-anchor="middle" x="318.8053" y="-418.6156" font-family="Times,serif" font-size="14.00" fill="#000000">s1458 SYMBOL</text>
<text text-anchor="middle" x="318.8053" y="-401.8156" font-family="Times,serif" font-size="14.00" fill="#000000">string_literal</text>
</a>
</g>
</g>
<!-- s1457&#45;&gt;s1458 -->
<g id="edge1" class="edge">
<title>s1457:p0&#45;&gt;s1458</title>
<path fill="none" stroke="#000000" d="M91.7998,-295.4156C91.7998,-361.729 168.7285,-391.1626 233.0196,-404.1821"/>
<polygon fill="#000000" stroke="#000000" points="232.736,-407.6912 243.2157,-406.1338 234.0521,-400.8161 232.736,-407.6912"/>
<text text-anchor="middle" x="169.3598" y="-404.6156" font-family="Times,serif" font-size="14.00" fill="#000000">string_literal</text>
</g>
<!-- s1459 -->
<g id="node3" class="node">
<title>s1459</title>
<g id="a_node3"><a xlink:href="rust-grammar.json.raw_string_literal.dot.svg" xlink:title="s1459 SYMBOL\nraw_string_literal">
<ellipse fill="none" stroke="#000000" cx="318.8053" cy="-337.4156" rx="81.8709" ry="29.3315"/>
<text text-anchor="middle" x="318.8053" y="-341.6156" font-family="Times,serif" font-size="14.00" fill="#000000">s1459 SYMBOL</text>
<text text-anchor="middle" x="318.8053" y="-324.8156" font-family="Times,serif" font-size="14.00" fill="#000000">raw_string_literal</text>
</a>
</g>
</g>
<!-- s1457&#45;&gt;s1459 -->
<g id="edge2" class="edge">
<title>s1457:p1&#45;&gt;s1459</title>
<path fill="none" stroke="#000000" d="M101.5996,-258.4156C109.6101,-258.4156 192.1603,-289.1617 253.1292,-312.2919"/>
<polygon fill="#000000" stroke="#000000" points="252.1232,-315.6537 262.7144,-315.9329 254.609,-309.1099 252.1232,-315.6537"/>
<text text-anchor="middle" x="169.3598" y="-301.6156" font-family="Times,serif" font-size="14.00" fill="#000000">raw_string_literal</text>
</g>
<!-- s1460 -->
<g id="node4" class="node">
<title>s1460</title>
<g id="a_node4"><a xlink:href="rust-grammar.json.char_literal.dot.svg" xlink:title="s1460 SYMBOL\nchar_literal">
<ellipse fill="none" stroke="#000000" cx="318.8053" cy="-260.4156" rx="78.8659" ry="29.3315"/>
<text text-anchor="middle" x="318.8053" y="-264.6156" font-family="Times,serif" font-size="14.00" fill="#000000">s1460 SYMBOL</text>
<text text-anchor="middle" x="318.8053" y="-247.8156" font-family="Times,serif" font-size="14.00" fill="#000000">char_literal</text>
</a>
</g>
</g>
<!-- s1457&#45;&gt;s1460 -->
<g id="edge3" class="edge">
<title>s1457:p2&#45;&gt;s1460</title>
<path fill="none" stroke="#000000" d="M101.5996,-233.4156C147.0606,-233.4156 197.4679,-239.3123 238.2699,-245.5943"/>
<polygon fill="#000000" stroke="#000000" points="237.7355,-249.0532 248.1585,-247.1529 238.8254,-242.1385 237.7355,-249.0532"/>
<text text-anchor="middle" x="169.3598" y="-245.6156" font-family="Times,serif" font-size="14.00" fill="#000000">char_literal</text>
</g>
<!-- s1461 -->
<g id="node5" class="node">
<title>s1461</title>
<g id="a_node5"><a xlink:href="rust-grammar.json.boolean_literal.dot.svg" xlink:title="s1461 SYMBOL\nboolean_literal">
<ellipse fill="none" stroke="#000000" cx="318.8053" cy="-183.4156" rx="78.8659" ry="29.3315"/>
<text text-anchor="middle" x="318.8053" y="-187.6156" font-family="Times,serif" font-size="14.00" fill="#000000">s1461 SYMBOL</text>
<text text-anchor="middle" x="318.8053" y="-170.8156" font-family="Times,serif" font-size="14.00" fill="#000000">boolean_literal</text>
</a>
</g>
</g>
<!-- s1457&#45;&gt;s1461 -->
<g id="edge4" class="edge">
<title>s1457:p3&#45;&gt;s1461</title>
<path fill="none" stroke="#000000" d="M101.5996,-209.4156C146.7644,-209.4156 196.8397,-203.8049 237.5169,-197.7963"/>
<polygon fill="#000000" stroke="#000000" points="238.2837,-201.2202 247.6474,-196.2633 237.2363,-194.299 238.2837,-201.2202"/>
<text text-anchor="middle" x="169.3598" y="-212.6156" font-family="Times,serif" font-size="14.00" fill="#000000">boolean_literal</text>
</g>
<!-- s1462 -->
<g id="node6" class="node">
<title>s1462</title>
<g id="a_node6"><a xlink:href="rust-grammar.json.integer_literal.dot.svg" xlink:title="s1462 SYMBOL\ninteger_literal">
<ellipse fill="none" stroke="#000000" cx="318.8053" cy="-106.4156" rx="78.8659" ry="29.3315"/>
<text text-anchor="middle" x="318.8053" y="-110.6156" font-family="Times,serif" font-size="14.00" fill="#000000">s1462 SYMBOL</text>
<text text-anchor="middle" x="318.8053" y="-93.8156" font-family="Times,serif" font-size="14.00" fill="#000000">integer_literal</text>
</a>
</g>
</g>
<!-- s1457&#45;&gt;s1462 -->
<g id="edge5" class="edge">
<title>s1457:p4&#45;&gt;s1462</title>
<path fill="none" stroke="#000000" d="M101.5996,-184.4156C109.6221,-184.4156 192.6428,-153.878 253.6673,-131.018"/>
<polygon fill="#000000" stroke="#000000" points="255.1237,-134.2098 263.2576,-127.4208 252.6654,-127.6557 255.1237,-134.2098"/>
<text text-anchor="middle" x="169.3598" y="-182.6156" font-family="Times,serif" font-size="14.00" fill="#000000">integer_literal</text>
</g>
<!-- s1463 -->
<g id="node7" class="node">
<title>s1463</title>
<g id="a_node7"><a xlink:href="rust-grammar.json.float_literal.dot.svg" xlink:title="s1463 SYMBOL\nfloat_literal">
<ellipse fill="none" stroke="#000000" cx="318.8053" cy="-29.4156" rx="78.8659" ry="29.3315"/>
<text text-anchor="middle" x="318.8053" y="-33.6156" font-family="Times,serif" font-size="14.00" fill="#000000">s1463 SYMBOL</text>
<text text-anchor="middle" x="318.8053" y="-16.8156" font-family="Times,serif" font-size="14.00" fill="#000000">float_literal</text>
</a>
</g>
</g>
<!-- s1457&#45;&gt;s1463 -->
<g id="edge6" class="edge">
<title>s1457:p5&#45;&gt;s1463</title>
<path fill="none" stroke="#000000" d="M91.7998,-147.4156C91.7998,-81.3274 168.4837,-52.2004 232.7124,-39.3952"/>
<polygon fill="#000000" stroke="#000000" points="233.7204,-42.767 242.9001,-37.477 232.4252,-35.8878 233.7204,-42.767"/>
<text text-anchor="middle" x="169.3598" y="-90.6156" font-family="Times,serif" font-size="14.00" fill="#000000">float_literal</text>
</g>
</g>
</svg>
