<?xml version="1.0" encoding="UTF-8" standalone="no"?>
<!DOCTYPE svg PUBLIC "-//W3C//DTD SVG 1.1//EN"
 "http://www.w3.org/Graphics/SVG/1.1/DTD/svg11.dtd">
<!-- Generated by graphviz version 2.40.1 (20161225.0304)
 -->
<!-- Title: match_arm Pages: 1 -->
<svg width="1750pt" height="144pt"
 viewBox="0.00 0.00 1750.24 143.83" xmlns="http://www.w3.org/2000/svg" xmlns:xlink="http://www.w3.org/1999/xlink">
<g id="graph0" class="graph" transform="scale(1 1) rotate(0) translate(4 139.8313)">
<title>match_arm</title>
<polygon fill="#ffffff" stroke="transparent" points="-4,4 -4,-139.8313 1746.2412,-139.8313 1746.2412,4 -4,4"/>
<!-- s1184 -->
<g id="node1" class="node">
<title>s1184</title>
<polygon fill="none" stroke="#000000" points="0,-46.6156 0,-88.2156 56.4418,-88.2156 56.4418,-46.6156 0,-46.6156"/>
<text text-anchor="middle" x="28.2209" y="-71.6156" font-family="Times,serif" font-size="14.00" fill="#000000">s1184</text>
<text text-anchor="middle" x="28.2209" y="-54.8156" font-family="Times,serif" font-size="14.00" fill="#000000">→ SEQ</text>
</g>
<!-- s1185 -->
<g id="node2" class="node">
<title>s1185</title>
<polygon fill="none" stroke="#000000" points="93.4418,-46.6156 93.4418,-88.2156 176.3254,-88.2156 176.3254,-46.6156 93.4418,-46.6156"/>
<text text-anchor="middle" x="134.8836" y="-71.6156" font-family="Times,serif" font-size="14.00" fill="#000000">s1185</text>
<text text-anchor="middle" x="134.8836" y="-54.8156" font-family="Times,serif" font-size="14.00" fill="#000000">→ REPEAT</text>
</g>
<!-- s1184&#45;&gt;s1185 -->
<g id="edge3" class="edge">
<title>s1184&#45;&gt;s1185</title>
<path fill="none" stroke="#000000" d="M56.5245,-67.4156C64.6857,-67.4156 73.8581,-67.4156 82.9751,-67.4156"/>
<polygon fill="#000000" stroke="#000000" points="83.188,-70.9157 93.1879,-67.4156 83.1879,-63.9157 83.188,-70.9157"/>
</g>
<!-- s1186 -->
<g id="node3" class="node">
<title>s1186</title>
<g id="a_node3"><a xlink:href="rust-grammar.json.attribute_item.dot.svg" xlink:title="s1186 SYMBOL\nattribute_item">
<ellipse fill="none" stroke="#000000" cx="292.0081" cy="-67.4156" rx="78.8659" ry="29.3315"/>
<text text-anchor="middle" x="292.0081" y="-71.6156" font-family="Times,serif" font-size="14.00" fill="#000000">s1186 SYMBOL</text>
<text text-anchor="middle" x="292.0081" y="-54.8156" font-family="Times,serif" font-size="14.00" fill="#000000">attribute_item</text>
</a>
</g>
</g>
<!-- s1185&#45;&gt;s1186 -->
<g id="edge1" class="edge">
<title>s1185&#45;&gt;s1186</title>
<path fill="none" stroke="#000000" d="M176.5776,-61.3752C185.417,-61.0083 195.0618,-60.7837 204.8873,-60.7014"/>
<polygon fill="#000000" stroke="#000000" points="205.1774,-64.2005 215.1657,-60.6671 205.154,-57.2006 205.1774,-64.2005"/>
</g>
<!-- s1186&#45;&gt;s1185 -->
<g id="edge2" class="edge">
<title>s1186&#45;&gt;s1185</title>
<path fill="none" stroke="#000000" d="M215.1657,-74.1642C205.4979,-74.1804 195.7954,-74.0602 186.6442,-73.8037"/>
<polygon fill="#000000" stroke="#000000" points="186.6924,-70.3033 176.5776,-73.4561 186.4508,-77.2992 186.6924,-70.3033"/>
</g>
<!-- s1187 -->
<g id="node4" class="node">
<title>s1187</title>
<polygon fill="none" stroke="#000000" points="407.6909,-42.6156 407.6909,-92.2156 509.2905,-92.2156 509.2905,-42.6156 407.6909,-42.6156"/>
<text text-anchor="middle" x="448.7407" y="-71.6156" font-family="Times,serif" font-size="14.00" fill="#000000">s1187</text>
<text text-anchor="middle" x="448.7407" y="-54.8156" font-family="Times,serif" font-size="14.00" fill="#000000">→ CHOICE</text>
<polyline fill="none" stroke="#000000" points="489.7905,-42.6156 489.7905,-92.2156 "/>
<text text-anchor="middle" x="499.5405" y="-75.6156" font-family="Times,serif" font-size="14.00" fill="#000000"> </text>
<polyline fill="none" stroke="#000000" points="489.7905,-67.4156 509.2905,-67.4156 "/>
<text text-anchor="middle" x="499.5405" y="-50.8156" font-family="Times,serif" font-size="14.00" fill="#000000"> </text>
</g>
<!-- s1186&#45;&gt;s1187 -->
<g id="edge6" class="edge">
<title>s1186&#45;&gt;s1187</title>
<path fill="none" stroke="#000000" d="M370.8615,-67.4156C379.7046,-67.4156 388.6138,-67.4156 397.1886,-67.4156"/>
<polygon fill="#000000" stroke="#000000" points="397.4551,-70.9157 407.4551,-67.4156 397.4551,-63.9157 397.4551,-70.9157"/>
</g>
<!-- s1188 -->
<g id="node5" class="node">
<title>s1188</title>
<g id="a_node5"><a xlink:href="rust-grammar.json.macro_invocation.dot.svg" xlink:title="s1188 SYMBOL\nmacro_invocation">
<ellipse fill="none" stroke="#000000" cx="729.1609" cy="-106.4156" rx="82.5786" ry="29.3315"/>
<text text-anchor="middle" x="729.1609" y="-110.6156" font-family="Times,serif" font-size="14.00" fill="#000000">s1188 SYMBOL</text>
<text text-anchor="middle" x="729.1609" y="-93.8156" font-family="Times,serif" font-size="14.00" fill="#000000">macro_invocation</text>
</a>
</g>
</g>
<!-- s1187&#45;&gt;s1188 -->
<g id="edge4" class="edge">
<title>s1187:p0&#45;&gt;s1188</title>
<path fill="none" stroke="#000000" d="M509.2905,-79.4156C554.5902,-79.4156 604.7511,-85.1316 645.7097,-91.3035"/>
<polygon fill="#000000" stroke="#000000" points="645.2288,-94.7706 655.6456,-92.8365 646.2962,-87.8525 645.2288,-94.7706"/>
<text text-anchor="middle" x="577.8312" y="-91.6156" font-family="Times,serif" font-size="14.00" fill="#000000">macro_invocation</text>
</g>
<!-- s1189 -->
<g id="node6" class="node">
<title>s1189</title>
<g id="a_node6"><a xlink:href="rust-grammar.json.match_pattern.dot.svg" xlink:title="s1189 SYMBOL\nmatch_pattern">
<ellipse fill="none" stroke="#000000" cx="729.1609" cy="-29.4156" rx="78.8659" ry="29.3315"/>
<text text-anchor="middle" x="729.1609" y="-33.6156" font-family="Times,serif" font-size="14.00" fill="#000000">s1189 SYMBOL</text>
<text text-anchor="middle" x="729.1609" y="-16.8156" font-family="Times,serif" font-size="14.00" fill="#000000">match_pattern</text>
</a>
</g>
</g>
<!-- s1187&#45;&gt;s1189 -->
<g id="edge5" class="edge">
<title>s1187:p1&#45;&gt;s1189</title>
<path fill="none" stroke="#000000" d="M509.2905,-55.4156C555.4535,-55.4156 606.6935,-49.6934 648.0872,-43.618"/>
<polygon fill="#000000" stroke="#000000" points="648.7481,-47.0581 658.1171,-42.111 647.708,-40.1358 648.7481,-47.0581"/>
<text text-anchor="middle" x="577.8312" y="-58.6156" font-family="Times,serif" font-size="14.00" fill="#000000">match_pattern</text>
</g>
<!-- s1190 -->
<g id="node7" class="node">
<title>s1190</title>
<ellipse fill="none" stroke="#000000" cx="922.1286" cy="-67.4156" rx="73.3577" ry="29.3315"/>
<text text-anchor="middle" x="922.1286" y="-71.6156" font-family="Times,serif" font-size="14.00" fill="#000000">s1190 STRING</text>
<text text-anchor="middle" x="922.1286" y="-54.8156" font-family="Times,serif" font-size="14.00" fill="#000000">&quot;=&gt;&quot;</text>
</g>
<!-- s1188&#45;&gt;s1190 -->
<g id="edge7" class="edge">
<title>s1188&#45;&gt;s1190</title>
<path fill="none" stroke="#000000" d="M801.2894,-91.838C815.9887,-88.8672 831.495,-85.7333 846.3182,-82.7374"/>
<polygon fill="#000000" stroke="#000000" points="847.3446,-86.1008 856.453,-80.6891 845.9578,-79.2396 847.3446,-86.1008"/>
</g>
<!-- s1189&#45;&gt;s1190 -->
<g id="edge8" class="edge">
<title>s1189&#45;&gt;s1190</title>
<path fill="none" stroke="#000000" d="M798.8267,-43.1345C814.1471,-46.1515 830.4475,-49.3614 846.0076,-52.4256"/>
<polygon fill="#000000" stroke="#000000" points="845.6203,-55.9164 856.1081,-54.4146 846.9728,-49.0483 845.6203,-55.9164"/>
</g>
<!-- s1191 -->
<g id="node8" class="node">
<title>s1191</title>
<polygon fill="none" stroke="#000000" points="1032.3072,-42.6156 1032.3072,-92.2156 1133.9068,-92.2156 1133.9068,-42.6156 1032.3072,-42.6156"/>
<text text-anchor="middle" x="1073.357" y="-71.6156" font-family="Times,serif" font-size="14.00" fill="#000000">s1191</text>
<text text-anchor="middle" x="1073.357" y="-54.8156" font-family="Times,serif" font-size="14.00" fill="#000000">→ CHOICE</text>
<polyline fill="none" stroke="#000000" points="1114.4068,-42.6156 1114.4068,-92.2156 "/>
<text text-anchor="middle" x="1124.1568" y="-75.6156" font-family="Times,serif" font-size="14.00" fill="#000000"> </text>
<polyline fill="none" stroke="#000000" points="1114.4068,-67.4156 1133.9068,-67.4156 "/>
<text text-anchor="middle" x="1124.1568" y="-50.8156" font-family="Times,serif" font-size="14.00" fill="#000000"> </text>
</g>
<!-- s1190&#45;&gt;s1191 -->
<g id="edge14" class="edge">
<title>s1190&#45;&gt;s1191</title>
<path fill="none" stroke="#000000" d="M995.5517,-67.4156C1004.2767,-67.4156 1013.1133,-67.4156 1021.6472,-67.4156"/>
<polygon fill="#000000" stroke="#000000" points="1021.8787,-70.9157 1031.8786,-67.4156 1021.8786,-63.9157 1021.8787,-70.9157"/>
</g>
<!-- s1192 -->
<g id="node9" class="node">
<title>s1192</title>
<polygon fill="none" stroke="#000000" points="1181.1901,-81.6156 1181.1901,-123.2156 1237.6319,-123.2156 1237.6319,-81.6156 1181.1901,-81.6156"/>
<text text-anchor="middle" x="1209.411" y="-106.6156" font-family="Times,serif" font-size="14.00" fill="#000000">s1192</text>
<text text-anchor="middle" x="1209.411" y="-89.8156" font-family="Times,serif" font-size="14.00" fill="#000000">→ SEQ</text>
</g>
<!-- s1191&#45;&gt;s1192 -->
<g id="edge11" class="edge">
<title>s1191:p0&#45;&gt;s1192</title>
<path fill="none" stroke="#000000" d="M1133.9068,-79.4156C1146.4323,-79.4156 1159.6391,-82.3479 1171.4439,-86.1184"/>
<polygon fill="#000000" stroke="#000000" points="1170.3895,-89.4573 1180.9844,-89.4369 1172.6892,-82.8458 1170.3895,-89.4573"/>
</g>
<!-- s1195 -->
<g id="node12" class="node">
<title>s1195</title>
<polygon fill="none" stroke="#000000" points="1176.9068,-16.6156 1176.9068,-58.2156 1241.9152,-58.2156 1241.9152,-16.6156 1176.9068,-16.6156"/>
<text text-anchor="middle" x="1209.411" y="-41.6156" font-family="Times,serif" font-size="14.00" fill="#000000">s1195</text>
<text text-anchor="middle" x="1209.411" y="-24.8156" font-family="Times,serif" font-size="14.00" fill="#000000">→ PREC</text>
</g>
<!-- s1191&#45;&gt;s1195 -->
<g id="edge13" class="edge">
<title>s1191:p1&#45;&gt;s1195</title>
<path fill="none" stroke="#000000" d="M1133.9068,-55.4156C1144.7316,-55.4156 1156.1972,-53.6434 1166.8357,-51.2111"/>
<polygon fill="#000000" stroke="#000000" points="1167.8946,-54.5537 1176.7341,-48.7131 1166.1817,-47.7665 1167.8946,-54.5537"/>
<text text-anchor="middle" x="1155.4068" y="-57.6156" font-family="Times,serif" font-size="14.00" fill="#000000">1</text>
</g>
<!-- s1193 -->
<g id="node10" class="node">
<title>s1193</title>
<g id="a_node10"><a xlink:href="rust-grammar.json._expression.dot.svg" xlink:title="s1193 SYMBOL\n_expression">
<ellipse fill="none" stroke="#000000" cx="1418.8996" cy="-106.4156" rx="78.8659" ry="29.3315"/>
<text text-anchor="middle" x="1418.8996" y="-110.6156" font-family="Times,serif" font-size="14.00" fill="#000000">s1193 SYMBOL</text>
<text text-anchor="middle" x="1418.8996" y="-93.8156" font-family="Times,serif" font-size="14.00" fill="#000000">_expression</text>
</a>
</g>
</g>
<!-- s1192&#45;&gt;s1193 -->
<g id="edge9" class="edge">
<title>s1192&#45;&gt;s1193</title>
<path fill="none" stroke="#000000" d="M1237.6636,-102.9551C1261.4485,-103.4093 1296.8036,-104.0843 1329.9884,-104.718"/>
<polygon fill="#000000" stroke="#000000" points="1330.1372,-108.2213 1340.2022,-104.913 1330.2709,-101.2226 1330.1372,-108.2213"/>
</g>
<!-- s1194 -->
<g id="node11" class="node">
<title>s1194</title>
<ellipse fill="none" stroke="#000000" cx="1669.0626" cy="-106.4156" rx="73.3577" ry="29.3315"/>
<text text-anchor="middle" x="1669.0626" y="-110.6156" font-family="Times,serif" font-size="14.00" fill="#000000">s1194 STRING</text>
<text text-anchor="middle" x="1669.0626" y="-93.8156" font-family="Times,serif" font-size="14.00" fill="#000000">&quot;,&quot;</text>
</g>
<!-- s1193&#45;&gt;s1194 -->
<g id="edge10" class="edge">
<title>s1193&#45;&gt;s1194</title>
<path fill="none" stroke="#000000" d="M1497.7094,-106.4156C1525.6436,-106.4156 1557.1621,-106.4156 1585.4801,-106.4156"/>
<polygon fill="#000000" stroke="#000000" points="1585.7557,-109.9157 1595.7557,-106.4156 1585.7556,-102.9157 1585.7557,-109.9157"/>
</g>
<!-- s1196 -->
<g id="node13" class="node">
<title>s1196</title>
<g id="a_node13"><a xlink:href="rust-grammar.json._expression_ending_with_block.dot.svg" xlink:title="s1196 SYMBOL\n_expression_ending_with_block">
<ellipse fill="none" stroke="#000000" cx="1418.8996" cy="-29.4156" rx="139.9687" ry="29.3315"/>
<text text-anchor="middle" x="1418.8996" y="-33.6156" font-family="Times,serif" font-size="14.00" fill="#000000">s1196 SYMBOL</text>
<text text-anchor="middle" x="1418.8996" y="-16.8156" font-family="Times,serif" font-size="14.00" fill="#000000">_expression_ending_with_block</text>
</a>
</g>
</g>
<!-- s1195&#45;&gt;s1196 -->
<g id="edge12" class="edge">
<title>s1195&#45;&gt;s1196</title>
<path fill="none" stroke="#000000" d="M1242.1436,-36.1656C1250.6026,-35.8426 1260.276,-35.4732 1270.6407,-35.0774"/>
<polygon fill="#000000" stroke="#000000" points="1270.9138,-38.5696 1280.7729,-34.6905 1270.6466,-31.5747 1270.9138,-38.5696"/>
</g>
</g>
</svg>
