<?xml version="1.0" encoding="UTF-8" standalone="no"?>
<!DOCTYPE svg PUBLIC "-//W3C//DTD SVG 1.1//EN"
 "http://www.w3.org/Graphics/SVG/1.1/DTD/svg11.dtd">
<!-- Generated by graphviz version 2.40.1 (20161225.0304)
 -->
<!-- Title: reference_type Pages: 1 -->
<svg width="1227pt" height="151pt"
 viewBox="0.00 0.00 1227.33 150.83" xmlns="http://www.w3.org/2000/svg" xmlns:xlink="http://www.w3.org/1999/xlink">
<g id="graph0" class="graph" transform="scale(1 1) rotate(0) translate(4 146.8313)">
<title>reference_type</title>
<polygon fill="#ffffff" stroke="transparent" points="-4,4 -4,-146.8313 1223.3268,-146.8313 1223.3268,4 -4,4"/>
<!-- s890 -->
<g id="node1" class="node">
<title>s890</title>
<polygon fill="none" stroke="#000000" points="0,-46.6156 0,-88.2156 56.4418,-88.2156 56.4418,-46.6156 0,-46.6156"/>
<text text-anchor="middle" x="28.2209" y="-71.6156" font-family="Times,serif" font-size="14.00" fill="#000000">s890</text>
<text text-anchor="middle" x="28.2209" y="-54.8156" font-family="Times,serif" font-size="14.00" fill="#000000">→ SEQ</text>
</g>
<!-- s891 -->
<g id="node2" class="node">
<title>s891</title>
<ellipse fill="none" stroke="#000000" cx="161.6707" cy="-67.4156" rx="68.4585" ry="29.3315"/>
<text text-anchor="middle" x="161.6707" y="-71.6156" font-family="Times,serif" font-size="14.00" fill="#000000">s891 STRING</text>
<text text-anchor="middle" x="161.6707" y="-54.8156" font-family="Times,serif" font-size="14.00" fill="#000000">&quot;&amp;&quot;</text>
</g>
<!-- s890&#45;&gt;s891 -->
<g id="edge1" class="edge">
<title>s890&#45;&gt;s891</title>
<path fill="none" stroke="#000000" d="M56.5222,-67.4156C64.5856,-67.4156 73.7846,-67.4156 83.3101,-67.4156"/>
<polygon fill="#000000" stroke="#000000" points="83.321,-70.9157 93.321,-67.4156 83.3209,-63.9157 83.321,-70.9157"/>
</g>
<!-- s892 -->
<g id="node3" class="node">
<title>s892</title>
<polygon fill="none" stroke="#000000" points="266.8995,-42.6156 266.8995,-92.2156 368.4991,-92.2156 368.4991,-42.6156 266.8995,-42.6156"/>
<text text-anchor="middle" x="307.9493" y="-71.6156" font-family="Times,serif" font-size="14.00" fill="#000000">s892</text>
<text text-anchor="middle" x="307.9493" y="-54.8156" font-family="Times,serif" font-size="14.00" fill="#000000">→ CHOICE</text>
<polyline fill="none" stroke="#000000" points="348.9991,-42.6156 348.9991,-92.2156 "/>
<text text-anchor="middle" x="358.7491" y="-75.6156" font-family="Times,serif" font-size="14.00" fill="#000000"> </text>
<polyline fill="none" stroke="#000000" points="348.9991,-67.4156 368.4991,-67.4156 "/>
<text text-anchor="middle" x="358.7491" y="-50.8156" font-family="Times,serif" font-size="14.00" fill="#000000"> </text>
</g>
<!-- s891&#45;&gt;s892 -->
<g id="edge4" class="edge">
<title>s891&#45;&gt;s892</title>
<path fill="none" stroke="#000000" d="M230.1071,-67.4156C238.9349,-67.4156 247.9288,-67.4156 256.6274,-67.4156"/>
<polygon fill="#000000" stroke="#000000" points="256.6756,-70.9157 266.6755,-67.4156 256.6755,-63.9157 256.6756,-70.9157"/>
</g>
<!-- s893 -->
<g id="node4" class="node">
<title>s893</title>
<g id="a_node4"><a xlink:href="rust-grammar.json.lifetime.dot.svg" xlink:title="s893 SYMBOL\nlifetime">
<ellipse fill="none" stroke="#000000" cx="521.7749" cy="-106.4156" rx="73.9667" ry="29.3315"/>
<text text-anchor="middle" x="521.7749" y="-110.6156" font-family="Times,serif" font-size="14.00" fill="#000000">s893 SYMBOL</text>
<text text-anchor="middle" x="521.7749" y="-93.8156" font-family="Times,serif" font-size="14.00" fill="#000000">lifetime</text>
</a>
</g>
</g>
<!-- s892&#45;&gt;s893 -->
<g id="edge2" class="edge">
<title>s892:p0&#45;&gt;s893</title>
<path fill="none" stroke="#000000" d="M368.4991,-79.4156C395.2153,-79.4156 424.159,-83.4433 449.6242,-88.3875"/>
<polygon fill="#000000" stroke="#000000" points="449.0728,-91.8467 459.568,-90.3976 450.4598,-84.9855 449.0728,-91.8467"/>
<text text-anchor="middle" x="408.2705" y="-88.6156" font-family="Times,serif" font-size="14.00" fill="#000000">lifetime</text>
</g>
<!-- s894 -->
<g id="node5" class="node">
<title>s894</title>
<ellipse fill="none" stroke="#000000" cx="521.7749" cy="-29.4156" rx="45.3054" ry="29.3315"/>
<text text-anchor="middle" x="521.7749" y="-33.6156" font-family="Times,serif" font-size="14.00" fill="#000000">s894 </text>
<text text-anchor="middle" x="521.7749" y="-16.8156" font-family="Times,serif" font-size="14.00" fill="#000000">BLANK</text>
</g>
<!-- s892&#45;&gt;s894 -->
<g id="edge3" class="edge">
<title>s892:p1&#45;&gt;s894</title>
<path fill="none" stroke="#000000" d="M368.4991,-55.4156C402.4213,-55.4156 439.9791,-49.149 469.4267,-42.7688"/>
<polygon fill="#000000" stroke="#000000" points="470.4911,-46.1172 479.4852,-40.5174 468.9621,-39.2862 470.4911,-46.1172"/>
</g>
<!-- s895 -->
<g id="node6" class="node">
<title>s895</title>
<polygon fill="none" stroke="#000000" points="632.5079,-49.6156 632.5079,-99.2156 734.1075,-99.2156 734.1075,-49.6156 632.5079,-49.6156"/>
<text text-anchor="middle" x="673.5577" y="-78.6156" font-family="Times,serif" font-size="14.00" fill="#000000">s895</text>
<text text-anchor="middle" x="673.5577" y="-61.8156" font-family="Times,serif" font-size="14.00" fill="#000000">→ CHOICE</text>
<polyline fill="none" stroke="#000000" points="714.6075,-49.6156 714.6075,-99.2156 "/>
<text text-anchor="middle" x="724.3575" y="-82.6156" font-family="Times,serif" font-size="14.00" fill="#000000"> </text>
<polyline fill="none" stroke="#000000" points="714.6075,-74.4156 734.1075,-74.4156 "/>
<text text-anchor="middle" x="724.3575" y="-57.8156" font-family="Times,serif" font-size="14.00" fill="#000000"> </text>
</g>
<!-- s893&#45;&gt;s895 -->
<g id="edge7" class="edge">
<title>s893&#45;&gt;s895</title>
<path fill="none" stroke="#000000" d="M587.9426,-93.3077C599.2828,-91.0612 611.0203,-88.736 622.2201,-86.5172"/>
<polygon fill="#000000" stroke="#000000" points="623.1985,-89.8915 632.3277,-84.5149 621.8382,-83.025 623.1985,-89.8915"/>
</g>
<!-- s894&#45;&gt;s895 -->
<g id="edge8" class="edge">
<title>s894&#45;&gt;s895</title>
<path fill="none" stroke="#000000" d="M563.7941,-41.1214C581.7071,-46.1116 602.9526,-52.0302 622.5269,-57.4832"/>
<polygon fill="#000000" stroke="#000000" points="621.7084,-60.8884 632.2809,-60.2005 623.587,-54.1452 621.7084,-60.8884"/>
</g>
<!-- s896 -->
<g id="node7" class="node">
<title>s896</title>
<g id="a_node7"><a xlink:href="rust-grammar.json.mutable_specifier.dot.svg" xlink:title="s896 SYMBOL\nmutable_specifier">
<ellipse fill="none" stroke="#000000" cx="952.6301" cy="-113.4156" rx="82.4621" ry="29.3315"/>
<text text-anchor="middle" x="952.6301" y="-117.6156" font-family="Times,serif" font-size="14.00" fill="#000000">s896 SYMBOL</text>
<text text-anchor="middle" x="952.6301" y="-100.8156" font-family="Times,serif" font-size="14.00" fill="#000000">mutable_specifier</text>
</a>
</g>
</g>
<!-- s895&#45;&gt;s896 -->
<g id="edge5" class="edge">
<title>s895:p0&#45;&gt;s896</title>
<path fill="none" stroke="#000000" d="M734.1075,-86.4156C779.0385,-86.4156 828.7766,-92.1074 869.4357,-98.2644"/>
<polygon fill="#000000" stroke="#000000" points="869.1503,-101.7619 879.5688,-99.8365 870.2236,-94.8447 869.1503,-101.7619"/>
<text text-anchor="middle" x="802.2534" y="-98.6156" font-family="Times,serif" font-size="14.00" fill="#000000">mutable_specifier</text>
</g>
<!-- s897 -->
<g id="node8" class="node">
<title>s897</title>
<ellipse fill="none" stroke="#000000" cx="952.6301" cy="-36.4156" rx="45.3054" ry="29.3315"/>
<text text-anchor="middle" x="952.6301" y="-40.6156" font-family="Times,serif" font-size="14.00" fill="#000000">s897 </text>
<text text-anchor="middle" x="952.6301" y="-23.8156" font-family="Times,serif" font-size="14.00" fill="#000000">BLANK</text>
</g>
<!-- s895&#45;&gt;s897 -->
<g id="edge6" class="edge">
<title>s895:p1&#45;&gt;s897</title>
<path fill="none" stroke="#000000" d="M734.1075,-62.4156C790.6416,-62.4156 854.8303,-53.7288 898.9359,-46.3975"/>
<polygon fill="#000000" stroke="#000000" points="899.59,-49.8366 908.864,-44.7137 898.4195,-42.9352 899.59,-49.8366"/>
</g>
<!-- s898 -->
<g id="node9" class="node">
<title>s898</title>
<g id="a_node9"><a xlink:href="rust-grammar.json._type.dot.svg" xlink:title="s898 SYMBOL\n_type">
<ellipse fill="none" stroke="#000000" cx="1145.5938" cy="-74.4156" rx="73.9667" ry="29.3315"/>
<text text-anchor="middle" x="1145.5938" y="-78.6156" font-family="Times,serif" font-size="14.00" fill="#000000">s898 SYMBOL</text>
<text text-anchor="middle" x="1145.5938" y="-61.8156" font-family="Times,serif" font-size="14.00" fill="#000000">_type</text>
</a>
</g>
</g>
<!-- s896&#45;&gt;s898 -->
<g id="edge9" class="edge">
<title>s896&#45;&gt;s898</title>
<path fill="none" stroke="#000000" d="M1024.4826,-98.8935C1039.1961,-95.9197 1054.7285,-92.7805 1069.5823,-89.7784"/>
<polygon fill="#000000" stroke="#000000" points="1070.6305,-93.1374 1079.7389,-87.7256 1069.2437,-86.2761 1070.6305,-93.1374"/>
</g>
<!-- s897&#45;&gt;s898 -->
<g id="edge10" class="edge">
<title>s897&#45;&gt;s898</title>
<path fill="none" stroke="#000000" d="M996.4165,-45.0384C1017.9173,-49.2725 1044.4545,-54.4985 1069.1575,-59.3632"/>
<polygon fill="#000000" stroke="#000000" points="1068.7578,-62.8516 1079.2457,-61.3498 1070.1104,-55.9835 1068.7578,-62.8516"/>
</g>
</g>
</svg>
