<?xml version="1.0" encoding="UTF-8" standalone="no"?>
<!DOCTYPE svg PUBLIC "-//W3C//DTD SVG 1.1//EN"
 "http://www.w3.org/Graphics/SVG/1.1/DTD/svg11.dtd">
<!-- Generated by graphviz version 2.40.1 (20161225.0304)
 -->
<!-- Title: extern_crate_declaration Pages: 1 -->
<svg width="2018pt" height="144pt"
 viewBox="0.00 0.00 2017.74 143.83" xmlns="http://www.w3.org/2000/svg" xmlns:xlink="http://www.w3.org/1999/xlink">
<g id="graph0" class="graph" transform="scale(1 1) rotate(0) translate(4 139.8313)">
<title>extern_crate_declaration</title>
<polygon fill="#ffffff" stroke="transparent" points="-4,4 -4,-139.8313 2013.7425,-139.8313 2013.7425,4 -4,4"/>
<!-- s399 -->
<g id="node1" class="node">
<title>s399</title>
<polygon fill="none" stroke="#000000" points="0,-46.6156 0,-88.2156 56.4418,-88.2156 56.4418,-46.6156 0,-46.6156"/>
<text text-anchor="middle" x="28.2209" y="-71.6156" font-family="Times,serif" font-size="14.00" fill="#000000">s399</text>
<text text-anchor="middle" x="28.2209" y="-54.8156" font-family="Times,serif" font-size="14.00" fill="#000000">→ SEQ</text>
</g>
<!-- s400 -->
<g id="node2" class="node">
<title>s400</title>
<polygon fill="none" stroke="#000000" points="93.4418,-42.6156 93.4418,-92.2156 195.0414,-92.2156 195.0414,-42.6156 93.4418,-42.6156"/>
<text text-anchor="middle" x="134.4916" y="-71.6156" font-family="Times,serif" font-size="14.00" fill="#000000">s400</text>
<text text-anchor="middle" x="134.4916" y="-54.8156" font-family="Times,serif" font-size="14.00" fill="#000000">→ CHOICE</text>
<polyline fill="none" stroke="#000000" points="175.5414,-42.6156 175.5414,-92.2156 "/>
<text text-anchor="middle" x="185.2914" y="-75.6156" font-family="Times,serif" font-size="14.00" fill="#000000"> </text>
<polyline fill="none" stroke="#000000" points="175.5414,-67.4156 195.0414,-67.4156 "/>
<text text-anchor="middle" x="185.2914" y="-50.8156" font-family="Times,serif" font-size="14.00" fill="#000000"> </text>
</g>
<!-- s399&#45;&gt;s400 -->
<g id="edge3" class="edge">
<title>s399&#45;&gt;s400</title>
<path fill="none" stroke="#000000" d="M56.6028,-67.4156C64.6824,-67.4156 73.8102,-67.4156 83.0459,-67.4156"/>
<polygon fill="#000000" stroke="#000000" points="83.0657,-70.9157 93.0657,-67.4156 83.0656,-63.9157 83.0657,-70.9157"/>
</g>
<!-- s401 -->
<g id="node3" class="node">
<title>s401</title>
<g id="a_node3"><a xlink:href="rust-grammar.json.visibility_modifier.dot.svg" xlink:title="s401 SYMBOL\nvisibility_modifier">
<ellipse fill="none" stroke="#000000" cx="421.5942" cy="-106.4156" rx="85.6139" ry="29.3315"/>
<text text-anchor="middle" x="421.5942" y="-110.6156" font-family="Times,serif" font-size="14.00" fill="#000000">s401 SYMBOL</text>
<text text-anchor="middle" x="421.5942" y="-93.8156" font-family="Times,serif" font-size="14.00" fill="#000000">visibility_modifier</text>
</a>
</g>
</g>
<!-- s400&#45;&gt;s401 -->
<g id="edge1" class="edge">
<title>s400:p0&#45;&gt;s401</title>
<path fill="none" stroke="#000000" d="M195.0414,-79.4156C241.7047,-79.4156 293.3969,-85.1333 335.6079,-91.3063"/>
<polygon fill="#000000" stroke="#000000" points="335.1618,-94.7784 345.5697,-92.797 336.1978,-87.8555 335.1618,-94.7784"/>
<text text-anchor="middle" x="265.5393" y="-91.6156" font-family="Times,serif" font-size="14.00" fill="#000000">visibility_modifier</text>
</g>
<!-- s402 -->
<g id="node4" class="node">
<title>s402</title>
<ellipse fill="none" stroke="#000000" cx="421.5942" cy="-29.4156" rx="45.3054" ry="29.3315"/>
<text text-anchor="middle" x="421.5942" y="-33.6156" font-family="Times,serif" font-size="14.00" fill="#000000">s402 </text>
<text text-anchor="middle" x="421.5942" y="-16.8156" font-family="Times,serif" font-size="14.00" fill="#000000">BLANK</text>
</g>
<!-- s400&#45;&gt;s402 -->
<g id="edge2" class="edge">
<title>s400:p1&#45;&gt;s402</title>
<path fill="none" stroke="#000000" d="M195.0414,-55.4156C254.3,-55.4156 321.7121,-46.5273 367.4852,-39.1445"/>
<polygon fill="#000000" stroke="#000000" points="368.187,-42.5761 377.4865,-37.4997 367.051,-35.6689 368.187,-42.5761"/>
</g>
<!-- s403 -->
<g id="node5" class="node">
<title>s403</title>
<ellipse fill="none" stroke="#000000" cx="612.38" cy="-67.4156" rx="68.4585" ry="29.3315"/>
<text text-anchor="middle" x="612.38" y="-71.6156" font-family="Times,serif" font-size="14.00" fill="#000000">s403 STRING</text>
<text text-anchor="middle" x="612.38" y="-54.8156" font-family="Times,serif" font-size="14.00" fill="#000000">&quot;extern&quot;</text>
</g>
<!-- s401&#45;&gt;s403 -->
<g id="edge4" class="edge">
<title>s401&#45;&gt;s403</title>
<path fill="none" stroke="#000000" d="M495.3569,-91.3372C510.1812,-88.3069 525.7411,-85.1262 540.5001,-82.1092"/>
<polygon fill="#000000" stroke="#000000" points="541.4747,-85.4824 550.5711,-80.0505 540.0727,-78.6242 541.4747,-85.4824"/>
</g>
<!-- s402&#45;&gt;s403 -->
<g id="edge5" class="edge">
<title>s402&#45;&gt;s403</title>
<path fill="none" stroke="#000000" d="M465.3643,-38.1336C487.6049,-42.5634 515.2029,-48.0603 540.4601,-53.0909"/>
<polygon fill="#000000" stroke="#000000" points="539.8855,-56.5451 550.3765,-55.066 541.2529,-49.68 539.8855,-56.5451"/>
</g>
<!-- s404 -->
<g id="node6" class="node">
<title>s404</title>
<g id="a_node6"><a xlink:href="rust-grammar.json.crate.dot.svg" xlink:title="s404 SYMBOL\ncrate">
<ellipse fill="none" stroke="#000000" cx="791.3418" cy="-67.4156" rx="73.9667" ry="29.3315"/>
<text text-anchor="middle" x="791.3418" y="-71.6156" font-family="Times,serif" font-size="14.00" fill="#000000">s404 SYMBOL</text>
<text text-anchor="middle" x="791.3418" y="-54.8156" font-family="Times,serif" font-size="14.00" fill="#000000">crate</text>
</a>
</g>
</g>
<!-- s403&#45;&gt;s404 -->
<g id="edge6" class="edge">
<title>s403&#45;&gt;s404</title>
<path fill="none" stroke="#000000" d="M680.8038,-67.4156C689.5504,-67.4156 698.5816,-67.4156 707.5367,-67.4156"/>
<polygon fill="#000000" stroke="#000000" points="707.5958,-70.9157 717.5957,-67.4156 707.5957,-63.9157 707.5958,-70.9157"/>
</g>
<!-- s405 -->
<g id="node7" class="node">
<title>s405</title>
<polygon fill="none" stroke="#000000" points="902.0748,-42.6156 902.0748,-92.2156 1003.6744,-92.2156 1003.6744,-42.6156 902.0748,-42.6156"/>
<text text-anchor="middle" x="943.1246" y="-71.6156" font-family="Times,serif" font-size="14.00" fill="#000000">s405</text>
<text text-anchor="middle" x="943.1246" y="-54.8156" font-family="Times,serif" font-size="14.00" fill="#000000">→ CHOICE</text>
<polyline fill="none" stroke="#000000" points="984.1744,-42.6156 984.1744,-92.2156 "/>
<text text-anchor="middle" x="993.9244" y="-75.6156" font-family="Times,serif" font-size="14.00" fill="#000000"> </text>
<polyline fill="none" stroke="#000000" points="984.1744,-67.4156 1003.6744,-67.4156 "/>
<text text-anchor="middle" x="993.9244" y="-50.8156" font-family="Times,serif" font-size="14.00" fill="#000000"> </text>
</g>
<!-- s404&#45;&gt;s405 -->
<g id="edge12" class="edge">
<title>s404&#45;&gt;s405</title>
<path fill="none" stroke="#000000" d="M865.4895,-67.4156C874.2161,-67.4156 883.0465,-67.4156 891.5694,-67.4156"/>
<polygon fill="#000000" stroke="#000000" points="891.7855,-70.9157 901.7854,-67.4156 891.7854,-63.9157 891.7855,-70.9157"/>
</g>
<!-- s406 -->
<g id="node8" class="node">
<title>s406</title>
<g id="a_node8"><a xlink:href="rust-grammar.json.identifier.dot.svg" xlink:title="s406 SYMBOL\nidentifier">
<ellipse fill="none" stroke="#000000" cx="1239.162" cy="-92.4156" rx="73.9667" ry="29.3315"/>
<text text-anchor="middle" x="1239.162" y="-96.6156" font-family="Times,serif" font-size="14.00" fill="#000000">s406 SYMBOL</text>
<text text-anchor="middle" x="1239.162" y="-79.8156" font-family="Times,serif" font-size="14.00" fill="#000000">identifier</text>
</a>
</g>
</g>
<!-- s405&#45;&gt;s406 -->
<g id="edge7" class="edge">
<title>s405:p0&#45;&gt;s406</title>
<path fill="none" stroke="#000000" d="M1003.6744,-79.4156C1054.5884,-79.4156 1111.6004,-82.4827 1156.7743,-85.6374"/>
<polygon fill="#000000" stroke="#000000" points="1156.5893,-89.133 1166.813,-86.3533 1157.0873,-82.1507 1156.5893,-89.133"/>
<text text-anchor="middle" x="1047.3308" y="-84.6156" font-family="Times,serif" font-size="14.00" fill="#000000">identifier</text>
</g>
<!-- s407 -->
<g id="node9" class="node">
<title>s407</title>
<polygon fill="none" stroke="#000000" points="1090.9872,-21.6156 1090.9872,-63.2156 1147.429,-63.2156 1147.429,-21.6156 1090.9872,-21.6156"/>
<text text-anchor="middle" x="1119.2081" y="-46.6156" font-family="Times,serif" font-size="14.00" fill="#000000">s407</text>
<text text-anchor="middle" x="1119.2081" y="-29.8156" font-family="Times,serif" font-size="14.00" fill="#000000">→ SEQ</text>
</g>
<!-- s405&#45;&gt;s407 -->
<g id="edge11" class="edge">
<title>s405:p1&#45;&gt;s407</title>
<path fill="none" stroke="#000000" d="M1003.6744,-55.4156C1029.4633,-55.4156 1058.2883,-52.1775 1080.6952,-48.9335"/>
<polygon fill="#000000" stroke="#000000" points="1081.4552,-52.3585 1090.8205,-47.4046 1080.41,-45.437 1081.4552,-52.3585"/>
</g>
<!-- s411 -->
<g id="node13" class="node">
<title>s411</title>
<ellipse fill="none" stroke="#000000" cx="1941.5136" cy="-64.4156" rx="68.4585" ry="29.3315"/>
<text text-anchor="middle" x="1941.5136" y="-68.6156" font-family="Times,serif" font-size="14.00" fill="#000000">s411 STRING</text>
<text text-anchor="middle" x="1941.5136" y="-51.8156" font-family="Times,serif" font-size="14.00" fill="#000000">&quot;;&quot;</text>
</g>
<!-- s406&#45;&gt;s411 -->
<g id="edge13" class="edge">
<title>s406&#45;&gt;s411</title>
<path fill="none" stroke="#000000" d="M1313.031,-92.8543C1364.5515,-93.1229 1434.8965,-93.4156 1496.861,-93.4156 1496.861,-93.4156 1496.861,-93.4156 1762.5518,-93.4156 1798.9202,-93.4156 1838.9168,-87.5077 1871.8574,-81.025"/>
<polygon fill="#000000" stroke="#000000" points="1872.7369,-84.418 1881.842,-79.0006 1871.3459,-77.5576 1872.7369,-84.418"/>
</g>
<!-- s408 -->
<g id="node10" class="node">
<title>s408</title>
<g id="a_node10"><a xlink:href="rust-grammar.json.identifier.dot.svg" xlink:title="s408 SYMBOL\nidentifier">
<ellipse fill="none" stroke="#000000" cx="1404.628" cy="-36.4156" rx="73.9667" ry="29.3315"/>
<text text-anchor="middle" x="1404.628" y="-40.6156" font-family="Times,serif" font-size="14.00" fill="#000000">s408 SYMBOL</text>
<text text-anchor="middle" x="1404.628" y="-23.8156" font-family="Times,serif" font-size="14.00" fill="#000000">identifier</text>
</a>
</g>
</g>
<!-- s407&#45;&gt;s408 -->
<g id="edge8" class="edge">
<title>s407&#45;&gt;s408</title>
<path fill="none" stroke="#000000" d="M1147.6188,-41.8184C1187.5903,-40.9781 1262.0862,-39.4121 1320.6229,-38.1816"/>
<polygon fill="#000000" stroke="#000000" points="1321.0591,-41.6733 1330.9833,-37.9638 1320.9119,-34.6748 1321.0591,-41.6733"/>
</g>
<!-- s409 -->
<g id="node11" class="node">
<title>s409</title>
<ellipse fill="none" stroke="#000000" cx="1583.5899" cy="-36.4156" rx="68.4585" ry="29.3315"/>
<text text-anchor="middle" x="1583.5899" y="-40.6156" font-family="Times,serif" font-size="14.00" fill="#000000">s409 STRING</text>
<text text-anchor="middle" x="1583.5899" y="-23.8156" font-family="Times,serif" font-size="14.00" fill="#000000">&quot;as&quot;</text>
</g>
<!-- s408&#45;&gt;s409 -->
<g id="edge9" class="edge">
<title>s408&#45;&gt;s409</title>
<path fill="none" stroke="#000000" d="M1478.4519,-36.4156C1487.1715,-36.4156 1496.0959,-36.4156 1504.8798,-36.4156"/>
<polygon fill="#000000" stroke="#000000" points="1505.1062,-39.9157 1515.1061,-36.4156 1505.1061,-32.9157 1505.1062,-39.9157"/>
</g>
<!-- s410 -->
<g id="node12" class="node">
<title>s410</title>
<g id="a_node12"><a xlink:href="rust-grammar.json.identifier.dot.svg" xlink:title="s410 SYMBOL\nidentifier">
<ellipse fill="none" stroke="#000000" cx="1762.5518" cy="-36.4156" rx="73.9667" ry="29.3315"/>
<text text-anchor="middle" x="1762.5518" y="-40.6156" font-family="Times,serif" font-size="14.00" fill="#000000">s410 SYMBOL</text>
<text text-anchor="middle" x="1762.5518" y="-23.8156" font-family="Times,serif" font-size="14.00" fill="#000000">identifier</text>
</a>
</g>
</g>
<!-- s409&#45;&gt;s410 -->
<g id="edge10" class="edge">
<title>s409&#45;&gt;s410</title>
<path fill="none" stroke="#000000" d="M1652.0137,-36.4156C1660.7603,-36.4156 1669.7915,-36.4156 1678.7466,-36.4156"/>
<polygon fill="#000000" stroke="#000000" points="1678.8057,-39.9157 1688.8057,-36.4156 1678.8056,-32.9157 1678.8057,-39.9157"/>
</g>
<!-- s410&#45;&gt;s411 -->
<g id="edge14" class="edge">
<title>s410&#45;&gt;s411</title>
<path fill="none" stroke="#000000" d="M1831.2313,-47.1611C1843.0135,-49.0045 1855.3052,-50.9277 1867.2262,-52.7928"/>
<polygon fill="#000000" stroke="#000000" points="1866.7126,-56.2549 1877.1334,-54.3429 1867.7947,-49.3391 1866.7126,-56.2549"/>
</g>
</g>
</svg>
