<?xml version="1.0" encoding="UTF-8" standalone="no"?>
<!DOCTYPE svg PUBLIC "-//W3C//DTD SVG 1.1//EN"
 "http://www.w3.org/Graphics/SVG/1.1/DTD/svg11.dtd">
<!-- Generated by graphviz version 2.40.1 (20161225.0304)
 -->
<!-- Title: enum_item Pages: 1 -->
<svg width="1896pt" height="151pt"
 viewBox="0.00 0.00 1896.09 150.83" xmlns="http://www.w3.org/2000/svg" xmlns:xlink="http://www.w3.org/1999/xlink">
<g id="graph0" class="graph" transform="scale(1 1) rotate(0) translate(4 146.8313)">
<title>enum_item</title>
<polygon fill="#ffffff" stroke="transparent" points="-4,4 -4,-146.8313 1892.0947,-146.8313 1892.0947,4 -4,4"/>
<!-- s298 -->
<g id="node1" class="node">
<title>s298</title>
<polygon fill="none" stroke="#000000" points="0,-46.6156 0,-88.2156 56.4418,-88.2156 56.4418,-46.6156 0,-46.6156"/>
<text text-anchor="middle" x="28.2209" y="-71.6156" font-family="Times,serif" font-size="14.00" fill="#000000">s298</text>
<text text-anchor="middle" x="28.2209" y="-54.8156" font-family="Times,serif" font-size="14.00" fill="#000000">→ SEQ</text>
</g>
<!-- s299 -->
<g id="node2" class="node">
<title>s299</title>
<polygon fill="none" stroke="#000000" points="93.4418,-42.6156 93.4418,-92.2156 195.0414,-92.2156 195.0414,-42.6156 93.4418,-42.6156"/>
<text text-anchor="middle" x="134.4916" y="-71.6156" font-family="Times,serif" font-size="14.00" fill="#000000">s299</text>
<text text-anchor="middle" x="134.4916" y="-54.8156" font-family="Times,serif" font-size="14.00" fill="#000000">→ CHOICE</text>
<polyline fill="none" stroke="#000000" points="175.5414,-42.6156 175.5414,-92.2156 "/>
<text text-anchor="middle" x="185.2914" y="-75.6156" font-family="Times,serif" font-size="14.00" fill="#000000"> </text>
<polyline fill="none" stroke="#000000" points="175.5414,-67.4156 195.0414,-67.4156 "/>
<text text-anchor="middle" x="185.2914" y="-50.8156" font-family="Times,serif" font-size="14.00" fill="#000000"> </text>
</g>
<!-- s298&#45;&gt;s299 -->
<g id="edge3" class="edge">
<title>s298&#45;&gt;s299</title>
<path fill="none" stroke="#000000" d="M56.6028,-67.4156C64.6824,-67.4156 73.8102,-67.4156 83.0459,-67.4156"/>
<polygon fill="#000000" stroke="#000000" points="83.0657,-70.9157 93.0657,-67.4156 83.0656,-63.9157 83.0657,-70.9157"/>
</g>
<!-- s300 -->
<g id="node3" class="node">
<title>s300</title>
<g id="a_node3"><a xlink:href="rust-grammar.json.visibility_modifier.dot.svg" xlink:title="s300 SYMBOL\nvisibility_modifier">
<ellipse fill="none" stroke="#000000" cx="421.5942" cy="-106.4156" rx="85.6139" ry="29.3315"/>
<text text-anchor="middle" x="421.5942" y="-110.6156" font-family="Times,serif" font-size="14.00" fill="#000000">s300 SYMBOL</text>
<text text-anchor="middle" x="421.5942" y="-93.8156" font-family="Times,serif" font-size="14.00" fill="#000000">visibility_modifier</text>
</a>
</g>
</g>
<!-- s299&#45;&gt;s300 -->
<g id="edge1" class="edge">
<title>s299:p0&#45;&gt;s300</title>
<path fill="none" stroke="#000000" d="M195.0414,-79.4156C241.7047,-79.4156 293.3969,-85.1333 335.6079,-91.3063"/>
<polygon fill="#000000" stroke="#000000" points="335.1618,-94.7784 345.5697,-92.797 336.1978,-87.8555 335.1618,-94.7784"/>
<text text-anchor="middle" x="265.5393" y="-91.6156" font-family="Times,serif" font-size="14.00" fill="#000000">visibility_modifier</text>
</g>
<!-- s301 -->
<g id="node4" class="node">
<title>s301</title>
<ellipse fill="none" stroke="#000000" cx="421.5942" cy="-29.4156" rx="45.3054" ry="29.3315"/>
<text text-anchor="middle" x="421.5942" y="-33.6156" font-family="Times,serif" font-size="14.00" fill="#000000">s301 </text>
<text text-anchor="middle" x="421.5942" y="-16.8156" font-family="Times,serif" font-size="14.00" fill="#000000">BLANK</text>
</g>
<!-- s299&#45;&gt;s301 -->
<g id="edge2" class="edge">
<title>s299:p1&#45;&gt;s301</title>
<path fill="none" stroke="#000000" d="M195.0414,-55.4156C254.3,-55.4156 321.7121,-46.5273 367.4852,-39.1445"/>
<polygon fill="#000000" stroke="#000000" points="368.187,-42.5761 377.4865,-37.4997 367.051,-35.6689 368.187,-42.5761"/>
</g>
<!-- s302 -->
<g id="node5" class="node">
<title>s302</title>
<ellipse fill="none" stroke="#000000" cx="612.38" cy="-67.4156" rx="68.4585" ry="29.3315"/>
<text text-anchor="middle" x="612.38" y="-71.6156" font-family="Times,serif" font-size="14.00" fill="#000000">s302 STRING</text>
<text text-anchor="middle" x="612.38" y="-54.8156" font-family="Times,serif" font-size="14.00" fill="#000000">&quot;enum&quot;</text>
</g>
<!-- s300&#45;&gt;s302 -->
<g id="edge4" class="edge">
<title>s300&#45;&gt;s302</title>
<path fill="none" stroke="#000000" d="M495.3569,-91.3372C510.1812,-88.3069 525.7411,-85.1262 540.5001,-82.1092"/>
<polygon fill="#000000" stroke="#000000" points="541.4747,-85.4824 550.5711,-80.0505 540.0727,-78.6242 541.4747,-85.4824"/>
</g>
<!-- s301&#45;&gt;s302 -->
<g id="edge5" class="edge">
<title>s301&#45;&gt;s302</title>
<path fill="none" stroke="#000000" d="M465.3643,-38.1336C487.6049,-42.5634 515.2029,-48.0603 540.4601,-53.0909"/>
<polygon fill="#000000" stroke="#000000" points="539.8855,-56.5451 550.3765,-55.066 541.2529,-49.68 539.8855,-56.5451"/>
</g>
<!-- s303 -->
<g id="node6" class="node">
<title>s303</title>
<g id="a_node6"><a xlink:href="rust-grammar.json._type_identifier.dot.svg" xlink:title="s303 SYMBOL\n_type_identifier">
<ellipse fill="none" stroke="#000000" cx="792.1506" cy="-67.4156" rx="74.5836" ry="29.3315"/>
<text text-anchor="middle" x="792.1506" y="-71.6156" font-family="Times,serif" font-size="14.00" fill="#000000">s303 SYMBOL</text>
<text text-anchor="middle" x="792.1506" y="-54.8156" font-family="Times,serif" font-size="14.00" fill="#000000">_type_identifier</text>
</a>
</g>
</g>
<!-- s302&#45;&gt;s303 -->
<g id="edge6" class="edge">
<title>s302&#45;&gt;s303</title>
<path fill="none" stroke="#000000" d="M680.8564,-67.4156C689.5796,-67.4156 698.5885,-67.4156 707.5278,-67.4156"/>
<polygon fill="#000000" stroke="#000000" points="707.572,-70.9157 717.5719,-67.4156 707.5719,-63.9157 707.572,-70.9157"/>
</g>
<!-- s304 -->
<g id="node7" class="node">
<title>s304</title>
<polygon fill="none" stroke="#000000" points="903.6924,-42.6156 903.6924,-92.2156 1005.292,-92.2156 1005.292,-42.6156 903.6924,-42.6156"/>
<text text-anchor="middle" x="944.7422" y="-71.6156" font-family="Times,serif" font-size="14.00" fill="#000000">s304</text>
<text text-anchor="middle" x="944.7422" y="-54.8156" font-family="Times,serif" font-size="14.00" fill="#000000">→ CHOICE</text>
<polyline fill="none" stroke="#000000" points="985.792,-42.6156 985.792,-92.2156 "/>
<text text-anchor="middle" x="995.542" y="-75.6156" font-family="Times,serif" font-size="14.00" fill="#000000"> </text>
<polyline fill="none" stroke="#000000" points="985.792,-67.4156 1005.292,-67.4156 "/>
<text text-anchor="middle" x="995.542" y="-50.8156" font-family="Times,serif" font-size="14.00" fill="#000000"> </text>
</g>
<!-- s303&#45;&gt;s304 -->
<g id="edge9" class="edge">
<title>s303&#45;&gt;s304</title>
<path fill="none" stroke="#000000" d="M867.1438,-67.4156C875.8853,-67.4156 884.7228,-67.4156 893.2478,-67.4156"/>
<polygon fill="#000000" stroke="#000000" points="893.464,-70.9157 903.464,-67.4156 893.4639,-63.9157 893.464,-70.9157"/>
</g>
<!-- s305 -->
<g id="node8" class="node">
<title>s305</title>
<g id="a_node8"><a xlink:href="rust-grammar.json.type_parameters.dot.svg" xlink:title="s305 SYMBOL\ntype_parameters">
<ellipse fill="none" stroke="#000000" cx="1210.5312" cy="-106.4156" rx="76.9578" ry="29.3315"/>
<text text-anchor="middle" x="1210.5312" y="-110.6156" font-family="Times,serif" font-size="14.00" fill="#000000">s305 SYMBOL</text>
<text text-anchor="middle" x="1210.5312" y="-93.8156" font-family="Times,serif" font-size="14.00" fill="#000000">type_parameters</text>
</a>
</g>
</g>
<!-- s304&#45;&gt;s305 -->
<g id="edge7" class="edge">
<title>s304:p0&#45;&gt;s305</title>
<path fill="none" stroke="#000000" d="M1005.292,-79.4156C1047.3552,-79.4156 1093.8564,-85.0593 1131.9454,-91.1861"/>
<polygon fill="#000000" stroke="#000000" points="1131.5093,-94.6614 1141.9458,-92.8365 1132.6492,-87.7549 1131.5093,-94.6614"/>
<text text-anchor="middle" x="1069.5473" y="-91.6156" font-family="Times,serif" font-size="14.00" fill="#000000">type_parameters</text>
</g>
<!-- s306 -->
<g id="node9" class="node">
<title>s306</title>
<ellipse fill="none" stroke="#000000" cx="1210.5312" cy="-29.4156" rx="45.3054" ry="29.3315"/>
<text text-anchor="middle" x="1210.5312" y="-33.6156" font-family="Times,serif" font-size="14.00" fill="#000000">s306 </text>
<text text-anchor="middle" x="1210.5312" y="-16.8156" font-family="Times,serif" font-size="14.00" fill="#000000">BLANK</text>
</g>
<!-- s304&#45;&gt;s306 -->
<g id="edge8" class="edge">
<title>s304:p1&#45;&gt;s306</title>
<path fill="none" stroke="#000000" d="M1005.292,-55.4156C1057.2199,-55.4156 1115.9563,-47.1228 1157.2481,-39.904"/>
<polygon fill="#000000" stroke="#000000" points="1157.8638,-43.3495 1167.0925,-38.1456 1156.6329,-36.4586 1157.8638,-43.3495"/>
</g>
<!-- s307 -->
<g id="node10" class="node">
<title>s307</title>
<polygon fill="none" stroke="#000000" points="1324.2598,-49.6156 1324.2598,-99.2156 1425.8594,-99.2156 1425.8594,-49.6156 1324.2598,-49.6156"/>
<text text-anchor="middle" x="1365.3096" y="-78.6156" font-family="Times,serif" font-size="14.00" fill="#000000">s307</text>
<text text-anchor="middle" x="1365.3096" y="-61.8156" font-family="Times,serif" font-size="14.00" fill="#000000">→ CHOICE</text>
<polyline fill="none" stroke="#000000" points="1406.3594,-49.6156 1406.3594,-99.2156 "/>
<text text-anchor="middle" x="1416.1094" y="-82.6156" font-family="Times,serif" font-size="14.00" fill="#000000"> </text>
<polyline fill="none" stroke="#000000" points="1406.3594,-74.4156 1425.8594,-74.4156 "/>
<text text-anchor="middle" x="1416.1094" y="-57.8156" font-family="Times,serif" font-size="14.00" fill="#000000"> </text>
</g>
<!-- s305&#45;&gt;s307 -->
<g id="edge12" class="edge">
<title>s305&#45;&gt;s307</title>
<path fill="none" stroke="#000000" d="M1279.3527,-93.0302C1290.8139,-90.801 1302.6328,-88.5023 1313.887,-86.3134"/>
<polygon fill="#000000" stroke="#000000" points="1314.8894,-89.6841 1324.0372,-84.3393 1313.5529,-82.8129 1314.8894,-89.6841"/>
</g>
<!-- s306&#45;&gt;s307 -->
<g id="edge13" class="edge">
<title>s306&#45;&gt;s307</title>
<path fill="none" stroke="#000000" d="M1252.4744,-40.8875C1271.2107,-46.012 1293.6543,-52.1506 1314.1873,-57.7665"/>
<polygon fill="#000000" stroke="#000000" points="1313.5199,-61.2125 1324.089,-60.4747 1315.3667,-54.4605 1313.5199,-61.2125"/>
</g>
<!-- s308 -->
<g id="node11" class="node">
<title>s308</title>
<g id="a_node11"><a xlink:href="rust-grammar.json.where_clause.dot.svg" xlink:title="s308 SYMBOL\nwhere_clause">
<ellipse fill="none" stroke="#000000" cx="1611.7678" cy="-113.4156" rx="73.9667" ry="29.3315"/>
<text text-anchor="middle" x="1611.7678" y="-117.6156" font-family="Times,serif" font-size="14.00" fill="#000000">s308 SYMBOL</text>
<text text-anchor="middle" x="1611.7678" y="-100.8156" font-family="Times,serif" font-size="14.00" fill="#000000">where_clause</text>
</a>
</g>
</g>
<!-- s307&#45;&gt;s308 -->
<g id="edge10" class="edge">
<title>s307:p0&#45;&gt;s308</title>
<path fill="none" stroke="#000000" d="M1425.8594,-86.4156C1462.5098,-86.4156 1502.8064,-91.6183 1536.486,-97.456"/>
<polygon fill="#000000" stroke="#000000" points="1536.2548,-100.97 1546.7145,-99.283 1537.4857,-94.0791 1536.2548,-100.97"/>
<text text-anchor="middle" x="1481.9471" y="-97.6156" font-family="Times,serif" font-size="14.00" fill="#000000">where_clause</text>
</g>
<!-- s309 -->
<g id="node12" class="node">
<title>s309</title>
<ellipse fill="none" stroke="#000000" cx="1611.7678" cy="-36.4156" rx="45.3054" ry="29.3315"/>
<text text-anchor="middle" x="1611.7678" y="-40.6156" font-family="Times,serif" font-size="14.00" fill="#000000">s309 </text>
<text text-anchor="middle" x="1611.7678" y="-23.8156" font-family="Times,serif" font-size="14.00" fill="#000000">BLANK</text>
</g>
<!-- s307&#45;&gt;s309 -->
<g id="edge11" class="edge">
<title>s307:p1&#45;&gt;s309</title>
<path fill="none" stroke="#000000" d="M1425.8594,-62.4156C1470.841,-62.4156 1521.3598,-54.8578 1558.3693,-47.8918"/>
<polygon fill="#000000" stroke="#000000" points="1559.2783,-51.281 1568.4339,-45.9494 1557.9518,-44.4078 1559.2783,-51.281"/>
</g>
<!-- s310 -->
<g id="node13" class="node">
<title>s310</title>
<g id="a_node13"><a xlink:href="rust-grammar.json.enum_variant_list.dot.svg" xlink:title="s310 SYMBOL\nenum_variant_list">
<ellipse fill="none" stroke="#000000" cx="1805.2977" cy="-74.4156" rx="82.5944" ry="29.3315"/>
<text text-anchor="middle" x="1805.2977" y="-78.6156" font-family="Times,serif" font-size="14.00" fill="#000000">s310 SYMBOL</text>
<text text-anchor="middle" x="1805.2977" y="-61.8156" font-family="Times,serif" font-size="14.00" fill="#000000">enum_variant_list</text>
</a>
</g>
</g>
<!-- s308&#45;&gt;s310 -->
<g id="edge14" class="edge">
<title>s308&#45;&gt;s310</title>
<path fill="none" stroke="#000000" d="M1677.8285,-100.1031C1692.4699,-97.1526 1708.1576,-93.9912 1723.3465,-90.9304"/>
<polygon fill="#000000" stroke="#000000" points="1724.1282,-94.3433 1733.2397,-88.9367 1722.7453,-87.4813 1724.1282,-94.3433"/>
</g>
<!-- s309&#45;&gt;s310 -->
<g id="edge15" class="edge">
<title>s309&#45;&gt;s310</title>
<path fill="none" stroke="#000000" d="M1655.6827,-45.0384C1675.5895,-48.9472 1699.8008,-53.7011 1722.8958,-58.2359"/>
<polygon fill="#000000" stroke="#000000" points="1722.2225,-61.6704 1732.7095,-60.1628 1723.5713,-54.8016 1722.2225,-61.6704"/>
</g>
</g>
</svg>
