<?xml version="1.0" encoding="UTF-8" standalone="no"?>
<!DOCTYPE svg PUBLIC "-//W3C//DTD SVG 1.1//EN"
 "http://www.w3.org/Graphics/SVG/1.1/DTD/svg11.dtd">
<!-- Generated by graphviz version 2.40.1 (20161225.0304)
 -->
<!-- Title: token_tree Pages: 1 -->
<svg width="849pt" height="221pt"
 viewBox="0.00 0.00 849.31 220.83" xmlns="http://www.w3.org/2000/svg" xmlns:xlink="http://www.w3.org/1999/xlink">
<g id="graph0" class="graph" transform="scale(1 1) rotate(0) translate(4 216.8313)">
<title>token_tree</title>
<polygon fill="#ffffff" stroke="transparent" points="-4,4 -4,-216.8313 845.3065,-216.8313 845.3065,4 -4,4"/>
<!-- s119 -->
<g id="node1" class="node">
<title>s119</title>
<polygon fill="none" stroke="#000000" points="0,-69.2156 0,-143.6156 101.5996,-143.6156 101.5996,-69.2156 0,-69.2156"/>
<text text-anchor="middle" x="41.0498" y="-110.6156" font-family="Times,serif" font-size="14.00" fill="#000000">s119</text>
<text text-anchor="middle" x="41.0498" y="-93.8156" font-family="Times,serif" font-size="14.00" fill="#000000">→ CHOICE</text>
<polyline fill="none" stroke="#000000" points="82.0996,-69.2156 82.0996,-143.6156 "/>
<text text-anchor="middle" x="91.8496" y="-127.0156" font-family="Times,serif" font-size="14.00" fill="#000000"> </text>
<polyline fill="none" stroke="#000000" points="82.0996,-118.8156 101.5996,-118.8156 "/>
<text text-anchor="middle" x="91.8496" y="-102.2156" font-family="Times,serif" font-size="14.00" fill="#000000"> </text>
<polyline fill="none" stroke="#000000" points="82.0996,-94.0156 101.5996,-94.0156 "/>
<text text-anchor="middle" x="91.8496" y="-77.4156" font-family="Times,serif" font-size="14.00" fill="#000000"> </text>
</g>
<!-- s120 -->
<g id="node2" class="node">
<title>s120</title>
<polygon fill="none" stroke="#000000" points="137.5996,-154.6156 137.5996,-196.2156 194.0414,-196.2156 194.0414,-154.6156 137.5996,-154.6156"/>
<text text-anchor="middle" x="165.8205" y="-179.6156" font-family="Times,serif" font-size="14.00" fill="#000000">s120</text>
<text text-anchor="middle" x="165.8205" y="-162.8156" font-family="Times,serif" font-size="14.00" fill="#000000">→ SEQ</text>
</g>
<!-- s119&#45;&gt;s120 -->
<g id="edge6" class="edge">
<title>s119:p0&#45;&gt;s120</title>
<path fill="none" stroke="#000000" d="M101.5996,-131.4156C115.816,-131.4156 129.1921,-138.8441 140.0182,-147.5966"/>
<polygon fill="#000000" stroke="#000000" points="137.9601,-150.4486 147.7717,-154.4466 142.5948,-145.2026 137.9601,-150.4486"/>
</g>
<!-- s125 -->
<g id="node7" class="node">
<title>s125</title>
<polygon fill="none" stroke="#000000" points="137.5996,-85.6156 137.5996,-127.2156 194.0414,-127.2156 194.0414,-85.6156 137.5996,-85.6156"/>
<text text-anchor="middle" x="165.8205" y="-110.6156" font-family="Times,serif" font-size="14.00" fill="#000000">s125</text>
<text text-anchor="middle" x="165.8205" y="-93.8156" font-family="Times,serif" font-size="14.00" fill="#000000">→ SEQ</text>
</g>
<!-- s119&#45;&gt;s125 -->
<g id="edge12" class="edge">
<title>s119:p1&#45;&gt;s125</title>
<path fill="none" stroke="#000000" d="M101.5996,-106.4156C109.9225,-106.4156 118.8521,-106.4156 127.327,-106.4156"/>
<polygon fill="#000000" stroke="#000000" points="127.3675,-109.9157 137.3675,-106.4156 127.3675,-102.9157 127.3675,-109.9157"/>
</g>
<!-- s130 -->
<g id="node12" class="node">
<title>s130</title>
<polygon fill="none" stroke="#000000" points="137.5996,-16.6156 137.5996,-58.2156 194.0414,-58.2156 194.0414,-16.6156 137.5996,-16.6156"/>
<text text-anchor="middle" x="165.8205" y="-41.6156" font-family="Times,serif" font-size="14.00" fill="#000000">s130</text>
<text text-anchor="middle" x="165.8205" y="-24.8156" font-family="Times,serif" font-size="14.00" fill="#000000">→ SEQ</text>
</g>
<!-- s119&#45;&gt;s130 -->
<g id="edge18" class="edge">
<title>s119:p2&#45;&gt;s130</title>
<path fill="none" stroke="#000000" d="M101.5996,-81.4156C115.816,-81.4156 129.1921,-73.9871 140.0182,-65.2347"/>
<polygon fill="#000000" stroke="#000000" points="142.5948,-67.6287 147.7717,-58.3847 137.9601,-62.3827 142.5948,-67.6287"/>
</g>
<!-- s121 -->
<g id="node3" class="node">
<title>s121</title>
<ellipse fill="none" stroke="#000000" cx="298.2703" cy="-183.4156" rx="68.4585" ry="29.3315"/>
<text text-anchor="middle" x="298.2703" y="-187.6156" font-family="Times,serif" font-size="14.00" fill="#000000">s121 STRING</text>
<text text-anchor="middle" x="298.2703" y="-170.8156" font-family="Times,serif" font-size="14.00" fill="#000000">&quot;(&quot;</text>
</g>
<!-- s120&#45;&gt;s121 -->
<g id="edge1" class="edge">
<title>s120&#45;&gt;s121</title>
<path fill="none" stroke="#000000" d="M194.2343,-177.1318C202.1051,-177.6072 211.0475,-178.1474 220.3061,-178.7066"/>
<polygon fill="#000000" stroke="#000000" points="220.2482,-182.2094 230.4411,-179.3187 220.6703,-175.2221 220.2482,-182.2094"/>
</g>
<!-- s122 -->
<g id="node4" class="node">
<title>s122</title>
<polygon fill="none" stroke="#000000" points="402.4991,-162.6156 402.4991,-204.2156 485.3827,-204.2156 485.3827,-162.6156 402.4991,-162.6156"/>
<text text-anchor="middle" x="443.9409" y="-187.6156" font-family="Times,serif" font-size="14.00" fill="#000000">s122</text>
<text text-anchor="middle" x="443.9409" y="-170.8156" font-family="Times,serif" font-size="14.00" fill="#000000">→ REPEAT</text>
</g>
<!-- s121&#45;&gt;s122 -->
<g id="edge4" class="edge">
<title>s121&#45;&gt;s122</title>
<path fill="none" stroke="#000000" d="M366.8401,-183.4156C375.3495,-183.4156 383.9367,-183.4156 392.1352,-183.4156"/>
<polygon fill="#000000" stroke="#000000" points="392.2768,-186.9157 402.2768,-183.4156 392.2768,-179.9157 392.2768,-186.9157"/>
</g>
<!-- s123 -->
<g id="node5" class="node">
<title>s123</title>
<g id="a_node5"><a xlink:href="rust-grammar.json._tokens.dot.svg" xlink:title="s123 SYMBOL\n_tokens">
<ellipse fill="none" stroke="#000000" cx="595.1157" cy="-183.4156" rx="73.9667" ry="29.3315"/>
<text text-anchor="middle" x="595.1157" y="-187.6156" font-family="Times,serif" font-size="14.00" fill="#000000">s123 SYMBOL</text>
<text text-anchor="middle" x="595.1157" y="-170.8156" font-family="Times,serif" font-size="14.00" fill="#000000">_tokens</text>
</a>
</g>
</g>
<!-- s122&#45;&gt;s123 -->
<g id="edge2" class="edge">
<title>s122&#45;&gt;s123</title>
<path fill="none" stroke="#000000" d="M485.6503,-177.3084C494.1865,-176.9618 503.4494,-176.7553 512.8512,-176.6891"/>
<polygon fill="#000000" stroke="#000000" points="513.0857,-180.1888 523.0799,-176.6723 513.0741,-173.1888 513.0857,-180.1888"/>
</g>
<!-- s123&#45;&gt;s122 -->
<g id="edge3" class="edge">
<title>s123&#45;&gt;s122</title>
<path fill="none" stroke="#000000" d="M523.0799,-190.159C513.8551,-190.1935 504.5596,-190.0936 495.7446,-189.8594"/>
<polygon fill="#000000" stroke="#000000" points="495.7614,-186.3581 485.6503,-189.5228 495.5281,-193.3543 495.7614,-186.3581"/>
</g>
<!-- s124 -->
<g id="node6" class="node">
<title>s124</title>
<ellipse fill="none" stroke="#000000" cx="773.0776" cy="-183.4156" rx="68.4585" ry="29.3315"/>
<text text-anchor="middle" x="773.0776" y="-187.6156" font-family="Times,serif" font-size="14.00" fill="#000000">s124 STRING</text>
<text text-anchor="middle" x="773.0776" y="-170.8156" font-family="Times,serif" font-size="14.00" fill="#000000">&quot;)&quot;</text>
</g>
<!-- s123&#45;&gt;s124 -->
<g id="edge5" class="edge">
<title>s123&#45;&gt;s124</title>
<path fill="none" stroke="#000000" d="M669.0415,-183.4156C677.4603,-183.4156 686.0642,-183.4156 694.5399,-183.4156"/>
<polygon fill="#000000" stroke="#000000" points="694.7938,-186.9157 704.7938,-183.4156 694.7938,-179.9157 694.7938,-186.9157"/>
</g>
<!-- s126 -->
<g id="node8" class="node">
<title>s126</title>
<ellipse fill="none" stroke="#000000" cx="298.2703" cy="-106.4156" rx="68.4585" ry="29.3315"/>
<text text-anchor="middle" x="298.2703" y="-110.6156" font-family="Times,serif" font-size="14.00" fill="#000000">s126 STRING</text>
<text text-anchor="middle" x="298.2703" y="-93.8156" font-family="Times,serif" font-size="14.00" fill="#000000">&quot;[&quot;</text>
</g>
<!-- s125&#45;&gt;s126 -->
<g id="edge7" class="edge">
<title>s125&#45;&gt;s126</title>
<path fill="none" stroke="#000000" d="M194.2343,-106.4156C201.9109,-106.4156 210.6069,-106.4156 219.6214,-106.4156"/>
<polygon fill="#000000" stroke="#000000" points="219.8972,-109.9157 229.8971,-106.4156 219.8971,-102.9157 219.8972,-109.9157"/>
</g>
<!-- s127 -->
<g id="node9" class="node">
<title>s127</title>
<polygon fill="none" stroke="#000000" points="402.4991,-85.6156 402.4991,-127.2156 485.3827,-127.2156 485.3827,-85.6156 402.4991,-85.6156"/>
<text text-anchor="middle" x="443.9409" y="-110.6156" font-family="Times,serif" font-size="14.00" fill="#000000">s127</text>
<text text-anchor="middle" x="443.9409" y="-93.8156" font-family="Times,serif" font-size="14.00" fill="#000000">→ REPEAT</text>
</g>
<!-- s126&#45;&gt;s127 -->
<g id="edge10" class="edge">
<title>s126&#45;&gt;s127</title>
<path fill="none" stroke="#000000" d="M366.8401,-106.4156C375.3495,-106.4156 383.9367,-106.4156 392.1352,-106.4156"/>
<polygon fill="#000000" stroke="#000000" points="392.2768,-109.9157 402.2768,-106.4156 392.2768,-102.9157 392.2768,-109.9157"/>
</g>
<!-- s128 -->
<g id="node10" class="node">
<title>s128</title>
<g id="a_node10"><a xlink:href="rust-grammar.json._tokens.dot.svg" xlink:title="s128 SYMBOL\n_tokens">
<ellipse fill="none" stroke="#000000" cx="595.1157" cy="-106.4156" rx="73.9667" ry="29.3315"/>
<text text-anchor="middle" x="595.1157" y="-110.6156" font-family="Times,serif" font-size="14.00" fill="#000000">s128 SYMBOL</text>
<text text-anchor="middle" x="595.1157" y="-93.8156" font-family="Times,serif" font-size="14.00" fill="#000000">_tokens</text>
</a>
</g>
</g>
<!-- s127&#45;&gt;s128 -->
<g id="edge8" class="edge">
<title>s127&#45;&gt;s128</title>
<path fill="none" stroke="#000000" d="M485.6503,-100.3084C494.1865,-99.9618 503.4494,-99.7553 512.8512,-99.6891"/>
<polygon fill="#000000" stroke="#000000" points="513.0857,-103.1888 523.0799,-99.6723 513.0741,-96.1888 513.0857,-103.1888"/>
</g>
<!-- s128&#45;&gt;s127 -->
<g id="edge9" class="edge">
<title>s128&#45;&gt;s127</title>
<path fill="none" stroke="#000000" d="M523.0799,-113.159C513.8551,-113.1935 504.5596,-113.0936 495.7446,-112.8594"/>
<polygon fill="#000000" stroke="#000000" points="495.7614,-109.3581 485.6503,-112.5228 495.5281,-116.3543 495.7614,-109.3581"/>
</g>
<!-- s129 -->
<g id="node11" class="node">
<title>s129</title>
<ellipse fill="none" stroke="#000000" cx="773.0776" cy="-106.4156" rx="68.4585" ry="29.3315"/>
<text text-anchor="middle" x="773.0776" y="-110.6156" font-family="Times,serif" font-size="14.00" fill="#000000">s129 STRING</text>
<text text-anchor="middle" x="773.0776" y="-93.8156" font-family="Times,serif" font-size="14.00" fill="#000000">&quot;]&quot;</text>
</g>
<!-- s128&#45;&gt;s129 -->
<g id="edge11" class="edge">
<title>s128&#45;&gt;s129</title>
<path fill="none" stroke="#000000" d="M669.0415,-106.4156C677.4603,-106.4156 686.0642,-106.4156 694.5399,-106.4156"/>
<polygon fill="#000000" stroke="#000000" points="694.7938,-109.9157 704.7938,-106.4156 694.7938,-102.9157 694.7938,-109.9157"/>
</g>
<!-- s131 -->
<g id="node13" class="node">
<title>s131</title>
<ellipse fill="none" stroke="#000000" cx="298.2703" cy="-29.4156" rx="68.4585" ry="29.3315"/>
<text text-anchor="middle" x="298.2703" y="-33.6156" font-family="Times,serif" font-size="14.00" fill="#000000">s131 STRING</text>
<text text-anchor="middle" x="298.2703" y="-16.8156" font-family="Times,serif" font-size="14.00" fill="#000000">&quot;{&quot;</text>
</g>
<!-- s130&#45;&gt;s131 -->
<g id="edge13" class="edge">
<title>s130&#45;&gt;s131</title>
<path fill="none" stroke="#000000" d="M194.2343,-35.6994C202.1051,-35.224 211.0475,-34.6839 220.3061,-34.1247"/>
<polygon fill="#000000" stroke="#000000" points="220.6703,-37.6092 230.4411,-33.5125 220.2482,-30.6219 220.6703,-37.6092"/>
</g>
<!-- s132 -->
<g id="node14" class="node">
<title>s132</title>
<polygon fill="none" stroke="#000000" points="402.4991,-8.6156 402.4991,-50.2156 485.3827,-50.2156 485.3827,-8.6156 402.4991,-8.6156"/>
<text text-anchor="middle" x="443.9409" y="-33.6156" font-family="Times,serif" font-size="14.00" fill="#000000">s132</text>
<text text-anchor="middle" x="443.9409" y="-16.8156" font-family="Times,serif" font-size="14.00" fill="#000000">→ REPEAT</text>
</g>
<!-- s131&#45;&gt;s132 -->
<g id="edge16" class="edge">
<title>s131&#45;&gt;s132</title>
<path fill="none" stroke="#000000" d="M366.8401,-29.4156C375.3495,-29.4156 383.9367,-29.4156 392.1352,-29.4156"/>
<polygon fill="#000000" stroke="#000000" points="392.2768,-32.9157 402.2768,-29.4156 392.2768,-25.9157 392.2768,-32.9157"/>
</g>
<!-- s133 -->
<g id="node15" class="node">
<title>s133</title>
<g id="a_node15"><a xlink:href="rust-grammar.json._tokens.dot.svg" xlink:title="s133 SYMBOL\n_tokens">
<ellipse fill="none" stroke="#000000" cx="595.1157" cy="-29.4156" rx="73.9667" ry="29.3315"/>
<text text-anchor="middle" x="595.1157" y="-33.6156" font-family="Times,serif" font-size="14.00" fill="#000000">s133 SYMBOL</text>
<text text-anchor="middle" x="595.1157" y="-16.8156" font-family="Times,serif" font-size="14.00" fill="#000000">_tokens</text>
</a>
</g>
</g>
<!-- s132&#45;&gt;s133 -->
<g id="edge14" class="edge">
<title>s132&#45;&gt;s133</title>
<path fill="none" stroke="#000000" d="M485.6503,-23.3084C494.1865,-22.9618 503.4494,-22.7553 512.8512,-22.6891"/>
<polygon fill="#000000" stroke="#000000" points="513.0857,-26.1888 523.0799,-22.6723 513.0741,-19.1888 513.0857,-26.1888"/>
</g>
<!-- s133&#45;&gt;s132 -->
<g id="edge15" class="edge">
<title>s133&#45;&gt;s132</title>
<path fill="none" stroke="#000000" d="M523.0799,-36.159C513.8551,-36.1935 504.5596,-36.0936 495.7446,-35.8594"/>
<polygon fill="#000000" stroke="#000000" points="495.7614,-32.3581 485.6503,-35.5228 495.5281,-39.3543 495.7614,-32.3581"/>
</g>
<!-- s134 -->
<g id="node16" class="node">
<title>s134</title>
<ellipse fill="none" stroke="#000000" cx="773.0776" cy="-29.4156" rx="68.4585" ry="29.3315"/>
<text text-anchor="middle" x="773.0776" y="-33.6156" font-family="Times,serif" font-size="14.00" fill="#000000">s134 STRING</text>
<text text-anchor="middle" x="773.0776" y="-16.8156" font-family="Times,serif" font-size="14.00" fill="#000000">&quot;}&quot;</text>
</g>
<!-- s133&#45;&gt;s134 -->
<g id="edge17" class="edge">
<title>s133&#45;&gt;s134</title>
<path fill="none" stroke="#000000" d="M669.0415,-29.4156C677.4603,-29.4156 686.0642,-29.4156 694.5399,-29.4156"/>
<polygon fill="#000000" stroke="#000000" points="694.7938,-32.9157 704.7938,-29.4156 694.7938,-25.9157 694.7938,-32.9157"/>
</g>
</g>
</svg>
