<?xml version="1.0" encoding="UTF-8" standalone="no"?>
<!DOCTYPE svg PUBLIC "-//W3C//DTD SVG 1.1//EN"
 "http://www.w3.org/Graphics/SVG/1.1/DTD/svg11.dtd">
<!-- Generated by graphviz version 2.40.1 (20161225.0304)
 -->
<!-- Title: type_item Pages: 1 -->
<svg width="1827pt" height="144pt"
 viewBox="0.00 0.00 1826.64 143.83" xmlns="http://www.w3.org/2000/svg" xmlns:xlink="http://www.w3.org/1999/xlink">
<g id="graph0" class="graph" transform="scale(1 1) rotate(0) translate(4 139.8313)">
<title>type_item</title>
<polygon fill="#ffffff" stroke="transparent" points="-4,4 -4,-139.8313 1822.6413,-139.8313 1822.6413,4 -4,4"/>
<!-- s446 -->
<g id="node1" class="node">
<title>s446</title>
<polygon fill="none" stroke="#000000" points="0,-46.6156 0,-88.2156 56.4418,-88.2156 56.4418,-46.6156 0,-46.6156"/>
<text text-anchor="middle" x="28.2209" y="-71.6156" font-family="Times,serif" font-size="14.00" fill="#000000">s446</text>
<text text-anchor="middle" x="28.2209" y="-54.8156" font-family="Times,serif" font-size="14.00" fill="#000000">→ SEQ</text>
</g>
<!-- s447 -->
<g id="node2" class="node">
<title>s447</title>
<polygon fill="none" stroke="#000000" points="93.4418,-42.6156 93.4418,-92.2156 195.0414,-92.2156 195.0414,-42.6156 93.4418,-42.6156"/>
<text text-anchor="middle" x="134.4916" y="-71.6156" font-family="Times,serif" font-size="14.00" fill="#000000">s447</text>
<text text-anchor="middle" x="134.4916" y="-54.8156" font-family="Times,serif" font-size="14.00" fill="#000000">→ CHOICE</text>
<polyline fill="none" stroke="#000000" points="175.5414,-42.6156 175.5414,-92.2156 "/>
<text text-anchor="middle" x="185.2914" y="-75.6156" font-family="Times,serif" font-size="14.00" fill="#000000"> </text>
<polyline fill="none" stroke="#000000" points="175.5414,-67.4156 195.0414,-67.4156 "/>
<text text-anchor="middle" x="185.2914" y="-50.8156" font-family="Times,serif" font-size="14.00" fill="#000000"> </text>
</g>
<!-- s446&#45;&gt;s447 -->
<g id="edge3" class="edge">
<title>s446&#45;&gt;s447</title>
<path fill="none" stroke="#000000" d="M56.6028,-67.4156C64.6824,-67.4156 73.8102,-67.4156 83.0459,-67.4156"/>
<polygon fill="#000000" stroke="#000000" points="83.0657,-70.9157 93.0657,-67.4156 83.0656,-63.9157 83.0657,-70.9157"/>
</g>
<!-- s448 -->
<g id="node3" class="node">
<title>s448</title>
<g id="a_node3"><a xlink:href="rust-grammar.json.visibility_modifier.dot.svg" xlink:title="s448 SYMBOL\nvisibility_modifier">
<ellipse fill="none" stroke="#000000" cx="421.5942" cy="-106.4156" rx="85.6139" ry="29.3315"/>
<text text-anchor="middle" x="421.5942" y="-110.6156" font-family="Times,serif" font-size="14.00" fill="#000000">s448 SYMBOL</text>
<text text-anchor="middle" x="421.5942" y="-93.8156" font-family="Times,serif" font-size="14.00" fill="#000000">visibility_modifier</text>
</a>
</g>
</g>
<!-- s447&#45;&gt;s448 -->
<g id="edge1" class="edge">
<title>s447:p0&#45;&gt;s448</title>
<path fill="none" stroke="#000000" d="M195.0414,-79.4156C241.7047,-79.4156 293.3969,-85.1333 335.6079,-91.3063"/>
<polygon fill="#000000" stroke="#000000" points="335.1618,-94.7784 345.5697,-92.797 336.1978,-87.8555 335.1618,-94.7784"/>
<text text-anchor="middle" x="265.5393" y="-91.6156" font-family="Times,serif" font-size="14.00" fill="#000000">visibility_modifier</text>
</g>
<!-- s449 -->
<g id="node4" class="node">
<title>s449</title>
<ellipse fill="none" stroke="#000000" cx="421.5942" cy="-29.4156" rx="45.3054" ry="29.3315"/>
<text text-anchor="middle" x="421.5942" y="-33.6156" font-family="Times,serif" font-size="14.00" fill="#000000">s449 </text>
<text text-anchor="middle" x="421.5942" y="-16.8156" font-family="Times,serif" font-size="14.00" fill="#000000">BLANK</text>
</g>
<!-- s447&#45;&gt;s449 -->
<g id="edge2" class="edge">
<title>s447:p1&#45;&gt;s449</title>
<path fill="none" stroke="#000000" d="M195.0414,-55.4156C254.3,-55.4156 321.7121,-46.5273 367.4852,-39.1445"/>
<polygon fill="#000000" stroke="#000000" points="368.187,-42.5761 377.4865,-37.4997 367.051,-35.6689 368.187,-42.5761"/>
</g>
<!-- s450 -->
<g id="node5" class="node">
<title>s450</title>
<ellipse fill="none" stroke="#000000" cx="612.38" cy="-67.4156" rx="68.4585" ry="29.3315"/>
<text text-anchor="middle" x="612.38" y="-71.6156" font-family="Times,serif" font-size="14.00" fill="#000000">s450 STRING</text>
<text text-anchor="middle" x="612.38" y="-54.8156" font-family="Times,serif" font-size="14.00" fill="#000000">&quot;type&quot;</text>
</g>
<!-- s448&#45;&gt;s450 -->
<g id="edge4" class="edge">
<title>s448&#45;&gt;s450</title>
<path fill="none" stroke="#000000" d="M495.3569,-91.3372C510.1812,-88.3069 525.7411,-85.1262 540.5001,-82.1092"/>
<polygon fill="#000000" stroke="#000000" points="541.4747,-85.4824 550.5711,-80.0505 540.0727,-78.6242 541.4747,-85.4824"/>
</g>
<!-- s449&#45;&gt;s450 -->
<g id="edge5" class="edge">
<title>s449&#45;&gt;s450</title>
<path fill="none" stroke="#000000" d="M465.3643,-38.1336C487.6049,-42.5634 515.2029,-48.0603 540.4601,-53.0909"/>
<polygon fill="#000000" stroke="#000000" points="539.8855,-56.5451 550.3765,-55.066 541.2529,-49.68 539.8855,-56.5451"/>
</g>
<!-- s451 -->
<g id="node6" class="node">
<title>s451</title>
<g id="a_node6"><a xlink:href="rust-grammar.json._type_identifier.dot.svg" xlink:title="s451 SYMBOL\n_type_identifier">
<ellipse fill="none" stroke="#000000" cx="792.1506" cy="-67.4156" rx="74.5836" ry="29.3315"/>
<text text-anchor="middle" x="792.1506" y="-71.6156" font-family="Times,serif" font-size="14.00" fill="#000000">s451 SYMBOL</text>
<text text-anchor="middle" x="792.1506" y="-54.8156" font-family="Times,serif" font-size="14.00" fill="#000000">_type_identifier</text>
</a>
</g>
</g>
<!-- s450&#45;&gt;s451 -->
<g id="edge6" class="edge">
<title>s450&#45;&gt;s451</title>
<path fill="none" stroke="#000000" d="M680.8564,-67.4156C689.5796,-67.4156 698.5885,-67.4156 707.5278,-67.4156"/>
<polygon fill="#000000" stroke="#000000" points="707.572,-70.9157 717.5719,-67.4156 707.5719,-63.9157 707.572,-70.9157"/>
</g>
<!-- s452 -->
<g id="node7" class="node">
<title>s452</title>
<polygon fill="none" stroke="#000000" points="903.6924,-42.6156 903.6924,-92.2156 1005.292,-92.2156 1005.292,-42.6156 903.6924,-42.6156"/>
<text text-anchor="middle" x="944.7422" y="-71.6156" font-family="Times,serif" font-size="14.00" fill="#000000">s452</text>
<text text-anchor="middle" x="944.7422" y="-54.8156" font-family="Times,serif" font-size="14.00" fill="#000000">→ CHOICE</text>
<polyline fill="none" stroke="#000000" points="985.792,-42.6156 985.792,-92.2156 "/>
<text text-anchor="middle" x="995.542" y="-75.6156" font-family="Times,serif" font-size="14.00" fill="#000000"> </text>
<polyline fill="none" stroke="#000000" points="985.792,-67.4156 1005.292,-67.4156 "/>
<text text-anchor="middle" x="995.542" y="-50.8156" font-family="Times,serif" font-size="14.00" fill="#000000"> </text>
</g>
<!-- s451&#45;&gt;s452 -->
<g id="edge9" class="edge">
<title>s451&#45;&gt;s452</title>
<path fill="none" stroke="#000000" d="M867.1438,-67.4156C875.8853,-67.4156 884.7228,-67.4156 893.2478,-67.4156"/>
<polygon fill="#000000" stroke="#000000" points="893.464,-70.9157 903.464,-67.4156 893.4639,-63.9157 893.464,-70.9157"/>
</g>
<!-- s453 -->
<g id="node8" class="node">
<title>s453</title>
<g id="a_node8"><a xlink:href="rust-grammar.json.type_parameters.dot.svg" xlink:title="s453 SYMBOL\ntype_parameters">
<ellipse fill="none" stroke="#000000" cx="1210.5312" cy="-106.4156" rx="76.9578" ry="29.3315"/>
<text text-anchor="middle" x="1210.5312" y="-110.6156" font-family="Times,serif" font-size="14.00" fill="#000000">s453 SYMBOL</text>
<text text-anchor="middle" x="1210.5312" y="-93.8156" font-family="Times,serif" font-size="14.00" fill="#000000">type_parameters</text>
</a>
</g>
</g>
<!-- s452&#45;&gt;s453 -->
<g id="edge7" class="edge">
<title>s452:p0&#45;&gt;s453</title>
<path fill="none" stroke="#000000" d="M1005.292,-79.4156C1047.3552,-79.4156 1093.8564,-85.0593 1131.9454,-91.1861"/>
<polygon fill="#000000" stroke="#000000" points="1131.5093,-94.6614 1141.9458,-92.8365 1132.6492,-87.7549 1131.5093,-94.6614"/>
<text text-anchor="middle" x="1069.5473" y="-91.6156" font-family="Times,serif" font-size="14.00" fill="#000000">type_parameters</text>
</g>
<!-- s454 -->
<g id="node9" class="node">
<title>s454</title>
<ellipse fill="none" stroke="#000000" cx="1210.5312" cy="-29.4156" rx="45.3054" ry="29.3315"/>
<text text-anchor="middle" x="1210.5312" y="-33.6156" font-family="Times,serif" font-size="14.00" fill="#000000">s454 </text>
<text text-anchor="middle" x="1210.5312" y="-16.8156" font-family="Times,serif" font-size="14.00" fill="#000000">BLANK</text>
</g>
<!-- s452&#45;&gt;s454 -->
<g id="edge8" class="edge">
<title>s452:p1&#45;&gt;s454</title>
<path fill="none" stroke="#000000" d="M1005.292,-55.4156C1057.2199,-55.4156 1115.9563,-47.1228 1157.2481,-39.904"/>
<polygon fill="#000000" stroke="#000000" points="1157.8638,-43.3495 1167.0925,-38.1456 1156.6329,-36.4586 1157.8638,-43.3495"/>
</g>
<!-- s455 -->
<g id="node10" class="node">
<title>s455</title>
<ellipse fill="none" stroke="#000000" cx="1392.4887" cy="-67.4156" rx="68.4585" ry="29.3315"/>
<text text-anchor="middle" x="1392.4887" y="-71.6156" font-family="Times,serif" font-size="14.00" fill="#000000">s455 STRING</text>
<text text-anchor="middle" x="1392.4887" y="-54.8156" font-family="Times,serif" font-size="14.00" fill="#000000">&quot;=&quot;</text>
</g>
<!-- s453&#45;&gt;s455 -->
<g id="edge10" class="edge">
<title>s453&#45;&gt;s455</title>
<path fill="none" stroke="#000000" d="M1277.5103,-92.0596C1291.8361,-88.9891 1307.0169,-85.7353 1321.4883,-82.6336"/>
<polygon fill="#000000" stroke="#000000" points="1322.3301,-86.0327 1331.3745,-80.5146 1320.863,-79.1882 1322.3301,-86.0327"/>
</g>
<!-- s454&#45;&gt;s455 -->
<g id="edge11" class="edge">
<title>s454&#45;&gt;s455</title>
<path fill="none" stroke="#000000" d="M1254.1145,-38.5176C1274.1716,-42.7063 1298.4925,-47.7855 1321.1154,-52.5101"/>
<polygon fill="#000000" stroke="#000000" points="1320.5235,-55.9619 1331.0279,-54.5802 1321.9546,-49.1097 1320.5235,-55.9619"/>
</g>
<!-- s456 -->
<g id="node11" class="node">
<title>s456</title>
<g id="a_node11"><a xlink:href="rust-grammar.json._type.dot.svg" xlink:title="s456 SYMBOL\n_type">
<ellipse fill="none" stroke="#000000" cx="1571.4505" cy="-67.4156" rx="73.9667" ry="29.3315"/>
<text text-anchor="middle" x="1571.4505" y="-71.6156" font-family="Times,serif" font-size="14.00" fill="#000000">s456 SYMBOL</text>
<text text-anchor="middle" x="1571.4505" y="-54.8156" font-family="Times,serif" font-size="14.00" fill="#000000">_type</text>
</a>
</g>
</g>
<!-- s455&#45;&gt;s456 -->
<g id="edge12" class="edge">
<title>s455&#45;&gt;s456</title>
<path fill="none" stroke="#000000" d="M1460.9125,-67.4156C1469.6591,-67.4156 1478.6903,-67.4156 1487.6454,-67.4156"/>
<polygon fill="#000000" stroke="#000000" points="1487.7045,-70.9157 1497.7044,-67.4156 1487.7044,-63.9157 1487.7045,-70.9157"/>
</g>
<!-- s457 -->
<g id="node12" class="node">
<title>s457</title>
<ellipse fill="none" stroke="#000000" cx="1750.4124" cy="-67.4156" rx="68.4585" ry="29.3315"/>
<text text-anchor="middle" x="1750.4124" y="-71.6156" font-family="Times,serif" font-size="14.00" fill="#000000">s457 STRING</text>
<text text-anchor="middle" x="1750.4124" y="-54.8156" font-family="Times,serif" font-size="14.00" fill="#000000">&quot;;&quot;</text>
</g>
<!-- s456&#45;&gt;s457 -->
<g id="edge13" class="edge">
<title>s456&#45;&gt;s457</title>
<path fill="none" stroke="#000000" d="M1645.2744,-67.4156C1653.994,-67.4156 1662.9184,-67.4156 1671.7023,-67.4156"/>
<polygon fill="#000000" stroke="#000000" points="1671.9287,-70.9157 1681.9286,-67.4156 1671.9286,-63.9157 1671.9287,-70.9157"/>
</g>
</g>
</svg>
