<?xml version="1.0" encoding="UTF-8" standalone="no"?>
<!DOCTYPE svg PUBLIC "-//W3C//DTD SVG 1.1//EN"
 "http://www.w3.org/Graphics/SVG/1.1/DTD/svg11.dtd">
<!-- Generated by graphviz version 2.40.1 (20161225.0304)
 -->
<!-- Title: static_item Pages: 1 -->
<svg width="2850pt" height="151pt"
 viewBox="0.00 0.00 2850.17 150.83" xmlns="http://www.w3.org/2000/svg" xmlns:xlink="http://www.w3.org/1999/xlink">
<g id="graph0" class="graph" transform="scale(1 1) rotate(0) translate(4 146.8313)">
<title>static_item</title>
<polygon fill="#ffffff" stroke="transparent" points="-4,4 -4,-146.8313 2846.1727,-146.8313 2846.1727,4 -4,4"/>
<!-- s426 -->
<g id="node1" class="node">
<title>s426</title>
<polygon fill="none" stroke="#000000" points="0,-46.6156 0,-88.2156 56.4418,-88.2156 56.4418,-46.6156 0,-46.6156"/>
<text text-anchor="middle" x="28.2209" y="-71.6156" font-family="Times,serif" font-size="14.00" fill="#000000">s426</text>
<text text-anchor="middle" x="28.2209" y="-54.8156" font-family="Times,serif" font-size="14.00" fill="#000000">→ SEQ</text>
</g>
<!-- s427 -->
<g id="node2" class="node">
<title>s427</title>
<polygon fill="none" stroke="#000000" points="93.4418,-42.6156 93.4418,-92.2156 195.0414,-92.2156 195.0414,-42.6156 93.4418,-42.6156"/>
<text text-anchor="middle" x="134.4916" y="-71.6156" font-family="Times,serif" font-size="14.00" fill="#000000">s427</text>
<text text-anchor="middle" x="134.4916" y="-54.8156" font-family="Times,serif" font-size="14.00" fill="#000000">→ CHOICE</text>
<polyline fill="none" stroke="#000000" points="175.5414,-42.6156 175.5414,-92.2156 "/>
<text text-anchor="middle" x="185.2914" y="-75.6156" font-family="Times,serif" font-size="14.00" fill="#000000"> </text>
<polyline fill="none" stroke="#000000" points="175.5414,-67.4156 195.0414,-67.4156 "/>
<text text-anchor="middle" x="185.2914" y="-50.8156" font-family="Times,serif" font-size="14.00" fill="#000000"> </text>
</g>
<!-- s426&#45;&gt;s427 -->
<g id="edge3" class="edge">
<title>s426&#45;&gt;s427</title>
<path fill="none" stroke="#000000" d="M56.6028,-67.4156C64.6824,-67.4156 73.8102,-67.4156 83.0459,-67.4156"/>
<polygon fill="#000000" stroke="#000000" points="83.0657,-70.9157 93.0657,-67.4156 83.0656,-63.9157 83.0657,-70.9157"/>
</g>
<!-- s428 -->
<g id="node3" class="node">
<title>s428</title>
<g id="a_node3"><a xlink:href="rust-grammar.json.visibility_modifier.dot.svg" xlink:title="s428 SYMBOL\nvisibility_modifier">
<ellipse fill="none" stroke="#000000" cx="421.5942" cy="-106.4156" rx="85.6139" ry="29.3315"/>
<text text-anchor="middle" x="421.5942" y="-110.6156" font-family="Times,serif" font-size="14.00" fill="#000000">s428 SYMBOL</text>
<text text-anchor="middle" x="421.5942" y="-93.8156" font-family="Times,serif" font-size="14.00" fill="#000000">visibility_modifier</text>
</a>
</g>
</g>
<!-- s427&#45;&gt;s428 -->
<g id="edge1" class="edge">
<title>s427:p0&#45;&gt;s428</title>
<path fill="none" stroke="#000000" d="M195.0414,-79.4156C241.7047,-79.4156 293.3969,-85.1333 335.6079,-91.3063"/>
<polygon fill="#000000" stroke="#000000" points="335.1618,-94.7784 345.5697,-92.797 336.1978,-87.8555 335.1618,-94.7784"/>
<text text-anchor="middle" x="265.5393" y="-91.6156" font-family="Times,serif" font-size="14.00" fill="#000000">visibility_modifier</text>
</g>
<!-- s429 -->
<g id="node4" class="node">
<title>s429</title>
<ellipse fill="none" stroke="#000000" cx="421.5942" cy="-29.4156" rx="45.3054" ry="29.3315"/>
<text text-anchor="middle" x="421.5942" y="-33.6156" font-family="Times,serif" font-size="14.00" fill="#000000">s429 </text>
<text text-anchor="middle" x="421.5942" y="-16.8156" font-family="Times,serif" font-size="14.00" fill="#000000">BLANK</text>
</g>
<!-- s427&#45;&gt;s429 -->
<g id="edge2" class="edge">
<title>s427:p1&#45;&gt;s429</title>
<path fill="none" stroke="#000000" d="M195.0414,-55.4156C254.3,-55.4156 321.7121,-46.5273 367.4852,-39.1445"/>
<polygon fill="#000000" stroke="#000000" points="368.187,-42.5761 377.4865,-37.4997 367.051,-35.6689 368.187,-42.5761"/>
</g>
<!-- s430 -->
<g id="node5" class="node">
<title>s430</title>
<ellipse fill="none" stroke="#000000" cx="612.38" cy="-67.4156" rx="68.4585" ry="29.3315"/>
<text text-anchor="middle" x="612.38" y="-71.6156" font-family="Times,serif" font-size="14.00" fill="#000000">s430 STRING</text>
<text text-anchor="middle" x="612.38" y="-54.8156" font-family="Times,serif" font-size="14.00" fill="#000000">&quot;static&quot;</text>
</g>
<!-- s428&#45;&gt;s430 -->
<g id="edge4" class="edge">
<title>s428&#45;&gt;s430</title>
<path fill="none" stroke="#000000" d="M495.3569,-91.3372C510.1812,-88.3069 525.7411,-85.1262 540.5001,-82.1092"/>
<polygon fill="#000000" stroke="#000000" points="541.4747,-85.4824 550.5711,-80.0505 540.0727,-78.6242 541.4747,-85.4824"/>
</g>
<!-- s429&#45;&gt;s430 -->
<g id="edge5" class="edge">
<title>s429&#45;&gt;s430</title>
<path fill="none" stroke="#000000" d="M465.3643,-38.1336C487.6049,-42.5634 515.2029,-48.0603 540.4601,-53.0909"/>
<polygon fill="#000000" stroke="#000000" points="539.8855,-56.5451 550.3765,-55.066 541.2529,-49.68 539.8855,-56.5451"/>
</g>
<!-- s431 -->
<g id="node6" class="node">
<title>s431</title>
<polygon fill="none" stroke="#000000" points="717.6089,-42.6156 717.6089,-92.2156 819.2085,-92.2156 819.2085,-42.6156 717.6089,-42.6156"/>
<text text-anchor="middle" x="758.6587" y="-71.6156" font-family="Times,serif" font-size="14.00" fill="#000000">s431</text>
<text text-anchor="middle" x="758.6587" y="-54.8156" font-family="Times,serif" font-size="14.00" fill="#000000">→ CHOICE</text>
<polyline fill="none" stroke="#000000" points="799.7085,-42.6156 799.7085,-92.2156 "/>
<text text-anchor="middle" x="809.4585" y="-75.6156" font-family="Times,serif" font-size="14.00" fill="#000000"> </text>
<polyline fill="none" stroke="#000000" points="799.7085,-67.4156 819.2085,-67.4156 "/>
<text text-anchor="middle" x="809.4585" y="-50.8156" font-family="Times,serif" font-size="14.00" fill="#000000"> </text>
</g>
<!-- s430&#45;&gt;s431 -->
<g id="edge8" class="edge">
<title>s430&#45;&gt;s431</title>
<path fill="none" stroke="#000000" d="M680.8164,-67.4156C689.6442,-67.4156 698.6381,-67.4156 707.3367,-67.4156"/>
<polygon fill="#000000" stroke="#000000" points="707.3849,-70.9157 717.3848,-67.4156 707.3848,-63.9157 707.3849,-70.9157"/>
</g>
<!-- s432 -->
<g id="node7" class="node">
<title>s432</title>
<ellipse fill="none" stroke="#000000" cx="938.9731" cy="-106.4156" rx="68.4585" ry="29.3315"/>
<text text-anchor="middle" x="938.9731" y="-110.6156" font-family="Times,serif" font-size="14.00" fill="#000000">s432 STRING</text>
<text text-anchor="middle" x="938.9731" y="-93.8156" font-family="Times,serif" font-size="14.00" fill="#000000">&quot;ref&quot;</text>
</g>
<!-- s431&#45;&gt;s432 -->
<g id="edge6" class="edge">
<title>s431:p0&#45;&gt;s432</title>
<path fill="none" stroke="#000000" d="M819.2085,-79.4156C837.2041,-79.4156 856.3565,-82.3524 873.9453,-86.2889"/>
<polygon fill="#000000" stroke="#000000" points="873.5612,-89.7953 884.1001,-88.7075 875.1831,-82.9857 873.5612,-89.7953"/>
<text text-anchor="middle" x="844.9764" y="-85.6156" font-family="Times,serif" font-size="14.00" fill="#000000">ref</text>
</g>
<!-- s433 -->
<g id="node8" class="node">
<title>s433</title>
<ellipse fill="none" stroke="#000000" cx="938.9731" cy="-29.4156" rx="45.3054" ry="29.3315"/>
<text text-anchor="middle" x="938.9731" y="-33.6156" font-family="Times,serif" font-size="14.00" fill="#000000">s433 </text>
<text text-anchor="middle" x="938.9731" y="-16.8156" font-family="Times,serif" font-size="14.00" fill="#000000">BLANK</text>
</g>
<!-- s431&#45;&gt;s433 -->
<g id="edge7" class="edge">
<title>s431:p1&#45;&gt;s433</title>
<path fill="none" stroke="#000000" d="M819.2085,-55.4156C842.352,-55.4156 867.4502,-50.7217 888.6638,-45.3227"/>
<polygon fill="#000000" stroke="#000000" points="889.666,-48.6778 898.4272,-42.7203 887.8631,-41.914 889.666,-48.6778"/>
</g>
<!-- s434 -->
<g id="node9" class="node">
<title>s434</title>
<polygon fill="none" stroke="#000000" points="1044.202,-49.6156 1044.202,-99.2156 1145.8016,-99.2156 1145.8016,-49.6156 1044.202,-49.6156"/>
<text text-anchor="middle" x="1085.2518" y="-78.6156" font-family="Times,serif" font-size="14.00" fill="#000000">s434</text>
<text text-anchor="middle" x="1085.2518" y="-61.8156" font-family="Times,serif" font-size="14.00" fill="#000000">→ CHOICE</text>
<polyline fill="none" stroke="#000000" points="1126.3016,-49.6156 1126.3016,-99.2156 "/>
<text text-anchor="middle" x="1136.0516" y="-82.6156" font-family="Times,serif" font-size="14.00" fill="#000000"> </text>
<polyline fill="none" stroke="#000000" points="1126.3016,-74.4156 1145.8016,-74.4156 "/>
<text text-anchor="middle" x="1136.0516" y="-57.8156" font-family="Times,serif" font-size="14.00" fill="#000000"> </text>
</g>
<!-- s432&#45;&gt;s434 -->
<g id="edge11" class="edge">
<title>s432&#45;&gt;s434</title>
<path fill="none" stroke="#000000" d="M1000.6398,-93.7684C1011.5962,-91.5213 1023.003,-89.1819 1033.9425,-86.9383"/>
<polygon fill="#000000" stroke="#000000" points="1034.7383,-90.3481 1043.8312,-84.9103 1033.3319,-83.4908 1034.7383,-90.3481"/>
</g>
<!-- s433&#45;&gt;s434 -->
<g id="edge12" class="edge">
<title>s433&#45;&gt;s434</title>
<path fill="none" stroke="#000000" d="M980.7859,-41.4748C997.2374,-46.2196 1016.4486,-51.7602 1034.3704,-56.929"/>
<polygon fill="#000000" stroke="#000000" points="1033.5902,-60.3466 1044.1685,-59.7549 1035.5301,-53.6208 1033.5902,-60.3466"/>
</g>
<!-- s435 -->
<g id="node10" class="node">
<title>s435</title>
<g id="a_node10"><a xlink:href="rust-grammar.json.mutable_specifier.dot.svg" xlink:title="s435 SYMBOL\nmutable_specifier">
<ellipse fill="none" stroke="#000000" cx="1364.3241" cy="-113.4156" rx="82.4621" ry="29.3315"/>
<text text-anchor="middle" x="1364.3241" y="-117.6156" font-family="Times,serif" font-size="14.00" fill="#000000">s435 SYMBOL</text>
<text text-anchor="middle" x="1364.3241" y="-100.8156" font-family="Times,serif" font-size="14.00" fill="#000000">mutable_specifier</text>
</a>
</g>
</g>
<!-- s434&#45;&gt;s435 -->
<g id="edge9" class="edge">
<title>s434:p0&#45;&gt;s435</title>
<path fill="none" stroke="#000000" d="M1145.8016,-86.4156C1190.7326,-86.4156 1240.4706,-92.1074 1281.1298,-98.2644"/>
<polygon fill="#000000" stroke="#000000" points="1280.8444,-101.7619 1291.2628,-99.8365 1281.9177,-94.8447 1280.8444,-101.7619"/>
<text text-anchor="middle" x="1213.9475" y="-98.6156" font-family="Times,serif" font-size="14.00" fill="#000000">mutable_specifier</text>
</g>
<!-- s436 -->
<g id="node11" class="node">
<title>s436</title>
<ellipse fill="none" stroke="#000000" cx="1364.3241" cy="-36.4156" rx="45.3054" ry="29.3315"/>
<text text-anchor="middle" x="1364.3241" y="-40.6156" font-family="Times,serif" font-size="14.00" fill="#000000">s436 </text>
<text text-anchor="middle" x="1364.3241" y="-23.8156" font-family="Times,serif" font-size="14.00" fill="#000000">BLANK</text>
</g>
<!-- s434&#45;&gt;s436 -->
<g id="edge10" class="edge">
<title>s434:p1&#45;&gt;s436</title>
<path fill="none" stroke="#000000" d="M1145.8016,-62.4156C1202.3357,-62.4156 1266.5243,-53.7288 1310.6299,-46.3975"/>
<polygon fill="#000000" stroke="#000000" points="1311.2841,-49.8366 1320.558,-44.7137 1310.1136,-42.9352 1311.2841,-49.8366"/>
</g>
<!-- s437 -->
<g id="node12" class="node">
<title>s437</title>
<g id="a_node12"><a xlink:href="rust-grammar.json.identifier.dot.svg" xlink:title="s437 SYMBOL\nidentifier">
<ellipse fill="none" stroke="#000000" cx="1557.2878" cy="-74.4156" rx="73.9667" ry="29.3315"/>
<text text-anchor="middle" x="1557.2878" y="-78.6156" font-family="Times,serif" font-size="14.00" fill="#000000">s437 SYMBOL</text>
<text text-anchor="middle" x="1557.2878" y="-61.8156" font-family="Times,serif" font-size="14.00" fill="#000000">identifier</text>
</a>
</g>
</g>
<!-- s435&#45;&gt;s437 -->
<g id="edge13" class="edge">
<title>s435&#45;&gt;s437</title>
<path fill="none" stroke="#000000" d="M1436.1767,-98.8935C1450.8901,-95.9197 1466.4225,-92.7805 1481.2764,-89.7784"/>
<polygon fill="#000000" stroke="#000000" points="1482.3246,-93.1374 1491.433,-87.7256 1480.9378,-86.2761 1482.3246,-93.1374"/>
</g>
<!-- s436&#45;&gt;s437 -->
<g id="edge14" class="edge">
<title>s436&#45;&gt;s437</title>
<path fill="none" stroke="#000000" d="M1408.1106,-45.0384C1429.6114,-49.2725 1456.1486,-54.4985 1480.8516,-59.3632"/>
<polygon fill="#000000" stroke="#000000" points="1480.4519,-62.8516 1490.9397,-61.3498 1481.8045,-55.9835 1480.4519,-62.8516"/>
</g>
<!-- s438 -->
<g id="node13" class="node">
<title>s438</title>
<ellipse fill="none" stroke="#000000" cx="1736.2497" cy="-74.4156" rx="68.4585" ry="29.3315"/>
<text text-anchor="middle" x="1736.2497" y="-78.6156" font-family="Times,serif" font-size="14.00" fill="#000000">s438 STRING</text>
<text text-anchor="middle" x="1736.2497" y="-61.8156" font-family="Times,serif" font-size="14.00" fill="#000000">&quot;:&quot;</text>
</g>
<!-- s437&#45;&gt;s438 -->
<g id="edge15" class="edge">
<title>s437&#45;&gt;s438</title>
<path fill="none" stroke="#000000" d="M1631.1117,-74.4156C1639.8314,-74.4156 1648.7558,-74.4156 1657.5397,-74.4156"/>
<polygon fill="#000000" stroke="#000000" points="1657.766,-77.9157 1667.766,-74.4156 1657.7659,-70.9157 1657.766,-77.9157"/>
</g>
<!-- s439 -->
<g id="node14" class="node">
<title>s439</title>
<g id="a_node14"><a xlink:href="rust-grammar.json._type.dot.svg" xlink:title="s439 SYMBOL\n_type">
<ellipse fill="none" stroke="#000000" cx="1915.2116" cy="-74.4156" rx="73.9667" ry="29.3315"/>
<text text-anchor="middle" x="1915.2116" y="-78.6156" font-family="Times,serif" font-size="14.00" fill="#000000">s439 SYMBOL</text>
<text text-anchor="middle" x="1915.2116" y="-61.8156" font-family="Times,serif" font-size="14.00" fill="#000000">_type</text>
</a>
</g>
</g>
<!-- s438&#45;&gt;s439 -->
<g id="edge16" class="edge">
<title>s438&#45;&gt;s439</title>
<path fill="none" stroke="#000000" d="M1804.6735,-74.4156C1813.4202,-74.4156 1822.4514,-74.4156 1831.4065,-74.4156"/>
<polygon fill="#000000" stroke="#000000" points="1831.4655,-77.9157 1841.4655,-74.4156 1831.4654,-70.9157 1831.4655,-77.9157"/>
</g>
<!-- s440 -->
<g id="node15" class="node">
<title>s440</title>
<polygon fill="none" stroke="#000000" points="2025.9446,-49.6156 2025.9446,-99.2156 2127.5442,-99.2156 2127.5442,-49.6156 2025.9446,-49.6156"/>
<text text-anchor="middle" x="2066.9944" y="-78.6156" font-family="Times,serif" font-size="14.00" fill="#000000">s440</text>
<text text-anchor="middle" x="2066.9944" y="-61.8156" font-family="Times,serif" font-size="14.00" fill="#000000">→ CHOICE</text>
<polyline fill="none" stroke="#000000" points="2108.0442,-49.6156 2108.0442,-99.2156 "/>
<text text-anchor="middle" x="2117.7942" y="-82.6156" font-family="Times,serif" font-size="14.00" fill="#000000"> </text>
<polyline fill="none" stroke="#000000" points="2108.0442,-74.4156 2127.5442,-74.4156 "/>
<text text-anchor="middle" x="2117.7942" y="-57.8156" font-family="Times,serif" font-size="14.00" fill="#000000"> </text>
</g>
<!-- s439&#45;&gt;s440 -->
<g id="edge21" class="edge">
<title>s439&#45;&gt;s440</title>
<path fill="none" stroke="#000000" d="M1989.3592,-74.4156C1998.0858,-74.4156 2006.9162,-74.4156 2015.4392,-74.4156"/>
<polygon fill="#000000" stroke="#000000" points="2015.6552,-77.9157 2025.6552,-74.4156 2015.6551,-70.9157 2015.6552,-77.9157"/>
</g>
<!-- s441 -->
<g id="node16" class="node">
<title>s441</title>
<polygon fill="none" stroke="#000000" points="2164.5442,-91.6156 2164.5442,-133.2156 2220.986,-133.2156 2220.986,-91.6156 2164.5442,-91.6156"/>
<text text-anchor="middle" x="2192.7651" y="-116.6156" font-family="Times,serif" font-size="14.00" fill="#000000">s441</text>
<text text-anchor="middle" x="2192.7651" y="-99.8156" font-family="Times,serif" font-size="14.00" fill="#000000">→ SEQ</text>
</g>
<!-- s440&#45;&gt;s441 -->
<g id="edge19" class="edge">
<title>s440:p0&#45;&gt;s441</title>
<path fill="none" stroke="#000000" d="M2127.5442,-86.4156C2136.854,-86.4156 2146.4139,-88.7298 2155.2461,-91.9773"/>
<polygon fill="#000000" stroke="#000000" points="2153.9194,-95.2161 2164.4981,-95.8022 2156.5939,-88.7471 2153.9194,-95.2161"/>
</g>
<!-- s444 -->
<g id="node19" class="node">
<title>s444</title>
<ellipse fill="none" stroke="#000000" cx="2284.3886" cy="-58.4156" rx="45.3054" ry="29.3315"/>
<text text-anchor="middle" x="2284.3886" y="-62.6156" font-family="Times,serif" font-size="14.00" fill="#000000">s444 </text>
<text text-anchor="middle" x="2284.3886" y="-45.8156" font-family="Times,serif" font-size="14.00" fill="#000000">BLANK</text>
</g>
<!-- s440&#45;&gt;s444 -->
<g id="edge20" class="edge">
<title>s440:p1&#45;&gt;s444</title>
<path fill="none" stroke="#000000" d="M2127.5442,-62.4156C2161.0473,-62.4156 2198.563,-61.4923 2228.5015,-60.5328"/>
<polygon fill="#000000" stroke="#000000" points="2228.8774,-64.0224 2238.7561,-60.1934 2228.6457,-57.0262 2228.8774,-64.0224"/>
</g>
<!-- s442 -->
<g id="node17" class="node">
<title>s442</title>
<ellipse fill="none" stroke="#000000" cx="2416.0201" cy="-113.4156" rx="68.4585" ry="29.3315"/>
<text text-anchor="middle" x="2416.0201" y="-117.6156" font-family="Times,serif" font-size="14.00" fill="#000000">s442 STRING</text>
<text text-anchor="middle" x="2416.0201" y="-100.8156" font-family="Times,serif" font-size="14.00" fill="#000000">&quot;=&quot;</text>
</g>
<!-- s441&#45;&gt;s442 -->
<g id="edge17" class="edge">
<title>s441&#45;&gt;s442</title>
<path fill="none" stroke="#000000" d="M2221.0405,-112.5423C2250.2455,-112.6731 2297.1357,-112.8831 2337.6137,-113.0644"/>
<polygon fill="#000000" stroke="#000000" points="2337.7363,-116.5649 2347.7519,-113.1099 2337.7677,-109.565 2337.7363,-116.5649"/>
</g>
<!-- s443 -->
<g id="node18" class="node">
<title>s443</title>
<g id="a_node18"><a xlink:href="rust-grammar.json._expression.dot.svg" xlink:title="s443 SYMBOL\n_expression">
<ellipse fill="none" stroke="#000000" cx="2594.9819" cy="-113.4156" rx="73.9667" ry="29.3315"/>
<text text-anchor="middle" x="2594.9819" y="-117.6156" font-family="Times,serif" font-size="14.00" fill="#000000">s443 SYMBOL</text>
<text text-anchor="middle" x="2594.9819" y="-100.8156" font-family="Times,serif" font-size="14.00" fill="#000000">_expression</text>
</a>
</g>
</g>
<!-- s442&#45;&gt;s443 -->
<g id="edge18" class="edge">
<title>s442&#45;&gt;s443</title>
<path fill="none" stroke="#000000" d="M2484.4439,-113.4156C2493.1905,-113.4156 2502.2217,-113.4156 2511.1768,-113.4156"/>
<polygon fill="#000000" stroke="#000000" points="2511.2359,-116.9157 2521.2358,-113.4156 2511.2358,-109.9157 2511.2359,-116.9157"/>
</g>
<!-- s445 -->
<g id="node20" class="node">
<title>s445</title>
<ellipse fill="none" stroke="#000000" cx="2773.9438" cy="-68.4156" rx="68.4585" ry="29.3315"/>
<text text-anchor="middle" x="2773.9438" y="-72.6156" font-family="Times,serif" font-size="14.00" fill="#000000">s445 STRING</text>
<text text-anchor="middle" x="2773.9438" y="-55.8156" font-family="Times,serif" font-size="14.00" fill="#000000">&quot;;&quot;</text>
</g>
<!-- s443&#45;&gt;s445 -->
<g id="edge22" class="edge">
<title>s443&#45;&gt;s445</title>
<path fill="none" stroke="#000000" d="M2657.5741,-97.6768C2672.8707,-93.8305 2689.3229,-89.6936 2704.9019,-85.7762"/>
<polygon fill="#000000" stroke="#000000" points="2706.1479,-89.072 2714.9925,-83.239 2704.4409,-82.2833 2706.1479,-89.072"/>
</g>
<!-- s444&#45;&gt;s445 -->
<g id="edge23" class="edge">
<title>s444&#45;&gt;s445</title>
<path fill="none" stroke="#000000" d="M2330.0051,-59.3474C2413.6225,-61.0555 2592.3298,-64.7059 2695.6954,-66.8173"/>
<polygon fill="#000000" stroke="#000000" points="2695.6952,-70.3179 2705.7647,-67.023 2695.8382,-63.3194 2695.6952,-70.3179"/>
</g>
</g>
</svg>
