<?xml version="1.0" encoding="UTF-8" standalone="no"?>
<!DOCTYPE svg PUBLIC "-//W3C//DTD SVG 1.1//EN"
 "http://www.w3.org/Graphics/SVG/1.1/DTD/svg11.dtd">
<!-- Generated by graphviz version 2.40.1 (20161225.0304)
 -->
<!-- Title: match_pattern Pages: 1 -->
<svg width="1485pt" height="136pt"
 viewBox="0.00 0.00 1484.98 135.83" xmlns="http://www.w3.org/2000/svg" xmlns:xlink="http://www.w3.org/1999/xlink">
<g id="graph0" class="graph" transform="scale(1 1) rotate(0) translate(4 131.8313)">
<title>match_pattern</title>
<polygon fill="#ffffff" stroke="transparent" points="-4,4 -4,-131.8313 1480.983,-131.8313 1480.983,4 -4,4"/>
<!-- s1206 -->
<g id="node1" class="node">
<title>s1206</title>
<polygon fill="none" stroke="#000000" points="0,-38.6156 0,-80.2156 56.4418,-80.2156 56.4418,-38.6156 0,-38.6156"/>
<text text-anchor="middle" x="28.2209" y="-63.6156" font-family="Times,serif" font-size="14.00" fill="#000000">s1206</text>
<text text-anchor="middle" x="28.2209" y="-46.8156" font-family="Times,serif" font-size="14.00" fill="#000000">→ SEQ</text>
</g>
<!-- s1207 -->
<g id="node2" class="node">
<title>s1207</title>
<g id="a_node2"><a xlink:href="rust-grammar.json._pattern.dot.svg" xlink:title="s1207 SYMBOL\n_pattern">
<ellipse fill="none" stroke="#000000" cx="171.1245" cy="-59.4156" rx="78.8659" ry="29.3315"/>
<text text-anchor="middle" x="171.1245" y="-63.6156" font-family="Times,serif" font-size="14.00" fill="#000000">s1207 SYMBOL</text>
<text text-anchor="middle" x="171.1245" y="-46.8156" font-family="Times,serif" font-size="14.00" fill="#000000">_pattern</text>
</a>
</g>
</g>
<!-- s1206&#45;&gt;s1207 -->
<g id="edge1" class="edge">
<title>s1206&#45;&gt;s1207</title>
<path fill="none" stroke="#000000" d="M56.4541,-59.4156C64.1598,-59.4156 72.9398,-59.4156 82.1327,-59.4156"/>
<polygon fill="#000000" stroke="#000000" points="82.2387,-62.9157 92.2387,-59.4156 82.2387,-55.9157 82.2387,-62.9157"/>
</g>
<!-- s1208 -->
<g id="node3" class="node">
<title>s1208</title>
<polygon fill="none" stroke="#000000" points="285.8073,-38.6156 285.8073,-80.2156 368.6909,-80.2156 368.6909,-38.6156 285.8073,-38.6156"/>
<text text-anchor="middle" x="327.2491" y="-63.6156" font-family="Times,serif" font-size="14.00" fill="#000000">s1208</text>
<text text-anchor="middle" x="327.2491" y="-46.8156" font-family="Times,serif" font-size="14.00" fill="#000000">→ REPEAT</text>
</g>
<!-- s1207&#45;&gt;s1208 -->
<g id="edge6" class="edge">
<title>s1207&#45;&gt;s1208</title>
<path fill="none" stroke="#000000" d="M250.1016,-59.4156C258.7166,-59.4156 267.3168,-59.4156 275.4823,-59.4156"/>
<polygon fill="#000000" stroke="#000000" points="275.5612,-62.9157 285.5612,-59.4156 275.5612,-55.9157 275.5612,-62.9157"/>
</g>
<!-- s1209 -->
<g id="node4" class="node">
<title>s1209</title>
<polygon fill="none" stroke="#000000" points="404.6909,-67.6156 404.6909,-109.2156 461.1327,-109.2156 461.1327,-67.6156 404.6909,-67.6156"/>
<text text-anchor="middle" x="432.9118" y="-92.6156" font-family="Times,serif" font-size="14.00" fill="#000000">s1209</text>
<text text-anchor="middle" x="432.9118" y="-75.8156" font-family="Times,serif" font-size="14.00" fill="#000000">→ SEQ</text>
</g>
<!-- s1208&#45;&gt;s1209 -->
<g id="edge4" class="edge">
<title>s1208&#45;&gt;s1209</title>
<path fill="none" stroke="#000000" d="M368.7065,-70.794C377.3501,-73.1663 386.42,-75.6556 394.9304,-77.9913"/>
<polygon fill="#000000" stroke="#000000" points="394.035,-81.375 404.6048,-80.6466 395.8878,-74.6246 394.035,-81.375"/>
</g>
<!-- s1210 -->
<g id="node5" class="node">
<title>s1210</title>
<ellipse fill="none" stroke="#000000" cx="570.3113" cy="-92.4156" rx="73.3577" ry="29.3315"/>
<text text-anchor="middle" x="570.3113" y="-96.6156" font-family="Times,serif" font-size="14.00" fill="#000000">s1210 STRING</text>
<text text-anchor="middle" x="570.3113" y="-79.8156" font-family="Times,serif" font-size="14.00" fill="#000000">&quot;|&quot;</text>
</g>
<!-- s1209&#45;&gt;s1210 -->
<g id="edge2" class="edge">
<title>s1209&#45;&gt;s1210</title>
<path fill="none" stroke="#000000" d="M461.3811,-89.2444C469.1162,-89.4696 477.9019,-89.7254 487.0486,-89.9917"/>
<polygon fill="#000000" stroke="#000000" points="486.9851,-93.4912 497.0828,-90.2838 487.1889,-86.4942 486.9851,-93.4912"/>
</g>
<!-- s1211 -->
<g id="node6" class="node">
<title>s1211</title>
<g id="a_node6"><a xlink:href="rust-grammar.json._pattern.dot.svg" xlink:title="s1211 SYMBOL\n_pattern">
<ellipse fill="none" stroke="#000000" cx="758.1727" cy="-63.4156" rx="78.8659" ry="29.3315"/>
<text text-anchor="middle" x="758.1727" y="-67.6156" font-family="Times,serif" font-size="14.00" fill="#000000">s1211 SYMBOL</text>
<text text-anchor="middle" x="758.1727" y="-50.8156" font-family="Times,serif" font-size="14.00" fill="#000000">_pattern</text>
</a>
</g>
</g>
<!-- s1210&#45;&gt;s1211 -->
<g id="edge3" class="edge">
<title>s1210&#45;&gt;s1211</title>
<path fill="none" stroke="#000000" d="M638.665,-81.8639C650.5494,-80.0294 663.0251,-78.1035 675.2487,-76.2165"/>
<polygon fill="#000000" stroke="#000000" points="676.0898,-79.6283 685.4387,-74.6435 675.0218,-72.7102 676.0898,-79.6283"/>
</g>
<!-- s1211&#45;&gt;s1208 -->
<g id="edge5" class="edge">
<title>s1211&#45;&gt;s1208</title>
<path fill="none" stroke="#000000" d="M681.4193,-56.557C668.7578,-55.6657 655.7629,-54.8965 643.4899,-54.4156 550.1961,-50.7605 441.3214,-54.1666 378.7205,-56.8663"/>
<polygon fill="#000000" stroke="#000000" points="378.5419,-53.3707 368.7064,-57.3093 378.8513,-60.3639 378.5419,-53.3707"/>
</g>
<!-- s1212 -->
<g id="node7" class="node">
<title>s1212</title>
<polygon fill="none" stroke="#000000" points="872.8554,-38.6156 872.8554,-88.2156 974.455,-88.2156 974.455,-38.6156 872.8554,-38.6156"/>
<text text-anchor="middle" x="913.9052" y="-67.6156" font-family="Times,serif" font-size="14.00" fill="#000000">s1212</text>
<text text-anchor="middle" x="913.9052" y="-50.8156" font-family="Times,serif" font-size="14.00" fill="#000000">→ CHOICE</text>
<polyline fill="none" stroke="#000000" points="954.955,-38.6156 954.955,-88.2156 "/>
<text text-anchor="middle" x="964.705" y="-71.6156" font-family="Times,serif" font-size="14.00" fill="#000000"> </text>
<polyline fill="none" stroke="#000000" points="954.955,-63.4156 974.455,-63.4156 "/>
<text text-anchor="middle" x="964.705" y="-46.8156" font-family="Times,serif" font-size="14.00" fill="#000000"> </text>
</g>
<!-- s1211&#45;&gt;s1212 -->
<g id="edge11" class="edge">
<title>s1211&#45;&gt;s1212</title>
<path fill="none" stroke="#000000" d="M837.0367,-63.4156C845.6773,-63.4156 854.3745,-63.4156 862.7501,-63.4156"/>
<polygon fill="#000000" stroke="#000000" points="862.7817,-66.9157 872.7817,-63.4156 862.7816,-59.9157 862.7817,-66.9157"/>
</g>
<!-- s1213 -->
<g id="node8" class="node">
<title>s1213</title>
<polygon fill="none" stroke="#000000" points="1027.6367,-77.6156 1027.6367,-119.2156 1084.0785,-119.2156 1084.0785,-77.6156 1027.6367,-77.6156"/>
<text text-anchor="middle" x="1055.8576" y="-102.6156" font-family="Times,serif" font-size="14.00" fill="#000000">s1213</text>
<text text-anchor="middle" x="1055.8576" y="-85.8156" font-family="Times,serif" font-size="14.00" fill="#000000">→ SEQ</text>
</g>
<!-- s1212&#45;&gt;s1213 -->
<g id="edge9" class="edge">
<title>s1212:p0&#45;&gt;s1213</title>
<path fill="none" stroke="#000000" d="M974.455,-75.4156C988.8493,-75.4156 1004.1542,-78.7873 1017.5623,-82.9487"/>
<polygon fill="#000000" stroke="#000000" points="1016.8054,-86.3862 1027.3993,-86.2422 1019.0279,-79.7484 1016.8054,-86.3862"/>
</g>
<!-- s1216 -->
<g id="node11" class="node">
<title>s1216</title>
<ellipse fill="none" stroke="#000000" cx="1055.8576" cy="-29.4156" rx="45.3054" ry="29.3315"/>
<text text-anchor="middle" x="1055.8576" y="-33.6156" font-family="Times,serif" font-size="14.00" fill="#000000">s1216 </text>
<text text-anchor="middle" x="1055.8576" y="-16.8156" font-family="Times,serif" font-size="14.00" fill="#000000">BLANK</text>
</g>
<!-- s1212&#45;&gt;s1216 -->
<g id="edge10" class="edge">
<title>s1212:p1&#45;&gt;s1216</title>
<path fill="none" stroke="#000000" d="M974.455,-51.4156C985.1052,-51.4156 996.2762,-49.639 1006.8118,-47.0954"/>
<polygon fill="#000000" stroke="#000000" points="1007.9252,-50.4207 1016.6807,-44.4547 1006.1158,-43.6586 1007.9252,-50.4207"/>
</g>
<!-- s1214 -->
<g id="node9" class="node">
<title>s1214</title>
<ellipse fill="none" stroke="#000000" cx="1210.4389" cy="-98.4156" rx="73.3577" ry="29.3315"/>
<text text-anchor="middle" x="1210.4389" y="-102.6156" font-family="Times,serif" font-size="14.00" fill="#000000">s1214 STRING</text>
<text text-anchor="middle" x="1210.4389" y="-85.8156" font-family="Times,serif" font-size="14.00" fill="#000000">&quot;if&quot;</text>
</g>
<!-- s1213&#45;&gt;s1214 -->
<g id="edge7" class="edge">
<title>s1213&#45;&gt;s1214</title>
<path fill="none" stroke="#000000" d="M1084.2102,-98.4156C1096.508,-98.4156 1111.6139,-98.4156 1127.0462,-98.4156"/>
<polygon fill="#000000" stroke="#000000" points="1127.2083,-101.9157 1137.2083,-98.4156 1127.2083,-94.9157 1127.2083,-101.9157"/>
</g>
<!-- s1215 -->
<g id="node10" class="node">
<title>s1215</title>
<g id="a_node10"><a xlink:href="rust-grammar.json._expression.dot.svg" xlink:title="s1215 SYMBOL\n_expression">
<ellipse fill="none" stroke="#000000" cx="1398.3002" cy="-98.4156" rx="78.8659" ry="29.3315"/>
<text text-anchor="middle" x="1398.3002" y="-102.6156" font-family="Times,serif" font-size="14.00" fill="#000000">s1215 SYMBOL</text>
<text text-anchor="middle" x="1398.3002" y="-85.8156" font-family="Times,serif" font-size="14.00" fill="#000000">_expression</text>
</a>
</g>
</g>
<!-- s1214&#45;&gt;s1215 -->
<g id="edge8" class="edge">
<title>s1214&#45;&gt;s1215</title>
<path fill="none" stroke="#000000" d="M1283.8781,-98.4156C1292.1454,-98.4156 1300.6354,-98.4156 1309.0746,-98.4156"/>
<polygon fill="#000000" stroke="#000000" points="1309.325,-101.9157 1319.325,-98.4156 1309.3249,-94.9157 1309.325,-101.9157"/>
</g>
</g>
</svg>
