<?xml version="1.0" encoding="UTF-8" standalone="no"?>
<!DOCTYPE svg PUBLIC "-//W3C//DTD SVG 1.1//EN"
 "http://www.w3.org/Graphics/SVG/1.1/DTD/svg11.dtd">
<!-- Generated by graphviz version 2.40.1 (20161225.0304)
 -->
<!-- Title: _type Pages: 1 -->
<svg width="818pt" height="1830pt"
 viewBox="0.00 0.00 817.77 1829.83" xmlns="http://www.w3.org/2000/svg" xmlns:xlink="http://www.w3.org/1999/xlink">
<g id="graph0" class="graph" transform="scale(1 1) rotate(0) translate(4 1825.8313)">
<title>_type</title>
<polygon fill="#ffffff" stroke="transparent" points="-4,4 -4,-1825.8313 813.7726,-1825.8313 813.7726,4 -4,4"/>
<!-- s759 -->
<g id="node1" class="node">
<title>s759</title>
<polygon fill="none" stroke="#000000" points="0,-1016.0156 0,-1412.8156 101.5996,-1412.8156 101.5996,-1016.0156 0,-1016.0156"/>
<text text-anchor="middle" x="41.0498" y="-1218.6156" font-family="Times,serif" font-size="14.00" fill="#000000">s759</text>
<text text-anchor="middle" x="41.0498" y="-1201.8156" font-family="Times,serif" font-size="14.00" fill="#000000">→ CHOICE</text>
<polyline fill="none" stroke="#000000" points="82.0996,-1016.0156 82.0996,-1412.8156 "/>
<text text-anchor="middle" x="91.8496" y="-1396.2156" font-family="Times,serif" font-size="14.00" fill="#000000"> </text>
<polyline fill="none" stroke="#000000" points="82.0996,-1388.0156 101.5996,-1388.0156 "/>
<text text-anchor="middle" x="91.8496" y="-1371.4156" font-family="Times,serif" font-size="14.00" fill="#000000"> </text>
<polyline fill="none" stroke="#000000" points="82.0996,-1363.2156 101.5996,-1363.2156 "/>
<text text-anchor="middle" x="91.8496" y="-1346.6156" font-family="Times,serif" font-size="14.00" fill="#000000"> </text>
<polyline fill="none" stroke="#000000" points="82.0996,-1338.4156 101.5996,-1338.4156 "/>
<text text-anchor="middle" x="91.8496" y="-1321.8156" font-family="Times,serif" font-size="14.00" fill="#000000"> </text>
<polyline fill="none" stroke="#000000" points="82.0996,-1313.6156 101.5996,-1313.6156 "/>
<text text-anchor="middle" x="91.8496" y="-1297.0156" font-family="Times,serif" font-size="14.00" fill="#000000"> </text>
<polyline fill="none" stroke="#000000" points="82.0996,-1288.8156 101.5996,-1288.8156 "/>
<text text-anchor="middle" x="91.8496" y="-1272.2156" font-family="Times,serif" font-size="14.00" fill="#000000"> </text>
<polyline fill="none" stroke="#000000" points="82.0996,-1264.0156 101.5996,-1264.0156 "/>
<text text-anchor="middle" x="91.8496" y="-1247.4156" font-family="Times,serif" font-size="14.00" fill="#000000"> </text>
<polyline fill="none" stroke="#000000" points="82.0996,-1239.2156 101.5996,-1239.2156 "/>
<text text-anchor="middle" x="91.8496" y="-1222.6156" font-family="Times,serif" font-size="14.00" fill="#000000"> </text>
<polyline fill="none" stroke="#000000" points="82.0996,-1214.4156 101.5996,-1214.4156 "/>
<text text-anchor="middle" x="91.8496" y="-1197.8156" font-family="Times,serif" font-size="14.00" fill="#000000"> </text>
<polyline fill="none" stroke="#000000" points="82.0996,-1189.6156 101.5996,-1189.6156 "/>
<text text-anchor="middle" x="91.8496" y="-1173.0156" font-family="Times,serif" font-size="14.00" fill="#000000"> </text>
<polyline fill="none" stroke="#000000" points="82.0996,-1164.8156 101.5996,-1164.8156 "/>
<text text-anchor="middle" x="91.8496" y="-1148.2156" font-family="Times,serif" font-size="14.00" fill="#000000"> </text>
<polyline fill="none" stroke="#000000" points="82.0996,-1140.0156 101.5996,-1140.0156 "/>
<text text-anchor="middle" x="91.8496" y="-1123.4156" font-family="Times,serif" font-size="14.00" fill="#000000"> </text>
<polyline fill="none" stroke="#000000" points="82.0996,-1115.2156 101.5996,-1115.2156 "/>
<text text-anchor="middle" x="91.8496" y="-1098.6156" font-family="Times,serif" font-size="14.00" fill="#000000"> </text>
<polyline fill="none" stroke="#000000" points="82.0996,-1090.4156 101.5996,-1090.4156 "/>
<text text-anchor="middle" x="91.8496" y="-1073.8156" font-family="Times,serif" font-size="14.00" fill="#000000"> </text>
<polyline fill="none" stroke="#000000" points="82.0996,-1065.6156 101.5996,-1065.6156 "/>
<text text-anchor="middle" x="91.8496" y="-1049.0156" font-family="Times,serif" font-size="14.00" fill="#000000"> </text>
<polyline fill="none" stroke="#000000" points="82.0996,-1040.8156 101.5996,-1040.8156 "/>
<text text-anchor="middle" x="91.8496" y="-1024.2156" font-family="Times,serif" font-size="14.00" fill="#000000"> </text>
</g>
<!-- s760 -->
<g id="node2" class="node">
<title>s760</title>
<g id="a_node2"><a xlink:href="rust-grammar.json.abstract_type.dot.svg" xlink:title="s760 SYMBOL\nabstract_type">
<ellipse fill="none" stroke="#000000" cx="367.9211" cy="-1792.4156" rx="73.9667" ry="29.3315"/>
<text text-anchor="middle" x="367.9211" y="-1796.6156" font-family="Times,serif" font-size="14.00" fill="#000000">s760 SYMBOL</text>
<text text-anchor="middle" x="367.9211" y="-1779.8156" font-family="Times,serif" font-size="14.00" fill="#000000">abstract_type</text>
</a>
</g>
</g>
<!-- s759&#45;&gt;s760 -->
<g id="edge1" class="edge">
<title>s759:p0&#45;&gt;s760</title>
<path fill="none" stroke="#000000" d="M91.7998,-1412.4156C91.7998,-1448.5479 95.8482,-1709.1868 119.5996,-1736.4156 159.9388,-1782.6609 229.5759,-1795.214 284.8596,-1797.0191"/>
<polygon fill="#000000" stroke="#000000" points="284.9321,-1800.5214 295.005,-1797.2368 285.0824,-1793.523 284.9321,-1800.5214"/>
<text text-anchor="middle" x="183.7455" y="-1797.6156" font-family="Times,serif" font-size="14.00" fill="#000000">abstract_type</text>
</g>
<!-- s761 -->
<g id="node3" class="node">
<title>s761</title>
<g id="a_node3"><a xlink:href="rust-grammar.json.reference_type.dot.svg" xlink:title="s761 SYMBOL\nreference_type">
<ellipse fill="none" stroke="#000000" cx="367.9211" cy="-1715.4156" rx="73.9667" ry="29.3315"/>
<text text-anchor="middle" x="367.9211" y="-1719.6156" font-family="Times,serif" font-size="14.00" fill="#000000">s761 SYMBOL</text>
<text text-anchor="middle" x="367.9211" y="-1702.8156" font-family="Times,serif" font-size="14.00" fill="#000000">reference_type</text>
</a>
</g>
</g>
<!-- s759&#45;&gt;s761 -->
<g id="edge2" class="edge">
<title>s759:p1&#45;&gt;s761</title>
<path fill="none" stroke="#000000" d="M101.5996,-1375.4156C132.8858,-1375.4156 99.4266,-1632.5017 119.5996,-1656.4156 159.3406,-1703.5263 229.2033,-1716.8609 284.7236,-1719.2151"/>
<polygon fill="#000000" stroke="#000000" points="284.8089,-1722.7194 294.9131,-1719.5326 285.0269,-1715.7228 284.8089,-1722.7194"/>
<text text-anchor="middle" x="183.7455" y="-1719.6156" font-family="Times,serif" font-size="14.00" fill="#000000">reference_type</text>
</g>
<!-- s762 -->
<g id="node4" class="node">
<title>s762</title>
<g id="a_node4"><a xlink:href="rust-grammar.json.metavariable.dot.svg" xlink:title="s762 SYMBOL\nmetavariable">
<ellipse fill="none" stroke="#000000" cx="367.9211" cy="-1638.4156" rx="73.9667" ry="29.3315"/>
<text text-anchor="middle" x="367.9211" y="-1642.6156" font-family="Times,serif" font-size="14.00" fill="#000000">s762 SYMBOL</text>
<text text-anchor="middle" x="367.9211" y="-1625.8156" font-family="Times,serif" font-size="14.00" fill="#000000">metavariable</text>
</a>
</g>
</g>
<!-- s759&#45;&gt;s762 -->
<g id="edge3" class="edge">
<title>s759:p2&#45;&gt;s762</title>
<path fill="none" stroke="#000000" d="M101.5996,-1350.4156C126.6795,-1350.4156 103.4219,-1556.251 119.5996,-1575.4156 159.37,-1622.5291 228.881,-1637.0919 284.2628,-1640.5415"/>
<polygon fill="#000000" stroke="#000000" points="284.2632,-1644.0461 294.429,-1641.0617 284.6209,-1637.0552 284.2632,-1644.0461"/>
<text text-anchor="middle" x="183.7455" y="-1639.6156" font-family="Times,serif" font-size="14.00" fill="#000000">metavariable</text>
</g>
<!-- s763 -->
<g id="node5" class="node">
<title>s763</title>
<g id="a_node5"><a xlink:href="rust-grammar.json.pointer_type.dot.svg" xlink:title="s763 SYMBOL\npointer_type">
<ellipse fill="none" stroke="#000000" cx="367.9211" cy="-1561.4156" rx="73.9667" ry="29.3315"/>
<text text-anchor="middle" x="367.9211" y="-1565.6156" font-family="Times,serif" font-size="14.00" fill="#000000">s763 SYMBOL</text>
<text text-anchor="middle" x="367.9211" y="-1548.8156" font-family="Times,serif" font-size="14.00" fill="#000000">pointer_type</text>
</a>
</g>
</g>
<!-- s759&#45;&gt;s763 -->
<g id="edge4" class="edge">
<title>s759:p3&#45;&gt;s763</title>
<path fill="none" stroke="#000000" d="M101.5996,-1326.4156C138.2629,-1326.4156 95.9577,-1462.3932 119.5996,-1490.4156 159.5445,-1537.7618 228.6943,-1554.684 283.895,-1560.2305"/>
<polygon fill="#000000" stroke="#000000" points="283.7571,-1563.7321 294.0296,-1561.1386 284.3819,-1556.76 283.7571,-1563.7321"/>
<text text-anchor="middle" x="183.7455" y="-1558.6156" font-family="Times,serif" font-size="14.00" fill="#000000">pointer_type</text>
</g>
<!-- s764 -->
<g id="node6" class="node">
<title>s764</title>
<g id="a_node6"><a xlink:href="rust-grammar.json.generic_type.dot.svg" xlink:title="s764 SYMBOL\ngeneric_type">
<ellipse fill="none" stroke="#000000" cx="367.9211" cy="-1484.4156" rx="73.9667" ry="29.3315"/>
<text text-anchor="middle" x="367.9211" y="-1488.6156" font-family="Times,serif" font-size="14.00" fill="#000000">s764 SYMBOL</text>
<text text-anchor="middle" x="367.9211" y="-1471.8156" font-family="Times,serif" font-size="14.00" fill="#000000">generic_type</text>
</a>
</g>
</g>
<!-- s759&#45;&gt;s764 -->
<g id="edge5" class="edge">
<title>s759:p4&#45;&gt;s764</title>
<path fill="none" stroke="#000000" d="M101.5996,-1301.4156C124.179,-1301.4156 104.8276,-1384.3389 119.5996,-1401.4156 160.7536,-1448.9905 229.9784,-1469.3841 284.8995,-1478.0812"/>
<polygon fill="#000000" stroke="#000000" points="284.5732,-1481.571 294.978,-1479.5729 285.5982,-1474.6464 284.5732,-1481.571"/>
<text text-anchor="middle" x="183.7455" y="-1473.6156" font-family="Times,serif" font-size="14.00" fill="#000000">generic_type</text>
</g>
<!-- s765 -->
<g id="node7" class="node">
<title>s765</title>
<g id="a_node7"><a xlink:href="rust-grammar.json.scoped_type_identifier.dot.svg" xlink:title="s765 SYMBOL\nscoped_type_identifier">
<ellipse fill="none" stroke="#000000" cx="367.9211" cy="-1407.4156" rx="102.0594" ry="29.3315"/>
<text text-anchor="middle" x="367.9211" y="-1411.6156" font-family="Times,serif" font-size="14.00" fill="#000000">s765 SYMBOL</text>
<text text-anchor="middle" x="367.9211" y="-1394.8156" font-family="Times,serif" font-size="14.00" fill="#000000">scoped_type_identifier</text>
</a>
</g>
</g>
<!-- s759&#45;&gt;s765 -->
<g id="edge6" class="edge">
<title>s759:p5&#45;&gt;s765</title>
<path fill="none" stroke="#000000" d="M101.5996,-1276.4156C119.8867,-1276.4156 106.0944,-1301.0856 119.5996,-1313.4156 161.8073,-1351.9508 221.3777,-1375.2083 271.5926,-1388.9478"/>
<polygon fill="#000000" stroke="#000000" points="270.9403,-1392.3956 281.503,-1391.5705 272.7312,-1385.6286 270.9403,-1392.3956"/>
<text text-anchor="middle" x="183.7455" y="-1384.6156" font-family="Times,serif" font-size="14.00" fill="#000000">scoped_type_identifier</text>
</g>
<!-- s766 -->
<g id="node8" class="node">
<title>s766</title>
<g id="a_node8"><a xlink:href="rust-grammar.json.tuple_type.dot.svg" xlink:title="s766 SYMBOL\ntuple_type">
<ellipse fill="none" stroke="#000000" cx="367.9211" cy="-1330.4156" rx="73.9667" ry="29.3315"/>
<text text-anchor="middle" x="367.9211" y="-1334.6156" font-family="Times,serif" font-size="14.00" fill="#000000">s766 SYMBOL</text>
<text text-anchor="middle" x="367.9211" y="-1317.8156" font-family="Times,serif" font-size="14.00" fill="#000000">tuple_type</text>
</a>
</g>
</g>
<!-- s759&#45;&gt;s766 -->
<g id="edge7" class="edge">
<title>s759:p6&#45;&gt;s766</title>
<path fill="none" stroke="#000000" d="M101.5996,-1251.4156C102.8841,-1251.4156 220.5359,-1286.4416 299.0175,-1309.8489"/>
<polygon fill="#000000" stroke="#000000" points="298.277,-1313.2803 308.8603,-1312.7848 300.278,-1306.5724 298.277,-1313.2803"/>
<text text-anchor="middle" x="183.7455" y="-1296.6156" font-family="Times,serif" font-size="14.00" fill="#000000">tuple_type</text>
</g>
<!-- s767 -->
<g id="node9" class="node">
<title>s767</title>
<g id="a_node9"><a xlink:href="rust-grammar.json.unit_type.dot.svg" xlink:title="s767 SYMBOL\nunit_type">
<ellipse fill="none" stroke="#000000" cx="367.9211" cy="-1253.4156" rx="73.9667" ry="29.3315"/>
<text text-anchor="middle" x="367.9211" y="-1257.6156" font-family="Times,serif" font-size="14.00" fill="#000000">s767 SYMBOL</text>
<text text-anchor="middle" x="367.9211" y="-1240.8156" font-family="Times,serif" font-size="14.00" fill="#000000">unit_type</text>
</a>
</g>
</g>
<!-- s759&#45;&gt;s767 -->
<g id="edge8" class="edge">
<title>s759:p7&#45;&gt;s767</title>
<path fill="none" stroke="#000000" d="M101.5996,-1226.4156C164.906,-1226.4156 236.2473,-1234.0605 289.1478,-1241.2144"/>
<polygon fill="#000000" stroke="#000000" points="288.7553,-1244.6933 299.1391,-1242.5893 289.7097,-1237.7586 288.7553,-1244.6933"/>
<text text-anchor="middle" x="183.7455" y="-1239.6156" font-family="Times,serif" font-size="14.00" fill="#000000">unit_type</text>
</g>
<!-- s768 -->
<g id="node10" class="node">
<title>s768</title>
<g id="a_node10"><a xlink:href="rust-grammar.json.array_type.dot.svg" xlink:title="s768 SYMBOL\narray_type">
<ellipse fill="none" stroke="#000000" cx="367.9211" cy="-1176.4156" rx="73.9667" ry="29.3315"/>
<text text-anchor="middle" x="367.9211" y="-1180.6156" font-family="Times,serif" font-size="14.00" fill="#000000">s768 SYMBOL</text>
<text text-anchor="middle" x="367.9211" y="-1163.8156" font-family="Times,serif" font-size="14.00" fill="#000000">array_type</text>
</a>
</g>
</g>
<!-- s759&#45;&gt;s768 -->
<g id="edge9" class="edge">
<title>s759:p8&#45;&gt;s768</title>
<path fill="none" stroke="#000000" d="M101.5996,-1202.4156C164.7734,-1202.4156 235.9794,-1195.0793 288.8586,-1188.2006"/>
<polygon fill="#000000" stroke="#000000" points="289.3931,-1191.6605 298.8473,-1186.8784 288.4744,-1184.721 289.3931,-1191.6605"/>
<text text-anchor="middle" x="183.7455" y="-1205.6156" font-family="Times,serif" font-size="14.00" fill="#000000">array_type</text>
</g>
<!-- s769 -->
<g id="node11" class="node">
<title>s769</title>
<g id="a_node11"><a xlink:href="rust-grammar.json.function_type.dot.svg" xlink:title="s769 SYMBOL\nfunction_type">
<ellipse fill="none" stroke="#000000" cx="367.9211" cy="-1099.4156" rx="73.9667" ry="29.3315"/>
<text text-anchor="middle" x="367.9211" y="-1103.6156" font-family="Times,serif" font-size="14.00" fill="#000000">s769 SYMBOL</text>
<text text-anchor="middle" x="367.9211" y="-1086.8156" font-family="Times,serif" font-size="14.00" fill="#000000">function_type</text>
</a>
</g>
</g>
<!-- s759&#45;&gt;s769 -->
<g id="edge10" class="edge">
<title>s759:p9&#45;&gt;s769</title>
<path fill="none" stroke="#000000" d="M101.5996,-1177.4156C110.0047,-1177.4156 111.5634,-1174.0781 119.5996,-1171.6156 179.5627,-1153.2419 248.0225,-1133.4228 297.8531,-1119.2063"/>
<polygon fill="#000000" stroke="#000000" points="298.9046,-1122.5461 307.5628,-1116.4398 296.9864,-1115.814 298.9046,-1122.5461"/>
<text text-anchor="middle" x="183.7455" y="-1175.6156" font-family="Times,serif" font-size="14.00" fill="#000000">function_type</text>
</g>
<!-- s770 -->
<g id="node12" class="node">
<title>s770</title>
<g id="a_node12"><a xlink:href="rust-grammar.json._type_identifier.dot.svg" xlink:title="s770 SYMBOL\n_type_identifier">
<ellipse fill="none" stroke="#000000" cx="367.9211" cy="-1022.4156" rx="74.5836" ry="29.3315"/>
<text text-anchor="middle" x="367.9211" y="-1026.6156" font-family="Times,serif" font-size="14.00" fill="#000000">s770 SYMBOL</text>
<text text-anchor="middle" x="367.9211" y="-1009.8156" font-family="Times,serif" font-size="14.00" fill="#000000">_type_identifier</text>
</a>
</g>
</g>
<!-- s759&#45;&gt;s770 -->
<g id="edge11" class="edge">
<title>s759:p10&#45;&gt;s770</title>
<path fill="none" stroke="#000000" d="M101.5996,-1152.4156C120.6094,-1152.4156 105.6155,-1126.4926 119.5996,-1113.6156 166.3539,-1070.5633 235.1243,-1047.4064 288.4456,-1035.2158"/>
<polygon fill="#000000" stroke="#000000" points="289.2001,-1038.6336 298.2133,-1033.0649 287.6946,-1031.7974 289.2001,-1038.6336"/>
<text text-anchor="middle" x="183.7455" y="-1117.6156" font-family="Times,serif" font-size="14.00" fill="#000000">_type_identifier</text>
</g>
<!-- s771 -->
<g id="node13" class="node">
<title>s771</title>
<g id="a_node13"><a xlink:href="rust-grammar.json.macro_invocation.dot.svg" xlink:title="s771 SYMBOL\nmacro_invocation">
<ellipse fill="none" stroke="#000000" cx="367.9211" cy="-945.4156" rx="82.5786" ry="29.3315"/>
<text text-anchor="middle" x="367.9211" y="-949.6156" font-family="Times,serif" font-size="14.00" fill="#000000">s771 SYMBOL</text>
<text text-anchor="middle" x="367.9211" y="-932.8156" font-family="Times,serif" font-size="14.00" fill="#000000">macro_invocation</text>
</a>
</g>
</g>
<!-- s759&#45;&gt;s771 -->
<g id="edge12" class="edge">
<title>s759:p11&#45;&gt;s771</title>
<path fill="none" stroke="#000000" d="M101.5996,-1127.4156C124.5727,-1127.4156 104.5084,-1042.9368 119.5996,-1025.6156 158.6018,-980.8502 222.7491,-960.9001 276.0752,-952.0897"/>
<polygon fill="#000000" stroke="#000000" points="276.8918,-955.5052 286.2412,-950.5214 275.8245,-948.5871 276.8918,-955.5052"/>
<text text-anchor="middle" x="183.7455" y="-1029.6156" font-family="Times,serif" font-size="14.00" fill="#000000">macro_invocation</text>
</g>
<!-- s772 -->
<g id="node14" class="node">
<title>s772</title>
<g id="a_node14"><a xlink:href="rust-grammar.json.empty_type.dot.svg" xlink:title="s772 SYMBOL\nempty_type">
<ellipse fill="none" stroke="#000000" cx="367.9211" cy="-868.4156" rx="73.9667" ry="29.3315"/>
<text text-anchor="middle" x="367.9211" y="-872.6156" font-family="Times,serif" font-size="14.00" fill="#000000">s772 SYMBOL</text>
<text text-anchor="middle" x="367.9211" y="-855.8156" font-family="Times,serif" font-size="14.00" fill="#000000">empty_type</text>
</a>
</g>
</g>
<!-- s759&#45;&gt;s772 -->
<g id="edge13" class="edge">
<title>s759:p12&#45;&gt;s772</title>
<path fill="none" stroke="#000000" d="M101.5996,-1102.4156C138.6605,-1102.4156 95.5701,-964.8308 119.5996,-936.6156 159.6462,-889.5932 228.7879,-873.4609 283.9596,-868.5728"/>
<polygon fill="#000000" stroke="#000000" points="284.3897,-872.05 294.0886,-867.786 283.8476,-865.071 284.3897,-872.05"/>
<text text-anchor="middle" x="183.7455" y="-940.6156" font-family="Times,serif" font-size="14.00" fill="#000000">empty_type</text>
</g>
<!-- s773 -->
<g id="node15" class="node">
<title>s773</title>
<g id="a_node15"><a xlink:href="rust-grammar.json.dynamic_type.dot.svg" xlink:title="s773 SYMBOL\ndynamic_type">
<ellipse fill="none" stroke="#000000" cx="367.9211" cy="-791.4156" rx="73.9667" ry="29.3315"/>
<text text-anchor="middle" x="367.9211" y="-795.6156" font-family="Times,serif" font-size="14.00" fill="#000000">s773 SYMBOL</text>
<text text-anchor="middle" x="367.9211" y="-778.8156" font-family="Times,serif" font-size="14.00" fill="#000000">dynamic_type</text>
</a>
</g>
</g>
<!-- s759&#45;&gt;s773 -->
<g id="edge14" class="edge">
<title>s759:p13&#45;&gt;s773</title>
<path fill="none" stroke="#000000" d="M101.5996,-1078.4156C126.7681,-1078.4156 103.302,-871.7948 119.5996,-852.6156 159.4558,-805.7126 228.9597,-791.6601 284.3169,-788.6342"/>
<polygon fill="#000000" stroke="#000000" points="284.6399,-792.1236 294.4783,-788.1921 284.3356,-785.1302 284.6399,-792.1236"/>
<text text-anchor="middle" x="183.7455" y="-856.6156" font-family="Times,serif" font-size="14.00" fill="#000000">dynamic_type</text>
</g>
<!-- s774 -->
<g id="node16" class="node">
<title>s774</title>
<g id="a_node16"><a xlink:href="rust-grammar.json.bounded_type.dot.svg" xlink:title="s774 SYMBOL\nbounded_type">
<ellipse fill="none" stroke="#000000" cx="367.9211" cy="-714.4156" rx="73.9667" ry="29.3315"/>
<text text-anchor="middle" x="367.9211" y="-718.6156" font-family="Times,serif" font-size="14.00" fill="#000000">s774 SYMBOL</text>
<text text-anchor="middle" x="367.9211" y="-701.8156" font-family="Times,serif" font-size="14.00" fill="#000000">bounded_type</text>
</a>
</g>
</g>
<!-- s759&#45;&gt;s774 -->
<g id="edge15" class="edge">
<title>s759:p14&#45;&gt;s774</title>
<path fill="none" stroke="#000000" d="M101.5996,-1053.4156C132.9745,-1053.4156 99.2893,-795.5296 119.5996,-771.6156 159.4339,-724.7137 229.2885,-711.8924 284.782,-709.9634"/>
<polygon fill="#000000" stroke="#000000" points="285.0512,-713.4582 294.9662,-709.7242 284.8868,-706.4601 285.0512,-713.4582"/>
<text text-anchor="middle" x="183.7455" y="-775.6156" font-family="Times,serif" font-size="14.00" fill="#000000">bounded_type</text>
</g>
<!-- s775 -->
<g id="node17" class="node">
<title>s775</title>
<polygon fill="none" stroke="#000000" points="332.3166,-624.6156 332.3166,-666.2156 403.5256,-666.2156 403.5256,-624.6156 332.3166,-624.6156"/>
<text text-anchor="middle" x="367.9211" y="-649.6156" font-family="Times,serif" font-size="14.00" fill="#000000">s775</text>
<text text-anchor="middle" x="367.9211" y="-632.8156" font-family="Times,serif" font-size="14.00" fill="#000000">→ ALIAS</text>
</g>
<!-- s759&#45;&gt;s775 -->
<g id="edge34" class="edge">
<title>s759:p15&#45;&gt;s775</title>
<path fill="none" stroke="#000000" d="M91.7998,-1016.4156C91.7998,-980.1948 95.2804,-718.4582 119.5996,-691.6156 170.3221,-635.6302 265.2344,-634.0738 321.8899,-639.0437"/>
<polygon fill="#000000" stroke="#000000" points="321.7103,-642.5428 332.0042,-640.036 322.3938,-635.5763 321.7103,-642.5428"/>
<text text-anchor="middle" x="183.7455" y="-695.6156" font-family="Times,serif" font-size="14.00" fill="#000000">primitive_type</text>
</g>
<!-- s776 -->
<g id="node18" class="node">
<title>s776</title>
<polygon fill="none" stroke="#000000" points="506.9508,-434.6156 506.9508,-856.2156 608.5504,-856.2156 608.5504,-434.6156 506.9508,-434.6156"/>
<text text-anchor="middle" x="548.0006" y="-649.6156" font-family="Times,serif" font-size="14.00" fill="#000000">s776</text>
<text text-anchor="middle" x="548.0006" y="-632.8156" font-family="Times,serif" font-size="14.00" fill="#000000">→ CHOICE</text>
<polyline fill="none" stroke="#000000" points="589.0504,-434.6156 589.0504,-856.2156 "/>
<text text-anchor="middle" x="598.8004" y="-839.6156" font-family="Times,serif" font-size="14.00" fill="#000000"> </text>
<polyline fill="none" stroke="#000000" points="589.0504,-831.4156 608.5504,-831.4156 "/>
<text text-anchor="middle" x="598.8004" y="-814.8156" font-family="Times,serif" font-size="14.00" fill="#000000"> </text>
<polyline fill="none" stroke="#000000" points="589.0504,-806.6156 608.5504,-806.6156 "/>
<text text-anchor="middle" x="598.8004" y="-790.0156" font-family="Times,serif" font-size="14.00" fill="#000000"> </text>
<polyline fill="none" stroke="#000000" points="589.0504,-781.8156 608.5504,-781.8156 "/>
<text text-anchor="middle" x="598.8004" y="-765.2156" font-family="Times,serif" font-size="14.00" fill="#000000"> </text>
<polyline fill="none" stroke="#000000" points="589.0504,-757.0156 608.5504,-757.0156 "/>
<text text-anchor="middle" x="598.8004" y="-740.4156" font-family="Times,serif" font-size="14.00" fill="#000000"> </text>
<polyline fill="none" stroke="#000000" points="589.0504,-732.2156 608.5504,-732.2156 "/>
<text text-anchor="middle" x="598.8004" y="-715.6156" font-family="Times,serif" font-size="14.00" fill="#000000"> </text>
<polyline fill="none" stroke="#000000" points="589.0504,-707.4156 608.5504,-707.4156 "/>
<text text-anchor="middle" x="598.8004" y="-690.8156" font-family="Times,serif" font-size="14.00" fill="#000000"> </text>
<polyline fill="none" stroke="#000000" points="589.0504,-682.6156 608.5504,-682.6156 "/>
<text text-anchor="middle" x="598.8004" y="-666.0156" font-family="Times,serif" font-size="14.00" fill="#000000"> </text>
<polyline fill="none" stroke="#000000" points="589.0504,-657.8156 608.5504,-657.8156 "/>
<text text-anchor="middle" x="598.8004" y="-641.2156" font-family="Times,serif" font-size="14.00" fill="#000000"> </text>
<polyline fill="none" stroke="#000000" points="589.0504,-633.0156 608.5504,-633.0156 "/>
<text text-anchor="middle" x="598.8004" y="-616.4156" font-family="Times,serif" font-size="14.00" fill="#000000"> </text>
<polyline fill="none" stroke="#000000" points="589.0504,-608.2156 608.5504,-608.2156 "/>
<text text-anchor="middle" x="598.8004" y="-591.6156" font-family="Times,serif" font-size="14.00" fill="#000000"> </text>
<polyline fill="none" stroke="#000000" points="589.0504,-583.4156 608.5504,-583.4156 "/>
<text text-anchor="middle" x="598.8004" y="-566.8156" font-family="Times,serif" font-size="14.00" fill="#000000"> </text>
<polyline fill="none" stroke="#000000" points="589.0504,-558.6156 608.5504,-558.6156 "/>
<text text-anchor="middle" x="598.8004" y="-542.0156" font-family="Times,serif" font-size="14.00" fill="#000000"> </text>
<polyline fill="none" stroke="#000000" points="589.0504,-533.8156 608.5504,-533.8156 "/>
<text text-anchor="middle" x="598.8004" y="-517.2156" font-family="Times,serif" font-size="14.00" fill="#000000"> </text>
<polyline fill="none" stroke="#000000" points="589.0504,-509.0156 608.5504,-509.0156 "/>
<text text-anchor="middle" x="598.8004" y="-492.4156" font-family="Times,serif" font-size="14.00" fill="#000000"> </text>
<polyline fill="none" stroke="#000000" points="589.0504,-484.2156 608.5504,-484.2156 "/>
<text text-anchor="middle" x="598.8004" y="-467.6156" font-family="Times,serif" font-size="14.00" fill="#000000"> </text>
<polyline fill="none" stroke="#000000" points="589.0504,-459.4156 608.5504,-459.4156 "/>
<text text-anchor="middle" x="598.8004" y="-442.8156" font-family="Times,serif" font-size="14.00" fill="#000000"> </text>
</g>
<!-- s775&#45;&gt;s776 -->
<g id="edge33" class="edge">
<title>s775&#45;&gt;s776</title>
<path fill="none" stroke="#000000" d="M403.6266,-645.4156C429.7761,-645.4156 465.9086,-645.4156 496.6162,-645.4156"/>
<polygon fill="#000000" stroke="#000000" points="496.7999,-648.9157 506.7998,-645.4156 496.7998,-641.9157 496.7999,-648.9157"/>
</g>
<!-- s777 -->
<g id="node19" class="node">
<title>s777</title>
<ellipse fill="none" stroke="#000000" cx="741.5437" cy="-1261.4156" rx="68.4585" ry="29.3315"/>
<text text-anchor="middle" x="741.5437" y="-1265.6156" font-family="Times,serif" font-size="14.00" fill="#000000">s777 STRING</text>
<text text-anchor="middle" x="741.5437" y="-1248.8156" font-family="Times,serif" font-size="14.00" fill="#000000">&quot;u8&quot;</text>
</g>
<!-- s776&#45;&gt;s777 -->
<g id="edge16" class="edge">
<title>s776:p0&#45;&gt;s777</title>
<path fill="none" stroke="#000000" d="M598.7506,-856.4156C598.7506,-921.3767 605.7222,-1085.8841 626.5504,-1147.4156 639.1453,-1184.624 645.0119,-1195.1753 673.3148,-1222.4156 677.5342,-1226.4766 682.2567,-1230.2722 687.1951,-1233.7772"/>
<polygon fill="#000000" stroke="#000000" points="685.392,-1236.7812 695.6589,-1239.397 689.2641,-1230.9497 685.392,-1236.7812"/>
<text text-anchor="middle" x="640.9326" y="-1207.6156" font-family="Times,serif" font-size="14.00" fill="#000000">u8</text>
</g>
<!-- s778 -->
<g id="node20" class="node">
<title>s778</title>
<ellipse fill="none" stroke="#000000" cx="741.5437" cy="-1184.4156" rx="68.4585" ry="29.3315"/>
<text text-anchor="middle" x="741.5437" y="-1188.6156" font-family="Times,serif" font-size="14.00" fill="#000000">s778 STRING</text>
<text text-anchor="middle" x="741.5437" y="-1171.8156" font-family="Times,serif" font-size="14.00" fill="#000000">&quot;i8&quot;</text>
</g>
<!-- s776&#45;&gt;s778 -->
<g id="edge17" class="edge">
<title>s776:p1&#45;&gt;s778</title>
<path fill="none" stroke="#000000" d="M608.5504,-819.4156C636.5109,-819.4156 617.8994,-1043.8271 626.5504,-1070.4156 638.7044,-1107.7703 645.0119,-1118.1753 673.3148,-1145.4156 677.5342,-1149.4766 682.2567,-1153.2722 687.1951,-1156.7772"/>
<polygon fill="#000000" stroke="#000000" points="685.392,-1159.7812 695.6589,-1162.397 689.2641,-1153.9497 685.392,-1159.7812"/>
<text text-anchor="middle" x="640.9326" y="-1130.6156" font-family="Times,serif" font-size="14.00" fill="#000000">i8</text>
</g>
<!-- s779 -->
<g id="node21" class="node">
<title>s779</title>
<ellipse fill="none" stroke="#000000" cx="741.5437" cy="-1107.4156" rx="68.4585" ry="29.3315"/>
<text text-anchor="middle" x="741.5437" y="-1111.6156" font-family="Times,serif" font-size="14.00" fill="#000000">s779 STRING</text>
<text text-anchor="middle" x="741.5437" y="-1094.8156" font-family="Times,serif" font-size="14.00" fill="#000000">&quot;u16&quot;</text>
</g>
<!-- s776&#45;&gt;s779 -->
<g id="edge18" class="edge">
<title>s776:p2&#45;&gt;s779</title>
<path fill="none" stroke="#000000" d="M608.5504,-794.4156C630.6411,-794.4156 619.5776,-971.4542 626.5504,-992.4156 639.0688,-1030.0482 644.8213,-1040.8287 673.3148,-1068.4156 677.5222,-1072.4891 682.2367,-1076.293 687.17,-1079.8031"/>
<polygon fill="#000000" stroke="#000000" points="685.3633,-1082.8049 695.6281,-1085.4289 689.2401,-1076.9765 685.3633,-1082.8049"/>
<text text-anchor="middle" x="640.9326" y="-1053.6156" font-family="Times,serif" font-size="14.00" fill="#000000">u16</text>
</g>
<!-- s780 -->
<g id="node22" class="node">
<title>s780</title>
<ellipse fill="none" stroke="#000000" cx="741.5437" cy="-1030.4156" rx="68.4585" ry="29.3315"/>
<text text-anchor="middle" x="741.5437" y="-1034.6156" font-family="Times,serif" font-size="14.00" fill="#000000">s780 STRING</text>
<text text-anchor="middle" x="741.5437" y="-1017.8156" font-family="Times,serif" font-size="14.00" fill="#000000">&quot;i16&quot;</text>
</g>
<!-- s776&#45;&gt;s780 -->
<g id="edge19" class="edge">
<title>s776:p3&#45;&gt;s780</title>
<path fill="none" stroke="#000000" d="M608.5504,-769.4156C641.02,-769.4156 615.8862,-883.7473 626.5504,-914.4156 639.7008,-952.2338 644.63,-963.4814 673.3148,-991.4156 677.5103,-995.5013 682.2169,-999.3133 687.1453,-1002.8285"/>
<polygon fill="#000000" stroke="#000000" points="685.3351,-1005.8281 695.5978,-1008.4601 689.2164,-1000.0027 685.3351,-1005.8281"/>
<text text-anchor="middle" x="640.9326" y="-975.6156" font-family="Times,serif" font-size="14.00" fill="#000000">i16</text>
</g>
<!-- s781 -->
<g id="node23" class="node">
<title>s781</title>
<ellipse fill="none" stroke="#000000" cx="741.5437" cy="-953.4156" rx="68.4585" ry="29.3315"/>
<text text-anchor="middle" x="741.5437" y="-957.6156" font-family="Times,serif" font-size="14.00" fill="#000000">s781 STRING</text>
<text text-anchor="middle" x="741.5437" y="-940.8156" font-family="Times,serif" font-size="14.00" fill="#000000">&quot;u32&quot;</text>
</g>
<!-- s776&#45;&gt;s781 -->
<g id="edge20" class="edge">
<title>s776:p4&#45;&gt;s781</title>
<path fill="none" stroke="#000000" d="M608.5504,-744.4156C629.3825,-744.4156 619.0824,-816.9682 626.5504,-836.4156 641.0404,-874.1489 644.438,-886.1334 673.3148,-914.4156 677.4986,-918.5133 682.1975,-922.3332 687.1211,-925.8534"/>
<polygon fill="#000000" stroke="#000000" points="685.3073,-928.8508 695.568,-931.4906 689.1931,-923.0283 685.3073,-928.8508"/>
<text text-anchor="middle" x="640.9326" y="-897.6156" font-family="Times,serif" font-size="14.00" fill="#000000">u32</text>
</g>
<!-- s782 -->
<g id="node24" class="node">
<title>s782</title>
<ellipse fill="none" stroke="#000000" cx="741.5437" cy="-876.4156" rx="68.4585" ry="29.3315"/>
<text text-anchor="middle" x="741.5437" y="-880.6156" font-family="Times,serif" font-size="14.00" fill="#000000">s782 STRING</text>
<text text-anchor="middle" x="741.5437" y="-863.8156" font-family="Times,serif" font-size="14.00" fill="#000000">&quot;i32&quot;</text>
</g>
<!-- s776&#45;&gt;s782 -->
<g id="edge21" class="edge">
<title>s776:p5&#45;&gt;s782</title>
<path fill="none" stroke="#000000" d="M608.5504,-719.4156C628.0453,-719.4156 617.5227,-742.137 626.5504,-759.4156 645.2681,-795.2403 644.438,-809.1334 673.3148,-837.4156 677.4986,-841.5133 682.1975,-845.3332 687.1211,-848.8534"/>
<polygon fill="#000000" stroke="#000000" points="685.3073,-851.8508 695.568,-854.4906 689.1931,-846.0283 685.3073,-851.8508"/>
<text text-anchor="middle" x="640.9326" y="-819.6156" font-family="Times,serif" font-size="14.00" fill="#000000">i32</text>
</g>
<!-- s783 -->
<g id="node25" class="node">
<title>s783</title>
<ellipse fill="none" stroke="#000000" cx="741.5437" cy="-799.4156" rx="68.4585" ry="29.3315"/>
<text text-anchor="middle" x="741.5437" y="-803.6156" font-family="Times,serif" font-size="14.00" fill="#000000">s783 STRING</text>
<text text-anchor="middle" x="741.5437" y="-786.8156" font-family="Times,serif" font-size="14.00" fill="#000000">&quot;u64&quot;</text>
</g>
<!-- s776&#45;&gt;s783 -->
<g id="edge22" class="edge">
<title>s776:p6&#45;&gt;s783</title>
<path fill="none" stroke="#000000" d="M608.5504,-695.4156C649.3315,-695.4156 640.93,-735.6302 673.3148,-760.4156 678.2921,-764.2249 683.68,-767.9229 689.171,-771.4269"/>
<polygon fill="#000000" stroke="#000000" points="687.4892,-774.5015 697.8402,-776.7615 691.1578,-768.5398 687.4892,-774.5015"/>
<text text-anchor="middle" x="640.9326" y="-742.6156" font-family="Times,serif" font-size="14.00" fill="#000000">u64</text>
</g>
<!-- s784 -->
<g id="node26" class="node">
<title>s784</title>
<ellipse fill="none" stroke="#000000" cx="741.5437" cy="-722.4156" rx="68.4585" ry="29.3315"/>
<text text-anchor="middle" x="741.5437" y="-726.6156" font-family="Times,serif" font-size="14.00" fill="#000000">s784 STRING</text>
<text text-anchor="middle" x="741.5437" y="-709.8156" font-family="Times,serif" font-size="14.00" fill="#000000">&quot;i64&quot;</text>
</g>
<!-- s776&#45;&gt;s784 -->
<g id="edge23" class="edge">
<title>s776:p7&#45;&gt;s784</title>
<path fill="none" stroke="#000000" d="M608.5504,-670.4156C638.0075,-670.4156 668.7705,-681.6179 693.2813,-693.6235"/>
<polygon fill="#000000" stroke="#000000" points="691.8539,-696.8243 702.3534,-698.2424 695.0299,-690.5862 691.8539,-696.8243"/>
<text text-anchor="middle" x="640.9326" y="-681.6156" font-family="Times,serif" font-size="14.00" fill="#000000">i64</text>
</g>
<!-- s785 -->
<g id="node27" class="node">
<title>s785</title>
<ellipse fill="none" stroke="#000000" cx="741.5437" cy="-645.4156" rx="68.4585" ry="29.3315"/>
<text text-anchor="middle" x="741.5437" y="-649.6156" font-family="Times,serif" font-size="14.00" fill="#000000">s785 STRING</text>
<text text-anchor="middle" x="741.5437" y="-632.8156" font-family="Times,serif" font-size="14.00" fill="#000000">&quot;u128&quot;</text>
</g>
<!-- s776&#45;&gt;s785 -->
<g id="edge24" class="edge">
<title>s776:p8&#45;&gt;s785</title>
<path fill="none" stroke="#000000" d="M608.5504,-645.4156C626.1965,-645.4156 645.1595,-645.4156 663.0805,-645.4156"/>
<polygon fill="#000000" stroke="#000000" points="663.2029,-648.9157 673.2029,-645.4156 663.2029,-641.9157 663.2029,-648.9157"/>
<text text-anchor="middle" x="640.9326" y="-649.6156" font-family="Times,serif" font-size="14.00" fill="#000000">u128</text>
</g>
<!-- s786 -->
<g id="node28" class="node">
<title>s786</title>
<ellipse fill="none" stroke="#000000" cx="741.5437" cy="-568.4156" rx="68.4585" ry="29.3315"/>
<text text-anchor="middle" x="741.5437" y="-572.6156" font-family="Times,serif" font-size="14.00" fill="#000000">s786 STRING</text>
<text text-anchor="middle" x="741.5437" y="-555.8156" font-family="Times,serif" font-size="14.00" fill="#000000">&quot;i128&quot;</text>
</g>
<!-- s776&#45;&gt;s786 -->
<g id="edge25" class="edge">
<title>s776:p9&#45;&gt;s786</title>
<path fill="none" stroke="#000000" d="M608.5504,-620.4156C638.0075,-620.4156 668.7705,-609.2134 693.2813,-597.2078"/>
<polygon fill="#000000" stroke="#000000" points="695.0299,-600.2451 702.3534,-592.5889 691.8539,-594.007 695.0299,-600.2451"/>
<text text-anchor="middle" x="640.9326" y="-622.6156" font-family="Times,serif" font-size="14.00" fill="#000000">i128</text>
</g>
<!-- s787 -->
<g id="node29" class="node">
<title>s787</title>
<ellipse fill="none" stroke="#000000" cx="741.5437" cy="-491.4156" rx="68.4585" ry="29.3315"/>
<text text-anchor="middle" x="741.5437" y="-495.6156" font-family="Times,serif" font-size="14.00" fill="#000000">s787 STRING</text>
<text text-anchor="middle" x="741.5437" y="-478.8156" font-family="Times,serif" font-size="14.00" fill="#000000">&quot;isize&quot;</text>
</g>
<!-- s776&#45;&gt;s787 -->
<g id="edge26" class="edge">
<title>s776:p10&#45;&gt;s787</title>
<path fill="none" stroke="#000000" d="M608.5504,-595.4156C628.941,-595.4156 657.1224,-542.8084 673.3148,-530.4156 678.2921,-526.6064 683.68,-522.9084 689.171,-519.4044"/>
<polygon fill="#000000" stroke="#000000" points="691.1578,-522.2915 697.8402,-514.0698 687.4892,-516.3297 691.1578,-522.2915"/>
<text text-anchor="middle" x="640.9326" y="-588.6156" font-family="Times,serif" font-size="14.00" fill="#000000">isize</text>
</g>
<!-- s788 -->
<g id="node30" class="node">
<title>s788</title>
<ellipse fill="none" stroke="#000000" cx="741.5437" cy="-414.4156" rx="68.4585" ry="29.3315"/>
<text text-anchor="middle" x="741.5437" y="-418.6156" font-family="Times,serif" font-size="14.00" fill="#000000">s788 STRING</text>
<text text-anchor="middle" x="741.5437" y="-401.8156" font-family="Times,serif" font-size="14.00" fill="#000000">&quot;usize&quot;</text>
</g>
<!-- s776&#45;&gt;s788 -->
<g id="edge27" class="edge">
<title>s776:p11&#45;&gt;s788</title>
<path fill="none" stroke="#000000" d="M608.5504,-571.4156C628.3701,-571.4156 617.397,-548.1949 626.5504,-530.6156 645.0772,-495.0348 644.5916,-481.4194 673.3148,-453.4156 677.508,-449.3275 682.213,-445.5139 687.1404,-441.9977"/>
<polygon fill="#000000" stroke="#000000" points="689.2117,-444.8235 695.5918,-436.365 685.3295,-438.9986 689.2117,-444.8235"/>
<text text-anchor="middle" x="640.9326" y="-534.6156" font-family="Times,serif" font-size="14.00" fill="#000000">usize</text>
</g>
<!-- s789 -->
<g id="node31" class="node">
<title>s789</title>
<ellipse fill="none" stroke="#000000" cx="741.5437" cy="-337.4156" rx="68.4585" ry="29.3315"/>
<text text-anchor="middle" x="741.5437" y="-341.6156" font-family="Times,serif" font-size="14.00" fill="#000000">s789 STRING</text>
<text text-anchor="middle" x="741.5437" y="-324.8156" font-family="Times,serif" font-size="14.00" fill="#000000">&quot;f32&quot;</text>
</g>
<!-- s776&#45;&gt;s789 -->
<g id="edge28" class="edge">
<title>s776:p12&#45;&gt;s789</title>
<path fill="none" stroke="#000000" d="M608.5504,-546.4156C629.7752,-546.4156 618.8749,-472.404 626.5504,-452.6156 640.92,-415.5691 644.7831,-404.072 673.3148,-376.4156 677.5198,-372.3397 682.2327,-368.5342 687.165,-365.023"/>
<polygon fill="#000000" stroke="#000000" points="689.2353,-367.8495 695.622,-359.3961 685.3576,-362.0217 689.2353,-367.8495"/>
<text text-anchor="middle" x="640.9326" y="-456.6156" font-family="Times,serif" font-size="14.00" fill="#000000">f32</text>
</g>
<!-- s790 -->
<g id="node32" class="node">
<title>s790</title>
<ellipse fill="none" stroke="#000000" cx="741.5437" cy="-260.4156" rx="68.4585" ry="29.3315"/>
<text text-anchor="middle" x="741.5437" y="-264.6156" font-family="Times,serif" font-size="14.00" fill="#000000">s790 STRING</text>
<text text-anchor="middle" x="741.5437" y="-247.8156" font-family="Times,serif" font-size="14.00" fill="#000000">&quot;f64&quot;</text>
</g>
<!-- s776&#45;&gt;s790 -->
<g id="edge29" class="edge">
<title>s776:p13&#45;&gt;s790</title>
<path fill="none" stroke="#000000" d="M608.5504,-521.4156C641.1964,-521.4156 615.767,-406.4292 626.5504,-375.6156 639.6757,-338.1102 644.7831,-327.072 673.3148,-299.4156 677.5198,-295.3397 682.2327,-291.5342 687.165,-288.023"/>
<polygon fill="#000000" stroke="#000000" points="689.2353,-290.8495 695.622,-282.3961 685.3576,-285.0217 689.2353,-290.8495"/>
<text text-anchor="middle" x="640.9326" y="-379.6156" font-family="Times,serif" font-size="14.00" fill="#000000">f64</text>
</g>
<!-- s791 -->
<g id="node33" class="node">
<title>s791</title>
<ellipse fill="none" stroke="#000000" cx="741.5437" cy="-183.4156" rx="68.4585" ry="29.3315"/>
<text text-anchor="middle" x="741.5437" y="-187.6156" font-family="Times,serif" font-size="14.00" fill="#000000">s791 STRING</text>
<text text-anchor="middle" x="741.5437" y="-170.8156" font-family="Times,serif" font-size="14.00" fill="#000000">&quot;bool&quot;</text>
</g>
<!-- s776&#45;&gt;s791 -->
<g id="edge30" class="edge">
<title>s776:p14&#45;&gt;s791</title>
<path fill="none" stroke="#000000" d="M608.5504,-496.4156C630.8403,-496.4156 619.4097,-317.7308 626.5504,-296.6156 639.0382,-259.6891 645.1638,-249.3792 673.3148,-222.4156 677.544,-218.3648 682.273,-214.5761 687.2154,-211.0753"/>
<polygon fill="#000000" stroke="#000000" points="689.2836,-213.9035 695.6838,-205.4603 685.4153,-208.0694 689.2836,-213.9035"/>
<text text-anchor="middle" x="640.9326" y="-300.6156" font-family="Times,serif" font-size="14.00" fill="#000000">bool</text>
</g>
<!-- s792 -->
<g id="node34" class="node">
<title>s792</title>
<ellipse fill="none" stroke="#000000" cx="741.5437" cy="-106.4156" rx="68.4585" ry="29.3315"/>
<text text-anchor="middle" x="741.5437" y="-110.6156" font-family="Times,serif" font-size="14.00" fill="#000000">s792 STRING</text>
<text text-anchor="middle" x="741.5437" y="-93.8156" font-family="Times,serif" font-size="14.00" fill="#000000">&quot;str&quot;</text>
</g>
<!-- s776&#45;&gt;s792 -->
<g id="edge31" class="edge">
<title>s776:p15&#45;&gt;s792</title>
<path fill="none" stroke="#000000" d="M608.5504,-471.4156C636.4888,-471.4156 617.9214,-247.188 626.5504,-220.6156 638.7065,-183.1823 644.9738,-172.7252 673.3148,-145.4156 677.5318,-141.3521 682.2527,-137.5549 687.19,-134.0489"/>
<polygon fill="#000000" stroke="#000000" points="689.2593,-136.8762 695.6527,-128.4278 685.3862,-131.0453 689.2593,-136.8762"/>
<text text-anchor="middle" x="640.9326" y="-224.6156" font-family="Times,serif" font-size="14.00" fill="#000000">str</text>
</g>
<!-- s793 -->
<g id="node35" class="node">
<title>s793</title>
<ellipse fill="none" stroke="#000000" cx="741.5437" cy="-29.4156" rx="68.4585" ry="29.3315"/>
<text text-anchor="middle" x="741.5437" y="-33.6156" font-family="Times,serif" font-size="14.00" fill="#000000">s793 STRING</text>
<text text-anchor="middle" x="741.5437" y="-16.8156" font-family="Times,serif" font-size="14.00" fill="#000000">&quot;char&quot;</text>
</g>
<!-- s776&#45;&gt;s793 -->
<g id="edge32" class="edge">
<title>s776:p16&#45;&gt;s793</title>
<path fill="none" stroke="#000000" d="M598.7506,-434.4156C598.7506,-369.2776 605.5246,-204.2669 626.5504,-142.6156 639.133,-105.7213 645.1638,-95.3792 673.3148,-68.4156 677.544,-64.3648 682.273,-60.5761 687.2154,-57.0753"/>
<polygon fill="#000000" stroke="#000000" points="689.2836,-59.9035 695.6838,-51.4603 685.4153,-54.0694 689.2836,-59.9035"/>
<text text-anchor="middle" x="640.9326" y="-146.6156" font-family="Times,serif" font-size="14.00" fill="#000000">char</text>
</g>
</g>
</svg>
