<?xml version="1.0" encoding="UTF-8" standalone="no"?>
<!DOCTYPE svg PUBLIC "-//W3C//DTD SVG 1.1//EN"
 "http://www.w3.org/Graphics/SVG/1.1/DTD/svg11.dtd">
<!-- Generated by graphviz version 2.40.1 (20161225.0304)
 -->
<!-- Title: array_expression Pages: 1 -->
<svg width="1937pt" height="360pt"
 viewBox="0.00 0.00 1936.81 359.83" xmlns="http://www.w3.org/2000/svg" xmlns:xlink="http://www.w3.org/1999/xlink">
<g id="graph0" class="graph" transform="scale(1 1) rotate(0) translate(4 355.8313)">
<title>array_expression</title>
<polygon fill="#ffffff" stroke="transparent" points="-4,4 -4,-355.8313 1932.8053,-355.8313 1932.8053,4 -4,4"/>
<!-- s1071 -->
<g id="node1" class="node">
<title>s1071</title>
<polygon fill="none" stroke="#000000" points="0,-117.6156 0,-159.2156 56.4418,-159.2156 56.4418,-117.6156 0,-117.6156"/>
<text text-anchor="middle" x="28.2209" y="-142.6156" font-family="Times,serif" font-size="14.00" fill="#000000">s1071</text>
<text text-anchor="middle" x="28.2209" y="-125.8156" font-family="Times,serif" font-size="14.00" fill="#000000">→ SEQ</text>
</g>
<!-- s1072 -->
<g id="node2" class="node">
<title>s1072</title>
<ellipse fill="none" stroke="#000000" cx="166.6204" cy="-138.4156" rx="73.3577" ry="29.3315"/>
<text text-anchor="middle" x="166.6204" y="-142.6156" font-family="Times,serif" font-size="14.00" fill="#000000">s1072 STRING</text>
<text text-anchor="middle" x="166.6204" y="-125.8156" font-family="Times,serif" font-size="14.00" fill="#000000">&quot;[&quot;</text>
</g>
<!-- s1071&#45;&gt;s1072 -->
<g id="edge1" class="edge">
<title>s1071&#45;&gt;s1072</title>
<path fill="none" stroke="#000000" d="M56.5621,-138.4156C64.6032,-138.4156 73.7912,-138.4156 83.3533,-138.4156"/>
<polygon fill="#000000" stroke="#000000" points="83.4211,-141.9157 93.421,-138.4156 83.421,-134.9157 83.4211,-141.9157"/>
</g>
<!-- s1073 -->
<g id="node3" class="node">
<title>s1073</title>
<polygon fill="none" stroke="#000000" points="276.799,-113.6156 276.799,-163.2156 378.3986,-163.2156 378.3986,-113.6156 276.799,-113.6156"/>
<text text-anchor="middle" x="317.8488" y="-142.6156" font-family="Times,serif" font-size="14.00" fill="#000000">s1073</text>
<text text-anchor="middle" x="317.8488" y="-125.8156" font-family="Times,serif" font-size="14.00" fill="#000000">→ CHOICE</text>
<polyline fill="none" stroke="#000000" points="358.8986,-113.6156 358.8986,-163.2156 "/>
<text text-anchor="middle" x="368.6486" y="-146.6156" font-family="Times,serif" font-size="14.00" fill="#000000"> </text>
<polyline fill="none" stroke="#000000" points="358.8986,-138.4156 378.3986,-138.4156 "/>
<text text-anchor="middle" x="368.6486" y="-121.8156" font-family="Times,serif" font-size="14.00" fill="#000000"> </text>
</g>
<!-- s1072&#45;&gt;s1073 -->
<g id="edge20" class="edge">
<title>s1072&#45;&gt;s1073</title>
<path fill="none" stroke="#000000" d="M240.0435,-138.4156C248.7685,-138.4156 257.6051,-138.4156 266.139,-138.4156"/>
<polygon fill="#000000" stroke="#000000" points="266.3705,-141.9157 276.3705,-138.4156 266.3704,-134.9157 266.3705,-141.9157"/>
</g>
<!-- s1074 -->
<g id="node4" class="node">
<title>s1074</title>
<polygon fill="none" stroke="#000000" points="415.3986,-149.6156 415.3986,-191.2156 471.8404,-191.2156 471.8404,-149.6156 415.3986,-149.6156"/>
<text text-anchor="middle" x="443.6195" y="-174.6156" font-family="Times,serif" font-size="14.00" fill="#000000">s1074</text>
<text text-anchor="middle" x="443.6195" y="-157.8156" font-family="Times,serif" font-size="14.00" fill="#000000">→ SEQ</text>
</g>
<!-- s1073&#45;&gt;s1074 -->
<g id="edge5" class="edge">
<title>s1073:p0&#45;&gt;s1074</title>
<path fill="none" stroke="#000000" d="M378.3986,-150.4156C387.4339,-150.4156 396.8762,-152.1918 405.6804,-154.6854"/>
<polygon fill="#000000" stroke="#000000" points="404.7032,-158.0474 415.2938,-157.7493 406.8289,-151.3779 404.7032,-158.0474"/>
</g>
<!-- s1078 -->
<g id="node8" class="node">
<title>s1078</title>
<polygon fill="none" stroke="#000000" points="415.3986,-87.6156 415.3986,-129.2156 471.8404,-129.2156 471.8404,-87.6156 415.3986,-87.6156"/>
<text text-anchor="middle" x="443.6195" y="-112.6156" font-family="Times,serif" font-size="14.00" fill="#000000">s1078</text>
<text text-anchor="middle" x="443.6195" y="-95.8156" font-family="Times,serif" font-size="14.00" fill="#000000">→ SEQ</text>
</g>
<!-- s1073&#45;&gt;s1078 -->
<g id="edge19" class="edge">
<title>s1073:p1&#45;&gt;s1078</title>
<path fill="none" stroke="#000000" d="M378.3986,-126.4156C387.3599,-126.4156 396.7721,-124.8171 405.5709,-122.5728"/>
<polygon fill="#000000" stroke="#000000" points="406.5396,-125.9362 415.1874,-119.8153 404.61,-119.2073 406.5396,-125.9362"/>
</g>
<!-- s1075 -->
<g id="node5" class="node">
<title>s1075</title>
<g id="a_node5"><a xlink:href="rust-grammar.json._expression.dot.svg" xlink:title="s1075 SYMBOL\n_expression">
<ellipse fill="none" stroke="#000000" cx="587.5232" cy="-176.4156" rx="78.8659" ry="29.3315"/>
<text text-anchor="middle" x="587.5232" y="-180.6156" font-family="Times,serif" font-size="14.00" fill="#000000">s1075 SYMBOL</text>
<text text-anchor="middle" x="587.5232" y="-163.8156" font-family="Times,serif" font-size="14.00" fill="#000000">_expression</text>
</a>
</g>
</g>
<!-- s1074&#45;&gt;s1075 -->
<g id="edge2" class="edge">
<title>s1074&#45;&gt;s1075</title>
<path fill="none" stroke="#000000" d="M472.0503,-171.601C480.1357,-171.9382 489.3956,-172.3243 499.0765,-172.7279"/>
<polygon fill="#000000" stroke="#000000" points="499.1487,-176.2339 509.2859,-173.1536 499.4404,-169.2399 499.1487,-176.2339"/>
</g>
<!-- s1076 -->
<g id="node6" class="node">
<title>s1076</title>
<ellipse fill="none" stroke="#000000" cx="776.3845" cy="-206.4156" rx="73.3577" ry="29.3315"/>
<text text-anchor="middle" x="776.3845" y="-210.6156" font-family="Times,serif" font-size="14.00" fill="#000000">s1076 STRING</text>
<text text-anchor="middle" x="776.3845" y="-193.8156" font-family="Times,serif" font-size="14.00" fill="#000000">&quot;;&quot;</text>
</g>
<!-- s1075&#45;&gt;s1076 -->
<g id="edge3" class="edge">
<title>s1075&#45;&gt;s1076</title>
<path fill="none" stroke="#000000" d="M660.0018,-187.9286C672.4781,-189.9104 685.4956,-191.9782 698.1161,-193.983"/>
<polygon fill="#000000" stroke="#000000" points="697.7092,-197.4621 708.1345,-195.5744 698.8075,-190.5488 697.7092,-197.4621"/>
</g>
<!-- s1077 -->
<g id="node7" class="node">
<title>s1077</title>
<g id="a_node7"><a xlink:href="rust-grammar.json._expression.dot.svg" xlink:title="s1077 SYMBOL\n_expression">
<ellipse fill="none" stroke="#000000" cx="1230.4166" cy="-251.4156" rx="78.8659" ry="29.3315"/>
<text text-anchor="middle" x="1230.4166" y="-255.6156" font-family="Times,serif" font-size="14.00" fill="#000000">s1077 SYMBOL</text>
<text text-anchor="middle" x="1230.4166" y="-238.8156" font-family="Times,serif" font-size="14.00" fill="#000000">_expression</text>
</a>
</g>
</g>
<!-- s1076&#45;&gt;s1077 -->
<g id="edge4" class="edge">
<title>s1076&#45;&gt;s1077</title>
<path fill="none" stroke="#000000" d="M847.5766,-213.4716C927.758,-221.4186 1058.057,-234.3327 1144.0043,-242.8511"/>
<polygon fill="#000000" stroke="#000000" points="1143.7023,-246.3383 1153.9988,-243.8417 1144.3928,-239.3724 1143.7023,-246.3383"/>
</g>
<!-- s1090 -->
<g id="node20" class="node">
<title>s1090</title>
<ellipse fill="none" stroke="#000000" cx="1661.2612" cy="-322.4156" rx="73.3577" ry="29.3315"/>
<text text-anchor="middle" x="1661.2612" y="-326.6156" font-family="Times,serif" font-size="14.00" fill="#000000">s1090 STRING</text>
<text text-anchor="middle" x="1661.2612" y="-309.8156" font-family="Times,serif" font-size="14.00" fill="#000000">&quot;]&quot;</text>
</g>
<!-- s1077&#45;&gt;s1090 -->
<g id="edge21" class="edge">
<title>s1077&#45;&gt;s1090</title>
<path fill="none" stroke="#000000" d="M1302.5303,-263.2994C1380.293,-276.1142 1503.6514,-296.4427 1583.53,-309.6061"/>
<polygon fill="#000000" stroke="#000000" points="1583.0975,-313.082 1593.5336,-311.2546 1584.2358,-306.1751 1583.0975,-313.082"/>
</g>
<!-- s1079 -->
<g id="node9" class="node">
<title>s1079</title>
<polygon fill="none" stroke="#000000" points="536.7234,-74.6156 536.7234,-124.2156 638.323,-124.2156 638.323,-74.6156 536.7234,-74.6156"/>
<text text-anchor="middle" x="577.7732" y="-103.6156" font-family="Times,serif" font-size="14.00" fill="#000000">s1079</text>
<text text-anchor="middle" x="577.7732" y="-86.8156" font-family="Times,serif" font-size="14.00" fill="#000000">→ CHOICE</text>
<polyline fill="none" stroke="#000000" points="618.823,-74.6156 618.823,-124.2156 "/>
<text text-anchor="middle" x="628.573" y="-107.6156" font-family="Times,serif" font-size="14.00" fill="#000000"> </text>
<polyline fill="none" stroke="#000000" points="618.823,-99.4156 638.323,-99.4156 "/>
<text text-anchor="middle" x="628.573" y="-82.8156" font-family="Times,serif" font-size="14.00" fill="#000000"> </text>
</g>
<!-- s1078&#45;&gt;s1079 -->
<g id="edge14" class="edge">
<title>s1078&#45;&gt;s1079</title>
<path fill="none" stroke="#000000" d="M472.0503,-106.6375C487.6724,-105.6605 507.6789,-104.4093 526.6356,-103.2237"/>
<polygon fill="#000000" stroke="#000000" points="526.9613,-106.7102 536.7233,-102.5928 526.5243,-99.7239 526.9613,-106.7102"/>
</g>
<!-- s1080 -->
<g id="node10" class="node">
<title>s1080</title>
<polygon fill="none" stroke="#000000" points="748.1636,-90.6156 748.1636,-132.2156 804.6054,-132.2156 804.6054,-90.6156 748.1636,-90.6156"/>
<text text-anchor="middle" x="776.3845" y="-115.6156" font-family="Times,serif" font-size="14.00" fill="#000000">s1080</text>
<text text-anchor="middle" x="776.3845" y="-98.8156" font-family="Times,serif" font-size="14.00" fill="#000000">→ SEQ</text>
</g>
<!-- s1079&#45;&gt;s1080 -->
<g id="edge12" class="edge">
<title>s1079:p0&#45;&gt;s1080</title>
<path fill="none" stroke="#000000" d="M638.5232,-111.4156C672.1616,-111.4156 710.4169,-111.4156 738.0809,-111.4156"/>
<polygon fill="#000000" stroke="#000000" points="738.1332,-114.9157 748.1331,-111.4156 738.1331,-107.9157 738.1332,-114.9157"/>
</g>
<!-- s1086 -->
<g id="node16" class="node">
<title>s1086</title>
<ellipse fill="none" stroke="#000000" cx="912.9658" cy="-29.4156" rx="45.3054" ry="29.3315"/>
<text text-anchor="middle" x="912.9658" y="-33.6156" font-family="Times,serif" font-size="14.00" fill="#000000">s1086 </text>
<text text-anchor="middle" x="912.9658" y="-16.8156" font-family="Times,serif" font-size="14.00" fill="#000000">BLANK</text>
</g>
<!-- s1079&#45;&gt;s1086 -->
<g id="edge13" class="edge">
<title>s1079:p1&#45;&gt;s1086</title>
<path fill="none" stroke="#000000" d="M638.5232,-87.4156C681.1383,-87.4156 793.7554,-60.3074 860.7425,-43.1562"/>
<polygon fill="#000000" stroke="#000000" points="861.8701,-46.4802 870.6824,-40.5986 860.1257,-39.701 861.8701,-46.4802"/>
</g>
<!-- s1081 -->
<g id="node11" class="node">
<title>s1081</title>
<g id="a_node11"><a xlink:href="rust-grammar.json._expression.dot.svg" xlink:title="s1081 SYMBOL\n_expression">
<ellipse fill="none" stroke="#000000" cx="1055.0512" cy="-111.4156" rx="78.8659" ry="29.3315"/>
<text text-anchor="middle" x="1055.0512" y="-115.6156" font-family="Times,serif" font-size="14.00" fill="#000000">s1081 SYMBOL</text>
<text text-anchor="middle" x="1055.0512" y="-98.8156" font-family="Times,serif" font-size="14.00" fill="#000000">_expression</text>
</a>
</g>
</g>
<!-- s1080&#45;&gt;s1081 -->
<g id="edge6" class="edge">
<title>s1080&#45;&gt;s1081</title>
<path fill="none" stroke="#000000" d="M804.6381,-111.4156C842.1535,-111.4156 910.1563,-111.4156 965.838,-111.4156"/>
<polygon fill="#000000" stroke="#000000" points="966.0815,-114.9157 976.0814,-111.4156 966.0814,-107.9157 966.0815,-114.9157"/>
</g>
<!-- s1082 -->
<g id="node12" class="node">
<title>s1082</title>
<polygon fill="none" stroke="#000000" points="1327.0994,-90.6156 1327.0994,-132.2156 1409.983,-132.2156 1409.983,-90.6156 1327.0994,-90.6156"/>
<text text-anchor="middle" x="1368.5412" y="-115.6156" font-family="Times,serif" font-size="14.00" fill="#000000">s1082</text>
<text text-anchor="middle" x="1368.5412" y="-98.8156" font-family="Times,serif" font-size="14.00" fill="#000000">→ REPEAT</text>
</g>
<!-- s1081&#45;&gt;s1082 -->
<g id="edge11" class="edge">
<title>s1081&#45;&gt;s1082</title>
<path fill="none" stroke="#000000" d="M1133.7533,-111.4156C1190.9857,-111.4156 1266.855,-111.4156 1316.6491,-111.4156"/>
<polygon fill="#000000" stroke="#000000" points="1316.8628,-114.9157 1326.8628,-111.4156 1316.8627,-107.9157 1316.8628,-114.9157"/>
</g>
<!-- s1083 -->
<g id="node13" class="node">
<title>s1083</title>
<polygon fill="none" stroke="#000000" points="1469.5619,-168.6156 1469.5619,-210.2156 1526.0037,-210.2156 1526.0037,-168.6156 1469.5619,-168.6156"/>
<text text-anchor="middle" x="1497.7828" y="-193.6156" font-family="Times,serif" font-size="14.00" fill="#000000">s1083</text>
<text text-anchor="middle" x="1497.7828" y="-176.8156" font-family="Times,serif" font-size="14.00" fill="#000000">→ SEQ</text>
</g>
<!-- s1082&#45;&gt;s1083 -->
<g id="edge9" class="edge">
<title>s1082&#45;&gt;s1083</title>
<path fill="none" stroke="#000000" d="M1403.1756,-132.3182C1420.9104,-143.0215 1442.517,-156.0616 1460.6021,-166.9764"/>
<polygon fill="#000000" stroke="#000000" points="1458.7949,-169.9736 1469.165,-172.1442 1462.4119,-163.9805 1458.7949,-169.9736"/>
</g>
<!-- s1087 -->
<g id="node17" class="node">
<title>s1087</title>
<polygon fill="none" stroke="#000000" points="1446.983,-86.6156 1446.983,-136.2156 1548.5826,-136.2156 1548.5826,-86.6156 1446.983,-86.6156"/>
<text text-anchor="middle" x="1488.0328" y="-115.6156" font-family="Times,serif" font-size="14.00" fill="#000000">s1087</text>
<text text-anchor="middle" x="1488.0328" y="-98.8156" font-family="Times,serif" font-size="14.00" fill="#000000">→ CHOICE</text>
<polyline fill="none" stroke="#000000" points="1529.0826,-86.6156 1529.0826,-136.2156 "/>
<text text-anchor="middle" x="1538.8326" y="-119.6156" font-family="Times,serif" font-size="14.00" fill="#000000"> </text>
<polyline fill="none" stroke="#000000" points="1529.0826,-111.4156 1548.5826,-111.4156 "/>
<text text-anchor="middle" x="1538.8326" y="-94.8156" font-family="Times,serif" font-size="14.00" fill="#000000"> </text>
</g>
<!-- s1082&#45;&gt;s1087 -->
<g id="edge17" class="edge">
<title>s1082&#45;&gt;s1087</title>
<path fill="none" stroke="#000000" d="M1410.1454,-111.4156C1418.6165,-111.4156 1427.6946,-111.4156 1436.6816,-111.4156"/>
<polygon fill="#000000" stroke="#000000" points="1436.7524,-114.9157 1446.7524,-111.4156 1436.7523,-107.9157 1436.7524,-114.9157"/>
</g>
<!-- s1084 -->
<g id="node14" class="node">
<title>s1084</title>
<ellipse fill="none" stroke="#000000" cx="1661.2612" cy="-245.4156" rx="73.3577" ry="29.3315"/>
<text text-anchor="middle" x="1661.2612" y="-249.6156" font-family="Times,serif" font-size="14.00" fill="#000000">s1084 STRING</text>
<text text-anchor="middle" x="1661.2612" y="-232.8156" font-family="Times,serif" font-size="14.00" fill="#000000">&quot;,&quot;</text>
</g>
<!-- s1083&#45;&gt;s1084 -->
<g id="edge7" class="edge">
<title>s1083&#45;&gt;s1084</title>
<path fill="none" stroke="#000000" d="M1526.2585,-199.1701C1545.4793,-205.7542 1571.6597,-214.7224 1595.8509,-223.0092"/>
<polygon fill="#000000" stroke="#000000" points="1594.7639,-226.3364 1605.3585,-226.266 1597.0324,-219.7142 1594.7639,-226.3364"/>
</g>
<!-- s1085 -->
<g id="node15" class="node">
<title>s1085</title>
<g id="a_node15"><a xlink:href="rust-grammar.json._expression.dot.svg" xlink:title="s1085 SYMBOL\n_expression">
<ellipse fill="none" stroke="#000000" cx="1850.1226" cy="-46.4156" rx="78.8659" ry="29.3315"/>
<text text-anchor="middle" x="1850.1226" y="-50.6156" font-family="Times,serif" font-size="14.00" fill="#000000">s1085 SYMBOL</text>
<text text-anchor="middle" x="1850.1226" y="-33.8156" font-family="Times,serif" font-size="14.00" fill="#000000">_expression</text>
</a>
</g>
</g>
<!-- s1084&#45;&gt;s1085 -->
<g id="edge8" class="edge">
<title>s1084&#45;&gt;s1085</title>
<path fill="none" stroke="#000000" d="M1710.1397,-223.3983C1718.6939,-218.4483 1727.1706,-212.7555 1734.4398,-206.4156 1774.7533,-171.2557 1808.905,-119.5062 1829.4268,-84.4582"/>
<polygon fill="#000000" stroke="#000000" points="1832.6365,-85.8982 1834.5966,-75.4862 1826.5713,-82.4033 1832.6365,-85.8982"/>
</g>
<!-- s1085&#45;&gt;s1082 -->
<g id="edge10" class="edge">
<title>s1085&#45;&gt;s1082</title>
<path fill="none" stroke="#000000" d="M1771.8326,-42.8025C1689.2933,-41.1989 1556.3296,-44.9352 1446.983,-77.4156 1437.9014,-80.1132 1428.4721,-83.5793 1419.433,-87.2628"/>
<polygon fill="#000000" stroke="#000000" points="1418.0433,-84.0503 1410.1856,-91.1572 1420.7601,-90.5016 1418.0433,-84.0503"/>
</g>
<!-- s1086&#45;&gt;s1087 -->
<g id="edge18" class="edge">
<title>s1086&#45;&gt;s1087</title>
<path fill="none" stroke="#000000" d="M958.399,-30.7578C1046.4886,-34.1076 1246.2447,-45.3594 1409.983,-81.4156 1418.8786,-83.3745 1428.1282,-85.9317 1437.1413,-88.7274"/>
<polygon fill="#000000" stroke="#000000" points="1436.2094,-92.1042 1446.8008,-91.8375 1438.3548,-85.4411 1436.2094,-92.1042"/>
</g>
<!-- s1088 -->
<g id="node18" class="node">
<title>s1088</title>
<ellipse fill="none" stroke="#000000" cx="1661.2612" cy="-168.4156" rx="73.3577" ry="29.3315"/>
<text text-anchor="middle" x="1661.2612" y="-172.6156" font-family="Times,serif" font-size="14.00" fill="#000000">s1088 STRING</text>
<text text-anchor="middle" x="1661.2612" y="-155.8156" font-family="Times,serif" font-size="14.00" fill="#000000">&quot;,&quot;</text>
</g>
<!-- s1087&#45;&gt;s1088 -->
<g id="edge15" class="edge">
<title>s1087:p0&#45;&gt;s1088</title>
<path fill="none" stroke="#000000" d="M1538.7828,-136.4156C1538.7828,-157.8573 1556.5715,-167.6037 1578.5903,-171.4548"/>
<polygon fill="#000000" stroke="#000000" points="1578.2232,-174.9368 1588.5994,-172.796 1579.1529,-167.9988 1578.2232,-174.9368"/>
<text text-anchor="middle" x="1568.3326" y="-172.6156" font-family="Times,serif" font-size="14.00" fill="#000000">,</text>
</g>
<!-- s1089 -->
<g id="node19" class="node">
<title>s1089</title>
<ellipse fill="none" stroke="#000000" cx="1661.2612" cy="-91.4156" rx="45.3054" ry="29.3315"/>
<text text-anchor="middle" x="1661.2612" y="-95.6156" font-family="Times,serif" font-size="14.00" fill="#000000">s1089 </text>
<text text-anchor="middle" x="1661.2612" y="-78.8156" font-family="Times,serif" font-size="14.00" fill="#000000">BLANK</text>
</g>
<!-- s1087&#45;&gt;s1089 -->
<g id="edge16" class="edge">
<title>s1087:p1&#45;&gt;s1089</title>
<path fill="none" stroke="#000000" d="M1548.5826,-99.4156C1567.3591,-99.4156 1587.8514,-98.2967 1606.15,-96.8957"/>
<polygon fill="#000000" stroke="#000000" points="1606.6673,-100.3654 1616.352,-96.0693 1606.102,-93.3882 1606.6673,-100.3654"/>
</g>
<!-- s1087&#45;&gt;s1090 -->
<g id="edge22" class="edge">
<title>s1087&#45;&gt;s1090</title>
<path fill="none" stroke="#000000" d="M1543.424,-136.4535C1553.6832,-144.1354 1563.4755,-153.4971 1570.0826,-164.4156 1597.7752,-210.1797 1557.1931,-239.7456 1588.0826,-283.4156 1591.356,-288.0435 1595.3537,-292.1703 1599.7753,-295.8408"/>
<polygon fill="#000000" stroke="#000000" points="1597.9933,-298.8742 1608.1274,-301.9645 1602.1323,-293.229 1597.9933,-298.8742"/>
</g>
</g>
</svg>
