<?xml version="1.0" encoding="UTF-8" standalone="no"?>
<!DOCTYPE svg PUBLIC "-//W3C//DTD SVG 1.1//EN"
 "http://www.w3.org/Graphics/SVG/1.1/DTD/svg11.dtd">
<!-- Generated by graphviz version 2.40.1 (20161225.0304)
 -->
<!-- Title: optional_type_parameter Pages: 1 -->
<svg width="1002pt" height="144pt"
 viewBox="0.00 0.00 1002.48 143.83" xmlns="http://www.w3.org/2000/svg" xmlns:xlink="http://www.w3.org/1999/xlink">
<g id="graph0" class="graph" transform="scale(1 1) rotate(0) translate(4 139.8313)">
<title>optional_type_parameter</title>
<polygon fill="#ffffff" stroke="transparent" points="-4,4 -4,-139.8313 998.4777,-139.8313 998.4777,4 -4,4"/>
<!-- s635 -->
<g id="node1" class="node">
<title>s635</title>
<polygon fill="none" stroke="#000000" points="0,-46.6156 0,-88.2156 56.4418,-88.2156 56.4418,-46.6156 0,-46.6156"/>
<text text-anchor="middle" x="28.2209" y="-71.6156" font-family="Times,serif" font-size="14.00" fill="#000000">s635</text>
<text text-anchor="middle" x="28.2209" y="-54.8156" font-family="Times,serif" font-size="14.00" fill="#000000">→ SEQ</text>
</g>
<!-- s636 -->
<g id="node2" class="node">
<title>s636</title>
<polygon fill="none" stroke="#000000" points="93.4418,-42.6156 93.4418,-92.2156 195.0414,-92.2156 195.0414,-42.6156 93.4418,-42.6156"/>
<text text-anchor="middle" x="134.4916" y="-71.6156" font-family="Times,serif" font-size="14.00" fill="#000000">s636</text>
<text text-anchor="middle" x="134.4916" y="-54.8156" font-family="Times,serif" font-size="14.00" fill="#000000">→ CHOICE</text>
<polyline fill="none" stroke="#000000" points="175.5414,-42.6156 175.5414,-92.2156 "/>
<text text-anchor="middle" x="185.2914" y="-75.6156" font-family="Times,serif" font-size="14.00" fill="#000000"> </text>
<polyline fill="none" stroke="#000000" points="175.5414,-67.4156 195.0414,-67.4156 "/>
<text text-anchor="middle" x="185.2914" y="-50.8156" font-family="Times,serif" font-size="14.00" fill="#000000"> </text>
</g>
<!-- s635&#45;&gt;s636 -->
<g id="edge3" class="edge">
<title>s635&#45;&gt;s636</title>
<path fill="none" stroke="#000000" d="M56.6028,-67.4156C64.6824,-67.4156 73.8102,-67.4156 83.0459,-67.4156"/>
<polygon fill="#000000" stroke="#000000" points="83.0657,-70.9157 93.0657,-67.4156 83.0656,-63.9157 83.0657,-70.9157"/>
</g>
<!-- s637 -->
<g id="node3" class="node">
<title>s637</title>
<g id="a_node3"><a xlink:href="rust-grammar.json._type_identifier.dot.svg" xlink:title="s637 SYMBOL\n_type_identifier">
<ellipse fill="none" stroke="#000000" cx="513.0958" cy="-106.4156" rx="74.5836" ry="29.3315"/>
<text text-anchor="middle" x="513.0958" y="-110.6156" font-family="Times,serif" font-size="14.00" fill="#000000">s637 SYMBOL</text>
<text text-anchor="middle" x="513.0958" y="-93.8156" font-family="Times,serif" font-size="14.00" fill="#000000">_type_identifier</text>
</a>
</g>
</g>
<!-- s636&#45;&gt;s637 -->
<g id="edge1" class="edge">
<title>s636:p0&#45;&gt;s637</title>
<path fill="none" stroke="#000000" d="M195.0414,-79.4156C275.9174,-79.4156 367.9482,-88.1906 432.1307,-95.7356"/>
<polygon fill="#000000" stroke="#000000" points="431.8424,-99.2259 442.1865,-96.9344 432.6711,-92.2752 431.8424,-99.2259"/>
<text text-anchor="middle" x="292.3395" y="-92.6156" font-family="Times,serif" font-size="14.00" fill="#000000">_type_identifier</text>
</g>
<!-- s638 -->
<g id="node4" class="node">
<title>s638</title>
<g id="a_node4"><a xlink:href="rust-grammar.json.constrained_type_parameter.dot.svg" xlink:title="s638 SYMBOL\nconstrained_type_parameter">
<ellipse fill="none" stroke="#000000" cx="513.0958" cy="-29.4156" rx="123.4163" ry="29.3315"/>
<text text-anchor="middle" x="513.0958" y="-33.6156" font-family="Times,serif" font-size="14.00" fill="#000000">s638 SYMBOL</text>
<text text-anchor="middle" x="513.0958" y="-16.8156" font-family="Times,serif" font-size="14.00" fill="#000000">constrained_type_parameter</text>
</a>
</g>
</g>
<!-- s636&#45;&gt;s638 -->
<g id="edge2" class="edge">
<title>s636:p1&#45;&gt;s638</title>
<path fill="none" stroke="#000000" d="M195.0414,-55.4156C260.5066,-55.4156 333.3001,-49.8762 392.7091,-43.9111"/>
<polygon fill="#000000" stroke="#000000" points="393.2886,-47.3703 402.8813,-42.8726 392.5775,-40.4065 393.2886,-47.3703"/>
<text text-anchor="middle" x="292.3395" y="-58.6156" font-family="Times,serif" font-size="14.00" fill="#000000">constrained_type_parameter</text>
</g>
<!-- s639 -->
<g id="node5" class="node">
<title>s639</title>
<ellipse fill="none" stroke="#000000" cx="741.7828" cy="-67.4156" rx="68.4585" ry="29.3315"/>
<text text-anchor="middle" x="741.7828" y="-71.6156" font-family="Times,serif" font-size="14.00" fill="#000000">s639 STRING</text>
<text text-anchor="middle" x="741.7828" y="-54.8156" font-family="Times,serif" font-size="14.00" fill="#000000">&quot;=&quot;</text>
</g>
<!-- s637&#45;&gt;s639 -->
<g id="edge4" class="edge">
<title>s637&#45;&gt;s639</title>
<path fill="none" stroke="#000000" d="M581.7094,-94.7144C609.0112,-90.0583 640.4774,-84.6921 668.2474,-79.9563"/>
<polygon fill="#000000" stroke="#000000" points="669.0274,-83.3739 678.2966,-78.2425 667.8505,-76.4735 669.0274,-83.3739"/>
</g>
<!-- s638&#45;&gt;s639 -->
<g id="edge5" class="edge">
<title>s638&#45;&gt;s639</title>
<path fill="none" stroke="#000000" d="M614.3999,-46.2489C632.4766,-49.2527 650.9937,-52.3296 668.1123,-55.1741"/>
<polygon fill="#000000" stroke="#000000" points="667.5775,-58.6332 678.016,-56.8198 668.725,-51.7278 667.5775,-58.6332"/>
</g>
<!-- s640 -->
<g id="node6" class="node">
<title>s640</title>
<g id="a_node6"><a xlink:href="rust-grammar.json._type.dot.svg" xlink:title="s640 SYMBOL\n_type">
<ellipse fill="none" stroke="#000000" cx="920.7447" cy="-67.4156" rx="73.9667" ry="29.3315"/>
<text text-anchor="middle" x="920.7447" y="-71.6156" font-family="Times,serif" font-size="14.00" fill="#000000">s640 SYMBOL</text>
<text text-anchor="middle" x="920.7447" y="-54.8156" font-family="Times,serif" font-size="14.00" fill="#000000">_type</text>
</a>
</g>
</g>
<!-- s639&#45;&gt;s640 -->
<g id="edge6" class="edge">
<title>s639&#45;&gt;s640</title>
<path fill="none" stroke="#000000" d="M810.2066,-67.4156C818.9532,-67.4156 827.9844,-67.4156 836.9395,-67.4156"/>
<polygon fill="#000000" stroke="#000000" points="836.9986,-70.9157 846.9986,-67.4156 836.9985,-63.9157 836.9986,-70.9157"/>
</g>
</g>
</svg>
