<?xml version="1.0" encoding="UTF-8" standalone="no"?>
<!DOCTYPE svg PUBLIC "-//W3C//DTD SVG 1.1//EN"
 "http://www.w3.org/Graphics/SVG/1.1/DTD/svg11.dtd">
<!-- Generated by graphviz version 2.40.1 (20161225.0304)
 -->
<!-- Title: meta_item Pages: 1 -->
<svg width="2392pt" height="301pt"
 viewBox="0.00 0.00 2392.34 300.83" xmlns="http://www.w3.org/2000/svg" xmlns:xlink="http://www.w3.org/1999/xlink">
<g id="graph0" class="graph" transform="scale(1 1) rotate(0) translate(4 296.8313)">
<title>meta_item</title>
<polygon fill="#ffffff" stroke="transparent" points="-4,4 -4,-296.8313 2388.3434,-296.8313 2388.3434,4 -4,4"/>
<!-- s213 -->
<g id="node1" class="node">
<title>s213</title>
<polygon fill="none" stroke="#000000" points="0,-86.6156 0,-128.2156 56.4418,-128.2156 56.4418,-86.6156 0,-86.6156"/>
<text text-anchor="middle" x="28.2209" y="-111.6156" font-family="Times,serif" font-size="14.00" fill="#000000">s213</text>
<text text-anchor="middle" x="28.2209" y="-94.8156" font-family="Times,serif" font-size="14.00" fill="#000000">→ SEQ</text>
</g>
<!-- s214 -->
<g id="node2" class="node">
<title>s214</title>
<g id="a_node2"><a xlink:href="rust-grammar.json._path.dot.svg" xlink:title="s214 SYMBOL\n_path">
<ellipse fill="none" stroke="#000000" cx="167.1748" cy="-107.4156" rx="73.9667" ry="29.3315"/>
<text text-anchor="middle" x="167.1748" y="-111.6156" font-family="Times,serif" font-size="14.00" fill="#000000">s214 SYMBOL</text>
<text text-anchor="middle" x="167.1748" y="-94.8156" font-family="Times,serif" font-size="14.00" fill="#000000">_path</text>
</a>
</g>
</g>
<!-- s213&#45;&gt;s214 -->
<g id="edge1" class="edge">
<title>s213&#45;&gt;s214</title>
<path fill="none" stroke="#000000" d="M56.6756,-107.4156C64.69,-107.4156 73.8391,-107.4156 83.3639,-107.4156"/>
<polygon fill="#000000" stroke="#000000" points="83.3941,-110.9157 93.394,-107.4156 83.394,-103.9157 83.3941,-110.9157"/>
</g>
<!-- s215 -->
<g id="node3" class="node">
<title>s215</title>
<polygon fill="none" stroke="#000000" points="277.9078,-82.6156 277.9078,-132.2156 379.5074,-132.2156 379.5074,-82.6156 277.9078,-82.6156"/>
<text text-anchor="middle" x="318.9576" y="-111.6156" font-family="Times,serif" font-size="14.00" fill="#000000">s215</text>
<text text-anchor="middle" x="318.9576" y="-94.8156" font-family="Times,serif" font-size="14.00" fill="#000000">→ CHOICE</text>
<polyline fill="none" stroke="#000000" points="360.0074,-82.6156 360.0074,-132.2156 "/>
<text text-anchor="middle" x="369.7574" y="-115.6156" font-family="Times,serif" font-size="14.00" fill="#000000"> </text>
<polyline fill="none" stroke="#000000" points="360.0074,-107.4156 379.5074,-107.4156 "/>
<text text-anchor="middle" x="369.7574" y="-90.8156" font-family="Times,serif" font-size="14.00" fill="#000000"> </text>
</g>
<!-- s214&#45;&gt;s215 -->
<g id="edge29" class="edge">
<title>s214&#45;&gt;s215</title>
<path fill="none" stroke="#000000" d="M241.3224,-107.4156C250.0491,-107.4156 258.8794,-107.4156 267.4024,-107.4156"/>
<polygon fill="#000000" stroke="#000000" points="267.6184,-110.9157 277.6184,-107.4156 267.6184,-103.9157 267.6184,-110.9157"/>
</g>
<!-- s216 -->
<g id="node4" class="node">
<title>s216</title>
<polygon fill="none" stroke="#000000" points="416.5074,-143.6156 416.5074,-193.2156 518.107,-193.2156 518.107,-143.6156 416.5074,-143.6156"/>
<text text-anchor="middle" x="457.5572" y="-172.6156" font-family="Times,serif" font-size="14.00" fill="#000000">s216</text>
<text text-anchor="middle" x="457.5572" y="-155.8156" font-family="Times,serif" font-size="14.00" fill="#000000">→ CHOICE</text>
<polyline fill="none" stroke="#000000" points="498.607,-143.6156 498.607,-193.2156 "/>
<text text-anchor="middle" x="508.357" y="-176.6156" font-family="Times,serif" font-size="14.00" fill="#000000"> </text>
<polyline fill="none" stroke="#000000" points="498.607,-168.4156 518.107,-168.4156 "/>
<text text-anchor="middle" x="508.357" y="-151.8156" font-family="Times,serif" font-size="14.00" fill="#000000"> </text>
</g>
<!-- s215&#45;&gt;s216 -->
<g id="edge27" class="edge">
<title>s215:p0&#45;&gt;s216</title>
<path fill="none" stroke="#000000" d="M369.7076,-132.4156C369.7076,-151.7387 386.7555,-161.1983 406.6015,-165.6639"/>
<polygon fill="#000000" stroke="#000000" points="406.0397,-169.1191 416.5063,-167.4762 407.2996,-162.2334 406.0397,-169.1191"/>
</g>
<!-- s238 -->
<g id="node26" class="node">
<title>s238</title>
<ellipse fill="none" stroke="#000000" cx="467.3072" cy="-95.4156" rx="45.3054" ry="29.3315"/>
<text text-anchor="middle" x="467.3072" y="-99.6156" font-family="Times,serif" font-size="14.00" fill="#000000">s238 </text>
<text text-anchor="middle" x="467.3072" y="-82.8156" font-family="Times,serif" font-size="14.00" fill="#000000">BLANK</text>
</g>
<!-- s215&#45;&gt;s238 -->
<g id="edge28" class="edge">
<title>s215:p1&#45;&gt;s238</title>
<path fill="none" stroke="#000000" d="M379.5074,-95.4156C389.9036,-95.4156 400.9923,-95.4156 411.6665,-95.4156"/>
<polygon fill="#000000" stroke="#000000" points="411.7374,-98.9157 421.7374,-95.4156 411.7374,-91.9157 411.7374,-98.9157"/>
</g>
<!-- s217 -->
<g id="node5" class="node">
<title>s217</title>
<polygon fill="none" stroke="#000000" points="555.107,-175.6156 555.107,-217.2156 611.5488,-217.2156 611.5488,-175.6156 555.107,-175.6156"/>
<text text-anchor="middle" x="583.3279" y="-200.6156" font-family="Times,serif" font-size="14.00" fill="#000000">s217</text>
<text text-anchor="middle" x="583.3279" y="-183.8156" font-family="Times,serif" font-size="14.00" fill="#000000">→ SEQ</text>
</g>
<!-- s216&#45;&gt;s217 -->
<g id="edge4" class="edge">
<title>s216:p0&#45;&gt;s217</title>
<path fill="none" stroke="#000000" d="M518.107,-180.4156C526.9058,-180.4156 536.1849,-181.8062 544.8966,-183.7673"/>
<polygon fill="#000000" stroke="#000000" points="544.2459,-187.2131 554.7998,-186.2826 545.9691,-180.4285 544.2459,-187.2131"/>
</g>
<!-- s220 -->
<g id="node8" class="node">
<title>s220</title>
<polygon fill="none" stroke="#000000" points="555.107,-112.6156 555.107,-154.2156 611.5488,-154.2156 611.5488,-112.6156 555.107,-112.6156"/>
<text text-anchor="middle" x="583.3279" y="-137.6156" font-family="Times,serif" font-size="14.00" fill="#000000">s220</text>
<text text-anchor="middle" x="583.3279" y="-120.8156" font-family="Times,serif" font-size="14.00" fill="#000000">→ SEQ</text>
</g>
<!-- s216&#45;&gt;s220 -->
<g id="edge26" class="edge">
<title>s216:p1&#45;&gt;s220</title>
<path fill="none" stroke="#000000" d="M518.107,-156.4156C527.1794,-156.4156 536.5783,-154.4118 545.3206,-151.5871"/>
<polygon fill="#000000" stroke="#000000" points="546.6615,-154.8237 554.8595,-148.1121 544.2655,-148.2465 546.6615,-154.8237"/>
</g>
<!-- s218 -->
<g id="node6" class="node">
<title>s218</title>
<ellipse fill="none" stroke="#000000" cx="716.7777" cy="-198.4156" rx="68.4585" ry="29.3315"/>
<text text-anchor="middle" x="716.7777" y="-202.6156" font-family="Times,serif" font-size="14.00" fill="#000000">s218 STRING</text>
<text text-anchor="middle" x="716.7777" y="-185.8156" font-family="Times,serif" font-size="14.00" fill="#000000">&quot;=&quot;</text>
</g>
<!-- s217&#45;&gt;s218 -->
<g id="edge2" class="edge">
<title>s217&#45;&gt;s218</title>
<path fill="none" stroke="#000000" d="M611.6292,-196.8398C619.6926,-196.9606 628.8916,-197.0985 638.4171,-197.2413"/>
<polygon fill="#000000" stroke="#000000" points="638.3766,-200.7409 648.428,-197.3913 638.4816,-193.7417 638.3766,-200.7409"/>
</g>
<!-- s219 -->
<g id="node7" class="node">
<title>s219</title>
<g id="a_node7"><a xlink:href="rust-grammar.json._literal.dot.svg" xlink:title="s219 SYMBOL\n_literal">
<ellipse fill="none" stroke="#000000" cx="895.7395" cy="-198.4156" rx="73.9667" ry="29.3315"/>
<text text-anchor="middle" x="895.7395" y="-202.6156" font-family="Times,serif" font-size="14.00" fill="#000000">s219 SYMBOL</text>
<text text-anchor="middle" x="895.7395" y="-185.8156" font-family="Times,serif" font-size="14.00" fill="#000000">_literal</text>
</a>
</g>
</g>
<!-- s218&#45;&gt;s219 -->
<g id="edge3" class="edge">
<title>s218&#45;&gt;s219</title>
<path fill="none" stroke="#000000" d="M785.2015,-198.4156C793.9481,-198.4156 802.9793,-198.4156 811.9344,-198.4156"/>
<polygon fill="#000000" stroke="#000000" points="811.9935,-201.9157 821.9934,-198.4156 811.9934,-194.9157 811.9935,-201.9157"/>
</g>
<!-- s221 -->
<g id="node9" class="node">
<title>s221</title>
<ellipse fill="none" stroke="#000000" cx="716.7777" cy="-121.4156" rx="68.4585" ry="29.3315"/>
<text text-anchor="middle" x="716.7777" y="-125.6156" font-family="Times,serif" font-size="14.00" fill="#000000">s221 STRING</text>
<text text-anchor="middle" x="716.7777" y="-108.8156" font-family="Times,serif" font-size="14.00" fill="#000000">&quot;(&quot;</text>
</g>
<!-- s220&#45;&gt;s221 -->
<g id="edge5" class="edge">
<title>s220&#45;&gt;s221</title>
<path fill="none" stroke="#000000" d="M611.6292,-130.8708C620.0643,-130.1122 629.7423,-129.242 639.7367,-128.3433"/>
<polygon fill="#000000" stroke="#000000" points="640.156,-131.8198 649.8023,-127.4382 639.529,-124.8479 640.156,-131.8198"/>
</g>
<!-- s222 -->
<g id="node10" class="node">
<title>s222</title>
<polygon fill="none" stroke="#000000" points="844.9397,-96.6156 844.9397,-146.2156 946.5393,-146.2156 946.5393,-96.6156 844.9397,-96.6156"/>
<text text-anchor="middle" x="885.9895" y="-125.6156" font-family="Times,serif" font-size="14.00" fill="#000000">s222</text>
<text text-anchor="middle" x="885.9895" y="-108.8156" font-family="Times,serif" font-size="14.00" fill="#000000">→ CHOICE</text>
<polyline fill="none" stroke="#000000" points="927.0393,-96.6156 927.0393,-146.2156 "/>
<text text-anchor="middle" x="936.7893" y="-129.6156" font-family="Times,serif" font-size="14.00" fill="#000000"> </text>
<polyline fill="none" stroke="#000000" points="927.0393,-121.4156 946.5393,-121.4156 "/>
<text text-anchor="middle" x="936.7893" y="-104.8156" font-family="Times,serif" font-size="14.00" fill="#000000"> </text>
</g>
<!-- s221&#45;&gt;s222 -->
<g id="edge19" class="edge">
<title>s221&#45;&gt;s222</title>
<path fill="none" stroke="#000000" d="M785.2015,-121.4156C801.4713,-121.4156 818.7258,-121.4156 834.6435,-121.4156"/>
<polygon fill="#000000" stroke="#000000" points="834.8869,-124.9157 844.8868,-121.4156 834.8868,-117.9157 834.8869,-124.9157"/>
</g>
<!-- s223 -->
<g id="node11" class="node">
<title>s223</title>
<polygon fill="none" stroke="#000000" points="1006.4725,-139.6156 1006.4725,-181.2156 1062.9143,-181.2156 1062.9143,-139.6156 1006.4725,-139.6156"/>
<text text-anchor="middle" x="1034.6934" y="-164.6156" font-family="Times,serif" font-size="14.00" fill="#000000">s223</text>
<text text-anchor="middle" x="1034.6934" y="-147.8156" font-family="Times,serif" font-size="14.00" fill="#000000">→ SEQ</text>
</g>
<!-- s222&#45;&gt;s223 -->
<g id="edge17" class="edge">
<title>s222:p0&#45;&gt;s223</title>
<path fill="none" stroke="#000000" d="M946.7395,-133.4156C963.6423,-133.4156 981.5996,-138.0291 996.8515,-143.4419"/>
<polygon fill="#000000" stroke="#000000" points="995.8538,-146.8065 1006.4452,-147.0738 998.3322,-140.2599 995.8538,-146.8065"/>
</g>
<!-- s233 -->
<g id="node21" class="node">
<title>s233</title>
<ellipse fill="none" stroke="#000000" cx="1126.3169" cy="-99.4156" rx="45.3054" ry="29.3315"/>
<text text-anchor="middle" x="1126.3169" y="-103.6156" font-family="Times,serif" font-size="14.00" fill="#000000">s233 </text>
<text text-anchor="middle" x="1126.3169" y="-86.8156" font-family="Times,serif" font-size="14.00" fill="#000000">BLANK</text>
</g>
<!-- s222&#45;&gt;s233 -->
<g id="edge18" class="edge">
<title>s222:p1&#45;&gt;s233</title>
<path fill="none" stroke="#000000" d="M946.7395,-109.4156C988.3742,-109.4156 1035.3548,-106.7028 1070.8175,-104.1031"/>
<polygon fill="#000000" stroke="#000000" points="1071.2573,-107.5799 1080.9664,-103.3392 1070.7319,-100.5997 1071.2573,-107.5799"/>
</g>
<!-- s224 -->
<g id="node12" class="node">
<title>s224</title>
<polygon fill="none" stroke="#000000" points="1189.7196,-138.6156 1189.7196,-188.2156 1291.3192,-188.2156 1291.3192,-138.6156 1189.7196,-138.6156"/>
<text text-anchor="middle" x="1230.7694" y="-167.6156" font-family="Times,serif" font-size="14.00" fill="#000000">s224</text>
<text text-anchor="middle" x="1230.7694" y="-150.8156" font-family="Times,serif" font-size="14.00" fill="#000000">→ CHOICE</text>
<polyline fill="none" stroke="#000000" points="1271.8192,-138.6156 1271.8192,-188.2156 "/>
<text text-anchor="middle" x="1281.5692" y="-171.6156" font-family="Times,serif" font-size="14.00" fill="#000000"> </text>
<polyline fill="none" stroke="#000000" points="1271.8192,-163.4156 1291.3192,-163.4156 "/>
<text text-anchor="middle" x="1281.5692" y="-146.8156" font-family="Times,serif" font-size="14.00" fill="#000000"> </text>
</g>
<!-- s223&#45;&gt;s224 -->
<g id="edge8" class="edge">
<title>s223&#45;&gt;s224</title>
<path fill="none" stroke="#000000" d="M1063.3126,-160.8328C1093.2252,-161.2688 1141.0682,-161.9661 1179.5067,-162.5264"/>
<polygon fill="#000000" stroke="#000000" points="1179.5167,-166.0268 1189.5667,-162.673 1179.6188,-159.0275 1179.5167,-166.0268"/>
</g>
<!-- s225 -->
<g id="node13" class="node">
<title>s225</title>
<g id="a_node13"><a xlink:href="rust-grammar.json.meta_item.dot.svg" xlink:title="s225 SYMBOL\nmeta_item">
<ellipse fill="none" stroke="#000000" cx="1460.149" cy="-228.4156" rx="73.9667" ry="29.3315"/>
<text text-anchor="middle" x="1460.149" y="-232.6156" font-family="Times,serif" font-size="14.00" fill="#000000">s225 SYMBOL</text>
<text text-anchor="middle" x="1460.149" y="-215.8156" font-family="Times,serif" font-size="14.00" fill="#000000">meta_item</text>
</a>
</g>
</g>
<!-- s224&#45;&gt;s225 -->
<g id="edge6" class="edge">
<title>s224:p0&#45;&gt;s225</title>
<path fill="none" stroke="#000000" d="M1291.3192,-175.4156C1330.3247,-175.4156 1372.1684,-188.4526 1404.4404,-201.5948"/>
<polygon fill="#000000" stroke="#000000" points="1403.1299,-204.8405 1413.7055,-205.4773 1405.8353,-198.3844 1403.1299,-204.8405"/>
<text text-anchor="middle" x="1338.8676" y="-191.6156" font-family="Times,serif" font-size="14.00" fill="#000000">meta_item</text>
</g>
<!-- s226 -->
<g id="node14" class="node">
<title>s226</title>
<g id="a_node14"><a xlink:href="rust-grammar.json._literal.dot.svg" xlink:title="s226 SYMBOL\n_literal">
<ellipse fill="none" stroke="#000000" cx="1460.149" cy="-151.4156" rx="73.9667" ry="29.3315"/>
<text text-anchor="middle" x="1460.149" y="-155.6156" font-family="Times,serif" font-size="14.00" fill="#000000">s226 SYMBOL</text>
<text text-anchor="middle" x="1460.149" y="-138.8156" font-family="Times,serif" font-size="14.00" fill="#000000">_literal</text>
</a>
</g>
</g>
<!-- s224&#45;&gt;s226 -->
<g id="edge7" class="edge">
<title>s224:p1&#45;&gt;s226</title>
<path fill="none" stroke="#000000" d="M1291.3192,-151.4156C1318.869,-151.4156 1348.9475,-151.4156 1375.9841,-151.4156"/>
<polygon fill="#000000" stroke="#000000" points="1376.1856,-154.9157 1386.1856,-151.4156 1376.1856,-147.9157 1376.1856,-154.9157"/>
<text text-anchor="middle" x="1338.8676" y="-155.6156" font-family="Times,serif" font-size="14.00" fill="#000000">_literal</text>
</g>
<!-- s227 -->
<g id="node15" class="node">
<title>s227</title>
<polygon fill="none" stroke="#000000" points="1570.882,-162.6156 1570.882,-204.2156 1653.7656,-204.2156 1653.7656,-162.6156 1570.882,-162.6156"/>
<text text-anchor="middle" x="1612.3238" y="-187.6156" font-family="Times,serif" font-size="14.00" fill="#000000">s227</text>
<text text-anchor="middle" x="1612.3238" y="-170.8156" font-family="Times,serif" font-size="14.00" fill="#000000">→ REPEAT</text>
</g>
<!-- s225&#45;&gt;s227 -->
<g id="edge15" class="edge">
<title>s225&#45;&gt;s227</title>
<path fill="none" stroke="#000000" d="M1519.4194,-210.8886C1533.1188,-206.8375 1547.5839,-202.56 1560.9153,-198.6178"/>
<polygon fill="#000000" stroke="#000000" points="1562.2606,-201.8699 1570.8576,-195.6777 1560.2755,-195.1572 1562.2606,-201.8699"/>
</g>
<!-- s226&#45;&gt;s227 -->
<g id="edge16" class="edge">
<title>s226&#45;&gt;s227</title>
<path fill="none" stroke="#000000" d="M1525.5679,-165.1722C1537.2863,-167.6364 1549.349,-170.173 1560.6146,-172.542"/>
<polygon fill="#000000" stroke="#000000" points="1560.1974,-176.0307 1570.7036,-174.6636 1561.6379,-169.1806 1560.1974,-176.0307"/>
</g>
<!-- s228 -->
<g id="node16" class="node">
<title>s228</title>
<polygon fill="none" stroke="#000000" points="1713.3445,-162.6156 1713.3445,-204.2156 1769.7863,-204.2156 1769.7863,-162.6156 1713.3445,-162.6156"/>
<text text-anchor="middle" x="1741.5654" y="-187.6156" font-family="Times,serif" font-size="14.00" fill="#000000">s228</text>
<text text-anchor="middle" x="1741.5654" y="-170.8156" font-family="Times,serif" font-size="14.00" fill="#000000">→ SEQ</text>
</g>
<!-- s227&#45;&gt;s228 -->
<g id="edge13" class="edge">
<title>s227&#45;&gt;s228</title>
<path fill="none" stroke="#000000" d="M1653.928,-183.4156C1669.6365,-183.4156 1687.4322,-183.4156 1702.864,-183.4156"/>
<polygon fill="#000000" stroke="#000000" points="1703.1153,-186.9157 1713.1153,-183.4156 1703.1152,-179.9157 1703.1153,-186.9157"/>
</g>
<!-- s234 -->
<g id="node22" class="node">
<title>s234</title>
<polygon fill="none" stroke="#000000" points="1690.7656,-69.6156 1690.7656,-119.2156 1792.3652,-119.2156 1792.3652,-69.6156 1690.7656,-69.6156"/>
<text text-anchor="middle" x="1731.8154" y="-98.6156" font-family="Times,serif" font-size="14.00" fill="#000000">s234</text>
<text text-anchor="middle" x="1731.8154" y="-81.8156" font-family="Times,serif" font-size="14.00" fill="#000000">→ CHOICE</text>
<polyline fill="none" stroke="#000000" points="1772.8652,-69.6156 1772.8652,-119.2156 "/>
<text text-anchor="middle" x="1782.6152" y="-102.6156" font-family="Times,serif" font-size="14.00" fill="#000000"> </text>
<polyline fill="none" stroke="#000000" points="1772.8652,-94.4156 1792.3652,-94.4156 "/>
<text text-anchor="middle" x="1782.6152" y="-77.8156" font-family="Times,serif" font-size="14.00" fill="#000000"> </text>
</g>
<!-- s227&#45;&gt;s234 -->
<g id="edge22" class="edge">
<title>s227&#45;&gt;s234</title>
<path fill="none" stroke="#000000" d="M1642.6252,-162.5491C1658.7827,-151.4225 1678.9729,-137.5189 1696.8936,-125.1781"/>
<polygon fill="#000000" stroke="#000000" points="1699.2301,-127.8187 1705.4811,-119.2644 1695.26,-122.0534 1699.2301,-127.8187"/>
</g>
<!-- s229 -->
<g id="node17" class="node">
<title>s229</title>
<ellipse fill="none" stroke="#000000" cx="1900.094" cy="-183.4156" rx="68.4585" ry="29.3315"/>
<text text-anchor="middle" x="1900.094" y="-187.6156" font-family="Times,serif" font-size="14.00" fill="#000000">s229 STRING</text>
<text text-anchor="middle" x="1900.094" y="-170.8156" font-family="Times,serif" font-size="14.00" fill="#000000">&quot;,&quot;</text>
</g>
<!-- s228&#45;&gt;s229 -->
<g id="edge9" class="edge">
<title>s228&#45;&gt;s229</title>
<path fill="none" stroke="#000000" d="M1769.9071,-183.4156C1784.485,-183.4156 1803.0481,-183.4156 1821.5582,-183.4156"/>
<polygon fill="#000000" stroke="#000000" points="1821.8105,-186.9157 1831.8105,-183.4156 1821.8105,-179.9157 1821.8105,-186.9157"/>
</g>
<!-- s230 -->
<g id="node18" class="node">
<title>s230</title>
<polygon fill="none" stroke="#000000" points="2022.752,-200.6156 2022.752,-250.2156 2124.3516,-250.2156 2124.3516,-200.6156 2022.752,-200.6156"/>
<text text-anchor="middle" x="2063.8018" y="-229.6156" font-family="Times,serif" font-size="14.00" fill="#000000">s230</text>
<text text-anchor="middle" x="2063.8018" y="-212.8156" font-family="Times,serif" font-size="14.00" fill="#000000">→ CHOICE</text>
<polyline fill="none" stroke="#000000" points="2104.8516,-200.6156 2104.8516,-250.2156 "/>
<text text-anchor="middle" x="2114.6016" y="-233.6156" font-family="Times,serif" font-size="14.00" fill="#000000"> </text>
<polyline fill="none" stroke="#000000" points="2104.8516,-225.4156 2124.3516,-225.4156 "/>
<text text-anchor="middle" x="2114.6016" y="-208.8156" font-family="Times,serif" font-size="14.00" fill="#000000"> </text>
</g>
<!-- s229&#45;&gt;s230 -->
<g id="edge12" class="edge">
<title>s229&#45;&gt;s230</title>
<path fill="none" stroke="#000000" d="M1959.7883,-197.8697C1976.9097,-202.0153 1995.5929,-206.5392 2012.7784,-210.7004"/>
<polygon fill="#000000" stroke="#000000" points="2012.158,-214.1512 2022.7008,-213.1029 2013.8054,-207.3478 2012.158,-214.1512"/>
</g>
<!-- s230&#45;&gt;s227 -->
<g id="edge14" class="edge">
<title>s230&#45;&gt;s227</title>
<path fill="none" stroke="#000000" d="M2022.6981,-229.5364C1948.7065,-234.2515 1807.4667,-238.4069 1690.7656,-213.4156 1681.7613,-211.4874 1672.4256,-208.6847 1663.4701,-205.5563"/>
<polygon fill="#000000" stroke="#000000" points="1664.5289,-202.2167 1653.9352,-202.0599 1662.1189,-208.7888 1664.5289,-202.2167"/>
</g>
<!-- s231 -->
<g id="node19" class="node">
<title>s231</title>
<g id="a_node19"><a xlink:href="rust-grammar.json.meta_item.dot.svg" xlink:title="s231 SYMBOL\nmeta_item">
<ellipse fill="none" stroke="#000000" cx="2310.6104" cy="-263.4156" rx="73.9667" ry="29.3315"/>
<text text-anchor="middle" x="2310.6104" y="-267.6156" font-family="Times,serif" font-size="14.00" fill="#000000">s231 SYMBOL</text>
<text text-anchor="middle" x="2310.6104" y="-250.8156" font-family="Times,serif" font-size="14.00" fill="#000000">meta_item</text>
</a>
</g>
</g>
<!-- s230&#45;&gt;s231 -->
<g id="edge10" class="edge">
<title>s230:p0&#45;&gt;s231</title>
<path fill="none" stroke="#000000" d="M2124.5518,-237.4156C2161.0559,-237.4156 2201.2043,-242.3853 2234.8331,-247.9791"/>
<polygon fill="#000000" stroke="#000000" points="2234.6015,-251.4904 2245.0491,-249.7304 2235.7842,-244.591 2234.6015,-251.4904"/>
<text text-anchor="middle" x="2189.3291" y="-248.6156" font-family="Times,serif" font-size="14.00" fill="#000000">meta_item</text>
</g>
<!-- s232 -->
<g id="node20" class="node">
<title>s232</title>
<g id="a_node20"><a xlink:href="rust-grammar.json._literal.dot.svg" xlink:title="s232 SYMBOL\n_literal">
<ellipse fill="none" stroke="#000000" cx="2310.6104" cy="-186.4156" rx="73.9667" ry="29.3315"/>
<text text-anchor="middle" x="2310.6104" y="-190.6156" font-family="Times,serif" font-size="14.00" fill="#000000">s232 SYMBOL</text>
<text text-anchor="middle" x="2310.6104" y="-173.8156" font-family="Times,serif" font-size="14.00" fill="#000000">_literal</text>
</a>
</g>
</g>
<!-- s230&#45;&gt;s232 -->
<g id="edge11" class="edge">
<title>s230:p1&#45;&gt;s232</title>
<path fill="none" stroke="#000000" d="M2124.5518,-213.4156C2161.2312,-213.4156 2201.5603,-208.213 2235.2672,-202.3753"/>
<polygon fill="#000000" stroke="#000000" points="2236.2746,-205.7509 2245.504,-200.5482 2235.0446,-198.8598 2236.2746,-205.7509"/>
<text text-anchor="middle" x="2189.3291" y="-215.6156" font-family="Times,serif" font-size="14.00" fill="#000000">_literal</text>
</g>
<!-- s233&#45;&gt;s234 -->
<g id="edge23" class="edge">
<title>s233&#45;&gt;s234</title>
<path fill="none" stroke="#000000" d="M1171.9181,-97.7229C1214.9537,-96.2723 1281.2858,-94.4156 1338.8676,-94.4156 1338.8676,-94.4156 1338.8676,-94.4156 1612.3238,-94.4156 1634.5994,-94.4156 1659.0346,-94.4156 1680.6045,-94.4156"/>
<polygon fill="#000000" stroke="#000000" points="1680.6171,-97.9157 1690.617,-94.4156 1680.617,-90.9157 1680.6171,-97.9157"/>
</g>
<!-- s235 -->
<g id="node23" class="node">
<title>s235</title>
<ellipse fill="none" stroke="#000000" cx="1900.094" cy="-106.4156" rx="68.4585" ry="29.3315"/>
<text text-anchor="middle" x="1900.094" y="-110.6156" font-family="Times,serif" font-size="14.00" fill="#000000">s235 STRING</text>
<text text-anchor="middle" x="1900.094" y="-93.8156" font-family="Times,serif" font-size="14.00" fill="#000000">&quot;,&quot;</text>
</g>
<!-- s234&#45;&gt;s235 -->
<g id="edge20" class="edge">
<title>s234:p0&#45;&gt;s235</title>
<path fill="none" stroke="#000000" d="M1792.3652,-106.4156C1801.8043,-106.4156 1811.7086,-106.4156 1821.5279,-106.4156"/>
<polygon fill="#000000" stroke="#000000" points="1821.7068,-109.9157 1831.7068,-106.4156 1821.7067,-102.9157 1821.7068,-109.9157"/>
<text text-anchor="middle" x="1812.1152" y="-110.6156" font-family="Times,serif" font-size="14.00" fill="#000000">,</text>
</g>
<!-- s236 -->
<g id="node24" class="node">
<title>s236</title>
<ellipse fill="none" stroke="#000000" cx="1900.094" cy="-29.4156" rx="45.3054" ry="29.3315"/>
<text text-anchor="middle" x="1900.094" y="-33.6156" font-family="Times,serif" font-size="14.00" fill="#000000">s236 </text>
<text text-anchor="middle" x="1900.094" y="-16.8156" font-family="Times,serif" font-size="14.00" fill="#000000">BLANK</text>
</g>
<!-- s234&#45;&gt;s236 -->
<g id="edge21" class="edge">
<title>s234:p1&#45;&gt;s236</title>
<path fill="none" stroke="#000000" d="M1782.5654,-69.4156C1782.5654,-40.8528 1814.0591,-31.1427 1844.4407,-28.4208"/>
<polygon fill="#000000" stroke="#000000" points="1844.9059,-31.8978 1854.6544,-27.7485 1844.446,-24.913 1844.9059,-31.8978"/>
</g>
<!-- s237 -->
<g id="node25" class="node">
<title>s237</title>
<ellipse fill="none" stroke="#000000" cx="2073.5518" cy="-68.4156" rx="68.4585" ry="29.3315"/>
<text text-anchor="middle" x="2073.5518" y="-72.6156" font-family="Times,serif" font-size="14.00" fill="#000000">s237 STRING</text>
<text text-anchor="middle" x="2073.5518" y="-55.8156" font-family="Times,serif" font-size="14.00" fill="#000000">&quot;)&quot;</text>
</g>
<!-- s235&#45;&gt;s237 -->
<g id="edge24" class="edge">
<title>s235&#45;&gt;s237</title>
<path fill="none" stroke="#000000" d="M1961.2487,-93.0183C1974.6701,-90.078 1988.9889,-86.9411 2002.7533,-83.9257"/>
<polygon fill="#000000" stroke="#000000" points="2003.6378,-87.315 2012.6572,-81.756 2002.1398,-80.4772 2003.6378,-87.315"/>
</g>
<!-- s236&#45;&gt;s237 -->
<g id="edge25" class="edge">
<title>s236&#45;&gt;s237</title>
<path fill="none" stroke="#000000" d="M1943.4173,-39.1564C1961.4403,-43.2087 1982.8328,-48.0185 2003.0128,-52.5558"/>
<polygon fill="#000000" stroke="#000000" points="2002.2776,-55.9778 2012.8019,-54.7567 2003.8132,-49.1483 2002.2776,-55.9778"/>
</g>
</g>
</svg>
