<?xml version="1.0" encoding="UTF-8" standalone="no"?>
<!DOCTYPE svg PUBLIC "-//W3C//DTD SVG 1.1//EN"
 "http://www.w3.org/Graphics/SVG/1.1/DTD/svg11.dtd">
<!-- Generated by graphviz version 2.40.1 (20161225.0304)
 -->
<!-- Title: type_binding Pages: 1 -->
<svg width="605pt" height="67pt"
 viewBox="0.00 0.00 605.45 66.83" xmlns="http://www.w3.org/2000/svg" xmlns:xlink="http://www.w3.org/1999/xlink">
<g id="graph0" class="graph" transform="scale(1 1) rotate(0) translate(4 62.8313)">
<title>type_binding</title>
<polygon fill="#ffffff" stroke="transparent" points="-4,4 -4,-62.8313 601.4491,-62.8313 601.4491,4 -4,4"/>
<!-- s886 -->
<g id="node1" class="node">
<title>s886</title>
<polygon fill="none" stroke="#000000" points="0,-8.6156 0,-50.2156 56.4418,-50.2156 56.4418,-8.6156 0,-8.6156"/>
<text text-anchor="middle" x="28.2209" y="-33.6156" font-family="Times,serif" font-size="14.00" fill="#000000">s886</text>
<text text-anchor="middle" x="28.2209" y="-16.8156" font-family="Times,serif" font-size="14.00" fill="#000000">→ SEQ</text>
</g>
<!-- s887 -->
<g id="node2" class="node">
<title>s887</title>
<g id="a_node2"><a xlink:href="rust-grammar.json._type_identifier.dot.svg" xlink:title="s887 SYMBOL\n_type_identifier">
<ellipse fill="none" stroke="#000000" cx="166.9836" cy="-29.4156" rx="74.5836" ry="29.3315"/>
<text text-anchor="middle" x="166.9836" y="-33.6156" font-family="Times,serif" font-size="14.00" fill="#000000">s887 SYMBOL</text>
<text text-anchor="middle" x="166.9836" y="-16.8156" font-family="Times,serif" font-size="14.00" fill="#000000">_type_identifier</text>
</a>
</g>
</g>
<!-- s886&#45;&gt;s887 -->
<g id="edge1" class="edge">
<title>s886&#45;&gt;s887</title>
<path fill="none" stroke="#000000" d="M56.6364,-29.4156C64.3809,-29.4156 73.1863,-29.4156 82.3661,-29.4156"/>
<polygon fill="#000000" stroke="#000000" points="82.4415,-32.9157 92.4415,-29.4156 82.4414,-25.9157 82.4415,-32.9157"/>
</g>
<!-- s888 -->
<g id="node3" class="node">
<title>s888</title>
<ellipse fill="none" stroke="#000000" cx="345.7542" cy="-29.4156" rx="68.4585" ry="29.3315"/>
<text text-anchor="middle" x="345.7542" y="-33.6156" font-family="Times,serif" font-size="14.00" fill="#000000">s888 STRING</text>
<text text-anchor="middle" x="345.7542" y="-16.8156" font-family="Times,serif" font-size="14.00" fill="#000000">&quot;=&quot;</text>
</g>
<!-- s887&#45;&gt;s888 -->
<g id="edge2" class="edge">
<title>s887&#45;&gt;s888</title>
<path fill="none" stroke="#000000" d="M241.7626,-29.4156C250.1293,-29.4156 258.6715,-29.4156 267.0852,-29.4156"/>
<polygon fill="#000000" stroke="#000000" points="267.2639,-32.9157 277.2639,-29.4156 267.2638,-25.9157 267.2639,-32.9157"/>
</g>
<!-- s889 -->
<g id="node4" class="node">
<title>s889</title>
<g id="a_node4"><a xlink:href="rust-grammar.json._type.dot.svg" xlink:title="s889 SYMBOL\n_type">
<ellipse fill="none" stroke="#000000" cx="523.7161" cy="-29.4156" rx="73.9667" ry="29.3315"/>
<text text-anchor="middle" x="523.7161" y="-33.6156" font-family="Times,serif" font-size="14.00" fill="#000000">s889 SYMBOL</text>
<text text-anchor="middle" x="523.7161" y="-16.8156" font-family="Times,serif" font-size="14.00" fill="#000000">_type</text>
</a>
</g>
</g>
<!-- s888&#45;&gt;s889 -->
<g id="edge3" class="edge">
<title>s888&#45;&gt;s889</title>
<path fill="none" stroke="#000000" d="M414.05,-29.4156C422.4338,-29.4156 431.0769,-29.4156 439.6587,-29.4156"/>
<polygon fill="#000000" stroke="#000000" points="439.6858,-32.9157 449.6858,-29.4156 439.6857,-25.9157 439.6858,-32.9157"/>
</g>
</g>
</svg>
