<?xml version="1.0" encoding="UTF-8" standalone="no"?>
<!DOCTYPE svg PUBLIC "-//W3C//DTD SVG 1.1//EN"
 "http://www.w3.org/Graphics/SVG/1.1/DTD/svg11.dtd">
<!-- Generated by graphviz version 2.40.1 (20161225.0304)
 -->
<!-- Title: _tokens Pages: 1 -->
<svg width="439pt" height="221pt"
 viewBox="0.00 0.00 438.56 220.83" xmlns="http://www.w3.org/2000/svg" xmlns:xlink="http://www.w3.org/1999/xlink">
<g id="graph0" class="graph" transform="scale(1 1) rotate(0) translate(4 216.8313)">
<title>_tokens</title>
<polygon fill="#ffffff" stroke="transparent" points="-4,4 -4,-216.8313 434.5581,-216.8313 434.5581,4 -4,4"/>
<!-- s115 -->
<g id="node1" class="node">
<title>s115</title>
<polygon fill="none" stroke="#000000" points="0,-69.2156 0,-143.6156 101.5996,-143.6156 101.5996,-69.2156 0,-69.2156"/>
<text text-anchor="middle" x="41.0498" y="-110.6156" font-family="Times,serif" font-size="14.00" fill="#000000">s115</text>
<text text-anchor="middle" x="41.0498" y="-93.8156" font-family="Times,serif" font-size="14.00" fill="#000000">→ CHOICE</text>
<polyline fill="none" stroke="#000000" points="82.0996,-69.2156 82.0996,-143.6156 "/>
<text text-anchor="middle" x="91.8496" y="-127.0156" font-family="Times,serif" font-size="14.00" fill="#000000"> </text>
<polyline fill="none" stroke="#000000" points="82.0996,-118.8156 101.5996,-118.8156 "/>
<text text-anchor="middle" x="91.8496" y="-102.2156" font-family="Times,serif" font-size="14.00" fill="#000000"> </text>
<polyline fill="none" stroke="#000000" points="82.0996,-94.0156 101.5996,-94.0156 "/>
<text text-anchor="middle" x="91.8496" y="-77.4156" font-family="Times,serif" font-size="14.00" fill="#000000"> </text>
</g>
<!-- s116 -->
<g id="node2" class="node">
<title>s116</title>
<g id="a_node2"><a xlink:href="rust-grammar.json.token_tree.dot.svg" xlink:title="s116 SYMBOL\ntoken_tree">
<ellipse fill="none" stroke="#000000" cx="340.0662" cy="-183.4156" rx="73.9667" ry="29.3315"/>
<text text-anchor="middle" x="340.0662" y="-187.6156" font-family="Times,serif" font-size="14.00" fill="#000000">s116 SYMBOL</text>
<text text-anchor="middle" x="340.0662" y="-170.8156" font-family="Times,serif" font-size="14.00" fill="#000000">token_tree</text>
</a>
</g>
</g>
<!-- s115&#45;&gt;s116 -->
<g id="edge1" class="edge">
<title>s115:p0&#45;&gt;s116</title>
<path fill="none" stroke="#000000" d="M101.5996,-131.4156C160.9388,-131.4156 226.7162,-146.9761 274.1315,-161.073"/>
<polygon fill="#000000" stroke="#000000" points="273.3764,-164.5013 283.9617,-164.0528 275.4071,-157.8023 273.3764,-164.5013"/>
<text text-anchor="middle" x="175.587" y="-151.6156" font-family="Times,serif" font-size="14.00" fill="#000000">token_tree</text>
</g>
<!-- s117 -->
<g id="node3" class="node">
<title>s117</title>
<g id="a_node3"><a xlink:href="rust-grammar.json.token_repetition.dot.svg" xlink:title="s117 SYMBOL\ntoken_repetition">
<ellipse fill="none" stroke="#000000" cx="340.0662" cy="-106.4156" rx="76.3925" ry="29.3315"/>
<text text-anchor="middle" x="340.0662" y="-110.6156" font-family="Times,serif" font-size="14.00" fill="#000000">s117 SYMBOL</text>
<text text-anchor="middle" x="340.0662" y="-93.8156" font-family="Times,serif" font-size="14.00" fill="#000000">token_repetition</text>
</a>
</g>
</g>
<!-- s115&#45;&gt;s117 -->
<g id="edge2" class="edge">
<title>s115:p1&#45;&gt;s117</title>
<path fill="none" stroke="#000000" d="M101.5996,-106.4156C152.0208,-106.4156 208.4389,-106.4156 253.7362,-106.4156"/>
<polygon fill="#000000" stroke="#000000" points="253.8156,-109.9157 263.8156,-106.4156 253.8155,-102.9157 253.8156,-109.9157"/>
<text text-anchor="middle" x="175.587" y="-110.6156" font-family="Times,serif" font-size="14.00" fill="#000000">token_repetition</text>
</g>
<!-- s118 -->
<g id="node4" class="node">
<title>s118</title>
<g id="a_node4"><a xlink:href="rust-grammar.json._non_special_token.dot.svg" xlink:title="s118 SYMBOL\n_non_special_token">
<ellipse fill="none" stroke="#000000" cx="340.0662" cy="-29.4156" rx="90.4837" ry="29.3315"/>
<text text-anchor="middle" x="340.0662" y="-33.6156" font-family="Times,serif" font-size="14.00" fill="#000000">s118 SYMBOL</text>
<text text-anchor="middle" x="340.0662" y="-16.8156" font-family="Times,serif" font-size="14.00" fill="#000000">_non_special_token</text>
</a>
</g>
</g>
<!-- s115&#45;&gt;s118 -->
<g id="edge3" class="edge">
<title>s115:p2&#45;&gt;s118</title>
<path fill="none" stroke="#000000" d="M101.5996,-81.4156C158.3674,-81.4156 221.0276,-67.1746 267.8661,-53.5978"/>
<polygon fill="#000000" stroke="#000000" points="269.0156,-56.9077 277.6129,-50.7161 267.0309,-50.195 269.0156,-56.9077"/>
<text text-anchor="middle" x="175.587" y="-84.6156" font-family="Times,serif" font-size="14.00" fill="#000000">_non_special_token</text>
</g>
</g>
</svg>
