<?xml version="1.0" encoding="UTF-8" standalone="no"?>
<!DOCTYPE svg PUBLIC "-//W3C//DTD SVG 1.1//EN"
 "http://www.w3.org/Graphics/SVG/1.1/DTD/svg11.dtd">
<!-- Generated by graphviz version 2.40.1 (20161225.0304)
 -->
<!-- Title: field_pattern Pages: 1 -->
<svg width="1804pt" height="156pt"
 viewBox="0.00 0.00 1804.36 155.83" xmlns="http://www.w3.org/2000/svg" xmlns:xlink="http://www.w3.org/1999/xlink">
<g id="graph0" class="graph" transform="scale(1 1) rotate(0) translate(4 151.8313)">
<title>field_pattern</title>
<polygon fill="#ffffff" stroke="transparent" points="-4,4 -4,-151.8313 1800.3637,-151.8313 1800.3637,4 -4,4"/>
<!-- s1421 -->
<g id="node1" class="node">
<title>s1421</title>
<polygon fill="none" stroke="#000000" points="0,-46.6156 0,-88.2156 56.4418,-88.2156 56.4418,-46.6156 0,-46.6156"/>
<text text-anchor="middle" x="28.2209" y="-71.6156" font-family="Times,serif" font-size="14.00" fill="#000000">s1421</text>
<text text-anchor="middle" x="28.2209" y="-54.8156" font-family="Times,serif" font-size="14.00" fill="#000000">→ SEQ</text>
</g>
<!-- s1422 -->
<g id="node2" class="node">
<title>s1422</title>
<polygon fill="none" stroke="#000000" points="93.4418,-42.6156 93.4418,-92.2156 195.0414,-92.2156 195.0414,-42.6156 93.4418,-42.6156"/>
<text text-anchor="middle" x="134.4916" y="-71.6156" font-family="Times,serif" font-size="14.00" fill="#000000">s1422</text>
<text text-anchor="middle" x="134.4916" y="-54.8156" font-family="Times,serif" font-size="14.00" fill="#000000">→ CHOICE</text>
<polyline fill="none" stroke="#000000" points="175.5414,-42.6156 175.5414,-92.2156 "/>
<text text-anchor="middle" x="185.2914" y="-75.6156" font-family="Times,serif" font-size="14.00" fill="#000000"> </text>
<polyline fill="none" stroke="#000000" points="175.5414,-67.4156 195.0414,-67.4156 "/>
<text text-anchor="middle" x="185.2914" y="-50.8156" font-family="Times,serif" font-size="14.00" fill="#000000"> </text>
</g>
<!-- s1421&#45;&gt;s1422 -->
<g id="edge3" class="edge">
<title>s1421&#45;&gt;s1422</title>
<path fill="none" stroke="#000000" d="M56.6028,-67.4156C64.6824,-67.4156 73.8102,-67.4156 83.0459,-67.4156"/>
<polygon fill="#000000" stroke="#000000" points="83.0657,-70.9157 93.0657,-67.4156 83.0656,-63.9157 83.0657,-70.9157"/>
</g>
<!-- s1423 -->
<g id="node3" class="node">
<title>s1423</title>
<ellipse fill="none" stroke="#000000" cx="319.7558" cy="-106.4156" rx="73.3577" ry="29.3315"/>
<text text-anchor="middle" x="319.7558" y="-110.6156" font-family="Times,serif" font-size="14.00" fill="#000000">s1423 STRING</text>
<text text-anchor="middle" x="319.7558" y="-93.8156" font-family="Times,serif" font-size="14.00" fill="#000000">&quot;ref&quot;</text>
</g>
<!-- s1422&#45;&gt;s1423 -->
<g id="edge1" class="edge">
<title>s1422:p0&#45;&gt;s1423</title>
<path fill="none" stroke="#000000" d="M195.0414,-79.4156C213.6399,-79.4156 233.4524,-82.3194 251.6826,-86.2223"/>
<polygon fill="#000000" stroke="#000000" points="251.1031,-89.6798 261.6299,-88.4814 252.6533,-82.8536 251.1031,-89.6798"/>
<text text-anchor="middle" x="220.8093" y="-85.6156" font-family="Times,serif" font-size="14.00" fill="#000000">ref</text>
</g>
<!-- s1424 -->
<g id="node4" class="node">
<title>s1424</title>
<ellipse fill="none" stroke="#000000" cx="319.7558" cy="-29.4156" rx="45.3054" ry="29.3315"/>
<text text-anchor="middle" x="319.7558" y="-33.6156" font-family="Times,serif" font-size="14.00" fill="#000000">s1424 </text>
<text text-anchor="middle" x="319.7558" y="-16.8156" font-family="Times,serif" font-size="14.00" fill="#000000">BLANK</text>
</g>
<!-- s1422&#45;&gt;s1424 -->
<g id="edge2" class="edge">
<title>s1422:p1&#45;&gt;s1424</title>
<path fill="none" stroke="#000000" d="M195.0414,-55.4156C219.6875,-55.4156 246.5076,-50.4893 268.9393,-44.9253"/>
<polygon fill="#000000" stroke="#000000" points="270.1118,-48.2372 278.9134,-42.3395 268.355,-41.4612 270.1118,-48.2372"/>
</g>
<!-- s1425 -->
<g id="node5" class="node">
<title>s1425</title>
<polygon fill="none" stroke="#000000" points="429.9344,-49.6156 429.9344,-99.2156 531.534,-99.2156 531.534,-49.6156 429.9344,-49.6156"/>
<text text-anchor="middle" x="470.9842" y="-78.6156" font-family="Times,serif" font-size="14.00" fill="#000000">s1425</text>
<text text-anchor="middle" x="470.9842" y="-61.8156" font-family="Times,serif" font-size="14.00" fill="#000000">→ CHOICE</text>
<polyline fill="none" stroke="#000000" points="512.034,-49.6156 512.034,-99.2156 "/>
<text text-anchor="middle" x="521.784" y="-82.6156" font-family="Times,serif" font-size="14.00" fill="#000000"> </text>
<polyline fill="none" stroke="#000000" points="512.034,-74.4156 531.534,-74.4156 "/>
<text text-anchor="middle" x="521.784" y="-57.8156" font-family="Times,serif" font-size="14.00" fill="#000000"> </text>
</g>
<!-- s1423&#45;&gt;s1425 -->
<g id="edge6" class="edge">
<title>s1423&#45;&gt;s1425</title>
<path fill="none" stroke="#000000" d="M385.6964,-93.3077C396.9977,-91.0612 408.6948,-88.736 419.8562,-86.5172"/>
<polygon fill="#000000" stroke="#000000" points="420.8035,-89.8975 429.9292,-84.5149 419.4386,-83.0318 420.8035,-89.8975"/>
</g>
<!-- s1424&#45;&gt;s1425 -->
<g id="edge7" class="edge">
<title>s1424&#45;&gt;s1425</title>
<path fill="none" stroke="#000000" d="M361.6308,-41.1214C379.4823,-46.1116 400.6549,-52.0302 420.162,-57.4832"/>
<polygon fill="#000000" stroke="#000000" points="419.3095,-60.879 429.8826,-60.2005 421.1941,-54.1375 419.3095,-60.879"/>
</g>
<!-- s1426 -->
<g id="node6" class="node">
<title>s1426</title>
<g id="a_node6"><a xlink:href="rust-grammar.json.mutable_specifier.dot.svg" xlink:title="s1426 SYMBOL\nmutable_specifier">
<ellipse fill="none" stroke="#000000" cx="750.0566" cy="-113.4156" rx="82.4621" ry="29.3315"/>
<text text-anchor="middle" x="750.0566" y="-117.6156" font-family="Times,serif" font-size="14.00" fill="#000000">s1426 SYMBOL</text>
<text text-anchor="middle" x="750.0566" y="-100.8156" font-family="Times,serif" font-size="14.00" fill="#000000">mutable_specifier</text>
</a>
</g>
</g>
<!-- s1425&#45;&gt;s1426 -->
<g id="edge4" class="edge">
<title>s1425:p0&#45;&gt;s1426</title>
<path fill="none" stroke="#000000" d="M531.534,-86.4156C576.465,-86.4156 626.2031,-92.1074 666.8622,-98.2644"/>
<polygon fill="#000000" stroke="#000000" points="666.5768,-101.7619 676.9953,-99.8365 667.6501,-94.8447 666.5768,-101.7619"/>
<text text-anchor="middle" x="599.6799" y="-98.6156" font-family="Times,serif" font-size="14.00" fill="#000000">mutable_specifier</text>
</g>
<!-- s1427 -->
<g id="node7" class="node">
<title>s1427</title>
<ellipse fill="none" stroke="#000000" cx="750.0566" cy="-36.4156" rx="45.3054" ry="29.3315"/>
<text text-anchor="middle" x="750.0566" y="-40.6156" font-family="Times,serif" font-size="14.00" fill="#000000">s1427 </text>
<text text-anchor="middle" x="750.0566" y="-23.8156" font-family="Times,serif" font-size="14.00" fill="#000000">BLANK</text>
</g>
<!-- s1425&#45;&gt;s1427 -->
<g id="edge5" class="edge">
<title>s1425:p1&#45;&gt;s1427</title>
<path fill="none" stroke="#000000" d="M531.534,-62.4156C588.0682,-62.4156 652.2568,-53.7288 696.3624,-46.3975"/>
<polygon fill="#000000" stroke="#000000" points="697.0165,-49.8366 706.2905,-44.7137 695.846,-42.9352 697.0165,-49.8366"/>
</g>
<!-- s1428 -->
<g id="node8" class="node">
<title>s1428</title>
<polygon fill="none" stroke="#000000" points="869.2873,-56.6156 869.2873,-106.2156 970.8869,-106.2156 970.8869,-56.6156 869.2873,-56.6156"/>
<text text-anchor="middle" x="910.3371" y="-85.6156" font-family="Times,serif" font-size="14.00" fill="#000000">s1428</text>
<text text-anchor="middle" x="910.3371" y="-68.8156" font-family="Times,serif" font-size="14.00" fill="#000000">→ CHOICE</text>
<polyline fill="none" stroke="#000000" points="951.3869,-56.6156 951.3869,-106.2156 "/>
<text text-anchor="middle" x="961.1369" y="-89.6156" font-family="Times,serif" font-size="14.00" fill="#000000"> </text>
<polyline fill="none" stroke="#000000" points="951.3869,-81.4156 970.8869,-81.4156 "/>
<text text-anchor="middle" x="961.1369" y="-64.8156" font-family="Times,serif" font-size="14.00" fill="#000000"> </text>
</g>
<!-- s1426&#45;&gt;s1428 -->
<g id="edge14" class="edge">
<title>s1426&#45;&gt;s1428</title>
<path fill="none" stroke="#000000" d="M823.1516,-99.6591C835.1255,-97.4055 847.4212,-95.0915 859.0631,-92.9004"/>
<polygon fill="#000000" stroke="#000000" points="859.921,-96.3005 869.1011,-91.0113 858.6263,-89.4213 859.921,-96.3005"/>
</g>
<!-- s1427&#45;&gt;s1428 -->
<g id="edge15" class="edge">
<title>s1427&#45;&gt;s1428</title>
<path fill="none" stroke="#000000" d="M792.5238,-47.655C812.6544,-52.9827 837.0733,-59.4454 859.1359,-65.2844"/>
<polygon fill="#000000" stroke="#000000" points="858.5205,-68.742 869.0831,-67.917 860.3115,-61.9749 858.5205,-68.742"/>
</g>
<!-- s1429 -->
<g id="node9" class="node">
<title>s1429</title>
<polygon fill="none" stroke="#000000" points="1153.0665,-95.6156 1153.0665,-137.2156 1224.2755,-137.2156 1224.2755,-95.6156 1153.0665,-95.6156"/>
<text text-anchor="middle" x="1188.671" y="-120.6156" font-family="Times,serif" font-size="14.00" fill="#000000">s1429</text>
<text text-anchor="middle" x="1188.671" y="-103.8156" font-family="Times,serif" font-size="14.00" fill="#000000">→ ALIAS</text>
</g>
<!-- s1428&#45;&gt;s1429 -->
<g id="edge9" class="edge">
<title>s1428:p0&#45;&gt;s1429</title>
<path fill="none" stroke="#000000" d="M970.8869,-93.4156C1030.5478,-93.4156 1098.8963,-102.0574 1142.8655,-108.7467"/>
<polygon fill="#000000" stroke="#000000" points="1142.5348,-112.2372 1152.9533,-110.3124 1143.6085,-105.3201 1142.5348,-112.2372"/>
<text text-anchor="middle" x="1061.9767" y="-110.6156" font-family="Times,serif" font-size="14.00" fill="#000000">shorthand_field_identifier</text>
</g>
<!-- s1431 -->
<g id="node11" class="node">
<title>s1431</title>
<polygon fill="none" stroke="#000000" points="1160.4501,-30.6156 1160.4501,-72.2156 1216.8919,-72.2156 1216.8919,-30.6156 1160.4501,-30.6156"/>
<text text-anchor="middle" x="1188.671" y="-55.6156" font-family="Times,serif" font-size="14.00" fill="#000000">s1431</text>
<text text-anchor="middle" x="1188.671" y="-38.8156" font-family="Times,serif" font-size="14.00" fill="#000000">→ SEQ</text>
</g>
<!-- s1428&#45;&gt;s1431 -->
<g id="edge13" class="edge">
<title>s1428:p1&#45;&gt;s1431</title>
<path fill="none" stroke="#000000" d="M970.8869,-69.4156C1033.7995,-69.4156 1106.5886,-61.8629 1150.0611,-56.5422"/>
<polygon fill="#000000" stroke="#000000" points="1150.7051,-59.9891 1160.1944,-55.2771 1149.8378,-53.043 1150.7051,-59.9891"/>
</g>
<!-- s1430 -->
<g id="node10" class="node">
<title>s1430</title>
<g id="a_node10"><a xlink:href="rust-grammar.json.identifier.dot.svg" xlink:title="s1430 SYMBOL\nidentifier">
<ellipse fill="none" stroke="#000000" cx="1339.9582" cy="-118.4156" rx="78.8659" ry="29.3315"/>
<text text-anchor="middle" x="1339.9582" y="-122.6156" font-family="Times,serif" font-size="14.00" fill="#000000">s1430 SYMBOL</text>
<text text-anchor="middle" x="1339.9582" y="-105.8156" font-family="Times,serif" font-size="14.00" fill="#000000">identifier</text>
</a>
</g>
</g>
<!-- s1429&#45;&gt;s1430 -->
<g id="edge8" class="edge">
<title>s1429&#45;&gt;s1430</title>
<path fill="none" stroke="#000000" d="M1224.5239,-116.8896C1232.6733,-116.9973 1241.6841,-117.1165 1250.972,-117.2393"/>
<polygon fill="#000000" stroke="#000000" points="1251.0861,-120.741 1261.1315,-117.3736 1251.1787,-113.7416 1251.0861,-120.741"/>
</g>
<!-- s1432 -->
<g id="node12" class="node">
<title>s1432</title>
<g id="a_node12"><a xlink:href="rust-grammar.json._field_identifier.dot.svg" xlink:title="s1432 SYMBOL\n_field_identifier">
<ellipse fill="none" stroke="#000000" cx="1339.9582" cy="-41.4156" rx="78.8659" ry="29.3315"/>
<text text-anchor="middle" x="1339.9582" y="-45.6156" font-family="Times,serif" font-size="14.00" fill="#000000">s1432 SYMBOL</text>
<text text-anchor="middle" x="1339.9582" y="-28.8156" font-family="Times,serif" font-size="14.00" fill="#000000">_field_identifier</text>
</a>
</g>
</g>
<!-- s1431&#45;&gt;s1432 -->
<g id="edge10" class="edge">
<title>s1431&#45;&gt;s1432</title>
<path fill="none" stroke="#000000" d="M1217.127,-49.5347C1227.3929,-48.8561 1239.5895,-48.05 1252.2489,-47.2132"/>
<polygon fill="#000000" stroke="#000000" points="1252.7253,-50.6894 1262.4726,-46.5374 1252.2635,-43.7047 1252.7253,-50.6894"/>
</g>
<!-- s1433 -->
<g id="node13" class="node">
<title>s1433</title>
<ellipse fill="none" stroke="#000000" cx="1528.8196" cy="-41.4156" rx="73.3577" ry="29.3315"/>
<text text-anchor="middle" x="1528.8196" y="-45.6156" font-family="Times,serif" font-size="14.00" fill="#000000">s1433 STRING</text>
<text text-anchor="middle" x="1528.8196" y="-28.8156" font-family="Times,serif" font-size="14.00" fill="#000000">&quot;:&quot;</text>
</g>
<!-- s1432&#45;&gt;s1433 -->
<g id="edge11" class="edge">
<title>s1432&#45;&gt;s1433</title>
<path fill="none" stroke="#000000" d="M1418.6849,-41.4156C1427.4145,-41.4156 1436.3285,-41.4156 1445.1168,-41.4156"/>
<polygon fill="#000000" stroke="#000000" points="1445.3573,-44.9157 1455.3573,-41.4156 1445.3573,-37.9157 1445.3573,-44.9157"/>
</g>
<!-- s1434 -->
<g id="node14" class="node">
<title>s1434</title>
<g id="a_node14"><a xlink:href="rust-grammar.json._pattern.dot.svg" xlink:title="s1434 SYMBOL\n_pattern">
<ellipse fill="none" stroke="#000000" cx="1717.681" cy="-41.4156" rx="78.8659" ry="29.3315"/>
<text text-anchor="middle" x="1717.681" y="-45.6156" font-family="Times,serif" font-size="14.00" fill="#000000">s1434 SYMBOL</text>
<text text-anchor="middle" x="1717.681" y="-28.8156" font-family="Times,serif" font-size="14.00" fill="#000000">_pattern</text>
</a>
</g>
</g>
<!-- s1433&#45;&gt;s1434 -->
<g id="edge12" class="edge">
<title>s1433&#45;&gt;s1434</title>
<path fill="none" stroke="#000000" d="M1602.1086,-41.4156C1610.8475,-41.4156 1619.841,-41.4156 1628.7685,-41.4156"/>
<polygon fill="#000000" stroke="#000000" points="1628.8028,-44.9157 1638.8027,-41.4156 1628.8027,-37.9157 1628.8028,-44.9157"/>
</g>
</g>
</svg>
