<?xml version="1.0" encoding="UTF-8" standalone="no"?>
<!DOCTYPE svg PUBLIC "-//W3C//DTD SVG 1.1//EN"
 "http://www.w3.org/Graphics/SVG/1.1/DTD/svg11.dtd">
<!-- Generated by graphviz version 2.40.1 (20161225.0304)
 -->
<!-- Title: field_declaration_list Pages: 1 -->
<svg width="2257pt" height="263pt"
 viewBox="0.00 0.00 2257.31 262.83" xmlns="http://www.w3.org/2000/svg" xmlns:xlink="http://www.w3.org/1999/xlink">
<g id="graph0" class="graph" transform="scale(1 1) rotate(0) translate(4 258.8313)">
<title>field_declaration_list</title>
<polygon fill="#ffffff" stroke="transparent" points="-4,4 -4,-258.8313 2253.3091,-258.8313 2253.3091,4 -4,4"/>
<!-- s346 -->
<g id="node1" class="node">
<title>s346</title>
<polygon fill="none" stroke="#000000" points="0,-86.6156 0,-128.2156 56.4418,-128.2156 56.4418,-86.6156 0,-86.6156"/>
<text text-anchor="middle" x="28.2209" y="-111.6156" font-family="Times,serif" font-size="14.00" fill="#000000">s346</text>
<text text-anchor="middle" x="28.2209" y="-94.8156" font-family="Times,serif" font-size="14.00" fill="#000000">→ SEQ</text>
</g>
<!-- s347 -->
<g id="node2" class="node">
<title>s347</title>
<ellipse fill="none" stroke="#000000" cx="161.6707" cy="-107.4156" rx="68.4585" ry="29.3315"/>
<text text-anchor="middle" x="161.6707" y="-111.6156" font-family="Times,serif" font-size="14.00" fill="#000000">s347 STRING</text>
<text text-anchor="middle" x="161.6707" y="-94.8156" font-family="Times,serif" font-size="14.00" fill="#000000">&quot;{&quot;</text>
</g>
<!-- s346&#45;&gt;s347 -->
<g id="edge1" class="edge">
<title>s346&#45;&gt;s347</title>
<path fill="none" stroke="#000000" d="M56.5222,-107.4156C64.5856,-107.4156 73.7846,-107.4156 83.3101,-107.4156"/>
<polygon fill="#000000" stroke="#000000" points="83.321,-110.9157 93.321,-107.4156 83.3209,-103.9157 83.321,-110.9157"/>
</g>
<!-- s348 -->
<g id="node3" class="node">
<title>s348</title>
<polygon fill="none" stroke="#000000" points="266.8995,-82.6156 266.8995,-132.2156 368.4991,-132.2156 368.4991,-82.6156 266.8995,-82.6156"/>
<text text-anchor="middle" x="307.9493" y="-111.6156" font-family="Times,serif" font-size="14.00" fill="#000000">s348</text>
<text text-anchor="middle" x="307.9493" y="-94.8156" font-family="Times,serif" font-size="14.00" fill="#000000">→ CHOICE</text>
<polyline fill="none" stroke="#000000" points="348.9991,-82.6156 348.9991,-132.2156 "/>
<text text-anchor="middle" x="358.7491" y="-115.6156" font-family="Times,serif" font-size="14.00" fill="#000000"> </text>
<polyline fill="none" stroke="#000000" points="348.9991,-107.4156 368.4991,-107.4156 "/>
<text text-anchor="middle" x="358.7491" y="-90.8156" font-family="Times,serif" font-size="14.00" fill="#000000"> </text>
</g>
<!-- s347&#45;&gt;s348 -->
<g id="edge18" class="edge">
<title>s347&#45;&gt;s348</title>
<path fill="none" stroke="#000000" d="M230.1071,-107.4156C238.9349,-107.4156 247.9288,-107.4156 256.6274,-107.4156"/>
<polygon fill="#000000" stroke="#000000" points="256.6756,-110.9157 266.6755,-107.4156 256.6755,-103.9157 256.6756,-110.9157"/>
</g>
<!-- s349 -->
<g id="node4" class="node">
<title>s349</title>
<polygon fill="none" stroke="#000000" points="405.4991,-125.6156 405.4991,-167.2156 461.9409,-167.2156 461.9409,-125.6156 405.4991,-125.6156"/>
<text text-anchor="middle" x="433.72" y="-150.6156" font-family="Times,serif" font-size="14.00" fill="#000000">s349</text>
<text text-anchor="middle" x="433.72" y="-133.8156" font-family="Times,serif" font-size="14.00" fill="#000000">→ SEQ</text>
</g>
<!-- s348&#45;&gt;s349 -->
<g id="edge16" class="edge">
<title>s348:p0&#45;&gt;s349</title>
<path fill="none" stroke="#000000" d="M368.4991,-119.4156C377.6703,-119.4156 387.0529,-121.7229 395.7398,-124.9886"/>
<polygon fill="#000000" stroke="#000000" points="394.6311,-128.3203 405.2034,-129.0109 397.3692,-121.8781 394.6311,-128.3203"/>
</g>
<!-- s361 -->
<g id="node16" class="node">
<title>s361</title>
<ellipse fill="none" stroke="#000000" cx="525.3436" cy="-95.4156" rx="45.3054" ry="29.3315"/>
<text text-anchor="middle" x="525.3436" y="-99.6156" font-family="Times,serif" font-size="14.00" fill="#000000">s361 </text>
<text text-anchor="middle" x="525.3436" y="-82.8156" font-family="Times,serif" font-size="14.00" fill="#000000">BLANK</text>
</g>
<!-- s348&#45;&gt;s361 -->
<g id="edge17" class="edge">
<title>s348:p1&#45;&gt;s361</title>
<path fill="none" stroke="#000000" d="M368.4991,-95.4156C401.9914,-95.4156 439.5067,-95.4156 469.4476,-95.4156"/>
<polygon fill="#000000" stroke="#000000" points="469.7033,-98.9157 479.7032,-95.4156 469.7032,-91.9157 469.7033,-98.9157"/>
</g>
<!-- s350 -->
<g id="node5" class="node">
<title>s350</title>
<polygon fill="none" stroke="#000000" points="588.7462,-127.6156 588.7462,-169.2156 645.188,-169.2156 645.188,-127.6156 588.7462,-127.6156"/>
<text text-anchor="middle" x="616.9671" y="-152.6156" font-family="Times,serif" font-size="14.00" fill="#000000">s350</text>
<text text-anchor="middle" x="616.9671" y="-135.8156" font-family="Times,serif" font-size="14.00" fill="#000000">→ SEQ</text>
</g>
<!-- s349&#45;&gt;s350 -->
<g id="edge6" class="edge">
<title>s349&#45;&gt;s350</title>
<path fill="none" stroke="#000000" d="M461.9508,-146.7238C493.158,-147.0644 543.6099,-147.615 578.4363,-147.9951"/>
<polygon fill="#000000" stroke="#000000" points="578.6666,-151.4977 588.7042,-148.1072 578.7431,-144.4982 578.6666,-151.4977"/>
</g>
<!-- s351 -->
<g id="node6" class="node">
<title>s351</title>
<polygon fill="none" stroke="#000000" points="682.188,-132.6156 682.188,-174.2156 765.0716,-174.2156 765.0716,-132.6156 682.188,-132.6156"/>
<text text-anchor="middle" x="723.6298" y="-157.6156" font-family="Times,serif" font-size="14.00" fill="#000000">s351</text>
<text text-anchor="middle" x="723.6298" y="-140.8156" font-family="Times,serif" font-size="14.00" fill="#000000">→ REPEAT</text>
</g>
<!-- s350&#45;&gt;s351 -->
<g id="edge4" class="edge">
<title>s350&#45;&gt;s351</title>
<path fill="none" stroke="#000000" d="M645.2707,-149.7424C653.4319,-150.125 662.6043,-150.555 671.7212,-150.9823"/>
<polygon fill="#000000" stroke="#000000" points="671.7812,-154.4889 681.9341,-151.4611 672.109,-147.4966 671.7812,-154.4889"/>
</g>
<!-- s352 -->
<g id="node7" class="node">
<title>s352</title>
<g id="a_node7"><a xlink:href="rust-grammar.json.attribute_item.dot.svg" xlink:title="s352 SYMBOL\nattribute_item">
<ellipse fill="none" stroke="#000000" cx="875.8046" cy="-153.4156" rx="73.9667" ry="29.3315"/>
<text text-anchor="middle" x="875.8046" y="-157.6156" font-family="Times,serif" font-size="14.00" fill="#000000">s352 SYMBOL</text>
<text text-anchor="middle" x="875.8046" y="-140.8156" font-family="Times,serif" font-size="14.00" fill="#000000">attribute_item</text>
</a>
</g>
</g>
<!-- s351&#45;&gt;s352 -->
<g id="edge2" class="edge">
<title>s351&#45;&gt;s352</title>
<path fill="none" stroke="#000000" d="M765.2122,-147.3248C774.0947,-146.961 783.7732,-146.7477 793.5887,-146.6851"/>
<polygon fill="#000000" stroke="#000000" points="793.843,-150.185 803.8393,-146.6745 793.8356,-143.185 793.843,-150.185"/>
</g>
<!-- s352&#45;&gt;s351 -->
<g id="edge3" class="edge">
<title>s352&#45;&gt;s351</title>
<path fill="none" stroke="#000000" d="M803.8393,-160.1568C794.2152,-160.198 784.503,-160.0948 775.3209,-159.8473"/>
<polygon fill="#000000" stroke="#000000" points="775.3245,-156.3455 765.2122,-159.5065 775.0886,-163.3415 775.3245,-156.3455"/>
</g>
<!-- s353 -->
<g id="node8" class="node">
<title>s353</title>
<g id="a_node8"><a xlink:href="rust-grammar.json.field_declaration.dot.svg" xlink:title="s353 SYMBOL\nfield_declaration">
<ellipse fill="none" stroke="#000000" cx="1064.9184" cy="-154.4156" rx="78.2618" ry="29.3315"/>
<text text-anchor="middle" x="1064.9184" y="-158.6156" font-family="Times,serif" font-size="14.00" fill="#000000">s353 SYMBOL</text>
<text text-anchor="middle" x="1064.9184" y="-141.8156" font-family="Times,serif" font-size="14.00" fill="#000000">field_declaration</text>
</a>
</g>
</g>
<!-- s352&#45;&gt;s353 -->
<g id="edge5" class="edge">
<title>s352&#45;&gt;s353</title>
<path fill="none" stroke="#000000" d="M949.7334,-153.8066C958.4646,-153.8527 967.4424,-153.9002 976.3491,-153.9473"/>
<polygon fill="#000000" stroke="#000000" points="976.3395,-157.4472 986.3579,-154.0002 976.3766,-150.4473 976.3395,-157.4472"/>
</g>
<!-- s354 -->
<g id="node9" class="node">
<title>s354</title>
<polygon fill="none" stroke="#000000" points="1180.2992,-137.6156 1180.2992,-179.2156 1263.1828,-179.2156 1263.1828,-137.6156 1180.2992,-137.6156"/>
<text text-anchor="middle" x="1221.741" y="-162.6156" font-family="Times,serif" font-size="14.00" fill="#000000">s354</text>
<text text-anchor="middle" x="1221.741" y="-145.8156" font-family="Times,serif" font-size="14.00" fill="#000000">→ REPEAT</text>
</g>
<!-- s353&#45;&gt;s354 -->
<g id="edge15" class="edge">
<title>s353&#45;&gt;s354</title>
<path fill="none" stroke="#000000" d="M1143.3297,-156.4156C1152.3666,-156.6461 1161.4034,-156.8766 1169.9602,-157.0949"/>
<polygon fill="#000000" stroke="#000000" points="1170.0411,-160.598 1180.1271,-157.3542 1170.2197,-153.6003 1170.0411,-160.598"/>
</g>
<!-- s355 -->
<g id="node10" class="node">
<title>s355</title>
<polygon fill="none" stroke="#000000" points="1322.7617,-161.6156 1322.7617,-203.2156 1379.2035,-203.2156 1379.2035,-161.6156 1322.7617,-161.6156"/>
<text text-anchor="middle" x="1350.9826" y="-186.6156" font-family="Times,serif" font-size="14.00" fill="#000000">s355</text>
<text text-anchor="middle" x="1350.9826" y="-169.8156" font-family="Times,serif" font-size="14.00" fill="#000000">→ SEQ</text>
</g>
<!-- s354&#45;&gt;s355 -->
<g id="edge13" class="edge">
<title>s354&#45;&gt;s355</title>
<path fill="none" stroke="#000000" d="M1263.3452,-166.1415C1279.0537,-169.0585 1296.8494,-172.3632 1312.2813,-175.2289"/>
<polygon fill="#000000" stroke="#000000" points="1312.0615,-178.7478 1322.5325,-177.1325 1313.3396,-171.8655 1312.0615,-178.7478"/>
</g>
<!-- s362 -->
<g id="node17" class="node">
<title>s362</title>
<polygon fill="none" stroke="#000000" points="1300.1828,-69.6156 1300.1828,-119.2156 1401.7824,-119.2156 1401.7824,-69.6156 1300.1828,-69.6156"/>
<text text-anchor="middle" x="1341.2326" y="-98.6156" font-family="Times,serif" font-size="14.00" fill="#000000">s362</text>
<text text-anchor="middle" x="1341.2326" y="-81.8156" font-family="Times,serif" font-size="14.00" fill="#000000">→ CHOICE</text>
<polyline fill="none" stroke="#000000" points="1382.2824,-69.6156 1382.2824,-119.2156 "/>
<text text-anchor="middle" x="1392.0324" y="-102.6156" font-family="Times,serif" font-size="14.00" fill="#000000"> </text>
<polyline fill="none" stroke="#000000" points="1382.2824,-94.4156 1401.7824,-94.4156 "/>
<text text-anchor="middle" x="1392.0324" y="-77.8156" font-family="Times,serif" font-size="14.00" fill="#000000"> </text>
</g>
<!-- s354&#45;&gt;s362 -->
<g id="edge21" class="edge">
<title>s354&#45;&gt;s362</title>
<path fill="none" stroke="#000000" d="M1263.3452,-137.8134C1272.4044,-133.3273 1282.1577,-128.4975 1291.7514,-123.7467"/>
<polygon fill="#000000" stroke="#000000" points="1293.4646,-126.8041 1300.8728,-119.2298 1290.3582,-120.5311 1293.4646,-126.8041"/>
</g>
<!-- s356 -->
<g id="node11" class="node">
<title>s356</title>
<ellipse fill="none" stroke="#000000" cx="1509.5113" cy="-183.4156" rx="68.4585" ry="29.3315"/>
<text text-anchor="middle" x="1509.5113" y="-187.6156" font-family="Times,serif" font-size="14.00" fill="#000000">s356 STRING</text>
<text text-anchor="middle" x="1509.5113" y="-170.8156" font-family="Times,serif" font-size="14.00" fill="#000000">&quot;,&quot;</text>
</g>
<!-- s355&#45;&gt;s356 -->
<g id="edge7" class="edge">
<title>s355&#45;&gt;s356</title>
<path fill="none" stroke="#000000" d="M1379.3243,-182.5944C1393.9023,-182.6864 1412.4653,-182.8035 1430.9754,-182.9202"/>
<polygon fill="#000000" stroke="#000000" points="1431.2058,-186.4217 1441.2277,-182.9849 1431.25,-179.4218 1431.2058,-186.4217"/>
</g>
<!-- s357 -->
<g id="node12" class="node">
<title>s357</title>
<polygon fill="none" stroke="#000000" points="1654.7481,-204.6156 1654.7481,-246.2156 1711.1899,-246.2156 1711.1899,-204.6156 1654.7481,-204.6156"/>
<text text-anchor="middle" x="1682.969" y="-229.6156" font-family="Times,serif" font-size="14.00" fill="#000000">s357</text>
<text text-anchor="middle" x="1682.969" y="-212.8156" font-family="Times,serif" font-size="14.00" fill="#000000">→ SEQ</text>
</g>
<!-- s356&#45;&gt;s357 -->
<g id="edge12" class="edge">
<title>s356&#45;&gt;s357</title>
<path fill="none" stroke="#000000" d="M1569.2056,-197.8697C1594.078,-203.8921 1622.2465,-210.7127 1644.3313,-216.0601"/>
<polygon fill="#000000" stroke="#000000" points="1643.7862,-219.5292 1654.329,-218.4809 1645.4336,-212.7258 1643.7862,-219.5292"/>
</g>
<!-- s357&#45;&gt;s354 -->
<g id="edge14" class="edge">
<title>s357&#45;&gt;s354</title>
<path fill="none" stroke="#000000" d="M1654.5601,-229.9978C1589.6125,-239.3024 1426.1668,-256.0335 1300.1828,-212.4156 1283.2338,-206.5476 1266.5632,-195.9557 1252.9787,-185.6973"/>
<polygon fill="#000000" stroke="#000000" points="1254.9736,-182.8139 1244.9443,-179.3983 1250.6546,-188.3227 1254.9736,-182.8139"/>
</g>
<!-- s358 -->
<g id="node13" class="node">
<title>s358</title>
<polygon fill="none" stroke="#000000" points="1788.1979,-204.6156 1788.1979,-246.2156 1871.0815,-246.2156 1871.0815,-204.6156 1788.1979,-204.6156"/>
<text text-anchor="middle" x="1829.6397" y="-229.6156" font-family="Times,serif" font-size="14.00" fill="#000000">s358</text>
<text text-anchor="middle" x="1829.6397" y="-212.8156" font-family="Times,serif" font-size="14.00" fill="#000000">→ REPEAT</text>
</g>
<!-- s357&#45;&gt;s358 -->
<g id="edge10" class="edge">
<title>s357&#45;&gt;s358</title>
<path fill="none" stroke="#000000" d="M1711.2486,-225.4156C1730.1618,-225.4156 1755.6029,-225.4156 1778.0538,-225.4156"/>
<polygon fill="#000000" stroke="#000000" points="1778.1245,-228.9157 1788.1245,-225.4156 1778.1244,-221.9157 1778.1245,-228.9157"/>
</g>
<!-- s359 -->
<g id="node14" class="node">
<title>s359</title>
<g id="a_node14"><a xlink:href="rust-grammar.json.attribute_item.dot.svg" xlink:title="s359 SYMBOL\nattribute_item">
<ellipse fill="none" stroke="#000000" cx="1981.8145" cy="-225.4156" rx="73.9667" ry="29.3315"/>
<text text-anchor="middle" x="1981.8145" y="-229.6156" font-family="Times,serif" font-size="14.00" fill="#000000">s359 SYMBOL</text>
<text text-anchor="middle" x="1981.8145" y="-212.8156" font-family="Times,serif" font-size="14.00" fill="#000000">attribute_item</text>
</a>
</g>
</g>
<!-- s358&#45;&gt;s359 -->
<g id="edge8" class="edge">
<title>s358&#45;&gt;s359</title>
<path fill="none" stroke="#000000" d="M1871.2221,-219.3248C1880.1046,-218.961 1889.7831,-218.7477 1899.5986,-218.6851"/>
<polygon fill="#000000" stroke="#000000" points="1899.8529,-222.185 1909.8492,-218.6745 1899.8455,-215.185 1899.8529,-222.185"/>
</g>
<!-- s359&#45;&gt;s358 -->
<g id="edge9" class="edge">
<title>s359&#45;&gt;s358</title>
<path fill="none" stroke="#000000" d="M1909.8492,-232.1568C1900.2251,-232.198 1890.5129,-232.0948 1881.3308,-231.8473"/>
<polygon fill="#000000" stroke="#000000" points="1881.3344,-228.3455 1871.2221,-231.5065 1881.0985,-235.3415 1881.3344,-228.3455"/>
</g>
<!-- s360 -->
<g id="node15" class="node">
<title>s360</title>
<g id="a_node15"><a xlink:href="rust-grammar.json.field_declaration.dot.svg" xlink:title="s360 SYMBOL\nfield_declaration">
<ellipse fill="none" stroke="#000000" cx="2170.9283" cy="-225.4156" rx="78.2618" ry="29.3315"/>
<text text-anchor="middle" x="2170.9283" y="-229.6156" font-family="Times,serif" font-size="14.00" fill="#000000">s360 SYMBOL</text>
<text text-anchor="middle" x="2170.9283" y="-212.8156" font-family="Times,serif" font-size="14.00" fill="#000000">field_declaration</text>
</a>
</g>
</g>
<!-- s359&#45;&gt;s360 -->
<g id="edge11" class="edge">
<title>s359&#45;&gt;s360</title>
<path fill="none" stroke="#000000" d="M2055.7433,-225.4156C2064.4745,-225.4156 2073.4523,-225.4156 2082.359,-225.4156"/>
<polygon fill="#000000" stroke="#000000" points="2082.3678,-228.9157 2092.3678,-225.4156 2082.3678,-221.9157 2082.3678,-228.9157"/>
</g>
<!-- s361&#45;&gt;s362 -->
<g id="edge22" class="edge">
<title>s361&#45;&gt;s362</title>
<path fill="none" stroke="#000000" d="M570.8293,-95.4156C597.818,-95.4156 632.7046,-95.4156 663.688,-95.4156 663.688,-95.4156 663.688,-95.4156 1221.741,-95.4156 1244.0173,-95.4156 1268.4527,-95.2653 1290.0225,-95.0811"/>
<polygon fill="#000000" stroke="#000000" points="1290.0667,-98.581 1300.035,-94.9916 1290.004,-91.5812 1290.0667,-98.581"/>
</g>
<!-- s363 -->
<g id="node18" class="node">
<title>s363</title>
<ellipse fill="none" stroke="#000000" cx="1509.5113" cy="-106.4156" rx="68.4585" ry="29.3315"/>
<text text-anchor="middle" x="1509.5113" y="-110.6156" font-family="Times,serif" font-size="14.00" fill="#000000">s363 STRING</text>
<text text-anchor="middle" x="1509.5113" y="-93.8156" font-family="Times,serif" font-size="14.00" fill="#000000">&quot;,&quot;</text>
</g>
<!-- s362&#45;&gt;s363 -->
<g id="edge19" class="edge">
<title>s362:p0&#45;&gt;s363</title>
<path fill="none" stroke="#000000" d="M1401.7824,-106.4156C1411.2215,-106.4156 1421.1259,-106.4156 1430.9452,-106.4156"/>
<polygon fill="#000000" stroke="#000000" points="1431.1241,-109.9157 1441.124,-106.4156 1431.124,-102.9157 1431.1241,-109.9157"/>
<text text-anchor="middle" x="1421.5324" y="-110.6156" font-family="Times,serif" font-size="14.00" fill="#000000">,</text>
</g>
<!-- s364 -->
<g id="node19" class="node">
<title>s364</title>
<ellipse fill="none" stroke="#000000" cx="1509.5113" cy="-29.4156" rx="45.3054" ry="29.3315"/>
<text text-anchor="middle" x="1509.5113" y="-33.6156" font-family="Times,serif" font-size="14.00" fill="#000000">s364 </text>
<text text-anchor="middle" x="1509.5113" y="-16.8156" font-family="Times,serif" font-size="14.00" fill="#000000">BLANK</text>
</g>
<!-- s362&#45;&gt;s364 -->
<g id="edge20" class="edge">
<title>s362:p1&#45;&gt;s364</title>
<path fill="none" stroke="#000000" d="M1391.9826,-69.4156C1391.9826,-40.8528 1423.4763,-31.1427 1453.858,-28.4208"/>
<polygon fill="#000000" stroke="#000000" points="1454.3231,-31.8978 1464.0716,-27.7485 1453.8633,-24.913 1454.3231,-31.8978"/>
</g>
<!-- s365 -->
<g id="node20" class="node">
<title>s365</title>
<ellipse fill="none" stroke="#000000" cx="1682.969" cy="-68.4156" rx="68.4585" ry="29.3315"/>
<text text-anchor="middle" x="1682.969" y="-72.6156" font-family="Times,serif" font-size="14.00" fill="#000000">s365 STRING</text>
<text text-anchor="middle" x="1682.969" y="-55.8156" font-family="Times,serif" font-size="14.00" fill="#000000">&quot;}&quot;</text>
</g>
<!-- s363&#45;&gt;s365 -->
<g id="edge23" class="edge">
<title>s363&#45;&gt;s365</title>
<path fill="none" stroke="#000000" d="M1570.666,-93.0183C1584.0874,-90.078 1598.4061,-86.9411 1612.1705,-83.9257"/>
<polygon fill="#000000" stroke="#000000" points="1613.0551,-87.315 1622.0744,-81.756 1611.557,-80.4772 1613.0551,-87.315"/>
</g>
<!-- s364&#45;&gt;s365 -->
<g id="edge24" class="edge">
<title>s364&#45;&gt;s365</title>
<path fill="none" stroke="#000000" d="M1552.8345,-39.1564C1570.8576,-43.2087 1592.25,-48.0185 1612.43,-52.5558"/>
<polygon fill="#000000" stroke="#000000" points="1611.6949,-55.9778 1622.2191,-54.7567 1613.2305,-49.1483 1611.6949,-55.9778"/>
</g>
</g>
</svg>
