<?xml version="1.0" encoding="UTF-8" standalone="no"?>
<!DOCTYPE svg PUBLIC "-//W3C//DTD SVG 1.1//EN"
 "http://www.w3.org/Graphics/SVG/1.1/DTD/svg11.dtd">
<!-- Generated by graphviz version 2.40.1 (20161225.0304)
 -->
<!-- Title: _token_pattern Pages: 1 -->
<svg width="500pt" height="301pt"
 viewBox="0.00 0.00 500.49 301.22" xmlns="http://www.w3.org/2000/svg" xmlns:xlink="http://www.w3.org/1999/xlink">
<g id="graph0" class="graph" transform="scale(1 1) rotate(0) translate(4 297.2156)">
<title>_token_pattern</title>
<polygon fill="#ffffff" stroke="transparent" points="-4,4 -4,-297.2156 496.4914,-297.2156 496.4914,4 -4,4"/>
<!-- s66 -->
<g id="node1" class="node">
<title>s66</title>
<polygon fill="none" stroke="#000000" points="0,-94.8156 0,-194.0156 101.5996,-194.0156 101.5996,-94.8156 0,-94.8156"/>
<text text-anchor="middle" x="41.0498" y="-148.6156" font-family="Times,serif" font-size="14.00" fill="#000000">s66</text>
<text text-anchor="middle" x="41.0498" y="-131.8156" font-family="Times,serif" font-size="14.00" fill="#000000">→ CHOICE</text>
<polyline fill="none" stroke="#000000" points="82.0996,-94.8156 82.0996,-194.0156 "/>
<text text-anchor="middle" x="91.8496" y="-177.4156" font-family="Times,serif" font-size="14.00" fill="#000000"> </text>
<polyline fill="none" stroke="#000000" points="82.0996,-169.2156 101.5996,-169.2156 "/>
<text text-anchor="middle" x="91.8496" y="-152.6156" font-family="Times,serif" font-size="14.00" fill="#000000"> </text>
<polyline fill="none" stroke="#000000" points="82.0996,-144.4156 101.5996,-144.4156 "/>
<text text-anchor="middle" x="91.8496" y="-127.8156" font-family="Times,serif" font-size="14.00" fill="#000000"> </text>
<polyline fill="none" stroke="#000000" points="82.0996,-119.6156 101.5996,-119.6156 "/>
<text text-anchor="middle" x="91.8496" y="-103.0156" font-family="Times,serif" font-size="14.00" fill="#000000"> </text>
</g>
<!-- s67 -->
<g id="node2" class="node">
<title>s67</title>
<g id="a_node2"><a xlink:href="rust-grammar.json.token_tree_pattern.dot.svg" xlink:title="s67 SYMBOL\ntoken_tree_pattern">
<ellipse fill="none" stroke="#000000" cx="383.8597" cy="-260.4156" rx="85.5585" ry="29.3315"/>
<text text-anchor="middle" x="383.8597" y="-264.6156" font-family="Times,serif" font-size="14.00" fill="#000000">s67 SYMBOL</text>
<text text-anchor="middle" x="383.8597" y="-247.8156" font-family="Times,serif" font-size="14.00" fill="#000000">token_tree_pattern</text>
</a>
</g>
</g>
<!-- s66&#45;&gt;s67 -->
<g id="edge1" class="edge">
<title>s66:p0&#45;&gt;s67</title>
<path fill="none" stroke="#000000" d="M91.7998,-194.4156C91.7998,-279.1717 210.2686,-282.7385 296.3024,-274.1539"/>
<polygon fill="#000000" stroke="#000000" points="296.7873,-277.6221 306.3598,-273.0813 296.045,-270.6616 296.7873,-277.6221"/>
<text text-anchor="middle" x="188.4138" y="-280.6156" font-family="Times,serif" font-size="14.00" fill="#000000">token_tree_pattern</text>
</g>
<!-- s68 -->
<g id="node3" class="node">
<title>s68</title>
<g id="a_node3"><a xlink:href="rust-grammar.json.token_repetition_pattern.dot.svg" xlink:title="s68 SYMBOL\ntoken_repetition_pattern">
<ellipse fill="none" stroke="#000000" cx="383.8597" cy="-183.4156" rx="108.7635" ry="29.3315"/>
<text text-anchor="middle" x="383.8597" y="-187.6156" font-family="Times,serif" font-size="14.00" fill="#000000">s68 SYMBOL</text>
<text text-anchor="middle" x="383.8597" y="-170.8156" font-family="Times,serif" font-size="14.00" fill="#000000">token_repetition_pattern</text>
</a>
</g>
</g>
<!-- s66&#45;&gt;s68 -->
<g id="edge2" class="edge">
<title>s66:p1&#45;&gt;s68</title>
<path fill="none" stroke="#000000" d="M101.5996,-156.4156C159.986,-156.4156 224.8584,-162.2112 277.6742,-168.4321"/>
<polygon fill="#000000" stroke="#000000" points="277.385,-171.9225 287.7308,-169.6388 278.219,-164.9723 277.385,-171.9225"/>
<text text-anchor="middle" x="188.4138" y="-169.6156" font-family="Times,serif" font-size="14.00" fill="#000000">token_repetition_pattern</text>
</g>
<!-- s69 -->
<g id="node4" class="node">
<title>s69</title>
<g id="a_node4"><a xlink:href="rust-grammar.json.token_binding_pattern.dot.svg" xlink:title="s69 SYMBOL\ntoken_binding_pattern">
<ellipse fill="none" stroke="#000000" cx="383.8597" cy="-106.4156" rx="100.8895" ry="29.3315"/>
<text text-anchor="middle" x="383.8597" y="-110.6156" font-family="Times,serif" font-size="14.00" fill="#000000">s69 SYMBOL</text>
<text text-anchor="middle" x="383.8597" y="-93.8156" font-family="Times,serif" font-size="14.00" fill="#000000">token_binding_pattern</text>
</a>
</g>
</g>
<!-- s66&#45;&gt;s69 -->
<g id="edge3" class="edge">
<title>s66:p2&#45;&gt;s69</title>
<path fill="none" stroke="#000000" d="M101.5996,-132.4156C161.7004,-132.4156 228.6972,-126.4982 282.3319,-120.3094"/>
<polygon fill="#000000" stroke="#000000" points="283.007,-123.7543 292.5301,-119.111 282.1899,-116.8021 283.007,-123.7543"/>
<text text-anchor="middle" x="188.4138" y="-135.6156" font-family="Times,serif" font-size="14.00" fill="#000000">token_binding_pattern</text>
</g>
<!-- s70 -->
<g id="node5" class="node">
<title>s70</title>
<g id="a_node5"><a xlink:href="rust-grammar.json._non_special_token.dot.svg" xlink:title="s70 SYMBOL\n_non_special_token">
<ellipse fill="none" stroke="#000000" cx="383.8597" cy="-29.4156" rx="90.4837" ry="29.3315"/>
<text text-anchor="middle" x="383.8597" y="-33.6156" font-family="Times,serif" font-size="14.00" fill="#000000">s70 SYMBOL</text>
<text text-anchor="middle" x="383.8597" y="-16.8156" font-family="Times,serif" font-size="14.00" fill="#000000">_non_special_token</text>
</a>
</g>
</g>
<!-- s66&#45;&gt;s70 -->
<g id="edge4" class="edge">
<title>s66:p3&#45;&gt;s70</title>
<path fill="none" stroke="#000000" d="M91.7998,-94.4156C91.7998,-10.8458 207.1443,-6.6422 292.8595,-15.0558"/>
<polygon fill="#000000" stroke="#000000" points="292.5815,-18.5458 302.8926,-16.1104 293.3133,-11.5842 292.5815,-18.5458"/>
<text text-anchor="middle" x="188.4138" y="-41.6156" font-family="Times,serif" font-size="14.00" fill="#000000">_non_special_token</text>
</g>
</g>
</svg>
