<?xml version="1.0" encoding="UTF-8" standalone="no"?>
<!DOCTYPE svg PUBLIC "-//W3C//DTD SVG 1.1//EN"
 "http://www.w3.org/Graphics/SVG/1.1/DTD/svg11.dtd">
<!-- Generated by graphviz version 2.40.1 (20161225.0304)
 -->
<!-- Title: function_type Pages: 1 -->
<svg width="2032pt" height="221pt"
 viewBox="0.00 0.00 2031.93 220.83" xmlns="http://www.w3.org/2000/svg" xmlns:xlink="http://www.w3.org/1999/xlink">
<g id="graph0" class="graph" transform="scale(1 1) rotate(0) translate(4 216.8313)">
<title>function_type</title>
<polygon fill="#ffffff" stroke="transparent" points="-4,4 -4,-216.8313 2027.9303,-216.8313 2027.9303,4 -4,4"/>
<!-- s816 -->
<g id="node1" class="node">
<title>s816</title>
<polygon fill="none" stroke="#000000" points="0,-85.6156 0,-127.2156 56.4418,-127.2156 56.4418,-85.6156 0,-85.6156"/>
<text text-anchor="middle" x="28.2209" y="-110.6156" font-family="Times,serif" font-size="14.00" fill="#000000">s816</text>
<text text-anchor="middle" x="28.2209" y="-93.8156" font-family="Times,serif" font-size="14.00" fill="#000000">→ SEQ</text>
</g>
<!-- s817 -->
<g id="node2" class="node">
<title>s817</title>
<polygon fill="none" stroke="#000000" points="93.4418,-81.6156 93.4418,-131.2156 195.0414,-131.2156 195.0414,-81.6156 93.4418,-81.6156"/>
<text text-anchor="middle" x="134.4916" y="-110.6156" font-family="Times,serif" font-size="14.00" fill="#000000">s817</text>
<text text-anchor="middle" x="134.4916" y="-93.8156" font-family="Times,serif" font-size="14.00" fill="#000000">→ CHOICE</text>
<polyline fill="none" stroke="#000000" points="175.5414,-81.6156 175.5414,-131.2156 "/>
<text text-anchor="middle" x="185.2914" y="-114.6156" font-family="Times,serif" font-size="14.00" fill="#000000"> </text>
<polyline fill="none" stroke="#000000" points="175.5414,-106.4156 195.0414,-106.4156 "/>
<text text-anchor="middle" x="185.2914" y="-89.8156" font-family="Times,serif" font-size="14.00" fill="#000000"> </text>
</g>
<!-- s816&#45;&gt;s817 -->
<g id="edge3" class="edge">
<title>s816&#45;&gt;s817</title>
<path fill="none" stroke="#000000" d="M56.6028,-106.4156C64.6824,-106.4156 73.8102,-106.4156 83.0459,-106.4156"/>
<polygon fill="#000000" stroke="#000000" points="83.0657,-109.9157 93.0657,-106.4156 83.0656,-102.9157 83.0657,-109.9157"/>
</g>
<!-- s818 -->
<g id="node3" class="node">
<title>s818</title>
<g id="a_node3"><a xlink:href="rust-grammar.json.function_modifiers.dot.svg" xlink:title="s818 SYMBOL\nfunction_modifiers">
<ellipse fill="none" stroke="#000000" cx="425.5423" cy="-145.4156" rx="87.3851" ry="29.3315"/>
<text text-anchor="middle" x="425.5423" y="-149.6156" font-family="Times,serif" font-size="14.00" fill="#000000">s818 SYMBOL</text>
<text text-anchor="middle" x="425.5423" y="-132.8156" font-family="Times,serif" font-size="14.00" fill="#000000">function_modifiers</text>
</a>
</g>
</g>
<!-- s817&#45;&gt;s818 -->
<g id="edge1" class="edge">
<title>s817:p0&#45;&gt;s818</title>
<path fill="none" stroke="#000000" d="M195.0414,-118.4156C242.5066,-118.4156 295.0988,-124.1333 338.0478,-130.3063"/>
<polygon fill="#000000" stroke="#000000" points="337.7809,-133.8046 348.1837,-131.797 338.7995,-126.8791 337.7809,-133.8046"/>
<text text-anchor="middle" x="266.6957" y="-130.6156" font-family="Times,serif" font-size="14.00" fill="#000000">function_modifiers</text>
</g>
<!-- s819 -->
<g id="node4" class="node">
<title>s819</title>
<ellipse fill="none" stroke="#000000" cx="425.5423" cy="-68.4156" rx="45.3054" ry="29.3315"/>
<text text-anchor="middle" x="425.5423" y="-72.6156" font-family="Times,serif" font-size="14.00" fill="#000000">s819 </text>
<text text-anchor="middle" x="425.5423" y="-55.8156" font-family="Times,serif" font-size="14.00" fill="#000000">BLANK</text>
</g>
<!-- s817&#45;&gt;s819 -->
<g id="edge2" class="edge">
<title>s817:p1&#45;&gt;s819</title>
<path fill="none" stroke="#000000" d="M195.0414,-94.4156C255.8212,-94.4156 325.0511,-85.3787 371.6421,-77.9604"/>
<polygon fill="#000000" stroke="#000000" points="372.2097,-81.4142 381.5201,-76.3578 371.0886,-74.5045 372.2097,-81.4142"/>
</g>
<!-- s820 -->
<g id="node5" class="node">
<title>s820</title>
<polygon fill="none" stroke="#000000" points="549.7347,-85.6156 549.7347,-127.2156 614.7431,-127.2156 614.7431,-85.6156 549.7347,-85.6156"/>
<text text-anchor="middle" x="582.2389" y="-110.6156" font-family="Times,serif" font-size="14.00" fill="#000000">s820</text>
<text text-anchor="middle" x="582.2389" y="-93.8156" font-family="Times,serif" font-size="14.00" fill="#000000">→ PREC</text>
</g>
<!-- s818&#45;&gt;s820 -->
<g id="edge12" class="edge">
<title>s818&#45;&gt;s820</title>
<path fill="none" stroke="#000000" d="M496.0979,-127.8552C510.9864,-124.1496 526.254,-120.3497 539.7214,-116.9978"/>
<polygon fill="#000000" stroke="#000000" points="540.7744,-120.3425 549.633,-114.5309 539.0837,-113.5498 540.7744,-120.3425"/>
</g>
<!-- s819&#45;&gt;s820 -->
<g id="edge13" class="edge">
<title>s819&#45;&gt;s820</title>
<path fill="none" stroke="#000000" d="M468.3604,-78.7993C490.52,-84.1732 517.4906,-90.7137 539.6212,-96.0806"/>
<polygon fill="#000000" stroke="#000000" points="538.8708,-99.5 549.414,-98.4554 540.5206,-92.6971 538.8708,-99.5"/>
</g>
<!-- s821 -->
<g id="node6" class="node">
<title>s821</title>
<polygon fill="none" stroke="#000000" points="651.7431,-85.6156 651.7431,-127.2156 708.1849,-127.2156 708.1849,-85.6156 651.7431,-85.6156"/>
<text text-anchor="middle" x="679.964" y="-110.6156" font-family="Times,serif" font-size="14.00" fill="#000000">s821</text>
<text text-anchor="middle" x="679.964" y="-93.8156" font-family="Times,serif" font-size="14.00" fill="#000000">→ SEQ</text>
</g>
<!-- s820&#45;&gt;s821 -->
<g id="edge11" class="edge">
<title>s820&#45;&gt;s821</title>
<path fill="none" stroke="#000000" d="M614.7799,-106.4156C623.3202,-106.4156 632.6121,-106.4156 641.4331,-106.4156"/>
<polygon fill="#000000" stroke="#000000" points="641.4989,-109.9157 651.4988,-106.4156 641.4988,-102.9157 641.4989,-109.9157"/>
</g>
<!-- s822 -->
<g id="node7" class="node">
<title>s822</title>
<polygon fill="none" stroke="#000000" points="745.1849,-69.2156 745.1849,-143.6156 846.7845,-143.6156 846.7845,-69.2156 745.1849,-69.2156"/>
<text text-anchor="middle" x="786.2347" y="-110.6156" font-family="Times,serif" font-size="14.00" fill="#000000">s822</text>
<text text-anchor="middle" x="786.2347" y="-93.8156" font-family="Times,serif" font-size="14.00" fill="#000000">→ CHOICE</text>
<polyline fill="none" stroke="#000000" points="827.2845,-69.2156 827.2845,-143.6156 "/>
<text text-anchor="middle" x="837.0345" y="-127.0156" font-family="Times,serif" font-size="14.00" fill="#000000"> </text>
<polyline fill="none" stroke="#000000" points="827.2845,-118.8156 846.7845,-118.8156 "/>
<text text-anchor="middle" x="837.0345" y="-102.2156" font-family="Times,serif" font-size="14.00" fill="#000000"> </text>
<polyline fill="none" stroke="#000000" points="827.2845,-94.0156 846.7845,-94.0156 "/>
<text text-anchor="middle" x="837.0345" y="-77.4156" font-family="Times,serif" font-size="14.00" fill="#000000"> </text>
</g>
<!-- s821&#45;&gt;s822 -->
<g id="edge7" class="edge">
<title>s821&#45;&gt;s822</title>
<path fill="none" stroke="#000000" d="M708.3459,-106.4156C716.4255,-106.4156 725.5533,-106.4156 734.789,-106.4156"/>
<polygon fill="#000000" stroke="#000000" points="734.8088,-109.9157 744.8087,-106.4156 734.8087,-102.9157 734.8088,-109.9157"/>
</g>
<!-- s823 -->
<g id="node8" class="node">
<title>s823</title>
<g id="a_node8"><a xlink:href="rust-grammar.json._type_identifier.dot.svg" xlink:title="s823 SYMBOL\n_type_identifier">
<ellipse fill="none" stroke="#000000" cx="1113.106" cy="-183.4156" rx="74.5836" ry="29.3315"/>
<text text-anchor="middle" x="1113.106" y="-187.6156" font-family="Times,serif" font-size="14.00" fill="#000000">s823 SYMBOL</text>
<text text-anchor="middle" x="1113.106" y="-170.8156" font-family="Times,serif" font-size="14.00" fill="#000000">_type_identifier</text>
</a>
</g>
</g>
<!-- s822&#45;&gt;s823 -->
<g id="edge4" class="edge">
<title>s822:p0&#45;&gt;s823</title>
<path fill="none" stroke="#000000" d="M846.7845,-131.4156C915.0822,-131.4156 991.4365,-148.0927 1044.8184,-162.5579"/>
<polygon fill="#000000" stroke="#000000" points="1043.941,-165.9465 1054.5115,-165.2286 1045.8004,-159.1979 1043.941,-165.9465"/>
<text text-anchor="middle" x="928.9304" y="-153.6156" font-family="Times,serif" font-size="14.00" fill="#000000">_type_identifier</text>
</g>
<!-- s824 -->
<g id="node9" class="node">
<title>s824</title>
<g id="a_node9"><a xlink:href="rust-grammar.json.scoped_type_identifier.dot.svg" xlink:title="s824 SYMBOL\nscoped_type_identifier">
<ellipse fill="none" stroke="#000000" cx="1113.106" cy="-106.4156" rx="102.0594" ry="29.3315"/>
<text text-anchor="middle" x="1113.106" y="-110.6156" font-family="Times,serif" font-size="14.00" fill="#000000">s824 SYMBOL</text>
<text text-anchor="middle" x="1113.106" y="-93.8156" font-family="Times,serif" font-size="14.00" fill="#000000">scoped_type_identifier</text>
</a>
</g>
</g>
<!-- s822&#45;&gt;s824 -->
<g id="edge5" class="edge">
<title>s822:p1&#45;&gt;s824</title>
<path fill="none" stroke="#000000" d="M846.7845,-106.4156C897.3966,-106.4156 953.4191,-106.4156 1000.9713,-106.4156"/>
<polygon fill="#000000" stroke="#000000" points="1000.9849,-109.9157 1010.9849,-106.4156 1000.9849,-102.9157 1000.9849,-109.9157"/>
<text text-anchor="middle" x="928.9304" y="-110.6156" font-family="Times,serif" font-size="14.00" fill="#000000">scoped_type_identifier</text>
</g>
<!-- s825 -->
<g id="node10" class="node">
<title>s825</title>
<ellipse fill="none" stroke="#000000" cx="1113.106" cy="-29.4156" rx="68.4585" ry="29.3315"/>
<text text-anchor="middle" x="1113.106" y="-33.6156" font-family="Times,serif" font-size="14.00" fill="#000000">s825 STRING</text>
<text text-anchor="middle" x="1113.106" y="-16.8156" font-family="Times,serif" font-size="14.00" fill="#000000">&quot;fn&quot;</text>
</g>
<!-- s822&#45;&gt;s825 -->
<g id="edge6" class="edge">
<title>s822:p2&#45;&gt;s825</title>
<path fill="none" stroke="#000000" d="M846.7845,-81.4156C916.4127,-81.4156 994.4144,-64.0825 1047.9117,-49.4307"/>
<polygon fill="#000000" stroke="#000000" points="1048.9134,-52.785 1057.6081,-46.7309 1047.0357,-46.0415 1048.9134,-52.785"/>
<text text-anchor="middle" x="928.9304" y="-84.6156" font-family="Times,serif" font-size="14.00" fill="#000000">fn</text>
</g>
<!-- s826 -->
<g id="node11" class="node">
<title>s826</title>
<g id="a_node11"><a xlink:href="rust-grammar.json.parameters.dot.svg" xlink:title="s826 SYMBOL\nparameters">
<ellipse fill="none" stroke="#000000" cx="1325.8687" cy="-106.4156" rx="73.9667" ry="29.3315"/>
<text text-anchor="middle" x="1325.8687" y="-110.6156" font-family="Times,serif" font-size="14.00" fill="#000000">s826 SYMBOL</text>
<text text-anchor="middle" x="1325.8687" y="-93.8156" font-family="Times,serif" font-size="14.00" fill="#000000">parameters</text>
</a>
</g>
</g>
<!-- s823&#45;&gt;s826 -->
<g id="edge8" class="edge">
<title>s823&#45;&gt;s826</title>
<path fill="none" stroke="#000000" d="M1168.1744,-163.4861C1196.7277,-153.1525 1231.7664,-140.4718 1261.5578,-129.6901"/>
<polygon fill="#000000" stroke="#000000" points="1262.8191,-132.9559 1271.0311,-126.2617 1260.4369,-126.3737 1262.8191,-132.9559"/>
</g>
<!-- s824&#45;&gt;s826 -->
<g id="edge9" class="edge">
<title>s824&#45;&gt;s826</title>
<path fill="none" stroke="#000000" d="M1215.4366,-106.4156C1224.3125,-106.4156 1233.226,-106.4156 1241.9295,-106.4156"/>
<polygon fill="#000000" stroke="#000000" points="1242.0355,-109.9157 1252.0354,-106.4156 1242.0354,-102.9157 1242.0355,-109.9157"/>
</g>
<!-- s825&#45;&gt;s826 -->
<g id="edge10" class="edge">
<title>s825&#45;&gt;s826</title>
<path fill="none" stroke="#000000" d="M1165.4261,-48.3506C1194.4037,-58.8377 1230.6701,-71.9628 1261.3887,-83.08"/>
<polygon fill="#000000" stroke="#000000" points="1260.5567,-86.501 1271.151,-86.613 1262.9389,-79.9188 1260.5567,-86.501"/>
</g>
<!-- s827 -->
<g id="node12" class="node">
<title>s827</title>
<polygon fill="none" stroke="#000000" points="1436.6017,-81.6156 1436.6017,-131.2156 1538.2013,-131.2156 1538.2013,-81.6156 1436.6017,-81.6156"/>
<text text-anchor="middle" x="1477.6515" y="-110.6156" font-family="Times,serif" font-size="14.00" fill="#000000">s827</text>
<text text-anchor="middle" x="1477.6515" y="-93.8156" font-family="Times,serif" font-size="14.00" fill="#000000">→ CHOICE</text>
<polyline fill="none" stroke="#000000" points="1518.7013,-81.6156 1518.7013,-131.2156 "/>
<text text-anchor="middle" x="1528.4513" y="-114.6156" font-family="Times,serif" font-size="14.00" fill="#000000"> </text>
<polyline fill="none" stroke="#000000" points="1518.7013,-106.4156 1538.2013,-106.4156 "/>
<text text-anchor="middle" x="1528.4513" y="-89.8156" font-family="Times,serif" font-size="14.00" fill="#000000"> </text>
</g>
<!-- s826&#45;&gt;s827 -->
<g id="edge18" class="edge">
<title>s826&#45;&gt;s827</title>
<path fill="none" stroke="#000000" d="M1400.0163,-106.4156C1408.743,-106.4156 1417.5734,-106.4156 1426.0963,-106.4156"/>
<polygon fill="#000000" stroke="#000000" points="1426.3123,-109.9157 1436.3123,-106.4156 1426.3123,-102.9157 1426.3123,-109.9157"/>
</g>
<!-- s828 -->
<g id="node13" class="node">
<title>s828</title>
<polygon fill="none" stroke="#000000" points="1592.383,-142.6156 1592.383,-184.2156 1648.8248,-184.2156 1648.8248,-142.6156 1592.383,-142.6156"/>
<text text-anchor="middle" x="1620.6039" y="-167.6156" font-family="Times,serif" font-size="14.00" fill="#000000">s828</text>
<text text-anchor="middle" x="1620.6039" y="-150.8156" font-family="Times,serif" font-size="14.00" fill="#000000">→ SEQ</text>
</g>
<!-- s827&#45;&gt;s828 -->
<g id="edge16" class="edge">
<title>s827:p0&#45;&gt;s828</title>
<path fill="none" stroke="#000000" d="M1538.2013,-118.4156C1547.9178,-118.4156 1566.4554,-128.175 1583.4909,-138.6039"/>
<polygon fill="#000000" stroke="#000000" points="1581.8764,-141.7227 1592.2078,-144.0704 1585.5955,-135.7923 1581.8764,-141.7227"/>
</g>
<!-- s831 -->
<g id="node16" class="node">
<title>s831</title>
<ellipse fill="none" stroke="#000000" cx="1620.6039" cy="-94.4156" rx="45.3054" ry="29.3315"/>
<text text-anchor="middle" x="1620.6039" y="-98.6156" font-family="Times,serif" font-size="14.00" fill="#000000">s831 </text>
<text text-anchor="middle" x="1620.6039" y="-81.8156" font-family="Times,serif" font-size="14.00" fill="#000000">BLANK</text>
</g>
<!-- s827&#45;&gt;s831 -->
<g id="edge17" class="edge">
<title>s827:p1&#45;&gt;s831</title>
<path fill="none" stroke="#000000" d="M1538.2013,-94.4156C1546.7357,-94.4156 1555.7674,-94.4156 1564.601,-94.4156"/>
<polygon fill="#000000" stroke="#000000" points="1564.8384,-97.9157 1574.8383,-94.4156 1564.8383,-90.9157 1564.8384,-97.9157"/>
</g>
<!-- s829 -->
<g id="node14" class="node">
<title>s829</title>
<ellipse fill="none" stroke="#000000" cx="1771.2354" cy="-163.4156" rx="68.4585" ry="29.3315"/>
<text text-anchor="middle" x="1771.2354" y="-167.6156" font-family="Times,serif" font-size="14.00" fill="#000000">s829 STRING</text>
<text text-anchor="middle" x="1771.2354" y="-150.8156" font-family="Times,serif" font-size="14.00" fill="#000000">&quot;&#45;&gt;&quot;</text>
</g>
<!-- s828&#45;&gt;s829 -->
<g id="edge14" class="edge">
<title>s828&#45;&gt;s829</title>
<path fill="none" stroke="#000000" d="M1648.9366,-163.4156C1661.5203,-163.4156 1677.0175,-163.4156 1692.7011,-163.4156"/>
<polygon fill="#000000" stroke="#000000" points="1693.0057,-166.9157 1703.0057,-163.4156 1693.0056,-159.9157 1693.0057,-166.9157"/>
</g>
<!-- s830 -->
<g id="node15" class="node">
<title>s830</title>
<g id="a_node15"><a xlink:href="rust-grammar.json._type.dot.svg" xlink:title="s830 SYMBOL\n_type">
<ellipse fill="none" stroke="#000000" cx="1950.1973" cy="-163.4156" rx="73.9667" ry="29.3315"/>
<text text-anchor="middle" x="1950.1973" y="-167.6156" font-family="Times,serif" font-size="14.00" fill="#000000">s830 SYMBOL</text>
<text text-anchor="middle" x="1950.1973" y="-150.8156" font-family="Times,serif" font-size="14.00" fill="#000000">_type</text>
</a>
</g>
</g>
<!-- s829&#45;&gt;s830 -->
<g id="edge15" class="edge">
<title>s829&#45;&gt;s830</title>
<path fill="none" stroke="#000000" d="M1839.6593,-163.4156C1848.4059,-163.4156 1857.4371,-163.4156 1866.3922,-163.4156"/>
<polygon fill="#000000" stroke="#000000" points="1866.4512,-166.9157 1876.4512,-163.4156 1866.4511,-159.9157 1866.4512,-166.9157"/>
</g>
</g>
</svg>
