<?xml version="1.0" encoding="UTF-8" standalone="no"?>
<!DOCTYPE svg PUBLIC "-//W3C//DTD SVG 1.1//EN"
 "http://www.w3.org/Graphics/SVG/1.1/DTD/svg11.dtd">
<!-- Generated by graphviz version 2.40.1 (20161225.0304)
 -->
<!-- Title: boolean_literal Pages: 1 -->
<svg width="318pt" height="144pt"
 viewBox="0.00 0.00 318.38 143.83" xmlns="http://www.w3.org/2000/svg" xmlns:xlink="http://www.w3.org/1999/xlink">
<g id="graph0" class="graph" transform="scale(1 1) rotate(0) translate(4 139.8313)">
<title>boolean_literal</title>
<polygon fill="#ffffff" stroke="transparent" points="-4,4 -4,-139.8313 314.3818,-139.8313 314.3818,4 -4,4"/>
<!-- s1527 -->
<g id="node1" class="node">
<title>s1527</title>
<polygon fill="none" stroke="#000000" points="0,-42.6156 0,-92.2156 101.5996,-92.2156 101.5996,-42.6156 0,-42.6156"/>
<text text-anchor="middle" x="41.0498" y="-71.6156" font-family="Times,serif" font-size="14.00" fill="#000000">s1527</text>
<text text-anchor="middle" x="41.0498" y="-54.8156" font-family="Times,serif" font-size="14.00" fill="#000000">→ CHOICE</text>
<polyline fill="none" stroke="#000000" points="82.0996,-42.6156 82.0996,-92.2156 "/>
<text text-anchor="middle" x="91.8496" y="-75.6156" font-family="Times,serif" font-size="14.00" fill="#000000"> </text>
<polyline fill="none" stroke="#000000" points="82.0996,-67.4156 101.5996,-67.4156 "/>
<text text-anchor="middle" x="91.8496" y="-50.8156" font-family="Times,serif" font-size="14.00" fill="#000000"> </text>
</g>
<!-- s1528 -->
<g id="node2" class="node">
<title>s1528</title>
<ellipse fill="none" stroke="#000000" cx="237.2032" cy="-106.4156" rx="73.3577" ry="29.3315"/>
<text text-anchor="middle" x="237.2032" y="-110.6156" font-family="Times,serif" font-size="14.00" fill="#000000">s1528 STRING</text>
<text text-anchor="middle" x="237.2032" y="-93.8156" font-family="Times,serif" font-size="14.00" fill="#000000">&quot;true&quot;</text>
</g>
<!-- s1527&#45;&gt;s1528 -->
<g id="edge1" class="edge">
<title>s1527:p0&#45;&gt;s1528</title>
<path fill="none" stroke="#000000" d="M101.5996,-79.4156C123.3583,-79.4156 146.7094,-82.8007 167.7972,-87.1737"/>
<polygon fill="#000000" stroke="#000000" points="167.1148,-90.607 177.6307,-89.3161 168.605,-83.7675 167.1148,-90.607"/>
<text text-anchor="middle" x="132.8121" y="-86.6156" font-family="Times,serif" font-size="14.00" fill="#000000">true</text>
</g>
<!-- s1529 -->
<g id="node3" class="node">
<title>s1529</title>
<ellipse fill="none" stroke="#000000" cx="237.2032" cy="-29.4156" rx="73.3577" ry="29.3315"/>
<text text-anchor="middle" x="237.2032" y="-33.6156" font-family="Times,serif" font-size="14.00" fill="#000000">s1529 STRING</text>
<text text-anchor="middle" x="237.2032" y="-16.8156" font-family="Times,serif" font-size="14.00" fill="#000000">&quot;false&quot;</text>
</g>
<!-- s1527&#45;&gt;s1529 -->
<g id="edge2" class="edge">
<title>s1527:p1&#45;&gt;s1529</title>
<path fill="none" stroke="#000000" d="M101.5996,-55.4156C122.9208,-55.4156 145.7958,-52.277 166.571,-48.1807"/>
<polygon fill="#000000" stroke="#000000" points="167.505,-51.5616 176.5851,-46.1025 166.0825,-44.7076 167.505,-51.5616"/>
<text text-anchor="middle" x="132.8121" y="-59.6156" font-family="Times,serif" font-size="14.00" fill="#000000">false</text>
</g>
</g>
</svg>
