<?xml version="1.0" encoding="UTF-8" standalone="no"?>
<!DOCTYPE svg PUBLIC "-//W3C//DTD SVG 1.1//EN"
 "http://www.w3.org/Graphics/SVG/1.1/DTD/svg11.dtd">
<!-- Generated by graphviz version 2.40.1 (20161225.0304)
 -->
<!-- Title: type_parameters Pages: 1 -->
<svg width="2063pt" height="402pt"
 viewBox="0.00 0.00 2062.87 402.22" xmlns="http://www.w3.org/2000/svg" xmlns:xlink="http://www.w3.org/1999/xlink">
<g id="graph0" class="graph" transform="scale(1 1) rotate(0) translate(4 398.2156)">
<title>type_parameters</title>
<polygon fill="#ffffff" stroke="transparent" points="-4,4 -4,-398.2156 2058.8731,-398.2156 2058.8731,4 -4,4"/>
<!-- s607 -->
<g id="node1" class="node">
<title>s607</title>
<polygon fill="none" stroke="#000000" points="0,-162.6156 0,-204.2156 65.0084,-204.2156 65.0084,-162.6156 0,-162.6156"/>
<text text-anchor="middle" x="32.5042" y="-187.6156" font-family="Times,serif" font-size="14.00" fill="#000000">s607</text>
<text text-anchor="middle" x="32.5042" y="-170.8156" font-family="Times,serif" font-size="14.00" fill="#000000">→ PREC</text>
</g>
<!-- s608 -->
<g id="node2" class="node">
<title>s608</title>
<polygon fill="none" stroke="#000000" points="102.0084,-162.6156 102.0084,-204.2156 158.4502,-204.2156 158.4502,-162.6156 102.0084,-162.6156"/>
<text text-anchor="middle" x="130.2293" y="-187.6156" font-family="Times,serif" font-size="14.00" fill="#000000">s608</text>
<text text-anchor="middle" x="130.2293" y="-170.8156" font-family="Times,serif" font-size="14.00" fill="#000000">→ SEQ</text>
</g>
<!-- s607&#45;&gt;s608 -->
<g id="edge28" class="edge">
<title>s607&#45;&gt;s608</title>
<path fill="none" stroke="#000000" d="M65.0452,-183.4156C73.5855,-183.4156 82.8774,-183.4156 91.6984,-183.4156"/>
<polygon fill="#000000" stroke="#000000" points="91.7642,-186.9157 101.7641,-183.4156 91.7641,-179.9157 91.7642,-186.9157"/>
</g>
<!-- s609 -->
<g id="node3" class="node">
<title>s609</title>
<ellipse fill="none" stroke="#000000" cx="263.6791" cy="-183.4156" rx="68.4585" ry="29.3315"/>
<text text-anchor="middle" x="263.6791" y="-187.6156" font-family="Times,serif" font-size="14.00" fill="#000000">s609 STRING</text>
<text text-anchor="middle" x="263.6791" y="-170.8156" font-family="Times,serif" font-size="14.00" fill="#000000">&quot;&lt;&quot;</text>
</g>
<!-- s608&#45;&gt;s609 -->
<g id="edge1" class="edge">
<title>s608&#45;&gt;s609</title>
<path fill="none" stroke="#000000" d="M158.5306,-183.4156C166.594,-183.4156 175.793,-183.4156 185.3185,-183.4156"/>
<polygon fill="#000000" stroke="#000000" points="185.3294,-186.9157 195.3294,-183.4156 185.3293,-179.9157 185.3294,-186.9157"/>
</g>
<!-- s610 -->
<g id="node4" class="node">
<title>s610</title>
<polygon fill="none" stroke="#000000" points="368.9079,-162.6156 368.9079,-204.2156 425.3497,-204.2156 425.3497,-162.6156 368.9079,-162.6156"/>
<text text-anchor="middle" x="397.1288" y="-187.6156" font-family="Times,serif" font-size="14.00" fill="#000000">s610</text>
<text text-anchor="middle" x="397.1288" y="-170.8156" font-family="Times,serif" font-size="14.00" fill="#000000">→ SEQ</text>
</g>
<!-- s609&#45;&gt;s610 -->
<g id="edge22" class="edge">
<title>s609&#45;&gt;s610</title>
<path fill="none" stroke="#000000" d="M331.9677,-183.4156C341.0758,-183.4156 350.145,-183.4156 358.496,-183.4156"/>
<polygon fill="#000000" stroke="#000000" points="358.6387,-186.9157 368.6387,-183.4156 358.6386,-179.9157 358.6387,-186.9157"/>
</g>
<!-- s611 -->
<g id="node5" class="node">
<title>s611</title>
<polygon fill="none" stroke="#000000" points="462.3497,-121.4156 462.3497,-245.4156 563.9493,-245.4156 563.9493,-121.4156 462.3497,-121.4156"/>
<text text-anchor="middle" x="503.3995" y="-187.6156" font-family="Times,serif" font-size="14.00" fill="#000000">s611</text>
<text text-anchor="middle" x="503.3995" y="-170.8156" font-family="Times,serif" font-size="14.00" fill="#000000">→ CHOICE</text>
<polyline fill="none" stroke="#000000" points="544.4493,-121.4156 544.4493,-245.4156 "/>
<text text-anchor="middle" x="554.1993" y="-228.8156" font-family="Times,serif" font-size="14.00" fill="#000000"> </text>
<polyline fill="none" stroke="#000000" points="544.4493,-220.6156 563.9493,-220.6156 "/>
<text text-anchor="middle" x="554.1993" y="-204.0156" font-family="Times,serif" font-size="14.00" fill="#000000"> </text>
<polyline fill="none" stroke="#000000" points="544.4493,-195.8156 563.9493,-195.8156 "/>
<text text-anchor="middle" x="554.1993" y="-179.2156" font-family="Times,serif" font-size="14.00" fill="#000000"> </text>
<polyline fill="none" stroke="#000000" points="544.4493,-171.0156 563.9493,-171.0156 "/>
<text text-anchor="middle" x="554.1993" y="-154.4156" font-family="Times,serif" font-size="14.00" fill="#000000"> </text>
<polyline fill="none" stroke="#000000" points="544.4493,-146.2156 563.9493,-146.2156 "/>
<text text-anchor="middle" x="554.1993" y="-129.6156" font-family="Times,serif" font-size="14.00" fill="#000000"> </text>
</g>
<!-- s610&#45;&gt;s611 -->
<g id="edge7" class="edge">
<title>s610&#45;&gt;s611</title>
<path fill="none" stroke="#000000" d="M425.5107,-183.4156C433.5903,-183.4156 442.7181,-183.4156 451.9539,-183.4156"/>
<polygon fill="#000000" stroke="#000000" points="451.9736,-186.9157 461.9736,-183.4156 451.9736,-179.9157 451.9736,-186.9157"/>
</g>
<!-- s612 -->
<g id="node6" class="node">
<title>s612</title>
<g id="a_node6"><a xlink:href="rust-grammar.json.lifetime.dot.svg" xlink:title="s612 SYMBOL\nlifetime">
<ellipse fill="none" stroke="#000000" cx="882.0037" cy="-337.4156" rx="73.9667" ry="29.3315"/>
<text text-anchor="middle" x="882.0037" y="-341.6156" font-family="Times,serif" font-size="14.00" fill="#000000">s612 SYMBOL</text>
<text text-anchor="middle" x="882.0037" y="-324.8156" font-family="Times,serif" font-size="14.00" fill="#000000">lifetime</text>
</a>
</g>
</g>
<!-- s611&#45;&gt;s612 -->
<g id="edge2" class="edge">
<title>s611:p0&#45;&gt;s612</title>
<path fill="none" stroke="#000000" d="M563.9493,-233.4156C574.0842,-233.4156 572.9421,-242.7695 581.9493,-247.4156 653.6365,-284.3935 742.9734,-308.7335 805.4469,-322.6675"/>
<polygon fill="#000000" stroke="#000000" points="804.7183,-326.0908 815.236,-324.8148 806.2182,-319.2534 804.7183,-326.0908"/>
<text text-anchor="middle" x="661.2474" y="-308.6156" font-family="Times,serif" font-size="14.00" fill="#000000">lifetime</text>
</g>
<!-- s613 -->
<g id="node7" class="node">
<title>s613</title>
<g id="a_node7"><a xlink:href="rust-grammar.json.metavariable.dot.svg" xlink:title="s613 SYMBOL\nmetavariable">
<ellipse fill="none" stroke="#000000" cx="882.0037" cy="-260.4156" rx="73.9667" ry="29.3315"/>
<text text-anchor="middle" x="882.0037" y="-264.6156" font-family="Times,serif" font-size="14.00" fill="#000000">s613 SYMBOL</text>
<text text-anchor="middle" x="882.0037" y="-247.8156" font-family="Times,serif" font-size="14.00" fill="#000000">metavariable</text>
</a>
</g>
</g>
<!-- s611&#45;&gt;s613 -->
<g id="edge3" class="edge">
<title>s611:p1&#45;&gt;s613</title>
<path fill="none" stroke="#000000" d="M563.9493,-208.4156C649.4559,-208.4156 746.2187,-226.947 810.3263,-241.8844"/>
<polygon fill="#000000" stroke="#000000" points="809.7912,-245.3543 820.3281,-244.2476 811.4008,-238.5419 809.7912,-245.3543"/>
<text text-anchor="middle" x="661.2474" y="-230.6156" font-family="Times,serif" font-size="14.00" fill="#000000">metavariable</text>
</g>
<!-- s614 -->
<g id="node8" class="node">
<title>s614</title>
<g id="a_node8"><a xlink:href="rust-grammar.json._type_identifier.dot.svg" xlink:title="s614 SYMBOL\n_type_identifier">
<ellipse fill="none" stroke="#000000" cx="882.0037" cy="-183.4156" rx="74.5836" ry="29.3315"/>
<text text-anchor="middle" x="882.0037" y="-187.6156" font-family="Times,serif" font-size="14.00" fill="#000000">s614 SYMBOL</text>
<text text-anchor="middle" x="882.0037" y="-170.8156" font-family="Times,serif" font-size="14.00" fill="#000000">_type_identifier</text>
</a>
</g>
</g>
<!-- s611&#45;&gt;s614 -->
<g id="edge4" class="edge">
<title>s611:p2&#45;&gt;s614</title>
<path fill="none" stroke="#000000" d="M563.9493,-183.4156C643.0941,-183.4156 733.317,-183.4156 797.4027,-183.4156"/>
<polygon fill="#000000" stroke="#000000" points="797.458,-186.9157 807.458,-183.4156 797.458,-179.9157 797.458,-186.9157"/>
<text text-anchor="middle" x="661.2474" y="-187.6156" font-family="Times,serif" font-size="14.00" fill="#000000">_type_identifier</text>
</g>
<!-- s615 -->
<g id="node9" class="node">
<title>s615</title>
<g id="a_node9"><a xlink:href="rust-grammar.json.constrained_type_parameter.dot.svg" xlink:title="s615 SYMBOL\nconstrained_type_parameter">
<ellipse fill="none" stroke="#000000" cx="882.0037" cy="-106.4156" rx="123.4163" ry="29.3315"/>
<text text-anchor="middle" x="882.0037" y="-110.6156" font-family="Times,serif" font-size="14.00" fill="#000000">s615 SYMBOL</text>
<text text-anchor="middle" x="882.0037" y="-93.8156" font-family="Times,serif" font-size="14.00" fill="#000000">constrained_type_parameter</text>
</a>
</g>
</g>
<!-- s611&#45;&gt;s615 -->
<g id="edge5" class="edge">
<title>s611:p3&#45;&gt;s615</title>
<path fill="none" stroke="#000000" d="M563.9493,-158.4156C639.7634,-158.4156 724.4264,-143.8474 787.3309,-130.1328"/>
<polygon fill="#000000" stroke="#000000" points="788.2275,-133.5192 797.2352,-127.9414 786.7152,-126.6845 788.2275,-133.5192"/>
<text text-anchor="middle" x="661.2474" y="-161.6156" font-family="Times,serif" font-size="14.00" fill="#000000">constrained_type_parameter</text>
</g>
<!-- s616 -->
<g id="node10" class="node">
<title>s616</title>
<g id="a_node10"><a xlink:href="rust-grammar.json.optional_type_parameter.dot.svg" xlink:title="s616 SYMBOL\noptional_type_parameter">
<ellipse fill="none" stroke="#000000" cx="882.0037" cy="-29.4156" rx="110.0505" ry="29.3315"/>
<text text-anchor="middle" x="882.0037" y="-33.6156" font-family="Times,serif" font-size="14.00" fill="#000000">s616 SYMBOL</text>
<text text-anchor="middle" x="882.0037" y="-16.8156" font-family="Times,serif" font-size="14.00" fill="#000000">optional_type_parameter</text>
</a>
</g>
</g>
<!-- s611&#45;&gt;s616 -->
<g id="edge6" class="edge">
<title>s611:p4&#45;&gt;s616</title>
<path fill="none" stroke="#000000" d="M563.9493,-133.4156C574.3063,-133.4156 572.804,-123.4767 581.9493,-118.6156 644.6807,-85.2721 721.5851,-62.7225 781.8309,-48.6377"/>
<polygon fill="#000000" stroke="#000000" points="782.7696,-52.0133 791.7324,-46.3637 781.2026,-45.1909 782.7696,-52.0133"/>
<text text-anchor="middle" x="661.2474" y="-122.6156" font-family="Times,serif" font-size="14.00" fill="#000000">optional_type_parameter</text>
</g>
<!-- s617 -->
<g id="node11" class="node">
<title>s617</title>
<polygon fill="none" stroke="#000000" points="1042.4619,-162.6156 1042.4619,-204.2156 1125.3455,-204.2156 1125.3455,-162.6156 1042.4619,-162.6156"/>
<text text-anchor="middle" x="1083.9037" y="-187.6156" font-family="Times,serif" font-size="14.00" fill="#000000">s617</text>
<text text-anchor="middle" x="1083.9037" y="-170.8156" font-family="Times,serif" font-size="14.00" fill="#000000">→ REPEAT</text>
</g>
<!-- s612&#45;&gt;s617 -->
<g id="edge17" class="edge">
<title>s612&#45;&gt;s617</title>
<path fill="none" stroke="#000000" d="M948.9719,-324.9968C968.4746,-319.1634 988.9538,-310.683 1005.4619,-298.4156 1035.1772,-276.3338 1057.4174,-239.5011 1070.4885,-213.4778"/>
<polygon fill="#000000" stroke="#000000" points="1073.664,-214.9508 1074.8862,-204.4267 1067.3679,-211.8917 1073.664,-214.9508"/>
</g>
<!-- s613&#45;&gt;s617 -->
<g id="edge18" class="edge">
<title>s613&#45;&gt;s617</title>
<path fill="none" stroke="#000000" d="M942.2733,-243.2954C962.5706,-237.0243 985.2021,-229.4735 1005.4619,-221.4156 1014.953,-217.6408 1024.8925,-213.2147 1034.3841,-208.7432"/>
<polygon fill="#000000" stroke="#000000" points="1036.1898,-211.759 1043.6932,-204.2791 1033.163,-205.4472 1036.1898,-211.759"/>
</g>
<!-- s614&#45;&gt;s617 -->
<g id="edge19" class="edge">
<title>s614&#45;&gt;s617</title>
<path fill="none" stroke="#000000" d="M956.6102,-183.4156C981.7426,-183.4156 1009.2173,-183.4156 1032.188,-183.4156"/>
<polygon fill="#000000" stroke="#000000" points="1032.4007,-186.9157 1042.4006,-183.4156 1032.4006,-179.9157 1032.4007,-186.9157"/>
</g>
<!-- s615&#45;&gt;s617 -->
<g id="edge20" class="edge">
<title>s615&#45;&gt;s617</title>
<path fill="none" stroke="#000000" d="M960.3206,-129.2678C975.4386,-134.2084 991.0503,-139.6837 1005.4619,-145.4156 1014.953,-149.1905 1024.8925,-153.6166 1034.3841,-158.0881"/>
<polygon fill="#000000" stroke="#000000" points="1033.163,-161.3841 1043.6932,-162.5522 1036.1898,-155.0723 1033.163,-161.3841"/>
</g>
<!-- s616&#45;&gt;s617 -->
<g id="edge21" class="edge">
<title>s616&#45;&gt;s617</title>
<path fill="none" stroke="#000000" d="M967.3304,-48.0902C980.8468,-53.3181 994.0956,-59.9692 1005.4619,-68.4156 1035.1772,-90.4975 1057.4174,-127.3302 1070.4885,-153.3535"/>
<polygon fill="#000000" stroke="#000000" points="1067.3679,-154.9396 1074.8862,-162.4046 1073.664,-151.8805 1067.3679,-154.9396"/>
</g>
<!-- s618 -->
<g id="node12" class="node">
<title>s618</title>
<polygon fill="none" stroke="#000000" points="1184.9244,-215.6156 1184.9244,-257.2156 1241.3662,-257.2156 1241.3662,-215.6156 1184.9244,-215.6156"/>
<text text-anchor="middle" x="1213.1453" y="-240.6156" font-family="Times,serif" font-size="14.00" fill="#000000">s618</text>
<text text-anchor="middle" x="1213.1453" y="-223.8156" font-family="Times,serif" font-size="14.00" fill="#000000">→ SEQ</text>
</g>
<!-- s617&#45;&gt;s618 -->
<g id="edge15" class="edge">
<title>s617&#45;&gt;s618</title>
<path fill="none" stroke="#000000" d="M1125.5079,-200.4769C1141.5184,-207.0426 1159.6973,-214.4974 1175.3316,-220.9088"/>
<polygon fill="#000000" stroke="#000000" points="1174.1149,-224.1927 1184.6952,-224.7487 1176.7709,-217.7161 1174.1149,-224.1927"/>
</g>
<!-- s626 -->
<g id="node20" class="node">
<title>s626</title>
<polygon fill="none" stroke="#000000" points="1162.3455,-89.6156 1162.3455,-139.2156 1263.9451,-139.2156 1263.9451,-89.6156 1162.3455,-89.6156"/>
<text text-anchor="middle" x="1203.3953" y="-118.6156" font-family="Times,serif" font-size="14.00" fill="#000000">s626</text>
<text text-anchor="middle" x="1203.3953" y="-101.8156" font-family="Times,serif" font-size="14.00" fill="#000000">→ CHOICE</text>
<polyline fill="none" stroke="#000000" points="1244.4451,-89.6156 1244.4451,-139.2156 "/>
<text text-anchor="middle" x="1254.1951" y="-122.6156" font-family="Times,serif" font-size="14.00" fill="#000000"> </text>
<polyline fill="none" stroke="#000000" points="1244.4451,-114.4156 1263.9451,-114.4156 "/>
<text text-anchor="middle" x="1254.1951" y="-97.8156" font-family="Times,serif" font-size="14.00" fill="#000000"> </text>
</g>
<!-- s617&#45;&gt;s626 -->
<g id="edge25" class="edge">
<title>s617&#45;&gt;s626</title>
<path fill="none" stroke="#000000" d="M1123.0311,-162.5261C1133.8179,-156.7673 1145.7332,-150.4058 1157.2698,-144.2467"/>
<polygon fill="#000000" stroke="#000000" points="1159.2387,-147.1631 1166.4119,-139.3658 1155.9419,-140.988 1159.2387,-147.1631"/>
</g>
<!-- s619 -->
<g id="node13" class="node">
<title>s619</title>
<ellipse fill="none" stroke="#000000" cx="1371.6739" cy="-240.4156" rx="68.4585" ry="29.3315"/>
<text text-anchor="middle" x="1371.6739" y="-244.6156" font-family="Times,serif" font-size="14.00" fill="#000000">s619 STRING</text>
<text text-anchor="middle" x="1371.6739" y="-227.8156" font-family="Times,serif" font-size="14.00" fill="#000000">&quot;,&quot;</text>
</g>
<!-- s618&#45;&gt;s619 -->
<g id="edge8" class="edge">
<title>s618&#45;&gt;s619</title>
<path fill="none" stroke="#000000" d="M1241.487,-237.1308C1256.0649,-237.4986 1274.628,-237.967 1293.1381,-238.434"/>
<polygon fill="#000000" stroke="#000000" points="1293.3053,-241.9393 1303.3904,-238.6927 1293.4819,-234.9415 1293.3053,-241.9393"/>
</g>
<!-- s620 -->
<g id="node14" class="node">
<title>s620</title>
<polygon fill="none" stroke="#000000" points="1494.3319,-148.4156 1494.3319,-272.4156 1595.9315,-272.4156 1595.9315,-148.4156 1494.3319,-148.4156"/>
<text text-anchor="middle" x="1535.3817" y="-214.6156" font-family="Times,serif" font-size="14.00" fill="#000000">s620</text>
<text text-anchor="middle" x="1535.3817" y="-197.8156" font-family="Times,serif" font-size="14.00" fill="#000000">→ CHOICE</text>
<polyline fill="none" stroke="#000000" points="1576.4315,-148.4156 1576.4315,-272.4156 "/>
<text text-anchor="middle" x="1586.1815" y="-255.8156" font-family="Times,serif" font-size="14.00" fill="#000000"> </text>
<polyline fill="none" stroke="#000000" points="1576.4315,-247.6156 1595.9315,-247.6156 "/>
<text text-anchor="middle" x="1586.1815" y="-231.0156" font-family="Times,serif" font-size="14.00" fill="#000000"> </text>
<polyline fill="none" stroke="#000000" points="1576.4315,-222.8156 1595.9315,-222.8156 "/>
<text text-anchor="middle" x="1586.1815" y="-206.2156" font-family="Times,serif" font-size="14.00" fill="#000000"> </text>
<polyline fill="none" stroke="#000000" points="1576.4315,-198.0156 1595.9315,-198.0156 "/>
<text text-anchor="middle" x="1586.1815" y="-181.4156" font-family="Times,serif" font-size="14.00" fill="#000000"> </text>
<polyline fill="none" stroke="#000000" points="1576.4315,-173.2156 1595.9315,-173.2156 "/>
<text text-anchor="middle" x="1586.1815" y="-156.6156" font-family="Times,serif" font-size="14.00" fill="#000000"> </text>
</g>
<!-- s619&#45;&gt;s620 -->
<g id="edge14" class="edge">
<title>s619&#45;&gt;s620</title>
<path fill="none" stroke="#000000" d="M1435.2783,-229.4151C1451.2206,-226.6578 1468.2876,-223.706 1484.1014,-220.971"/>
<polygon fill="#000000" stroke="#000000" points="1485.0308,-224.3623 1494.2881,-219.2092 1483.8378,-217.4647 1485.0308,-224.3623"/>
</g>
<!-- s620&#45;&gt;s617 -->
<g id="edge16" class="edge">
<title>s620&#45;&gt;s617</title>
<path fill="none" stroke="#000000" d="M1494.3012,-206.3186C1477.0406,-204.9893 1457.6377,-203.5629 1439.9028,-202.4156 1331.8057,-195.4229 1205.1225,-189.1111 1135.7891,-185.8175"/>
<polygon fill="#000000" stroke="#000000" points="1135.7293,-182.3108 1125.5751,-185.3344 1135.3986,-189.303 1135.7293,-182.3108"/>
</g>
<!-- s621 -->
<g id="node15" class="node">
<title>s621</title>
<g id="a_node15"><a xlink:href="rust-grammar.json.lifetime.dot.svg" xlink:title="s621 SYMBOL\nlifetime">
<ellipse fill="none" stroke="#000000" cx="1931.4149" cy="-364.4156" rx="73.9667" ry="29.3315"/>
<text text-anchor="middle" x="1931.4149" y="-368.6156" font-family="Times,serif" font-size="14.00" fill="#000000">s621 SYMBOL</text>
<text text-anchor="middle" x="1931.4149" y="-351.8156" font-family="Times,serif" font-size="14.00" fill="#000000">lifetime</text>
</a>
</g>
</g>
<!-- s620&#45;&gt;s621 -->
<g id="edge9" class="edge">
<title>s620:p0&#45;&gt;s621</title>
<path fill="none" stroke="#000000" d="M1586.1317,-272.4156C1586.1317,-381.6833 1749.582,-384.1439 1851.5663,-375.0444"/>
<polygon fill="#000000" stroke="#000000" points="1851.9159,-378.5271 1861.5417,-374.1004 1851.2564,-371.5582 1851.9159,-378.5271"/>
<text text-anchor="middle" x="1710.6587" y="-381.6156" font-family="Times,serif" font-size="14.00" fill="#000000">lifetime</text>
</g>
<!-- s622 -->
<g id="node16" class="node">
<title>s622</title>
<g id="a_node16"><a xlink:href="rust-grammar.json.metavariable.dot.svg" xlink:title="s622 SYMBOL\nmetavariable">
<ellipse fill="none" stroke="#000000" cx="1931.4149" cy="-287.4156" rx="73.9667" ry="29.3315"/>
<text text-anchor="middle" x="1931.4149" y="-291.6156" font-family="Times,serif" font-size="14.00" fill="#000000">s622 SYMBOL</text>
<text text-anchor="middle" x="1931.4149" y="-274.8156" font-family="Times,serif" font-size="14.00" fill="#000000">metavariable</text>
</a>
</g>
</g>
<!-- s620&#45;&gt;s622 -->
<g id="edge10" class="edge">
<title>s620:p1&#45;&gt;s622</title>
<path fill="none" stroke="#000000" d="M1596.1317,-235.4156C1687.4583,-235.4156 1791.1422,-254.4885 1858.7181,-269.5321"/>
<polygon fill="#000000" stroke="#000000" points="1858.308,-273.0275 1868.8331,-271.8139 1859.8484,-266.1991 1858.308,-273.0275"/>
<text text-anchor="middle" x="1710.6587" y="-258.6156" font-family="Times,serif" font-size="14.00" fill="#000000">metavariable</text>
</g>
<!-- s623 -->
<g id="node17" class="node">
<title>s623</title>
<g id="a_node17"><a xlink:href="rust-grammar.json._type_identifier.dot.svg" xlink:title="s623 SYMBOL\n_type_identifier">
<ellipse fill="none" stroke="#000000" cx="1931.4149" cy="-210.4156" rx="74.5836" ry="29.3315"/>
<text text-anchor="middle" x="1931.4149" y="-214.6156" font-family="Times,serif" font-size="14.00" fill="#000000">s623 SYMBOL</text>
<text text-anchor="middle" x="1931.4149" y="-197.8156" font-family="Times,serif" font-size="14.00" fill="#000000">_type_identifier</text>
</a>
</g>
</g>
<!-- s620&#45;&gt;s623 -->
<g id="edge11" class="edge">
<title>s620:p2&#45;&gt;s623</title>
<path fill="none" stroke="#000000" d="M1596.1317,-210.4156C1681.3963,-210.4156 1778.8579,-210.4156 1846.6428,-210.4156"/>
<polygon fill="#000000" stroke="#000000" points="1846.8417,-213.9157 1856.8416,-210.4156 1846.8416,-206.9157 1846.8417,-213.9157"/>
<text text-anchor="middle" x="1710.6587" y="-214.6156" font-family="Times,serif" font-size="14.00" fill="#000000">_type_identifier</text>
</g>
<!-- s624 -->
<g id="node18" class="node">
<title>s624</title>
<g id="a_node18"><a xlink:href="rust-grammar.json.constrained_type_parameter.dot.svg" xlink:title="s624 SYMBOL\nconstrained_type_parameter">
<ellipse fill="none" stroke="#000000" cx="1931.4149" cy="-133.4156" rx="123.4163" ry="29.3315"/>
<text text-anchor="middle" x="1931.4149" y="-137.6156" font-family="Times,serif" font-size="14.00" fill="#000000">s624 SYMBOL</text>
<text text-anchor="middle" x="1931.4149" y="-120.8156" font-family="Times,serif" font-size="14.00" fill="#000000">constrained_type_parameter</text>
</a>
</g>
</g>
<!-- s620&#45;&gt;s624 -->
<g id="edge12" class="edge">
<title>s620:p3&#45;&gt;s624</title>
<path fill="none" stroke="#000000" d="M1596.1317,-185.4156C1677.093,-185.4156 1767.7657,-170.4265 1834.3846,-156.5433"/>
<polygon fill="#000000" stroke="#000000" points="1835.3893,-159.9083 1844.4494,-154.4161 1833.9418,-153.0596 1835.3893,-159.9083"/>
<text text-anchor="middle" x="1710.6587" y="-188.6156" font-family="Times,serif" font-size="14.00" fill="#000000">constrained_type_parameter</text>
</g>
<!-- s625 -->
<g id="node19" class="node">
<title>s625</title>
<g id="a_node19"><a xlink:href="rust-grammar.json.optional_type_parameter.dot.svg" xlink:title="s625 SYMBOL\noptional_type_parameter">
<ellipse fill="none" stroke="#000000" cx="1931.4149" cy="-56.4156" rx="110.0505" ry="29.3315"/>
<text text-anchor="middle" x="1931.4149" y="-60.6156" font-family="Times,serif" font-size="14.00" fill="#000000">s625 SYMBOL</text>
<text text-anchor="middle" x="1931.4149" y="-43.8156" font-family="Times,serif" font-size="14.00" fill="#000000">optional_type_parameter</text>
</a>
</g>
</g>
<!-- s620&#45;&gt;s625 -->
<g id="edge13" class="edge">
<title>s620:p4&#45;&gt;s625</title>
<path fill="none" stroke="#000000" d="M1586.1317,-148.4156C1586.1317,-123.125 1726.2332,-92.7244 1827.9492,-73.9858"/>
<polygon fill="#000000" stroke="#000000" points="1828.7685,-77.3941 1837.9763,-72.1533 1827.51,-70.5082 1828.7685,-77.3941"/>
<text text-anchor="middle" x="1710.6587" y="-122.6156" font-family="Times,serif" font-size="14.00" fill="#000000">optional_type_parameter</text>
</g>
<!-- s627 -->
<g id="node21" class="node">
<title>s627</title>
<ellipse fill="none" stroke="#000000" cx="1371.6739" cy="-126.4156" rx="68.4585" ry="29.3315"/>
<text text-anchor="middle" x="1371.6739" y="-130.6156" font-family="Times,serif" font-size="14.00" fill="#000000">s627 STRING</text>
<text text-anchor="middle" x="1371.6739" y="-113.8156" font-family="Times,serif" font-size="14.00" fill="#000000">&quot;,&quot;</text>
</g>
<!-- s626&#45;&gt;s627 -->
<g id="edge23" class="edge">
<title>s626:p0&#45;&gt;s627</title>
<path fill="none" stroke="#000000" d="M1263.9451,-126.4156C1273.3842,-126.4156 1283.2885,-126.4156 1293.1078,-126.4156"/>
<polygon fill="#000000" stroke="#000000" points="1293.2867,-129.9157 1303.2867,-126.4156 1293.2867,-122.9157 1293.2867,-129.9157"/>
<text text-anchor="middle" x="1283.6951" y="-130.6156" font-family="Times,serif" font-size="14.00" fill="#000000">,</text>
</g>
<!-- s628 -->
<g id="node22" class="node">
<title>s628</title>
<ellipse fill="none" stroke="#000000" cx="1371.6739" cy="-49.4156" rx="45.3054" ry="29.3315"/>
<text text-anchor="middle" x="1371.6739" y="-53.6156" font-family="Times,serif" font-size="14.00" fill="#000000">s628 </text>
<text text-anchor="middle" x="1371.6739" y="-36.8156" font-family="Times,serif" font-size="14.00" fill="#000000">BLANK</text>
</g>
<!-- s626&#45;&gt;s628 -->
<g id="edge24" class="edge">
<title>s626:p1&#45;&gt;s628</title>
<path fill="none" stroke="#000000" d="M1254.1453,-89.4156C1254.1453,-60.8528 1285.639,-51.1427 1316.0207,-48.4208"/>
<polygon fill="#000000" stroke="#000000" points="1316.4858,-51.8978 1326.2343,-47.7485 1316.026,-44.913 1316.4858,-51.8978"/>
</g>
<!-- s629 -->
<g id="node23" class="node">
<title>s629</title>
<ellipse fill="none" stroke="#000000" cx="1545.1317" cy="-88.4156" rx="68.4585" ry="29.3315"/>
<text text-anchor="middle" x="1545.1317" y="-92.6156" font-family="Times,serif" font-size="14.00" fill="#000000">s629 STRING</text>
<text text-anchor="middle" x="1545.1317" y="-75.8156" font-family="Times,serif" font-size="14.00" fill="#000000">&quot;&gt;&quot;</text>
</g>
<!-- s627&#45;&gt;s629 -->
<g id="edge26" class="edge">
<title>s627&#45;&gt;s629</title>
<path fill="none" stroke="#000000" d="M1432.8287,-113.0183C1446.2501,-110.078 1460.5688,-106.9411 1474.3332,-103.9257"/>
<polygon fill="#000000" stroke="#000000" points="1475.2177,-107.315 1484.2371,-101.756 1473.7197,-100.4772 1475.2177,-107.315"/>
</g>
<!-- s628&#45;&gt;s629 -->
<g id="edge27" class="edge">
<title>s628&#45;&gt;s629</title>
<path fill="none" stroke="#000000" d="M1414.9972,-59.1564C1433.0202,-63.2087 1454.4127,-68.0185 1474.5927,-72.5558"/>
<polygon fill="#000000" stroke="#000000" points="1473.8576,-75.9778 1484.3818,-74.7567 1475.3931,-69.1483 1473.8576,-75.9778"/>
</g>
</g>
</svg>
