<?xml version="1.0" encoding="UTF-8" standalone="no"?>
<!DOCTYPE svg PUBLIC "-//W3C//DTD SVG 1.1//EN"
 "http://www.w3.org/Graphics/SVG/1.1/DTD/svg11.dtd">
<!-- Generated by graphviz version 2.40.1 (20161225.0304)
 -->
<!-- Title: for_expression Pages: 1 -->
<svg width="1615pt" height="144pt"
 viewBox="0.00 0.00 1615.02 143.83" xmlns="http://www.w3.org/2000/svg" xmlns:xlink="http://www.w3.org/1999/xlink">
<g id="graph0" class="graph" transform="scale(1 1) rotate(0) translate(4 139.8313)">
<title>for_expression</title>
<polygon fill="#ffffff" stroke="transparent" points="-4,4 -4,-139.8313 1611.0169,-139.8313 1611.0169,4 -4,4"/>
<!-- s1246 -->
<g id="node1" class="node">
<title>s1246</title>
<polygon fill="none" stroke="#000000" points="0,-46.6156 0,-88.2156 56.4418,-88.2156 56.4418,-46.6156 0,-46.6156"/>
<text text-anchor="middle" x="28.2209" y="-71.6156" font-family="Times,serif" font-size="14.00" fill="#000000">s1246</text>
<text text-anchor="middle" x="28.2209" y="-54.8156" font-family="Times,serif" font-size="14.00" fill="#000000">→ SEQ</text>
</g>
<!-- s1247 -->
<g id="node2" class="node">
<title>s1247</title>
<polygon fill="none" stroke="#000000" points="92.4418,-42.6156 92.4418,-92.2156 194.0414,-92.2156 194.0414,-42.6156 92.4418,-42.6156"/>
<text text-anchor="middle" x="133.4916" y="-71.6156" font-family="Times,serif" font-size="14.00" fill="#000000">s1247</text>
<text text-anchor="middle" x="133.4916" y="-54.8156" font-family="Times,serif" font-size="14.00" fill="#000000">→ CHOICE</text>
<polyline fill="none" stroke="#000000" points="174.5414,-42.6156 174.5414,-92.2156 "/>
<text text-anchor="middle" x="184.2914" y="-75.6156" font-family="Times,serif" font-size="14.00" fill="#000000"> </text>
<polyline fill="none" stroke="#000000" points="174.5414,-67.4156 194.0414,-67.4156 "/>
<text text-anchor="middle" x="184.2914" y="-50.8156" font-family="Times,serif" font-size="14.00" fill="#000000"> </text>
</g>
<!-- s1246&#45;&gt;s1247 -->
<g id="edge5" class="edge">
<title>s1246&#45;&gt;s1247</title>
<path fill="none" stroke="#000000" d="M56.653,-67.4156C64.4832,-67.4156 73.2894,-67.4156 82.209,-67.4156"/>
<polygon fill="#000000" stroke="#000000" points="82.2817,-70.9157 92.2817,-67.4156 82.2817,-63.9157 82.2817,-70.9157"/>
</g>
<!-- s1248 -->
<g id="node3" class="node">
<title>s1248</title>
<polygon fill="none" stroke="#000000" points="230.0414,-78.6156 230.0414,-120.2156 286.4832,-120.2156 286.4832,-78.6156 230.0414,-78.6156"/>
<text text-anchor="middle" x="258.2623" y="-103.6156" font-family="Times,serif" font-size="14.00" fill="#000000">s1248</text>
<text text-anchor="middle" x="258.2623" y="-86.8156" font-family="Times,serif" font-size="14.00" fill="#000000">→ SEQ</text>
</g>
<!-- s1247&#45;&gt;s1248 -->
<g id="edge3" class="edge">
<title>s1247:p0&#45;&gt;s1248</title>
<path fill="none" stroke="#000000" d="M194.0414,-79.4156C202.6865,-79.4156 211.7022,-81.0882 220.1511,-83.466"/>
<polygon fill="#000000" stroke="#000000" points="219.1625,-86.8242 229.753,-86.5232 221.2863,-80.1542 219.1625,-86.8242"/>
</g>
<!-- s1251 -->
<g id="node6" class="node">
<title>s1251</title>
<ellipse fill="none" stroke="#000000" cx="401.1659" cy="-29.4156" rx="45.3054" ry="29.3315"/>
<text text-anchor="middle" x="401.1659" y="-33.6156" font-family="Times,serif" font-size="14.00" fill="#000000">s1251 </text>
<text text-anchor="middle" x="401.1659" y="-16.8156" font-family="Times,serif" font-size="14.00" fill="#000000">BLANK</text>
</g>
<!-- s1247&#45;&gt;s1251 -->
<g id="edge4" class="edge">
<title>s1247:p1&#45;&gt;s1251</title>
<path fill="none" stroke="#000000" d="M194.0414,-55.4156C246.6062,-55.4156 306.0946,-47.0697 347.788,-39.8349"/>
<polygon fill="#000000" stroke="#000000" points="348.489,-43.2653 357.7244,-38.0733 347.2669,-36.3728 348.489,-43.2653"/>
</g>
<!-- s1249 -->
<g id="node4" class="node">
<title>s1249</title>
<g id="a_node4"><a xlink:href="rust-grammar.json.loop_label.dot.svg" xlink:title="s1249 SYMBOL\nloop_label">
<ellipse fill="none" stroke="#000000" cx="401.1659" cy="-106.4156" rx="78.8659" ry="29.3315"/>
<text text-anchor="middle" x="401.1659" y="-110.6156" font-family="Times,serif" font-size="14.00" fill="#000000">s1249 SYMBOL</text>
<text text-anchor="middle" x="401.1659" y="-93.8156" font-family="Times,serif" font-size="14.00" fill="#000000">loop_label</text>
</a>
</g>
</g>
<!-- s1248&#45;&gt;s1249 -->
<g id="edge1" class="edge">
<title>s1248&#45;&gt;s1249</title>
<path fill="none" stroke="#000000" d="M286.4955,-100.7986C294.3207,-101.1819 303.2537,-101.6195 312.602,-102.0774"/>
<polygon fill="#000000" stroke="#000000" points="312.7167,-105.5871 322.876,-102.5807 313.0593,-98.5955 312.7167,-105.5871"/>
</g>
<!-- s1250 -->
<g id="node5" class="node">
<title>s1250</title>
<ellipse fill="none" stroke="#000000" cx="589.0273" cy="-101.4156" rx="73.3577" ry="29.3315"/>
<text text-anchor="middle" x="589.0273" y="-105.6156" font-family="Times,serif" font-size="14.00" fill="#000000">s1250 STRING</text>
<text text-anchor="middle" x="589.0273" y="-88.8156" font-family="Times,serif" font-size="14.00" fill="#000000">&quot;:&quot;</text>
</g>
<!-- s1249&#45;&gt;s1250 -->
<g id="edge2" class="edge">
<title>s1249&#45;&gt;s1250</title>
<path fill="none" stroke="#000000" d="M479.7476,-104.3242C488.3473,-104.0953 497.1234,-103.8617 505.7771,-103.6314"/>
<polygon fill="#000000" stroke="#000000" points="505.9582,-107.1279 515.8615,-103.363 505.7719,-100.1304 505.9582,-107.1279"/>
</g>
<!-- s1252 -->
<g id="node7" class="node">
<title>s1252</title>
<ellipse fill="none" stroke="#000000" cx="771.3845" cy="-67.4156" rx="73.3577" ry="29.3315"/>
<text text-anchor="middle" x="771.3845" y="-71.6156" font-family="Times,serif" font-size="14.00" fill="#000000">s1252 STRING</text>
<text text-anchor="middle" x="771.3845" y="-54.8156" font-family="Times,serif" font-size="14.00" fill="#000000">&quot;for&quot;</text>
</g>
<!-- s1250&#45;&gt;s1252 -->
<g id="edge6" class="edge">
<title>s1250&#45;&gt;s1252</title>
<path fill="none" stroke="#000000" d="M655.6365,-88.9965C668.4467,-86.6081 681.9561,-84.0893 695.0461,-81.6487"/>
<polygon fill="#000000" stroke="#000000" points="695.7668,-85.0748 704.9559,-79.8011 694.4838,-78.1933 695.7668,-85.0748"/>
</g>
<!-- s1251&#45;&gt;s1252 -->
<g id="edge7" class="edge">
<title>s1251&#45;&gt;s1252</title>
<path fill="none" stroke="#000000" d="M446.1919,-34.0372C506.6511,-40.2429 615.1234,-51.3767 690.0636,-59.0687"/>
<polygon fill="#000000" stroke="#000000" points="690.1018,-62.5909 700.407,-60.1304 690.8166,-55.6275 690.1018,-62.5909"/>
</g>
<!-- s1253 -->
<g id="node8" class="node">
<title>s1253</title>
<g id="a_node8"><a xlink:href="rust-grammar.json._pattern.dot.svg" xlink:title="s1253 SYMBOL\n_pattern">
<ellipse fill="none" stroke="#000000" cx="959.2459" cy="-67.4156" rx="78.8659" ry="29.3315"/>
<text text-anchor="middle" x="959.2459" y="-71.6156" font-family="Times,serif" font-size="14.00" fill="#000000">s1253 SYMBOL</text>
<text text-anchor="middle" x="959.2459" y="-54.8156" font-family="Times,serif" font-size="14.00" fill="#000000">_pattern</text>
</a>
</g>
</g>
<!-- s1252&#45;&gt;s1253 -->
<g id="edge8" class="edge">
<title>s1252&#45;&gt;s1253</title>
<path fill="none" stroke="#000000" d="M844.8238,-67.4156C853.0911,-67.4156 861.5811,-67.4156 870.0203,-67.4156"/>
<polygon fill="#000000" stroke="#000000" points="870.2707,-70.9157 880.2707,-67.4156 870.2706,-63.9157 870.2707,-70.9157"/>
</g>
<!-- s1254 -->
<g id="node9" class="node">
<title>s1254</title>
<ellipse fill="none" stroke="#000000" cx="1147.1073" cy="-67.4156" rx="73.3577" ry="29.3315"/>
<text text-anchor="middle" x="1147.1073" y="-71.6156" font-family="Times,serif" font-size="14.00" fill="#000000">s1254 STRING</text>
<text text-anchor="middle" x="1147.1073" y="-54.8156" font-family="Times,serif" font-size="14.00" fill="#000000">&quot;in&quot;</text>
</g>
<!-- s1253&#45;&gt;s1254 -->
<g id="edge9" class="edge">
<title>s1253&#45;&gt;s1254</title>
<path fill="none" stroke="#000000" d="M1038.0995,-67.4156C1046.523,-67.4156 1055.1126,-67.4156 1063.5878,-67.4156"/>
<polygon fill="#000000" stroke="#000000" points="1063.85,-70.9157 1073.85,-67.4156 1063.8499,-63.9157 1063.85,-70.9157"/>
</g>
<!-- s1255 -->
<g id="node10" class="node">
<title>s1255</title>
<g id="a_node10"><a xlink:href="rust-grammar.json._expression.dot.svg" xlink:title="s1255 SYMBOL\n_expression">
<ellipse fill="none" stroke="#000000" cx="1334.9686" cy="-67.4156" rx="78.8659" ry="29.3315"/>
<text text-anchor="middle" x="1334.9686" y="-71.6156" font-family="Times,serif" font-size="14.00" fill="#000000">s1255 SYMBOL</text>
<text text-anchor="middle" x="1334.9686" y="-54.8156" font-family="Times,serif" font-size="14.00" fill="#000000">_expression</text>
</a>
</g>
</g>
<!-- s1254&#45;&gt;s1255 -->
<g id="edge10" class="edge">
<title>s1254&#45;&gt;s1255</title>
<path fill="none" stroke="#000000" d="M1220.5465,-67.4156C1228.8138,-67.4156 1237.3038,-67.4156 1245.743,-67.4156"/>
<polygon fill="#000000" stroke="#000000" points="1245.9934,-70.9157 1255.9934,-67.4156 1245.9933,-63.9157 1245.9934,-70.9157"/>
</g>
<!-- s1256 -->
<g id="node11" class="node">
<title>s1256</title>
<g id="a_node11"><a xlink:href="rust-grammar.json.block.dot.svg" xlink:title="s1256 SYMBOL\nblock">
<ellipse fill="none" stroke="#000000" cx="1528.3341" cy="-67.4156" rx="78.8659" ry="29.3315"/>
<text text-anchor="middle" x="1528.3341" y="-71.6156" font-family="Times,serif" font-size="14.00" fill="#000000">s1256 SYMBOL</text>
<text text-anchor="middle" x="1528.3341" y="-54.8156" font-family="Times,serif" font-size="14.00" fill="#000000">block</text>
</a>
</g>
</g>
<!-- s1255&#45;&gt;s1256 -->
<g id="edge11" class="edge">
<title>s1255&#45;&gt;s1256</title>
<path fill="none" stroke="#000000" d="M1413.8967,-67.4156C1422.2118,-67.4156 1430.7084,-67.4156 1439.1289,-67.4156"/>
<polygon fill="#000000" stroke="#000000" points="1439.3451,-70.9157 1449.3451,-67.4156 1439.345,-63.9157 1439.3451,-70.9157"/>
</g>
</g>
</svg>
