<?xml version="1.0" encoding="UTF-8" standalone="no"?>
<!DOCTYPE svg PUBLIC "-//W3C//DTD SVG 1.1//EN"
 "http://www.w3.org/Graphics/SVG/1.1/DTD/svg11.dtd">
<!-- Generated by graphviz version 2.40.1 (20161225.0304)
 -->
<!-- Title: generic_function Pages: 1 -->
<svg width="958pt" height="221pt"
 viewBox="0.00 0.00 957.85 220.83" xmlns="http://www.w3.org/2000/svg" xmlns:xlink="http://www.w3.org/1999/xlink">
<g id="graph0" class="graph" transform="scale(1 1) rotate(0) translate(4 216.8313)">
<title>generic_function</title>
<polygon fill="#ffffff" stroke="transparent" points="-4,4 -4,-216.8313 953.8517,-216.8313 953.8517,4 -4,4"/>
<!-- s847 -->
<g id="node1" class="node">
<title>s847</title>
<polygon fill="none" stroke="#000000" points="0,-85.6156 0,-127.2156 65.0084,-127.2156 65.0084,-85.6156 0,-85.6156"/>
<text text-anchor="middle" x="32.5042" y="-110.6156" font-family="Times,serif" font-size="14.00" fill="#000000">s847</text>
<text text-anchor="middle" x="32.5042" y="-93.8156" font-family="Times,serif" font-size="14.00" fill="#000000">→ PREC</text>
</g>
<!-- s848 -->
<g id="node2" class="node">
<title>s848</title>
<polygon fill="none" stroke="#000000" points="102.0084,-85.6156 102.0084,-127.2156 158.4502,-127.2156 158.4502,-85.6156 102.0084,-85.6156"/>
<text text-anchor="middle" x="130.2293" y="-110.6156" font-family="Times,serif" font-size="14.00" fill="#000000">s848</text>
<text text-anchor="middle" x="130.2293" y="-93.8156" font-family="Times,serif" font-size="14.00" fill="#000000">→ SEQ</text>
</g>
<!-- s847&#45;&gt;s848 -->
<g id="edge9" class="edge">
<title>s847&#45;&gt;s848</title>
<path fill="none" stroke="#000000" d="M65.0452,-106.4156C73.5855,-106.4156 82.8774,-106.4156 91.6984,-106.4156"/>
<polygon fill="#000000" stroke="#000000" points="91.7642,-109.9157 101.7641,-106.4156 91.7641,-102.9157 91.7642,-109.9157"/>
</g>
<!-- s849 -->
<g id="node3" class="node">
<title>s849</title>
<polygon fill="none" stroke="#000000" points="195.4502,-69.2156 195.4502,-143.6156 297.0498,-143.6156 297.0498,-69.2156 195.4502,-69.2156"/>
<text text-anchor="middle" x="236.5" y="-110.6156" font-family="Times,serif" font-size="14.00" fill="#000000">s849</text>
<text text-anchor="middle" x="236.5" y="-93.8156" font-family="Times,serif" font-size="14.00" fill="#000000">→ CHOICE</text>
<polyline fill="none" stroke="#000000" points="277.5498,-69.2156 277.5498,-143.6156 "/>
<text text-anchor="middle" x="287.2998" y="-127.0156" font-family="Times,serif" font-size="14.00" fill="#000000"> </text>
<polyline fill="none" stroke="#000000" points="277.5498,-118.8156 297.0498,-118.8156 "/>
<text text-anchor="middle" x="287.2998" y="-102.2156" font-family="Times,serif" font-size="14.00" fill="#000000"> </text>
<polyline fill="none" stroke="#000000" points="277.5498,-94.0156 297.0498,-94.0156 "/>
<text text-anchor="middle" x="287.2998" y="-77.4156" font-family="Times,serif" font-size="14.00" fill="#000000"> </text>
</g>
<!-- s848&#45;&gt;s849 -->
<g id="edge4" class="edge">
<title>s848&#45;&gt;s849</title>
<path fill="none" stroke="#000000" d="M158.6112,-106.4156C166.6908,-106.4156 175.8186,-106.4156 185.0543,-106.4156"/>
<polygon fill="#000000" stroke="#000000" points="185.0741,-109.9157 195.0741,-106.4156 185.074,-102.9157 185.0741,-109.9157"/>
</g>
<!-- s850 -->
<g id="node4" class="node">
<title>s850</title>
<g id="a_node4"><a xlink:href="rust-grammar.json.identifier.dot.svg" xlink:title="s850 SYMBOL\nidentifier">
<ellipse fill="none" stroke="#000000" cx="510.2714" cy="-183.4156" rx="73.9667" ry="29.3315"/>
<text text-anchor="middle" x="510.2714" y="-187.6156" font-family="Times,serif" font-size="14.00" fill="#000000">s850 SYMBOL</text>
<text text-anchor="middle" x="510.2714" y="-170.8156" font-family="Times,serif" font-size="14.00" fill="#000000">identifier</text>
</a>
</g>
</g>
<!-- s849&#45;&gt;s850 -->
<g id="edge1" class="edge">
<title>s849:p0&#45;&gt;s850</title>
<path fill="none" stroke="#000000" d="M297.0498,-131.4156C348.6594,-131.4156 405.3463,-145.9728 447.2898,-159.6828"/>
<polygon fill="#000000" stroke="#000000" points="446.2198,-163.0154 456.8136,-162.8639 448.4375,-156.376 446.2198,-163.0154"/>
<text text-anchor="middle" x="363.6431" y="-151.6156" font-family="Times,serif" font-size="14.00" fill="#000000">identifier</text>
</g>
<!-- s851 -->
<g id="node5" class="node">
<title>s851</title>
<g id="a_node5"><a xlink:href="rust-grammar.json.scoped_identifier.dot.svg" xlink:title="s851 SYMBOL\nscoped_identifier">
<ellipse fill="none" stroke="#000000" cx="510.2714" cy="-106.4156" rx="80.07" ry="29.3315"/>
<text text-anchor="middle" x="510.2714" y="-110.6156" font-family="Times,serif" font-size="14.00" fill="#000000">s851 SYMBOL</text>
<text text-anchor="middle" x="510.2714" y="-93.8156" font-family="Times,serif" font-size="14.00" fill="#000000">scoped_identifier</text>
</a>
</g>
</g>
<!-- s849&#45;&gt;s851 -->
<g id="edge2" class="edge">
<title>s849:p1&#45;&gt;s851</title>
<path fill="none" stroke="#000000" d="M297.0498,-106.4156C337.4023,-106.4156 382.0504,-106.4156 420.0193,-106.4156"/>
<polygon fill="#000000" stroke="#000000" points="420.0304,-109.9157 430.0303,-106.4156 420.0303,-102.9157 420.0304,-109.9157"/>
<text text-anchor="middle" x="363.6431" y="-110.6156" font-family="Times,serif" font-size="14.00" fill="#000000">scoped_identifier</text>
</g>
<!-- s852 -->
<g id="node6" class="node">
<title>s852</title>
<g id="a_node6"><a xlink:href="rust-grammar.json.field_expression.dot.svg" xlink:title="s852 SYMBOL\nfield_expression">
<ellipse fill="none" stroke="#000000" cx="510.2714" cy="-29.4156" rx="76.9797" ry="29.3315"/>
<text text-anchor="middle" x="510.2714" y="-33.6156" font-family="Times,serif" font-size="14.00" fill="#000000">s852 SYMBOL</text>
<text text-anchor="middle" x="510.2714" y="-16.8156" font-family="Times,serif" font-size="14.00" fill="#000000">field_expression</text>
</a>
</g>
</g>
<!-- s849&#45;&gt;s852 -->
<g id="edge3" class="edge">
<title>s849:p2&#45;&gt;s852</title>
<path fill="none" stroke="#000000" d="M297.0498,-81.4156C348.306,-81.4156 404.57,-67.0572 446.4259,-53.4303"/>
<polygon fill="#000000" stroke="#000000" points="447.5518,-56.7444 455.9355,-50.2664 445.3419,-50.1024 447.5518,-56.7444"/>
<text text-anchor="middle" x="363.6431" y="-84.6156" font-family="Times,serif" font-size="14.00" fill="#000000">field_expression</text>
</g>
<!-- s853 -->
<g id="node7" class="node">
<title>s853</title>
<ellipse fill="none" stroke="#000000" cx="695.5353" cy="-106.4156" rx="68.4585" ry="29.3315"/>
<text text-anchor="middle" x="695.5353" y="-110.6156" font-family="Times,serif" font-size="14.00" fill="#000000">s853 STRING</text>
<text text-anchor="middle" x="695.5353" y="-93.8156" font-family="Times,serif" font-size="14.00" fill="#000000">&quot;::&quot;</text>
</g>
<!-- s850&#45;&gt;s853 -->
<g id="edge5" class="edge">
<title>s850&#45;&gt;s853</title>
<path fill="none" stroke="#000000" d="M561.386,-162.1712C584.7404,-152.4646 612.5342,-140.9128 636.7499,-130.8482"/>
<polygon fill="#000000" stroke="#000000" points="638.2946,-133.9965 646.1855,-126.9266 635.608,-127.5326 638.2946,-133.9965"/>
</g>
<!-- s851&#45;&gt;s853 -->
<g id="edge6" class="edge">
<title>s851&#45;&gt;s853</title>
<path fill="none" stroke="#000000" d="M590.4533,-106.4156C599.2394,-106.4156 608.1776,-106.4156 616.9441,-106.4156"/>
<polygon fill="#000000" stroke="#000000" points="617.1369,-109.9157 627.1368,-106.4156 617.1368,-102.9157 617.1369,-109.9157"/>
</g>
<!-- s852&#45;&gt;s853 -->
<g id="edge7" class="edge">
<title>s852&#45;&gt;s853</title>
<path fill="none" stroke="#000000" d="M562.3708,-51.0693C585.6134,-60.7295 613.097,-72.1524 637.0421,-82.1045"/>
<polygon fill="#000000" stroke="#000000" points="635.795,-85.3764 646.3725,-85.9824 638.4816,-78.9125 635.795,-85.3764"/>
</g>
<!-- s854 -->
<g id="node8" class="node">
<title>s854</title>
<g id="a_node8"><a xlink:href="rust-grammar.json.type_arguments.dot.svg" xlink:title="s854 SYMBOL\ntype_arguments">
<ellipse fill="none" stroke="#000000" cx="875.3079" cy="-106.4156" rx="74.5876" ry="29.3315"/>
<text text-anchor="middle" x="875.3079" y="-110.6156" font-family="Times,serif" font-size="14.00" fill="#000000">s854 SYMBOL</text>
<text text-anchor="middle" x="875.3079" y="-93.8156" font-family="Times,serif" font-size="14.00" fill="#000000">type_arguments</text>
</a>
</g>
</g>
<!-- s853&#45;&gt;s854 -->
<g id="edge8" class="edge">
<title>s853&#45;&gt;s854</title>
<path fill="none" stroke="#000000" d="M764.0125,-106.4156C772.7358,-106.4156 781.7448,-106.4156 790.6842,-106.4156"/>
<polygon fill="#000000" stroke="#000000" points="790.7285,-109.9157 800.7284,-106.4156 790.7284,-102.9157 790.7285,-109.9157"/>
</g>
</g>
</svg>
