<?xml version="1.0" encoding="UTF-8" standalone="no"?>
<!DOCTYPE svg PUBLIC "-//W3C//DTD SVG 1.1//EN"
 "http://www.w3.org/Graphics/SVG/1.1/DTD/svg11.dtd">
<!-- Generated by graphviz version 2.40.1 (20161225.0304)
 -->
<!-- Title: foreign_mod_item Pages: 1 -->
<svg width="1111pt" height="144pt"
 viewBox="0.00 0.00 1110.70 143.83" xmlns="http://www.w3.org/2000/svg" xmlns:xlink="http://www.w3.org/1999/xlink">
<g id="graph0" class="graph" transform="scale(1 1) rotate(0) translate(4 139.8313)">
<title>foreign_mod_item</title>
<polygon fill="#ffffff" stroke="transparent" points="-4,4 -4,-139.8313 1106.6964,-139.8313 1106.6964,4 -4,4"/>
<!-- s248 -->
<g id="node1" class="node">
<title>s248</title>
<polygon fill="none" stroke="#000000" points="0,-46.6156 0,-88.2156 56.4418,-88.2156 56.4418,-46.6156 0,-46.6156"/>
<text text-anchor="middle" x="28.2209" y="-71.6156" font-family="Times,serif" font-size="14.00" fill="#000000">s248</text>
<text text-anchor="middle" x="28.2209" y="-54.8156" font-family="Times,serif" font-size="14.00" fill="#000000">→ SEQ</text>
</g>
<!-- s249 -->
<g id="node2" class="node">
<title>s249</title>
<polygon fill="none" stroke="#000000" points="93.4418,-42.6156 93.4418,-92.2156 195.0414,-92.2156 195.0414,-42.6156 93.4418,-42.6156"/>
<text text-anchor="middle" x="134.4916" y="-71.6156" font-family="Times,serif" font-size="14.00" fill="#000000">s249</text>
<text text-anchor="middle" x="134.4916" y="-54.8156" font-family="Times,serif" font-size="14.00" fill="#000000">→ CHOICE</text>
<polyline fill="none" stroke="#000000" points="175.5414,-42.6156 175.5414,-92.2156 "/>
<text text-anchor="middle" x="185.2914" y="-75.6156" font-family="Times,serif" font-size="14.00" fill="#000000"> </text>
<polyline fill="none" stroke="#000000" points="175.5414,-67.4156 195.0414,-67.4156 "/>
<text text-anchor="middle" x="185.2914" y="-50.8156" font-family="Times,serif" font-size="14.00" fill="#000000"> </text>
</g>
<!-- s248&#45;&gt;s249 -->
<g id="edge3" class="edge">
<title>s248&#45;&gt;s249</title>
<path fill="none" stroke="#000000" d="M56.6028,-67.4156C64.6824,-67.4156 73.8102,-67.4156 83.0459,-67.4156"/>
<polygon fill="#000000" stroke="#000000" points="83.0657,-70.9157 93.0657,-67.4156 83.0656,-63.9157 83.0657,-70.9157"/>
</g>
<!-- s250 -->
<g id="node3" class="node">
<title>s250</title>
<g id="a_node3"><a xlink:href="rust-grammar.json.visibility_modifier.dot.svg" xlink:title="s250 SYMBOL\nvisibility_modifier">
<ellipse fill="none" stroke="#000000" cx="421.5942" cy="-106.4156" rx="85.6139" ry="29.3315"/>
<text text-anchor="middle" x="421.5942" y="-110.6156" font-family="Times,serif" font-size="14.00" fill="#000000">s250 SYMBOL</text>
<text text-anchor="middle" x="421.5942" y="-93.8156" font-family="Times,serif" font-size="14.00" fill="#000000">visibility_modifier</text>
</a>
</g>
</g>
<!-- s249&#45;&gt;s250 -->
<g id="edge1" class="edge">
<title>s249:p0&#45;&gt;s250</title>
<path fill="none" stroke="#000000" d="M195.0414,-79.4156C241.7047,-79.4156 293.3969,-85.1333 335.6079,-91.3063"/>
<polygon fill="#000000" stroke="#000000" points="335.1618,-94.7784 345.5697,-92.797 336.1978,-87.8555 335.1618,-94.7784"/>
<text text-anchor="middle" x="265.5393" y="-91.6156" font-family="Times,serif" font-size="14.00" fill="#000000">visibility_modifier</text>
</g>
<!-- s251 -->
<g id="node4" class="node">
<title>s251</title>
<ellipse fill="none" stroke="#000000" cx="421.5942" cy="-29.4156" rx="45.3054" ry="29.3315"/>
<text text-anchor="middle" x="421.5942" y="-33.6156" font-family="Times,serif" font-size="14.00" fill="#000000">s251 </text>
<text text-anchor="middle" x="421.5942" y="-16.8156" font-family="Times,serif" font-size="14.00" fill="#000000">BLANK</text>
</g>
<!-- s249&#45;&gt;s251 -->
<g id="edge2" class="edge">
<title>s249:p1&#45;&gt;s251</title>
<path fill="none" stroke="#000000" d="M195.0414,-55.4156C254.3,-55.4156 321.7121,-46.5273 367.4852,-39.1445"/>
<polygon fill="#000000" stroke="#000000" points="368.187,-42.5761 377.4865,-37.4997 367.051,-35.6689 368.187,-42.5761"/>
</g>
<!-- s252 -->
<g id="node5" class="node">
<title>s252</title>
<g id="a_node5"><a xlink:href="rust-grammar.json.extern_modifier.dot.svg" xlink:title="s252 SYMBOL\nextern_modifier">
<ellipse fill="none" stroke="#000000" cx="619.2374" cy="-67.4156" rx="75.1726" ry="29.3315"/>
<text text-anchor="middle" x="619.2374" y="-71.6156" font-family="Times,serif" font-size="14.00" fill="#000000">s252 SYMBOL</text>
<text text-anchor="middle" x="619.2374" y="-54.8156" font-family="Times,serif" font-size="14.00" fill="#000000">extern_modifier</text>
</a>
</g>
</g>
<!-- s250&#45;&gt;s252 -->
<g id="edge4" class="edge">
<title>s250&#45;&gt;s252</title>
<path fill="none" stroke="#000000" d="M496.0329,-91.727C511.1131,-88.7513 527.0014,-85.6161 542.17,-82.623"/>
<polygon fill="#000000" stroke="#000000" points="542.8852,-86.0494 552.0184,-80.6796 541.53,-79.1819 542.8852,-86.0494"/>
</g>
<!-- s251&#45;&gt;s252 -->
<g id="edge5" class="edge">
<title>s251&#45;&gt;s252</title>
<path fill="none" stroke="#000000" d="M465.4576,-37.8491C487.9454,-42.1727 516.0005,-47.5667 541.9685,-52.5595"/>
<polygon fill="#000000" stroke="#000000" points="541.3218,-55.9992 551.8028,-54.4503 542.6435,-49.1251 541.3218,-55.9992"/>
</g>
<!-- s253 -->
<g id="node6" class="node">
<title>s253</title>
<polygon fill="none" stroke="#000000" points="731.3236,-42.6156 731.3236,-92.2156 832.9232,-92.2156 832.9232,-42.6156 731.3236,-42.6156"/>
<text text-anchor="middle" x="772.3734" y="-71.6156" font-family="Times,serif" font-size="14.00" fill="#000000">s253</text>
<text text-anchor="middle" x="772.3734" y="-54.8156" font-family="Times,serif" font-size="14.00" fill="#000000">→ CHOICE</text>
<polyline fill="none" stroke="#000000" points="813.4232,-42.6156 813.4232,-92.2156 "/>
<text text-anchor="middle" x="823.1732" y="-75.6156" font-family="Times,serif" font-size="14.00" fill="#000000"> </text>
<polyline fill="none" stroke="#000000" points="813.4232,-67.4156 832.9232,-67.4156 "/>
<text text-anchor="middle" x="823.1732" y="-50.8156" font-family="Times,serif" font-size="14.00" fill="#000000"> </text>
</g>
<!-- s252&#45;&gt;s253 -->
<g id="edge8" class="edge">
<title>s252&#45;&gt;s253</title>
<path fill="none" stroke="#000000" d="M694.482,-67.4156C703.2528,-67.4156 712.12,-67.4156 720.6736,-67.4156"/>
<polygon fill="#000000" stroke="#000000" points="720.924,-70.9157 730.924,-67.4156 720.924,-63.9157 720.924,-70.9157"/>
</g>
<!-- s254 -->
<g id="node7" class="node">
<title>s254</title>
<ellipse fill="none" stroke="#000000" cx="1028.9634" cy="-106.4156" rx="68.4585" ry="29.3315"/>
<text text-anchor="middle" x="1028.9634" y="-110.6156" font-family="Times,serif" font-size="14.00" fill="#000000">s254 STRING</text>
<text text-anchor="middle" x="1028.9634" y="-93.8156" font-family="Times,serif" font-size="14.00" fill="#000000">&quot;;&quot;</text>
</g>
<!-- s253&#45;&gt;s254 -->
<g id="edge6" class="edge">
<title>s253:p0&#45;&gt;s254</title>
<path fill="none" stroke="#000000" d="M832.9232,-79.4156C874.3759,-79.4156 920.3018,-85.4133 957.2763,-91.7551"/>
<polygon fill="#000000" stroke="#000000" points="957.0009,-95.2604 967.4564,-93.5482 958.2152,-88.3665 957.0009,-95.2604"/>
<text text-anchor="middle" x="894.0768" y="-91.6156" font-family="Times,serif" font-size="14.00" fill="#000000">;</text>
</g>
<!-- s255 -->
<g id="node8" class="node">
<title>s255</title>
<g id="a_node8"><a xlink:href="rust-grammar.json.declaration_list.dot.svg" xlink:title="s255 SYMBOL\ndeclaration_list">
<ellipse fill="none" stroke="#000000" cx="1028.9634" cy="-29.4156" rx="73.9667" ry="29.3315"/>
<text text-anchor="middle" x="1028.9634" y="-33.6156" font-family="Times,serif" font-size="14.00" fill="#000000">s255 SYMBOL</text>
<text text-anchor="middle" x="1028.9634" y="-16.8156" font-family="Times,serif" font-size="14.00" fill="#000000">declaration_list</text>
</a>
</g>
</g>
<!-- s253&#45;&gt;s255 -->
<g id="edge7" class="edge">
<title>s253:p1&#45;&gt;s255</title>
<path fill="none" stroke="#000000" d="M832.9232,-55.4156C872.7787,-55.4156 916.7995,-50.0694 953.0126,-44.2254"/>
<polygon fill="#000000" stroke="#000000" points="953.7168,-47.6566 963.0096,-42.568 952.5718,-40.7508 953.7168,-47.6566"/>
<text text-anchor="middle" x="894.0768" y="-58.6156" font-family="Times,serif" font-size="14.00" fill="#000000">declaration_list</text>
</g>
</g>
</svg>
