<?xml version="1.0" encoding="UTF-8" standalone="no"?>
<!DOCTYPE svg PUBLIC "-//W3C//DTD SVG 1.1//EN"
 "http://www.w3.org/Graphics/SVG/1.1/DTD/svg11.dtd">
<!-- Generated by graphviz version 2.40.1 (20161225.0304)
 -->
<!-- Title: token_repetition_pattern Pages: 1 -->
<svg width="1530pt" height="151pt"
 viewBox="0.00 0.00 1529.77 151.22" xmlns="http://www.w3.org/2000/svg" xmlns:xlink="http://www.w3.org/1999/xlink">
<g id="graph0" class="graph" transform="scale(1 1) rotate(0) translate(4 147.2156)">
<title>token_repetition_pattern</title>
<polygon fill="#ffffff" stroke="transparent" points="-4,4 -4,-147.2156 1525.772,-147.2156 1525.772,4 -4,4"/>
<!-- s92 -->
<g id="node1" class="node">
<title>s92</title>
<polygon fill="none" stroke="#000000" points="0,-46.6156 0,-88.2156 56.4418,-88.2156 56.4418,-46.6156 0,-46.6156"/>
<text text-anchor="middle" x="28.2209" y="-71.6156" font-family="Times,serif" font-size="14.00" fill="#000000">s92</text>
<text text-anchor="middle" x="28.2209" y="-54.8156" font-family="Times,serif" font-size="14.00" fill="#000000">→ SEQ</text>
</g>
<!-- s93 -->
<g id="node2" class="node">
<title>s93</title>
<ellipse fill="none" stroke="#000000" cx="156.7209" cy="-67.4156" rx="63.059" ry="29.3315"/>
<text text-anchor="middle" x="156.7209" y="-71.6156" font-family="Times,serif" font-size="14.00" fill="#000000">s93 STRING</text>
<text text-anchor="middle" x="156.7209" y="-54.8156" font-family="Times,serif" font-size="14.00" fill="#000000">&quot;$&quot;</text>
</g>
<!-- s92&#45;&gt;s93 -->
<g id="edge1" class="edge">
<title>s92&#45;&gt;s93</title>
<path fill="none" stroke="#000000" d="M56.7392,-67.4156C64.7212,-67.4156 73.7821,-67.4156 83.112,-67.4156"/>
<polygon fill="#000000" stroke="#000000" points="83.3033,-70.9157 93.3032,-67.4156 83.3032,-63.9157 83.3033,-70.9157"/>
</g>
<!-- s94 -->
<g id="node3" class="node">
<title>s94</title>
<ellipse fill="none" stroke="#000000" cx="320.2792" cy="-67.4156" rx="63.059" ry="29.3315"/>
<text text-anchor="middle" x="320.2792" y="-71.6156" font-family="Times,serif" font-size="14.00" fill="#000000">s94 STRING</text>
<text text-anchor="middle" x="320.2792" y="-54.8156" font-family="Times,serif" font-size="14.00" fill="#000000">&quot;(&quot;</text>
</g>
<!-- s93&#45;&gt;s94 -->
<g id="edge2" class="edge">
<title>s93&#45;&gt;s94</title>
<path fill="none" stroke="#000000" d="M220.4252,-67.4156C228.9995,-67.4156 237.853,-67.4156 246.5824,-67.4156"/>
<polygon fill="#000000" stroke="#000000" points="246.7489,-70.9157 256.7488,-67.4156 246.7488,-63.9157 246.7489,-70.9157"/>
</g>
<!-- s95 -->
<g id="node4" class="node">
<title>s95</title>
<polygon fill="none" stroke="#000000" points="420.5583,-46.6156 420.5583,-88.2156 503.4419,-88.2156 503.4419,-46.6156 420.5583,-46.6156"/>
<text text-anchor="middle" x="462.0001" y="-71.6156" font-family="Times,serif" font-size="14.00" fill="#000000">s95</text>
<text text-anchor="middle" x="462.0001" y="-54.8156" font-family="Times,serif" font-size="14.00" fill="#000000">→ REPEAT</text>
</g>
<!-- s94&#45;&gt;s95 -->
<g id="edge5" class="edge">
<title>s94&#45;&gt;s95</title>
<path fill="none" stroke="#000000" d="M383.6784,-67.4156C392.4808,-67.4156 401.4386,-67.4156 410.0001,-67.4156"/>
<polygon fill="#000000" stroke="#000000" points="410.2099,-70.9157 420.2098,-67.4156 410.2098,-63.9157 410.2099,-70.9157"/>
</g>
<!-- s96 -->
<g id="node5" class="node">
<title>s96</title>
<g id="a_node5"><a xlink:href="rust-grammar.json._token_pattern.dot.svg" xlink:title="s96 SYMBOL\n_token_pattern">
<ellipse fill="none" stroke="#000000" cx="611.1358" cy="-67.4156" rx="70.8882" ry="29.3315"/>
<text text-anchor="middle" x="611.1358" y="-71.6156" font-family="Times,serif" font-size="14.00" fill="#000000">s96 SYMBOL</text>
<text text-anchor="middle" x="611.1358" y="-54.8156" font-family="Times,serif" font-size="14.00" fill="#000000">_token_pattern</text>
</a>
</g>
</g>
<!-- s95&#45;&gt;s96 -->
<g id="edge3" class="edge">
<title>s95&#45;&gt;s96</title>
<path fill="none" stroke="#000000" d="M503.5427,-61.2923C512.4342,-60.9318 522.1107,-60.7269 531.8949,-60.6774"/>
<polygon fill="#000000" stroke="#000000" points="532.1001,-64.1774 542.1017,-60.6822 532.1034,-57.1774 532.1001,-64.1774"/>
</g>
<!-- s96&#45;&gt;s95 -->
<g id="edge4" class="edge">
<title>s96&#45;&gt;s95</title>
<path fill="none" stroke="#000000" d="M542.1017,-74.1491C532.5302,-74.2064 522.8365,-74.1148 513.6559,-73.8741"/>
<polygon fill="#000000" stroke="#000000" points="513.6531,-70.3722 503.5427,-73.539 513.4213,-77.3683 513.6531,-70.3722"/>
</g>
<!-- s97 -->
<g id="node6" class="node">
<title>s97</title>
<ellipse fill="none" stroke="#000000" cx="782.1087" cy="-67.4156" rx="63.059" ry="29.3315"/>
<text text-anchor="middle" x="782.1087" y="-71.6156" font-family="Times,serif" font-size="14.00" fill="#000000">s97 STRING</text>
<text text-anchor="middle" x="782.1087" y="-54.8156" font-family="Times,serif" font-size="14.00" fill="#000000">&quot;)&quot;</text>
</g>
<!-- s96&#45;&gt;s97 -->
<g id="edge6" class="edge">
<title>s96&#45;&gt;s97</title>
<path fill="none" stroke="#000000" d="M682.1584,-67.4156C690.8629,-67.4156 699.7735,-67.4156 708.5149,-67.4156"/>
<polygon fill="#000000" stroke="#000000" points="708.6763,-70.9157 718.6763,-67.4156 708.6763,-63.9157 708.6763,-70.9157"/>
</g>
<!-- s98 -->
<g id="node7" class="node">
<title>s98</title>
<polygon fill="none" stroke="#000000" points="882.3879,-42.6156 882.3879,-92.2156 983.9875,-92.2156 983.9875,-42.6156 882.3879,-42.6156"/>
<text text-anchor="middle" x="923.4377" y="-71.6156" font-family="Times,serif" font-size="14.00" fill="#000000">s98</text>
<text text-anchor="middle" x="923.4377" y="-54.8156" font-family="Times,serif" font-size="14.00" fill="#000000">→ CHOICE</text>
<polyline fill="none" stroke="#000000" points="964.4875,-42.6156 964.4875,-92.2156 "/>
<text text-anchor="middle" x="974.2375" y="-75.6156" font-family="Times,serif" font-size="14.00" fill="#000000"> </text>
<polyline fill="none" stroke="#000000" points="964.4875,-67.4156 983.9875,-67.4156 "/>
<text text-anchor="middle" x="974.2375" y="-50.8156" font-family="Times,serif" font-size="14.00" fill="#000000"> </text>
</g>
<!-- s97&#45;&gt;s98 -->
<g id="edge9" class="edge">
<title>s97&#45;&gt;s98</title>
<path fill="none" stroke="#000000" d="M845.7419,-67.4156C854.4362,-67.4156 863.3463,-67.4156 871.9958,-67.4156"/>
<polygon fill="#000000" stroke="#000000" points="872.0014,-70.9157 882.0014,-67.4156 872.0013,-63.9157 872.0014,-70.9157"/>
</g>
<!-- s99 -->
<g id="node8" class="node">
<title>s99</title>
<ellipse fill="none" stroke="#000000" cx="1130.7412" cy="-106.4156" rx="72.1577" ry="29.3315"/>
<text text-anchor="middle" x="1130.7412" y="-110.6156" font-family="Times,serif" font-size="14.00" fill="#000000">s99 PATTERN</text>
<text text-anchor="middle" x="1130.7412" y="-93.8156" font-family="Times,serif" font-size="14.00" fill="#000000">&quot;[^+*]+&quot;</text>
</g>
<!-- s98&#45;&gt;s99 -->
<g id="edge7" class="edge">
<title>s98:p0&#45;&gt;s99</title>
<path fill="none" stroke="#000000" d="M983.9875,-79.4156C1009.1484,-79.4156 1036.3412,-83.302 1060.4026,-88.1259"/>
<polygon fill="#000000" stroke="#000000" points="1060.0027,-91.618 1070.5078,-90.242 1061.4375,-84.7666 1060.0027,-91.618"/>
<text text-anchor="middle" x="1021.325" y="-87.6156" font-family="Times,serif" font-size="14.00" fill="#000000">[^+*]+</text>
</g>
<!-- s100 -->
<g id="node9" class="node">
<title>s100</title>
<ellipse fill="none" stroke="#000000" cx="1130.7412" cy="-29.4156" rx="45.3054" ry="29.3315"/>
<text text-anchor="middle" x="1130.7412" y="-33.6156" font-family="Times,serif" font-size="14.00" fill="#000000">s100 </text>
<text text-anchor="middle" x="1130.7412" y="-16.8156" font-family="Times,serif" font-size="14.00" fill="#000000">BLANK</text>
</g>
<!-- s98&#45;&gt;s100 -->
<g id="edge8" class="edge">
<title>s98:p1&#45;&gt;s100</title>
<path fill="none" stroke="#000000" d="M983.9875,-55.4156C1015.7893,-55.4156 1050.8813,-49.4227 1078.7741,-43.1912"/>
<polygon fill="#000000" stroke="#000000" points="1079.7506,-46.5579 1088.7052,-40.8953 1078.1738,-39.7378 1079.7506,-46.5579"/>
</g>
<!-- s101 -->
<g id="node10" class="node">
<title>s101</title>
<polygon fill="none" stroke="#000000" points="1239.82,-49.6156 1239.82,-99.2156 1341.4196,-99.2156 1341.4196,-49.6156 1239.82,-49.6156"/>
<text text-anchor="middle" x="1280.8698" y="-78.6156" font-family="Times,serif" font-size="14.00" fill="#000000">s101</text>
<text text-anchor="middle" x="1280.8698" y="-61.8156" font-family="Times,serif" font-size="14.00" fill="#000000">→ CHOICE</text>
<polyline fill="none" stroke="#000000" points="1321.9196,-49.6156 1321.9196,-99.2156 "/>
<text text-anchor="middle" x="1331.6696" y="-82.6156" font-family="Times,serif" font-size="14.00" fill="#000000"> </text>
<polyline fill="none" stroke="#000000" points="1321.9196,-74.4156 1341.4196,-74.4156 "/>
<text text-anchor="middle" x="1331.6696" y="-57.8156" font-family="Times,serif" font-size="14.00" fill="#000000"> </text>
</g>
<!-- s99&#45;&gt;s101 -->
<g id="edge12" class="edge">
<title>s99&#45;&gt;s101</title>
<path fill="none" stroke="#000000" d="M1195.77,-93.4C1206.8898,-91.1744 1218.4088,-88.8688 1229.4245,-86.664"/>
<polygon fill="#000000" stroke="#000000" points="1230.255,-90.0673 1239.3736,-84.6727 1228.8811,-83.2034 1230.255,-90.0673"/>
</g>
<!-- s100&#45;&gt;s101 -->
<g id="edge13" class="edge">
<title>s100&#45;&gt;s101</title>
<path fill="none" stroke="#000000" d="M1172.7475,-41.2389C1190.2377,-46.1617 1210.8819,-51.9723 1229.9664,-57.3439"/>
<polygon fill="#000000" stroke="#000000" points="1229.205,-60.7655 1239.7792,-60.1059 1231.1016,-54.0273 1229.205,-60.7655"/>
</g>
<!-- s102 -->
<g id="node11" class="node">
<title>s102</title>
<ellipse fill="none" stroke="#000000" cx="1453.5431" cy="-113.4156" rx="68.4585" ry="29.3315"/>
<text text-anchor="middle" x="1453.5431" y="-117.6156" font-family="Times,serif" font-size="14.00" fill="#000000">s102 STRING</text>
<text text-anchor="middle" x="1453.5431" y="-100.8156" font-family="Times,serif" font-size="14.00" fill="#000000">&quot;+&quot;</text>
</g>
<!-- s101&#45;&gt;s102 -->
<g id="edge10" class="edge">
<title>s101:p0&#45;&gt;s102</title>
<path fill="none" stroke="#000000" d="M1331.6198,-99.4156C1331.6198,-123.5983 1355.586,-129.0897 1382.2671,-127.7102"/>
<polygon fill="#000000" stroke="#000000" points="1382.8988,-131.1704 1392.5815,-126.8697 1382.3302,-124.1935 1382.8988,-131.1704"/>
<text text-anchor="middle" x="1363.3669" y="-130.6156" font-family="Times,serif" font-size="14.00" fill="#000000">+</text>
</g>
<!-- s103 -->
<g id="node12" class="node">
<title>s103</title>
<ellipse fill="none" stroke="#000000" cx="1453.5431" cy="-36.4156" rx="68.4585" ry="29.3315"/>
<text text-anchor="middle" x="1453.5431" y="-40.6156" font-family="Times,serif" font-size="14.00" fill="#000000">s103 STRING</text>
<text text-anchor="middle" x="1453.5431" y="-23.8156" font-family="Times,serif" font-size="14.00" fill="#000000">&quot;*&quot;</text>
</g>
<!-- s101&#45;&gt;s103 -->
<g id="edge11" class="edge">
<title>s101:p1&#45;&gt;s103</title>
<path fill="none" stroke="#000000" d="M1341.4196,-62.4156C1357.0738,-62.4156 1373.647,-59.9809 1389.1108,-56.6015"/>
<polygon fill="#000000" stroke="#000000" points="1390.1552,-59.9516 1399.0917,-54.2604 1388.5566,-53.1365 1390.1552,-59.9516"/>
<text text-anchor="middle" x="1363.3669" y="-64.6156" font-family="Times,serif" font-size="14.00" fill="#000000">*</text>
</g>
</g>
</svg>
