<?xml version="1.0" encoding="UTF-8" standalone="no"?>
<!DOCTYPE svg PUBLIC "-//W3C//DTD SVG 1.1//EN"
 "http://www.w3.org/Graphics/SVG/1.1/DTD/svg11.dtd">
<!-- Generated by graphviz version 2.40.1 (20161225.0304)
 -->
<!-- Title: scoped_type_identifier_in_expression_position Pages: 1 -->
<svg width="1444pt" height="176pt"
 viewBox="0.00 0.00 1444.31 175.83" xmlns="http://www.w3.org/2000/svg" xmlns:xlink="http://www.w3.org/1999/xlink">
<g id="graph0" class="graph" transform="scale(1 1) rotate(0) translate(4 171.8313)">
<title>scoped_type_identifier_in_expression_position</title>
<polygon fill="#ffffff" stroke="transparent" points="-4,4 -4,-171.8313 1440.3081,-171.8313 1440.3081,4 -4,4"/>
<!-- s991 -->
<g id="node1" class="node">
<title>s991</title>
<polygon fill="none" stroke="#000000" points="0,-27.6156 0,-69.2156 65.0084,-69.2156 65.0084,-27.6156 0,-27.6156"/>
<text text-anchor="middle" x="32.5042" y="-52.6156" font-family="Times,serif" font-size="14.00" fill="#000000">s991</text>
<text text-anchor="middle" x="32.5042" y="-35.8156" font-family="Times,serif" font-size="14.00" fill="#000000">→ PREC</text>
</g>
<!-- s992 -->
<g id="node2" class="node">
<title>s992</title>
<polygon fill="none" stroke="#000000" points="102.0084,-27.6156 102.0084,-69.2156 158.4502,-69.2156 158.4502,-27.6156 102.0084,-27.6156"/>
<text text-anchor="middle" x="130.2293" y="-52.6156" font-family="Times,serif" font-size="14.00" fill="#000000">s992</text>
<text text-anchor="middle" x="130.2293" y="-35.8156" font-family="Times,serif" font-size="14.00" fill="#000000">→ SEQ</text>
</g>
<!-- s991&#45;&gt;s992 -->
<g id="edge11" class="edge">
<title>s991&#45;&gt;s992</title>
<path fill="none" stroke="#000000" d="M65.0452,-48.4156C73.5855,-48.4156 82.8774,-48.4156 91.6984,-48.4156"/>
<polygon fill="#000000" stroke="#000000" points="91.7642,-51.9157 101.7641,-48.4156 91.7641,-44.9157 91.7642,-51.9157"/>
</g>
<!-- s993 -->
<g id="node3" class="node">
<title>s993</title>
<polygon fill="none" stroke="#000000" points="195.4502,-23.6156 195.4502,-73.2156 297.0498,-73.2156 297.0498,-23.6156 195.4502,-23.6156"/>
<text text-anchor="middle" x="236.5" y="-52.6156" font-family="Times,serif" font-size="14.00" fill="#000000">s993</text>
<text text-anchor="middle" x="236.5" y="-35.8156" font-family="Times,serif" font-size="14.00" fill="#000000">→ CHOICE</text>
<polyline fill="none" stroke="#000000" points="277.5498,-23.6156 277.5498,-73.2156 "/>
<text text-anchor="middle" x="287.2998" y="-56.6156" font-family="Times,serif" font-size="14.00" fill="#000000"> </text>
<polyline fill="none" stroke="#000000" points="277.5498,-48.4156 297.0498,-48.4156 "/>
<text text-anchor="middle" x="287.2998" y="-31.8156" font-family="Times,serif" font-size="14.00" fill="#000000"> </text>
</g>
<!-- s992&#45;&gt;s993 -->
<g id="edge6" class="edge">
<title>s992&#45;&gt;s993</title>
<path fill="none" stroke="#000000" d="M158.6112,-48.4156C166.6908,-48.4156 175.8186,-48.4156 185.0543,-48.4156"/>
<polygon fill="#000000" stroke="#000000" points="185.0741,-51.9157 195.0741,-48.4156 185.074,-44.9157 185.0741,-51.9157"/>
</g>
<!-- s994 -->
<g id="node4" class="node">
<title>s994</title>
<polygon fill="none" stroke="#000000" points="334.0498,-70.6156 334.0498,-120.2156 435.6494,-120.2156 435.6494,-70.6156 334.0498,-70.6156"/>
<text text-anchor="middle" x="375.0996" y="-99.6156" font-family="Times,serif" font-size="14.00" fill="#000000">s994</text>
<text text-anchor="middle" x="375.0996" y="-82.8156" font-family="Times,serif" font-size="14.00" fill="#000000">→ CHOICE</text>
<polyline fill="none" stroke="#000000" points="416.1494,-70.6156 416.1494,-120.2156 "/>
<text text-anchor="middle" x="425.8994" y="-103.6156" font-family="Times,serif" font-size="14.00" fill="#000000"> </text>
<polyline fill="none" stroke="#000000" points="416.1494,-95.4156 435.6494,-95.4156 "/>
<text text-anchor="middle" x="425.8994" y="-78.8156" font-family="Times,serif" font-size="14.00" fill="#000000"> </text>
</g>
<!-- s993&#45;&gt;s994 -->
<g id="edge4" class="edge">
<title>s993:p0&#45;&gt;s994</title>
<path fill="none" stroke="#000000" d="M297.0498,-60.4156C308.5993,-60.4156 320.4347,-63.0612 331.5259,-66.8977"/>
<polygon fill="#000000" stroke="#000000" points="330.4646,-70.2389 341.0551,-70.5391 332.9633,-63.7 330.4646,-70.2389"/>
</g>
<!-- s998 -->
<g id="node8" class="node">
<title>s998</title>
<ellipse fill="none" stroke="#000000" cx="499.052" cy="-29.4156" rx="45.3054" ry="29.3315"/>
<text text-anchor="middle" x="499.052" y="-33.6156" font-family="Times,serif" font-size="14.00" fill="#000000">s998 </text>
<text text-anchor="middle" x="499.052" y="-16.8156" font-family="Times,serif" font-size="14.00" fill="#000000">BLANK</text>
</g>
<!-- s993&#45;&gt;s998 -->
<g id="edge5" class="edge">
<title>s993:p1&#45;&gt;s998</title>
<path fill="none" stroke="#000000" d="M297.0498,-36.4156C346.6009,-36.4156 402.9482,-34.2859 443.518,-32.3758"/>
<polygon fill="#000000" stroke="#000000" points="443.9191,-35.8607 453.7391,-31.8836 443.5823,-28.8688 443.9191,-35.8607"/>
</g>
<!-- s995 -->
<g id="node5" class="node">
<title>s995</title>
<g id="a_node5"><a xlink:href="rust-grammar.json._path.dot.svg" xlink:title="s995 SYMBOL\n_path">
<ellipse fill="none" stroke="#000000" cx="725.3966" cy="-138.4156" rx="73.9667" ry="29.3315"/>
<text text-anchor="middle" x="725.3966" y="-142.6156" font-family="Times,serif" font-size="14.00" fill="#000000">s995 SYMBOL</text>
<text text-anchor="middle" x="725.3966" y="-125.8156" font-family="Times,serif" font-size="14.00" fill="#000000">_path</text>
</a>
</g>
</g>
<!-- s994&#45;&gt;s995 -->
<g id="edge1" class="edge">
<title>s994:p0&#45;&gt;s995</title>
<path fill="none" stroke="#000000" d="M435.6494,-107.4156C507.5948,-107.4156 589.0215,-116.9821 647.1935,-125.4864"/>
<polygon fill="#000000" stroke="#000000" points="647.0074,-128.9971 657.4131,-127.0045 648.036,-122.0731 647.0074,-128.9971"/>
<text text-anchor="middle" x="499.052" y="-116.6156" font-family="Times,serif" font-size="14.00" fill="#000000">_path</text>
</g>
<!-- s996 -->
<g id="node6" class="node">
<title>s996</title>
<polygon fill="none" stroke="#000000" points="562.4546,-62.6156 562.4546,-104.2156 633.6636,-104.2156 633.6636,-62.6156 562.4546,-62.6156"/>
<text text-anchor="middle" x="598.0591" y="-87.6156" font-family="Times,serif" font-size="14.00" fill="#000000">s996</text>
<text text-anchor="middle" x="598.0591" y="-70.8156" font-family="Times,serif" font-size="14.00" fill="#000000">→ ALIAS</text>
</g>
<!-- s994&#45;&gt;s996 -->
<g id="edge3" class="edge">
<title>s994:p1&#45;&gt;s996</title>
<path fill="none" stroke="#000000" d="M435.6494,-83.4156C474.9582,-83.4156 519.6187,-83.4156 552.1445,-83.4156"/>
<polygon fill="#000000" stroke="#000000" points="552.2562,-86.9157 562.2562,-83.4156 552.2562,-79.9157 552.2562,-86.9157"/>
<text text-anchor="middle" x="499.052" y="-88.6156" font-family="Times,serif" font-size="14.00" fill="#000000">generic_type</text>
</g>
<!-- s999 -->
<g id="node9" class="node">
<title>s999</title>
<ellipse fill="none" stroke="#000000" cx="1173.7137" cy="-83.4156" rx="68.4585" ry="29.3315"/>
<text text-anchor="middle" x="1173.7137" y="-87.6156" font-family="Times,serif" font-size="14.00" fill="#000000">s999 STRING</text>
<text text-anchor="middle" x="1173.7137" y="-70.8156" font-family="Times,serif" font-size="14.00" fill="#000000">&quot;::&quot;</text>
</g>
<!-- s995&#45;&gt;s999 -->
<g id="edge7" class="edge">
<title>s995&#45;&gt;s999</title>
<path fill="none" stroke="#000000" d="M799.1233,-141.0291C869.1321,-142.0423 976.977,-139.7773 1068.4849,-121.4156 1084.1069,-118.281 1100.522,-113.2534 1115.6178,-107.868"/>
<polygon fill="#000000" stroke="#000000" points="1117.151,-111.0332 1125.3258,-104.2936 1114.7324,-104.4644 1117.151,-111.0332"/>
</g>
<!-- s997 -->
<g id="node7" class="node">
<title>s997</title>
<g id="a_node7"><a xlink:href="rust-grammar.json.generic_type_with_turbofish.dot.svg" xlink:title="s997 SYMBOL\ngeneric_type_with_turbofish">
<ellipse fill="none" stroke="#000000" cx="942.8073" cy="-83.4156" rx="125.8555" ry="29.3315"/>
<text text-anchor="middle" x="942.8073" y="-87.6156" font-family="Times,serif" font-size="14.00" fill="#000000">s997 SYMBOL</text>
<text text-anchor="middle" x="942.8073" y="-70.8156" font-family="Times,serif" font-size="14.00" fill="#000000">generic_type_with_turbofish</text>
</a>
</g>
</g>
<!-- s996&#45;&gt;s997 -->
<g id="edge2" class="edge">
<title>s996&#45;&gt;s997</title>
<path fill="none" stroke="#000000" d="M633.9776,-83.4156C674.8185,-83.4156 743.9487,-83.4156 806.4615,-83.4156"/>
<polygon fill="#000000" stroke="#000000" points="806.8342,-86.9157 816.8342,-83.4156 806.8342,-79.9157 806.8342,-86.9157"/>
</g>
<!-- s997&#45;&gt;s999 -->
<g id="edge8" class="edge">
<title>s997&#45;&gt;s999</title>
<path fill="none" stroke="#000000" d="M1068.7332,-83.4156C1077.6614,-83.4156 1086.5054,-83.4156 1095.0492,-83.4156"/>
<polygon fill="#000000" stroke="#000000" points="1095.3075,-86.9157 1105.3074,-83.4156 1095.3074,-79.9157 1095.3075,-86.9157"/>
</g>
<!-- s998&#45;&gt;s999 -->
<g id="edge9" class="edge">
<title>s998&#45;&gt;s999</title>
<path fill="none" stroke="#000000" d="M544.2356,-25.8669C641.2627,-19.2944 876.3334,-8.9953 1068.4849,-45.4156 1084.2178,-48.3977 1100.7307,-53.3999 1115.8894,-58.812"/>
<polygon fill="#000000" stroke="#000000" points="1115.0403,-62.2294 1125.6336,-62.4106 1117.4654,-55.6629 1115.0403,-62.2294"/>
</g>
<!-- s1000 -->
<g id="node10" class="node">
<title>s1000</title>
<g id="a_node10"><a xlink:href="rust-grammar.json._type_identifier.dot.svg" xlink:title="s1000 SYMBOL\n_type_identifier">
<ellipse fill="none" stroke="#000000" cx="1357.6254" cy="-83.4156" rx="78.8659" ry="29.3315"/>
<text text-anchor="middle" x="1357.6254" y="-87.6156" font-family="Times,serif" font-size="14.00" fill="#000000">s1000 SYMBOL</text>
<text text-anchor="middle" x="1357.6254" y="-70.8156" font-family="Times,serif" font-size="14.00" fill="#000000">_type_identifier</text>
</a>
</g>
</g>
<!-- s999&#45;&gt;s1000 -->
<g id="edge10" class="edge">
<title>s999&#45;&gt;s1000</title>
<path fill="none" stroke="#000000" d="M1242.1956,-83.4156C1250.8772,-83.4156 1259.8579,-83.4156 1268.7991,-83.4156"/>
<polygon fill="#000000" stroke="#000000" points="1268.8592,-86.9157 1278.8591,-83.4156 1268.8591,-79.9157 1268.8592,-86.9157"/>
</g>
</g>
</svg>
