<?xml version="1.0" encoding="UTF-8" standalone="no"?>
<!DOCTYPE svg PUBLIC "-//W3C//DTD SVG 1.1//EN"
 "http://www.w3.org/Graphics/SVG/1.1/DTD/svg11.dtd">
<!-- Generated by graphviz version 2.40.1 (20161225.0304)
 -->
<!-- Title: else_tail Pages: 1 -->
<svg width="678pt" height="221pt"
 viewBox="0.00 0.00 677.80 220.83" xmlns="http://www.w3.org/2000/svg" xmlns:xlink="http://www.w3.org/1999/xlink">
<g id="graph0" class="graph" transform="scale(1 1) rotate(0) translate(4 216.8313)">
<title>else_tail</title>
<polygon fill="#ffffff" stroke="transparent" points="-4,4 -4,-216.8313 673.7963,-216.8313 673.7963,4 -4,4"/>
<!-- s1166 -->
<g id="node1" class="node">
<title>s1166</title>
<polygon fill="none" stroke="#000000" points="0,-85.6156 0,-127.2156 56.4418,-127.2156 56.4418,-85.6156 0,-85.6156"/>
<text text-anchor="middle" x="28.2209" y="-110.6156" font-family="Times,serif" font-size="14.00" fill="#000000">s1166</text>
<text text-anchor="middle" x="28.2209" y="-93.8156" font-family="Times,serif" font-size="14.00" fill="#000000">→ SEQ</text>
</g>
<!-- s1167 -->
<g id="node2" class="node">
<title>s1167</title>
<ellipse fill="none" stroke="#000000" cx="166.6204" cy="-106.4156" rx="73.3577" ry="29.3315"/>
<text text-anchor="middle" x="166.6204" y="-110.6156" font-family="Times,serif" font-size="14.00" fill="#000000">s1167 STRING</text>
<text text-anchor="middle" x="166.6204" y="-93.8156" font-family="Times,serif" font-size="14.00" fill="#000000">&quot;else&quot;</text>
</g>
<!-- s1166&#45;&gt;s1167 -->
<g id="edge1" class="edge">
<title>s1166&#45;&gt;s1167</title>
<path fill="none" stroke="#000000" d="M56.5621,-106.4156C64.6032,-106.4156 73.7912,-106.4156 83.3533,-106.4156"/>
<polygon fill="#000000" stroke="#000000" points="83.4211,-109.9157 93.421,-106.4156 83.421,-102.9157 83.4211,-109.9157"/>
</g>
<!-- s1168 -->
<g id="node3" class="node">
<title>s1168</title>
<polygon fill="none" stroke="#000000" points="276.799,-69.2156 276.799,-143.6156 378.3986,-143.6156 378.3986,-69.2156 276.799,-69.2156"/>
<text text-anchor="middle" x="317.8488" y="-110.6156" font-family="Times,serif" font-size="14.00" fill="#000000">s1168</text>
<text text-anchor="middle" x="317.8488" y="-93.8156" font-family="Times,serif" font-size="14.00" fill="#000000">→ CHOICE</text>
<polyline fill="none" stroke="#000000" points="358.8986,-69.2156 358.8986,-143.6156 "/>
<text text-anchor="middle" x="368.6486" y="-127.0156" font-family="Times,serif" font-size="14.00" fill="#000000"> </text>
<polyline fill="none" stroke="#000000" points="358.8986,-118.8156 378.3986,-118.8156 "/>
<text text-anchor="middle" x="368.6486" y="-102.2156" font-family="Times,serif" font-size="14.00" fill="#000000"> </text>
<polyline fill="none" stroke="#000000" points="358.8986,-94.0156 378.3986,-94.0156 "/>
<text text-anchor="middle" x="368.6486" y="-77.4156" font-family="Times,serif" font-size="14.00" fill="#000000"> </text>
</g>
<!-- s1167&#45;&gt;s1168 -->
<g id="edge5" class="edge">
<title>s1167&#45;&gt;s1168</title>
<path fill="none" stroke="#000000" d="M240.0435,-106.4156C248.7685,-106.4156 257.6051,-106.4156 266.139,-106.4156"/>
<polygon fill="#000000" stroke="#000000" points="266.3705,-109.9157 276.3705,-106.4156 266.3704,-102.9157 266.3705,-109.9157"/>
</g>
<!-- s1169 -->
<g id="node4" class="node">
<title>s1169</title>
<g id="a_node4"><a xlink:href="rust-grammar.json.block.dot.svg" xlink:title="s1169 SYMBOL\nblock">
<ellipse fill="none" stroke="#000000" cx="590.3058" cy="-183.4156" rx="78.8659" ry="29.3315"/>
<text text-anchor="middle" x="590.3058" y="-187.6156" font-family="Times,serif" font-size="14.00" fill="#000000">s1169 SYMBOL</text>
<text text-anchor="middle" x="590.3058" y="-170.8156" font-family="Times,serif" font-size="14.00" fill="#000000">block</text>
</a>
</g>
</g>
<!-- s1168&#45;&gt;s1169 -->
<g id="edge2" class="edge">
<title>s1168:p0&#45;&gt;s1169</title>
<path fill="none" stroke="#000000" d="M378.3986,-131.4156C428.8986,-131.4156 484.2682,-145.5171 525.741,-159.0334"/>
<polygon fill="#000000" stroke="#000000" points="524.8442,-162.4237 535.4378,-162.2653 527.0576,-155.7828 524.8442,-162.4237"/>
<text text-anchor="middle" x="444.6069" y="-151.6156" font-family="Times,serif" font-size="14.00" fill="#000000">block</text>
</g>
<!-- s1170 -->
<g id="node5" class="node">
<title>s1170</title>
<g id="a_node5"><a xlink:href="rust-grammar.json.if_expression.dot.svg" xlink:title="s1170 SYMBOL\nif_expression">
<ellipse fill="none" stroke="#000000" cx="590.3058" cy="-106.4156" rx="78.8659" ry="29.3315"/>
<text text-anchor="middle" x="590.3058" y="-110.6156" font-family="Times,serif" font-size="14.00" fill="#000000">s1170 SYMBOL</text>
<text text-anchor="middle" x="590.3058" y="-93.8156" font-family="Times,serif" font-size="14.00" fill="#000000">if_expression</text>
</a>
</g>
</g>
<!-- s1168&#45;&gt;s1170 -->
<g id="edge3" class="edge">
<title>s1168:p1&#45;&gt;s1170</title>
<path fill="none" stroke="#000000" d="M378.3986,-106.4156C418.668,-106.4156 463.2419,-106.4156 501.0772,-106.4156"/>
<polygon fill="#000000" stroke="#000000" points="501.5609,-109.9157 511.5609,-106.4156 501.5608,-102.9157 501.5609,-109.9157"/>
<text text-anchor="middle" x="444.6069" y="-110.6156" font-family="Times,serif" font-size="14.00" fill="#000000">if_expression</text>
</g>
<!-- s1171 -->
<g id="node6" class="node">
<title>s1171</title>
<g id="a_node6"><a xlink:href="rust-grammar.json.if_let_expression.dot.svg" xlink:title="s1171 SYMBOL\nif_let_expression">
<ellipse fill="none" stroke="#000000" cx="590.3058" cy="-29.4156" rx="79.4811" ry="29.3315"/>
<text text-anchor="middle" x="590.3058" y="-33.6156" font-family="Times,serif" font-size="14.00" fill="#000000">s1171 SYMBOL</text>
<text text-anchor="middle" x="590.3058" y="-16.8156" font-family="Times,serif" font-size="14.00" fill="#000000">if_let_expression</text>
</a>
</g>
</g>
<!-- s1168&#45;&gt;s1171 -->
<g id="edge4" class="edge">
<title>s1168:p2&#45;&gt;s1171</title>
<path fill="none" stroke="#000000" d="M378.3986,-81.4156C428.7233,-81.4156 483.8838,-67.4119 525.3085,-53.9387"/>
<polygon fill="#000000" stroke="#000000" points="526.6128,-57.1935 534.997,-50.7161 524.4034,-50.5513 526.6128,-57.1935"/>
<text text-anchor="middle" x="444.6069" y="-84.6156" font-family="Times,serif" font-size="14.00" fill="#000000">if_let_expression</text>
</g>
</g>
</svg>
