<?xml version="1.0" encoding="UTF-8" standalone="no"?>
<!DOCTYPE svg PUBLIC "-//W3C//DTD SVG 1.1//EN"
 "http://www.w3.org/Graphics/SVG/1.1/DTD/svg11.dtd">
<!-- Generated by graphviz version 2.40.1 (20161225.0304)
 -->
<!-- Title: let_declaration Pages: 1 -->
<svg width="2395pt" height="146pt"
 viewBox="0.00 0.00 2394.72 145.83" xmlns="http://www.w3.org/2000/svg" xmlns:xlink="http://www.w3.org/1999/xlink">
<g id="graph0" class="graph" transform="scale(1 1) rotate(0) translate(4 141.8313)">
<title>let_declaration</title>
<polygon fill="#ffffff" stroke="transparent" points="-4,4 -4,-141.8313 2390.7169,-141.8313 2390.7169,4 -4,4"/>
<!-- s641 -->
<g id="node1" class="node">
<title>s641</title>
<polygon fill="none" stroke="#000000" points="0,-46.6156 0,-88.2156 56.4418,-88.2156 56.4418,-46.6156 0,-46.6156"/>
<text text-anchor="middle" x="28.2209" y="-71.6156" font-family="Times,serif" font-size="14.00" fill="#000000">s641</text>
<text text-anchor="middle" x="28.2209" y="-54.8156" font-family="Times,serif" font-size="14.00" fill="#000000">→ SEQ</text>
</g>
<!-- s642 -->
<g id="node2" class="node">
<title>s642</title>
<ellipse fill="none" stroke="#000000" cx="161.6707" cy="-67.4156" rx="68.4585" ry="29.3315"/>
<text text-anchor="middle" x="161.6707" y="-71.6156" font-family="Times,serif" font-size="14.00" fill="#000000">s642 STRING</text>
<text text-anchor="middle" x="161.6707" y="-54.8156" font-family="Times,serif" font-size="14.00" fill="#000000">&quot;let&quot;</text>
</g>
<!-- s641&#45;&gt;s642 -->
<g id="edge1" class="edge">
<title>s641&#45;&gt;s642</title>
<path fill="none" stroke="#000000" d="M56.5222,-67.4156C64.5856,-67.4156 73.7846,-67.4156 83.3101,-67.4156"/>
<polygon fill="#000000" stroke="#000000" points="83.321,-70.9157 93.321,-67.4156 83.3209,-63.9157 83.321,-70.9157"/>
</g>
<!-- s643 -->
<g id="node3" class="node">
<title>s643</title>
<polygon fill="none" stroke="#000000" points="266.8995,-42.6156 266.8995,-92.2156 368.4991,-92.2156 368.4991,-42.6156 266.8995,-42.6156"/>
<text text-anchor="middle" x="307.9493" y="-71.6156" font-family="Times,serif" font-size="14.00" fill="#000000">s643</text>
<text text-anchor="middle" x="307.9493" y="-54.8156" font-family="Times,serif" font-size="14.00" fill="#000000">→ CHOICE</text>
<polyline fill="none" stroke="#000000" points="348.9991,-42.6156 348.9991,-92.2156 "/>
<text text-anchor="middle" x="358.7491" y="-75.6156" font-family="Times,serif" font-size="14.00" fill="#000000"> </text>
<polyline fill="none" stroke="#000000" points="348.9991,-67.4156 368.4991,-67.4156 "/>
<text text-anchor="middle" x="358.7491" y="-50.8156" font-family="Times,serif" font-size="14.00" fill="#000000"> </text>
</g>
<!-- s642&#45;&gt;s643 -->
<g id="edge4" class="edge">
<title>s642&#45;&gt;s643</title>
<path fill="none" stroke="#000000" d="M230.1071,-67.4156C238.9349,-67.4156 247.9288,-67.4156 256.6274,-67.4156"/>
<polygon fill="#000000" stroke="#000000" points="256.6756,-70.9157 266.6755,-67.4156 256.6755,-63.9157 256.6756,-70.9157"/>
</g>
<!-- s644 -->
<g id="node4" class="node">
<title>s644</title>
<g id="a_node4"><a xlink:href="rust-grammar.json.mutable_specifier.dot.svg" xlink:title="s644 SYMBOL\nmutable_specifier">
<ellipse fill="none" stroke="#000000" cx="587.0217" cy="-106.4156" rx="82.4621" ry="29.3315"/>
<text text-anchor="middle" x="587.0217" y="-110.6156" font-family="Times,serif" font-size="14.00" fill="#000000">s644 SYMBOL</text>
<text text-anchor="middle" x="587.0217" y="-93.8156" font-family="Times,serif" font-size="14.00" fill="#000000">mutable_specifier</text>
</a>
</g>
</g>
<!-- s643&#45;&gt;s644 -->
<g id="edge2" class="edge">
<title>s643:p0&#45;&gt;s644</title>
<path fill="none" stroke="#000000" d="M368.4991,-79.4156C413.4301,-79.4156 463.1682,-85.1074 503.8274,-91.2644"/>
<polygon fill="#000000" stroke="#000000" points="503.542,-94.7619 513.9604,-92.8365 504.6152,-87.8447 503.542,-94.7619"/>
<text text-anchor="middle" x="436.645" y="-91.6156" font-family="Times,serif" font-size="14.00" fill="#000000">mutable_specifier</text>
</g>
<!-- s645 -->
<g id="node5" class="node">
<title>s645</title>
<ellipse fill="none" stroke="#000000" cx="587.0217" cy="-29.4156" rx="45.3054" ry="29.3315"/>
<text text-anchor="middle" x="587.0217" y="-33.6156" font-family="Times,serif" font-size="14.00" fill="#000000">s645 </text>
<text text-anchor="middle" x="587.0217" y="-16.8156" font-family="Times,serif" font-size="14.00" fill="#000000">BLANK</text>
</g>
<!-- s643&#45;&gt;s645 -->
<g id="edge3" class="edge">
<title>s643:p1&#45;&gt;s645</title>
<path fill="none" stroke="#000000" d="M368.4991,-55.4156C425.0333,-55.4156 489.2219,-46.7288 533.3275,-39.3975"/>
<polygon fill="#000000" stroke="#000000" points="533.9817,-42.8366 543.2556,-37.7137 532.8111,-35.9352 533.9817,-42.8366"/>
</g>
<!-- s646 -->
<g id="node6" class="node">
<title>s646</title>
<g id="a_node6"><a xlink:href="rust-grammar.json._pattern.dot.svg" xlink:title="s646 SYMBOL\n_pattern">
<ellipse fill="none" stroke="#000000" cx="779.9854" cy="-67.4156" rx="73.9667" ry="29.3315"/>
<text text-anchor="middle" x="779.9854" y="-71.6156" font-family="Times,serif" font-size="14.00" fill="#000000">s646 SYMBOL</text>
<text text-anchor="middle" x="779.9854" y="-54.8156" font-family="Times,serif" font-size="14.00" fill="#000000">_pattern</text>
</a>
</g>
</g>
<!-- s644&#45;&gt;s646 -->
<g id="edge5" class="edge">
<title>s644&#45;&gt;s646</title>
<path fill="none" stroke="#000000" d="M658.8742,-91.8935C673.5877,-88.9197 689.1201,-85.7805 703.9739,-82.7784"/>
<polygon fill="#000000" stroke="#000000" points="705.0221,-86.1374 714.1306,-80.7256 703.6354,-79.2761 705.0221,-86.1374"/>
</g>
<!-- s645&#45;&gt;s646 -->
<g id="edge6" class="edge">
<title>s645&#45;&gt;s646</title>
<path fill="none" stroke="#000000" d="M630.8081,-38.0384C652.3089,-42.2725 678.8461,-47.4985 703.5491,-52.3632"/>
<polygon fill="#000000" stroke="#000000" points="703.1494,-55.8516 713.6373,-54.3498 704.502,-48.9835 703.1494,-55.8516"/>
</g>
<!-- s647 -->
<g id="node7" class="node">
<title>s647</title>
<polygon fill="none" stroke="#000000" points="890.7184,-42.6156 890.7184,-92.2156 992.318,-92.2156 992.318,-42.6156 890.7184,-42.6156"/>
<text text-anchor="middle" x="931.7682" y="-71.6156" font-family="Times,serif" font-size="14.00" fill="#000000">s647</text>
<text text-anchor="middle" x="931.7682" y="-54.8156" font-family="Times,serif" font-size="14.00" fill="#000000">→ CHOICE</text>
<polyline fill="none" stroke="#000000" points="972.818,-42.6156 972.818,-92.2156 "/>
<text text-anchor="middle" x="982.568" y="-75.6156" font-family="Times,serif" font-size="14.00" fill="#000000"> </text>
<polyline fill="none" stroke="#000000" points="972.818,-67.4156 992.318,-67.4156 "/>
<text text-anchor="middle" x="982.568" y="-50.8156" font-family="Times,serif" font-size="14.00" fill="#000000"> </text>
</g>
<!-- s646&#45;&gt;s647 -->
<g id="edge11" class="edge">
<title>s646&#45;&gt;s647</title>
<path fill="none" stroke="#000000" d="M854.133,-67.4156C862.8597,-67.4156 871.69,-67.4156 880.213,-67.4156"/>
<polygon fill="#000000" stroke="#000000" points="880.429,-70.9157 890.429,-67.4156 880.429,-63.9157 880.429,-70.9157"/>
</g>
<!-- s648 -->
<g id="node8" class="node">
<title>s648</title>
<polygon fill="none" stroke="#000000" points="1029.318,-84.6156 1029.318,-126.2156 1085.7598,-126.2156 1085.7598,-84.6156 1029.318,-84.6156"/>
<text text-anchor="middle" x="1057.5389" y="-109.6156" font-family="Times,serif" font-size="14.00" fill="#000000">s648</text>
<text text-anchor="middle" x="1057.5389" y="-92.8156" font-family="Times,serif" font-size="14.00" fill="#000000">→ SEQ</text>
</g>
<!-- s647&#45;&gt;s648 -->
<g id="edge9" class="edge">
<title>s647:p0&#45;&gt;s648</title>
<path fill="none" stroke="#000000" d="M992.318,-79.4156C1001.6278,-79.4156 1011.1878,-81.7298 1020.0199,-84.9773"/>
<polygon fill="#000000" stroke="#000000" points="1018.6932,-88.2161 1029.2719,-88.8022 1021.3677,-81.7471 1018.6932,-88.2161"/>
</g>
<!-- s651 -->
<g id="node11" class="node">
<title>s651</title>
<ellipse fill="none" stroke="#000000" cx="1149.1624" cy="-51.4156" rx="45.3054" ry="29.3315"/>
<text text-anchor="middle" x="1149.1624" y="-55.6156" font-family="Times,serif" font-size="14.00" fill="#000000">s651 </text>
<text text-anchor="middle" x="1149.1624" y="-38.8156" font-family="Times,serif" font-size="14.00" fill="#000000">BLANK</text>
</g>
<!-- s647&#45;&gt;s651 -->
<g id="edge10" class="edge">
<title>s647:p1&#45;&gt;s651</title>
<path fill="none" stroke="#000000" d="M992.318,-55.4156C1025.8212,-55.4156 1063.3368,-54.4923 1093.2753,-53.5328"/>
<polygon fill="#000000" stroke="#000000" points="1093.6512,-57.0224 1103.5299,-53.1934 1093.4195,-50.0262 1093.6512,-57.0224"/>
</g>
<!-- s649 -->
<g id="node9" class="node">
<title>s649</title>
<ellipse fill="none" stroke="#000000" cx="1280.7939" cy="-106.4156" rx="68.4585" ry="29.3315"/>
<text text-anchor="middle" x="1280.7939" y="-110.6156" font-family="Times,serif" font-size="14.00" fill="#000000">s649 STRING</text>
<text text-anchor="middle" x="1280.7939" y="-93.8156" font-family="Times,serif" font-size="14.00" fill="#000000">&quot;:&quot;</text>
</g>
<!-- s648&#45;&gt;s649 -->
<g id="edge7" class="edge">
<title>s648&#45;&gt;s649</title>
<path fill="none" stroke="#000000" d="M1085.8143,-105.5423C1115.0193,-105.6731 1161.9095,-105.8831 1202.3875,-106.0644"/>
<polygon fill="#000000" stroke="#000000" points="1202.5101,-109.5649 1212.5257,-106.1099 1202.5415,-102.565 1202.5101,-109.5649"/>
</g>
<!-- s650 -->
<g id="node10" class="node">
<title>s650</title>
<g id="a_node10"><a xlink:href="rust-grammar.json._type.dot.svg" xlink:title="s650 SYMBOL\n_type">
<ellipse fill="none" stroke="#000000" cx="1459.7558" cy="-106.4156" rx="73.9667" ry="29.3315"/>
<text text-anchor="middle" x="1459.7558" y="-110.6156" font-family="Times,serif" font-size="14.00" fill="#000000">s650 SYMBOL</text>
<text text-anchor="middle" x="1459.7558" y="-93.8156" font-family="Times,serif" font-size="14.00" fill="#000000">_type</text>
</a>
</g>
</g>
<!-- s649&#45;&gt;s650 -->
<g id="edge8" class="edge">
<title>s649&#45;&gt;s650</title>
<path fill="none" stroke="#000000" d="M1349.2177,-106.4156C1357.9644,-106.4156 1366.9956,-106.4156 1375.9506,-106.4156"/>
<polygon fill="#000000" stroke="#000000" points="1376.0097,-109.9157 1386.0097,-106.4156 1376.0096,-102.9157 1376.0097,-109.9157"/>
</g>
<!-- s652 -->
<g id="node12" class="node">
<title>s652</title>
<polygon fill="none" stroke="#000000" points="1570.4888,-44.6156 1570.4888,-94.2156 1672.0884,-94.2156 1672.0884,-44.6156 1570.4888,-44.6156"/>
<text text-anchor="middle" x="1611.5386" y="-73.6156" font-family="Times,serif" font-size="14.00" fill="#000000">s652</text>
<text text-anchor="middle" x="1611.5386" y="-56.8156" font-family="Times,serif" font-size="14.00" fill="#000000">→ CHOICE</text>
<polyline fill="none" stroke="#000000" points="1652.5884,-44.6156 1652.5884,-94.2156 "/>
<text text-anchor="middle" x="1662.3384" y="-77.6156" font-family="Times,serif" font-size="14.00" fill="#000000"> </text>
<polyline fill="none" stroke="#000000" points="1652.5884,-69.4156 1672.0884,-69.4156 "/>
<text text-anchor="middle" x="1662.3384" y="-52.8156" font-family="Times,serif" font-size="14.00" fill="#000000"> </text>
</g>
<!-- s650&#45;&gt;s652 -->
<g id="edge16" class="edge">
<title>s650&#45;&gt;s652</title>
<path fill="none" stroke="#000000" d="M1524.0619,-91.6859C1536.0906,-88.9307 1548.6279,-86.059 1560.5446,-83.3294"/>
<polygon fill="#000000" stroke="#000000" points="1561.4178,-86.7201 1570.3838,-81.0757 1559.8548,-79.8968 1561.4178,-86.7201"/>
</g>
<!-- s651&#45;&gt;s652 -->
<g id="edge17" class="edge">
<title>s651&#45;&gt;s652</title>
<path fill="none" stroke="#000000" d="M1194.8608,-53.1579C1280.2659,-56.414 1464.1054,-63.423 1560.1019,-67.0829"/>
<polygon fill="#000000" stroke="#000000" points="1560.1104,-70.5856 1570.2365,-67.4693 1560.3771,-63.5907 1560.1104,-70.5856"/>
</g>
<!-- s653 -->
<g id="node13" class="node">
<title>s653</title>
<polygon fill="none" stroke="#000000" points="1709.0884,-86.6156 1709.0884,-128.2156 1765.5302,-128.2156 1765.5302,-86.6156 1709.0884,-86.6156"/>
<text text-anchor="middle" x="1737.3093" y="-111.6156" font-family="Times,serif" font-size="14.00" fill="#000000">s653</text>
<text text-anchor="middle" x="1737.3093" y="-94.8156" font-family="Times,serif" font-size="14.00" fill="#000000">→ SEQ</text>
</g>
<!-- s652&#45;&gt;s653 -->
<g id="edge14" class="edge">
<title>s652:p0&#45;&gt;s653</title>
<path fill="none" stroke="#000000" d="M1672.0884,-81.4156C1681.3982,-81.4156 1690.9581,-83.7298 1699.7903,-86.9773"/>
<polygon fill="#000000" stroke="#000000" points="1698.4636,-90.2161 1709.0422,-90.8022 1701.138,-83.7471 1698.4636,-90.2161"/>
</g>
<!-- s656 -->
<g id="node16" class="node">
<title>s656</title>
<ellipse fill="none" stroke="#000000" cx="1828.9328" cy="-53.4156" rx="45.3054" ry="29.3315"/>
<text text-anchor="middle" x="1828.9328" y="-57.6156" font-family="Times,serif" font-size="14.00" fill="#000000">s656 </text>
<text text-anchor="middle" x="1828.9328" y="-40.8156" font-family="Times,serif" font-size="14.00" fill="#000000">BLANK</text>
</g>
<!-- s652&#45;&gt;s656 -->
<g id="edge15" class="edge">
<title>s652:p1&#45;&gt;s656</title>
<path fill="none" stroke="#000000" d="M1672.0884,-57.4156C1705.5915,-57.4156 1743.1072,-56.4923 1773.0457,-55.5328"/>
<polygon fill="#000000" stroke="#000000" points="1773.4215,-59.0224 1783.3003,-55.1934 1773.1899,-52.0262 1773.4215,-59.0224"/>
</g>
<!-- s654 -->
<g id="node14" class="node">
<title>s654</title>
<ellipse fill="none" stroke="#000000" cx="1960.5643" cy="-108.4156" rx="68.4585" ry="29.3315"/>
<text text-anchor="middle" x="1960.5643" y="-112.6156" font-family="Times,serif" font-size="14.00" fill="#000000">s654 STRING</text>
<text text-anchor="middle" x="1960.5643" y="-95.8156" font-family="Times,serif" font-size="14.00" fill="#000000">&quot;=&quot;</text>
</g>
<!-- s653&#45;&gt;s654 -->
<g id="edge12" class="edge">
<title>s653&#45;&gt;s654</title>
<path fill="none" stroke="#000000" d="M1765.5847,-107.5423C1794.7897,-107.6731 1841.6799,-107.8831 1882.1579,-108.0644"/>
<polygon fill="#000000" stroke="#000000" points="1882.2804,-111.5649 1892.2961,-108.1099 1882.3119,-104.565 1882.2804,-111.5649"/>
</g>
<!-- s655 -->
<g id="node15" class="node">
<title>s655</title>
<g id="a_node15"><a xlink:href="rust-grammar.json._expression.dot.svg" xlink:title="s655 SYMBOL\n_expression">
<ellipse fill="none" stroke="#000000" cx="2139.5261" cy="-108.4156" rx="73.9667" ry="29.3315"/>
<text text-anchor="middle" x="2139.5261" y="-112.6156" font-family="Times,serif" font-size="14.00" fill="#000000">s655 SYMBOL</text>
<text text-anchor="middle" x="2139.5261" y="-95.8156" font-family="Times,serif" font-size="14.00" fill="#000000">_expression</text>
</a>
</g>
</g>
<!-- s654&#45;&gt;s655 -->
<g id="edge13" class="edge">
<title>s654&#45;&gt;s655</title>
<path fill="none" stroke="#000000" d="M2028.9881,-108.4156C2037.7347,-108.4156 2046.7659,-108.4156 2055.721,-108.4156"/>
<polygon fill="#000000" stroke="#000000" points="2055.7801,-111.9157 2065.78,-108.4156 2055.78,-104.9157 2055.7801,-111.9157"/>
</g>
<!-- s657 -->
<g id="node17" class="node">
<title>s657</title>
<ellipse fill="none" stroke="#000000" cx="2318.488" cy="-63.4156" rx="68.4585" ry="29.3315"/>
<text text-anchor="middle" x="2318.488" y="-67.6156" font-family="Times,serif" font-size="14.00" fill="#000000">s657 STRING</text>
<text text-anchor="middle" x="2318.488" y="-50.8156" font-family="Times,serif" font-size="14.00" fill="#000000">&quot;;&quot;</text>
</g>
<!-- s655&#45;&gt;s657 -->
<g id="edge18" class="edge">
<title>s655&#45;&gt;s657</title>
<path fill="none" stroke="#000000" d="M2202.1183,-92.6768C2217.4149,-88.8305 2233.8671,-84.6936 2249.4461,-80.7762"/>
<polygon fill="#000000" stroke="#000000" points="2250.6921,-84.072 2259.5367,-78.239 2248.985,-77.2833 2250.6921,-84.072"/>
</g>
<!-- s656&#45;&gt;s657 -->
<g id="edge19" class="edge">
<title>s656&#45;&gt;s657</title>
<path fill="none" stroke="#000000" d="M1874.5493,-54.3474C1958.1667,-56.0555 2136.874,-59.7059 2240.2396,-61.8173"/>
<polygon fill="#000000" stroke="#000000" points="2240.2394,-65.3179 2250.3088,-62.023 2240.3824,-58.3194 2240.2394,-65.3179"/>
</g>
</g>
</svg>
