<?xml version="1.0" encoding="UTF-8" standalone="no"?>
<!DOCTYPE svg PUBLIC "-//W3C//DTD SVG 1.1//EN"
 "http://www.w3.org/Graphics/SVG/1.1/DTD/svg11.dtd">
<!-- Generated by graphviz version 2.40.1 (20161225.0304)
 -->
<!-- Title: struct_item Pages: 1 -->
<svg width="2645pt" height="273pt"
 viewBox="0.00 0.00 2644.57 272.83" xmlns="http://www.w3.org/2000/svg" xmlns:xlink="http://www.w3.org/1999/xlink">
<g id="graph0" class="graph" transform="scale(1 1) rotate(0) translate(4 268.8313)">
<title>struct_item</title>
<polygon fill="#ffffff" stroke="transparent" points="-4,4 -4,-268.8313 2640.5747,-268.8313 2640.5747,4 -4,4"/>
<!-- s261 -->
<g id="node1" class="node">
<title>s261</title>
<polygon fill="none" stroke="#000000" points="0,-70.6156 0,-112.2156 56.4418,-112.2156 56.4418,-70.6156 0,-70.6156"/>
<text text-anchor="middle" x="28.2209" y="-95.6156" font-family="Times,serif" font-size="14.00" fill="#000000">s261</text>
<text text-anchor="middle" x="28.2209" y="-78.8156" font-family="Times,serif" font-size="14.00" fill="#000000">→ SEQ</text>
</g>
<!-- s262 -->
<g id="node2" class="node">
<title>s262</title>
<polygon fill="none" stroke="#000000" points="93.4418,-66.6156 93.4418,-116.2156 195.0414,-116.2156 195.0414,-66.6156 93.4418,-66.6156"/>
<text text-anchor="middle" x="134.4916" y="-95.6156" font-family="Times,serif" font-size="14.00" fill="#000000">s262</text>
<text text-anchor="middle" x="134.4916" y="-78.8156" font-family="Times,serif" font-size="14.00" fill="#000000">→ CHOICE</text>
<polyline fill="none" stroke="#000000" points="175.5414,-66.6156 175.5414,-116.2156 "/>
<text text-anchor="middle" x="185.2914" y="-99.6156" font-family="Times,serif" font-size="14.00" fill="#000000"> </text>
<polyline fill="none" stroke="#000000" points="175.5414,-91.4156 195.0414,-91.4156 "/>
<text text-anchor="middle" x="185.2914" y="-74.8156" font-family="Times,serif" font-size="14.00" fill="#000000"> </text>
</g>
<!-- s261&#45;&gt;s262 -->
<g id="edge3" class="edge">
<title>s261&#45;&gt;s262</title>
<path fill="none" stroke="#000000" d="M56.6028,-91.4156C64.6824,-91.4156 73.8102,-91.4156 83.0459,-91.4156"/>
<polygon fill="#000000" stroke="#000000" points="83.0657,-94.9157 93.0657,-91.4156 83.0656,-87.9157 83.0657,-94.9157"/>
</g>
<!-- s263 -->
<g id="node3" class="node">
<title>s263</title>
<g id="a_node3"><a xlink:href="rust-grammar.json.visibility_modifier.dot.svg" xlink:title="s263 SYMBOL\nvisibility_modifier">
<ellipse fill="none" stroke="#000000" cx="421.5942" cy="-130.4156" rx="85.6139" ry="29.3315"/>
<text text-anchor="middle" x="421.5942" y="-134.6156" font-family="Times,serif" font-size="14.00" fill="#000000">s263 SYMBOL</text>
<text text-anchor="middle" x="421.5942" y="-117.8156" font-family="Times,serif" font-size="14.00" fill="#000000">visibility_modifier</text>
</a>
</g>
</g>
<!-- s262&#45;&gt;s263 -->
<g id="edge1" class="edge">
<title>s262:p0&#45;&gt;s263</title>
<path fill="none" stroke="#000000" d="M195.0414,-103.4156C241.7047,-103.4156 293.3969,-109.1333 335.6079,-115.3063"/>
<polygon fill="#000000" stroke="#000000" points="335.1618,-118.7784 345.5697,-116.797 336.1978,-111.8555 335.1618,-118.7784"/>
<text text-anchor="middle" x="265.5393" y="-115.6156" font-family="Times,serif" font-size="14.00" fill="#000000">visibility_modifier</text>
</g>
<!-- s264 -->
<g id="node4" class="node">
<title>s264</title>
<ellipse fill="none" stroke="#000000" cx="421.5942" cy="-53.4156" rx="45.3054" ry="29.3315"/>
<text text-anchor="middle" x="421.5942" y="-57.6156" font-family="Times,serif" font-size="14.00" fill="#000000">s264 </text>
<text text-anchor="middle" x="421.5942" y="-40.8156" font-family="Times,serif" font-size="14.00" fill="#000000">BLANK</text>
</g>
<!-- s262&#45;&gt;s264 -->
<g id="edge2" class="edge">
<title>s262:p1&#45;&gt;s264</title>
<path fill="none" stroke="#000000" d="M195.0414,-79.4156C254.3,-79.4156 321.7121,-70.5273 367.4852,-63.1445"/>
<polygon fill="#000000" stroke="#000000" points="368.187,-66.5761 377.4865,-61.4997 367.051,-59.6689 368.187,-66.5761"/>
</g>
<!-- s265 -->
<g id="node5" class="node">
<title>s265</title>
<ellipse fill="none" stroke="#000000" cx="612.38" cy="-91.4156" rx="68.4585" ry="29.3315"/>
<text text-anchor="middle" x="612.38" y="-95.6156" font-family="Times,serif" font-size="14.00" fill="#000000">s265 STRING</text>
<text text-anchor="middle" x="612.38" y="-78.8156" font-family="Times,serif" font-size="14.00" fill="#000000">&quot;struct&quot;</text>
</g>
<!-- s263&#45;&gt;s265 -->
<g id="edge4" class="edge">
<title>s263&#45;&gt;s265</title>
<path fill="none" stroke="#000000" d="M495.3569,-115.3372C510.1812,-112.3069 525.7411,-109.1262 540.5001,-106.1092"/>
<polygon fill="#000000" stroke="#000000" points="541.4747,-109.4824 550.5711,-104.0505 540.0727,-102.6242 541.4747,-109.4824"/>
</g>
<!-- s264&#45;&gt;s265 -->
<g id="edge5" class="edge">
<title>s264&#45;&gt;s265</title>
<path fill="none" stroke="#000000" d="M465.3643,-62.1336C487.6049,-66.5634 515.2029,-72.0603 540.4601,-77.0909"/>
<polygon fill="#000000" stroke="#000000" points="539.8855,-80.5451 550.3765,-79.066 541.2529,-73.68 539.8855,-80.5451"/>
</g>
<!-- s266 -->
<g id="node6" class="node">
<title>s266</title>
<g id="a_node6"><a xlink:href="rust-grammar.json._type_identifier.dot.svg" xlink:title="s266 SYMBOL\n_type_identifier">
<ellipse fill="none" stroke="#000000" cx="792.1506" cy="-91.4156" rx="74.5836" ry="29.3315"/>
<text text-anchor="middle" x="792.1506" y="-95.6156" font-family="Times,serif" font-size="14.00" fill="#000000">s266 SYMBOL</text>
<text text-anchor="middle" x="792.1506" y="-78.8156" font-family="Times,serif" font-size="14.00" fill="#000000">_type_identifier</text>
</a>
</g>
</g>
<!-- s265&#45;&gt;s266 -->
<g id="edge6" class="edge">
<title>s265&#45;&gt;s266</title>
<path fill="none" stroke="#000000" d="M680.8564,-91.4156C689.5796,-91.4156 698.5885,-91.4156 707.5278,-91.4156"/>
<polygon fill="#000000" stroke="#000000" points="707.572,-94.9157 717.5719,-91.4156 707.5719,-87.9157 707.572,-94.9157"/>
</g>
<!-- s267 -->
<g id="node7" class="node">
<title>s267</title>
<polygon fill="none" stroke="#000000" points="903.6924,-66.6156 903.6924,-116.2156 1005.292,-116.2156 1005.292,-66.6156 903.6924,-66.6156"/>
<text text-anchor="middle" x="944.7422" y="-95.6156" font-family="Times,serif" font-size="14.00" fill="#000000">s267</text>
<text text-anchor="middle" x="944.7422" y="-78.8156" font-family="Times,serif" font-size="14.00" fill="#000000">→ CHOICE</text>
<polyline fill="none" stroke="#000000" points="985.792,-66.6156 985.792,-116.2156 "/>
<text text-anchor="middle" x="995.542" y="-99.6156" font-family="Times,serif" font-size="14.00" fill="#000000"> </text>
<polyline fill="none" stroke="#000000" points="985.792,-91.4156 1005.292,-91.4156 "/>
<text text-anchor="middle" x="995.542" y="-74.8156" font-family="Times,serif" font-size="14.00" fill="#000000"> </text>
</g>
<!-- s266&#45;&gt;s267 -->
<g id="edge9" class="edge">
<title>s266&#45;&gt;s267</title>
<path fill="none" stroke="#000000" d="M867.1438,-91.4156C875.8853,-91.4156 884.7228,-91.4156 893.2478,-91.4156"/>
<polygon fill="#000000" stroke="#000000" points="893.464,-94.9157 903.464,-91.4156 893.4639,-87.9157 893.464,-94.9157"/>
</g>
<!-- s268 -->
<g id="node8" class="node">
<title>s268</title>
<g id="a_node8"><a xlink:href="rust-grammar.json.type_parameters.dot.svg" xlink:title="s268 SYMBOL\ntype_parameters">
<ellipse fill="none" stroke="#000000" cx="1210.5312" cy="-130.4156" rx="76.9578" ry="29.3315"/>
<text text-anchor="middle" x="1210.5312" y="-134.6156" font-family="Times,serif" font-size="14.00" fill="#000000">s268 SYMBOL</text>
<text text-anchor="middle" x="1210.5312" y="-117.8156" font-family="Times,serif" font-size="14.00" fill="#000000">type_parameters</text>
</a>
</g>
</g>
<!-- s267&#45;&gt;s268 -->
<g id="edge7" class="edge">
<title>s267:p0&#45;&gt;s268</title>
<path fill="none" stroke="#000000" d="M1005.292,-103.4156C1047.3552,-103.4156 1093.8564,-109.0593 1131.9454,-115.1861"/>
<polygon fill="#000000" stroke="#000000" points="1131.5093,-118.6614 1141.9458,-116.8365 1132.6492,-111.7549 1131.5093,-118.6614"/>
<text text-anchor="middle" x="1069.5473" y="-115.6156" font-family="Times,serif" font-size="14.00" fill="#000000">type_parameters</text>
</g>
<!-- s269 -->
<g id="node9" class="node">
<title>s269</title>
<ellipse fill="none" stroke="#000000" cx="1210.5312" cy="-53.4156" rx="45.3054" ry="29.3315"/>
<text text-anchor="middle" x="1210.5312" y="-57.6156" font-family="Times,serif" font-size="14.00" fill="#000000">s269 </text>
<text text-anchor="middle" x="1210.5312" y="-40.8156" font-family="Times,serif" font-size="14.00" fill="#000000">BLANK</text>
</g>
<!-- s267&#45;&gt;s269 -->
<g id="edge8" class="edge">
<title>s267:p1&#45;&gt;s269</title>
<path fill="none" stroke="#000000" d="M1005.292,-79.4156C1057.2199,-79.4156 1115.9563,-71.1228 1157.2481,-63.904"/>
<polygon fill="#000000" stroke="#000000" points="1157.8638,-67.3495 1167.0925,-62.1456 1156.6329,-60.4586 1157.8638,-67.3495"/>
</g>
<!-- s270 -->
<g id="node10" class="node">
<title>s270</title>
<polygon fill="none" stroke="#000000" points="1324.2598,-61.2156 1324.2598,-135.6156 1425.8594,-135.6156 1425.8594,-61.2156 1324.2598,-61.2156"/>
<text text-anchor="middle" x="1365.3096" y="-102.6156" font-family="Times,serif" font-size="14.00" fill="#000000">s270</text>
<text text-anchor="middle" x="1365.3096" y="-85.8156" font-family="Times,serif" font-size="14.00" fill="#000000">→ CHOICE</text>
<polyline fill="none" stroke="#000000" points="1406.3594,-61.2156 1406.3594,-135.6156 "/>
<text text-anchor="middle" x="1416.1094" y="-119.0156" font-family="Times,serif" font-size="14.00" fill="#000000"> </text>
<polyline fill="none" stroke="#000000" points="1406.3594,-110.8156 1425.8594,-110.8156 "/>
<text text-anchor="middle" x="1416.1094" y="-94.2156" font-family="Times,serif" font-size="14.00" fill="#000000"> </text>
<polyline fill="none" stroke="#000000" points="1406.3594,-86.0156 1425.8594,-86.0156 "/>
<text text-anchor="middle" x="1416.1094" y="-69.4156" font-family="Times,serif" font-size="14.00" fill="#000000"> </text>
</g>
<!-- s268&#45;&gt;s270 -->
<g id="edge24" class="edge">
<title>s268&#45;&gt;s270</title>
<path fill="none" stroke="#000000" d="M1279.3527,-117.0302C1290.8139,-114.801 1302.6328,-112.5023 1313.887,-110.3134"/>
<polygon fill="#000000" stroke="#000000" points="1314.8894,-113.6841 1324.0372,-108.3393 1313.5529,-106.8129 1314.8894,-113.6841"/>
</g>
<!-- s269&#45;&gt;s270 -->
<g id="edge25" class="edge">
<title>s269&#45;&gt;s270</title>
<path fill="none" stroke="#000000" d="M1252.4744,-64.8875C1271.2107,-70.012 1293.6543,-76.1506 1314.1873,-81.7665"/>
<polygon fill="#000000" stroke="#000000" points="1313.5199,-85.2125 1324.089,-84.4747 1315.3667,-78.4605 1313.5199,-85.2125"/>
</g>
<!-- s271 -->
<g id="node11" class="node">
<title>s271</title>
<polygon fill="none" stroke="#000000" points="1505.758,-144.6156 1505.758,-186.2156 1562.1998,-186.2156 1562.1998,-144.6156 1505.758,-144.6156"/>
<text text-anchor="middle" x="1533.9789" y="-169.6156" font-family="Times,serif" font-size="14.00" fill="#000000">s271</text>
<text text-anchor="middle" x="1533.9789" y="-152.8156" font-family="Times,serif" font-size="14.00" fill="#000000">→ SEQ</text>
</g>
<!-- s270&#45;&gt;s271 -->
<g id="edge15" class="edge">
<title>s270:p0&#45;&gt;s271</title>
<path fill="none" stroke="#000000" d="M1425.8594,-123.4156C1450.371,-123.4156 1476.0168,-132.911 1496.1766,-142.8721"/>
<polygon fill="#000000" stroke="#000000" points="1494.8261,-146.1141 1505.3157,-147.6039 1498.0446,-139.8979 1494.8261,-146.1141"/>
</g>
<!-- s276 -->
<g id="node16" class="node">
<title>s276</title>
<polygon fill="none" stroke="#000000" points="1505.758,-77.6156 1505.758,-119.2156 1562.1998,-119.2156 1562.1998,-77.6156 1505.758,-77.6156"/>
<text text-anchor="middle" x="1533.9789" y="-102.6156" font-family="Times,serif" font-size="14.00" fill="#000000">s276</text>
<text text-anchor="middle" x="1533.9789" y="-85.8156" font-family="Times,serif" font-size="14.00" fill="#000000">→ SEQ</text>
</g>
<!-- s270&#45;&gt;s276 -->
<g id="edge22" class="edge">
<title>s270:p1&#45;&gt;s276</title>
<path fill="none" stroke="#000000" d="M1425.8594,-98.4156C1448.877,-98.4156 1474.651,-98.4156 1495.2595,-98.4156"/>
<polygon fill="#000000" stroke="#000000" points="1495.5236,-101.9157 1505.5236,-98.4156 1495.5235,-94.9157 1495.5236,-101.9157"/>
</g>
<!-- s282 -->
<g id="node22" class="node">
<title>s282</title>
<ellipse fill="none" stroke="#000000" cx="1533.9789" cy="-29.4156" rx="68.4585" ry="29.3315"/>
<text text-anchor="middle" x="1533.9789" y="-33.6156" font-family="Times,serif" font-size="14.00" fill="#000000">s282 STRING</text>
<text text-anchor="middle" x="1533.9789" y="-16.8156" font-family="Times,serif" font-size="14.00" fill="#000000">&quot;;&quot;</text>
</g>
<!-- s270&#45;&gt;s282 -->
<g id="edge23" class="edge">
<title>s270:p2&#45;&gt;s282</title>
<path fill="none" stroke="#000000" d="M1416.0596,-61.4156C1416.0596,-40.1658 1434.1159,-30.6466 1456.0973,-26.9313"/>
<polygon fill="#000000" stroke="#000000" points="1456.5985,-30.3957 1466.068,-25.6439 1455.7021,-23.4533 1456.5985,-30.3957"/>
<text text-anchor="middle" x="1445.8047" y="-34.6156" font-family="Times,serif" font-size="14.00" fill="#000000">;</text>
</g>
<!-- s272 -->
<g id="node12" class="node">
<title>s272</title>
<polygon fill="none" stroke="#000000" points="1719.0204,-145.6156 1719.0204,-195.2156 1820.62,-195.2156 1820.62,-145.6156 1719.0204,-145.6156"/>
<text text-anchor="middle" x="1760.0702" y="-174.6156" font-family="Times,serif" font-size="14.00" fill="#000000">s272</text>
<text text-anchor="middle" x="1760.0702" y="-157.8156" font-family="Times,serif" font-size="14.00" fill="#000000">→ CHOICE</text>
<polyline fill="none" stroke="#000000" points="1801.12,-145.6156 1801.12,-195.2156 "/>
<text text-anchor="middle" x="1810.87" y="-178.6156" font-family="Times,serif" font-size="14.00" fill="#000000"> </text>
<polyline fill="none" stroke="#000000" points="1801.12,-170.4156 1820.62,-170.4156 "/>
<text text-anchor="middle" x="1810.87" y="-153.8156" font-family="Times,serif" font-size="14.00" fill="#000000"> </text>
</g>
<!-- s271&#45;&gt;s272 -->
<g id="edge12" class="edge">
<title>s271&#45;&gt;s272</title>
<path fill="none" stroke="#000000" d="M1562.4268,-166.0188C1598.4945,-166.7834 1661.6532,-168.1224 1708.8238,-169.1225"/>
<polygon fill="#000000" stroke="#000000" points="1708.86,-172.6239 1718.932,-169.3368 1709.0085,-165.6255 1708.86,-172.6239"/>
</g>
<!-- s273 -->
<g id="node13" class="node">
<title>s273</title>
<g id="a_node13"><a xlink:href="rust-grammar.json.where_clause.dot.svg" xlink:title="s273 SYMBOL\nwhere_clause">
<ellipse fill="none" stroke="#000000" cx="2086.3412" cy="-235.4156" rx="73.9667" ry="29.3315"/>
<text text-anchor="middle" x="2086.3412" y="-239.6156" font-family="Times,serif" font-size="14.00" fill="#000000">s273 SYMBOL</text>
<text text-anchor="middle" x="2086.3412" y="-222.8156" font-family="Times,serif" font-size="14.00" fill="#000000">where_clause</text>
</a>
</g>
</g>
<!-- s272&#45;&gt;s273 -->
<g id="edge10" class="edge">
<title>s272:p0&#45;&gt;s273</title>
<path fill="none" stroke="#000000" d="M1820.8202,-182.4156C1889.1903,-182.4156 1965.5807,-199.524 2018.8081,-214.3003"/>
<polygon fill="#000000" stroke="#000000" points="2017.8954,-217.6793 2028.4701,-217.0276 2019.797,-210.9426 2017.8954,-217.6793"/>
<text text-anchor="middle" x="1956.5205" y="-210.6156" font-family="Times,serif" font-size="14.00" fill="#000000">where_clause</text>
</g>
<!-- s274 -->
<g id="node14" class="node">
<title>s274</title>
<ellipse fill="none" stroke="#000000" cx="2086.3412" cy="-158.4156" rx="45.3054" ry="29.3315"/>
<text text-anchor="middle" x="2086.3412" y="-162.6156" font-family="Times,serif" font-size="14.00" fill="#000000">s274 </text>
<text text-anchor="middle" x="2086.3412" y="-145.8156" font-family="Times,serif" font-size="14.00" fill="#000000">BLANK</text>
</g>
<!-- s272&#45;&gt;s274 -->
<g id="edge11" class="edge">
<title>s272:p1&#45;&gt;s274</title>
<path fill="none" stroke="#000000" d="M1820.8202,-158.4156C1893.3584,-158.4156 1977.0434,-158.4156 2030.7645,-158.4156"/>
<polygon fill="#000000" stroke="#000000" points="2030.7669,-161.9157 2040.7669,-158.4156 2030.7669,-154.9157 2030.7669,-161.9157"/>
</g>
<!-- s275 -->
<g id="node15" class="node">
<title>s275</title>
<g id="a_node15"><a xlink:href="rust-grammar.json.field_declaration_list.dot.svg" xlink:title="s275 SYMBOL\nfield_declaration_list">
<ellipse fill="none" stroke="#000000" cx="2367.6832" cy="-203.4156" rx="95.3674" ry="29.3315"/>
<text text-anchor="middle" x="2367.6832" y="-207.6156" font-family="Times,serif" font-size="14.00" fill="#000000">s275 SYMBOL</text>
<text text-anchor="middle" x="2367.6832" y="-190.8156" font-family="Times,serif" font-size="14.00" fill="#000000">field_declaration_list</text>
</a>
</g>
</g>
<!-- s273&#45;&gt;s275 -->
<g id="edge13" class="edge">
<title>s273&#45;&gt;s275</title>
<path fill="none" stroke="#000000" d="M2157.3356,-227.3407C2190.8144,-223.5328 2231.3374,-218.9237 2267.8435,-214.7715"/>
<polygon fill="#000000" stroke="#000000" points="2268.484,-218.2213 2278.0244,-213.6135 2267.6929,-211.2661 2268.484,-218.2213"/>
</g>
<!-- s274&#45;&gt;s275 -->
<g id="edge14" class="edge">
<title>s274&#45;&gt;s275</title>
<path fill="none" stroke="#000000" d="M2130.6104,-165.4964C2168.6059,-171.5737 2224.6808,-180.5427 2272.7565,-188.2323"/>
<polygon fill="#000000" stroke="#000000" points="2272.4573,-191.7289 2282.8846,-189.8523 2273.5629,-184.8167 2272.4573,-191.7289"/>
</g>
<!-- s277 -->
<g id="node17" class="node">
<title>s277</title>
<g id="a_node17"><a xlink:href="rust-grammar.json.ordered_field_declaration_list.dot.svg" xlink:title="s277 SYMBOL\nordered_field_declaration_list">
<ellipse fill="none" stroke="#000000" cx="1769.8202" cy="-94.4156" rx="130.7251" ry="29.3315"/>
<text text-anchor="middle" x="1769.8202" y="-98.6156" font-family="Times,serif" font-size="14.00" fill="#000000">s277 SYMBOL</text>
<text text-anchor="middle" x="1769.8202" y="-81.8156" font-family="Times,serif" font-size="14.00" fill="#000000">ordered_field_declaration_list</text>
</a>
</g>
</g>
<!-- s276&#45;&gt;s277 -->
<g id="edge16" class="edge">
<title>s276&#45;&gt;s277</title>
<path fill="none" stroke="#000000" d="M1562.4268,-97.9331C1579.9481,-97.636 1603.8626,-97.2304 1629.2318,-96.8001"/>
<polygon fill="#000000" stroke="#000000" points="1629.4607,-100.2968 1639.3998,-96.6276 1629.3419,-93.2978 1629.4607,-100.2968"/>
</g>
<!-- s278 -->
<g id="node18" class="node">
<title>s278</title>
<polygon fill="none" stroke="#000000" points="2035.5414,-60.6156 2035.5414,-110.2156 2137.141,-110.2156 2137.141,-60.6156 2035.5414,-60.6156"/>
<text text-anchor="middle" x="2076.5912" y="-89.6156" font-family="Times,serif" font-size="14.00" fill="#000000">s278</text>
<text text-anchor="middle" x="2076.5912" y="-72.8156" font-family="Times,serif" font-size="14.00" fill="#000000">→ CHOICE</text>
<polyline fill="none" stroke="#000000" points="2117.641,-60.6156 2117.641,-110.2156 "/>
<text text-anchor="middle" x="2127.391" y="-93.6156" font-family="Times,serif" font-size="14.00" fill="#000000"> </text>
<polyline fill="none" stroke="#000000" points="2117.641,-85.4156 2137.141,-85.4156 "/>
<text text-anchor="middle" x="2127.391" y="-68.8156" font-family="Times,serif" font-size="14.00" fill="#000000"> </text>
</g>
<!-- s277&#45;&gt;s278 -->
<g id="edge19" class="edge">
<title>s277&#45;&gt;s278</title>
<path fill="none" stroke="#000000" d="M1899.4747,-90.729C1942.9831,-89.4919 1989.4751,-88.1699 2025.2016,-87.1541"/>
<polygon fill="#000000" stroke="#000000" points="2025.5572,-90.6455 2035.4537,-86.8626 2025.3582,-83.6483 2025.5572,-90.6455"/>
</g>
<!-- s279 -->
<g id="node19" class="node">
<title>s279</title>
<g id="a_node19"><a xlink:href="rust-grammar.json.where_clause.dot.svg" xlink:title="s279 SYMBOL\nwhere_clause">
<ellipse fill="none" stroke="#000000" cx="2367.6832" cy="-118.4156" rx="73.9667" ry="29.3315"/>
<text text-anchor="middle" x="2367.6832" y="-122.6156" font-family="Times,serif" font-size="14.00" fill="#000000">s279 SYMBOL</text>
<text text-anchor="middle" x="2367.6832" y="-105.8156" font-family="Times,serif" font-size="14.00" fill="#000000">where_clause</text>
</a>
</g>
</g>
<!-- s278&#45;&gt;s279 -->
<g id="edge17" class="edge">
<title>s278:p0&#45;&gt;s279</title>
<path fill="none" stroke="#000000" d="M2137.3412,-97.4156C2187.5408,-97.4156 2243.6411,-102.4234 2287.9083,-107.5481"/>
<polygon fill="#000000" stroke="#000000" points="2287.6871,-111.0462 2298.0291,-108.7454 2288.5096,-104.0947 2287.6871,-111.0462"/>
<text text-anchor="middle" x="2216.1619" y="-107.6156" font-family="Times,serif" font-size="14.00" fill="#000000">where_clause</text>
</g>
<!-- s280 -->
<g id="node20" class="node">
<title>s280</title>
<ellipse fill="none" stroke="#000000" cx="2367.6832" cy="-41.4156" rx="45.3054" ry="29.3315"/>
<text text-anchor="middle" x="2367.6832" y="-45.6156" font-family="Times,serif" font-size="14.00" fill="#000000">s280 </text>
<text text-anchor="middle" x="2367.6832" y="-28.8156" font-family="Times,serif" font-size="14.00" fill="#000000">BLANK</text>
</g>
<!-- s278&#45;&gt;s280 -->
<g id="edge18" class="edge">
<title>s278:p1&#45;&gt;s280</title>
<path fill="none" stroke="#000000" d="M2137.3412,-73.4156C2198.6521,-73.4156 2268.2769,-62.1555 2314.7781,-52.9942"/>
<polygon fill="#000000" stroke="#000000" points="2315.5129,-56.4166 2324.6284,-51.0167 2314.135,-49.5535 2315.5129,-56.4166"/>
</g>
<!-- s281 -->
<g id="node21" class="node">
<title>s281</title>
<ellipse fill="none" stroke="#000000" cx="2568.3458" cy="-79.4156" rx="68.4585" ry="29.3315"/>
<text text-anchor="middle" x="2568.3458" y="-83.6156" font-family="Times,serif" font-size="14.00" fill="#000000">s281 STRING</text>
<text text-anchor="middle" x="2568.3458" y="-66.8156" font-family="Times,serif" font-size="14.00" fill="#000000">&quot;;&quot;</text>
</g>
<!-- s279&#45;&gt;s281 -->
<g id="edge20" class="edge">
<title>s279&#45;&gt;s281</title>
<path fill="none" stroke="#000000" d="M2434.2222,-105.4834C2454.0341,-101.6328 2475.8364,-97.3954 2495.9996,-93.4766"/>
<polygon fill="#000000" stroke="#000000" points="2496.9129,-96.8646 2506.0615,-91.521 2495.5774,-89.9932 2496.9129,-96.8646"/>
</g>
<!-- s280&#45;&gt;s281 -->
<g id="edge21" class="edge">
<title>s280&#45;&gt;s281</title>
<path fill="none" stroke="#000000" d="M2411.7195,-49.7549C2436.2766,-54.4053 2467.4863,-60.3156 2495.5726,-65.6344"/>
<polygon fill="#000000" stroke="#000000" points="2495.2841,-69.1419 2505.7608,-67.5638 2496.5867,-62.2641 2495.2841,-69.1419"/>
</g>
</g>
</svg>
