<?xml version="1.0" encoding="UTF-8" standalone="no"?>
<!DOCTYPE svg PUBLIC "-//W3C//DTD SVG 1.1//EN"
 "http://www.w3.org/Graphics/SVG/1.1/DTD/svg11.dtd">
<!-- Generated by graphviz version 2.40.1 (20161225.0304)
 -->
<!-- Title: enum_variant_list Pages: 1 -->
<svg width="2239pt" height="263pt"
 viewBox="0.00 0.00 2238.72 262.83" xmlns="http://www.w3.org/2000/svg" xmlns:xlink="http://www.w3.org/1999/xlink">
<g id="graph0" class="graph" transform="scale(1 1) rotate(0) translate(4 258.8313)">
<title>enum_variant_list</title>
<polygon fill="#ffffff" stroke="transparent" points="-4,4 -4,-258.8313 2234.7178,-258.8313 2234.7178,4 -4,4"/>
<!-- s311 -->
<g id="node1" class="node">
<title>s311</title>
<polygon fill="none" stroke="#000000" points="0,-86.6156 0,-128.2156 56.4418,-128.2156 56.4418,-86.6156 0,-86.6156"/>
<text text-anchor="middle" x="28.2209" y="-111.6156" font-family="Times,serif" font-size="14.00" fill="#000000">s311</text>
<text text-anchor="middle" x="28.2209" y="-94.8156" font-family="Times,serif" font-size="14.00" fill="#000000">→ SEQ</text>
</g>
<!-- s312 -->
<g id="node2" class="node">
<title>s312</title>
<ellipse fill="none" stroke="#000000" cx="161.6707" cy="-107.4156" rx="68.4585" ry="29.3315"/>
<text text-anchor="middle" x="161.6707" y="-111.6156" font-family="Times,serif" font-size="14.00" fill="#000000">s312 STRING</text>
<text text-anchor="middle" x="161.6707" y="-94.8156" font-family="Times,serif" font-size="14.00" fill="#000000">&quot;{&quot;</text>
</g>
<!-- s311&#45;&gt;s312 -->
<g id="edge1" class="edge">
<title>s311&#45;&gt;s312</title>
<path fill="none" stroke="#000000" d="M56.5222,-107.4156C64.5856,-107.4156 73.7846,-107.4156 83.3101,-107.4156"/>
<polygon fill="#000000" stroke="#000000" points="83.321,-110.9157 93.321,-107.4156 83.3209,-103.9157 83.321,-110.9157"/>
</g>
<!-- s313 -->
<g id="node3" class="node">
<title>s313</title>
<polygon fill="none" stroke="#000000" points="266.8995,-82.6156 266.8995,-132.2156 368.4991,-132.2156 368.4991,-82.6156 266.8995,-82.6156"/>
<text text-anchor="middle" x="307.9493" y="-111.6156" font-family="Times,serif" font-size="14.00" fill="#000000">s313</text>
<text text-anchor="middle" x="307.9493" y="-94.8156" font-family="Times,serif" font-size="14.00" fill="#000000">→ CHOICE</text>
<polyline fill="none" stroke="#000000" points="348.9991,-82.6156 348.9991,-132.2156 "/>
<text text-anchor="middle" x="358.7491" y="-115.6156" font-family="Times,serif" font-size="14.00" fill="#000000"> </text>
<polyline fill="none" stroke="#000000" points="348.9991,-107.4156 368.4991,-107.4156 "/>
<text text-anchor="middle" x="358.7491" y="-90.8156" font-family="Times,serif" font-size="14.00" fill="#000000"> </text>
</g>
<!-- s312&#45;&gt;s313 -->
<g id="edge18" class="edge">
<title>s312&#45;&gt;s313</title>
<path fill="none" stroke="#000000" d="M230.1071,-107.4156C238.9349,-107.4156 247.9288,-107.4156 256.6274,-107.4156"/>
<polygon fill="#000000" stroke="#000000" points="256.6756,-110.9157 266.6755,-107.4156 256.6755,-103.9157 256.6756,-110.9157"/>
</g>
<!-- s314 -->
<g id="node4" class="node">
<title>s314</title>
<polygon fill="none" stroke="#000000" points="405.4991,-125.6156 405.4991,-167.2156 461.9409,-167.2156 461.9409,-125.6156 405.4991,-125.6156"/>
<text text-anchor="middle" x="433.72" y="-150.6156" font-family="Times,serif" font-size="14.00" fill="#000000">s314</text>
<text text-anchor="middle" x="433.72" y="-133.8156" font-family="Times,serif" font-size="14.00" fill="#000000">→ SEQ</text>
</g>
<!-- s313&#45;&gt;s314 -->
<g id="edge16" class="edge">
<title>s313:p0&#45;&gt;s314</title>
<path fill="none" stroke="#000000" d="M368.4991,-119.4156C377.6703,-119.4156 387.0529,-121.7229 395.7398,-124.9886"/>
<polygon fill="#000000" stroke="#000000" points="394.6311,-128.3203 405.2034,-129.0109 397.3692,-121.8781 394.6311,-128.3203"/>
</g>
<!-- s326 -->
<g id="node16" class="node">
<title>s326</title>
<ellipse fill="none" stroke="#000000" cx="525.3436" cy="-95.4156" rx="45.3054" ry="29.3315"/>
<text text-anchor="middle" x="525.3436" y="-99.6156" font-family="Times,serif" font-size="14.00" fill="#000000">s326 </text>
<text text-anchor="middle" x="525.3436" y="-82.8156" font-family="Times,serif" font-size="14.00" fill="#000000">BLANK</text>
</g>
<!-- s313&#45;&gt;s326 -->
<g id="edge17" class="edge">
<title>s313:p1&#45;&gt;s326</title>
<path fill="none" stroke="#000000" d="M368.4991,-95.4156C401.9914,-95.4156 439.5067,-95.4156 469.4476,-95.4156"/>
<polygon fill="#000000" stroke="#000000" points="469.7033,-98.9157 479.7032,-95.4156 469.7032,-91.9157 469.7033,-98.9157"/>
</g>
<!-- s315 -->
<g id="node5" class="node">
<title>s315</title>
<polygon fill="none" stroke="#000000" points="588.7462,-127.6156 588.7462,-169.2156 645.188,-169.2156 645.188,-127.6156 588.7462,-127.6156"/>
<text text-anchor="middle" x="616.9671" y="-152.6156" font-family="Times,serif" font-size="14.00" fill="#000000">s315</text>
<text text-anchor="middle" x="616.9671" y="-135.8156" font-family="Times,serif" font-size="14.00" fill="#000000">→ SEQ</text>
</g>
<!-- s314&#45;&gt;s315 -->
<g id="edge6" class="edge">
<title>s314&#45;&gt;s315</title>
<path fill="none" stroke="#000000" d="M461.9508,-146.7238C493.158,-147.0644 543.6099,-147.615 578.4363,-147.9951"/>
<polygon fill="#000000" stroke="#000000" points="578.6666,-151.4977 588.7042,-148.1072 578.7431,-144.4982 578.6666,-151.4977"/>
</g>
<!-- s316 -->
<g id="node6" class="node">
<title>s316</title>
<polygon fill="none" stroke="#000000" points="682.188,-132.6156 682.188,-174.2156 765.0716,-174.2156 765.0716,-132.6156 682.188,-132.6156"/>
<text text-anchor="middle" x="723.6298" y="-157.6156" font-family="Times,serif" font-size="14.00" fill="#000000">s316</text>
<text text-anchor="middle" x="723.6298" y="-140.8156" font-family="Times,serif" font-size="14.00" fill="#000000">→ REPEAT</text>
</g>
<!-- s315&#45;&gt;s316 -->
<g id="edge4" class="edge">
<title>s315&#45;&gt;s316</title>
<path fill="none" stroke="#000000" d="M645.2707,-149.7424C653.4319,-150.125 662.6043,-150.555 671.7212,-150.9823"/>
<polygon fill="#000000" stroke="#000000" points="671.7812,-154.4889 681.9341,-151.4611 672.109,-147.4966 671.7812,-154.4889"/>
</g>
<!-- s317 -->
<g id="node7" class="node">
<title>s317</title>
<g id="a_node7"><a xlink:href="rust-grammar.json.attribute_item.dot.svg" xlink:title="s317 SYMBOL\nattribute_item">
<ellipse fill="none" stroke="#000000" cx="875.8046" cy="-153.4156" rx="73.9667" ry="29.3315"/>
<text text-anchor="middle" x="875.8046" y="-157.6156" font-family="Times,serif" font-size="14.00" fill="#000000">s317 SYMBOL</text>
<text text-anchor="middle" x="875.8046" y="-140.8156" font-family="Times,serif" font-size="14.00" fill="#000000">attribute_item</text>
</a>
</g>
</g>
<!-- s316&#45;&gt;s317 -->
<g id="edge2" class="edge">
<title>s316&#45;&gt;s317</title>
<path fill="none" stroke="#000000" d="M765.2122,-147.3248C774.0947,-146.961 783.7732,-146.7477 793.5887,-146.6851"/>
<polygon fill="#000000" stroke="#000000" points="793.843,-150.185 803.8393,-146.6745 793.8356,-143.185 793.843,-150.185"/>
</g>
<!-- s317&#45;&gt;s316 -->
<g id="edge3" class="edge">
<title>s317&#45;&gt;s316</title>
<path fill="none" stroke="#000000" d="M803.8393,-160.1568C794.2152,-160.198 784.503,-160.0948 775.3209,-159.8473"/>
<polygon fill="#000000" stroke="#000000" points="775.3245,-156.3455 765.2122,-159.5065 775.0886,-163.3415 775.3245,-156.3455"/>
</g>
<!-- s318 -->
<g id="node8" class="node">
<title>s318</title>
<g id="a_node8"><a xlink:href="rust-grammar.json.enum_variant.dot.svg" xlink:title="s318 SYMBOL\nenum_variant">
<ellipse fill="none" stroke="#000000" cx="1060.2706" cy="-154.4156" rx="73.9667" ry="29.3315"/>
<text text-anchor="middle" x="1060.2706" y="-158.6156" font-family="Times,serif" font-size="14.00" fill="#000000">s318 SYMBOL</text>
<text text-anchor="middle" x="1060.2706" y="-141.8156" font-family="Times,serif" font-size="14.00" fill="#000000">enum_variant</text>
</a>
</g>
</g>
<!-- s317&#45;&gt;s318 -->
<g id="edge5" class="edge">
<title>s317&#45;&gt;s318</title>
<path fill="none" stroke="#000000" d="M949.7711,-153.8166C958.4163,-153.8635 967.2845,-153.9116 976.0553,-153.9591"/>
<polygon fill="#000000" stroke="#000000" points="976.2686,-157.4602 986.2875,-154.0146 976.3066,-150.4603 976.2686,-157.4602"/>
</g>
<!-- s319 -->
<g id="node9" class="node">
<title>s319</title>
<polygon fill="none" stroke="#000000" points="1171.0036,-137.6156 1171.0036,-179.2156 1253.8872,-179.2156 1253.8872,-137.6156 1171.0036,-137.6156"/>
<text text-anchor="middle" x="1212.4454" y="-162.6156" font-family="Times,serif" font-size="14.00" fill="#000000">s319</text>
<text text-anchor="middle" x="1212.4454" y="-145.8156" font-family="Times,serif" font-size="14.00" fill="#000000">→ REPEAT</text>
</g>
<!-- s318&#45;&gt;s319 -->
<g id="edge15" class="edge">
<title>s318&#45;&gt;s319</title>
<path fill="none" stroke="#000000" d="M1134.1291,-156.3571C1143.066,-156.592 1152.044,-156.828 1160.5692,-157.052"/>
<polygon fill="#000000" stroke="#000000" points="1160.6219,-160.5545 1170.7104,-157.3186 1160.8059,-153.557 1160.6219,-160.5545"/>
</g>
<!-- s320 -->
<g id="node10" class="node">
<title>s320</title>
<polygon fill="none" stroke="#000000" points="1313.4661,-161.6156 1313.4661,-203.2156 1369.9079,-203.2156 1369.9079,-161.6156 1313.4661,-161.6156"/>
<text text-anchor="middle" x="1341.687" y="-186.6156" font-family="Times,serif" font-size="14.00" fill="#000000">s320</text>
<text text-anchor="middle" x="1341.687" y="-169.8156" font-family="Times,serif" font-size="14.00" fill="#000000">→ SEQ</text>
</g>
<!-- s319&#45;&gt;s320 -->
<g id="edge13" class="edge">
<title>s319&#45;&gt;s320</title>
<path fill="none" stroke="#000000" d="M1254.0496,-166.1415C1269.7581,-169.0585 1287.5538,-172.3632 1302.9856,-175.2289"/>
<polygon fill="#000000" stroke="#000000" points="1302.7659,-178.7478 1313.2369,-177.1325 1304.044,-171.8655 1302.7659,-178.7478"/>
</g>
<!-- s327 -->
<g id="node17" class="node">
<title>s327</title>
<polygon fill="none" stroke="#000000" points="1290.8872,-69.6156 1290.8872,-119.2156 1392.4868,-119.2156 1392.4868,-69.6156 1290.8872,-69.6156"/>
<text text-anchor="middle" x="1331.937" y="-98.6156" font-family="Times,serif" font-size="14.00" fill="#000000">s327</text>
<text text-anchor="middle" x="1331.937" y="-81.8156" font-family="Times,serif" font-size="14.00" fill="#000000">→ CHOICE</text>
<polyline fill="none" stroke="#000000" points="1372.9868,-69.6156 1372.9868,-119.2156 "/>
<text text-anchor="middle" x="1382.7368" y="-102.6156" font-family="Times,serif" font-size="14.00" fill="#000000"> </text>
<polyline fill="none" stroke="#000000" points="1372.9868,-94.4156 1392.4868,-94.4156 "/>
<text text-anchor="middle" x="1382.7368" y="-77.8156" font-family="Times,serif" font-size="14.00" fill="#000000"> </text>
</g>
<!-- s319&#45;&gt;s327 -->
<g id="edge21" class="edge">
<title>s319&#45;&gt;s327</title>
<path fill="none" stroke="#000000" d="M1254.0496,-137.8134C1263.1087,-133.3273 1272.862,-128.4975 1282.4558,-123.7467"/>
<polygon fill="#000000" stroke="#000000" points="1284.1689,-126.8041 1291.5772,-119.2298 1281.0625,-120.5311 1284.1689,-126.8041"/>
</g>
<!-- s321 -->
<g id="node11" class="node">
<title>s321</title>
<ellipse fill="none" stroke="#000000" cx="1500.2156" cy="-183.4156" rx="68.4585" ry="29.3315"/>
<text text-anchor="middle" x="1500.2156" y="-187.6156" font-family="Times,serif" font-size="14.00" fill="#000000">s321 STRING</text>
<text text-anchor="middle" x="1500.2156" y="-170.8156" font-family="Times,serif" font-size="14.00" fill="#000000">&quot;,&quot;</text>
</g>
<!-- s320&#45;&gt;s321 -->
<g id="edge7" class="edge">
<title>s320&#45;&gt;s321</title>
<path fill="none" stroke="#000000" d="M1370.0287,-182.5944C1384.6066,-182.6864 1403.1697,-182.8035 1421.6798,-182.9202"/>
<polygon fill="#000000" stroke="#000000" points="1421.9102,-186.4217 1431.9321,-182.9849 1421.9544,-179.4218 1421.9102,-186.4217"/>
</g>
<!-- s322 -->
<g id="node12" class="node">
<title>s322</title>
<polygon fill="none" stroke="#000000" points="1645.4525,-204.6156 1645.4525,-246.2156 1701.8943,-246.2156 1701.8943,-204.6156 1645.4525,-204.6156"/>
<text text-anchor="middle" x="1673.6734" y="-229.6156" font-family="Times,serif" font-size="14.00" fill="#000000">s322</text>
<text text-anchor="middle" x="1673.6734" y="-212.8156" font-family="Times,serif" font-size="14.00" fill="#000000">→ SEQ</text>
</g>
<!-- s321&#45;&gt;s322 -->
<g id="edge12" class="edge">
<title>s321&#45;&gt;s322</title>
<path fill="none" stroke="#000000" d="M1559.91,-197.8697C1584.7824,-203.8921 1612.9508,-210.7127 1635.0356,-216.0601"/>
<polygon fill="#000000" stroke="#000000" points="1634.4906,-219.5292 1645.0334,-218.4809 1636.138,-212.7258 1634.4906,-219.5292"/>
</g>
<!-- s322&#45;&gt;s319 -->
<g id="edge14" class="edge">
<title>s322&#45;&gt;s319</title>
<path fill="none" stroke="#000000" d="M1645.2645,-229.9978C1580.3168,-239.3024 1416.8712,-256.0335 1290.8872,-212.4156 1273.9382,-206.5476 1257.2676,-195.9557 1243.6831,-185.6973"/>
<polygon fill="#000000" stroke="#000000" points="1245.6779,-182.8139 1235.6487,-179.3983 1241.359,-188.3227 1245.6779,-182.8139"/>
</g>
<!-- s323 -->
<g id="node13" class="node">
<title>s323</title>
<polygon fill="none" stroke="#000000" points="1778.9023,-204.6156 1778.9023,-246.2156 1861.7859,-246.2156 1861.7859,-204.6156 1778.9023,-204.6156"/>
<text text-anchor="middle" x="1820.3441" y="-229.6156" font-family="Times,serif" font-size="14.00" fill="#000000">s323</text>
<text text-anchor="middle" x="1820.3441" y="-212.8156" font-family="Times,serif" font-size="14.00" fill="#000000">→ REPEAT</text>
</g>
<!-- s322&#45;&gt;s323 -->
<g id="edge10" class="edge">
<title>s322&#45;&gt;s323</title>
<path fill="none" stroke="#000000" d="M1701.953,-225.4156C1720.8662,-225.4156 1746.3072,-225.4156 1768.7582,-225.4156"/>
<polygon fill="#000000" stroke="#000000" points="1768.8289,-228.9157 1778.8289,-225.4156 1768.8288,-221.9157 1768.8289,-228.9157"/>
</g>
<!-- s324 -->
<g id="node14" class="node">
<title>s324</title>
<g id="a_node14"><a xlink:href="rust-grammar.json.attribute_item.dot.svg" xlink:title="s324 SYMBOL\nattribute_item">
<ellipse fill="none" stroke="#000000" cx="1972.5189" cy="-225.4156" rx="73.9667" ry="29.3315"/>
<text text-anchor="middle" x="1972.5189" y="-229.6156" font-family="Times,serif" font-size="14.00" fill="#000000">s324 SYMBOL</text>
<text text-anchor="middle" x="1972.5189" y="-212.8156" font-family="Times,serif" font-size="14.00" fill="#000000">attribute_item</text>
</a>
</g>
</g>
<!-- s323&#45;&gt;s324 -->
<g id="edge8" class="edge">
<title>s323&#45;&gt;s324</title>
<path fill="none" stroke="#000000" d="M1861.9265,-219.3248C1870.809,-218.961 1880.4875,-218.7477 1890.3029,-218.6851"/>
<polygon fill="#000000" stroke="#000000" points="1890.5572,-222.185 1900.5535,-218.6745 1890.5499,-215.185 1890.5572,-222.185"/>
</g>
<!-- s324&#45;&gt;s323 -->
<g id="edge9" class="edge">
<title>s324&#45;&gt;s323</title>
<path fill="none" stroke="#000000" d="M1900.5535,-232.1568C1890.9295,-232.198 1881.2173,-232.0948 1872.0352,-231.8473"/>
<polygon fill="#000000" stroke="#000000" points="1872.0388,-228.3455 1861.9265,-231.5065 1871.8028,-235.3415 1872.0388,-228.3455"/>
</g>
<!-- s325 -->
<g id="node15" class="node">
<title>s325</title>
<g id="a_node15"><a xlink:href="rust-grammar.json.enum_variant.dot.svg" xlink:title="s325 SYMBOL\nenum_variant">
<ellipse fill="none" stroke="#000000" cx="2156.9848" cy="-225.4156" rx="73.9667" ry="29.3315"/>
<text text-anchor="middle" x="2156.9848" y="-229.6156" font-family="Times,serif" font-size="14.00" fill="#000000">s325 SYMBOL</text>
<text text-anchor="middle" x="2156.9848" y="-212.8156" font-family="Times,serif" font-size="14.00" fill="#000000">enum_variant</text>
</a>
</g>
</g>
<!-- s324&#45;&gt;s325 -->
<g id="edge11" class="edge">
<title>s324&#45;&gt;s325</title>
<path fill="none" stroke="#000000" d="M2046.4853,-225.4156C2055.1305,-225.4156 2063.9988,-225.4156 2072.7696,-225.4156"/>
<polygon fill="#000000" stroke="#000000" points="2073.0018,-228.9157 2083.0018,-225.4156 2073.0017,-221.9157 2073.0018,-228.9157"/>
</g>
<!-- s326&#45;&gt;s327 -->
<g id="edge22" class="edge">
<title>s326&#45;&gt;s327</title>
<path fill="none" stroke="#000000" d="M570.8293,-95.4156C597.818,-95.4156 632.7046,-95.4156 663.688,-95.4156 663.688,-95.4156 663.688,-95.4156 1212.4454,-95.4156 1234.7217,-95.4156 1259.1571,-95.2653 1280.7268,-95.0811"/>
<polygon fill="#000000" stroke="#000000" points="1280.7711,-98.581 1290.7393,-94.9916 1280.7084,-91.5812 1280.7711,-98.581"/>
</g>
<!-- s328 -->
<g id="node18" class="node">
<title>s328</title>
<ellipse fill="none" stroke="#000000" cx="1500.2156" cy="-106.4156" rx="68.4585" ry="29.3315"/>
<text text-anchor="middle" x="1500.2156" y="-110.6156" font-family="Times,serif" font-size="14.00" fill="#000000">s328 STRING</text>
<text text-anchor="middle" x="1500.2156" y="-93.8156" font-family="Times,serif" font-size="14.00" fill="#000000">&quot;,&quot;</text>
</g>
<!-- s327&#45;&gt;s328 -->
<g id="edge19" class="edge">
<title>s327:p0&#45;&gt;s328</title>
<path fill="none" stroke="#000000" d="M1392.4868,-106.4156C1401.9259,-106.4156 1411.8302,-106.4156 1421.6495,-106.4156"/>
<polygon fill="#000000" stroke="#000000" points="1421.8284,-109.9157 1431.8284,-106.4156 1421.8284,-102.9157 1421.8284,-109.9157"/>
<text text-anchor="middle" x="1412.2368" y="-110.6156" font-family="Times,serif" font-size="14.00" fill="#000000">,</text>
</g>
<!-- s329 -->
<g id="node19" class="node">
<title>s329</title>
<ellipse fill="none" stroke="#000000" cx="1500.2156" cy="-29.4156" rx="45.3054" ry="29.3315"/>
<text text-anchor="middle" x="1500.2156" y="-33.6156" font-family="Times,serif" font-size="14.00" fill="#000000">s329 </text>
<text text-anchor="middle" x="1500.2156" y="-16.8156" font-family="Times,serif" font-size="14.00" fill="#000000">BLANK</text>
</g>
<!-- s327&#45;&gt;s329 -->
<g id="edge20" class="edge">
<title>s327:p1&#45;&gt;s329</title>
<path fill="none" stroke="#000000" d="M1382.687,-69.4156C1382.687,-40.8528 1414.1807,-31.1427 1444.5624,-28.4208"/>
<polygon fill="#000000" stroke="#000000" points="1445.0275,-31.8978 1454.776,-27.7485 1444.5677,-24.913 1445.0275,-31.8978"/>
</g>
<!-- s330 -->
<g id="node20" class="node">
<title>s330</title>
<ellipse fill="none" stroke="#000000" cx="1673.6734" cy="-68.4156" rx="68.4585" ry="29.3315"/>
<text text-anchor="middle" x="1673.6734" y="-72.6156" font-family="Times,serif" font-size="14.00" fill="#000000">s330 STRING</text>
<text text-anchor="middle" x="1673.6734" y="-55.8156" font-family="Times,serif" font-size="14.00" fill="#000000">&quot;}&quot;</text>
</g>
<!-- s328&#45;&gt;s330 -->
<g id="edge23" class="edge">
<title>s328&#45;&gt;s330</title>
<path fill="none" stroke="#000000" d="M1561.3704,-93.0183C1574.7918,-90.078 1589.1105,-86.9411 1602.8749,-83.9257"/>
<polygon fill="#000000" stroke="#000000" points="1603.7594,-87.315 1612.7788,-81.756 1602.2614,-80.4772 1603.7594,-87.315"/>
</g>
<!-- s329&#45;&gt;s330 -->
<g id="edge24" class="edge">
<title>s329&#45;&gt;s330</title>
<path fill="none" stroke="#000000" d="M1543.5389,-39.1564C1561.5619,-43.2087 1582.9544,-48.0185 1603.1344,-52.5558"/>
<polygon fill="#000000" stroke="#000000" points="1602.3993,-55.9778 1612.9235,-54.7567 1603.9348,-49.1483 1602.3993,-55.9778"/>
</g>
</g>
</svg>
