<?xml version="1.0" encoding="UTF-8" standalone="no"?>
<!DOCTYPE svg PUBLIC "-//W3C//DTD SVG 1.1//EN"
 "http://www.w3.org/Graphics/SVG/1.1/DTD/svg11.dtd">
<!-- Generated by graphviz version 2.40.1 (20161225.0304)
 -->
<!-- Title: _reserved_identifier Pages: 1 -->
<svg width="439pt" height="144pt"
 viewBox="0.00 0.00 439.04 143.83" xmlns="http://www.w3.org/2000/svg" xmlns:xlink="http://www.w3.org/1999/xlink">
<g id="graph0" class="graph" transform="scale(1 1) rotate(0) translate(4 139.8313)">
<title>_reserved_identifier</title>
<polygon fill="#ffffff" stroke="transparent" points="-4,4 -4,-139.8313 435.0368,-139.8313 435.0368,4 -4,4"/>
<!-- s1564 -->
<g id="node1" class="node">
<title>s1564</title>
<polygon fill="none" stroke="#000000" points="0,-46.6156 0,-88.2156 71.209,-88.2156 71.209,-46.6156 0,-46.6156"/>
<text text-anchor="middle" x="35.6045" y="-71.6156" font-family="Times,serif" font-size="14.00" fill="#000000">s1564</text>
<text text-anchor="middle" x="35.6045" y="-54.8156" font-family="Times,serif" font-size="14.00" fill="#000000">→ ALIAS</text>
</g>
<!-- s1565 -->
<g id="node2" class="node">
<title>s1565</title>
<polygon fill="none" stroke="#000000" points="108.209,-42.6156 108.209,-92.2156 209.8086,-92.2156 209.8086,-42.6156 108.209,-42.6156"/>
<text text-anchor="middle" x="149.2588" y="-71.6156" font-family="Times,serif" font-size="14.00" fill="#000000">s1565</text>
<text text-anchor="middle" x="149.2588" y="-54.8156" font-family="Times,serif" font-size="14.00" fill="#000000">→ CHOICE</text>
<polyline fill="none" stroke="#000000" points="190.3086,-42.6156 190.3086,-92.2156 "/>
<text text-anchor="middle" x="200.0586" y="-75.6156" font-family="Times,serif" font-size="14.00" fill="#000000"> </text>
<polyline fill="none" stroke="#000000" points="190.3086,-67.4156 209.8086,-67.4156 "/>
<text text-anchor="middle" x="200.0586" y="-50.8156" font-family="Times,serif" font-size="14.00" fill="#000000"> </text>
</g>
<!-- s1564&#45;&gt;s1565 -->
<g id="edge3" class="edge">
<title>s1564&#45;&gt;s1565</title>
<path fill="none" stroke="#000000" d="M71.2981,-67.4156C79.5732,-67.4156 88.6122,-67.4156 97.6417,-67.4156"/>
<polygon fill="#000000" stroke="#000000" points="97.791,-70.9157 107.791,-67.4156 97.7909,-63.9157 97.791,-70.9157"/>
</g>
<!-- s1566 -->
<g id="node3" class="node">
<title>s1566</title>
<ellipse fill="none" stroke="#000000" cx="357.8582" cy="-106.4156" rx="73.3577" ry="29.3315"/>
<text text-anchor="middle" x="357.8582" y="-110.6156" font-family="Times,serif" font-size="14.00" fill="#000000">s1566 STRING</text>
<text text-anchor="middle" x="357.8582" y="-93.8156" font-family="Times,serif" font-size="14.00" fill="#000000">&quot;default&quot;</text>
</g>
<!-- s1565&#45;&gt;s1566 -->
<g id="edge1" class="edge">
<title>s1565:p0&#45;&gt;s1566</title>
<path fill="none" stroke="#000000" d="M209.8086,-79.4156C235.1829,-79.4156 262.6124,-83.3016 286.8857,-88.125"/>
<polygon fill="#000000" stroke="#000000" points="286.223,-91.562 296.7253,-90.1643 287.6437,-84.7076 286.223,-91.562"/>
<text text-anchor="middle" x="247.2441" y="-87.6156" font-family="Times,serif" font-size="14.00" fill="#000000">default</text>
</g>
<!-- s1567 -->
<g id="node4" class="node">
<title>s1567</title>
<ellipse fill="none" stroke="#000000" cx="357.8582" cy="-29.4156" rx="73.3577" ry="29.3315"/>
<text text-anchor="middle" x="357.8582" y="-33.6156" font-family="Times,serif" font-size="14.00" fill="#000000">s1567 STRING</text>
<text text-anchor="middle" x="357.8582" y="-16.8156" font-family="Times,serif" font-size="14.00" fill="#000000">&quot;union&quot;</text>
</g>
<!-- s1565&#45;&gt;s1567 -->
<g id="edge2" class="edge">
<title>s1565:p1&#45;&gt;s1567</title>
<path fill="none" stroke="#000000" d="M209.8086,-55.4156C234.8122,-55.4156 261.838,-51.7737 285.8698,-47.2158"/>
<polygon fill="#000000" stroke="#000000" points="286.8422,-50.5913 295.9713,-45.2144 285.4817,-43.7248 286.8422,-50.5913"/>
<text text-anchor="middle" x="247.2441" y="-59.6156" font-family="Times,serif" font-size="14.00" fill="#000000">union</text>
</g>
</g>
</svg>
