<?xml version="1.0" encoding="UTF-8" standalone="no"?>
<!DOCTYPE svg PUBLIC "-//W3C//DTD SVG 1.1//EN"
 "http://www.w3.org/Graphics/SVG/1.1/DTD/svg11.dtd">
<!-- Generated by graphviz version 2.40.1 (20161225.0304)
 -->
<!-- Title: if_let_expression Pages: 1 -->
<svg width="1576pt" height="144pt"
 viewBox="0.00 0.00 1576.23 143.83" xmlns="http://www.w3.org/2000/svg" xmlns:xlink="http://www.w3.org/1999/xlink">
<g id="graph0" class="graph" transform="scale(1 1) rotate(0) translate(4 139.8313)">
<title>if_let_expression</title>
<polygon fill="#ffffff" stroke="transparent" points="-4,4 -4,-139.8313 1572.2259,-139.8313 1572.2259,4 -4,4"/>
<!-- s1156 -->
<g id="node1" class="node">
<title>s1156</title>
<polygon fill="none" stroke="#000000" points="0,-46.6156 0,-88.2156 56.4418,-88.2156 56.4418,-46.6156 0,-46.6156"/>
<text text-anchor="middle" x="28.2209" y="-71.6156" font-family="Times,serif" font-size="14.00" fill="#000000">s1156</text>
<text text-anchor="middle" x="28.2209" y="-54.8156" font-family="Times,serif" font-size="14.00" fill="#000000">→ SEQ</text>
</g>
<!-- s1157 -->
<g id="node2" class="node">
<title>s1157</title>
<ellipse fill="none" stroke="#000000" cx="166.6204" cy="-67.4156" rx="73.3577" ry="29.3315"/>
<text text-anchor="middle" x="166.6204" y="-71.6156" font-family="Times,serif" font-size="14.00" fill="#000000">s1157 STRING</text>
<text text-anchor="middle" x="166.6204" y="-54.8156" font-family="Times,serif" font-size="14.00" fill="#000000">&quot;if&quot;</text>
</g>
<!-- s1156&#45;&gt;s1157 -->
<g id="edge1" class="edge">
<title>s1156&#45;&gt;s1157</title>
<path fill="none" stroke="#000000" d="M56.5621,-67.4156C64.6032,-67.4156 73.7912,-67.4156 83.3533,-67.4156"/>
<polygon fill="#000000" stroke="#000000" points="83.4211,-70.9157 93.421,-67.4156 83.421,-63.9157 83.4211,-70.9157"/>
</g>
<!-- s1158 -->
<g id="node3" class="node">
<title>s1158</title>
<ellipse fill="none" stroke="#000000" cx="349.9777" cy="-67.4156" rx="73.3577" ry="29.3315"/>
<text text-anchor="middle" x="349.9777" y="-71.6156" font-family="Times,serif" font-size="14.00" fill="#000000">s1158 STRING</text>
<text text-anchor="middle" x="349.9777" y="-54.8156" font-family="Times,serif" font-size="14.00" fill="#000000">&quot;let&quot;</text>
</g>
<!-- s1157&#45;&gt;s1158 -->
<g id="edge2" class="edge">
<title>s1157&#45;&gt;s1158</title>
<path fill="none" stroke="#000000" d="M239.8785,-67.4156C248.5537,-67.4156 257.4584,-67.4156 266.2643,-67.4156"/>
<polygon fill="#000000" stroke="#000000" points="266.5367,-70.9157 276.5367,-67.4156 266.5366,-63.9157 266.5367,-70.9157"/>
</g>
<!-- s1159 -->
<g id="node4" class="node">
<title>s1159</title>
<g id="a_node4"><a xlink:href="rust-grammar.json._pattern.dot.svg" xlink:title="s1159 SYMBOL\n_pattern">
<ellipse fill="none" stroke="#000000" cx="538.839" cy="-67.4156" rx="78.8659" ry="29.3315"/>
<text text-anchor="middle" x="538.839" y="-71.6156" font-family="Times,serif" font-size="14.00" fill="#000000">s1159 SYMBOL</text>
<text text-anchor="middle" x="538.839" y="-54.8156" font-family="Times,serif" font-size="14.00" fill="#000000">_pattern</text>
</a>
</g>
</g>
<!-- s1158&#45;&gt;s1159 -->
<g id="edge3" class="edge">
<title>s1158&#45;&gt;s1159</title>
<path fill="none" stroke="#000000" d="M423.2667,-67.4156C432.0056,-67.4156 440.999,-67.4156 449.9265,-67.4156"/>
<polygon fill="#000000" stroke="#000000" points="449.9608,-70.9157 459.9608,-67.4156 449.9608,-63.9157 449.9608,-70.9157"/>
</g>
<!-- s1160 -->
<g id="node5" class="node">
<title>s1160</title>
<ellipse fill="none" stroke="#000000" cx="727.7004" cy="-67.4156" rx="73.3577" ry="29.3315"/>
<text text-anchor="middle" x="727.7004" y="-71.6156" font-family="Times,serif" font-size="14.00" fill="#000000">s1160 STRING</text>
<text text-anchor="middle" x="727.7004" y="-54.8156" font-family="Times,serif" font-size="14.00" fill="#000000">&quot;=&quot;</text>
</g>
<!-- s1159&#45;&gt;s1160 -->
<g id="edge4" class="edge">
<title>s1159&#45;&gt;s1160</title>
<path fill="none" stroke="#000000" d="M617.5657,-67.4156C626.2954,-67.4156 635.2093,-67.4156 643.9976,-67.4156"/>
<polygon fill="#000000" stroke="#000000" points="644.2381,-70.9157 654.2381,-67.4156 644.2381,-63.9157 644.2381,-70.9157"/>
</g>
<!-- s1161 -->
<g id="node6" class="node">
<title>s1161</title>
<g id="a_node6"><a xlink:href="rust-grammar.json._expression.dot.svg" xlink:title="s1161 SYMBOL\n_expression">
<ellipse fill="none" stroke="#000000" cx="916.5618" cy="-67.4156" rx="78.8659" ry="29.3315"/>
<text text-anchor="middle" x="916.5618" y="-71.6156" font-family="Times,serif" font-size="14.00" fill="#000000">s1161 SYMBOL</text>
<text text-anchor="middle" x="916.5618" y="-54.8156" font-family="Times,serif" font-size="14.00" fill="#000000">_expression</text>
</a>
</g>
</g>
<!-- s1160&#45;&gt;s1161 -->
<g id="edge5" class="edge">
<title>s1160&#45;&gt;s1161</title>
<path fill="none" stroke="#000000" d="M800.9894,-67.4156C809.7283,-67.4156 818.7218,-67.4156 827.6493,-67.4156"/>
<polygon fill="#000000" stroke="#000000" points="827.6836,-70.9157 837.6835,-67.4156 827.6835,-63.9157 827.6836,-70.9157"/>
</g>
<!-- s1162 -->
<g id="node7" class="node">
<title>s1162</title>
<g id="a_node7"><a xlink:href="rust-grammar.json.block.dot.svg" xlink:title="s1162 SYMBOL\nblock">
<ellipse fill="none" stroke="#000000" cx="1110.9272" cy="-67.4156" rx="78.8659" ry="29.3315"/>
<text text-anchor="middle" x="1110.9272" y="-71.6156" font-family="Times,serif" font-size="14.00" fill="#000000">s1162 SYMBOL</text>
<text text-anchor="middle" x="1110.9272" y="-54.8156" font-family="Times,serif" font-size="14.00" fill="#000000">block</text>
</a>
</g>
</g>
<!-- s1161&#45;&gt;s1162 -->
<g id="edge6" class="edge">
<title>s1161&#45;&gt;s1162</title>
<path fill="none" stroke="#000000" d="M995.3374,-67.4156C1004.1299,-67.4156 1013.131,-67.4156 1022.0384,-67.4156"/>
<polygon fill="#000000" stroke="#000000" points="1022.0394,-70.9157 1032.0394,-67.4156 1022.0393,-63.9157 1022.0394,-70.9157"/>
</g>
<!-- s1163 -->
<g id="node8" class="node">
<title>s1163</title>
<polygon fill="none" stroke="#000000" points="1226.61,-42.6156 1226.61,-92.2156 1328.2096,-92.2156 1328.2096,-42.6156 1226.61,-42.6156"/>
<text text-anchor="middle" x="1267.6598" y="-71.6156" font-family="Times,serif" font-size="14.00" fill="#000000">s1163</text>
<text text-anchor="middle" x="1267.6598" y="-54.8156" font-family="Times,serif" font-size="14.00" fill="#000000">→ CHOICE</text>
<polyline fill="none" stroke="#000000" points="1308.7096,-42.6156 1308.7096,-92.2156 "/>
<text text-anchor="middle" x="1318.4596" y="-75.6156" font-family="Times,serif" font-size="14.00" fill="#000000"> </text>
<polyline fill="none" stroke="#000000" points="1308.7096,-67.4156 1328.2096,-67.4156 "/>
<text text-anchor="middle" x="1318.4596" y="-50.8156" font-family="Times,serif" font-size="14.00" fill="#000000"> </text>
</g>
<!-- s1162&#45;&gt;s1163 -->
<g id="edge9" class="edge">
<title>s1162&#45;&gt;s1163</title>
<path fill="none" stroke="#000000" d="M1189.7806,-67.4156C1198.6237,-67.4156 1207.5329,-67.4156 1216.1077,-67.4156"/>
<polygon fill="#000000" stroke="#000000" points="1216.3742,-70.9157 1226.3742,-67.4156 1216.3742,-63.9157 1216.3742,-70.9157"/>
</g>
<!-- s1164 -->
<g id="node9" class="node">
<title>s1164</title>
<g id="a_node9"><a xlink:href="rust-grammar.json.else_tail.dot.svg" xlink:title="s1164 SYMBOL\nelse_tail">
<ellipse fill="none" stroke="#000000" cx="1489.5431" cy="-106.4156" rx="78.8659" ry="29.3315"/>
<text text-anchor="middle" x="1489.5431" y="-110.6156" font-family="Times,serif" font-size="14.00" fill="#000000">s1164 SYMBOL</text>
<text text-anchor="middle" x="1489.5431" y="-93.8156" font-family="Times,serif" font-size="14.00" fill="#000000">else_tail</text>
</a>
</g>
</g>
<!-- s1163&#45;&gt;s1164 -->
<g id="edge7" class="edge">
<title>s1163:p0&#45;&gt;s1164</title>
<path fill="none" stroke="#000000" d="M1328.2096,-79.4156C1356.2873,-79.4156 1386.7412,-83.4429 1413.548,-88.3866"/>
<polygon fill="#000000" stroke="#000000" points="1413.1507,-91.8741 1423.6309,-90.3197 1414.4688,-84.9993 1413.1507,-91.8741"/>
<text text-anchor="middle" x="1369.535" y="-88.6156" font-family="Times,serif" font-size="14.00" fill="#000000">else_tail</text>
</g>
<!-- s1165 -->
<g id="node10" class="node">
<title>s1165</title>
<ellipse fill="none" stroke="#000000" cx="1489.5431" cy="-29.4156" rx="45.3054" ry="29.3315"/>
<text text-anchor="middle" x="1489.5431" y="-33.6156" font-family="Times,serif" font-size="14.00" fill="#000000">s1165 </text>
<text text-anchor="middle" x="1489.5431" y="-16.8156" font-family="Times,serif" font-size="14.00" fill="#000000">BLANK</text>
</g>
<!-- s1163&#45;&gt;s1165 -->
<g id="edge8" class="edge">
<title>s1163:p1&#45;&gt;s1165</title>
<path fill="none" stroke="#000000" d="M1328.2096,-55.4156C1364.9457,-55.4156 1405.7947,-48.7638 1437.1973,-42.1892"/>
<polygon fill="#000000" stroke="#000000" points="1438.0064,-45.5953 1447.0438,-40.0659 1436.5307,-38.7526 1438.0064,-45.5953"/>
</g>
</g>
</svg>
