<?xml version="1.0" encoding="UTF-8" standalone="no"?>
<!DOCTYPE svg PUBLIC "-//W3C//DTD SVG 1.1//EN"
 "http://www.w3.org/Graphics/SVG/1.1/DTD/svg11.dtd">
<!-- Generated by graphviz version 2.40.1 (20161225.0304)
 -->
<!-- Title: _statement Pages: 1 -->
<svg width="482pt" height="144pt"
 viewBox="0.00 0.00 481.69 143.83" xmlns="http://www.w3.org/2000/svg" xmlns:xlink="http://www.w3.org/1999/xlink">
<g id="graph0" class="graph" transform="scale(1 1) rotate(0) translate(4 139.8313)">
<title>_statement</title>
<polygon fill="#ffffff" stroke="transparent" points="-4,4 -4,-139.8313 477.6924,-139.8313 477.6924,4 -4,4"/>
<!-- s3 -->
<g id="node1" class="node">
<title>s3</title>
<polygon fill="none" stroke="#000000" points="0,-42.6156 0,-92.2156 101.5996,-92.2156 101.5996,-42.6156 0,-42.6156"/>
<text text-anchor="middle" x="41.0498" y="-71.6156" font-family="Times,serif" font-size="14.00" fill="#000000">s3</text>
<text text-anchor="middle" x="41.0498" y="-54.8156" font-family="Times,serif" font-size="14.00" fill="#000000">→ CHOICE</text>
<polyline fill="none" stroke="#000000" points="82.0996,-42.6156 82.0996,-92.2156 "/>
<text text-anchor="middle" x="91.8496" y="-75.6156" font-family="Times,serif" font-size="14.00" fill="#000000"> </text>
<polyline fill="none" stroke="#000000" points="82.0996,-67.4156 101.5996,-67.4156 "/>
<text text-anchor="middle" x="91.8496" y="-50.8156" font-family="Times,serif" font-size="14.00" fill="#000000"> </text>
</g>
<!-- s4 -->
<g id="node2" class="node">
<title>s4</title>
<g id="a_node2"><a xlink:href="rust-grammar.json._expression_statement.dot.svg" xlink:title="s4 SYMBOL\n_expression_statement">
<ellipse fill="none" stroke="#000000" cx="370.5668" cy="-106.4156" rx="101.4685" ry="29.3315"/>
<text text-anchor="middle" x="370.5668" y="-110.6156" font-family="Times,serif" font-size="14.00" fill="#000000">s4 SYMBOL</text>
<text text-anchor="middle" x="370.5668" y="-93.8156" font-family="Times,serif" font-size="14.00" fill="#000000">_expression_statement</text>
</a>
</g>
</g>
<!-- s3&#45;&gt;s4 -->
<g id="edge1" class="edge">
<title>s3:p0&#45;&gt;s4</title>
<path fill="none" stroke="#000000" d="M101.5996,-79.4156C157.6961,-79.4156 220.046,-85.302 270.5798,-91.5778"/>
<polygon fill="#000000" stroke="#000000" points="270.1633,-95.0529 280.5237,-92.8365 271.0424,-88.1084 270.1633,-95.0529"/>
<text text-anchor="middle" x="184.5204" y="-92.6156" font-family="Times,serif" font-size="14.00" fill="#000000">_expression_statement</text>
</g>
<!-- s5 -->
<g id="node3" class="node">
<title>s5</title>
<g id="a_node3"><a xlink:href="rust-grammar.json._declaration_statement.dot.svg" xlink:title="s5 SYMBOL\n_declaration_statement">
<ellipse fill="none" stroke="#000000" cx="370.5668" cy="-29.4156" rx="103.2513" ry="29.3315"/>
<text text-anchor="middle" x="370.5668" y="-33.6156" font-family="Times,serif" font-size="14.00" fill="#000000">s5 SYMBOL</text>
<text text-anchor="middle" x="370.5668" y="-16.8156" font-family="Times,serif" font-size="14.00" fill="#000000">_declaration_statement</text>
</a>
</g>
</g>
<!-- s3&#45;&gt;s5 -->
<g id="edge2" class="edge">
<title>s3:p1&#45;&gt;s5</title>
<path fill="none" stroke="#000000" d="M101.5996,-55.4156C156.7908,-55.4156 218.0581,-49.9248 268.1612,-43.9897"/>
<polygon fill="#000000" stroke="#000000" points="268.844,-47.4328 278.3519,-42.7584 268.0043,-40.4833 268.844,-47.4328"/>
<text text-anchor="middle" x="184.5204" y="-59.6156" font-family="Times,serif" font-size="14.00" fill="#000000">_declaration_statement</text>
</g>
</g>
</svg>
