<?xml version="1.0" encoding="UTF-8" standalone="no"?>
<!DOCTYPE svg PUBLIC "-//W3C//DTD SVG 1.1//EN"
 "http://www.w3.org/Graphics/SVG/1.1/DTD/svg11.dtd">
<!-- Generated by graphviz version 2.40.1 (20161225.0304)
 -->
<!-- Title: index_expression Pages: 1 -->
<svg width="917pt" height="67pt"
 viewBox="0.00 0.00 916.90 66.83" xmlns="http://www.w3.org/2000/svg" xmlns:xlink="http://www.w3.org/1999/xlink">
<g id="graph0" class="graph" transform="scale(1 1) rotate(0) translate(4 62.8313)">
<title>index_expression</title>
<polygon fill="#ffffff" stroke="transparent" points="-4,4 -4,-62.8313 912.8957,-62.8313 912.8957,4 -4,4"/>
<!-- s1292 -->
<g id="node1" class="node">
<title>s1292</title>
<polygon fill="none" stroke="#000000" points="0,-8.6156 0,-50.2156 65.0084,-50.2156 65.0084,-8.6156 0,-8.6156"/>
<text text-anchor="middle" x="32.5042" y="-33.6156" font-family="Times,serif" font-size="14.00" fill="#000000">s1292</text>
<text text-anchor="middle" x="32.5042" y="-16.8156" font-family="Times,serif" font-size="14.00" fill="#000000">→ PREC</text>
</g>
<!-- s1293 -->
<g id="node2" class="node">
<title>s1293</title>
<polygon fill="none" stroke="#000000" points="101.0084,-8.6156 101.0084,-50.2156 157.4502,-50.2156 157.4502,-8.6156 101.0084,-8.6156"/>
<text text-anchor="middle" x="129.2293" y="-33.6156" font-family="Times,serif" font-size="14.00" fill="#000000">s1293</text>
<text text-anchor="middle" x="129.2293" y="-16.8156" font-family="Times,serif" font-size="14.00" fill="#000000">→ SEQ</text>
</g>
<!-- s1292&#45;&gt;s1293 -->
<g id="edge5" class="edge">
<title>s1292&#45;&gt;s1293</title>
<path fill="none" stroke="#000000" d="M65.2509,-29.4156C73.4333,-29.4156 82.2837,-29.4156 90.7169,-29.4156"/>
<polygon fill="#000000" stroke="#000000" points="90.7236,-32.9157 100.7236,-29.4156 90.7235,-25.9157 90.7236,-32.9157"/>
</g>
<!-- s1294 -->
<g id="node3" class="node">
<title>s1294</title>
<g id="a_node3"><a xlink:href="rust-grammar.json._expression.dot.svg" xlink:title="s1294 SYMBOL\n_expression">
<ellipse fill="none" stroke="#000000" cx="272.1329" cy="-29.4156" rx="78.8659" ry="29.3315"/>
<text text-anchor="middle" x="272.1329" y="-33.6156" font-family="Times,serif" font-size="14.00" fill="#000000">s1294 SYMBOL</text>
<text text-anchor="middle" x="272.1329" y="-16.8156" font-family="Times,serif" font-size="14.00" fill="#000000">_expression</text>
</a>
</g>
</g>
<!-- s1293&#45;&gt;s1294 -->
<g id="edge1" class="edge">
<title>s1293&#45;&gt;s1294</title>
<path fill="none" stroke="#000000" d="M157.4625,-29.4156C165.1682,-29.4156 173.9482,-29.4156 183.1411,-29.4156"/>
<polygon fill="#000000" stroke="#000000" points="183.2471,-32.9157 193.2471,-29.4156 183.2471,-25.9157 183.2471,-32.9157"/>
</g>
<!-- s1295 -->
<g id="node4" class="node">
<title>s1295</title>
<ellipse fill="none" stroke="#000000" cx="459.9943" cy="-29.4156" rx="73.3577" ry="29.3315"/>
<text text-anchor="middle" x="459.9943" y="-33.6156" font-family="Times,serif" font-size="14.00" fill="#000000">s1295 STRING</text>
<text text-anchor="middle" x="459.9943" y="-16.8156" font-family="Times,serif" font-size="14.00" fill="#000000">&quot;[&quot;</text>
</g>
<!-- s1294&#45;&gt;s1295 -->
<g id="edge2" class="edge">
<title>s1294&#45;&gt;s1295</title>
<path fill="none" stroke="#000000" d="M350.9865,-29.4156C359.41,-29.4156 367.9997,-29.4156 376.4748,-29.4156"/>
<polygon fill="#000000" stroke="#000000" points="376.737,-32.9157 386.737,-29.4156 376.737,-25.9157 376.737,-32.9157"/>
</g>
<!-- s1296 -->
<g id="node5" class="node">
<title>s1296</title>
<g id="a_node5"><a xlink:href="rust-grammar.json._expression.dot.svg" xlink:title="s1296 SYMBOL\n_expression">
<ellipse fill="none" stroke="#000000" cx="647.8557" cy="-29.4156" rx="78.8659" ry="29.3315"/>
<text text-anchor="middle" x="647.8557" y="-33.6156" font-family="Times,serif" font-size="14.00" fill="#000000">s1296 SYMBOL</text>
<text text-anchor="middle" x="647.8557" y="-16.8156" font-family="Times,serif" font-size="14.00" fill="#000000">_expression</text>
</a>
</g>
</g>
<!-- s1295&#45;&gt;s1296 -->
<g id="edge3" class="edge">
<title>s1295&#45;&gt;s1296</title>
<path fill="none" stroke="#000000" d="M533.4335,-29.4156C541.7009,-29.4156 550.1908,-29.4156 558.63,-29.4156"/>
<polygon fill="#000000" stroke="#000000" points="558.8804,-32.9157 568.8804,-29.4156 558.8804,-25.9157 558.8804,-32.9157"/>
</g>
<!-- s1297 -->
<g id="node6" class="node">
<title>s1297</title>
<ellipse fill="none" stroke="#000000" cx="835.717" cy="-29.4156" rx="73.3577" ry="29.3315"/>
<text text-anchor="middle" x="835.717" y="-33.6156" font-family="Times,serif" font-size="14.00" fill="#000000">s1297 STRING</text>
<text text-anchor="middle" x="835.717" y="-16.8156" font-family="Times,serif" font-size="14.00" fill="#000000">&quot;]&quot;</text>
</g>
<!-- s1296&#45;&gt;s1297 -->
<g id="edge4" class="edge">
<title>s1296&#45;&gt;s1297</title>
<path fill="none" stroke="#000000" d="M726.7093,-29.4156C735.1328,-29.4156 743.7224,-29.4156 752.1975,-29.4156"/>
<polygon fill="#000000" stroke="#000000" points="752.4598,-32.9157 762.4597,-29.4156 752.4597,-25.9157 752.4598,-32.9157"/>
</g>
</g>
</svg>
