<?xml version="1.0" encoding="UTF-8" standalone="no"?>
<!DOCTYPE svg PUBLIC "-//W3C//DTD SVG 1.1//EN"
 "http://www.w3.org/Graphics/SVG/1.1/DTD/svg11.dtd">
<!-- Generated by graphviz version 2.40.1 (20161225.0304)
 -->
<!-- Title: token_tree_pattern Pages: 1 -->
<svg width="823pt" height="221pt"
 viewBox="0.00 0.00 823.43 220.83" xmlns="http://www.w3.org/2000/svg" xmlns:xlink="http://www.w3.org/1999/xlink">
<g id="graph0" class="graph" transform="scale(1 1) rotate(0) translate(4 216.8313)">
<title>token_tree_pattern</title>
<polygon fill="#ffffff" stroke="transparent" points="-4,4 -4,-216.8313 819.4292,-216.8313 819.4292,4 -4,4"/>
<!-- s71 -->
<g id="node1" class="node">
<title>s71</title>
<polygon fill="none" stroke="#000000" points="0,-69.2156 0,-143.6156 101.5996,-143.6156 101.5996,-69.2156 0,-69.2156"/>
<text text-anchor="middle" x="41.0498" y="-110.6156" font-family="Times,serif" font-size="14.00" fill="#000000">s71</text>
<text text-anchor="middle" x="41.0498" y="-93.8156" font-family="Times,serif" font-size="14.00" fill="#000000">→ CHOICE</text>
<polyline fill="none" stroke="#000000" points="82.0996,-69.2156 82.0996,-143.6156 "/>
<text text-anchor="middle" x="91.8496" y="-127.0156" font-family="Times,serif" font-size="14.00" fill="#000000"> </text>
<polyline fill="none" stroke="#000000" points="82.0996,-118.8156 101.5996,-118.8156 "/>
<text text-anchor="middle" x="91.8496" y="-102.2156" font-family="Times,serif" font-size="14.00" fill="#000000"> </text>
<polyline fill="none" stroke="#000000" points="82.0996,-94.0156 101.5996,-94.0156 "/>
<text text-anchor="middle" x="91.8496" y="-77.4156" font-family="Times,serif" font-size="14.00" fill="#000000"> </text>
</g>
<!-- s72 -->
<g id="node2" class="node">
<title>s72</title>
<polygon fill="none" stroke="#000000" points="137.5996,-154.6156 137.5996,-196.2156 194.0414,-196.2156 194.0414,-154.6156 137.5996,-154.6156"/>
<text text-anchor="middle" x="165.8205" y="-179.6156" font-family="Times,serif" font-size="14.00" fill="#000000">s72</text>
<text text-anchor="middle" x="165.8205" y="-162.8156" font-family="Times,serif" font-size="14.00" fill="#000000">→ SEQ</text>
</g>
<!-- s71&#45;&gt;s72 -->
<g id="edge6" class="edge">
<title>s71:p0&#45;&gt;s72</title>
<path fill="none" stroke="#000000" d="M101.5996,-131.4156C115.816,-131.4156 129.1921,-138.8441 140.0182,-147.5966"/>
<polygon fill="#000000" stroke="#000000" points="137.9601,-150.4486 147.7717,-154.4466 142.5948,-145.2026 137.9601,-150.4486"/>
</g>
<!-- s77 -->
<g id="node7" class="node">
<title>s77</title>
<polygon fill="none" stroke="#000000" points="137.5996,-85.6156 137.5996,-127.2156 194.0414,-127.2156 194.0414,-85.6156 137.5996,-85.6156"/>
<text text-anchor="middle" x="165.8205" y="-110.6156" font-family="Times,serif" font-size="14.00" fill="#000000">s77</text>
<text text-anchor="middle" x="165.8205" y="-93.8156" font-family="Times,serif" font-size="14.00" fill="#000000">→ SEQ</text>
</g>
<!-- s71&#45;&gt;s77 -->
<g id="edge12" class="edge">
<title>s71:p1&#45;&gt;s77</title>
<path fill="none" stroke="#000000" d="M101.5996,-106.4156C109.9225,-106.4156 118.8521,-106.4156 127.327,-106.4156"/>
<polygon fill="#000000" stroke="#000000" points="127.3675,-109.9157 137.3675,-106.4156 127.3675,-102.9157 127.3675,-109.9157"/>
</g>
<!-- s82 -->
<g id="node12" class="node">
<title>s82</title>
<polygon fill="none" stroke="#000000" points="137.5996,-16.6156 137.5996,-58.2156 194.0414,-58.2156 194.0414,-16.6156 137.5996,-16.6156"/>
<text text-anchor="middle" x="165.8205" y="-41.6156" font-family="Times,serif" font-size="14.00" fill="#000000">s82</text>
<text text-anchor="middle" x="165.8205" y="-24.8156" font-family="Times,serif" font-size="14.00" fill="#000000">→ SEQ</text>
</g>
<!-- s71&#45;&gt;s82 -->
<g id="edge18" class="edge">
<title>s71:p2&#45;&gt;s82</title>
<path fill="none" stroke="#000000" d="M101.5996,-81.4156C115.816,-81.4156 129.1921,-73.9871 140.0182,-65.2347"/>
<polygon fill="#000000" stroke="#000000" points="142.5948,-67.6287 147.7717,-58.3847 137.9601,-62.3827 142.5948,-67.6287"/>
</g>
<!-- s73 -->
<g id="node3" class="node">
<title>s73</title>
<ellipse fill="none" stroke="#000000" cx="293.3205" cy="-183.4156" rx="63.059" ry="29.3315"/>
<text text-anchor="middle" x="293.3205" y="-187.6156" font-family="Times,serif" font-size="14.00" fill="#000000">s73 STRING</text>
<text text-anchor="middle" x="293.3205" y="-170.8156" font-family="Times,serif" font-size="14.00" fill="#000000">&quot;(&quot;</text>
</g>
<!-- s72&#45;&gt;s73 -->
<g id="edge1" class="edge">
<title>s72&#45;&gt;s73</title>
<path fill="none" stroke="#000000" d="M194.1169,-177.1911C202.0368,-177.688 211.0271,-178.2521 220.2844,-178.833"/>
<polygon fill="#000000" stroke="#000000" points="220.1968,-182.3343 230.3964,-179.4675 220.6352,-175.348 220.1968,-182.3343"/>
</g>
<!-- s74 -->
<g id="node4" class="node">
<title>s74</title>
<polygon fill="none" stroke="#000000" points="392.5997,-162.6156 392.5997,-204.2156 475.4833,-204.2156 475.4833,-162.6156 392.5997,-162.6156"/>
<text text-anchor="middle" x="434.0415" y="-187.6156" font-family="Times,serif" font-size="14.00" fill="#000000">s74</text>
<text text-anchor="middle" x="434.0415" y="-170.8156" font-family="Times,serif" font-size="14.00" fill="#000000">→ REPEAT</text>
</g>
<!-- s73&#45;&gt;s74 -->
<g id="edge4" class="edge">
<title>s73&#45;&gt;s74</title>
<path fill="none" stroke="#000000" d="M356.6827,-183.4156C365.1975,-183.4156 373.8503,-183.4156 382.1358,-183.4156"/>
<polygon fill="#000000" stroke="#000000" points="382.3962,-186.9157 392.3962,-183.4156 382.3961,-179.9157 382.3962,-186.9157"/>
</g>
<!-- s75 -->
<g id="node5" class="node">
<title>s75</title>
<g id="a_node5"><a xlink:href="rust-grammar.json._token_pattern.dot.svg" xlink:title="s75 SYMBOL\n_token_pattern">
<ellipse fill="none" stroke="#000000" cx="582.1771" cy="-183.4156" rx="70.8882" ry="29.3315"/>
<text text-anchor="middle" x="582.1771" y="-187.6156" font-family="Times,serif" font-size="14.00" fill="#000000">s75 SYMBOL</text>
<text text-anchor="middle" x="582.1771" y="-170.8156" font-family="Times,serif" font-size="14.00" fill="#000000">_token_pattern</text>
</a>
</g>
</g>
<!-- s74&#45;&gt;s75 -->
<g id="edge2" class="edge">
<title>s74&#45;&gt;s75</title>
<path fill="none" stroke="#000000" d="M475.6997,-177.2763C484.3094,-176.9303 493.6469,-176.7314 503.0938,-176.6794"/>
<polygon fill="#000000" stroke="#000000" points="503.3577,-180.1794 513.3582,-176.6807 503.3587,-173.1794 503.3577,-180.1794"/>
</g>
<!-- s75&#45;&gt;s74 -->
<g id="edge3" class="edge">
<title>s75&#45;&gt;s74</title>
<path fill="none" stroke="#000000" d="M513.3582,-190.1506C504.1142,-190.2038 494.7606,-190.1162 485.8772,-189.8878"/>
<polygon fill="#000000" stroke="#000000" points="485.8088,-186.3838 475.6997,-189.555 485.5799,-193.38 485.8088,-186.3838"/>
</g>
<!-- s76 -->
<g id="node6" class="node">
<title>s76</title>
<ellipse fill="none" stroke="#000000" cx="752.1501" cy="-183.4156" rx="63.059" ry="29.3315"/>
<text text-anchor="middle" x="752.1501" y="-187.6156" font-family="Times,serif" font-size="14.00" fill="#000000">s76 STRING</text>
<text text-anchor="middle" x="752.1501" y="-170.8156" font-family="Times,serif" font-size="14.00" fill="#000000">&quot;)&quot;</text>
</g>
<!-- s75&#45;&gt;s76 -->
<g id="edge5" class="edge">
<title>s75&#45;&gt;s76</title>
<path fill="none" stroke="#000000" d="M653.2761,-183.4156C661.6191,-183.4156 670.1456,-183.4156 678.5223,-183.4156"/>
<polygon fill="#000000" stroke="#000000" points="678.6432,-186.9157 688.6432,-183.4156 678.6431,-179.9157 678.6432,-186.9157"/>
</g>
<!-- s78 -->
<g id="node8" class="node">
<title>s78</title>
<ellipse fill="none" stroke="#000000" cx="293.3205" cy="-106.4156" rx="63.059" ry="29.3315"/>
<text text-anchor="middle" x="293.3205" y="-110.6156" font-family="Times,serif" font-size="14.00" fill="#000000">s78 STRING</text>
<text text-anchor="middle" x="293.3205" y="-93.8156" font-family="Times,serif" font-size="14.00" fill="#000000">&quot;[&quot;</text>
</g>
<!-- s77&#45;&gt;s78 -->
<g id="edge7" class="edge">
<title>s77&#45;&gt;s78</title>
<path fill="none" stroke="#000000" d="M194.1169,-106.4156C201.8459,-106.4156 210.5944,-106.4156 219.6156,-106.4156"/>
<polygon fill="#000000" stroke="#000000" points="219.877,-109.9157 229.8769,-106.4156 219.8769,-102.9157 219.877,-109.9157"/>
</g>
<!-- s79 -->
<g id="node9" class="node">
<title>s79</title>
<polygon fill="none" stroke="#000000" points="392.5997,-85.6156 392.5997,-127.2156 475.4833,-127.2156 475.4833,-85.6156 392.5997,-85.6156"/>
<text text-anchor="middle" x="434.0415" y="-110.6156" font-family="Times,serif" font-size="14.00" fill="#000000">s79</text>
<text text-anchor="middle" x="434.0415" y="-93.8156" font-family="Times,serif" font-size="14.00" fill="#000000">→ REPEAT</text>
</g>
<!-- s78&#45;&gt;s79 -->
<g id="edge10" class="edge">
<title>s78&#45;&gt;s79</title>
<path fill="none" stroke="#000000" d="M356.6827,-106.4156C365.1975,-106.4156 373.8503,-106.4156 382.1358,-106.4156"/>
<polygon fill="#000000" stroke="#000000" points="382.3962,-109.9157 392.3962,-106.4156 382.3961,-102.9157 382.3962,-109.9157"/>
</g>
<!-- s80 -->
<g id="node10" class="node">
<title>s80</title>
<g id="a_node10"><a xlink:href="rust-grammar.json._token_pattern.dot.svg" xlink:title="s80 SYMBOL\n_token_pattern">
<ellipse fill="none" stroke="#000000" cx="582.1771" cy="-106.4156" rx="70.8882" ry="29.3315"/>
<text text-anchor="middle" x="582.1771" y="-110.6156" font-family="Times,serif" font-size="14.00" fill="#000000">s80 SYMBOL</text>
<text text-anchor="middle" x="582.1771" y="-93.8156" font-family="Times,serif" font-size="14.00" fill="#000000">_token_pattern</text>
</a>
</g>
</g>
<!-- s79&#45;&gt;s80 -->
<g id="edge8" class="edge">
<title>s79&#45;&gt;s80</title>
<path fill="none" stroke="#000000" d="M475.6997,-100.2763C484.3094,-99.9303 493.6469,-99.7314 503.0938,-99.6794"/>
<polygon fill="#000000" stroke="#000000" points="503.3577,-103.1794 513.3582,-99.6807 503.3587,-96.1794 503.3577,-103.1794"/>
</g>
<!-- s80&#45;&gt;s79 -->
<g id="edge9" class="edge">
<title>s80&#45;&gt;s79</title>
<path fill="none" stroke="#000000" d="M513.3582,-113.1506C504.1142,-113.2038 494.7606,-113.1162 485.8772,-112.8878"/>
<polygon fill="#000000" stroke="#000000" points="485.8088,-109.3838 475.6997,-112.555 485.5799,-116.38 485.8088,-109.3838"/>
</g>
<!-- s81 -->
<g id="node11" class="node">
<title>s81</title>
<ellipse fill="none" stroke="#000000" cx="752.1501" cy="-106.4156" rx="63.059" ry="29.3315"/>
<text text-anchor="middle" x="752.1501" y="-110.6156" font-family="Times,serif" font-size="14.00" fill="#000000">s81 STRING</text>
<text text-anchor="middle" x="752.1501" y="-93.8156" font-family="Times,serif" font-size="14.00" fill="#000000">&quot;]&quot;</text>
</g>
<!-- s80&#45;&gt;s81 -->
<g id="edge11" class="edge">
<title>s80&#45;&gt;s81</title>
<path fill="none" stroke="#000000" d="M653.2761,-106.4156C661.6191,-106.4156 670.1456,-106.4156 678.5223,-106.4156"/>
<polygon fill="#000000" stroke="#000000" points="678.6432,-109.9157 688.6432,-106.4156 678.6431,-102.9157 678.6432,-109.9157"/>
</g>
<!-- s83 -->
<g id="node13" class="node">
<title>s83</title>
<ellipse fill="none" stroke="#000000" cx="293.3205" cy="-29.4156" rx="63.059" ry="29.3315"/>
<text text-anchor="middle" x="293.3205" y="-33.6156" font-family="Times,serif" font-size="14.00" fill="#000000">s83 STRING</text>
<text text-anchor="middle" x="293.3205" y="-16.8156" font-family="Times,serif" font-size="14.00" fill="#000000">&quot;{&quot;</text>
</g>
<!-- s82&#45;&gt;s83 -->
<g id="edge13" class="edge">
<title>s82&#45;&gt;s83</title>
<path fill="none" stroke="#000000" d="M194.1169,-35.6402C202.0368,-35.1432 211.0271,-34.5791 220.2844,-33.9983"/>
<polygon fill="#000000" stroke="#000000" points="220.6352,-37.4833 230.3964,-33.3638 220.1968,-30.497 220.6352,-37.4833"/>
</g>
<!-- s84 -->
<g id="node14" class="node">
<title>s84</title>
<polygon fill="none" stroke="#000000" points="392.5997,-8.6156 392.5997,-50.2156 475.4833,-50.2156 475.4833,-8.6156 392.5997,-8.6156"/>
<text text-anchor="middle" x="434.0415" y="-33.6156" font-family="Times,serif" font-size="14.00" fill="#000000">s84</text>
<text text-anchor="middle" x="434.0415" y="-16.8156" font-family="Times,serif" font-size="14.00" fill="#000000">→ REPEAT</text>
</g>
<!-- s83&#45;&gt;s84 -->
<g id="edge16" class="edge">
<title>s83&#45;&gt;s84</title>
<path fill="none" stroke="#000000" d="M356.6827,-29.4156C365.1975,-29.4156 373.8503,-29.4156 382.1358,-29.4156"/>
<polygon fill="#000000" stroke="#000000" points="382.3962,-32.9157 392.3962,-29.4156 382.3961,-25.9157 382.3962,-32.9157"/>
</g>
<!-- s85 -->
<g id="node15" class="node">
<title>s85</title>
<g id="a_node15"><a xlink:href="rust-grammar.json._token_pattern.dot.svg" xlink:title="s85 SYMBOL\n_token_pattern">
<ellipse fill="none" stroke="#000000" cx="582.1771" cy="-29.4156" rx="70.8882" ry="29.3315"/>
<text text-anchor="middle" x="582.1771" y="-33.6156" font-family="Times,serif" font-size="14.00" fill="#000000">s85 SYMBOL</text>
<text text-anchor="middle" x="582.1771" y="-16.8156" font-family="Times,serif" font-size="14.00" fill="#000000">_token_pattern</text>
</a>
</g>
</g>
<!-- s84&#45;&gt;s85 -->
<g id="edge14" class="edge">
<title>s84&#45;&gt;s85</title>
<path fill="none" stroke="#000000" d="M475.6997,-23.2763C484.3094,-22.9303 493.6469,-22.7314 503.0938,-22.6794"/>
<polygon fill="#000000" stroke="#000000" points="503.3577,-26.1794 513.3582,-22.6807 503.3587,-19.1794 503.3577,-26.1794"/>
</g>
<!-- s85&#45;&gt;s84 -->
<g id="edge15" class="edge">
<title>s85&#45;&gt;s84</title>
<path fill="none" stroke="#000000" d="M513.3582,-36.1506C504.1142,-36.2038 494.7606,-36.1162 485.8772,-35.8878"/>
<polygon fill="#000000" stroke="#000000" points="485.8088,-32.3838 475.6997,-35.555 485.5799,-39.38 485.8088,-32.3838"/>
</g>
<!-- s86 -->
<g id="node16" class="node">
<title>s86</title>
<ellipse fill="none" stroke="#000000" cx="752.1501" cy="-29.4156" rx="63.059" ry="29.3315"/>
<text text-anchor="middle" x="752.1501" y="-33.6156" font-family="Times,serif" font-size="14.00" fill="#000000">s86 STRING</text>
<text text-anchor="middle" x="752.1501" y="-16.8156" font-family="Times,serif" font-size="14.00" fill="#000000">&quot;}&quot;</text>
</g>
<!-- s85&#45;&gt;s86 -->
<g id="edge17" class="edge">
<title>s85&#45;&gt;s86</title>
<path fill="none" stroke="#000000" d="M653.2761,-29.4156C661.6191,-29.4156 670.1456,-29.4156 678.5223,-29.4156"/>
<polygon fill="#000000" stroke="#000000" points="678.6432,-32.9157 688.6432,-29.4156 678.6431,-25.9157 678.6432,-32.9157"/>
</g>
</g>
</svg>
