<?xml version="1.0" encoding="UTF-8" standalone="no"?>
<!DOCTYPE svg PUBLIC "-//W3C//DTD SVG 1.1//EN"
 "http://www.w3.org/Graphics/SVG/1.1/DTD/svg11.dtd">
<!-- Generated by graphviz version 2.40.1 (20161225.0304)
 -->
<!-- Title: field_expression Pages: 1 -->
<svg width="967pt" height="144pt"
 viewBox="0.00 0.00 967.11 143.83" xmlns="http://www.w3.org/2000/svg" xmlns:xlink="http://www.w3.org/1999/xlink">
<g id="graph0" class="graph" transform="scale(1 1) rotate(0) translate(4 139.8313)">
<title>field_expression</title>
<polygon fill="#ffffff" stroke="transparent" points="-4,4 -4,-139.8313 963.1072,-139.8313 963.1072,4 -4,4"/>
<!-- s1303 -->
<g id="node1" class="node">
<title>s1303</title>
<polygon fill="none" stroke="#000000" points="0,-46.6156 0,-88.2156 65.0084,-88.2156 65.0084,-46.6156 0,-46.6156"/>
<text text-anchor="middle" x="32.5042" y="-71.6156" font-family="Times,serif" font-size="14.00" fill="#000000">s1303</text>
<text text-anchor="middle" x="32.5042" y="-54.8156" font-family="Times,serif" font-size="14.00" fill="#000000">→ PREC</text>
</g>
<!-- s1304 -->
<g id="node2" class="node">
<title>s1304</title>
<polygon fill="none" stroke="#000000" points="102.0084,-46.6156 102.0084,-88.2156 158.4502,-88.2156 158.4502,-46.6156 102.0084,-46.6156"/>
<text text-anchor="middle" x="130.2293" y="-71.6156" font-family="Times,serif" font-size="14.00" fill="#000000">s1304</text>
<text text-anchor="middle" x="130.2293" y="-54.8156" font-family="Times,serif" font-size="14.00" fill="#000000">→ SEQ</text>
</g>
<!-- s1303&#45;&gt;s1304 -->
<g id="edge6" class="edge">
<title>s1303&#45;&gt;s1304</title>
<path fill="none" stroke="#000000" d="M65.0452,-67.4156C73.5855,-67.4156 82.8774,-67.4156 91.6984,-67.4156"/>
<polygon fill="#000000" stroke="#000000" points="91.7642,-70.9157 101.7641,-67.4156 91.7641,-63.9157 91.7642,-70.9157"/>
</g>
<!-- s1305 -->
<g id="node3" class="node">
<title>s1305</title>
<g id="a_node3"><a xlink:href="rust-grammar.json._expression.dot.svg" xlink:title="s1305 SYMBOL\n_expression">
<ellipse fill="none" stroke="#000000" cx="274.1329" cy="-67.4156" rx="78.8659" ry="29.3315"/>
<text text-anchor="middle" x="274.1329" y="-71.6156" font-family="Times,serif" font-size="14.00" fill="#000000">s1305 SYMBOL</text>
<text text-anchor="middle" x="274.1329" y="-54.8156" font-family="Times,serif" font-size="14.00" fill="#000000">_expression</text>
</a>
</g>
</g>
<!-- s1304&#45;&gt;s1305 -->
<g id="edge1" class="edge">
<title>s1304&#45;&gt;s1305</title>
<path fill="none" stroke="#000000" d="M158.66,-67.4156C166.6239,-67.4156 175.7271,-67.4156 185.2498,-67.4156"/>
<polygon fill="#000000" stroke="#000000" points="185.2952,-70.9157 195.2952,-67.4156 185.2951,-63.9157 185.2952,-70.9157"/>
</g>
<!-- s1306 -->
<g id="node4" class="node">
<title>s1306</title>
<ellipse fill="none" stroke="#000000" cx="462.9943" cy="-67.4156" rx="73.3577" ry="29.3315"/>
<text text-anchor="middle" x="462.9943" y="-71.6156" font-family="Times,serif" font-size="14.00" fill="#000000">s1306 STRING</text>
<text text-anchor="middle" x="462.9943" y="-54.8156" font-family="Times,serif" font-size="14.00" fill="#000000">&quot;.&quot;</text>
</g>
<!-- s1305&#45;&gt;s1306 -->
<g id="edge2" class="edge">
<title>s1305&#45;&gt;s1306</title>
<path fill="none" stroke="#000000" d="M352.8596,-67.4156C361.5893,-67.4156 370.5032,-67.4156 379.2915,-67.4156"/>
<polygon fill="#000000" stroke="#000000" points="379.532,-70.9157 389.532,-67.4156 379.532,-63.9157 379.532,-70.9157"/>
</g>
<!-- s1307 -->
<g id="node5" class="node">
<title>s1307</title>
<polygon fill="none" stroke="#000000" points="573.1729,-42.6156 573.1729,-92.2156 674.7725,-92.2156 674.7725,-42.6156 573.1729,-42.6156"/>
<text text-anchor="middle" x="614.2227" y="-71.6156" font-family="Times,serif" font-size="14.00" fill="#000000">s1307</text>
<text text-anchor="middle" x="614.2227" y="-54.8156" font-family="Times,serif" font-size="14.00" fill="#000000">→ CHOICE</text>
<polyline fill="none" stroke="#000000" points="655.2725,-42.6156 655.2725,-92.2156 "/>
<text text-anchor="middle" x="665.0225" y="-75.6156" font-family="Times,serif" font-size="14.00" fill="#000000"> </text>
<polyline fill="none" stroke="#000000" points="655.2725,-67.4156 674.7725,-67.4156 "/>
<text text-anchor="middle" x="665.0225" y="-50.8156" font-family="Times,serif" font-size="14.00" fill="#000000"> </text>
</g>
<!-- s1306&#45;&gt;s1307 -->
<g id="edge5" class="edge">
<title>s1306&#45;&gt;s1307</title>
<path fill="none" stroke="#000000" d="M536.4174,-67.4156C545.1424,-67.4156 553.979,-67.4156 562.5129,-67.4156"/>
<polygon fill="#000000" stroke="#000000" points="562.7444,-70.9157 572.7443,-67.4156 562.7443,-63.9157 562.7444,-70.9157"/>
</g>
<!-- s1308 -->
<g id="node6" class="node">
<title>s1308</title>
<g id="a_node6"><a xlink:href="rust-grammar.json._field_identifier.dot.svg" xlink:title="s1308 SYMBOL\n_field_identifier">
<ellipse fill="none" stroke="#000000" cx="880.4245" cy="-106.4156" rx="78.8659" ry="29.3315"/>
<text text-anchor="middle" x="880.4245" y="-110.6156" font-family="Times,serif" font-size="14.00" fill="#000000">s1308 SYMBOL</text>
<text text-anchor="middle" x="880.4245" y="-93.8156" font-family="Times,serif" font-size="14.00" fill="#000000">_field_identifier</text>
</a>
</g>
</g>
<!-- s1307&#45;&gt;s1308 -->
<g id="edge3" class="edge">
<title>s1307:p0&#45;&gt;s1308</title>
<path fill="none" stroke="#000000" d="M674.7725,-79.4156C716.5883,-79.4156 762.7828,-84.9711 800.7798,-91.0421"/>
<polygon fill="#000000" stroke="#000000" points="800.3263,-94.5144 810.7609,-92.6783 801.4589,-87.6066 800.3263,-94.5144"/>
<text text-anchor="middle" x="738.2571" y="-91.6156" font-family="Times,serif" font-size="14.00" fill="#000000">_field_identifier</text>
</g>
<!-- s1309 -->
<g id="node7" class="node">
<title>s1309</title>
<g id="a_node7"><a xlink:href="rust-grammar.json.integer_literal.dot.svg" xlink:title="s1309 SYMBOL\ninteger_literal">
<ellipse fill="none" stroke="#000000" cx="880.4245" cy="-29.4156" rx="78.8659" ry="29.3315"/>
<text text-anchor="middle" x="880.4245" y="-33.6156" font-family="Times,serif" font-size="14.00" fill="#000000">s1309 SYMBOL</text>
<text text-anchor="middle" x="880.4245" y="-16.8156" font-family="Times,serif" font-size="14.00" fill="#000000">integer_literal</text>
</a>
</g>
</g>
<!-- s1307&#45;&gt;s1309 -->
<g id="edge4" class="edge">
<title>s1307:p1&#45;&gt;s1309</title>
<path fill="none" stroke="#000000" d="M674.7725,-55.4156C716.2322,-55.4156 762.0247,-50.1502 799.854,-44.3584"/>
<polygon fill="#000000" stroke="#000000" points="800.4603,-47.8061 809.7959,-42.7965 799.3738,-40.891 800.4603,-47.8061"/>
<text text-anchor="middle" x="738.2571" y="-59.6156" font-family="Times,serif" font-size="14.00" fill="#000000">integer_literal</text>
</g>
</g>
</svg>
