<?xml version="1.0" encoding="UTF-8" standalone="no"?>
<!DOCTYPE svg PUBLIC "-//W3C//DTD SVG 1.1//EN"
 "http://www.w3.org/Graphics/SVG/1.1/DTD/svg11.dtd">
<!-- Generated by graphviz version 2.40.1 (20161225.0304)
 -->
<!-- Title: _expression_ending_with_block Pages: 1 -->
<svg width="455pt" height="683pt"
 viewBox="0.00 0.00 455.44 682.83" xmlns="http://www.w3.org/2000/svg" xmlns:xlink="http://www.w3.org/1999/xlink">
<g id="graph0" class="graph" transform="scale(1 1) rotate(0) translate(4 678.8313)">
<title>_expression_ending_with_block</title>
<polygon fill="#ffffff" stroke="transparent" points="-4,4 -4,-678.8313 451.4407,-678.8313 451.4407,4 -4,4"/>
<!-- s967 -->
<g id="node1" class="node">
<title>s967</title>
<polygon fill="none" stroke="#000000" points="0,-225.8156 0,-449.0156 101.5996,-449.0156 101.5996,-225.8156 0,-225.8156"/>
<text text-anchor="middle" x="41.0498" y="-341.6156" font-family="Times,serif" font-size="14.00" fill="#000000">s967</text>
<text text-anchor="middle" x="41.0498" y="-324.8156" font-family="Times,serif" font-size="14.00" fill="#000000">→ CHOICE</text>
<polyline fill="none" stroke="#000000" points="82.0996,-225.8156 82.0996,-449.0156 "/>
<text text-anchor="middle" x="91.8496" y="-432.4156" font-family="Times,serif" font-size="14.00" fill="#000000"> </text>
<polyline fill="none" stroke="#000000" points="82.0996,-424.2156 101.5996,-424.2156 "/>
<text text-anchor="middle" x="91.8496" y="-407.6156" font-family="Times,serif" font-size="14.00" fill="#000000"> </text>
<polyline fill="none" stroke="#000000" points="82.0996,-399.4156 101.5996,-399.4156 "/>
<text text-anchor="middle" x="91.8496" y="-382.8156" font-family="Times,serif" font-size="14.00" fill="#000000"> </text>
<polyline fill="none" stroke="#000000" points="82.0996,-374.6156 101.5996,-374.6156 "/>
<text text-anchor="middle" x="91.8496" y="-358.0156" font-family="Times,serif" font-size="14.00" fill="#000000"> </text>
<polyline fill="none" stroke="#000000" points="82.0996,-349.8156 101.5996,-349.8156 "/>
<text text-anchor="middle" x="91.8496" y="-333.2156" font-family="Times,serif" font-size="14.00" fill="#000000"> </text>
<polyline fill="none" stroke="#000000" points="82.0996,-325.0156 101.5996,-325.0156 "/>
<text text-anchor="middle" x="91.8496" y="-308.4156" font-family="Times,serif" font-size="14.00" fill="#000000"> </text>
<polyline fill="none" stroke="#000000" points="82.0996,-300.2156 101.5996,-300.2156 "/>
<text text-anchor="middle" x="91.8496" y="-283.6156" font-family="Times,serif" font-size="14.00" fill="#000000"> </text>
<polyline fill="none" stroke="#000000" points="82.0996,-275.4156 101.5996,-275.4156 "/>
<text text-anchor="middle" x="91.8496" y="-258.8156" font-family="Times,serif" font-size="14.00" fill="#000000"> </text>
<polyline fill="none" stroke="#000000" points="82.0996,-250.6156 101.5996,-250.6156 "/>
<text text-anchor="middle" x="91.8496" y="-234.0156" font-family="Times,serif" font-size="14.00" fill="#000000"> </text>
</g>
<!-- s968 -->
<g id="node2" class="node">
<title>s968</title>
<g id="a_node2"><a xlink:href="rust-grammar.json.unsafe_block.dot.svg" xlink:title="s968 SYMBOL\nunsafe_block">
<ellipse fill="none" stroke="#000000" cx="352.004" cy="-645.4156" rx="73.9667" ry="29.3315"/>
<text text-anchor="middle" x="352.004" y="-649.6156" font-family="Times,serif" font-size="14.00" fill="#000000">s968 SYMBOL</text>
<text text-anchor="middle" x="352.004" y="-632.8156" font-family="Times,serif" font-size="14.00" fill="#000000">unsafe_block</text>
</a>
</g>
</g>
<!-- s967&#45;&gt;s968 -->
<g id="edge1" class="edge">
<title>s967:p0&#45;&gt;s968</title>
<path fill="none" stroke="#000000" d="M91.7998,-449.4156C91.7998,-475.2755 102.2679,-543.2234 119.5996,-562.4156 158.2299,-605.1929 220.4404,-625.9317 270.7795,-635.9816"/>
<polygon fill="#000000" stroke="#000000" points="270.2024,-639.4344 280.6785,-637.8524 271.5024,-632.5562 270.2024,-639.4344"/>
<text text-anchor="middle" x="179.0835" y="-630.6156" font-family="Times,serif" font-size="14.00" fill="#000000">unsafe_block</text>
</g>
<!-- s969 -->
<g id="node3" class="node">
<title>s969</title>
<g id="a_node3"><a xlink:href="rust-grammar.json.block.dot.svg" xlink:title="s969 SYMBOL\nblock">
<ellipse fill="none" stroke="#000000" cx="352.004" cy="-568.4156" rx="73.9667" ry="29.3315"/>
<text text-anchor="middle" x="352.004" y="-572.6156" font-family="Times,serif" font-size="14.00" fill="#000000">s969 SYMBOL</text>
<text text-anchor="middle" x="352.004" y="-555.8156" font-family="Times,serif" font-size="14.00" fill="#000000">block</text>
</a>
</g>
</g>
<!-- s967&#45;&gt;s969 -->
<g id="edge2" class="edge">
<title>s967:p1&#45;&gt;s969</title>
<path fill="none" stroke="#000000" d="M101.5996,-411.4156C129.8664,-411.4156 100.7138,-451.3838 119.5996,-472.4156 159.5902,-516.9504 223.4094,-541.3186 274.0614,-554.3471"/>
<polygon fill="#000000" stroke="#000000" points="273.4576,-557.8032 284.0053,-556.8043 275.1369,-551.0075 273.4576,-557.8032"/>
<text text-anchor="middle" x="179.0835" y="-545.6156" font-family="Times,serif" font-size="14.00" fill="#000000">block</text>
</g>
<!-- s970 -->
<g id="node4" class="node">
<title>s970</title>
<g id="a_node4"><a xlink:href="rust-grammar.json.if_expression.dot.svg" xlink:title="s970 SYMBOL\nif_expression">
<ellipse fill="none" stroke="#000000" cx="352.004" cy="-491.4156" rx="73.9667" ry="29.3315"/>
<text text-anchor="middle" x="352.004" y="-495.6156" font-family="Times,serif" font-size="14.00" fill="#000000">s970 SYMBOL</text>
<text text-anchor="middle" x="352.004" y="-478.8156" font-family="Times,serif" font-size="14.00" fill="#000000">if_expression</text>
</a>
</g>
</g>
<!-- s967&#45;&gt;s970 -->
<g id="edge3" class="edge">
<title>s967:p2&#45;&gt;s970</title>
<path fill="none" stroke="#000000" d="M101.5996,-387.4156C111.2144,-387.4156 111.0823,-394.9547 119.5996,-399.4156 173.5447,-427.6695 238.1832,-452.5927 285.5814,-469.3467"/>
<polygon fill="#000000" stroke="#000000" points="284.5282,-472.6863 295.123,-472.6916 286.8439,-466.0804 284.5282,-472.6863"/>
<text text-anchor="middle" x="179.0835" y="-455.6156" font-family="Times,serif" font-size="14.00" fill="#000000">if_expression</text>
</g>
<!-- s971 -->
<g id="node5" class="node">
<title>s971</title>
<g id="a_node5"><a xlink:href="rust-grammar.json.if_let_expression.dot.svg" xlink:title="s971 SYMBOL\nif_let_expression">
<ellipse fill="none" stroke="#000000" cx="352.004" cy="-414.4156" rx="79.4811" ry="29.3315"/>
<text text-anchor="middle" x="352.004" y="-418.6156" font-family="Times,serif" font-size="14.00" fill="#000000">s971 SYMBOL</text>
<text text-anchor="middle" x="352.004" y="-401.8156" font-family="Times,serif" font-size="14.00" fill="#000000">if_let_expression</text>
</a>
</g>
</g>
<!-- s967&#45;&gt;s971 -->
<g id="edge4" class="edge">
<title>s967:p3&#45;&gt;s971</title>
<path fill="none" stroke="#000000" d="M101.5996,-362.4156C163.8296,-362.4156 232.9759,-378.0021 282.8125,-392.1084"/>
<polygon fill="#000000" stroke="#000000" points="281.9363,-395.4983 292.5145,-394.9048 283.8751,-388.7721 281.9363,-395.4983"/>
<text text-anchor="middle" x="179.0835" y="-382.6156" font-family="Times,serif" font-size="14.00" fill="#000000">if_let_expression</text>
</g>
<!-- s972 -->
<g id="node6" class="node">
<title>s972</title>
<g id="a_node6"><a xlink:href="rust-grammar.json.match_expression.dot.svg" xlink:title="s972 SYMBOL\nmatch_expression">
<ellipse fill="none" stroke="#000000" cx="352.004" cy="-337.4156" rx="82.5767" ry="29.3315"/>
<text text-anchor="middle" x="352.004" y="-341.6156" font-family="Times,serif" font-size="14.00" fill="#000000">s972 SYMBOL</text>
<text text-anchor="middle" x="352.004" y="-324.8156" font-family="Times,serif" font-size="14.00" fill="#000000">match_expression</text>
</a>
</g>
</g>
<!-- s967&#45;&gt;s972 -->
<g id="edge5" class="edge">
<title>s967:p4&#45;&gt;s972</title>
<path fill="none" stroke="#000000" d="M101.5996,-337.4156C153.6437,-337.4156 211.7722,-337.4156 258.9131,-337.4156"/>
<polygon fill="#000000" stroke="#000000" points="259.1059,-340.9157 269.1058,-337.4156 259.1058,-333.9157 259.1059,-340.9157"/>
<text text-anchor="middle" x="179.0835" y="-341.6156" font-family="Times,serif" font-size="14.00" fill="#000000">match_expression</text>
</g>
<!-- s973 -->
<g id="node7" class="node">
<title>s973</title>
<g id="a_node7"><a xlink:href="rust-grammar.json.while_expression.dot.svg" xlink:title="s973 SYMBOL\nwhile_expression">
<ellipse fill="none" stroke="#000000" cx="352.004" cy="-260.4156" rx="80.6808" ry="29.3315"/>
<text text-anchor="middle" x="352.004" y="-264.6156" font-family="Times,serif" font-size="14.00" fill="#000000">s973 SYMBOL</text>
<text text-anchor="middle" x="352.004" y="-247.8156" font-family="Times,serif" font-size="14.00" fill="#000000">while_expression</text>
</a>
</g>
</g>
<!-- s967&#45;&gt;s973 -->
<g id="edge6" class="edge">
<title>s967:p5&#45;&gt;s973</title>
<path fill="none" stroke="#000000" d="M101.5996,-312.4156C163.6215,-312.4156 232.5134,-296.9332 282.3118,-282.8645"/>
<polygon fill="#000000" stroke="#000000" points="283.3667,-286.2031 292.0092,-280.0746 281.4313,-279.4759 283.3667,-286.2031"/>
<text text-anchor="middle" x="179.0835" y="-315.6156" font-family="Times,serif" font-size="14.00" fill="#000000">while_expression</text>
</g>
<!-- s974 -->
<g id="node8" class="node">
<title>s974</title>
<g id="a_node8"><a xlink:href="rust-grammar.json.while_let_expression.dot.svg" xlink:title="s974 SYMBOL\nwhile_let_expression">
<ellipse fill="none" stroke="#000000" cx="352.004" cy="-183.4156" rx="95.3733" ry="29.3315"/>
<text text-anchor="middle" x="352.004" y="-187.6156" font-family="Times,serif" font-size="14.00" fill="#000000">s974 SYMBOL</text>
<text text-anchor="middle" x="352.004" y="-170.8156" font-family="Times,serif" font-size="14.00" fill="#000000">while_let_expression</text>
</a>
</g>
</g>
<!-- s967&#45;&gt;s974 -->
<g id="edge7" class="edge">
<title>s967:p6&#45;&gt;s974</title>
<path fill="none" stroke="#000000" d="M101.5996,-287.4156C111.4161,-287.4156 110.9663,-279.2878 119.5996,-274.6156 169.6006,-247.5559 229.3768,-224.2828 275.7839,-208.02"/>
<polygon fill="#000000" stroke="#000000" points="277.1753,-211.242 285.4754,-204.6573 274.8806,-204.6288 277.1753,-211.242"/>
<text text-anchor="middle" x="179.0835" y="-278.6156" font-family="Times,serif" font-size="14.00" fill="#000000">while_let_expression</text>
</g>
<!-- s975 -->
<g id="node9" class="node">
<title>s975</title>
<g id="a_node9"><a xlink:href="rust-grammar.json.loop_expression.dot.svg" xlink:title="s975 SYMBOL\nloop_expression">
<ellipse fill="none" stroke="#000000" cx="352.004" cy="-106.4156" rx="76.3965" ry="29.3315"/>
<text text-anchor="middle" x="352.004" y="-110.6156" font-family="Times,serif" font-size="14.00" fill="#000000">s975 SYMBOL</text>
<text text-anchor="middle" x="352.004" y="-93.8156" font-family="Times,serif" font-size="14.00" fill="#000000">loop_expression</text>
</a>
</g>
</g>
<!-- s967&#45;&gt;s975 -->
<g id="edge8" class="edge">
<title>s967:p7&#45;&gt;s975</title>
<path fill="none" stroke="#000000" d="M101.5996,-263.4156C130.6346,-263.4156 100.1847,-222.2048 119.5996,-200.6156 158.9685,-156.8379 221.5978,-133.0249 271.9261,-120.3"/>
<polygon fill="#000000" stroke="#000000" points="272.9244,-123.6594 281.8172,-117.9003 271.2739,-116.8568 272.9244,-123.6594"/>
<text text-anchor="middle" x="179.0835" y="-204.6156" font-family="Times,serif" font-size="14.00" fill="#000000">loop_expression</text>
</g>
<!-- s976 -->
<g id="node10" class="node">
<title>s976</title>
<g id="a_node10"><a xlink:href="rust-grammar.json.for_expression.dot.svg" xlink:title="s976 SYMBOL\nfor_expression">
<ellipse fill="none" stroke="#000000" cx="352.004" cy="-29.4156" rx="73.9667" ry="29.3315"/>
<text text-anchor="middle" x="352.004" y="-33.6156" font-family="Times,serif" font-size="14.00" fill="#000000">s976 SYMBOL</text>
<text text-anchor="middle" x="352.004" y="-16.8156" font-family="Times,serif" font-size="14.00" fill="#000000">for_expression</text>
</a>
</g>
</g>
<!-- s967&#45;&gt;s976 -->
<g id="edge9" class="edge">
<title>s967:p8&#45;&gt;s976</title>
<path fill="none" stroke="#000000" d="M91.7998,-225.4156C91.7998,-199.1672 101.9758,-130.0677 119.5996,-110.6156 158.0707,-68.1534 219.9838,-47.8961 270.2361,-38.232"/>
<polygon fill="#000000" stroke="#000000" points="270.907,-41.6675 280.1207,-36.437 269.6562,-34.7801 270.907,-41.6675"/>
<text text-anchor="middle" x="179.0835" y="-114.6156" font-family="Times,serif" font-size="14.00" fill="#000000">for_expression</text>
</g>
</g>
</svg>
