<?xml version="1.0" encoding="UTF-8" standalone="no"?>
<!DOCTYPE svg PUBLIC "-//W3C//DTD SVG 1.1//EN"
 "http://www.w3.org/Graphics/SVG/1.1/DTD/svg11.dtd">
<!-- Generated by graphviz version 2.40.1 (20161225.0304)
 -->
<!-- Title: attribute_item Pages: 1 -->
<svg width="765pt" height="67pt"
 viewBox="0.00 0.00 765.28 66.83" xmlns="http://www.w3.org/2000/svg" xmlns:xlink="http://www.w3.org/1999/xlink">
<g id="graph0" class="graph" transform="scale(1 1) rotate(0) translate(4 62.8313)">
<title>attribute_item</title>
<polygon fill="#ffffff" stroke="transparent" points="-4,4 -4,-62.8313 761.281,-62.8313 761.281,4 -4,4"/>
<!-- s202 -->
<g id="node1" class="node">
<title>s202</title>
<polygon fill="none" stroke="#000000" points="0,-8.6156 0,-50.2156 56.4418,-50.2156 56.4418,-8.6156 0,-8.6156"/>
<text text-anchor="middle" x="28.2209" y="-33.6156" font-family="Times,serif" font-size="14.00" fill="#000000">s202</text>
<text text-anchor="middle" x="28.2209" y="-16.8156" font-family="Times,serif" font-size="14.00" fill="#000000">→ SEQ</text>
</g>
<!-- s203 -->
<g id="node2" class="node">
<title>s203</title>
<ellipse fill="none" stroke="#000000" cx="160.6707" cy="-29.4156" rx="68.4585" ry="29.3315"/>
<text text-anchor="middle" x="160.6707" y="-33.6156" font-family="Times,serif" font-size="14.00" fill="#000000">s203 STRING</text>
<text text-anchor="middle" x="160.6707" y="-16.8156" font-family="Times,serif" font-size="14.00" fill="#000000">&quot;#&quot;</text>
</g>
<!-- s202&#45;&gt;s203 -->
<g id="edge1" class="edge">
<title>s202&#45;&gt;s203</title>
<path fill="none" stroke="#000000" d="M56.6347,-29.4156C64.3113,-29.4156 73.0073,-29.4156 82.0218,-29.4156"/>
<polygon fill="#000000" stroke="#000000" points="82.2976,-32.9157 92.2975,-29.4156 82.2975,-25.9157 82.2976,-32.9157"/>
</g>
<!-- s204 -->
<g id="node3" class="node">
<title>s204</title>
<ellipse fill="none" stroke="#000000" cx="333.1284" cy="-29.4156" rx="68.4585" ry="29.3315"/>
<text text-anchor="middle" x="333.1284" y="-33.6156" font-family="Times,serif" font-size="14.00" fill="#000000">s204 STRING</text>
<text text-anchor="middle" x="333.1284" y="-16.8156" font-family="Times,serif" font-size="14.00" fill="#000000">&quot;[&quot;</text>
</g>
<!-- s203&#45;&gt;s204 -->
<g id="edge2" class="edge">
<title>s203&#45;&gt;s204</title>
<path fill="none" stroke="#000000" d="M229.3261,-29.4156C237.6067,-29.4156 246.1132,-29.4156 254.5222,-29.4156"/>
<polygon fill="#000000" stroke="#000000" points="254.7093,-32.9157 264.7092,-29.4156 254.7092,-25.9157 254.7093,-32.9157"/>
</g>
<!-- s205 -->
<g id="node4" class="node">
<title>s205</title>
<g id="a_node4"><a xlink:href="rust-grammar.json.meta_item.dot.svg" xlink:title="s205 SYMBOL\nmeta_item">
<ellipse fill="none" stroke="#000000" cx="511.0903" cy="-29.4156" rx="73.9667" ry="29.3315"/>
<text text-anchor="middle" x="511.0903" y="-33.6156" font-family="Times,serif" font-size="14.00" fill="#000000">s205 SYMBOL</text>
<text text-anchor="middle" x="511.0903" y="-16.8156" font-family="Times,serif" font-size="14.00" fill="#000000">meta_item</text>
</a>
</g>
</g>
<!-- s204&#45;&gt;s205 -->
<g id="edge3" class="edge">
<title>s204&#45;&gt;s205</title>
<path fill="none" stroke="#000000" d="M401.4242,-29.4156C409.8079,-29.4156 418.4511,-29.4156 427.0329,-29.4156"/>
<polygon fill="#000000" stroke="#000000" points="427.06,-32.9157 437.0599,-29.4156 427.0599,-25.9157 427.06,-32.9157"/>
</g>
<!-- s206 -->
<g id="node5" class="node">
<title>s206</title>
<ellipse fill="none" stroke="#000000" cx="689.0522" cy="-29.4156" rx="68.4585" ry="29.3315"/>
<text text-anchor="middle" x="689.0522" y="-33.6156" font-family="Times,serif" font-size="14.00" fill="#000000">s206 STRING</text>
<text text-anchor="middle" x="689.0522" y="-16.8156" font-family="Times,serif" font-size="14.00" fill="#000000">&quot;]&quot;</text>
</g>
<!-- s205&#45;&gt;s206 -->
<g id="edge4" class="edge">
<title>s205&#45;&gt;s206</title>
<path fill="none" stroke="#000000" d="M585.0161,-29.4156C593.4348,-29.4156 602.0387,-29.4156 610.5144,-29.4156"/>
<polygon fill="#000000" stroke="#000000" points="610.7684,-32.9157 620.7683,-29.4156 610.7683,-25.9157 610.7684,-32.9157"/>
</g>
</g>
</svg>
