<?xml version="1.0" encoding="UTF-8" standalone="no"?>
<!DOCTYPE svg PUBLIC "-//W3C//DTD SVG 1.1//EN"
 "http://www.w3.org/Graphics/SVG/1.1/DTD/svg11.dtd">
<!-- Generated by graphviz version 2.40.1 (20161225.0304)
 -->
<!-- Title: tuple_struct_pattern Pages: 1 -->
<svg width="1835pt" height="258pt"
 viewBox="0.00 0.00 1834.57 257.83" xmlns="http://www.w3.org/2000/svg" xmlns:xlink="http://www.w3.org/1999/xlink">
<g id="graph0" class="graph" transform="scale(1 1) rotate(0) translate(4 253.8313)">
<title>tuple_struct_pattern</title>
<polygon fill="#ffffff" stroke="transparent" points="-4,4 -4,-253.8313 1830.5733,-253.8313 1830.5733,4 -4,4"/>
<!-- s1383 -->
<g id="node1" class="node">
<title>s1383</title>
<polygon fill="none" stroke="#000000" points="0,-92.6156 0,-134.2156 56.4418,-134.2156 56.4418,-92.6156 0,-92.6156"/>
<text text-anchor="middle" x="28.2209" y="-117.6156" font-family="Times,serif" font-size="14.00" fill="#000000">s1383</text>
<text text-anchor="middle" x="28.2209" y="-100.8156" font-family="Times,serif" font-size="14.00" fill="#000000">→ SEQ</text>
</g>
<!-- s1384 -->
<g id="node2" class="node">
<title>s1384</title>
<polygon fill="none" stroke="#000000" points="93.4418,-88.6156 93.4418,-138.2156 195.0414,-138.2156 195.0414,-88.6156 93.4418,-88.6156"/>
<text text-anchor="middle" x="134.4916" y="-117.6156" font-family="Times,serif" font-size="14.00" fill="#000000">s1384</text>
<text text-anchor="middle" x="134.4916" y="-100.8156" font-family="Times,serif" font-size="14.00" fill="#000000">→ CHOICE</text>
<polyline fill="none" stroke="#000000" points="175.5414,-88.6156 175.5414,-138.2156 "/>
<text text-anchor="middle" x="185.2914" y="-121.6156" font-family="Times,serif" font-size="14.00" fill="#000000"> </text>
<polyline fill="none" stroke="#000000" points="175.5414,-113.4156 195.0414,-113.4156 "/>
<text text-anchor="middle" x="185.2914" y="-96.8156" font-family="Times,serif" font-size="14.00" fill="#000000"> </text>
</g>
<!-- s1383&#45;&gt;s1384 -->
<g id="edge3" class="edge">
<title>s1383&#45;&gt;s1384</title>
<path fill="none" stroke="#000000" d="M56.6028,-113.4156C64.6824,-113.4156 73.8102,-113.4156 83.0459,-113.4156"/>
<polygon fill="#000000" stroke="#000000" points="83.0657,-116.9157 93.0657,-113.4156 83.0656,-109.9157 83.0657,-116.9157"/>
</g>
<!-- s1385 -->
<g id="node3" class="node">
<title>s1385</title>
<g id="a_node3"><a xlink:href="rust-grammar.json.identifier.dot.svg" xlink:title="s1385 SYMBOL\nidentifier">
<ellipse fill="none" stroke="#000000" cx="408.263" cy="-152.4156" rx="78.8659" ry="29.3315"/>
<text text-anchor="middle" x="408.263" y="-156.6156" font-family="Times,serif" font-size="14.00" fill="#000000">s1385 SYMBOL</text>
<text text-anchor="middle" x="408.263" y="-139.8156" font-family="Times,serif" font-size="14.00" fill="#000000">identifier</text>
</a>
</g>
</g>
<!-- s1384&#45;&gt;s1385 -->
<g id="edge1" class="edge">
<title>s1384:p0&#45;&gt;s1385</title>
<path fill="none" stroke="#000000" d="M195.0414,-125.4156C239.243,-125.4156 288.1935,-131.1971 328.0331,-137.4093"/>
<polygon fill="#000000" stroke="#000000" points="327.5302,-140.8733 337.9571,-138.9947 328.6345,-133.9609 327.5302,-140.8733"/>
<text text-anchor="middle" x="261.6347" y="-137.6156" font-family="Times,serif" font-size="14.00" fill="#000000">identifier</text>
</g>
<!-- s1386 -->
<g id="node4" class="node">
<title>s1386</title>
<g id="a_node4"><a xlink:href="rust-grammar.json.scoped_identifier.dot.svg" xlink:title="s1386 SYMBOL\nscoped_identifier">
<ellipse fill="none" stroke="#000000" cx="408.263" cy="-75.4156" rx="80.07" ry="29.3315"/>
<text text-anchor="middle" x="408.263" y="-79.6156" font-family="Times,serif" font-size="14.00" fill="#000000">s1386 SYMBOL</text>
<text text-anchor="middle" x="408.263" y="-62.8156" font-family="Times,serif" font-size="14.00" fill="#000000">scoped_identifier</text>
</a>
</g>
</g>
<!-- s1384&#45;&gt;s1386 -->
<g id="edge2" class="edge">
<title>s1384:p1&#45;&gt;s1386</title>
<path fill="none" stroke="#000000" d="M195.0414,-101.4156C238.6095,-101.4156 286.8194,-96.0006 326.3604,-90.113"/>
<polygon fill="#000000" stroke="#000000" points="327.1233,-93.5372 336.4805,-88.568 326.0668,-86.6173 327.1233,-93.5372"/>
<text text-anchor="middle" x="261.6347" y="-104.6156" font-family="Times,serif" font-size="14.00" fill="#000000">scoped_identifier</text>
</g>
<!-- s1387 -->
<g id="node5" class="node">
<title>s1387</title>
<ellipse fill="none" stroke="#000000" cx="598.4766" cy="-113.4156" rx="73.3577" ry="29.3315"/>
<text text-anchor="middle" x="598.4766" y="-117.6156" font-family="Times,serif" font-size="14.00" fill="#000000">s1387 STRING</text>
<text text-anchor="middle" x="598.4766" y="-100.8156" font-family="Times,serif" font-size="14.00" fill="#000000">&quot;(&quot;</text>
</g>
<!-- s1385&#45;&gt;s1387 -->
<g id="edge4" class="edge">
<title>s1385&#45;&gt;s1387</title>
<path fill="none" stroke="#000000" d="M477.4726,-138.2254C492.373,-135.1703 508.1915,-131.927 523.3065,-128.828"/>
<polygon fill="#000000" stroke="#000000" points="524.0277,-132.253 533.1209,-126.8157 522.6217,-125.3956 524.0277,-132.253"/>
</g>
<!-- s1386&#45;&gt;s1387 -->
<g id="edge5" class="edge">
<title>s1386&#45;&gt;s1387</title>
<path fill="none" stroke="#000000" d="M478.8212,-89.5114C493.1672,-92.3774 508.3132,-95.4032 522.8275,-98.3028"/>
<polygon fill="#000000" stroke="#000000" points="522.2654,-101.7596 532.7574,-100.2865 523.6368,-94.8952 522.2654,-101.7596"/>
</g>
<!-- s1388 -->
<g id="node6" class="node">
<title>s1388</title>
<polygon fill="none" stroke="#000000" points="708.6553,-88.6156 708.6553,-138.2156 810.2549,-138.2156 810.2549,-88.6156 708.6553,-88.6156"/>
<text text-anchor="middle" x="749.7051" y="-117.6156" font-family="Times,serif" font-size="14.00" fill="#000000">s1388</text>
<text text-anchor="middle" x="749.7051" y="-100.8156" font-family="Times,serif" font-size="14.00" fill="#000000">→ CHOICE</text>
<polyline fill="none" stroke="#000000" points="790.7549,-88.6156 790.7549,-138.2156 "/>
<text text-anchor="middle" x="800.5049" y="-121.6156" font-family="Times,serif" font-size="14.00" fill="#000000"> </text>
<polyline fill="none" stroke="#000000" points="790.7549,-113.4156 810.2549,-113.4156 "/>
<text text-anchor="middle" x="800.5049" y="-96.8156" font-family="Times,serif" font-size="14.00" fill="#000000"> </text>
</g>
<!-- s1387&#45;&gt;s1388 -->
<g id="edge14" class="edge">
<title>s1387&#45;&gt;s1388</title>
<path fill="none" stroke="#000000" d="M671.8997,-113.4156C680.6247,-113.4156 689.4614,-113.4156 697.9952,-113.4156"/>
<polygon fill="#000000" stroke="#000000" points="698.2267,-116.9157 708.2267,-113.4156 698.2266,-109.9157 698.2267,-116.9157"/>
</g>
<!-- s1389 -->
<g id="node7" class="node">
<title>s1389</title>
<polygon fill="none" stroke="#000000" points="847.2549,-131.6156 847.2549,-173.2156 903.6967,-173.2156 903.6967,-131.6156 847.2549,-131.6156"/>
<text text-anchor="middle" x="875.4758" y="-156.6156" font-family="Times,serif" font-size="14.00" fill="#000000">s1389</text>
<text text-anchor="middle" x="875.4758" y="-139.8156" font-family="Times,serif" font-size="14.00" fill="#000000">→ SEQ</text>
</g>
<!-- s1388&#45;&gt;s1389 -->
<g id="edge12" class="edge">
<title>s1388:p0&#45;&gt;s1389</title>
<path fill="none" stroke="#000000" d="M810.2549,-125.4156C819.426,-125.4156 828.8087,-127.7229 837.4955,-130.9886"/>
<polygon fill="#000000" stroke="#000000" points="836.3868,-134.3203 846.9591,-135.0109 839.125,-127.8781 836.3868,-134.3203"/>
</g>
<!-- s1395 -->
<g id="node13" class="node">
<title>s1395</title>
<ellipse fill="none" stroke="#000000" cx="967.0993" cy="-97.4156" rx="45.3054" ry="29.3315"/>
<text text-anchor="middle" x="967.0993" y="-101.6156" font-family="Times,serif" font-size="14.00" fill="#000000">s1395 </text>
<text text-anchor="middle" x="967.0993" y="-84.8156" font-family="Times,serif" font-size="14.00" fill="#000000">BLANK</text>
</g>
<!-- s1388&#45;&gt;s1395 -->
<g id="edge13" class="edge">
<title>s1388:p1&#45;&gt;s1395</title>
<path fill="none" stroke="#000000" d="M810.2549,-101.4156C843.758,-101.4156 881.2737,-100.4923 911.2122,-99.5328"/>
<polygon fill="#000000" stroke="#000000" points="911.5881,-103.0224 921.4668,-99.1934 911.3564,-96.0262 911.5881,-103.0224"/>
</g>
<!-- s1390 -->
<g id="node8" class="node">
<title>s1390</title>
<g id="a_node8"><a xlink:href="rust-grammar.json._pattern.dot.svg" xlink:title="s1390 SYMBOL\n_pattern">
<ellipse fill="none" stroke="#000000" cx="1109.1846" cy="-154.4156" rx="78.8659" ry="29.3315"/>
<text text-anchor="middle" x="1109.1846" y="-158.6156" font-family="Times,serif" font-size="14.00" fill="#000000">s1390 SYMBOL</text>
<text text-anchor="middle" x="1109.1846" y="-141.8156" font-family="Times,serif" font-size="14.00" fill="#000000">_pattern</text>
</a>
</g>
</g>
<!-- s1389&#45;&gt;s1390 -->
<g id="edge6" class="edge">
<title>s1389&#45;&gt;s1390</title>
<path fill="none" stroke="#000000" d="M904.1331,-152.6609C933.016,-152.9081 979.0858,-153.3023 1020.247,-153.6545"/>
<polygon fill="#000000" stroke="#000000" points="1020.2864,-157.1549 1030.3161,-153.7407 1020.3464,-150.1552 1020.2864,-157.1549"/>
</g>
<!-- s1391 -->
<g id="node9" class="node">
<title>s1391</title>
<polygon fill="none" stroke="#000000" points="1224.8674,-137.6156 1224.8674,-179.2156 1307.751,-179.2156 1307.751,-137.6156 1224.8674,-137.6156"/>
<text text-anchor="middle" x="1266.3092" y="-162.6156" font-family="Times,serif" font-size="14.00" fill="#000000">s1391</text>
<text text-anchor="middle" x="1266.3092" y="-145.8156" font-family="Times,serif" font-size="14.00" fill="#000000">→ REPEAT</text>
</g>
<!-- s1390&#45;&gt;s1391 -->
<g id="edge11" class="edge">
<title>s1390&#45;&gt;s1391</title>
<path fill="none" stroke="#000000" d="M1187.7469,-156.4156C1196.8012,-156.6461 1205.8555,-156.8766 1214.4287,-157.0949"/>
<polygon fill="#000000" stroke="#000000" points="1214.5293,-160.5985 1224.6152,-157.3542 1214.7076,-153.6008 1214.5293,-160.5985"/>
</g>
<!-- s1392 -->
<g id="node10" class="node">
<title>s1392</title>
<polygon fill="none" stroke="#000000" points="1367.3299,-161.6156 1367.3299,-203.2156 1423.7717,-203.2156 1423.7717,-161.6156 1367.3299,-161.6156"/>
<text text-anchor="middle" x="1395.5508" y="-186.6156" font-family="Times,serif" font-size="14.00" fill="#000000">s1392</text>
<text text-anchor="middle" x="1395.5508" y="-169.8156" font-family="Times,serif" font-size="14.00" fill="#000000">→ SEQ</text>
</g>
<!-- s1391&#45;&gt;s1392 -->
<g id="edge9" class="edge">
<title>s1391&#45;&gt;s1392</title>
<path fill="none" stroke="#000000" d="M1307.9134,-166.1415C1323.6219,-169.0585 1341.4176,-172.3632 1356.8495,-175.2289"/>
<polygon fill="#000000" stroke="#000000" points="1356.6297,-178.7478 1367.1007,-177.1325 1357.9078,-171.8655 1356.6297,-178.7478"/>
</g>
<!-- s1396 -->
<g id="node14" class="node">
<title>s1396</title>
<polygon fill="none" stroke="#000000" points="1344.751,-69.6156 1344.751,-119.2156 1446.3506,-119.2156 1446.3506,-69.6156 1344.751,-69.6156"/>
<text text-anchor="middle" x="1385.8008" y="-98.6156" font-family="Times,serif" font-size="14.00" fill="#000000">s1396</text>
<text text-anchor="middle" x="1385.8008" y="-81.8156" font-family="Times,serif" font-size="14.00" fill="#000000">→ CHOICE</text>
<polyline fill="none" stroke="#000000" points="1426.8506,-69.6156 1426.8506,-119.2156 "/>
<text text-anchor="middle" x="1436.6006" y="-102.6156" font-family="Times,serif" font-size="14.00" fill="#000000"> </text>
<polyline fill="none" stroke="#000000" points="1426.8506,-94.4156 1446.3506,-94.4156 "/>
<text text-anchor="middle" x="1436.6006" y="-77.8156" font-family="Times,serif" font-size="14.00" fill="#000000"> </text>
</g>
<!-- s1391&#45;&gt;s1396 -->
<g id="edge17" class="edge">
<title>s1391&#45;&gt;s1396</title>
<path fill="none" stroke="#000000" d="M1307.9134,-137.8134C1316.9726,-133.3273 1326.7259,-128.4975 1336.3196,-123.7467"/>
<polygon fill="#000000" stroke="#000000" points="1338.0328,-126.8041 1345.441,-119.2298 1334.9264,-120.5311 1338.0328,-126.8041"/>
</g>
<!-- s1393 -->
<g id="node11" class="node">
<title>s1393</title>
<ellipse fill="none" stroke="#000000" cx="1559.0292" cy="-183.4156" rx="73.3577" ry="29.3315"/>
<text text-anchor="middle" x="1559.0292" y="-187.6156" font-family="Times,serif" font-size="14.00" fill="#000000">s1393 STRING</text>
<text text-anchor="middle" x="1559.0292" y="-170.8156" font-family="Times,serif" font-size="14.00" fill="#000000">&quot;,&quot;</text>
</g>
<!-- s1392&#45;&gt;s1393 -->
<g id="edge7" class="edge">
<title>s1392&#45;&gt;s1393</title>
<path fill="none" stroke="#000000" d="M1424.0266,-182.5898C1438.5272,-182.6785 1456.9889,-182.7915 1475.5693,-182.9051"/>
<polygon fill="#000000" stroke="#000000" points="1475.5552,-186.405 1485.5765,-182.9663 1475.5981,-179.4051 1475.5552,-186.405"/>
</g>
<!-- s1394 -->
<g id="node12" class="node">
<title>s1394</title>
<g id="a_node12"><a xlink:href="rust-grammar.json._pattern.dot.svg" xlink:title="s1394 SYMBOL\n_pattern">
<ellipse fill="none" stroke="#000000" cx="1747.8906" cy="-220.4156" rx="78.8659" ry="29.3315"/>
<text text-anchor="middle" x="1747.8906" y="-224.6156" font-family="Times,serif" font-size="14.00" fill="#000000">s1394 SYMBOL</text>
<text text-anchor="middle" x="1747.8906" y="-207.8156" font-family="Times,serif" font-size="14.00" fill="#000000">_pattern</text>
</a>
</g>
</g>
<!-- s1393&#45;&gt;s1394 -->
<g id="edge8" class="edge">
<title>s1393&#45;&gt;s1394</title>
<path fill="none" stroke="#000000" d="M1624.8186,-196.3045C1638.8308,-199.0496 1653.7724,-201.9769 1668.2393,-204.8111"/>
<polygon fill="#000000" stroke="#000000" points="1667.6755,-208.2671 1678.1619,-206.755 1669.0213,-201.3977 1667.6755,-208.2671"/>
</g>
<!-- s1394&#45;&gt;s1391 -->
<g id="edge10" class="edge">
<title>s1394&#45;&gt;s1391</title>
<path fill="none" stroke="#000000" d="M1675.2792,-232.102C1592.7077,-242.4385 1455.0575,-250.6057 1344.751,-212.4156 1327.802,-206.5476 1311.1314,-195.9557 1297.5469,-185.6973"/>
<polygon fill="#000000" stroke="#000000" points="1299.5418,-182.8139 1289.5125,-179.3983 1295.2228,-188.3227 1299.5418,-182.8139"/>
</g>
<!-- s1395&#45;&gt;s1396 -->
<g id="edge18" class="edge">
<title>s1395&#45;&gt;s1396</title>
<path fill="none" stroke="#000000" d="M1012.5455,-97.0974C1089.9458,-96.5555 1247.3977,-95.453 1334.383,-94.8439"/>
<polygon fill="#000000" stroke="#000000" points="1334.6564,-98.3422 1344.6316,-94.7722 1334.6073,-91.3424 1334.6564,-98.3422"/>
</g>
<!-- s1397 -->
<g id="node15" class="node">
<title>s1397</title>
<ellipse fill="none" stroke="#000000" cx="1559.0292" cy="-106.4156" rx="73.3577" ry="29.3315"/>
<text text-anchor="middle" x="1559.0292" y="-110.6156" font-family="Times,serif" font-size="14.00" fill="#000000">s1397 STRING</text>
<text text-anchor="middle" x="1559.0292" y="-93.8156" font-family="Times,serif" font-size="14.00" fill="#000000">&quot;,&quot;</text>
</g>
<!-- s1396&#45;&gt;s1397 -->
<g id="edge15" class="edge">
<title>s1396:p0&#45;&gt;s1397</title>
<path fill="none" stroke="#000000" d="M1446.3506,-106.4156C1455.7879,-106.4156 1465.6697,-106.4156 1475.4935,-106.4156"/>
<polygon fill="#000000" stroke="#000000" points="1475.6888,-109.9157 1485.6888,-106.4156 1475.6887,-102.9157 1475.6888,-109.9157"/>
<text text-anchor="middle" x="1466.1006" y="-110.6156" font-family="Times,serif" font-size="14.00" fill="#000000">,</text>
</g>
<!-- s1398 -->
<g id="node16" class="node">
<title>s1398</title>
<ellipse fill="none" stroke="#000000" cx="1559.0292" cy="-29.4156" rx="45.3054" ry="29.3315"/>
<text text-anchor="middle" x="1559.0292" y="-33.6156" font-family="Times,serif" font-size="14.00" fill="#000000">s1398 </text>
<text text-anchor="middle" x="1559.0292" y="-16.8156" font-family="Times,serif" font-size="14.00" fill="#000000">BLANK</text>
</g>
<!-- s1396&#45;&gt;s1398 -->
<g id="edge16" class="edge">
<title>s1396:p1&#45;&gt;s1398</title>
<path fill="none" stroke="#000000" d="M1436.5508,-69.4156C1436.5508,-39.0381 1471.0173,-29.6335 1503.3827,-27.499"/>
<polygon fill="#000000" stroke="#000000" points="1503.9335,-30.9783 1513.7707,-27.044 1503.6272,-23.985 1503.9335,-30.9783"/>
</g>
<!-- s1399 -->
<g id="node17" class="node">
<title>s1399</title>
<ellipse fill="none" stroke="#000000" cx="1747.8906" cy="-68.4156" rx="73.3577" ry="29.3315"/>
<text text-anchor="middle" x="1747.8906" y="-72.6156" font-family="Times,serif" font-size="14.00" fill="#000000">s1399 STRING</text>
<text text-anchor="middle" x="1747.8906" y="-55.8156" font-family="Times,serif" font-size="14.00" fill="#000000">&quot;)&quot;</text>
</g>
<!-- s1397&#45;&gt;s1399 -->
<g id="edge19" class="edge">
<title>s1397&#45;&gt;s1399</title>
<path fill="none" stroke="#000000" d="M1624.5537,-93.2317C1639.8478,-90.1545 1656.2615,-86.8519 1671.9646,-83.6924"/>
<polygon fill="#000000" stroke="#000000" points="1673.0491,-87.0444 1682.1622,-81.6406 1671.6683,-80.1819 1673.0491,-87.0444"/>
</g>
<!-- s1398&#45;&gt;s1399 -->
<g id="edge20" class="edge">
<title>s1398&#45;&gt;s1399</title>
<path fill="none" stroke="#000000" d="M1602.3578,-38.363C1623.1311,-42.6527 1648.6257,-47.9174 1672.4405,-52.8352"/>
<polygon fill="#000000" stroke="#000000" points="1672.0241,-56.3229 1682.5253,-54.9177 1673.4398,-49.4676 1672.0241,-56.3229"/>
</g>
</g>
</svg>
