<?xml version="1.0" encoding="UTF-8" standalone="no"?>
<!DOCTYPE svg PUBLIC "-//W3C//DTD SVG 1.1//EN"
 "http://www.w3.org/Graphics/SVG/1.1/DTD/svg11.dtd">
<!-- Generated by graphviz version 2.40.1 (20161225.0304)
 -->
<!-- Title: token_binding_pattern Pages: 1 -->
<svg width="710pt" height="67pt"
 viewBox="0.00 0.00 709.72 66.83" xmlns="http://www.w3.org/2000/svg" xmlns:xlink="http://www.w3.org/1999/xlink">
<g id="graph0" class="graph" transform="scale(1 1) rotate(0) translate(4 62.8313)">
<title>token_binding_pattern</title>
<polygon fill="#ffffff" stroke="transparent" points="-4,4 -4,-62.8313 705.7164,-62.8313 705.7164,4 -4,4"/>
<!-- s87 -->
<g id="node1" class="node">
<title>s87</title>
<polygon fill="none" stroke="#000000" points="0,-8.6156 0,-50.2156 65.0084,-50.2156 65.0084,-8.6156 0,-8.6156"/>
<text text-anchor="middle" x="32.5042" y="-33.6156" font-family="Times,serif" font-size="14.00" fill="#000000">s87</text>
<text text-anchor="middle" x="32.5042" y="-16.8156" font-family="Times,serif" font-size="14.00" fill="#000000">→ PREC</text>
</g>
<!-- s88 -->
<g id="node2" class="node">
<title>s88</title>
<polygon fill="none" stroke="#000000" points="101.0084,-8.6156 101.0084,-50.2156 157.4502,-50.2156 157.4502,-8.6156 101.0084,-8.6156"/>
<text text-anchor="middle" x="129.2293" y="-33.6156" font-family="Times,serif" font-size="14.00" fill="#000000">s88</text>
<text text-anchor="middle" x="129.2293" y="-16.8156" font-family="Times,serif" font-size="14.00" fill="#000000">→ SEQ</text>
</g>
<!-- s87&#45;&gt;s88 -->
<g id="edge4" class="edge">
<title>s87&#45;&gt;s88</title>
<path fill="none" stroke="#000000" d="M65.2509,-29.4156C73.4333,-29.4156 82.2837,-29.4156 90.7169,-29.4156"/>
<polygon fill="#000000" stroke="#000000" points="90.7236,-32.9157 100.7236,-29.4156 90.7235,-25.9157 90.7236,-32.9157"/>
</g>
<!-- s89 -->
<g id="node3" class="node">
<title>s89</title>
<g id="a_node3"><a xlink:href="rust-grammar.json.metavariable.dot.svg" xlink:title="s89 SYMBOL\nmetavariable">
<ellipse fill="none" stroke="#000000" cx="262.2334" cy="-29.4156" rx="68.5672" ry="29.3315"/>
<text text-anchor="middle" x="262.2334" y="-33.6156" font-family="Times,serif" font-size="14.00" fill="#000000">s89 SYMBOL</text>
<text text-anchor="middle" x="262.2334" y="-16.8156" font-family="Times,serif" font-size="14.00" fill="#000000">metavariable</text>
</a>
</g>
</g>
<!-- s88&#45;&gt;s89 -->
<g id="edge1" class="edge">
<title>s88&#45;&gt;s89</title>
<path fill="none" stroke="#000000" d="M157.762,-29.4156C165.4153,-29.4156 174.0776,-29.4156 183.0601,-29.4156"/>
<polygon fill="#000000" stroke="#000000" points="183.3011,-32.9157 193.301,-29.4156 183.301,-25.9157 183.3011,-32.9157"/>
</g>
<!-- s90 -->
<g id="node4" class="node">
<title>s90</title>
<ellipse fill="none" stroke="#000000" cx="430.2958" cy="-29.4156" rx="63.059" ry="29.3315"/>
<text text-anchor="middle" x="430.2958" y="-33.6156" font-family="Times,serif" font-size="14.00" fill="#000000">s90 STRING</text>
<text text-anchor="middle" x="430.2958" y="-16.8156" font-family="Times,serif" font-size="14.00" fill="#000000">&quot;:&quot;</text>
</g>
<!-- s89&#45;&gt;s90 -->
<g id="edge2" class="edge">
<title>s89&#45;&gt;s90</title>
<path fill="none" stroke="#000000" d="M331.0758,-29.4156C339.611,-29.4156 348.3625,-29.4156 356.9621,-29.4156"/>
<polygon fill="#000000" stroke="#000000" points="356.9654,-32.9157 366.9654,-29.4156 356.9654,-25.9157 356.9654,-32.9157"/>
</g>
<!-- s91 -->
<g id="node5" class="node">
<title>s91</title>
<g id="a_node5"><a xlink:href="rust-grammar.json.fragment_specifier.dot.svg" xlink:title="s91 SYMBOL\nfragment_specifier">
<ellipse fill="none" stroke="#000000" cx="615.6457" cy="-29.4156" rx="86.1415" ry="29.3315"/>
<text text-anchor="middle" x="615.6457" y="-33.6156" font-family="Times,serif" font-size="14.00" fill="#000000">s91 SYMBOL</text>
<text text-anchor="middle" x="615.6457" y="-16.8156" font-family="Times,serif" font-size="14.00" fill="#000000">fragment_specifier</text>
</a>
</g>
</g>
<!-- s90&#45;&gt;s91 -->
<g id="edge3" class="edge">
<title>s90&#45;&gt;s91</title>
<path fill="none" stroke="#000000" d="M493.8234,-29.4156C502.0334,-29.4156 510.5833,-29.4156 519.1767,-29.4156"/>
<polygon fill="#000000" stroke="#000000" points="519.2668,-32.9157 529.2668,-29.4156 519.2668,-25.9157 519.2668,-32.9157"/>
</g>
</g>
</svg>
