<?xml version="1.0" encoding="UTF-8" standalone="no"?>
<!DOCTYPE svg PUBLIC "-//W3C//DTD SVG 1.1//EN"
 "http://www.w3.org/Graphics/SVG/1.1/DTD/svg11.dtd">
<!-- Generated by graphviz version 2.40.1 (20161225.0304)
 -->
<!-- Title: reference_pattern Pages: 1 -->
<svg width="882pt" height="144pt"
 viewBox="0.00 0.00 881.52 143.83" xmlns="http://www.w3.org/2000/svg" xmlns:xlink="http://www.w3.org/1999/xlink">
<g id="graph0" class="graph" transform="scale(1 1) rotate(0) translate(4 139.8313)">
<title>reference_pattern</title>
<polygon fill="#ffffff" stroke="transparent" points="-4,4 -4,-139.8313 877.5174,-139.8313 877.5174,4 -4,4"/>
<!-- s1451 -->
<g id="node1" class="node">
<title>s1451</title>
<polygon fill="none" stroke="#000000" points="0,-46.6156 0,-88.2156 56.4418,-88.2156 56.4418,-46.6156 0,-46.6156"/>
<text text-anchor="middle" x="28.2209" y="-71.6156" font-family="Times,serif" font-size="14.00" fill="#000000">s1451</text>
<text text-anchor="middle" x="28.2209" y="-54.8156" font-family="Times,serif" font-size="14.00" fill="#000000">→ SEQ</text>
</g>
<!-- s1452 -->
<g id="node2" class="node">
<title>s1452</title>
<ellipse fill="none" stroke="#000000" cx="166.6204" cy="-67.4156" rx="73.3577" ry="29.3315"/>
<text text-anchor="middle" x="166.6204" y="-71.6156" font-family="Times,serif" font-size="14.00" fill="#000000">s1452 STRING</text>
<text text-anchor="middle" x="166.6204" y="-54.8156" font-family="Times,serif" font-size="14.00" fill="#000000">&quot;&amp;&quot;</text>
</g>
<!-- s1451&#45;&gt;s1452 -->
<g id="edge1" class="edge">
<title>s1451&#45;&gt;s1452</title>
<path fill="none" stroke="#000000" d="M56.5621,-67.4156C64.6032,-67.4156 73.7912,-67.4156 83.3533,-67.4156"/>
<polygon fill="#000000" stroke="#000000" points="83.4211,-70.9157 93.421,-67.4156 83.421,-63.9157 83.4211,-70.9157"/>
</g>
<!-- s1453 -->
<g id="node3" class="node">
<title>s1453</title>
<polygon fill="none" stroke="#000000" points="276.799,-42.6156 276.799,-92.2156 378.3986,-92.2156 378.3986,-42.6156 276.799,-42.6156"/>
<text text-anchor="middle" x="317.8488" y="-71.6156" font-family="Times,serif" font-size="14.00" fill="#000000">s1453</text>
<text text-anchor="middle" x="317.8488" y="-54.8156" font-family="Times,serif" font-size="14.00" fill="#000000">→ CHOICE</text>
<polyline fill="none" stroke="#000000" points="358.8986,-42.6156 358.8986,-92.2156 "/>
<text text-anchor="middle" x="368.6486" y="-75.6156" font-family="Times,serif" font-size="14.00" fill="#000000"> </text>
<polyline fill="none" stroke="#000000" points="358.8986,-67.4156 378.3986,-67.4156 "/>
<text text-anchor="middle" x="368.6486" y="-50.8156" font-family="Times,serif" font-size="14.00" fill="#000000"> </text>
</g>
<!-- s1452&#45;&gt;s1453 -->
<g id="edge4" class="edge">
<title>s1452&#45;&gt;s1453</title>
<path fill="none" stroke="#000000" d="M240.0435,-67.4156C248.7685,-67.4156 257.6051,-67.4156 266.139,-67.4156"/>
<polygon fill="#000000" stroke="#000000" points="266.3705,-70.9157 276.3705,-67.4156 266.3704,-63.9157 266.3705,-70.9157"/>
</g>
<!-- s1454 -->
<g id="node4" class="node">
<title>s1454</title>
<g id="a_node4"><a xlink:href="rust-grammar.json.mutable_specifier.dot.svg" xlink:title="s1454 SYMBOL\nmutable_specifier">
<ellipse fill="none" stroke="#000000" cx="596.9212" cy="-106.4156" rx="82.4621" ry="29.3315"/>
<text text-anchor="middle" x="596.9212" y="-110.6156" font-family="Times,serif" font-size="14.00" fill="#000000">s1454 SYMBOL</text>
<text text-anchor="middle" x="596.9212" y="-93.8156" font-family="Times,serif" font-size="14.00" fill="#000000">mutable_specifier</text>
</a>
</g>
</g>
<!-- s1453&#45;&gt;s1454 -->
<g id="edge2" class="edge">
<title>s1453:p0&#45;&gt;s1454</title>
<path fill="none" stroke="#000000" d="M378.3986,-79.4156C423.3296,-79.4156 473.0677,-85.1074 513.7268,-91.2644"/>
<polygon fill="#000000" stroke="#000000" points="513.4414,-94.7619 523.8599,-92.8365 514.5147,-87.8447 513.4414,-94.7619"/>
<text text-anchor="middle" x="446.5445" y="-91.6156" font-family="Times,serif" font-size="14.00" fill="#000000">mutable_specifier</text>
</g>
<!-- s1455 -->
<g id="node5" class="node">
<title>s1455</title>
<ellipse fill="none" stroke="#000000" cx="596.9212" cy="-29.4156" rx="45.3054" ry="29.3315"/>
<text text-anchor="middle" x="596.9212" y="-33.6156" font-family="Times,serif" font-size="14.00" fill="#000000">s1455 </text>
<text text-anchor="middle" x="596.9212" y="-16.8156" font-family="Times,serif" font-size="14.00" fill="#000000">BLANK</text>
</g>
<!-- s1453&#45;&gt;s1455 -->
<g id="edge3" class="edge">
<title>s1453:p1&#45;&gt;s1455</title>
<path fill="none" stroke="#000000" d="M378.3986,-55.4156C434.9328,-55.4156 499.1214,-46.7288 543.227,-39.3975"/>
<polygon fill="#000000" stroke="#000000" points="543.8811,-42.8366 553.1551,-37.7137 542.7106,-35.9352 543.8811,-42.8366"/>
</g>
<!-- s1456 -->
<g id="node6" class="node">
<title>s1456</title>
<g id="a_node6"><a xlink:href="rust-grammar.json._pattern.dot.svg" xlink:title="s1456 SYMBOL\n_pattern">
<ellipse fill="none" stroke="#000000" cx="794.8346" cy="-67.4156" rx="78.8659" ry="29.3315"/>
<text text-anchor="middle" x="794.8346" y="-71.6156" font-family="Times,serif" font-size="14.00" fill="#000000">s1456 SYMBOL</text>
<text text-anchor="middle" x="794.8346" y="-54.8156" font-family="Times,serif" font-size="14.00" fill="#000000">_pattern</text>
</a>
</g>
</g>
<!-- s1454&#45;&gt;s1456 -->
<g id="edge5" class="edge">
<title>s1454&#45;&gt;s1456</title>
<path fill="none" stroke="#000000" d="M669.2126,-92.1702C684.1585,-89.225 699.9814,-86.107 715.1732,-83.1134"/>
<polygon fill="#000000" stroke="#000000" points="715.915,-86.5346 725.0496,-81.1672 714.5616,-79.6667 715.915,-86.5346"/>
</g>
<!-- s1455&#45;&gt;s1456 -->
<g id="edge6" class="edge">
<title>s1455&#45;&gt;s1456</title>
<path fill="none" stroke="#000000" d="M640.8446,-37.8491C662.5602,-42.0185 689.4602,-47.1834 714.6708,-52.0239"/>
<polygon fill="#000000" stroke="#000000" points="714.1244,-55.4829 724.605,-53.9313 715.4444,-48.6085 714.1244,-55.4829"/>
</g>
</g>
</svg>
