<?xml version="1.0" encoding="UTF-8" standalone="no"?>
<!DOCTYPE svg PUBLIC "-//W3C//DTD SVG 1.1//EN"
 "http://www.w3.org/Graphics/SVG/1.1/DTD/svg11.dtd">
<!-- Generated by graphviz version 2.40.1 (20161225.0304)
 -->
<!-- Title: if_expression Pages: 1 -->
<svg width="1015pt" height="144pt"
 viewBox="0.00 0.00 1015.15 143.83" xmlns="http://www.w3.org/2000/svg" xmlns:xlink="http://www.w3.org/1999/xlink">
<g id="graph0" class="graph" transform="scale(1 1) rotate(0) translate(4 139.8313)">
<title>if_expression</title>
<polygon fill="#ffffff" stroke="transparent" points="-4,4 -4,-139.8313 1011.1459,-139.8313 1011.1459,4 -4,4"/>
<!-- s1149 -->
<g id="node1" class="node">
<title>s1149</title>
<polygon fill="none" stroke="#000000" points="0,-46.6156 0,-88.2156 56.4418,-88.2156 56.4418,-46.6156 0,-46.6156"/>
<text text-anchor="middle" x="28.2209" y="-71.6156" font-family="Times,serif" font-size="14.00" fill="#000000">s1149</text>
<text text-anchor="middle" x="28.2209" y="-54.8156" font-family="Times,serif" font-size="14.00" fill="#000000">→ SEQ</text>
</g>
<!-- s1150 -->
<g id="node2" class="node">
<title>s1150</title>
<ellipse fill="none" stroke="#000000" cx="166.6204" cy="-67.4156" rx="73.3577" ry="29.3315"/>
<text text-anchor="middle" x="166.6204" y="-71.6156" font-family="Times,serif" font-size="14.00" fill="#000000">s1150 STRING</text>
<text text-anchor="middle" x="166.6204" y="-54.8156" font-family="Times,serif" font-size="14.00" fill="#000000">&quot;if&quot;</text>
</g>
<!-- s1149&#45;&gt;s1150 -->
<g id="edge1" class="edge">
<title>s1149&#45;&gt;s1150</title>
<path fill="none" stroke="#000000" d="M56.5621,-67.4156C64.6032,-67.4156 73.7912,-67.4156 83.3533,-67.4156"/>
<polygon fill="#000000" stroke="#000000" points="83.4211,-70.9157 93.421,-67.4156 83.421,-63.9157 83.4211,-70.9157"/>
</g>
<!-- s1151 -->
<g id="node3" class="node">
<title>s1151</title>
<g id="a_node3"><a xlink:href="rust-grammar.json._expression.dot.svg" xlink:title="s1151 SYMBOL\n_expression">
<ellipse fill="none" stroke="#000000" cx="355.4818" cy="-67.4156" rx="78.8659" ry="29.3315"/>
<text text-anchor="middle" x="355.4818" y="-71.6156" font-family="Times,serif" font-size="14.00" fill="#000000">s1151 SYMBOL</text>
<text text-anchor="middle" x="355.4818" y="-54.8156" font-family="Times,serif" font-size="14.00" fill="#000000">_expression</text>
</a>
</g>
</g>
<!-- s1150&#45;&gt;s1151 -->
<g id="edge2" class="edge">
<title>s1150&#45;&gt;s1151</title>
<path fill="none" stroke="#000000" d="M239.9095,-67.4156C248.6483,-67.4156 257.6418,-67.4156 266.5693,-67.4156"/>
<polygon fill="#000000" stroke="#000000" points="266.6036,-70.9157 276.6036,-67.4156 266.6035,-63.9157 266.6036,-70.9157"/>
</g>
<!-- s1152 -->
<g id="node4" class="node">
<title>s1152</title>
<g id="a_node4"><a xlink:href="rust-grammar.json.block.dot.svg" xlink:title="s1152 SYMBOL\nblock">
<ellipse fill="none" stroke="#000000" cx="549.8473" cy="-67.4156" rx="78.8659" ry="29.3315"/>
<text text-anchor="middle" x="549.8473" y="-71.6156" font-family="Times,serif" font-size="14.00" fill="#000000">s1152 SYMBOL</text>
<text text-anchor="middle" x="549.8473" y="-54.8156" font-family="Times,serif" font-size="14.00" fill="#000000">block</text>
</a>
</g>
</g>
<!-- s1151&#45;&gt;s1152 -->
<g id="edge3" class="edge">
<title>s1151&#45;&gt;s1152</title>
<path fill="none" stroke="#000000" d="M434.2575,-67.4156C443.0499,-67.4156 452.051,-67.4156 460.9585,-67.4156"/>
<polygon fill="#000000" stroke="#000000" points="460.9594,-70.9157 470.9594,-67.4156 460.9594,-63.9157 460.9594,-70.9157"/>
</g>
<!-- s1153 -->
<g id="node5" class="node">
<title>s1153</title>
<polygon fill="none" stroke="#000000" points="665.53,-42.6156 665.53,-92.2156 767.1296,-92.2156 767.1296,-42.6156 665.53,-42.6156"/>
<text text-anchor="middle" x="706.5798" y="-71.6156" font-family="Times,serif" font-size="14.00" fill="#000000">s1153</text>
<text text-anchor="middle" x="706.5798" y="-54.8156" font-family="Times,serif" font-size="14.00" fill="#000000">→ CHOICE</text>
<polyline fill="none" stroke="#000000" points="747.6296,-42.6156 747.6296,-92.2156 "/>
<text text-anchor="middle" x="757.3796" y="-75.6156" font-family="Times,serif" font-size="14.00" fill="#000000"> </text>
<polyline fill="none" stroke="#000000" points="747.6296,-67.4156 767.1296,-67.4156 "/>
<text text-anchor="middle" x="757.3796" y="-50.8156" font-family="Times,serif" font-size="14.00" fill="#000000"> </text>
</g>
<!-- s1152&#45;&gt;s1153 -->
<g id="edge6" class="edge">
<title>s1152&#45;&gt;s1153</title>
<path fill="none" stroke="#000000" d="M628.7007,-67.4156C637.5437,-67.4156 646.4529,-67.4156 655.0277,-67.4156"/>
<polygon fill="#000000" stroke="#000000" points="655.2943,-70.9157 665.2942,-67.4156 655.2942,-63.9157 655.2943,-70.9157"/>
</g>
<!-- s1154 -->
<g id="node6" class="node">
<title>s1154</title>
<g id="a_node6"><a xlink:href="rust-grammar.json.else_tail.dot.svg" xlink:title="s1154 SYMBOL\nelse_tail">
<ellipse fill="none" stroke="#000000" cx="928.4632" cy="-106.4156" rx="78.8659" ry="29.3315"/>
<text text-anchor="middle" x="928.4632" y="-110.6156" font-family="Times,serif" font-size="14.00" fill="#000000">s1154 SYMBOL</text>
<text text-anchor="middle" x="928.4632" y="-93.8156" font-family="Times,serif" font-size="14.00" fill="#000000">else_tail</text>
</a>
</g>
</g>
<!-- s1153&#45;&gt;s1154 -->
<g id="edge4" class="edge">
<title>s1153:p0&#45;&gt;s1154</title>
<path fill="none" stroke="#000000" d="M767.1296,-79.4156C795.2073,-79.4156 825.6613,-83.4429 852.4681,-88.3866"/>
<polygon fill="#000000" stroke="#000000" points="852.0707,-91.8741 862.5509,-90.3197 853.3888,-84.9993 852.0707,-91.8741"/>
<text text-anchor="middle" x="808.455" y="-88.6156" font-family="Times,serif" font-size="14.00" fill="#000000">else_tail</text>
</g>
<!-- s1155 -->
<g id="node7" class="node">
<title>s1155</title>
<ellipse fill="none" stroke="#000000" cx="928.4632" cy="-29.4156" rx="45.3054" ry="29.3315"/>
<text text-anchor="middle" x="928.4632" y="-33.6156" font-family="Times,serif" font-size="14.00" fill="#000000">s1155 </text>
<text text-anchor="middle" x="928.4632" y="-16.8156" font-family="Times,serif" font-size="14.00" fill="#000000">BLANK</text>
</g>
<!-- s1153&#45;&gt;s1155 -->
<g id="edge5" class="edge">
<title>s1153:p1&#45;&gt;s1155</title>
<path fill="none" stroke="#000000" d="M767.1296,-55.4156C803.8658,-55.4156 844.7147,-48.7638 876.1173,-42.1892"/>
<polygon fill="#000000" stroke="#000000" points="876.9264,-45.5953 885.9639,-40.0659 875.4508,-38.7526 876.9264,-45.5953"/>
</g>
</g>
</svg>
