<?xml version="1.0" encoding="UTF-8" standalone="no"?>
<!DOCTYPE svg PUBLIC "-//W3C//DTD SVG 1.1//EN"
 "http://www.w3.org/Graphics/SVG/1.1/DTD/svg11.dtd">
<!-- Generated by graphviz version 2.40.1 (20161225.0304)
 -->
<!-- Title: struct_expression Pages: 1 -->
<svg width="1373pt" height="175pt"
 viewBox="0.00 0.00 1372.76 174.83" xmlns="http://www.w3.org/2000/svg" xmlns:xlink="http://www.w3.org/1999/xlink">
<g id="graph0" class="graph" transform="scale(1 1) rotate(0) translate(4 170.8313)">
<title>struct_expression</title>
<polygon fill="#ffffff" stroke="transparent" points="-4,4 -4,-170.8313 1368.7588,-170.8313 1368.7588,4 -4,4"/>
<!-- s1111 -->
<g id="node1" class="node">
<title>s1111</title>
<polygon fill="none" stroke="#000000" points="0,-61.6156 0,-103.2156 56.4418,-103.2156 56.4418,-61.6156 0,-61.6156"/>
<text text-anchor="middle" x="28.2209" y="-86.6156" font-family="Times,serif" font-size="14.00" fill="#000000">s1111</text>
<text text-anchor="middle" x="28.2209" y="-69.8156" font-family="Times,serif" font-size="14.00" fill="#000000">→ SEQ</text>
</g>
<!-- s1112 -->
<g id="node2" class="node">
<title>s1112</title>
<polygon fill="none" stroke="#000000" points="93.4418,-45.2156 93.4418,-119.6156 195.0414,-119.6156 195.0414,-45.2156 93.4418,-45.2156"/>
<text text-anchor="middle" x="134.4916" y="-86.6156" font-family="Times,serif" font-size="14.00" fill="#000000">s1112</text>
<text text-anchor="middle" x="134.4916" y="-69.8156" font-family="Times,serif" font-size="14.00" fill="#000000">→ CHOICE</text>
<polyline fill="none" stroke="#000000" points="175.5414,-45.2156 175.5414,-119.6156 "/>
<text text-anchor="middle" x="185.2914" y="-103.0156" font-family="Times,serif" font-size="14.00" fill="#000000"> </text>
<polyline fill="none" stroke="#000000" points="175.5414,-94.8156 195.0414,-94.8156 "/>
<text text-anchor="middle" x="185.2914" y="-78.2156" font-family="Times,serif" font-size="14.00" fill="#000000"> </text>
<polyline fill="none" stroke="#000000" points="175.5414,-70.0156 195.0414,-70.0156 "/>
<text text-anchor="middle" x="185.2914" y="-53.4156" font-family="Times,serif" font-size="14.00" fill="#000000"> </text>
</g>
<!-- s1111&#45;&gt;s1112 -->
<g id="edge5" class="edge">
<title>s1111&#45;&gt;s1112</title>
<path fill="none" stroke="#000000" d="M56.6028,-82.4156C64.6824,-82.4156 73.8102,-82.4156 83.0459,-82.4156"/>
<polygon fill="#000000" stroke="#000000" points="83.0657,-85.9157 93.0657,-82.4156 83.0656,-78.9157 83.0657,-85.9157"/>
</g>
<!-- s1113 -->
<g id="node3" class="node">
<title>s1113</title>
<g id="a_node3"><a xlink:href="rust-grammar.json._type_identifier.dot.svg" xlink:title="s1113 SYMBOL\n_type_identifier">
<ellipse fill="none" stroke="#000000" cx="607.663" cy="-137.4156" rx="78.8659" ry="29.3315"/>
<text text-anchor="middle" x="607.663" y="-141.6156" font-family="Times,serif" font-size="14.00" fill="#000000">s1113 SYMBOL</text>
<text text-anchor="middle" x="607.663" y="-124.8156" font-family="Times,serif" font-size="14.00" fill="#000000">_type_identifier</text>
</a>
</g>
</g>
<!-- s1112&#45;&gt;s1113 -->
<g id="edge1" class="edge">
<title>s1112:p0&#45;&gt;s1113</title>
<path fill="none" stroke="#000000" d="M195.0414,-107.4156C308.4625,-107.4156 438.9601,-118.8308 522.3098,-127.5782"/>
<polygon fill="#000000" stroke="#000000" points="522.1749,-131.0834 532.4884,-128.6578 522.9133,-124.1225 522.1749,-131.0834"/>
<text text-anchor="middle" x="293.9089" y="-118.6156" font-family="Times,serif" font-size="14.00" fill="#000000">_type_identifier</text>
</g>
<!-- s1114 -->
<g id="node4" class="node">
<title>s1114</title>
<polygon fill="none" stroke="#000000" points="392.7764,-61.6156 392.7764,-103.2156 463.9854,-103.2156 463.9854,-61.6156 392.7764,-61.6156"/>
<text text-anchor="middle" x="428.3809" y="-86.6156" font-family="Times,serif" font-size="14.00" fill="#000000">s1114</text>
<text text-anchor="middle" x="428.3809" y="-69.8156" font-family="Times,serif" font-size="14.00" fill="#000000">→ ALIAS</text>
</g>
<!-- s1112&#45;&gt;s1114 -->
<g id="edge3" class="edge">
<title>s1112:p1&#45;&gt;s1114</title>
<path fill="none" stroke="#000000" d="M195.0414,-82.4156C260.0083,-82.4156 335.1497,-82.4156 382.2225,-82.4156"/>
<polygon fill="#000000" stroke="#000000" points="382.4047,-85.9157 392.4047,-82.4156 382.4047,-78.9157 382.4047,-85.9157"/>
<text text-anchor="middle" x="293.9089" y="-86.6156" font-family="Times,serif" font-size="14.00" fill="#000000">scoped_type_identifier</text>
</g>
<!-- s1116 -->
<g id="node6" class="node">
<title>s1116</title>
<g id="a_node6"><a xlink:href="rust-grammar.json.generic_type_with_turbofish.dot.svg" xlink:title="s1116 SYMBOL\ngeneric_type_with_turbofish">
<ellipse fill="none" stroke="#000000" cx="607.663" cy="-29.4156" rx="125.8555" ry="29.3315"/>
<text text-anchor="middle" x="607.663" y="-33.6156" font-family="Times,serif" font-size="14.00" fill="#000000">s1116 SYMBOL</text>
<text text-anchor="middle" x="607.663" y="-16.8156" font-family="Times,serif" font-size="14.00" fill="#000000">generic_type_with_turbofish</text>
</a>
</g>
</g>
<!-- s1112&#45;&gt;s1116 -->
<g id="edge4" class="edge">
<title>s1112:p2&#45;&gt;s1116</title>
<path fill="none" stroke="#000000" d="M195.0414,-57.4156C291.6112,-57.4156 400.6032,-49.6869 482.3088,-42.3506"/>
<polygon fill="#000000" stroke="#000000" points="482.9972,-45.8025 492.6395,-41.412 482.3638,-38.8312 482.9972,-45.8025"/>
<text text-anchor="middle" x="293.9089" y="-61.6156" font-family="Times,serif" font-size="14.00" fill="#000000">generic_type_with_turbofish</text>
</g>
<!-- s1117 -->
<g id="node7" class="node">
<title>s1117</title>
<g id="a_node7"><a xlink:href="rust-grammar.json.field_initializer_list.dot.svg" xlink:title="s1117 SYMBOL\nfield_initializer_list">
<ellipse fill="none" stroke="#000000" cx="1275.3658" cy="-82.4156" rx="89.2861" ry="29.3315"/>
<text text-anchor="middle" x="1275.3658" y="-86.6156" font-family="Times,serif" font-size="14.00" fill="#000000">s1117 SYMBOL</text>
<text text-anchor="middle" x="1275.3658" y="-69.8156" font-family="Times,serif" font-size="14.00" fill="#000000">field_initializer_list</text>
</a>
</g>
</g>
<!-- s1113&#45;&gt;s1117 -->
<g id="edge6" class="edge">
<title>s1113&#45;&gt;s1117</title>
<path fill="none" stroke="#000000" d="M685.8135,-141.2955C791.5956,-145.1099 985.8824,-147.0236 1148.9728,-120.4156 1167.386,-117.4116 1186.8721,-112.4744 1204.886,-107.1376"/>
<polygon fill="#000000" stroke="#000000" points="1206.1793,-110.4026 1214.7261,-104.1414 1204.1402,-103.7061 1206.1793,-110.4026"/>
</g>
<!-- s1115 -->
<g id="node5" class="node">
<title>s1115</title>
<g id="a_node5"><a xlink:href="rust-grammar.json.scoped_type_identifier_in_expression_position.dot.svg" xlink:title="s1115 SYMBOL\nscoped_type_identifier_in_expression_position">
<ellipse fill="none" stroke="#000000" cx="950.1567" cy="-82.4156" rx="198.6323" ry="29.3315"/>
<text text-anchor="middle" x="950.1567" y="-86.6156" font-family="Times,serif" font-size="14.00" fill="#000000">s1115 SYMBOL</text>
<text text-anchor="middle" x="950.1567" y="-69.8156" font-family="Times,serif" font-size="14.00" fill="#000000">scoped_type_identifier_in_expression_position</text>
</a>
</g>
</g>
<!-- s1114&#45;&gt;s1115 -->
<g id="edge2" class="edge">
<title>s1114&#45;&gt;s1115</title>
<path fill="none" stroke="#000000" d="M464.2447,-82.4156C521.289,-82.4156 636.9073,-82.4156 741.0539,-82.4156"/>
<polygon fill="#000000" stroke="#000000" points="741.0945,-85.9157 751.0944,-82.4156 741.0944,-78.9157 741.0945,-85.9157"/>
</g>
<!-- s1115&#45;&gt;s1117 -->
<g id="edge7" class="edge">
<title>s1115&#45;&gt;s1117</title>
<path fill="none" stroke="#000000" d="M1149.166,-82.4156C1158.2644,-82.4156 1167.2026,-82.4156 1175.8583,-82.4156"/>
<polygon fill="#000000" stroke="#000000" points="1175.8825,-85.9157 1185.8825,-82.4156 1175.8824,-78.9157 1175.8825,-85.9157"/>
</g>
<!-- s1116&#45;&gt;s1117 -->
<g id="edge8" class="edge">
<title>s1116&#45;&gt;s1117</title>
<path fill="none" stroke="#000000" d="M731.0687,-23.6256C841.3502,-20.6311 1006.9666,-21.5165 1148.9728,-44.4156 1167.3915,-47.3857 1186.8796,-52.3105 1204.8937,-57.6462"/>
<polygon fill="#000000" stroke="#000000" points="1204.1478,-61.0777 1214.7337,-60.6429 1206.1872,-54.3814 1204.1478,-61.0777"/>
</g>
</g>
</svg>
