<?xml version="1.0" encoding="UTF-8" standalone="no"?>
<!DOCTYPE svg PUBLIC "-//W3C//DTD SVG 1.1//EN"
 "http://www.w3.org/Graphics/SVG/1.1/DTD/svg11.dtd">
<!-- Generated by graphviz version 2.40.1 (20161225.0304)
 -->
<!-- Title: _pattern Pages: 1 -->
<svg width="845pt" height="1676pt"
 viewBox="0.00 0.00 844.56 1675.83" xmlns="http://www.w3.org/2000/svg" xmlns:xlink="http://www.w3.org/1999/xlink">
<g id="graph0" class="graph" transform="scale(1 1) rotate(0) translate(4 1671.8313)">
<title>_pattern</title>
<polygon fill="#ffffff" stroke="transparent" points="-4,4 -4,-1671.8313 840.5648,-1671.8313 840.5648,4 -4,4"/>
<!-- s1321 -->
<g id="node1" class="node">
<title>s1321</title>
<polygon fill="none" stroke="#000000" points="0,-382.4156 0,-754.4156 101.5996,-754.4156 101.5996,-382.4156 0,-382.4156"/>
<text text-anchor="middle" x="41.0498" y="-572.6156" font-family="Times,serif" font-size="14.00" fill="#000000">s1321</text>
<text text-anchor="middle" x="41.0498" y="-555.8156" font-family="Times,serif" font-size="14.00" fill="#000000">→ CHOICE</text>
<polyline fill="none" stroke="#000000" points="82.0996,-382.4156 82.0996,-754.4156 "/>
<text text-anchor="middle" x="91.8496" y="-737.8156" font-family="Times,serif" font-size="14.00" fill="#000000"> </text>
<polyline fill="none" stroke="#000000" points="82.0996,-729.6156 101.5996,-729.6156 "/>
<text text-anchor="middle" x="91.8496" y="-713.0156" font-family="Times,serif" font-size="14.00" fill="#000000"> </text>
<polyline fill="none" stroke="#000000" points="82.0996,-704.8156 101.5996,-704.8156 "/>
<text text-anchor="middle" x="91.8496" y="-688.2156" font-family="Times,serif" font-size="14.00" fill="#000000"> </text>
<polyline fill="none" stroke="#000000" points="82.0996,-680.0156 101.5996,-680.0156 "/>
<text text-anchor="middle" x="91.8496" y="-663.4156" font-family="Times,serif" font-size="14.00" fill="#000000"> </text>
<polyline fill="none" stroke="#000000" points="82.0996,-655.2156 101.5996,-655.2156 "/>
<text text-anchor="middle" x="91.8496" y="-638.6156" font-family="Times,serif" font-size="14.00" fill="#000000"> </text>
<polyline fill="none" stroke="#000000" points="82.0996,-630.4156 101.5996,-630.4156 "/>
<text text-anchor="middle" x="91.8496" y="-613.8156" font-family="Times,serif" font-size="14.00" fill="#000000"> </text>
<polyline fill="none" stroke="#000000" points="82.0996,-605.6156 101.5996,-605.6156 "/>
<text text-anchor="middle" x="91.8496" y="-589.0156" font-family="Times,serif" font-size="14.00" fill="#000000"> </text>
<polyline fill="none" stroke="#000000" points="82.0996,-580.8156 101.5996,-580.8156 "/>
<text text-anchor="middle" x="91.8496" y="-564.2156" font-family="Times,serif" font-size="14.00" fill="#000000"> </text>
<polyline fill="none" stroke="#000000" points="82.0996,-556.0156 101.5996,-556.0156 "/>
<text text-anchor="middle" x="91.8496" y="-539.4156" font-family="Times,serif" font-size="14.00" fill="#000000"> </text>
<polyline fill="none" stroke="#000000" points="82.0996,-531.2156 101.5996,-531.2156 "/>
<text text-anchor="middle" x="91.8496" y="-514.6156" font-family="Times,serif" font-size="14.00" fill="#000000"> </text>
<polyline fill="none" stroke="#000000" points="82.0996,-506.4156 101.5996,-506.4156 "/>
<text text-anchor="middle" x="91.8496" y="-489.8156" font-family="Times,serif" font-size="14.00" fill="#000000"> </text>
<polyline fill="none" stroke="#000000" points="82.0996,-481.6156 101.5996,-481.6156 "/>
<text text-anchor="middle" x="91.8496" y="-465.0156" font-family="Times,serif" font-size="14.00" fill="#000000"> </text>
<polyline fill="none" stroke="#000000" points="82.0996,-456.8156 101.5996,-456.8156 "/>
<text text-anchor="middle" x="91.8496" y="-440.2156" font-family="Times,serif" font-size="14.00" fill="#000000"> </text>
<polyline fill="none" stroke="#000000" points="82.0996,-432.0156 101.5996,-432.0156 "/>
<text text-anchor="middle" x="91.8496" y="-415.4156" font-family="Times,serif" font-size="14.00" fill="#000000"> </text>
<polyline fill="none" stroke="#000000" points="82.0996,-407.2156 101.5996,-407.2156 "/>
<text text-anchor="middle" x="91.8496" y="-390.6156" font-family="Times,serif" font-size="14.00" fill="#000000"> </text>
</g>
<!-- s1322 -->
<g id="node2" class="node">
<title>s1322</title>
<g id="a_node2"><a xlink:href="rust-grammar.json._literal_pattern.dot.svg" xlink:title="s1322 SYMBOL\n_literal_pattern">
<ellipse fill="none" stroke="#000000" cx="379.8661" cy="-1091.4156" rx="78.8659" ry="29.3315"/>
<text text-anchor="middle" x="379.8661" y="-1095.6156" font-family="Times,serif" font-size="14.00" fill="#000000">s1322 SYMBOL</text>
<text text-anchor="middle" x="379.8661" y="-1078.8156" font-family="Times,serif" font-size="14.00" fill="#000000">_literal_pattern</text>
</a>
</g>
</g>
<!-- s1321&#45;&gt;s1322 -->
<g id="edge1" class="edge">
<title>s1321:p0&#45;&gt;s1322</title>
<path fill="none" stroke="#000000" d="M91.7998,-754.4156C91.7998,-787.3386 97.1007,-1025.3797 119.5996,-1049.4156 163.5642,-1096.3837 237.713,-1104.4366 295.6458,-1102.1486"/>
<polygon fill="#000000" stroke="#000000" points="296.0848,-1105.631 305.8955,-1101.6309 295.7316,-1098.6399 296.0848,-1105.631"/>
<text text-anchor="middle" x="187.2441" y="-1105.6156" font-family="Times,serif" font-size="14.00" fill="#000000">_literal_pattern</text>
</g>
<!-- s1323 -->
<g id="node3" class="node">
<title>s1323</title>
<polygon fill="none" stroke="#000000" points="344.2616,-1001.6156 344.2616,-1043.2156 415.4706,-1043.2156 415.4706,-1001.6156 344.2616,-1001.6156"/>
<text text-anchor="middle" x="379.8661" y="-1026.6156" font-family="Times,serif" font-size="14.00" fill="#000000">s1323</text>
<text text-anchor="middle" x="379.8661" y="-1009.8156" font-family="Times,serif" font-size="14.00" fill="#000000">→ ALIAS</text>
</g>
<!-- s1321&#45;&gt;s1323 -->
<g id="edge20" class="edge">
<title>s1321:p1&#45;&gt;s1323</title>
<path fill="none" stroke="#000000" d="M101.5996,-717.4156C130.0034,-717.4156 100.7484,-951.1692 119.5996,-972.4156 172.8934,-1032.4809 274.4822,-1033.8876 333.7501,-1028.6985"/>
<polygon fill="#000000" stroke="#000000" points="334.3354,-1032.1582 343.9483,-1027.7038 333.6558,-1025.1912 334.3354,-1032.1582"/>
<text text-anchor="middle" x="187.2441" y="-1032.6156" font-family="Times,serif" font-size="14.00" fill="#000000">identifier</text>
</g>
<!-- s1342 -->
<g id="node22" class="node">
<title>s1342</title>
<g id="a_node22"><a xlink:href="rust-grammar.json.identifier.dot.svg" xlink:title="s1342 SYMBOL\nidentifier">
<ellipse fill="none" stroke="#000000" cx="379.8661" cy="-953.4156" rx="78.8659" ry="29.3315"/>
<text text-anchor="middle" x="379.8661" y="-957.6156" font-family="Times,serif" font-size="14.00" fill="#000000">s1342 SYMBOL</text>
<text text-anchor="middle" x="379.8661" y="-940.8156" font-family="Times,serif" font-size="14.00" fill="#000000">identifier</text>
</a>
</g>
</g>
<!-- s1321&#45;&gt;s1342 -->
<g id="edge21" class="edge">
<title>s1321:p2&#45;&gt;s1342</title>
<path fill="none" stroke="#000000" d="M101.5996,-692.4156C145.5597,-692.4156 90.9316,-856.0894 119.5996,-889.4156 161.3935,-938.0007 233.5516,-952.8323 291.304,-956.1668"/>
<polygon fill="#000000" stroke="#000000" points="291.3879,-959.6745 301.5412,-956.6479 291.7165,-952.6822 291.3879,-959.6745"/>
<text text-anchor="middle" x="187.2441" y="-955.6156" font-family="Times,serif" font-size="14.00" fill="#000000">identifier</text>
</g>
<!-- s1343 -->
<g id="node23" class="node">
<title>s1343</title>
<g id="a_node23"><a xlink:href="rust-grammar.json.scoped_identifier.dot.svg" xlink:title="s1343 SYMBOL\nscoped_identifier">
<ellipse fill="none" stroke="#000000" cx="379.8661" cy="-876.4156" rx="80.07" ry="29.3315"/>
<text text-anchor="middle" x="379.8661" y="-880.6156" font-family="Times,serif" font-size="14.00" fill="#000000">s1343 SYMBOL</text>
<text text-anchor="middle" x="379.8661" y="-863.8156" font-family="Times,serif" font-size="14.00" fill="#000000">scoped_identifier</text>
</a>
</g>
</g>
<!-- s1321&#45;&gt;s1343 -->
<g id="edge22" class="edge">
<title>s1321:p3&#45;&gt;s1343</title>
<path fill="none" stroke="#000000" d="M101.5996,-667.4156C131.6448,-667.4156 99.9723,-778.6673 119.5996,-801.4156 161.4015,-849.8646 232.303,-867.9982 289.5563,-874.3557"/>
<polygon fill="#000000" stroke="#000000" points="289.4119,-877.8588 299.7121,-875.3775 290.1127,-870.894 289.4119,-877.8588"/>
<text text-anchor="middle" x="187.2441" y="-872.6156" font-family="Times,serif" font-size="14.00" fill="#000000">scoped_identifier</text>
</g>
<!-- s1344 -->
<g id="node24" class="node">
<title>s1344</title>
<g id="a_node24"><a xlink:href="rust-grammar.json.tuple_pattern.dot.svg" xlink:title="s1344 SYMBOL\ntuple_pattern">
<ellipse fill="none" stroke="#000000" cx="379.8661" cy="-799.4156" rx="78.8659" ry="29.3315"/>
<text text-anchor="middle" x="379.8661" y="-803.6156" font-family="Times,serif" font-size="14.00" fill="#000000">s1344 SYMBOL</text>
<text text-anchor="middle" x="379.8661" y="-786.8156" font-family="Times,serif" font-size="14.00" fill="#000000">tuple_pattern</text>
</a>
</g>
</g>
<!-- s1321&#45;&gt;s1344 -->
<g id="edge23" class="edge">
<title>s1321:p4&#45;&gt;s1344</title>
<path fill="none" stroke="#000000" d="M101.5996,-642.4156C131.5757,-642.4156 99.1538,-685.4944 119.5996,-707.4156 164.7753,-755.8514 237.0268,-778.8034 293.9542,-789.6704"/>
<polygon fill="#000000" stroke="#000000" points="293.5689,-793.1576 304.0332,-791.5 294.8192,-786.2701 293.5689,-793.1576"/>
<text text-anchor="middle" x="187.2441" y="-784.6156" font-family="Times,serif" font-size="14.00" fill="#000000">tuple_pattern</text>
</g>
<!-- s1345 -->
<g id="node25" class="node">
<title>s1345</title>
<g id="a_node25"><a xlink:href="rust-grammar.json.tuple_struct_pattern.dot.svg" xlink:title="s1345 SYMBOL\ntuple_struct_pattern">
<ellipse fill="none" stroke="#000000" cx="379.8661" cy="-722.4156" rx="90.4738" ry="29.3315"/>
<text text-anchor="middle" x="379.8661" y="-726.6156" font-family="Times,serif" font-size="14.00" fill="#000000">s1345 SYMBOL</text>
<text text-anchor="middle" x="379.8661" y="-709.8156" font-family="Times,serif" font-size="14.00" fill="#000000">tuple_struct_pattern</text>
</a>
</g>
</g>
<!-- s1321&#45;&gt;s1345 -->
<g id="edge24" class="edge">
<title>s1321:p5&#45;&gt;s1345</title>
<path fill="none" stroke="#000000" d="M101.5996,-618.4156C111.7345,-618.4156 110.6908,-627.5835 119.5996,-632.4156 176.2751,-663.1561 245.4632,-686.4845 298.2537,-701.6794"/>
<polygon fill="#000000" stroke="#000000" points="297.3375,-705.0576 307.9133,-704.422 299.2494,-698.3237 297.3375,-705.0576"/>
<text text-anchor="middle" x="187.2441" y="-690.6156" font-family="Times,serif" font-size="14.00" fill="#000000">tuple_struct_pattern</text>
</g>
<!-- s1346 -->
<g id="node26" class="node">
<title>s1346</title>
<g id="a_node26"><a xlink:href="rust-grammar.json.struct_pattern.dot.svg" xlink:title="s1346 SYMBOL\nstruct_pattern">
<ellipse fill="none" stroke="#000000" cx="379.8661" cy="-645.4156" rx="78.8659" ry="29.3315"/>
<text text-anchor="middle" x="379.8661" y="-649.6156" font-family="Times,serif" font-size="14.00" fill="#000000">s1346 SYMBOL</text>
<text text-anchor="middle" x="379.8661" y="-632.8156" font-family="Times,serif" font-size="14.00" fill="#000000">struct_pattern</text>
</a>
</g>
</g>
<!-- s1321&#45;&gt;s1346 -->
<g id="edge25" class="edge">
<title>s1321:p6&#45;&gt;s1346</title>
<path fill="none" stroke="#000000" d="M101.5996,-593.4156C172.7664,-593.4156 252.4558,-610.0534 308.256,-624.5067"/>
<polygon fill="#000000" stroke="#000000" points="307.48,-627.9216 318.0416,-627.0824 309.2619,-621.1522 307.48,-627.9216"/>
<text text-anchor="middle" x="187.2441" y="-615.6156" font-family="Times,serif" font-size="14.00" fill="#000000">struct_pattern</text>
</g>
<!-- s1347 -->
<g id="node27" class="node">
<title>s1347</title>
<g id="a_node27"><a xlink:href="rust-grammar.json.ref_pattern.dot.svg" xlink:title="s1347 SYMBOL\nref_pattern">
<ellipse fill="none" stroke="#000000" cx="379.8661" cy="-568.4156" rx="78.8659" ry="29.3315"/>
<text text-anchor="middle" x="379.8661" y="-572.6156" font-family="Times,serif" font-size="14.00" fill="#000000">s1347 SYMBOL</text>
<text text-anchor="middle" x="379.8661" y="-555.8156" font-family="Times,serif" font-size="14.00" fill="#000000">ref_pattern</text>
</a>
</g>
</g>
<!-- s1321&#45;&gt;s1347 -->
<g id="edge26" class="edge">
<title>s1321:p7&#45;&gt;s1347</title>
<path fill="none" stroke="#000000" d="M101.5996,-568.4156C164.9298,-568.4156 236.3674,-568.4156 291.0028,-568.4156"/>
<polygon fill="#000000" stroke="#000000" points="291.0032,-571.9157 301.0032,-568.4156 291.0031,-564.9157 291.0032,-571.9157"/>
<text text-anchor="middle" x="187.2441" y="-572.6156" font-family="Times,serif" font-size="14.00" fill="#000000">ref_pattern</text>
</g>
<!-- s1348 -->
<g id="node28" class="node">
<title>s1348</title>
<g id="a_node28"><a xlink:href="rust-grammar.json.slice_pattern.dot.svg" xlink:title="s1348 SYMBOL\nslice_pattern">
<ellipse fill="none" stroke="#000000" cx="379.8661" cy="-491.4156" rx="78.8659" ry="29.3315"/>
<text text-anchor="middle" x="379.8661" y="-495.6156" font-family="Times,serif" font-size="14.00" fill="#000000">s1348 SYMBOL</text>
<text text-anchor="middle" x="379.8661" y="-478.8156" font-family="Times,serif" font-size="14.00" fill="#000000">slice_pattern</text>
</a>
</g>
</g>
<!-- s1321&#45;&gt;s1348 -->
<g id="edge27" class="edge">
<title>s1321:p8&#45;&gt;s1348</title>
<path fill="none" stroke="#000000" d="M101.5996,-543.4156C172.7664,-543.4156 252.4558,-526.7779 308.256,-512.3246"/>
<polygon fill="#000000" stroke="#000000" points="309.2619,-515.6791 318.0416,-509.7489 307.48,-508.9097 309.2619,-515.6791"/>
<text text-anchor="middle" x="187.2441" y="-546.6156" font-family="Times,serif" font-size="14.00" fill="#000000">slice_pattern</text>
</g>
<!-- s1349 -->
<g id="node29" class="node">
<title>s1349</title>
<g id="a_node29"><a xlink:href="rust-grammar.json.captured_pattern.dot.svg" xlink:title="s1349 SYMBOL\ncaptured_pattern">
<ellipse fill="none" stroke="#000000" cx="379.8661" cy="-414.4156" rx="78.8659" ry="29.3315"/>
<text text-anchor="middle" x="379.8661" y="-418.6156" font-family="Times,serif" font-size="14.00" fill="#000000">s1349 SYMBOL</text>
<text text-anchor="middle" x="379.8661" y="-401.8156" font-family="Times,serif" font-size="14.00" fill="#000000">captured_pattern</text>
</a>
</g>
</g>
<!-- s1321&#45;&gt;s1349 -->
<g id="edge28" class="edge">
<title>s1321:p9&#45;&gt;s1349</title>
<path fill="none" stroke="#000000" d="M101.5996,-518.4156C111.9566,-518.4156 110.5564,-508.6641 119.5996,-503.6156 177.8065,-471.1211 249.9019,-447.5455 303.443,-432.8219"/>
<polygon fill="#000000" stroke="#000000" points="304.4791,-436.1674 313.2168,-430.1755 302.6496,-429.4107 304.4791,-436.1674"/>
<text text-anchor="middle" x="187.2441" y="-507.6156" font-family="Times,serif" font-size="14.00" fill="#000000">captured_pattern</text>
</g>
<!-- s1350 -->
<g id="node30" class="node">
<title>s1350</title>
<g id="a_node30"><a xlink:href="rust-grammar.json.reference_pattern.dot.svg" xlink:title="s1350 SYMBOL\nreference_pattern">
<ellipse fill="none" stroke="#000000" cx="379.8661" cy="-337.4156" rx="80.6155" ry="29.3315"/>
<text text-anchor="middle" x="379.8661" y="-341.6156" font-family="Times,serif" font-size="14.00" fill="#000000">s1350 SYMBOL</text>
<text text-anchor="middle" x="379.8661" y="-324.8156" font-family="Times,serif" font-size="14.00" fill="#000000">reference_pattern</text>
</a>
</g>
</g>
<!-- s1321&#45;&gt;s1350 -->
<g id="edge29" class="edge">
<title>s1321:p10&#45;&gt;s1350</title>
<path fill="none" stroke="#000000" d="M101.5996,-494.4156C132.3474,-494.4156 98.6363,-450.1094 119.5996,-427.6156 164.1208,-379.8441 235.1973,-357.372 291.8326,-346.8015"/>
<polygon fill="#000000" stroke="#000000" points="292.6329,-350.2143 301.8689,-345.0234 291.4116,-343.3217 292.6329,-350.2143"/>
<text text-anchor="middle" x="187.2441" y="-431.6156" font-family="Times,serif" font-size="14.00" fill="#000000">reference_pattern</text>
</g>
<!-- s1351 -->
<g id="node31" class="node">
<title>s1351</title>
<g id="a_node31"><a xlink:href="rust-grammar.json.remaining_field_pattern.dot.svg" xlink:title="s1351 SYMBOL\nremaining_field_pattern">
<ellipse fill="none" stroke="#000000" cx="379.8661" cy="-260.4156" rx="106.955" ry="29.3315"/>
<text text-anchor="middle" x="379.8661" y="-264.6156" font-family="Times,serif" font-size="14.00" fill="#000000">s1351 SYMBOL</text>
<text text-anchor="middle" x="379.8661" y="-247.8156" font-family="Times,serif" font-size="14.00" fill="#000000">remaining_field_pattern</text>
</a>
</g>
</g>
<!-- s1321&#45;&gt;s1351 -->
<g id="edge30" class="edge">
<title>s1321:p11&#45;&gt;s1351</title>
<path fill="none" stroke="#000000" d="M101.5996,-469.4156C132.0413,-469.4156 99.6598,-356.6179 119.5996,-333.6156 155.1969,-292.5512 211.8321,-273.6583 263.1943,-265.2815"/>
<polygon fill="#000000" stroke="#000000" points="264.0229,-268.6962 273.3886,-263.7429 262.9782,-261.7746 264.0229,-268.6962"/>
<text text-anchor="middle" x="187.2441" y="-337.6156" font-family="Times,serif" font-size="14.00" fill="#000000">remaining_field_pattern</text>
</g>
<!-- s1352 -->
<g id="node32" class="node">
<title>s1352</title>
<g id="a_node32"><a xlink:href="rust-grammar.json.mut_pattern.dot.svg" xlink:title="s1352 SYMBOL\nmut_pattern">
<ellipse fill="none" stroke="#000000" cx="379.8661" cy="-183.4156" rx="78.8659" ry="29.3315"/>
<text text-anchor="middle" x="379.8661" y="-187.6156" font-family="Times,serif" font-size="14.00" fill="#000000">s1352 SYMBOL</text>
<text text-anchor="middle" x="379.8661" y="-170.8156" font-family="Times,serif" font-size="14.00" fill="#000000">mut_pattern</text>
</a>
</g>
</g>
<!-- s1321&#45;&gt;s1352 -->
<g id="edge31" class="edge">
<title>s1321:p12&#45;&gt;s1352</title>
<path fill="none" stroke="#000000" d="M101.5996,-444.4156C145.9581,-444.4156 90.5759,-279.1612 119.5996,-245.6156 161.4657,-197.2269 233.6183,-182.9013 291.3503,-179.9926"/>
<polygon fill="#000000" stroke="#000000" points="291.73,-183.4804 301.5836,-179.5872 291.4528,-176.4859 291.73,-183.4804"/>
<text text-anchor="middle" x="187.2441" y="-249.6156" font-family="Times,serif" font-size="14.00" fill="#000000">mut_pattern</text>
</g>
<!-- s1353 -->
<g id="node33" class="node">
<title>s1353</title>
<g id="a_node33"><a xlink:href="rust-grammar.json.range_pattern.dot.svg" xlink:title="s1353 SYMBOL\nrange_pattern">
<ellipse fill="none" stroke="#000000" cx="379.8661" cy="-106.4156" rx="78.8659" ry="29.3315"/>
<text text-anchor="middle" x="379.8661" y="-110.6156" font-family="Times,serif" font-size="14.00" fill="#000000">s1353 SYMBOL</text>
<text text-anchor="middle" x="379.8661" y="-93.8156" font-family="Times,serif" font-size="14.00" fill="#000000">range_pattern</text>
</a>
</g>
</g>
<!-- s1321&#45;&gt;s1353 -->
<g id="edge32" class="edge">
<title>s1321:p13&#45;&gt;s1353</title>
<path fill="none" stroke="#000000" d="M101.5996,-419.4156C130.2029,-419.4156 100.8672,-184.2316 119.5996,-162.6156 161.5816,-114.1713 234.4515,-101.7201 292.4269,-100.4826"/>
<polygon fill="#000000" stroke="#000000" points="292.7357,-103.9797 302.6986,-100.3756 292.6627,-96.9801 292.7357,-103.9797"/>
<text text-anchor="middle" x="187.2441" y="-166.6156" font-family="Times,serif" font-size="14.00" fill="#000000">range_pattern</text>
</g>
<!-- s1354 -->
<g id="node34" class="node">
<title>s1354</title>
<ellipse fill="none" stroke="#000000" cx="379.8661" cy="-29.4156" rx="73.3577" ry="29.3315"/>
<text text-anchor="middle" x="379.8661" y="-33.6156" font-family="Times,serif" font-size="14.00" fill="#000000">s1354 STRING</text>
<text text-anchor="middle" x="379.8661" y="-16.8156" font-family="Times,serif" font-size="14.00" fill="#000000">&quot;_&quot;</text>
</g>
<!-- s1321&#45;&gt;s1354 -->
<g id="edge33" class="edge">
<title>s1321:p14&#45;&gt;s1354</title>
<path fill="none" stroke="#000000" d="M91.7998,-382.4156C91.7998,-348.851 97.1537,-106.5709 119.5996,-81.6156 163.6454,-32.6457 239.6298,-22.084 298.1637,-22.3083"/>
<polygon fill="#000000" stroke="#000000" points="298.4576,-25.8128 308.5077,-22.4593 298.5599,-18.8136 298.4576,-25.8128"/>
<text text-anchor="middle" x="187.2441" y="-85.6156" font-family="Times,serif" font-size="14.00" fill="#000000">_</text>
</g>
<!-- s1324 -->
<g id="node4" class="node">
<title>s1324</title>
<polygon fill="none" stroke="#000000" points="523.8436,-811.6156 523.8436,-1233.2156 625.4432,-1233.2156 625.4432,-811.6156 523.8436,-811.6156"/>
<text text-anchor="middle" x="564.8934" y="-1026.6156" font-family="Times,serif" font-size="14.00" fill="#000000">s1324</text>
<text text-anchor="middle" x="564.8934" y="-1009.8156" font-family="Times,serif" font-size="14.00" fill="#000000">→ CHOICE</text>
<polyline fill="none" stroke="#000000" points="605.9432,-811.6156 605.9432,-1233.2156 "/>
<text text-anchor="middle" x="615.6932" y="-1216.6156" font-family="Times,serif" font-size="14.00" fill="#000000"> </text>
<polyline fill="none" stroke="#000000" points="605.9432,-1208.4156 625.4432,-1208.4156 "/>
<text text-anchor="middle" x="615.6932" y="-1191.8156" font-family="Times,serif" font-size="14.00" fill="#000000"> </text>
<polyline fill="none" stroke="#000000" points="605.9432,-1183.6156 625.4432,-1183.6156 "/>
<text text-anchor="middle" x="615.6932" y="-1167.0156" font-family="Times,serif" font-size="14.00" fill="#000000"> </text>
<polyline fill="none" stroke="#000000" points="605.9432,-1158.8156 625.4432,-1158.8156 "/>
<text text-anchor="middle" x="615.6932" y="-1142.2156" font-family="Times,serif" font-size="14.00" fill="#000000"> </text>
<polyline fill="none" stroke="#000000" points="605.9432,-1134.0156 625.4432,-1134.0156 "/>
<text text-anchor="middle" x="615.6932" y="-1117.4156" font-family="Times,serif" font-size="14.00" fill="#000000"> </text>
<polyline fill="none" stroke="#000000" points="605.9432,-1109.2156 625.4432,-1109.2156 "/>
<text text-anchor="middle" x="615.6932" y="-1092.6156" font-family="Times,serif" font-size="14.00" fill="#000000"> </text>
<polyline fill="none" stroke="#000000" points="605.9432,-1084.4156 625.4432,-1084.4156 "/>
<text text-anchor="middle" x="615.6932" y="-1067.8156" font-family="Times,serif" font-size="14.00" fill="#000000"> </text>
<polyline fill="none" stroke="#000000" points="605.9432,-1059.6156 625.4432,-1059.6156 "/>
<text text-anchor="middle" x="615.6932" y="-1043.0156" font-family="Times,serif" font-size="14.00" fill="#000000"> </text>
<polyline fill="none" stroke="#000000" points="605.9432,-1034.8156 625.4432,-1034.8156 "/>
<text text-anchor="middle" x="615.6932" y="-1018.2156" font-family="Times,serif" font-size="14.00" fill="#000000"> </text>
<polyline fill="none" stroke="#000000" points="605.9432,-1010.0156 625.4432,-1010.0156 "/>
<text text-anchor="middle" x="615.6932" y="-993.4156" font-family="Times,serif" font-size="14.00" fill="#000000"> </text>
<polyline fill="none" stroke="#000000" points="605.9432,-985.2156 625.4432,-985.2156 "/>
<text text-anchor="middle" x="615.6932" y="-968.6156" font-family="Times,serif" font-size="14.00" fill="#000000"> </text>
<polyline fill="none" stroke="#000000" points="605.9432,-960.4156 625.4432,-960.4156 "/>
<text text-anchor="middle" x="615.6932" y="-943.8156" font-family="Times,serif" font-size="14.00" fill="#000000"> </text>
<polyline fill="none" stroke="#000000" points="605.9432,-935.6156 625.4432,-935.6156 "/>
<text text-anchor="middle" x="615.6932" y="-919.0156" font-family="Times,serif" font-size="14.00" fill="#000000"> </text>
<polyline fill="none" stroke="#000000" points="605.9432,-910.8156 625.4432,-910.8156 "/>
<text text-anchor="middle" x="615.6932" y="-894.2156" font-family="Times,serif" font-size="14.00" fill="#000000"> </text>
<polyline fill="none" stroke="#000000" points="605.9432,-886.0156 625.4432,-886.0156 "/>
<text text-anchor="middle" x="615.6932" y="-869.4156" font-family="Times,serif" font-size="14.00" fill="#000000"> </text>
<polyline fill="none" stroke="#000000" points="605.9432,-861.2156 625.4432,-861.2156 "/>
<text text-anchor="middle" x="615.6932" y="-844.6156" font-family="Times,serif" font-size="14.00" fill="#000000"> </text>
<polyline fill="none" stroke="#000000" points="605.9432,-836.4156 625.4432,-836.4156 "/>
<text text-anchor="middle" x="615.6932" y="-819.8156" font-family="Times,serif" font-size="14.00" fill="#000000"> </text>
</g>
<!-- s1323&#45;&gt;s1324 -->
<g id="edge19" class="edge">
<title>s1323&#45;&gt;s1324</title>
<path fill="none" stroke="#000000" d="M415.5912,-1022.4156C442.9429,-1022.4156 481.3182,-1022.4156 513.5213,-1022.4156"/>
<polygon fill="#000000" stroke="#000000" points="513.7383,-1025.9157 523.7382,-1022.4156 513.7382,-1018.9157 513.7383,-1025.9157"/>
</g>
<!-- s1325 -->
<g id="node5" class="node">
<title>s1325</title>
<ellipse fill="none" stroke="#000000" cx="763.3862" cy="-1638.4156" rx="73.3577" ry="29.3315"/>
<text text-anchor="middle" x="763.3862" y="-1642.6156" font-family="Times,serif" font-size="14.00" fill="#000000">s1325 STRING</text>
<text text-anchor="middle" x="763.3862" y="-1625.8156" font-family="Times,serif" font-size="14.00" fill="#000000">&quot;u8&quot;</text>
</g>
<!-- s1324&#45;&gt;s1325 -->
<g id="edge2" class="edge">
<title>s1324:p0&#45;&gt;s1325</title>
<path fill="none" stroke="#000000" d="M615.6434,-1233.4156C615.6434,-1298.3767 622.6149,-1462.8841 643.4432,-1524.4156 656.0381,-1561.624 661.5042,-1572.5975 690.2076,-1599.4156 694.7637,-1603.6725 699.8729,-1607.6054 705.2176,-1611.202"/>
<polygon fill="#000000" stroke="#000000" points="703.4357,-1614.2159 713.7645,-1616.5752 707.1614,-1608.2897 703.4357,-1614.2159"/>
<text text-anchor="middle" x="657.8254" y="-1584.6156" font-family="Times,serif" font-size="14.00" fill="#000000">u8</text>
</g>
<!-- s1326 -->
<g id="node6" class="node">
<title>s1326</title>
<ellipse fill="none" stroke="#000000" cx="763.3862" cy="-1561.4156" rx="73.3577" ry="29.3315"/>
<text text-anchor="middle" x="763.3862" y="-1565.6156" font-family="Times,serif" font-size="14.00" fill="#000000">s1326 STRING</text>
<text text-anchor="middle" x="763.3862" y="-1548.8156" font-family="Times,serif" font-size="14.00" fill="#000000">&quot;i8&quot;</text>
</g>
<!-- s1324&#45;&gt;s1326 -->
<g id="edge3" class="edge">
<title>s1324:p1&#45;&gt;s1326</title>
<path fill="none" stroke="#000000" d="M625.4432,-1196.4156C653.4037,-1196.4156 634.7921,-1420.8271 643.4432,-1447.4156 655.5972,-1484.7703 661.5042,-1495.5975 690.2076,-1522.4156 694.7637,-1526.6725 699.8729,-1530.6054 705.2176,-1534.202"/>
<polygon fill="#000000" stroke="#000000" points="703.4357,-1537.2159 713.7645,-1539.5752 707.1614,-1531.2897 703.4357,-1537.2159"/>
<text text-anchor="middle" x="657.8254" y="-1507.6156" font-family="Times,serif" font-size="14.00" fill="#000000">i8</text>
</g>
<!-- s1327 -->
<g id="node7" class="node">
<title>s1327</title>
<ellipse fill="none" stroke="#000000" cx="763.3862" cy="-1484.4156" rx="73.3577" ry="29.3315"/>
<text text-anchor="middle" x="763.3862" y="-1488.6156" font-family="Times,serif" font-size="14.00" fill="#000000">s1327 STRING</text>
<text text-anchor="middle" x="763.3862" y="-1471.8156" font-family="Times,serif" font-size="14.00" fill="#000000">&quot;u16&quot;</text>
</g>
<!-- s1324&#45;&gt;s1327 -->
<g id="edge4" class="edge">
<title>s1324:p2&#45;&gt;s1327</title>
<path fill="none" stroke="#000000" d="M625.4432,-1171.4156C647.6445,-1171.4156 636.3778,-1349.3685 643.4432,-1370.4156 655.9443,-1407.6556 661.5042,-1418.5975 690.2076,-1445.4156 694.7637,-1449.6725 699.8729,-1453.6054 705.2176,-1457.202"/>
<polygon fill="#000000" stroke="#000000" points="703.4357,-1460.2159 713.7645,-1462.5752 707.1614,-1454.2897 703.4357,-1460.2159"/>
<text text-anchor="middle" x="657.8254" y="-1430.6156" font-family="Times,serif" font-size="14.00" fill="#000000">u16</text>
</g>
<!-- s1328 -->
<g id="node8" class="node">
<title>s1328</title>
<ellipse fill="none" stroke="#000000" cx="763.3862" cy="-1407.4156" rx="73.3577" ry="29.3315"/>
<text text-anchor="middle" x="763.3862" y="-1411.6156" font-family="Times,serif" font-size="14.00" fill="#000000">s1328 STRING</text>
<text text-anchor="middle" x="763.3862" y="-1394.8156" font-family="Times,serif" font-size="14.00" fill="#000000">&quot;i16&quot;</text>
</g>
<!-- s1324&#45;&gt;s1328 -->
<g id="edge5" class="edge">
<title>s1324:p3&#45;&gt;s1328</title>
<path fill="none" stroke="#000000" d="M625.4432,-1146.4156C658.1332,-1146.4156 632.6297,-1261.5658 643.4432,-1292.4156 656.5622,-1329.843 661.3085,-1341.2538 690.2076,-1368.4156 694.7511,-1372.686 699.8519,-1376.6278 705.1914,-1380.2299"/>
<polygon fill="#000000" stroke="#000000" points="703.4058,-1383.2416 713.7327,-1385.6091 707.1362,-1377.3184 703.4058,-1383.2416"/>
<text text-anchor="middle" x="657.8254" y="-1353.6156" font-family="Times,serif" font-size="14.00" fill="#000000">i16</text>
</g>
<!-- s1329 -->
<g id="node9" class="node">
<title>s1329</title>
<ellipse fill="none" stroke="#000000" cx="763.3862" cy="-1330.4156" rx="73.3577" ry="29.3315"/>
<text text-anchor="middle" x="763.3862" y="-1334.6156" font-family="Times,serif" font-size="14.00" fill="#000000">s1329 STRING</text>
<text text-anchor="middle" x="763.3862" y="-1317.8156" font-family="Times,serif" font-size="14.00" fill="#000000">&quot;u32&quot;</text>
</g>
<!-- s1324&#45;&gt;s1329 -->
<g id="edge6" class="edge">
<title>s1324:p4&#45;&gt;s1329</title>
<path fill="none" stroke="#000000" d="M625.4432,-1121.4156C646.4934,-1121.4156 635.8608,-1194.7785 643.4432,-1214.4156 657.8655,-1251.7672 661.1121,-1263.9094 690.2076,-1291.4156 694.7386,-1295.6992 699.8312,-1299.6497 705.1656,-1303.2572"/>
<polygon fill="#000000" stroke="#000000" points="703.3763,-1306.2667 713.7014,-1308.6424 707.1114,-1300.3464 703.3763,-1306.2667"/>
<text text-anchor="middle" x="657.8254" y="-1275.6156" font-family="Times,serif" font-size="14.00" fill="#000000">u32</text>
</g>
<!-- s1330 -->
<g id="node10" class="node">
<title>s1330</title>
<ellipse fill="none" stroke="#000000" cx="763.3862" cy="-1253.4156" rx="73.3577" ry="29.3315"/>
<text text-anchor="middle" x="763.3862" y="-1257.6156" font-family="Times,serif" font-size="14.00" fill="#000000">s1330 STRING</text>
<text text-anchor="middle" x="763.3862" y="-1240.8156" font-family="Times,serif" font-size="14.00" fill="#000000">&quot;i32&quot;</text>
</g>
<!-- s1324&#45;&gt;s1330 -->
<g id="edge7" class="edge">
<title>s1324:p5&#45;&gt;s1330</title>
<path fill="none" stroke="#000000" d="M625.4432,-1096.4156C644.938,-1096.4156 634.4154,-1119.137 643.4432,-1136.4156 662.1608,-1172.2403 660.9149,-1186.5642 690.2076,-1214.4156 694.7264,-1218.7121 699.8109,-1222.6712 705.1403,-1226.284"/>
<polygon fill="#000000" stroke="#000000" points="703.3473,-1229.2912 713.6706,-1231.6749 707.087,-1223.3738 703.3473,-1229.2912"/>
<text text-anchor="middle" x="657.8254" y="-1197.6156" font-family="Times,serif" font-size="14.00" fill="#000000">i32</text>
</g>
<!-- s1331 -->
<g id="node11" class="node">
<title>s1331</title>
<ellipse fill="none" stroke="#000000" cx="763.3862" cy="-1176.4156" rx="73.3577" ry="29.3315"/>
<text text-anchor="middle" x="763.3862" y="-1180.6156" font-family="Times,serif" font-size="14.00" fill="#000000">s1331 STRING</text>
<text text-anchor="middle" x="763.3862" y="-1163.8156" font-family="Times,serif" font-size="14.00" fill="#000000">&quot;u64&quot;</text>
</g>
<!-- s1324&#45;&gt;s1331 -->
<g id="edge8" class="edge">
<title>s1324:p6&#45;&gt;s1331</title>
<path fill="none" stroke="#000000" d="M625.4432,-1072.4156C666.2242,-1072.4156 657.4591,-1113.1126 690.2076,-1137.4156 695.567,-1141.3929 701.3851,-1145.2087 707.3201,-1148.791"/>
<polygon fill="#000000" stroke="#000000" points="705.6537,-1151.8706 716.0594,-1153.864 709.168,-1145.8167 705.6537,-1151.8706"/>
<text text-anchor="middle" x="657.8254" y="-1119.6156" font-family="Times,serif" font-size="14.00" fill="#000000">u64</text>
</g>
<!-- s1332 -->
<g id="node12" class="node">
<title>s1332</title>
<ellipse fill="none" stroke="#000000" cx="763.3862" cy="-1099.4156" rx="73.3577" ry="29.3315"/>
<text text-anchor="middle" x="763.3862" y="-1103.6156" font-family="Times,serif" font-size="14.00" fill="#000000">s1332 STRING</text>
<text text-anchor="middle" x="763.3862" y="-1086.8156" font-family="Times,serif" font-size="14.00" fill="#000000">&quot;i64&quot;</text>
</g>
<!-- s1324&#45;&gt;s1332 -->
<g id="edge9" class="edge">
<title>s1324:p7&#45;&gt;s1332</title>
<path fill="none" stroke="#000000" d="M625.4432,-1047.4156C655.7595,-1047.4156 687.554,-1058.5488 712.9681,-1070.5122"/>
<polygon fill="#000000" stroke="#000000" points="711.5065,-1073.6935 722.0279,-1074.9383 714.5792,-1067.4039 711.5065,-1073.6935"/>
<text text-anchor="middle" x="657.8254" y="-1057.6156" font-family="Times,serif" font-size="14.00" fill="#000000">i64</text>
</g>
<!-- s1333 -->
<g id="node13" class="node">
<title>s1333</title>
<ellipse fill="none" stroke="#000000" cx="763.3862" cy="-1022.4156" rx="73.3577" ry="29.3315"/>
<text text-anchor="middle" x="763.3862" y="-1026.6156" font-family="Times,serif" font-size="14.00" fill="#000000">s1333 STRING</text>
<text text-anchor="middle" x="763.3862" y="-1009.8156" font-family="Times,serif" font-size="14.00" fill="#000000">&quot;u128&quot;</text>
</g>
<!-- s1324&#45;&gt;s1333 -->
<g id="edge10" class="edge">
<title>s1324:p8&#45;&gt;s1333</title>
<path fill="none" stroke="#000000" d="M625.4432,-1022.4156C643.042,-1022.4156 661.9038,-1022.4156 679.8533,-1022.4156"/>
<polygon fill="#000000" stroke="#000000" points="680.0075,-1025.9157 690.0075,-1022.4156 680.0074,-1018.9157 680.0075,-1025.9157"/>
<text text-anchor="middle" x="657.8254" y="-1026.6156" font-family="Times,serif" font-size="14.00" fill="#000000">u128</text>
</g>
<!-- s1334 -->
<g id="node14" class="node">
<title>s1334</title>
<ellipse fill="none" stroke="#000000" cx="763.3862" cy="-945.4156" rx="73.3577" ry="29.3315"/>
<text text-anchor="middle" x="763.3862" y="-949.6156" font-family="Times,serif" font-size="14.00" fill="#000000">s1334 STRING</text>
<text text-anchor="middle" x="763.3862" y="-932.8156" font-family="Times,serif" font-size="14.00" fill="#000000">&quot;i128&quot;</text>
</g>
<!-- s1324&#45;&gt;s1334 -->
<g id="edge11" class="edge">
<title>s1324:p9&#45;&gt;s1334</title>
<path fill="none" stroke="#000000" d="M625.4432,-997.4156C655.7595,-997.4156 687.554,-986.2825 712.9681,-974.3191"/>
<polygon fill="#000000" stroke="#000000" points="714.5792,-977.4274 722.0279,-969.893 711.5065,-971.1378 714.5792,-977.4274"/>
<text text-anchor="middle" x="657.8254" y="-999.6156" font-family="Times,serif" font-size="14.00" fill="#000000">i128</text>
</g>
<!-- s1335 -->
<g id="node15" class="node">
<title>s1335</title>
<ellipse fill="none" stroke="#000000" cx="763.3862" cy="-868.4156" rx="73.3577" ry="29.3315"/>
<text text-anchor="middle" x="763.3862" y="-872.6156" font-family="Times,serif" font-size="14.00" fill="#000000">s1335 STRING</text>
<text text-anchor="middle" x="763.3862" y="-855.8156" font-family="Times,serif" font-size="14.00" fill="#000000">&quot;isize&quot;</text>
</g>
<!-- s1324&#45;&gt;s1335 -->
<g id="edge12" class="edge">
<title>s1324:p10&#45;&gt;s1335</title>
<path fill="none" stroke="#000000" d="M625.4432,-972.4156C666.2242,-972.4156 657.4591,-931.7186 690.2076,-907.4156 695.567,-903.4383 701.3851,-899.6226 707.3201,-896.0403"/>
<polygon fill="#000000" stroke="#000000" points="709.168,-899.0146 716.0594,-890.9673 705.6537,-892.9607 709.168,-899.0146"/>
<text text-anchor="middle" x="657.8254" y="-971.6156" font-family="Times,serif" font-size="14.00" fill="#000000">isize</text>
</g>
<!-- s1336 -->
<g id="node16" class="node">
<title>s1336</title>
<ellipse fill="none" stroke="#000000" cx="763.3862" cy="-791.4156" rx="73.3577" ry="29.3315"/>
<text text-anchor="middle" x="763.3862" y="-795.6156" font-family="Times,serif" font-size="14.00" fill="#000000">s1336 STRING</text>
<text text-anchor="middle" x="763.3862" y="-778.8156" font-family="Times,serif" font-size="14.00" fill="#000000">&quot;usize&quot;</text>
</g>
<!-- s1324&#45;&gt;s1336 -->
<g id="edge13" class="edge">
<title>s1324:p11&#45;&gt;s1336</title>
<path fill="none" stroke="#000000" d="M625.4432,-948.4156C645.2628,-948.4156 634.2897,-925.1949 643.4432,-907.6156 661.9699,-872.0348 661.0727,-857.9909 690.2076,-830.4156 694.7362,-826.1294 699.8271,-822.1772 705.1605,-818.5687"/>
<polygon fill="#000000" stroke="#000000" points="707.1065,-821.4794 713.6952,-813.1824 703.3705,-815.5597 707.1065,-821.4794"/>
<text text-anchor="middle" x="657.8254" y="-911.6156" font-family="Times,serif" font-size="14.00" fill="#000000">usize</text>
</g>
<!-- s1337 -->
<g id="node17" class="node">
<title>s1337</title>
<ellipse fill="none" stroke="#000000" cx="763.3862" cy="-714.4156" rx="73.3577" ry="29.3315"/>
<text text-anchor="middle" x="763.3862" y="-718.6156" font-family="Times,serif" font-size="14.00" fill="#000000">s1337 STRING</text>
<text text-anchor="middle" x="763.3862" y="-701.8156" font-family="Times,serif" font-size="14.00" fill="#000000">&quot;f32&quot;</text>
</g>
<!-- s1324&#45;&gt;s1337 -->
<g id="edge14" class="edge">
<title>s1324:p12&#45;&gt;s1337</title>
<path fill="none" stroke="#000000" d="M625.4432,-923.4156C646.6679,-923.4156 635.7677,-849.404 643.4432,-829.6156 657.8128,-792.5691 661.2693,-780.6463 690.2076,-753.4156 694.7486,-749.1426 699.8477,-745.1991 705.1862,-741.5959"/>
<polygon fill="#000000" stroke="#000000" points="707.1312,-744.5073 713.7264,-736.2154 703.3999,-738.5846 707.1312,-744.5073"/>
<text text-anchor="middle" x="657.8254" y="-833.6156" font-family="Times,serif" font-size="14.00" fill="#000000">f32</text>
</g>
<!-- s1338 -->
<g id="node18" class="node">
<title>s1338</title>
<ellipse fill="none" stroke="#000000" cx="763.3862" cy="-637.4156" rx="73.3577" ry="29.3315"/>
<text text-anchor="middle" x="763.3862" y="-641.6156" font-family="Times,serif" font-size="14.00" fill="#000000">s1338 STRING</text>
<text text-anchor="middle" x="763.3862" y="-624.8156" font-family="Times,serif" font-size="14.00" fill="#000000">&quot;f64&quot;</text>
</g>
<!-- s1324&#45;&gt;s1338 -->
<g id="edge15" class="edge">
<title>s1324:p13&#45;&gt;s1338</title>
<path fill="none" stroke="#000000" d="M625.4432,-898.4156C658.5303,-898.4156 632.3536,-781.789 643.4432,-750.6156 656.5081,-713.8893 661.6602,-702.9593 690.2076,-676.4156 694.774,-672.1697 699.89,-668.2442 705.2388,-664.6521"/>
<polygon fill="#000000" stroke="#000000" points="707.1818,-667.565 713.7904,-659.2838 703.46,-661.6363 707.1818,-667.565"/>
<text text-anchor="middle" x="657.8254" y="-754.6156" font-family="Times,serif" font-size="14.00" fill="#000000">f64</text>
</g>
<!-- s1339 -->
<g id="node19" class="node">
<title>s1339</title>
<ellipse fill="none" stroke="#000000" cx="763.3862" cy="-560.4156" rx="73.3577" ry="29.3315"/>
<text text-anchor="middle" x="763.3862" y="-564.6156" font-family="Times,serif" font-size="14.00" fill="#000000">s1339 STRING</text>
<text text-anchor="middle" x="763.3862" y="-547.8156" font-family="Times,serif" font-size="14.00" fill="#000000">&quot;bool&quot;</text>
</g>
<!-- s1324&#45;&gt;s1339 -->
<g id="edge16" class="edge">
<title>s1324:p14&#45;&gt;s1339</title>
<path fill="none" stroke="#000000" d="M625.4432,-873.4156C647.7331,-873.4156 636.3024,-694.7308 643.4432,-673.6156 655.931,-636.6891 661.6602,-625.9593 690.2076,-599.4156 694.774,-595.1697 699.89,-591.2442 705.2388,-587.6521"/>
<polygon fill="#000000" stroke="#000000" points="707.1818,-590.565 713.7904,-582.2838 703.46,-584.6363 707.1818,-590.565"/>
<text text-anchor="middle" x="657.8254" y="-677.6156" font-family="Times,serif" font-size="14.00" fill="#000000">bool</text>
</g>
<!-- s1340 -->
<g id="node20" class="node">
<title>s1340</title>
<ellipse fill="none" stroke="#000000" cx="763.3862" cy="-483.4156" rx="73.3577" ry="29.3315"/>
<text text-anchor="middle" x="763.3862" y="-487.6156" font-family="Times,serif" font-size="14.00" fill="#000000">s1340 STRING</text>
<text text-anchor="middle" x="763.3862" y="-470.8156" font-family="Times,serif" font-size="14.00" fill="#000000">&quot;str&quot;</text>
</g>
<!-- s1324&#45;&gt;s1340 -->
<g id="edge17" class="edge">
<title>s1324:p15&#45;&gt;s1340</title>
<path fill="none" stroke="#000000" d="M625.4432,-848.4156C653.4923,-848.4156 634.7034,-623.2684 643.4432,-596.6156 655.5892,-559.5753 661.6602,-548.9593 690.2076,-522.4156 694.774,-518.1697 699.89,-514.2442 705.2388,-510.6521"/>
<polygon fill="#000000" stroke="#000000" points="707.1818,-513.565 713.7904,-505.2838 703.46,-507.6363 707.1818,-513.565"/>
<text text-anchor="middle" x="657.8254" y="-600.6156" font-family="Times,serif" font-size="14.00" fill="#000000">str</text>
</g>
<!-- s1341 -->
<g id="node21" class="node">
<title>s1341</title>
<ellipse fill="none" stroke="#000000" cx="763.3862" cy="-406.4156" rx="73.3577" ry="29.3315"/>
<text text-anchor="middle" x="763.3862" y="-410.6156" font-family="Times,serif" font-size="14.00" fill="#000000">s1341 STRING</text>
<text text-anchor="middle" x="763.3862" y="-393.8156" font-family="Times,serif" font-size="14.00" fill="#000000">&quot;char&quot;</text>
</g>
<!-- s1324&#45;&gt;s1341 -->
<g id="edge18" class="edge">
<title>s1324:p16&#45;&gt;s1341</title>
<path fill="none" stroke="#000000" d="M615.6434,-811.4156C615.6434,-746.2776 622.4174,-581.2669 643.4432,-519.6156 656.0257,-482.7213 661.6602,-471.9593 690.2076,-445.4156 694.774,-441.1697 699.89,-437.2442 705.2388,-433.6521"/>
<polygon fill="#000000" stroke="#000000" points="707.1818,-436.565 713.7904,-428.2838 703.46,-430.6363 707.1818,-436.565"/>
<text text-anchor="middle" x="657.8254" y="-523.6156" font-family="Times,serif" font-size="14.00" fill="#000000">char</text>
</g>
</g>
</svg>
