<?xml version="1.0" encoding="UTF-8" standalone="no"?>
<!DOCTYPE svg PUBLIC "-//W3C//DTD SVG 1.1//EN"
 "http://www.w3.org/Graphics/SVG/1.1/DTD/svg11.dtd">
<!-- Generated by graphviz version 2.40.1 (20161225.0304)
 -->
<!-- Title: field_initializer_list Pages: 1 -->
<svg width="2539pt" height="327pt"
 viewBox="0.00 0.00 2538.76 326.83" xmlns="http://www.w3.org/2000/svg" xmlns:xlink="http://www.w3.org/1999/xlink">
<g id="graph0" class="graph" transform="scale(1 1) rotate(0) translate(4 322.8313)">
<title>field_initializer_list</title>
<polygon fill="#ffffff" stroke="transparent" points="-4,4 -4,-322.8313 2534.7554,-322.8313 2534.7554,4 -4,4"/>
<!-- s1118 -->
<g id="node1" class="node">
<title>s1118</title>
<polygon fill="none" stroke="#000000" points="0,-99.6156 0,-141.2156 56.4418,-141.2156 56.4418,-99.6156 0,-99.6156"/>
<text text-anchor="middle" x="28.2209" y="-124.6156" font-family="Times,serif" font-size="14.00" fill="#000000">s1118</text>
<text text-anchor="middle" x="28.2209" y="-107.8156" font-family="Times,serif" font-size="14.00" fill="#000000">→ SEQ</text>
</g>
<!-- s1119 -->
<g id="node2" class="node">
<title>s1119</title>
<ellipse fill="none" stroke="#000000" cx="166.6204" cy="-120.4156" rx="73.3577" ry="29.3315"/>
<text text-anchor="middle" x="166.6204" y="-124.6156" font-family="Times,serif" font-size="14.00" fill="#000000">s1119 STRING</text>
<text text-anchor="middle" x="166.6204" y="-107.8156" font-family="Times,serif" font-size="14.00" fill="#000000">&quot;{&quot;</text>
</g>
<!-- s1118&#45;&gt;s1119 -->
<g id="edge1" class="edge">
<title>s1118&#45;&gt;s1119</title>
<path fill="none" stroke="#000000" d="M56.5621,-120.4156C64.6032,-120.4156 73.7912,-120.4156 83.3533,-120.4156"/>
<polygon fill="#000000" stroke="#000000" points="83.4211,-123.9157 93.421,-120.4156 83.421,-116.9157 83.4211,-123.9157"/>
</g>
<!-- s1120 -->
<g id="node3" class="node">
<title>s1120</title>
<polygon fill="none" stroke="#000000" points="276.799,-95.6156 276.799,-145.2156 378.3986,-145.2156 378.3986,-95.6156 276.799,-95.6156"/>
<text text-anchor="middle" x="317.8488" y="-124.6156" font-family="Times,serif" font-size="14.00" fill="#000000">s1120</text>
<text text-anchor="middle" x="317.8488" y="-107.8156" font-family="Times,serif" font-size="14.00" fill="#000000">→ CHOICE</text>
<polyline fill="none" stroke="#000000" points="358.8986,-95.6156 358.8986,-145.2156 "/>
<text text-anchor="middle" x="368.6486" y="-128.6156" font-family="Times,serif" font-size="14.00" fill="#000000"> </text>
<polyline fill="none" stroke="#000000" points="358.8986,-120.4156 378.3986,-120.4156 "/>
<text text-anchor="middle" x="368.6486" y="-103.8156" font-family="Times,serif" font-size="14.00" fill="#000000"> </text>
</g>
<!-- s1119&#45;&gt;s1120 -->
<g id="edge20" class="edge">
<title>s1119&#45;&gt;s1120</title>
<path fill="none" stroke="#000000" d="M240.0435,-120.4156C248.7685,-120.4156 257.6051,-120.4156 266.139,-120.4156"/>
<polygon fill="#000000" stroke="#000000" points="266.3705,-123.9157 276.3705,-120.4156 266.3704,-116.9157 266.3705,-123.9157"/>
</g>
<!-- s1121 -->
<g id="node4" class="node">
<title>s1121</title>
<polygon fill="none" stroke="#000000" points="415.3986,-142.6156 415.3986,-184.2156 471.8404,-184.2156 471.8404,-142.6156 415.3986,-142.6156"/>
<text text-anchor="middle" x="443.6195" y="-167.6156" font-family="Times,serif" font-size="14.00" fill="#000000">s1121</text>
<text text-anchor="middle" x="443.6195" y="-150.8156" font-family="Times,serif" font-size="14.00" fill="#000000">→ SEQ</text>
</g>
<!-- s1120&#45;&gt;s1121 -->
<g id="edge18" class="edge">
<title>s1120:p0&#45;&gt;s1121</title>
<path fill="none" stroke="#000000" d="M378.3986,-132.4156C387.7897,-132.4156 397.269,-135.0697 405.9809,-138.8248"/>
<polygon fill="#000000" stroke="#000000" points="404.5691,-142.0301 415.0926,-143.2579 407.6317,-135.7356 404.5691,-142.0301"/>
</g>
<!-- s1135 -->
<g id="node18" class="node">
<title>s1135</title>
<ellipse fill="none" stroke="#000000" cx="535.2431" cy="-98.4156" rx="45.3054" ry="29.3315"/>
<text text-anchor="middle" x="535.2431" y="-102.6156" font-family="Times,serif" font-size="14.00" fill="#000000">s1135 </text>
<text text-anchor="middle" x="535.2431" y="-85.8156" font-family="Times,serif" font-size="14.00" fill="#000000">BLANK</text>
</g>
<!-- s1120&#45;&gt;s1135 -->
<g id="edge19" class="edge">
<title>s1120:p1&#45;&gt;s1135</title>
<path fill="none" stroke="#000000" d="M378.3986,-108.4156C412.203,-108.4156 450.0227,-106.0735 480.0539,-103.6562"/>
<polygon fill="#000000" stroke="#000000" points="480.6565,-107.1183 490.3321,-102.8018 480.0765,-100.1424 480.6565,-107.1183"/>
</g>
<!-- s1122 -->
<g id="node5" class="node">
<title>s1122</title>
<polygon fill="none" stroke="#000000" points="598.6457,-134.2156 598.6457,-208.6156 700.2453,-208.6156 700.2453,-134.2156 598.6457,-134.2156"/>
<text text-anchor="middle" x="639.6955" y="-175.6156" font-family="Times,serif" font-size="14.00" fill="#000000">s1122</text>
<text text-anchor="middle" x="639.6955" y="-158.8156" font-family="Times,serif" font-size="14.00" fill="#000000">→ CHOICE</text>
<polyline fill="none" stroke="#000000" points="680.7453,-134.2156 680.7453,-208.6156 "/>
<text text-anchor="middle" x="690.4953" y="-192.0156" font-family="Times,serif" font-size="14.00" fill="#000000"> </text>
<polyline fill="none" stroke="#000000" points="680.7453,-183.8156 700.2453,-183.8156 "/>
<text text-anchor="middle" x="690.4953" y="-167.2156" font-family="Times,serif" font-size="14.00" fill="#000000"> </text>
<polyline fill="none" stroke="#000000" points="680.7453,-159.0156 700.2453,-159.0156 "/>
<text text-anchor="middle" x="690.4953" y="-142.4156" font-family="Times,serif" font-size="14.00" fill="#000000"> </text>
</g>
<!-- s1121&#45;&gt;s1122 -->
<g id="edge6" class="edge">
<title>s1121&#45;&gt;s1122</title>
<path fill="none" stroke="#000000" d="M472.2388,-164.528C502.1513,-165.6906 549.9943,-167.5502 588.4328,-169.0442"/>
<polygon fill="#000000" stroke="#000000" points="588.3644,-172.5441 598.4928,-169.4352 588.6363,-165.5494 588.3644,-172.5441"/>
</g>
<!-- s1123 -->
<g id="node6" class="node">
<title>s1123</title>
<polygon fill="none" stroke="#000000" points="882.4249,-221.6156 882.4249,-263.2156 953.6339,-263.2156 953.6339,-221.6156 882.4249,-221.6156"/>
<text text-anchor="middle" x="918.0294" y="-246.6156" font-family="Times,serif" font-size="14.00" fill="#000000">s1123</text>
<text text-anchor="middle" x="918.0294" y="-229.8156" font-family="Times,serif" font-size="14.00" fill="#000000">→ ALIAS</text>
</g>
<!-- s1122&#45;&gt;s1123 -->
<g id="edge3" class="edge">
<title>s1122:p0&#45;&gt;s1123</title>
<path fill="none" stroke="#000000" d="M700.2453,-196.4156C709.1896,-196.4156 709.7646,-202.5733 718.2453,-205.4156 769.5824,-222.6214 831.1796,-232.496 872.2779,-237.6454"/>
<polygon fill="#000000" stroke="#000000" points="871.9182,-241.1273 882.2663,-238.8543 872.7593,-234.178 871.9182,-241.1273"/>
<text text-anchor="middle" x="791.3351" y="-240.6156" font-family="Times,serif" font-size="14.00" fill="#000000">shorthand_field_identifier</text>
</g>
<!-- s1125 -->
<g id="node8" class="node">
<title>s1125</title>
<g id="a_node8"><a xlink:href="rust-grammar.json.field_initializer.dot.svg" xlink:title="s1125 SYMBOL\nfield_initializer">
<ellipse fill="none" stroke="#000000" cx="1066.5122" cy="-201.4156" rx="78.8659" ry="29.3315"/>
<text text-anchor="middle" x="1066.5122" y="-205.6156" font-family="Times,serif" font-size="14.00" fill="#000000">s1125 SYMBOL</text>
<text text-anchor="middle" x="1066.5122" y="-188.8156" font-family="Times,serif" font-size="14.00" fill="#000000">field_initializer</text>
</a>
</g>
</g>
<!-- s1122&#45;&gt;s1125 -->
<g id="edge4" class="edge">
<title>s1122:p1&#45;&gt;s1125</title>
<path fill="none" stroke="#000000" d="M700.2453,-171.4156C796.9794,-171.4156 907.6063,-181.9388 981.738,-190.5202"/>
<polygon fill="#000000" stroke="#000000" points="981.6114,-194.0293 991.9508,-191.7169 982.4261,-187.0768 981.6114,-194.0293"/>
<text text-anchor="middle" x="791.3351" y="-182.6156" font-family="Times,serif" font-size="14.00" fill="#000000">field_initializer</text>
</g>
<!-- s1126 -->
<g id="node9" class="node">
<title>s1126</title>
<g id="a_node9"><a xlink:href="rust-grammar.json.base_field_initializer.dot.svg" xlink:title="s1126 SYMBOL\nbase_field_initializer">
<ellipse fill="none" stroke="#000000" cx="1066.5122" cy="-137.4156" rx="94.7568" ry="29.3315"/>
<text text-anchor="middle" x="1066.5122" y="-141.6156" font-family="Times,serif" font-size="14.00" fill="#000000">s1126 SYMBOL</text>
<text text-anchor="middle" x="1066.5122" y="-124.8156" font-family="Times,serif" font-size="14.00" fill="#000000">base_field_initializer</text>
</a>
</g>
</g>
<!-- s1122&#45;&gt;s1126 -->
<g id="edge5" class="edge">
<title>s1122:p2&#45;&gt;s1126</title>
<path fill="none" stroke="#000000" d="M700.2453,-146.4156C788.4844,-146.4156 888.6452,-143.7728 961.8956,-141.3514"/>
<polygon fill="#000000" stroke="#000000" points="962.1717,-144.8442 972.0489,-141.0115 961.9374,-137.8481 962.1717,-144.8442"/>
<text text-anchor="middle" x="791.3351" y="-149.6156" font-family="Times,serif" font-size="14.00" fill="#000000">base_field_initializer</text>
</g>
<!-- s1124 -->
<g id="node7" class="node">
<title>s1124</title>
<g id="a_node7"><a xlink:href="rust-grammar.json.identifier.dot.svg" xlink:title="s1124 SYMBOL\nidentifier">
<ellipse fill="none" stroke="#000000" cx="1258.0733" cy="-244.4156" rx="78.8659" ry="29.3315"/>
<text text-anchor="middle" x="1258.0733" y="-248.6156" font-family="Times,serif" font-size="14.00" fill="#000000">s1124 SYMBOL</text>
<text text-anchor="middle" x="1258.0733" y="-231.8156" font-family="Times,serif" font-size="14.00" fill="#000000">identifier</text>
</a>
</g>
</g>
<!-- s1123&#45;&gt;s1124 -->
<g id="edge2" class="edge">
<title>s1123&#45;&gt;s1124</title>
<path fill="none" stroke="#000000" d="M953.7773,-242.6259C1004.4037,-242.9237 1098.6384,-243.4779 1168.8825,-243.8911"/>
<polygon fill="#000000" stroke="#000000" points="1169.0439,-247.392 1179.0643,-243.9509 1169.0851,-240.3921 1169.0439,-247.392"/>
</g>
<!-- s1127 -->
<g id="node10" class="node">
<title>s1127</title>
<polygon fill="none" stroke="#000000" points="1373.756,-162.6156 1373.756,-204.2156 1456.6396,-204.2156 1456.6396,-162.6156 1373.756,-162.6156"/>
<text text-anchor="middle" x="1415.1978" y="-187.6156" font-family="Times,serif" font-size="14.00" fill="#000000">s1127</text>
<text text-anchor="middle" x="1415.1978" y="-170.8156" font-family="Times,serif" font-size="14.00" fill="#000000">→ REPEAT</text>
</g>
<!-- s1124&#45;&gt;s1127 -->
<g id="edge15" class="edge">
<title>s1124&#45;&gt;s1127</title>
<path fill="none" stroke="#000000" d="M1313.0278,-223.0808C1329.5988,-216.6475 1347.7145,-209.6145 1364.0287,-203.2809"/>
<polygon fill="#000000" stroke="#000000" points="1365.3454,-206.5243 1373.4008,-199.6424 1362.812,-199.9988 1365.3454,-206.5243"/>
</g>
<!-- s1125&#45;&gt;s1127 -->
<g id="edge16" class="edge">
<title>s1125&#45;&gt;s1127</title>
<path fill="none" stroke="#000000" d="M1144.7641,-197.3761C1211.6281,-193.9244 1305.9147,-189.0571 1363.6676,-186.0758"/>
<polygon fill="#000000" stroke="#000000" points="1363.8551,-189.5708 1373.6613,-185.5599 1363.4941,-182.5801 1363.8551,-189.5708"/>
</g>
<!-- s1126&#45;&gt;s1127 -->
<g id="edge17" class="edge">
<title>s1126&#45;&gt;s1127</title>
<path fill="none" stroke="#000000" d="M1154.0502,-148.964C1220.0028,-157.6647 1308.2061,-169.3009 1363.3539,-176.5762"/>
<polygon fill="#000000" stroke="#000000" points="1363.2179,-180.0885 1373.5898,-177.9265 1364.1335,-173.1486 1363.2179,-180.0885"/>
</g>
<!-- s1128 -->
<g id="node11" class="node">
<title>s1128</title>
<polygon fill="none" stroke="#000000" points="1516.2185,-162.6156 1516.2185,-204.2156 1572.6603,-204.2156 1572.6603,-162.6156 1516.2185,-162.6156"/>
<text text-anchor="middle" x="1544.4394" y="-187.6156" font-family="Times,serif" font-size="14.00" fill="#000000">s1128</text>
<text text-anchor="middle" x="1544.4394" y="-170.8156" font-family="Times,serif" font-size="14.00" fill="#000000">→ SEQ</text>
</g>
<!-- s1127&#45;&gt;s1128 -->
<g id="edge13" class="edge">
<title>s1127&#45;&gt;s1128</title>
<path fill="none" stroke="#000000" d="M1456.8021,-183.4156C1472.5105,-183.4156 1490.3062,-183.4156 1505.7381,-183.4156"/>
<polygon fill="#000000" stroke="#000000" points="1505.9894,-186.9157 1515.9893,-183.4156 1505.9893,-179.9157 1505.9894,-186.9157"/>
</g>
<!-- s1136 -->
<g id="node19" class="node">
<title>s1136</title>
<polygon fill="none" stroke="#000000" points="1493.6396,-68.6156 1493.6396,-118.2156 1595.2392,-118.2156 1595.2392,-68.6156 1493.6396,-68.6156"/>
<text text-anchor="middle" x="1534.6894" y="-97.6156" font-family="Times,serif" font-size="14.00" fill="#000000">s1136</text>
<text text-anchor="middle" x="1534.6894" y="-80.8156" font-family="Times,serif" font-size="14.00" fill="#000000">→ CHOICE</text>
<polyline fill="none" stroke="#000000" points="1575.7392,-68.6156 1575.7392,-118.2156 "/>
<text text-anchor="middle" x="1585.4892" y="-101.6156" font-family="Times,serif" font-size="14.00" fill="#000000"> </text>
<polyline fill="none" stroke="#000000" points="1575.7392,-93.4156 1595.2392,-93.4156 "/>
<text text-anchor="middle" x="1585.4892" y="-76.8156" font-family="Times,serif" font-size="14.00" fill="#000000"> </text>
</g>
<!-- s1127&#45;&gt;s1136 -->
<g id="edge23" class="edge">
<title>s1127&#45;&gt;s1136</title>
<path fill="none" stroke="#000000" d="M1445.1733,-162.5416C1461.4503,-151.2068 1481.8909,-136.9726 1499.9865,-124.3713"/>
<polygon fill="#000000" stroke="#000000" points="1502.4467,-126.9231 1508.6529,-118.3363 1498.4465,-121.1787 1502.4467,-126.9231"/>
</g>
<!-- s1129 -->
<g id="node12" class="node">
<title>s1129</title>
<ellipse fill="none" stroke="#000000" cx="1707.9178" cy="-183.4156" rx="73.3577" ry="29.3315"/>
<text text-anchor="middle" x="1707.9178" y="-187.6156" font-family="Times,serif" font-size="14.00" fill="#000000">s1129 STRING</text>
<text text-anchor="middle" x="1707.9178" y="-170.8156" font-family="Times,serif" font-size="14.00" fill="#000000">&quot;,&quot;</text>
</g>
<!-- s1128&#45;&gt;s1129 -->
<g id="edge7" class="edge">
<title>s1128&#45;&gt;s1129</title>
<path fill="none" stroke="#000000" d="M1572.9152,-183.4156C1587.4158,-183.4156 1605.8775,-183.4156 1624.4579,-183.4156"/>
<polygon fill="#000000" stroke="#000000" points="1624.4651,-186.9157 1634.4651,-183.4156 1624.465,-179.9157 1624.4651,-186.9157"/>
</g>
<!-- s1130 -->
<g id="node13" class="node">
<title>s1130</title>
<polygon fill="none" stroke="#000000" points="1840.4753,-183.2156 1840.4753,-257.6156 1942.0749,-257.6156 1942.0749,-183.2156 1840.4753,-183.2156"/>
<text text-anchor="middle" x="1881.5251" y="-224.6156" font-family="Times,serif" font-size="14.00" fill="#000000">s1130</text>
<text text-anchor="middle" x="1881.5251" y="-207.8156" font-family="Times,serif" font-size="14.00" fill="#000000">→ CHOICE</text>
<polyline fill="none" stroke="#000000" points="1922.5749,-183.2156 1922.5749,-257.6156 "/>
<text text-anchor="middle" x="1932.3249" y="-241.0156" font-family="Times,serif" font-size="14.00" fill="#000000"> </text>
<polyline fill="none" stroke="#000000" points="1922.5749,-232.8156 1942.0749,-232.8156 "/>
<text text-anchor="middle" x="1932.3249" y="-216.2156" font-family="Times,serif" font-size="14.00" fill="#000000"> </text>
<polyline fill="none" stroke="#000000" points="1922.5749,-208.0156 1942.0749,-208.0156 "/>
<text text-anchor="middle" x="1932.3249" y="-191.4156" font-family="Times,serif" font-size="14.00" fill="#000000"> </text>
</g>
<!-- s1129&#45;&gt;s1130 -->
<g id="edge12" class="edge">
<title>s1129&#45;&gt;s1130</title>
<path fill="none" stroke="#000000" d="M1773.3374,-196.6168C1791.9077,-200.3641 1812.0478,-204.4282 1830.341,-208.1196"/>
<polygon fill="#000000" stroke="#000000" points="1829.7974,-211.5804 1840.2921,-210.1277 1831.1821,-204.7187 1829.7974,-211.5804"/>
</g>
<!-- s1130&#45;&gt;s1127 -->
<g id="edge14" class="edge">
<title>s1130&#45;&gt;s1127</title>
<path fill="none" stroke="#000000" d="M1840.3503,-225.7035C1764.0165,-232.2482 1615.8398,-239.5845 1493.6396,-213.4156 1484.6353,-211.4874 1475.2997,-208.6847 1466.3441,-205.5563"/>
<polygon fill="#000000" stroke="#000000" points="1467.4029,-202.2167 1456.8093,-202.0599 1464.9929,-208.7888 1467.4029,-202.2167"/>
</g>
<!-- s1131 -->
<g id="node14" class="node">
<title>s1131</title>
<polygon fill="none" stroke="#000000" points="2205.9071,-268.6156 2205.9071,-310.2156 2277.1161,-310.2156 2277.1161,-268.6156 2205.9071,-268.6156"/>
<text text-anchor="middle" x="2241.5116" y="-293.6156" font-family="Times,serif" font-size="14.00" fill="#000000">s1131</text>
<text text-anchor="middle" x="2241.5116" y="-276.8156" font-family="Times,serif" font-size="14.00" fill="#000000">→ ALIAS</text>
</g>
<!-- s1130&#45;&gt;s1131 -->
<g id="edge9" class="edge">
<title>s1130:p0&#45;&gt;s1131</title>
<path fill="none" stroke="#000000" d="M1942.2751,-245.4156C2032.9245,-245.4156 2137.3933,-265.4248 2195.8199,-278.4566"/>
<polygon fill="#000000" stroke="#000000" points="2195.3071,-281.929 2205.833,-280.7227 2196.8522,-275.1017 2195.3071,-281.929"/>
<text text-anchor="middle" x="2055.5435" y="-268.6156" font-family="Times,serif" font-size="14.00" fill="#000000">shorthand_field_identifier</text>
</g>
<!-- s1133 -->
<g id="node16" class="node">
<title>s1133</title>
<g id="a_node16"><a xlink:href="rust-grammar.json.field_initializer.dot.svg" xlink:title="s1133 SYMBOL\nfield_initializer">
<ellipse fill="none" stroke="#000000" cx="2241.5116" cy="-220.4156" rx="78.8659" ry="29.3315"/>
<text text-anchor="middle" x="2241.5116" y="-224.6156" font-family="Times,serif" font-size="14.00" fill="#000000">s1133 SYMBOL</text>
<text text-anchor="middle" x="2241.5116" y="-207.8156" font-family="Times,serif" font-size="14.00" fill="#000000">field_initializer</text>
</a>
</g>
</g>
<!-- s1130&#45;&gt;s1133 -->
<g id="edge10" class="edge">
<title>s1130:p1&#45;&gt;s1133</title>
<path fill="none" stroke="#000000" d="M1942.2751,-220.4156C2012.9931,-220.4156 2093.112,-220.4156 2152.6389,-220.4156"/>
<polygon fill="#000000" stroke="#000000" points="2152.7575,-223.9157 2162.7575,-220.4156 2152.7574,-216.9157 2152.7575,-223.9157"/>
<text text-anchor="middle" x="2055.5435" y="-224.6156" font-family="Times,serif" font-size="14.00" fill="#000000">field_initializer</text>
</g>
<!-- s1134 -->
<g id="node17" class="node">
<title>s1134</title>
<g id="a_node17"><a xlink:href="rust-grammar.json.base_field_initializer.dot.svg" xlink:title="s1134 SYMBOL\nbase_field_initializer">
<ellipse fill="none" stroke="#000000" cx="2241.5116" cy="-143.4156" rx="94.7568" ry="29.3315"/>
<text text-anchor="middle" x="2241.5116" y="-147.6156" font-family="Times,serif" font-size="14.00" fill="#000000">s1134 SYMBOL</text>
<text text-anchor="middle" x="2241.5116" y="-130.8156" font-family="Times,serif" font-size="14.00" fill="#000000">base_field_initializer</text>
</a>
</g>
</g>
<!-- s1130&#45;&gt;s1134 -->
<g id="edge11" class="edge">
<title>s1130:p2&#45;&gt;s1134</title>
<path fill="none" stroke="#000000" d="M1942.2751,-195.4156C2016.9484,-195.4156 2100.5764,-179.5027 2160.4006,-165.2826"/>
<polygon fill="#000000" stroke="#000000" points="2161.2649,-168.6746 2170.1649,-162.9265 2159.6229,-161.8699 2161.2649,-168.6746"/>
<text text-anchor="middle" x="2055.5435" y="-197.6156" font-family="Times,serif" font-size="14.00" fill="#000000">base_field_initializer</text>
</g>
<!-- s1132 -->
<g id="node15" class="node">
<title>s1132</title>
<g id="a_node15"><a xlink:href="rust-grammar.json.identifier.dot.svg" xlink:title="s1132 SYMBOL\nidentifier">
<ellipse fill="none" stroke="#000000" cx="2452.0727" cy="-289.4156" rx="78.8659" ry="29.3315"/>
<text text-anchor="middle" x="2452.0727" y="-293.6156" font-family="Times,serif" font-size="14.00" fill="#000000">s1132 SYMBOL</text>
<text text-anchor="middle" x="2452.0727" y="-276.8156" font-family="Times,serif" font-size="14.00" fill="#000000">identifier</text>
</a>
</g>
</g>
<!-- s1131&#45;&gt;s1132 -->
<g id="edge8" class="edge">
<title>s1131&#45;&gt;s1132</title>
<path fill="none" stroke="#000000" d="M2277.2304,-289.4156C2300.8435,-289.4156 2332.9069,-289.4156 2363.1293,-289.4156"/>
<polygon fill="#000000" stroke="#000000" points="2363.2932,-292.9157 2373.2932,-289.4156 2363.2931,-285.9157 2363.2932,-292.9157"/>
</g>
<!-- s1135&#45;&gt;s1136 -->
<g id="edge24" class="edge">
<title>s1135&#45;&gt;s1136</title>
<path fill="none" stroke="#000000" d="M581.0361,-96.9828C632.2688,-95.5054 717.7391,-93.4156 791.3351,-93.4156 791.3351,-93.4156 791.3351,-93.4156 1415.1978,-93.4156 1437.4734,-93.4156 1461.9087,-93.4156 1483.4785,-93.4156"/>
<polygon fill="#000000" stroke="#000000" points="1483.4911,-96.9157 1493.4911,-93.4156 1483.491,-89.9157 1483.4911,-96.9157"/>
</g>
<!-- s1137 -->
<g id="node20" class="node">
<title>s1137</title>
<ellipse fill="none" stroke="#000000" cx="1707.9178" cy="-106.4156" rx="73.3577" ry="29.3315"/>
<text text-anchor="middle" x="1707.9178" y="-110.6156" font-family="Times,serif" font-size="14.00" fill="#000000">s1137 STRING</text>
<text text-anchor="middle" x="1707.9178" y="-93.8156" font-family="Times,serif" font-size="14.00" fill="#000000">&quot;,&quot;</text>
</g>
<!-- s1136&#45;&gt;s1137 -->
<g id="edge21" class="edge">
<title>s1136:p0&#45;&gt;s1137</title>
<path fill="none" stroke="#000000" d="M1595.2392,-105.4156C1604.6768,-105.4156 1614.5589,-105.4512 1624.3828,-105.5088"/>
<polygon fill="#000000" stroke="#000000" points="1624.5552,-109.0099 1634.5782,-105.5763 1624.6017,-102.0101 1624.5552,-109.0099"/>
<text text-anchor="middle" x="1614.9892" y="-110.6156" font-family="Times,serif" font-size="14.00" fill="#000000">,</text>
</g>
<!-- s1138 -->
<g id="node21" class="node">
<title>s1138</title>
<ellipse fill="none" stroke="#000000" cx="1707.9178" cy="-29.4156" rx="45.3054" ry="29.3315"/>
<text text-anchor="middle" x="1707.9178" y="-33.6156" font-family="Times,serif" font-size="14.00" fill="#000000">s1138 </text>
<text text-anchor="middle" x="1707.9178" y="-16.8156" font-family="Times,serif" font-size="14.00" fill="#000000">BLANK</text>
</g>
<!-- s1136&#45;&gt;s1138 -->
<g id="edge22" class="edge">
<title>s1136:p1&#45;&gt;s1138</title>
<path fill="none" stroke="#000000" d="M1585.4394,-68.4156C1585.4394,-38.1105 1619.9059,-28.9829 1652.2713,-27.0925"/>
<polygon fill="#000000" stroke="#000000" points="1652.793,-30.576 1662.6594,-26.7154 1652.5389,-23.5806 1652.793,-30.576"/>
</g>
<!-- s1139 -->
<g id="node22" class="node">
<title>s1139</title>
<ellipse fill="none" stroke="#000000" cx="1891.2751" cy="-68.4156" rx="73.3577" ry="29.3315"/>
<text text-anchor="middle" x="1891.2751" y="-72.6156" font-family="Times,serif" font-size="14.00" fill="#000000">s1139 STRING</text>
<text text-anchor="middle" x="1891.2751" y="-55.8156" font-family="Times,serif" font-size="14.00" fill="#000000">&quot;}&quot;</text>
</g>
<!-- s1137&#45;&gt;s1139 -->
<g id="edge25" class="edge">
<title>s1137&#45;&gt;s1139</title>
<path fill="none" stroke="#000000" d="M1773.079,-92.9113C1787.0458,-90.0167 1801.9111,-86.9359 1816.2176,-83.971"/>
<polygon fill="#000000" stroke="#000000" points="1816.9333,-87.3971 1826.015,-81.9405 1815.5127,-80.5428 1816.9333,-87.3971"/>
</g>
<!-- s1138&#45;&gt;s1139 -->
<g id="edge26" class="edge">
<title>s1138&#45;&gt;s1139</title>
<path fill="none" stroke="#000000" d="M1751.3709,-38.6581C1770.8401,-42.7992 1794.3657,-47.8031 1816.5245,-52.5162"/>
<polygon fill="#000000" stroke="#000000" points="1816.0805,-56 1826.5899,-54.6571 1817.5368,-49.1532 1816.0805,-56"/>
</g>
</g>
</svg>
