<?xml version="1.0" encoding="UTF-8" standalone="no"?>
<!DOCTYPE svg PUBLIC "-//W3C//DTD SVG 1.1//EN"
 "http://www.w3.org/Graphics/SVG/1.1/DTD/svg11.dtd">
<!-- Generated by graphviz version 2.40.1 (20161225.0304)
 -->
<!-- Title: _path Pages: 1 -->
<svg width="753pt" height="1299pt"
 viewBox="0.00 0.00 752.58 1298.83" xmlns="http://www.w3.org/2000/svg" xmlns:xlink="http://www.w3.org/1999/xlink">
<g id="graph0" class="graph" transform="scale(1 1) rotate(0) translate(4 1294.8313)">
<title>_path</title>
<polygon fill="#ffffff" stroke="transparent" points="-4,4 -4,-1294.8313 748.5775,-1294.8313 748.5775,4 -4,4"/>
<!-- s1537 -->
<g id="node1" class="node">
<title>s1537</title>
<polygon fill="none" stroke="#000000" points="0,-412.6156 0,-586.2156 101.5996,-586.2156 101.5996,-412.6156 0,-412.6156"/>
<text text-anchor="middle" x="41.0498" y="-503.6156" font-family="Times,serif" font-size="14.00" fill="#000000">s1537</text>
<text text-anchor="middle" x="41.0498" y="-486.8156" font-family="Times,serif" font-size="14.00" fill="#000000">→ CHOICE</text>
<polyline fill="none" stroke="#000000" points="82.0996,-412.6156 82.0996,-586.2156 "/>
<text text-anchor="middle" x="91.8496" y="-569.6156" font-family="Times,serif" font-size="14.00" fill="#000000"> </text>
<polyline fill="none" stroke="#000000" points="82.0996,-561.4156 101.5996,-561.4156 "/>
<text text-anchor="middle" x="91.8496" y="-544.8156" font-family="Times,serif" font-size="14.00" fill="#000000"> </text>
<polyline fill="none" stroke="#000000" points="82.0996,-536.6156 101.5996,-536.6156 "/>
<text text-anchor="middle" x="91.8496" y="-520.0156" font-family="Times,serif" font-size="14.00" fill="#000000"> </text>
<polyline fill="none" stroke="#000000" points="82.0996,-511.8156 101.5996,-511.8156 "/>
<text text-anchor="middle" x="91.8496" y="-495.2156" font-family="Times,serif" font-size="14.00" fill="#000000"> </text>
<polyline fill="none" stroke="#000000" points="82.0996,-487.0156 101.5996,-487.0156 "/>
<text text-anchor="middle" x="91.8496" y="-470.4156" font-family="Times,serif" font-size="14.00" fill="#000000"> </text>
<polyline fill="none" stroke="#000000" points="82.0996,-462.2156 101.5996,-462.2156 "/>
<text text-anchor="middle" x="91.8496" y="-445.6156" font-family="Times,serif" font-size="14.00" fill="#000000"> </text>
<polyline fill="none" stroke="#000000" points="82.0996,-437.4156 101.5996,-437.4156 "/>
<text text-anchor="middle" x="91.8496" y="-420.8156" font-family="Times,serif" font-size="14.00" fill="#000000"> </text>
</g>
<!-- s1538 -->
<g id="node2" class="node">
<title>s1538</title>
<g id="a_node2"><a xlink:href="rust-grammar.json.self.dot.svg" xlink:title="s1538 SYMBOL\nself">
<ellipse fill="none" stroke="#000000" cx="314.8212" cy="-714.4156" rx="78.8659" ry="29.3315"/>
<text text-anchor="middle" x="314.8212" y="-718.6156" font-family="Times,serif" font-size="14.00" fill="#000000">s1538 SYMBOL</text>
<text text-anchor="middle" x="314.8212" y="-701.8156" font-family="Times,serif" font-size="14.00" fill="#000000">self</text>
</a>
</g>
</g>
<!-- s1537&#45;&gt;s1538 -->
<g id="edge1" class="edge">
<title>s1537:p0&#45;&gt;s1538</title>
<path fill="none" stroke="#000000" d="M91.7998,-586.4156C91.7998,-653.2636 168.1022,-685.7029 231.4455,-701.1155"/>
<polygon fill="#000000" stroke="#000000" points="230.9544,-704.5944 241.4868,-703.4455 232.5368,-697.7756 230.9544,-704.5944"/>
<text text-anchor="middle" x="168.1929" y="-700.6156" font-family="Times,serif" font-size="14.00" fill="#000000">self</text>
</g>
<!-- s1539 -->
<g id="node3" class="node">
<title>s1539</title>
<polygon fill="none" stroke="#000000" points="279.2167,-624.6156 279.2167,-666.2156 350.4257,-666.2156 350.4257,-624.6156 279.2167,-624.6156"/>
<text text-anchor="middle" x="314.8212" y="-649.6156" font-family="Times,serif" font-size="14.00" fill="#000000">s1539</text>
<text text-anchor="middle" x="314.8212" y="-632.8156" font-family="Times,serif" font-size="14.00" fill="#000000">→ ALIAS</text>
</g>
<!-- s1537&#45;&gt;s1539 -->
<g id="edge20" class="edge">
<title>s1537:p1&#45;&gt;s1539</title>
<path fill="none" stroke="#000000" d="M101.5996,-549.4156C111.2144,-549.4156 111.2066,-556.7251 119.5996,-561.4156 168.792,-588.9074 182.8899,-592.4505 234.7862,-614.4156 246.0428,-619.18 258.3033,-624.0741 269.7684,-628.5255"/>
<polygon fill="#000000" stroke="#000000" points="268.5829,-631.8195 279.1726,-632.1481 271.0991,-625.2873 268.5829,-631.8195"/>
<text text-anchor="middle" x="168.1929" y="-609.6156" font-family="Times,serif" font-size="14.00" fill="#000000">identifier</text>
</g>
<!-- s1558 -->
<g id="node22" class="node">
<title>s1558</title>
<g id="a_node22"><a xlink:href="rust-grammar.json.metavariable.dot.svg" xlink:title="s1558 SYMBOL\nmetavariable">
<ellipse fill="none" stroke="#000000" cx="314.8212" cy="-576.4156" rx="78.8659" ry="29.3315"/>
<text text-anchor="middle" x="314.8212" y="-580.6156" font-family="Times,serif" font-size="14.00" fill="#000000">s1558 SYMBOL</text>
<text text-anchor="middle" x="314.8212" y="-563.8156" font-family="Times,serif" font-size="14.00" fill="#000000">metavariable</text>
</a>
</g>
</g>
<!-- s1537&#45;&gt;s1558 -->
<g id="edge21" class="edge">
<title>s1537:p2&#45;&gt;s1558</title>
<path fill="none" stroke="#000000" d="M101.5996,-524.4156C152.5023,-524.4156 208.344,-538.5767 250.1076,-552.1189"/>
<polygon fill="#000000" stroke="#000000" points="249.0085,-555.4418 259.6019,-555.2653 251.2106,-548.7972 249.0085,-555.4418"/>
<text text-anchor="middle" x="168.1929" y="-544.6156" font-family="Times,serif" font-size="14.00" fill="#000000">metavariable</text>
</g>
<!-- s1559 -->
<g id="node23" class="node">
<title>s1559</title>
<g id="a_node23"><a xlink:href="rust-grammar.json.super.dot.svg" xlink:title="s1559 SYMBOL\nsuper">
<ellipse fill="none" stroke="#000000" cx="314.8212" cy="-499.4156" rx="78.8659" ry="29.3315"/>
<text text-anchor="middle" x="314.8212" y="-503.6156" font-family="Times,serif" font-size="14.00" fill="#000000">s1559 SYMBOL</text>
<text text-anchor="middle" x="314.8212" y="-486.8156" font-family="Times,serif" font-size="14.00" fill="#000000">super</text>
</a>
</g>
</g>
<!-- s1537&#45;&gt;s1559 -->
<g id="edge22" class="edge">
<title>s1537:p3&#45;&gt;s1559</title>
<path fill="none" stroke="#000000" d="M101.5996,-499.4156C142.4618,-499.4156 187.7289,-499.4156 226.0047,-499.4156"/>
<polygon fill="#000000" stroke="#000000" points="226.0903,-502.9157 236.0902,-499.4156 226.0902,-495.9157 226.0903,-502.9157"/>
<text text-anchor="middle" x="168.1929" y="-503.6156" font-family="Times,serif" font-size="14.00" fill="#000000">super</text>
</g>
<!-- s1560 -->
<g id="node24" class="node">
<title>s1560</title>
<g id="a_node24"><a xlink:href="rust-grammar.json.crate.dot.svg" xlink:title="s1560 SYMBOL\ncrate">
<ellipse fill="none" stroke="#000000" cx="314.8212" cy="-422.4156" rx="78.8659" ry="29.3315"/>
<text text-anchor="middle" x="314.8212" y="-426.6156" font-family="Times,serif" font-size="14.00" fill="#000000">s1560 SYMBOL</text>
<text text-anchor="middle" x="314.8212" y="-409.8156" font-family="Times,serif" font-size="14.00" fill="#000000">crate</text>
</a>
</g>
</g>
<!-- s1537&#45;&gt;s1560 -->
<g id="edge23" class="edge">
<title>s1537:p4&#45;&gt;s1560</title>
<path fill="none" stroke="#000000" d="M101.5996,-474.4156C152.5023,-474.4156 208.344,-460.2546 250.1076,-446.7124"/>
<polygon fill="#000000" stroke="#000000" points="251.2106,-450.0341 259.6019,-443.566 249.0085,-443.3895 251.2106,-450.0341"/>
<text text-anchor="middle" x="168.1929" y="-477.6156" font-family="Times,serif" font-size="14.00" fill="#000000">crate</text>
</g>
<!-- s1561 -->
<g id="node25" class="node">
<title>s1561</title>
<g id="a_node25"><a xlink:href="rust-grammar.json.identifier.dot.svg" xlink:title="s1561 SYMBOL\nidentifier">
<ellipse fill="none" stroke="#000000" cx="314.8212" cy="-345.4156" rx="78.8659" ry="29.3315"/>
<text text-anchor="middle" x="314.8212" y="-349.6156" font-family="Times,serif" font-size="14.00" fill="#000000">s1561 SYMBOL</text>
<text text-anchor="middle" x="314.8212" y="-332.8156" font-family="Times,serif" font-size="14.00" fill="#000000">identifier</text>
</a>
</g>
</g>
<!-- s1537&#45;&gt;s1561 -->
<g id="edge24" class="edge">
<title>s1537:p5&#45;&gt;s1561</title>
<path fill="none" stroke="#000000" d="M101.5996,-449.4156C111.4161,-449.4156 111.1179,-441.5578 119.5996,-436.6156 162.209,-411.7879 212.703,-388.3463 251.6621,-371.4469"/>
<polygon fill="#000000" stroke="#000000" points="253.5058,-374.4638 261.3067,-367.2946 250.7377,-368.0344 253.5058,-374.4638"/>
<text text-anchor="middle" x="168.1929" y="-440.6156" font-family="Times,serif" font-size="14.00" fill="#000000">identifier</text>
</g>
<!-- s1562 -->
<g id="node26" class="node">
<title>s1562</title>
<g id="a_node26"><a xlink:href="rust-grammar.json.scoped_identifier.dot.svg" xlink:title="s1562 SYMBOL\nscoped_identifier">
<ellipse fill="none" stroke="#000000" cx="314.8212" cy="-268.4156" rx="80.07" ry="29.3315"/>
<text text-anchor="middle" x="314.8212" y="-272.6156" font-family="Times,serif" font-size="14.00" fill="#000000">s1562 SYMBOL</text>
<text text-anchor="middle" x="314.8212" y="-255.8156" font-family="Times,serif" font-size="14.00" fill="#000000">scoped_identifier</text>
</a>
</g>
</g>
<!-- s1537&#45;&gt;s1562 -->
<g id="edge25" class="edge">
<title>s1537:p6&#45;&gt;s1562</title>
<path fill="none" stroke="#000000" d="M91.7998,-412.4156C91.7998,-342.1649 170.8642,-304.5203 234.8412,-285.5585"/>
<polygon fill="#000000" stroke="#000000" points="235.9065,-288.8943 244.562,-282.7841 233.9853,-282.1631 235.9065,-288.8943"/>
<text text-anchor="middle" x="168.1929" y="-346.6156" font-family="Times,serif" font-size="14.00" fill="#000000">scoped_identifier</text>
</g>
<!-- s1540 -->
<g id="node4" class="node">
<title>s1540</title>
<polygon fill="none" stroke="#000000" points="431.8562,-434.6156 431.8562,-856.2156 533.4558,-856.2156 533.4558,-434.6156 431.8562,-434.6156"/>
<text text-anchor="middle" x="472.906" y="-649.6156" font-family="Times,serif" font-size="14.00" fill="#000000">s1540</text>
<text text-anchor="middle" x="472.906" y="-632.8156" font-family="Times,serif" font-size="14.00" fill="#000000">→ CHOICE</text>
<polyline fill="none" stroke="#000000" points="513.9558,-434.6156 513.9558,-856.2156 "/>
<text text-anchor="middle" x="523.7058" y="-839.6156" font-family="Times,serif" font-size="14.00" fill="#000000"> </text>
<polyline fill="none" stroke="#000000" points="513.9558,-831.4156 533.4558,-831.4156 "/>
<text text-anchor="middle" x="523.7058" y="-814.8156" font-family="Times,serif" font-size="14.00" fill="#000000"> </text>
<polyline fill="none" stroke="#000000" points="513.9558,-806.6156 533.4558,-806.6156 "/>
<text text-anchor="middle" x="523.7058" y="-790.0156" font-family="Times,serif" font-size="14.00" fill="#000000"> </text>
<polyline fill="none" stroke="#000000" points="513.9558,-781.8156 533.4558,-781.8156 "/>
<text text-anchor="middle" x="523.7058" y="-765.2156" font-family="Times,serif" font-size="14.00" fill="#000000"> </text>
<polyline fill="none" stroke="#000000" points="513.9558,-757.0156 533.4558,-757.0156 "/>
<text text-anchor="middle" x="523.7058" y="-740.4156" font-family="Times,serif" font-size="14.00" fill="#000000"> </text>
<polyline fill="none" stroke="#000000" points="513.9558,-732.2156 533.4558,-732.2156 "/>
<text text-anchor="middle" x="523.7058" y="-715.6156" font-family="Times,serif" font-size="14.00" fill="#000000"> </text>
<polyline fill="none" stroke="#000000" points="513.9558,-707.4156 533.4558,-707.4156 "/>
<text text-anchor="middle" x="523.7058" y="-690.8156" font-family="Times,serif" font-size="14.00" fill="#000000"> </text>
<polyline fill="none" stroke="#000000" points="513.9558,-682.6156 533.4558,-682.6156 "/>
<text text-anchor="middle" x="523.7058" y="-666.0156" font-family="Times,serif" font-size="14.00" fill="#000000"> </text>
<polyline fill="none" stroke="#000000" points="513.9558,-657.8156 533.4558,-657.8156 "/>
<text text-anchor="middle" x="523.7058" y="-641.2156" font-family="Times,serif" font-size="14.00" fill="#000000"> </text>
<polyline fill="none" stroke="#000000" points="513.9558,-633.0156 533.4558,-633.0156 "/>
<text text-anchor="middle" x="523.7058" y="-616.4156" font-family="Times,serif" font-size="14.00" fill="#000000"> </text>
<polyline fill="none" stroke="#000000" points="513.9558,-608.2156 533.4558,-608.2156 "/>
<text text-anchor="middle" x="523.7058" y="-591.6156" font-family="Times,serif" font-size="14.00" fill="#000000"> </text>
<polyline fill="none" stroke="#000000" points="513.9558,-583.4156 533.4558,-583.4156 "/>
<text text-anchor="middle" x="523.7058" y="-566.8156" font-family="Times,serif" font-size="14.00" fill="#000000"> </text>
<polyline fill="none" stroke="#000000" points="513.9558,-558.6156 533.4558,-558.6156 "/>
<text text-anchor="middle" x="523.7058" y="-542.0156" font-family="Times,serif" font-size="14.00" fill="#000000"> </text>
<polyline fill="none" stroke="#000000" points="513.9558,-533.8156 533.4558,-533.8156 "/>
<text text-anchor="middle" x="523.7058" y="-517.2156" font-family="Times,serif" font-size="14.00" fill="#000000"> </text>
<polyline fill="none" stroke="#000000" points="513.9558,-509.0156 533.4558,-509.0156 "/>
<text text-anchor="middle" x="523.7058" y="-492.4156" font-family="Times,serif" font-size="14.00" fill="#000000"> </text>
<polyline fill="none" stroke="#000000" points="513.9558,-484.2156 533.4558,-484.2156 "/>
<text text-anchor="middle" x="523.7058" y="-467.6156" font-family="Times,serif" font-size="14.00" fill="#000000"> </text>
<polyline fill="none" stroke="#000000" points="513.9558,-459.4156 533.4558,-459.4156 "/>
<text text-anchor="middle" x="523.7058" y="-442.8156" font-family="Times,serif" font-size="14.00" fill="#000000"> </text>
</g>
<!-- s1539&#45;&gt;s1540 -->
<g id="edge19" class="edge">
<title>s1539&#45;&gt;s1540</title>
<path fill="none" stroke="#000000" d="M350.826,-645.4156C371.4744,-645.4156 397.943,-645.4156 421.7381,-645.4156"/>
<polygon fill="#000000" stroke="#000000" points="421.7475,-648.9157 431.7475,-645.4156 421.7475,-641.9157 421.7475,-648.9157"/>
</g>
<!-- s1541 -->
<g id="node5" class="node">
<title>s1541</title>
<ellipse fill="none" stroke="#000000" cx="671.3988" cy="-1261.4156" rx="73.3577" ry="29.3315"/>
<text text-anchor="middle" x="671.3988" y="-1265.6156" font-family="Times,serif" font-size="14.00" fill="#000000">s1541 STRING</text>
<text text-anchor="middle" x="671.3988" y="-1248.8156" font-family="Times,serif" font-size="14.00" fill="#000000">&quot;u8&quot;</text>
</g>
<!-- s1540&#45;&gt;s1541 -->
<g id="edge2" class="edge">
<title>s1540:p0&#45;&gt;s1541</title>
<path fill="none" stroke="#000000" d="M523.656,-856.4156C523.656,-921.3767 530.6276,-1085.8841 551.4558,-1147.4156 564.0507,-1184.624 569.5169,-1195.5975 598.2202,-1222.4156 602.7764,-1226.6725 607.8856,-1230.6054 613.2303,-1234.202"/>
<polygon fill="#000000" stroke="#000000" points="611.4484,-1237.2159 621.7772,-1239.5752 615.174,-1231.2897 611.4484,-1237.2159"/>
<text text-anchor="middle" x="565.838" y="-1207.6156" font-family="Times,serif" font-size="14.00" fill="#000000">u8</text>
</g>
<!-- s1542 -->
<g id="node6" class="node">
<title>s1542</title>
<ellipse fill="none" stroke="#000000" cx="671.3988" cy="-1184.4156" rx="73.3577" ry="29.3315"/>
<text text-anchor="middle" x="671.3988" y="-1188.6156" font-family="Times,serif" font-size="14.00" fill="#000000">s1542 STRING</text>
<text text-anchor="middle" x="671.3988" y="-1171.8156" font-family="Times,serif" font-size="14.00" fill="#000000">&quot;i8&quot;</text>
</g>
<!-- s1540&#45;&gt;s1542 -->
<g id="edge3" class="edge">
<title>s1540:p1&#45;&gt;s1542</title>
<path fill="none" stroke="#000000" d="M533.4558,-819.4156C561.4163,-819.4156 542.8048,-1043.8271 551.4558,-1070.4156 563.6098,-1107.7703 569.5169,-1118.5975 598.2202,-1145.4156 602.7764,-1149.6725 607.8856,-1153.6054 613.2303,-1157.202"/>
<polygon fill="#000000" stroke="#000000" points="611.4484,-1160.2159 621.7772,-1162.5752 615.174,-1154.2897 611.4484,-1160.2159"/>
<text text-anchor="middle" x="565.838" y="-1130.6156" font-family="Times,serif" font-size="14.00" fill="#000000">i8</text>
</g>
<!-- s1543 -->
<g id="node7" class="node">
<title>s1543</title>
<ellipse fill="none" stroke="#000000" cx="671.3988" cy="-1107.4156" rx="73.3577" ry="29.3315"/>
<text text-anchor="middle" x="671.3988" y="-1111.6156" font-family="Times,serif" font-size="14.00" fill="#000000">s1543 STRING</text>
<text text-anchor="middle" x="671.3988" y="-1094.8156" font-family="Times,serif" font-size="14.00" fill="#000000">&quot;u16&quot;</text>
</g>
<!-- s1540&#45;&gt;s1543 -->
<g id="edge4" class="edge">
<title>s1540:p2&#45;&gt;s1543</title>
<path fill="none" stroke="#000000" d="M533.4558,-794.4156C555.6572,-794.4156 544.3905,-972.3685 551.4558,-993.4156 563.957,-1030.6556 569.5169,-1041.5975 598.2202,-1068.4156 602.7764,-1072.6725 607.8856,-1076.6054 613.2303,-1080.202"/>
<polygon fill="#000000" stroke="#000000" points="611.4484,-1083.2159 621.7772,-1085.5752 615.174,-1077.2897 611.4484,-1083.2159"/>
<text text-anchor="middle" x="565.838" y="-1053.6156" font-family="Times,serif" font-size="14.00" fill="#000000">u16</text>
</g>
<!-- s1544 -->
<g id="node8" class="node">
<title>s1544</title>
<ellipse fill="none" stroke="#000000" cx="671.3988" cy="-1030.4156" rx="73.3577" ry="29.3315"/>
<text text-anchor="middle" x="671.3988" y="-1034.6156" font-family="Times,serif" font-size="14.00" fill="#000000">s1544 STRING</text>
<text text-anchor="middle" x="671.3988" y="-1017.8156" font-family="Times,serif" font-size="14.00" fill="#000000">&quot;i16&quot;</text>
</g>
<!-- s1540&#45;&gt;s1544 -->
<g id="edge5" class="edge">
<title>s1540:p3&#45;&gt;s1544</title>
<path fill="none" stroke="#000000" d="M533.4558,-769.4156C566.1459,-769.4156 540.6423,-884.5658 551.4558,-915.4156 564.5749,-952.843 569.3212,-964.2538 598.2202,-991.4156 602.7637,-995.686 607.8646,-999.6278 613.2041,-1003.2299"/>
<polygon fill="#000000" stroke="#000000" points="611.4185,-1006.2416 621.7454,-1008.6091 615.1489,-1000.3184 611.4185,-1006.2416"/>
<text text-anchor="middle" x="565.838" y="-976.6156" font-family="Times,serif" font-size="14.00" fill="#000000">i16</text>
</g>
<!-- s1545 -->
<g id="node9" class="node">
<title>s1545</title>
<ellipse fill="none" stroke="#000000" cx="671.3988" cy="-953.4156" rx="73.3577" ry="29.3315"/>
<text text-anchor="middle" x="671.3988" y="-957.6156" font-family="Times,serif" font-size="14.00" fill="#000000">s1545 STRING</text>
<text text-anchor="middle" x="671.3988" y="-940.8156" font-family="Times,serif" font-size="14.00" fill="#000000">&quot;u32&quot;</text>
</g>
<!-- s1540&#45;&gt;s1545 -->
<g id="edge6" class="edge">
<title>s1540:p4&#45;&gt;s1545</title>
<path fill="none" stroke="#000000" d="M533.4558,-744.4156C554.506,-744.4156 543.8734,-817.7785 551.4558,-837.4156 565.8782,-874.7672 569.1247,-886.9094 598.2202,-914.4156 602.7513,-918.6992 607.8439,-922.6497 613.1783,-926.2572"/>
<polygon fill="#000000" stroke="#000000" points="611.389,-929.2667 621.7141,-931.6424 615.1241,-923.3464 611.389,-929.2667"/>
<text text-anchor="middle" x="565.838" y="-898.6156" font-family="Times,serif" font-size="14.00" fill="#000000">u32</text>
</g>
<!-- s1546 -->
<g id="node10" class="node">
<title>s1546</title>
<ellipse fill="none" stroke="#000000" cx="671.3988" cy="-876.4156" rx="73.3577" ry="29.3315"/>
<text text-anchor="middle" x="671.3988" y="-880.6156" font-family="Times,serif" font-size="14.00" fill="#000000">s1546 STRING</text>
<text text-anchor="middle" x="671.3988" y="-863.8156" font-family="Times,serif" font-size="14.00" fill="#000000">&quot;i32&quot;</text>
</g>
<!-- s1540&#45;&gt;s1546 -->
<g id="edge7" class="edge">
<title>s1540:p5&#45;&gt;s1546</title>
<path fill="none" stroke="#000000" d="M533.4558,-719.4156C552.9507,-719.4156 542.4281,-742.137 551.4558,-759.4156 570.1735,-795.2403 568.9276,-809.5642 598.2202,-837.4156 602.7391,-841.7121 607.8236,-845.6712 613.153,-849.284"/>
<polygon fill="#000000" stroke="#000000" points="611.36,-852.2912 621.6832,-854.6749 615.0997,-846.3738 611.36,-852.2912"/>
<text text-anchor="middle" x="565.838" y="-820.6156" font-family="Times,serif" font-size="14.00" fill="#000000">i32</text>
</g>
<!-- s1547 -->
<g id="node11" class="node">
<title>s1547</title>
<ellipse fill="none" stroke="#000000" cx="671.3988" cy="-799.4156" rx="73.3577" ry="29.3315"/>
<text text-anchor="middle" x="671.3988" y="-803.6156" font-family="Times,serif" font-size="14.00" fill="#000000">s1547 STRING</text>
<text text-anchor="middle" x="671.3988" y="-786.8156" font-family="Times,serif" font-size="14.00" fill="#000000">&quot;u64&quot;</text>
</g>
<!-- s1540&#45;&gt;s1547 -->
<g id="edge8" class="edge">
<title>s1540:p6&#45;&gt;s1547</title>
<path fill="none" stroke="#000000" d="M533.4558,-695.4156C574.2369,-695.4156 565.4718,-736.1126 598.2202,-760.4156 603.5797,-764.3929 609.3978,-768.2087 615.3328,-771.791"/>
<polygon fill="#000000" stroke="#000000" points="613.6664,-774.8706 624.072,-776.864 617.1807,-768.8167 613.6664,-774.8706"/>
<text text-anchor="middle" x="565.838" y="-742.6156" font-family="Times,serif" font-size="14.00" fill="#000000">u64</text>
</g>
<!-- s1548 -->
<g id="node12" class="node">
<title>s1548</title>
<ellipse fill="none" stroke="#000000" cx="671.3988" cy="-722.4156" rx="73.3577" ry="29.3315"/>
<text text-anchor="middle" x="671.3988" y="-726.6156" font-family="Times,serif" font-size="14.00" fill="#000000">s1548 STRING</text>
<text text-anchor="middle" x="671.3988" y="-709.8156" font-family="Times,serif" font-size="14.00" fill="#000000">&quot;i64&quot;</text>
</g>
<!-- s1540&#45;&gt;s1548 -->
<g id="edge9" class="edge">
<title>s1540:p7&#45;&gt;s1548</title>
<path fill="none" stroke="#000000" d="M533.4558,-670.4156C563.7722,-670.4156 595.5667,-681.5488 620.9807,-693.5122"/>
<polygon fill="#000000" stroke="#000000" points="619.5191,-696.6935 630.0406,-697.9383 622.5919,-690.4039 619.5191,-696.6935"/>
<text text-anchor="middle" x="565.838" y="-680.6156" font-family="Times,serif" font-size="14.00" fill="#000000">i64</text>
</g>
<!-- s1549 -->
<g id="node13" class="node">
<title>s1549</title>
<ellipse fill="none" stroke="#000000" cx="671.3988" cy="-645.4156" rx="73.3577" ry="29.3315"/>
<text text-anchor="middle" x="671.3988" y="-649.6156" font-family="Times,serif" font-size="14.00" fill="#000000">s1549 STRING</text>
<text text-anchor="middle" x="671.3988" y="-632.8156" font-family="Times,serif" font-size="14.00" fill="#000000">&quot;u128&quot;</text>
</g>
<!-- s1540&#45;&gt;s1549 -->
<g id="edge10" class="edge">
<title>s1540:p8&#45;&gt;s1549</title>
<path fill="none" stroke="#000000" d="M533.4558,-645.4156C551.0547,-645.4156 569.9164,-645.4156 587.866,-645.4156"/>
<polygon fill="#000000" stroke="#000000" points="588.0202,-648.9157 598.0201,-645.4156 588.0201,-641.9157 588.0202,-648.9157"/>
<text text-anchor="middle" x="565.838" y="-649.6156" font-family="Times,serif" font-size="14.00" fill="#000000">u128</text>
</g>
<!-- s1550 -->
<g id="node14" class="node">
<title>s1550</title>
<ellipse fill="none" stroke="#000000" cx="671.3988" cy="-568.4156" rx="73.3577" ry="29.3315"/>
<text text-anchor="middle" x="671.3988" y="-572.6156" font-family="Times,serif" font-size="14.00" fill="#000000">s1550 STRING</text>
<text text-anchor="middle" x="671.3988" y="-555.8156" font-family="Times,serif" font-size="14.00" fill="#000000">&quot;i128&quot;</text>
</g>
<!-- s1540&#45;&gt;s1550 -->
<g id="edge11" class="edge">
<title>s1540:p9&#45;&gt;s1550</title>
<path fill="none" stroke="#000000" d="M533.4558,-620.4156C563.7722,-620.4156 595.5667,-609.2825 620.9807,-597.3191"/>
<polygon fill="#000000" stroke="#000000" points="622.5919,-600.4274 630.0406,-592.893 619.5191,-594.1378 622.5919,-600.4274"/>
<text text-anchor="middle" x="565.838" y="-622.6156" font-family="Times,serif" font-size="14.00" fill="#000000">i128</text>
</g>
<!-- s1551 -->
<g id="node15" class="node">
<title>s1551</title>
<ellipse fill="none" stroke="#000000" cx="671.3988" cy="-491.4156" rx="73.3577" ry="29.3315"/>
<text text-anchor="middle" x="671.3988" y="-495.6156" font-family="Times,serif" font-size="14.00" fill="#000000">s1551 STRING</text>
<text text-anchor="middle" x="671.3988" y="-478.8156" font-family="Times,serif" font-size="14.00" fill="#000000">&quot;isize&quot;</text>
</g>
<!-- s1540&#45;&gt;s1551 -->
<g id="edge12" class="edge">
<title>s1540:p10&#45;&gt;s1551</title>
<path fill="none" stroke="#000000" d="M533.4558,-595.4156C574.2369,-595.4156 565.4718,-554.7186 598.2202,-530.4156 603.5797,-526.4383 609.3978,-522.6226 615.3328,-519.0403"/>
<polygon fill="#000000" stroke="#000000" points="617.1807,-522.0146 624.072,-513.9673 613.6664,-515.9607 617.1807,-522.0146"/>
<text text-anchor="middle" x="565.838" y="-594.6156" font-family="Times,serif" font-size="14.00" fill="#000000">isize</text>
</g>
<!-- s1552 -->
<g id="node16" class="node">
<title>s1552</title>
<ellipse fill="none" stroke="#000000" cx="671.3988" cy="-414.4156" rx="73.3577" ry="29.3315"/>
<text text-anchor="middle" x="671.3988" y="-418.6156" font-family="Times,serif" font-size="14.00" fill="#000000">s1552 STRING</text>
<text text-anchor="middle" x="671.3988" y="-401.8156" font-family="Times,serif" font-size="14.00" fill="#000000">&quot;usize&quot;</text>
</g>
<!-- s1540&#45;&gt;s1552 -->
<g id="edge13" class="edge">
<title>s1540:p11&#45;&gt;s1552</title>
<path fill="none" stroke="#000000" d="M533.4558,-571.4156C553.2755,-571.4156 542.3024,-548.1949 551.4558,-530.6156 569.9826,-495.0348 569.0854,-480.9909 598.2202,-453.4156 602.7488,-449.1294 607.8398,-445.1772 613.1732,-441.5687"/>
<polygon fill="#000000" stroke="#000000" points="615.1192,-444.4794 621.7079,-436.1824 611.3832,-438.5597 615.1192,-444.4794"/>
<text text-anchor="middle" x="565.838" y="-534.6156" font-family="Times,serif" font-size="14.00" fill="#000000">usize</text>
</g>
<!-- s1553 -->
<g id="node17" class="node">
<title>s1553</title>
<ellipse fill="none" stroke="#000000" cx="671.3988" cy="-337.4156" rx="73.3577" ry="29.3315"/>
<text text-anchor="middle" x="671.3988" y="-341.6156" font-family="Times,serif" font-size="14.00" fill="#000000">s1553 STRING</text>
<text text-anchor="middle" x="671.3988" y="-324.8156" font-family="Times,serif" font-size="14.00" fill="#000000">&quot;f32&quot;</text>
</g>
<!-- s1540&#45;&gt;s1553 -->
<g id="edge14" class="edge">
<title>s1540:p12&#45;&gt;s1553</title>
<path fill="none" stroke="#000000" d="M533.4558,-546.4156C554.6806,-546.4156 543.7803,-472.404 551.4558,-452.6156 565.8254,-415.5691 569.282,-403.6463 598.2202,-376.4156 602.7612,-372.1426 607.8604,-368.1991 613.1989,-364.5959"/>
<polygon fill="#000000" stroke="#000000" points="615.1439,-367.5073 621.7391,-359.2154 611.4125,-361.5846 615.1439,-367.5073"/>
<text text-anchor="middle" x="565.838" y="-456.6156" font-family="Times,serif" font-size="14.00" fill="#000000">f32</text>
</g>
<!-- s1554 -->
<g id="node18" class="node">
<title>s1554</title>
<ellipse fill="none" stroke="#000000" cx="671.3988" cy="-260.4156" rx="73.3577" ry="29.3315"/>
<text text-anchor="middle" x="671.3988" y="-264.6156" font-family="Times,serif" font-size="14.00" fill="#000000">s1554 STRING</text>
<text text-anchor="middle" x="671.3988" y="-247.8156" font-family="Times,serif" font-size="14.00" fill="#000000">&quot;f64&quot;</text>
</g>
<!-- s1540&#45;&gt;s1554 -->
<g id="edge15" class="edge">
<title>s1540:p13&#45;&gt;s1554</title>
<path fill="none" stroke="#000000" d="M533.4558,-521.4156C566.5429,-521.4156 540.3663,-404.789 551.4558,-373.6156 564.5208,-336.8893 569.6729,-325.9593 598.2202,-299.4156 602.7866,-295.1697 607.9026,-291.2442 613.2515,-287.6521"/>
<polygon fill="#000000" stroke="#000000" points="615.1944,-290.565 621.803,-282.2838 611.4727,-284.6363 615.1944,-290.565"/>
<text text-anchor="middle" x="565.838" y="-377.6156" font-family="Times,serif" font-size="14.00" fill="#000000">f64</text>
</g>
<!-- s1555 -->
<g id="node19" class="node">
<title>s1555</title>
<ellipse fill="none" stroke="#000000" cx="671.3988" cy="-183.4156" rx="73.3577" ry="29.3315"/>
<text text-anchor="middle" x="671.3988" y="-187.6156" font-family="Times,serif" font-size="14.00" fill="#000000">s1555 STRING</text>
<text text-anchor="middle" x="671.3988" y="-170.8156" font-family="Times,serif" font-size="14.00" fill="#000000">&quot;bool&quot;</text>
</g>
<!-- s1540&#45;&gt;s1555 -->
<g id="edge16" class="edge">
<title>s1540:p14&#45;&gt;s1555</title>
<path fill="none" stroke="#000000" d="M533.4558,-496.4156C555.7457,-496.4156 544.3151,-317.7308 551.4558,-296.6156 563.9436,-259.6891 569.6729,-248.9593 598.2202,-222.4156 602.7866,-218.1697 607.9026,-214.2442 613.2515,-210.6521"/>
<polygon fill="#000000" stroke="#000000" points="615.1944,-213.565 621.803,-205.2838 611.4727,-207.6363 615.1944,-213.565"/>
<text text-anchor="middle" x="565.838" y="-301.6156" font-family="Times,serif" font-size="14.00" fill="#000000">bool</text>
</g>
<!-- s1556 -->
<g id="node20" class="node">
<title>s1556</title>
<ellipse fill="none" stroke="#000000" cx="671.3988" cy="-106.4156" rx="73.3577" ry="29.3315"/>
<text text-anchor="middle" x="671.3988" y="-110.6156" font-family="Times,serif" font-size="14.00" fill="#000000">s1556 STRING</text>
<text text-anchor="middle" x="671.3988" y="-93.8156" font-family="Times,serif" font-size="14.00" fill="#000000">&quot;str&quot;</text>
</g>
<!-- s1540&#45;&gt;s1556 -->
<g id="edge17" class="edge">
<title>s1540:p15&#45;&gt;s1556</title>
<path fill="none" stroke="#000000" d="M533.4558,-471.4156C561.3942,-471.4156 542.8268,-247.188 551.4558,-220.6156 563.6119,-183.1823 569.4778,-172.3024 598.2202,-145.4156 602.7738,-141.156 607.8814,-137.2214 613.225,-133.6237"/>
<polygon fill="#000000" stroke="#000000" points="615.169,-136.5358 621.7708,-128.2493 611.4424,-130.6102 615.169,-136.5358"/>
<text text-anchor="middle" x="565.838" y="-225.6156" font-family="Times,serif" font-size="14.00" fill="#000000">str</text>
</g>
<!-- s1557 -->
<g id="node21" class="node">
<title>s1557</title>
<ellipse fill="none" stroke="#000000" cx="671.3988" cy="-29.4156" rx="73.3577" ry="29.3315"/>
<text text-anchor="middle" x="671.3988" y="-33.6156" font-family="Times,serif" font-size="14.00" fill="#000000">s1557 STRING</text>
<text text-anchor="middle" x="671.3988" y="-16.8156" font-family="Times,serif" font-size="14.00" fill="#000000">&quot;char&quot;</text>
</g>
<!-- s1540&#45;&gt;s1557 -->
<g id="edge18" class="edge">
<title>s1540:p16&#45;&gt;s1557</title>
<path fill="none" stroke="#000000" d="M523.656,-434.4156C523.656,-369.4988 530.6765,-205.117 551.4558,-143.6156 564.0539,-106.3287 569.4778,-95.3024 598.2202,-68.4156 602.7738,-64.156 607.8814,-60.2214 613.225,-56.6237"/>
<polygon fill="#000000" stroke="#000000" points="615.169,-59.5358 621.7708,-51.2493 611.4424,-53.6102 615.169,-59.5358"/>
<text text-anchor="middle" x="565.838" y="-148.6156" font-family="Times,serif" font-size="14.00" fill="#000000">char</text>
</g>
</g>
</svg>
