<?xml version="1.0" encoding="UTF-8" standalone="no"?>
<!DOCTYPE svg PUBLIC "-//W3C//DTD SVG 1.1//EN"
 "http://www.w3.org/Graphics/SVG/1.1/DTD/svg11.dtd">
<!-- Generated by graphviz version 2.40.1 (20161225.0304)
 -->
<!-- Title: trait_bounds Pages: 1 -->
<svg width="1848pt" height="302pt"
 viewBox="0.00 0.00 1848.44 301.83" xmlns="http://www.w3.org/2000/svg" xmlns:xlink="http://www.w3.org/1999/xlink">
<g id="graph0" class="graph" transform="scale(1 1) rotate(0) translate(4 297.8313)">
<title>trait_bounds</title>
<polygon fill="#ffffff" stroke="transparent" points="-4,4 -4,-297.8313 1844.4434,-297.8313 1844.4434,4 -4,4"/>
<!-- s581 -->
<g id="node1" class="node">
<title>s581</title>
<polygon fill="none" stroke="#000000" points="0,-127.6156 0,-169.2156 56.4418,-169.2156 56.4418,-127.6156 0,-127.6156"/>
<text text-anchor="middle" x="28.2209" y="-152.6156" font-family="Times,serif" font-size="14.00" fill="#000000">s581</text>
<text text-anchor="middle" x="28.2209" y="-135.8156" font-family="Times,serif" font-size="14.00" fill="#000000">→ SEQ</text>
</g>
<!-- s582 -->
<g id="node2" class="node">
<title>s582</title>
<ellipse fill="none" stroke="#000000" cx="161.6707" cy="-148.4156" rx="68.4585" ry="29.3315"/>
<text text-anchor="middle" x="161.6707" y="-152.6156" font-family="Times,serif" font-size="14.00" fill="#000000">s582 STRING</text>
<text text-anchor="middle" x="161.6707" y="-135.8156" font-family="Times,serif" font-size="14.00" fill="#000000">&quot;:&quot;</text>
</g>
<!-- s581&#45;&gt;s582 -->
<g id="edge1" class="edge">
<title>s581&#45;&gt;s582</title>
<path fill="none" stroke="#000000" d="M56.5222,-148.4156C64.5856,-148.4156 73.7846,-148.4156 83.3101,-148.4156"/>
<polygon fill="#000000" stroke="#000000" points="83.321,-151.9157 93.321,-148.4156 83.3209,-144.9157 83.321,-151.9157"/>
</g>
<!-- s583 -->
<g id="node3" class="node">
<title>s583</title>
<polygon fill="none" stroke="#000000" points="266.8995,-127.6156 266.8995,-169.2156 323.3413,-169.2156 323.3413,-127.6156 266.8995,-127.6156"/>
<text text-anchor="middle" x="295.1204" y="-152.6156" font-family="Times,serif" font-size="14.00" fill="#000000">s583</text>
<text text-anchor="middle" x="295.1204" y="-135.8156" font-family="Times,serif" font-size="14.00" fill="#000000">→ SEQ</text>
</g>
<!-- s582&#45;&gt;s583 -->
<g id="edge19" class="edge">
<title>s582&#45;&gt;s583</title>
<path fill="none" stroke="#000000" d="M229.9593,-148.4156C239.0674,-148.4156 248.1366,-148.4156 256.4876,-148.4156"/>
<polygon fill="#000000" stroke="#000000" points="256.6303,-151.9157 266.6303,-148.4156 256.6302,-144.9157 256.6303,-151.9157"/>
</g>
<!-- s584 -->
<g id="node4" class="node">
<title>s584</title>
<polygon fill="none" stroke="#000000" points="360.3413,-98.8156 360.3413,-198.0156 461.9409,-198.0156 461.9409,-98.8156 360.3413,-98.8156"/>
<text text-anchor="middle" x="401.3911" y="-152.6156" font-family="Times,serif" font-size="14.00" fill="#000000">s584</text>
<text text-anchor="middle" x="401.3911" y="-135.8156" font-family="Times,serif" font-size="14.00" fill="#000000">→ CHOICE</text>
<polyline fill="none" stroke="#000000" points="442.4409,-98.8156 442.4409,-198.0156 "/>
<text text-anchor="middle" x="452.1909" y="-181.4156" font-family="Times,serif" font-size="14.00" fill="#000000"> </text>
<polyline fill="none" stroke="#000000" points="442.4409,-173.2156 461.9409,-173.2156 "/>
<text text-anchor="middle" x="452.1909" y="-156.6156" font-family="Times,serif" font-size="14.00" fill="#000000"> </text>
<polyline fill="none" stroke="#000000" points="442.4409,-148.4156 461.9409,-148.4156 "/>
<text text-anchor="middle" x="452.1909" y="-131.8156" font-family="Times,serif" font-size="14.00" fill="#000000"> </text>
<polyline fill="none" stroke="#000000" points="442.4409,-123.6156 461.9409,-123.6156 "/>
<text text-anchor="middle" x="452.1909" y="-107.0156" font-family="Times,serif" font-size="14.00" fill="#000000"> </text>
</g>
<!-- s583&#45;&gt;s584 -->
<g id="edge6" class="edge">
<title>s583&#45;&gt;s584</title>
<path fill="none" stroke="#000000" d="M323.5023,-148.4156C331.5819,-148.4156 340.7097,-148.4156 349.9455,-148.4156"/>
<polygon fill="#000000" stroke="#000000" points="349.9652,-151.9157 359.9652,-148.4156 349.9652,-144.9157 349.9652,-151.9157"/>
</g>
<!-- s585 -->
<g id="node5" class="node">
<title>s585</title>
<g id="a_node5"><a xlink:href="rust-grammar.json._type.dot.svg" xlink:title="s585 SYMBOL\n_type">
<ellipse fill="none" stroke="#000000" cx="769.4222" cy="-264.4156" rx="73.9667" ry="29.3315"/>
<text text-anchor="middle" x="769.4222" y="-268.6156" font-family="Times,serif" font-size="14.00" fill="#000000">s585 SYMBOL</text>
<text text-anchor="middle" x="769.4222" y="-251.8156" font-family="Times,serif" font-size="14.00" fill="#000000">_type</text>
</a>
</g>
</g>
<!-- s584&#45;&gt;s585 -->
<g id="edge2" class="edge">
<title>s584:p0&#45;&gt;s585</title>
<path fill="none" stroke="#000000" d="M461.9409,-185.4156C470.2439,-185.4156 471.9184,-188.2762 479.9409,-190.4156 553.6178,-210.0633 638.1284,-231.546 696.7392,-246.2783"/>
<polygon fill="#000000" stroke="#000000" points="696.0928,-249.7246 706.6442,-248.7657 697.7979,-242.9354 696.0928,-249.7246"/>
<text text-anchor="middle" x="556.1422" y="-232.6156" font-family="Times,serif" font-size="14.00" fill="#000000">_type</text>
</g>
<!-- s586 -->
<g id="node6" class="node">
<title>s586</title>
<g id="a_node6"><a xlink:href="rust-grammar.json.lifetime.dot.svg" xlink:title="s586 SYMBOL\nlifetime">
<ellipse fill="none" stroke="#000000" cx="769.4222" cy="-187.4156" rx="73.9667" ry="29.3315"/>
<text text-anchor="middle" x="769.4222" y="-191.6156" font-family="Times,serif" font-size="14.00" fill="#000000">s586 SYMBOL</text>
<text text-anchor="middle" x="769.4222" y="-174.8156" font-family="Times,serif" font-size="14.00" fill="#000000">lifetime</text>
</a>
</g>
</g>
<!-- s584&#45;&gt;s586 -->
<g id="edge3" class="edge">
<title>s584:p1&#45;&gt;s586</title>
<path fill="none" stroke="#000000" d="M461.9409,-160.4156C539.4794,-160.4156 627.5963,-169.0413 689.5625,-176.5418"/>
<polygon fill="#000000" stroke="#000000" points="689.3099,-180.037 699.662,-177.7824 690.1633,-173.0892 689.3099,-180.037"/>
<text text-anchor="middle" x="556.1422" y="-173.6156" font-family="Times,serif" font-size="14.00" fill="#000000">lifetime</text>
</g>
<!-- s587 -->
<g id="node7" class="node">
<title>s587</title>
<g id="a_node7"><a xlink:href="rust-grammar.json.higher_ranked_trait_bound.dot.svg" xlink:title="s587 SYMBOL\nhigher_ranked_trait_bound">
<ellipse fill="none" stroke="#000000" cx="769.4222" cy="-110.4156" rx="119.1573" ry="29.3315"/>
<text text-anchor="middle" x="769.4222" y="-114.6156" font-family="Times,serif" font-size="14.00" fill="#000000">s587 SYMBOL</text>
<text text-anchor="middle" x="769.4222" y="-97.8156" font-family="Times,serif" font-size="14.00" fill="#000000">higher_ranked_trait_bound</text>
</a>
</g>
</g>
<!-- s584&#45;&gt;s587 -->
<g id="edge4" class="edge">
<title>s584:p2&#45;&gt;s587</title>
<path fill="none" stroke="#000000" d="M461.9409,-136.4156C525.2401,-136.4156 595.6094,-130.877 653.0382,-124.9124"/>
<polygon fill="#000000" stroke="#000000" points="653.6614,-128.3661 663.2382,-123.8345 652.9258,-121.4049 653.6614,-128.3661"/>
<text text-anchor="middle" x="556.1422" y="-139.6156" font-family="Times,serif" font-size="14.00" fill="#000000">higher_ranked_trait_bound</text>
</g>
<!-- s588 -->
<g id="node8" class="node">
<title>s588</title>
<g id="a_node8"><a xlink:href="rust-grammar.json.removed_trait_bound.dot.svg" xlink:title="s588 SYMBOL\nremoved_trait_bound">
<ellipse fill="none" stroke="#000000" cx="769.4222" cy="-33.4156" rx="96.5789" ry="29.3315"/>
<text text-anchor="middle" x="769.4222" y="-37.6156" font-family="Times,serif" font-size="14.00" fill="#000000">s588 SYMBOL</text>
<text text-anchor="middle" x="769.4222" y="-20.8156" font-family="Times,serif" font-size="14.00" fill="#000000">removed_trait_bound</text>
</a>
</g>
</g>
<!-- s584&#45;&gt;s588 -->
<g id="edge5" class="edge">
<title>s584:p3&#45;&gt;s588</title>
<path fill="none" stroke="#000000" d="M461.9409,-111.4156C470.346,-111.4156 471.8588,-107.9228 479.9409,-105.6156 547.5054,-86.3282 624.7482,-67.2086 682.4414,-53.4945"/>
<polygon fill="#000000" stroke="#000000" points="683.3288,-56.8813 692.2523,-51.1697 681.7147,-50.0699 683.3288,-56.8813"/>
<text text-anchor="middle" x="556.1422" y="-109.6156" font-family="Times,serif" font-size="14.00" fill="#000000">removed_trait_bound</text>
</g>
<!-- s589 -->
<g id="node9" class="node">
<title>s589</title>
<polygon fill="none" stroke="#000000" points="925.5008,-114.6156 925.5008,-156.2156 1008.3844,-156.2156 1008.3844,-114.6156 925.5008,-114.6156"/>
<text text-anchor="middle" x="966.9426" y="-139.6156" font-family="Times,serif" font-size="14.00" fill="#000000">s589</text>
<text text-anchor="middle" x="966.9426" y="-122.8156" font-family="Times,serif" font-size="14.00" fill="#000000">→ REPEAT</text>
</g>
<!-- s585&#45;&gt;s589 -->
<g id="edge15" class="edge">
<title>s585&#45;&gt;s589</title>
<path fill="none" stroke="#000000" d="M834.1091,-250.1289C852.6173,-244.2611 872.1802,-236.2303 888.5008,-225.4156 912.4312,-209.5585 933.4285,-184.5154 947.6617,-164.8678"/>
<polygon fill="#000000" stroke="#000000" points="950.6256,-166.7379 953.5237,-156.5471 944.9031,-162.7063 950.6256,-166.7379"/>
</g>
<!-- s586&#45;&gt;s589 -->
<g id="edge16" class="edge">
<title>s586&#45;&gt;s589</title>
<path fill="none" stroke="#000000" d="M831.1064,-171.1764C858.1869,-164.0471 889.6182,-155.7724 915.4216,-148.9793"/>
<polygon fill="#000000" stroke="#000000" points="916.597,-152.2892 925.3764,-146.3585 914.8148,-145.5198 916.597,-152.2892"/>
</g>
<!-- s587&#45;&gt;s589 -->
<g id="edge17" class="edge">
<title>s587&#45;&gt;s589</title>
<path fill="none" stroke="#000000" d="M875.41,-123.8304C889.2807,-125.586 902.9601,-127.3174 915.3462,-128.8851"/>
<polygon fill="#000000" stroke="#000000" points="915.0617,-132.377 925.422,-130.1604 915.9407,-125.4324 915.0617,-132.377"/>
</g>
<!-- s588&#45;&gt;s589 -->
<g id="edge18" class="edge">
<title>s588&#45;&gt;s589</title>
<path fill="none" stroke="#000000" d="M842.6287,-52.7859C858.2111,-58.1643 874.2516,-64.6944 888.5008,-72.4156 905.9599,-81.8762 923.3822,-95.3588 937.3572,-107.4252"/>
<polygon fill="#000000" stroke="#000000" points="935.3512,-110.3235 945.1613,-114.3251 939.9878,-105.0792 935.3512,-110.3235"/>
</g>
<!-- s590 -->
<g id="node10" class="node">
<title>s590</title>
<polygon fill="none" stroke="#000000" points="1045.3844,-155.6156 1045.3844,-197.2156 1101.8262,-197.2156 1101.8262,-155.6156 1045.3844,-155.6156"/>
<text text-anchor="middle" x="1073.6053" y="-180.6156" font-family="Times,serif" font-size="14.00" fill="#000000">s590</text>
<text text-anchor="middle" x="1073.6053" y="-163.8156" font-family="Times,serif" font-size="14.00" fill="#000000">→ SEQ</text>
</g>
<!-- s589&#45;&gt;s590 -->
<g id="edge13" class="edge">
<title>s589&#45;&gt;s590</title>
<path fill="none" stroke="#000000" d="M1008.4866,-151.3847C1017.4116,-154.8154 1026.8001,-158.4242 1035.5834,-161.8004"/>
<polygon fill="#000000" stroke="#000000" points="1034.5958,-165.1704 1045.1858,-165.4915 1037.1075,-158.6365 1034.5958,-165.1704"/>
</g>
<!-- s591 -->
<g id="node11" class="node">
<title>s591</title>
<ellipse fill="none" stroke="#000000" cx="1207.0551" cy="-180.4156" rx="68.4585" ry="29.3315"/>
<text text-anchor="middle" x="1207.0551" y="-184.6156" font-family="Times,serif" font-size="14.00" fill="#000000">s591 STRING</text>
<text text-anchor="middle" x="1207.0551" y="-167.8156" font-family="Times,serif" font-size="14.00" fill="#000000">&quot;+&quot;</text>
</g>
<!-- s590&#45;&gt;s591 -->
<g id="edge7" class="edge">
<title>s590&#45;&gt;s591</title>
<path fill="none" stroke="#000000" d="M1101.9066,-177.2639C1110.0267,-177.5073 1119.2986,-177.7852 1128.8958,-178.0729"/>
<polygon fill="#000000" stroke="#000000" points="1128.8798,-181.5739 1138.9802,-178.3752 1129.0896,-174.577 1128.8798,-181.5739"/>
</g>
<!-- s592 -->
<g id="node12" class="node">
<title>s592</title>
<polygon fill="none" stroke="#000000" points="1312.2839,-94.8156 1312.2839,-194.0156 1413.8835,-194.0156 1413.8835,-94.8156 1312.2839,-94.8156"/>
<text text-anchor="middle" x="1353.3337" y="-148.6156" font-family="Times,serif" font-size="14.00" fill="#000000">s592</text>
<text text-anchor="middle" x="1353.3337" y="-131.8156" font-family="Times,serif" font-size="14.00" fill="#000000">→ CHOICE</text>
<polyline fill="none" stroke="#000000" points="1394.3835,-94.8156 1394.3835,-194.0156 "/>
<text text-anchor="middle" x="1404.1335" y="-177.4156" font-family="Times,serif" font-size="14.00" fill="#000000"> </text>
<polyline fill="none" stroke="#000000" points="1394.3835,-169.2156 1413.8835,-169.2156 "/>
<text text-anchor="middle" x="1404.1335" y="-152.6156" font-family="Times,serif" font-size="14.00" fill="#000000"> </text>
<polyline fill="none" stroke="#000000" points="1394.3835,-144.4156 1413.8835,-144.4156 "/>
<text text-anchor="middle" x="1404.1335" y="-127.8156" font-family="Times,serif" font-size="14.00" fill="#000000"> </text>
<polyline fill="none" stroke="#000000" points="1394.3835,-119.6156 1413.8835,-119.6156 "/>
<text text-anchor="middle" x="1404.1335" y="-103.0156" font-family="Times,serif" font-size="14.00" fill="#000000"> </text>
</g>
<!-- s591&#45;&gt;s592 -->
<g id="edge12" class="edge">
<title>s591&#45;&gt;s592</title>
<path fill="none" stroke="#000000" d="M1267.3798,-166.4971C1278.7879,-163.865 1290.7287,-161.1099 1302.1552,-158.4735"/>
<polygon fill="#000000" stroke="#000000" points="1303.0809,-161.8519 1312.038,-156.1933 1301.5071,-155.0311 1303.0809,-161.8519"/>
</g>
<!-- s592&#45;&gt;s589 -->
<g id="edge14" class="edge">
<title>s592&#45;&gt;s589</title>
<path fill="none" stroke="#000000" d="M1312.0139,-143.2517C1299.9687,-142.9773 1287.1735,-142.686 1275.2839,-142.4156 1185.2089,-140.3673 1080.3325,-137.9875 1019.0271,-136.5968"/>
<polygon fill="#000000" stroke="#000000" points="1018.9129,-133.0935 1008.8361,-136.3657 1018.7541,-140.0917 1018.9129,-133.0935"/>
</g>
<!-- s593 -->
<g id="node13" class="node">
<title>s593</title>
<g id="a_node13"><a xlink:href="rust-grammar.json._type.dot.svg" xlink:title="s593 SYMBOL\n_type">
<ellipse fill="none" stroke="#000000" cx="1721.3648" cy="-260.4156" rx="73.9667" ry="29.3315"/>
<text text-anchor="middle" x="1721.3648" y="-264.6156" font-family="Times,serif" font-size="14.00" fill="#000000">s593 SYMBOL</text>
<text text-anchor="middle" x="1721.3648" y="-247.8156" font-family="Times,serif" font-size="14.00" fill="#000000">_type</text>
</a>
</g>
</g>
<!-- s592&#45;&gt;s593 -->
<g id="edge8" class="edge">
<title>s592:p0&#45;&gt;s593</title>
<path fill="none" stroke="#000000" d="M1413.8835,-181.4156C1422.1864,-181.4156 1423.861,-184.2762 1431.8835,-186.4156 1505.5604,-206.0633 1590.071,-227.546 1648.6818,-242.2783"/>
<polygon fill="#000000" stroke="#000000" points="1648.0354,-245.7246 1658.5868,-244.7657 1649.7404,-238.9354 1648.0354,-245.7246"/>
<text text-anchor="middle" x="1508.0848" y="-228.6156" font-family="Times,serif" font-size="14.00" fill="#000000">_type</text>
</g>
<!-- s594 -->
<g id="node14" class="node">
<title>s594</title>
<g id="a_node14"><a xlink:href="rust-grammar.json.lifetime.dot.svg" xlink:title="s594 SYMBOL\nlifetime">
<ellipse fill="none" stroke="#000000" cx="1721.3648" cy="-183.4156" rx="73.9667" ry="29.3315"/>
<text text-anchor="middle" x="1721.3648" y="-187.6156" font-family="Times,serif" font-size="14.00" fill="#000000">s594 SYMBOL</text>
<text text-anchor="middle" x="1721.3648" y="-170.8156" font-family="Times,serif" font-size="14.00" fill="#000000">lifetime</text>
</a>
</g>
</g>
<!-- s592&#45;&gt;s594 -->
<g id="edge9" class="edge">
<title>s592:p1&#45;&gt;s594</title>
<path fill="none" stroke="#000000" d="M1413.8835,-156.4156C1491.422,-156.4156 1579.5389,-165.0413 1641.5051,-172.5418"/>
<polygon fill="#000000" stroke="#000000" points="1641.2525,-176.037 1651.6046,-173.7824 1642.1059,-169.0892 1641.2525,-176.037"/>
<text text-anchor="middle" x="1508.0848" y="-169.6156" font-family="Times,serif" font-size="14.00" fill="#000000">lifetime</text>
</g>
<!-- s595 -->
<g id="node15" class="node">
<title>s595</title>
<g id="a_node15"><a xlink:href="rust-grammar.json.higher_ranked_trait_bound.dot.svg" xlink:title="s595 SYMBOL\nhigher_ranked_trait_bound">
<ellipse fill="none" stroke="#000000" cx="1721.3648" cy="-106.4156" rx="119.1573" ry="29.3315"/>
<text text-anchor="middle" x="1721.3648" y="-110.6156" font-family="Times,serif" font-size="14.00" fill="#000000">s595 SYMBOL</text>
<text text-anchor="middle" x="1721.3648" y="-93.8156" font-family="Times,serif" font-size="14.00" fill="#000000">higher_ranked_trait_bound</text>
</a>
</g>
</g>
<!-- s592&#45;&gt;s595 -->
<g id="edge10" class="edge">
<title>s592:p2&#45;&gt;s595</title>
<path fill="none" stroke="#000000" d="M1413.8835,-132.4156C1477.1827,-132.4156 1547.552,-126.877 1604.9808,-120.9124"/>
<polygon fill="#000000" stroke="#000000" points="1605.604,-124.3661 1615.1808,-119.8345 1604.8684,-117.4049 1605.604,-124.3661"/>
<text text-anchor="middle" x="1508.0848" y="-135.6156" font-family="Times,serif" font-size="14.00" fill="#000000">higher_ranked_trait_bound</text>
</g>
<!-- s596 -->
<g id="node16" class="node">
<title>s596</title>
<g id="a_node16"><a xlink:href="rust-grammar.json.removed_trait_bound.dot.svg" xlink:title="s596 SYMBOL\nremoved_trait_bound">
<ellipse fill="none" stroke="#000000" cx="1721.3648" cy="-29.4156" rx="96.5789" ry="29.3315"/>
<text text-anchor="middle" x="1721.3648" y="-33.6156" font-family="Times,serif" font-size="14.00" fill="#000000">s596 SYMBOL</text>
<text text-anchor="middle" x="1721.3648" y="-16.8156" font-family="Times,serif" font-size="14.00" fill="#000000">removed_trait_bound</text>
</a>
</g>
</g>
<!-- s592&#45;&gt;s596 -->
<g id="edge11" class="edge">
<title>s592:p3&#45;&gt;s596</title>
<path fill="none" stroke="#000000" d="M1413.8835,-107.4156C1422.2886,-107.4156 1423.8014,-103.9228 1431.8835,-101.6156 1499.448,-82.3282 1576.6908,-63.2086 1634.384,-49.4945"/>
<polygon fill="#000000" stroke="#000000" points="1635.2714,-52.8813 1644.1949,-47.1697 1633.6573,-46.0699 1635.2714,-52.8813"/>
<text text-anchor="middle" x="1508.0848" y="-105.6156" font-family="Times,serif" font-size="14.00" fill="#000000">removed_trait_bound</text>
</g>
</g>
</svg>
