<?xml version="1.0" encoding="UTF-8" standalone="no"?>
<!DOCTYPE svg PUBLIC "-//W3C//DTD SVG 1.1//EN"
 "http://www.w3.org/Graphics/SVG/1.1/DTD/svg11.dtd">
<!-- Generated by graphviz version 2.40.1 (20161225.0304)
 -->
<!-- Title: field_initializer Pages: 1 -->
<svg width="946pt" height="67pt"
 viewBox="0.00 0.00 945.78 66.83" xmlns="http://www.w3.org/2000/svg" xmlns:xlink="http://www.w3.org/1999/xlink">
<g id="graph0" class="graph" transform="scale(1 1) rotate(0) translate(4 62.8313)">
<title>field_initializer</title>
<polygon fill="#ffffff" stroke="transparent" points="-4,4 -4,-62.8313 941.7791,-62.8313 941.7791,4 -4,4"/>
<!-- s1140 -->
<g id="node1" class="node">
<title>s1140</title>
<polygon fill="none" stroke="#000000" points="0,-8.6156 0,-50.2156 56.4418,-50.2156 56.4418,-8.6156 0,-8.6156"/>
<text text-anchor="middle" x="28.2209" y="-33.6156" font-family="Times,serif" font-size="14.00" fill="#000000">s1140</text>
<text text-anchor="middle" x="28.2209" y="-16.8156" font-family="Times,serif" font-size="14.00" fill="#000000">→ SEQ</text>
</g>
<!-- s1141 -->
<g id="node2" class="node">
<title>s1141</title>
<polygon fill="none" stroke="#000000" points="92.4418,-8.6156 92.4418,-50.2156 175.3254,-50.2156 175.3254,-8.6156 92.4418,-8.6156"/>
<text text-anchor="middle" x="133.8836" y="-33.6156" font-family="Times,serif" font-size="14.00" fill="#000000">s1141</text>
<text text-anchor="middle" x="133.8836" y="-16.8156" font-family="Times,serif" font-size="14.00" fill="#000000">→ REPEAT</text>
</g>
<!-- s1140&#45;&gt;s1141 -->
<g id="edge3" class="edge">
<title>s1140&#45;&gt;s1141</title>
<path fill="none" stroke="#000000" d="M56.5366,-29.4156C64.4453,-29.4156 73.2957,-29.4156 82.1071,-29.4156"/>
<polygon fill="#000000" stroke="#000000" points="82.3741,-32.9157 92.3741,-29.4156 82.374,-25.9157 82.3741,-32.9157"/>
</g>
<!-- s1142 -->
<g id="node3" class="node">
<title>s1142</title>
<g id="a_node3"><a xlink:href="rust-grammar.json.attribute_item.dot.svg" xlink:title="s1142 SYMBOL\nattribute_item">
<ellipse fill="none" stroke="#000000" cx="290.0081" cy="-29.4156" rx="78.8659" ry="29.3315"/>
<text text-anchor="middle" x="290.0081" y="-33.6156" font-family="Times,serif" font-size="14.00" fill="#000000">s1142 SYMBOL</text>
<text text-anchor="middle" x="290.0081" y="-16.8156" font-family="Times,serif" font-size="14.00" fill="#000000">attribute_item</text>
</a>
</g>
</g>
<!-- s1141&#45;&gt;s1142 -->
<g id="edge1" class="edge">
<title>s1141&#45;&gt;s1142</title>
<path fill="none" stroke="#000000" d="M175.7221,-23.3582C184.3699,-23.0023 193.7799,-22.7836 203.3645,-22.702"/>
<polygon fill="#000000" stroke="#000000" points="203.4037,-26.202 213.3912,-22.6667 203.3789,-19.2021 203.4037,-26.202"/>
</g>
<!-- s1142&#45;&gt;s1141 -->
<g id="edge2" class="edge">
<title>s1142&#45;&gt;s1141</title>
<path fill="none" stroke="#000000" d="M213.3912,-36.1646C204.0604,-36.1779 194.7021,-36.0626 185.8497,-35.8186"/>
<polygon fill="#000000" stroke="#000000" points="185.8357,-32.3162 175.7221,-35.4731 185.5969,-39.3121 185.8357,-32.3162"/>
</g>
<!-- s1143 -->
<g id="node4" class="node">
<title>s1143</title>
<g id="a_node4"><a xlink:href="rust-grammar.json._field_identifier.dot.svg" xlink:title="s1143 SYMBOL\n_field_identifier">
<ellipse fill="none" stroke="#000000" cx="483.3736" cy="-29.4156" rx="78.8659" ry="29.3315"/>
<text text-anchor="middle" x="483.3736" y="-33.6156" font-family="Times,serif" font-size="14.00" fill="#000000">s1143 SYMBOL</text>
<text text-anchor="middle" x="483.3736" y="-16.8156" font-family="Times,serif" font-size="14.00" fill="#000000">_field_identifier</text>
</a>
</g>
</g>
<!-- s1142&#45;&gt;s1143 -->
<g id="edge4" class="edge">
<title>s1142&#45;&gt;s1143</title>
<path fill="none" stroke="#000000" d="M368.9362,-29.4156C377.2513,-29.4156 385.7479,-29.4156 394.1684,-29.4156"/>
<polygon fill="#000000" stroke="#000000" points="394.3846,-32.9157 404.3846,-29.4156 394.3845,-25.9157 394.3846,-32.9157"/>
</g>
<!-- s1144 -->
<g id="node5" class="node">
<title>s1144</title>
<ellipse fill="none" stroke="#000000" cx="671.235" cy="-29.4156" rx="73.3577" ry="29.3315"/>
<text text-anchor="middle" x="671.235" y="-33.6156" font-family="Times,serif" font-size="14.00" fill="#000000">s1144 STRING</text>
<text text-anchor="middle" x="671.235" y="-16.8156" font-family="Times,serif" font-size="14.00" fill="#000000">&quot;:&quot;</text>
</g>
<!-- s1143&#45;&gt;s1144 -->
<g id="edge5" class="edge">
<title>s1143&#45;&gt;s1144</title>
<path fill="none" stroke="#000000" d="M562.2272,-29.4156C570.6507,-29.4156 579.2403,-29.4156 587.7155,-29.4156"/>
<polygon fill="#000000" stroke="#000000" points="587.9777,-32.9157 597.9777,-29.4156 587.9777,-25.9157 587.9777,-32.9157"/>
</g>
<!-- s1145 -->
<g id="node6" class="node">
<title>s1145</title>
<g id="a_node6"><a xlink:href="rust-grammar.json._expression.dot.svg" xlink:title="s1145 SYMBOL\n_expression">
<ellipse fill="none" stroke="#000000" cx="859.0964" cy="-29.4156" rx="78.8659" ry="29.3315"/>
<text text-anchor="middle" x="859.0964" y="-33.6156" font-family="Times,serif" font-size="14.00" fill="#000000">s1145 SYMBOL</text>
<text text-anchor="middle" x="859.0964" y="-16.8156" font-family="Times,serif" font-size="14.00" fill="#000000">_expression</text>
</a>
</g>
</g>
<!-- s1144&#45;&gt;s1145 -->
<g id="edge6" class="edge">
<title>s1144&#45;&gt;s1145</title>
<path fill="none" stroke="#000000" d="M744.6742,-29.4156C752.9416,-29.4156 761.4315,-29.4156 769.8707,-29.4156"/>
<polygon fill="#000000" stroke="#000000" points="770.1211,-32.9157 780.1211,-29.4156 770.1211,-25.9157 770.1211,-32.9157"/>
</g>
</g>
</svg>
