<?xml version="1.0" encoding="UTF-8" standalone="no"?>
<!DOCTYPE svg PUBLIC "-//W3C//DTD SVG 1.1//EN"
 "http://www.w3.org/Graphics/SVG/1.1/DTD/svg11.dtd">
<!-- Generated by graphviz version 2.40.1 (20161225.0304)
 -->
<!-- Title: macro_rule Pages: 1 -->
<svg width="608pt" height="67pt"
 viewBox="0.00 0.00 607.63 66.83" xmlns="http://www.w3.org/2000/svg" xmlns:xlink="http://www.w3.org/1999/xlink">
<g id="graph0" class="graph" transform="scale(1 1) rotate(0) translate(4 62.8313)">
<title>macro_rule</title>
<polygon fill="#ffffff" stroke="transparent" points="-4,4 -4,-62.8313 603.625,-62.8313 603.625,4 -4,4"/>
<!-- s62 -->
<g id="node1" class="node">
<title>s62</title>
<polygon fill="none" stroke="#000000" points="0,-8.6156 0,-50.2156 56.4418,-50.2156 56.4418,-8.6156 0,-8.6156"/>
<text text-anchor="middle" x="28.2209" y="-33.6156" font-family="Times,serif" font-size="14.00" fill="#000000">s62</text>
<text text-anchor="middle" x="28.2209" y="-16.8156" font-family="Times,serif" font-size="14.00" fill="#000000">→ SEQ</text>
</g>
<!-- s63 -->
<g id="node2" class="node">
<title>s63</title>
<g id="a_node2"><a xlink:href="rust-grammar.json.token_tree_pattern.dot.svg" xlink:title="s63 SYMBOL\ntoken_tree_pattern">
<ellipse fill="none" stroke="#000000" cx="177.971" cy="-29.4156" rx="85.5585" ry="29.3315"/>
<text text-anchor="middle" x="177.971" y="-33.6156" font-family="Times,serif" font-size="14.00" fill="#000000">s63 SYMBOL</text>
<text text-anchor="middle" x="177.971" y="-16.8156" font-family="Times,serif" font-size="14.00" fill="#000000">token_tree_pattern</text>
</a>
</g>
</g>
<!-- s62&#45;&gt;s63 -->
<g id="edge1" class="edge">
<title>s62&#45;&gt;s63</title>
<path fill="none" stroke="#000000" d="M56.7402,-29.4156C64.3432,-29.4156 72.9975,-29.4156 82.1024,-29.4156"/>
<polygon fill="#000000" stroke="#000000" points="82.1306,-32.9157 92.1306,-29.4156 82.1305,-25.9157 82.1306,-32.9157"/>
</g>
<!-- s64 -->
<g id="node3" class="node">
<title>s64</title>
<ellipse fill="none" stroke="#000000" cx="362.7794" cy="-29.4156" rx="63.059" ry="29.3315"/>
<text text-anchor="middle" x="362.7794" y="-33.6156" font-family="Times,serif" font-size="14.00" fill="#000000">s64 STRING</text>
<text text-anchor="middle" x="362.7794" y="-16.8156" font-family="Times,serif" font-size="14.00" fill="#000000">&quot;=&gt;&quot;</text>
</g>
<!-- s63&#45;&gt;s64 -->
<g id="edge2" class="edge">
<title>s63&#45;&gt;s64</title>
<path fill="none" stroke="#000000" d="M263.6127,-29.4156C272.1377,-29.4156 280.7399,-29.4156 289.1269,-29.4156"/>
<polygon fill="#000000" stroke="#000000" points="289.2309,-32.9157 299.2309,-29.4156 289.2308,-25.9157 289.2309,-32.9157"/>
</g>
<!-- s65 -->
<g id="node4" class="node">
<title>s65</title>
<g id="a_node4"><a xlink:href="rust-grammar.json.token_tree.dot.svg" xlink:title="s65 SYMBOL\ntoken_tree">
<ellipse fill="none" stroke="#000000" cx="530.8418" cy="-29.4156" rx="68.5672" ry="29.3315"/>
<text text-anchor="middle" x="530.8418" y="-33.6156" font-family="Times,serif" font-size="14.00" fill="#000000">s65 SYMBOL</text>
<text text-anchor="middle" x="530.8418" y="-16.8156" font-family="Times,serif" font-size="14.00" fill="#000000">token_tree</text>
</a>
</g>
</g>
<!-- s64&#45;&gt;s65 -->
<g id="edge3" class="edge">
<title>s64&#45;&gt;s65</title>
<path fill="none" stroke="#000000" d="M426.3166,-29.4156C434.6679,-29.4156 443.3068,-29.4156 451.8753,-29.4156"/>
<polygon fill="#000000" stroke="#000000" points="451.8801,-32.9157 461.88,-29.4156 451.88,-25.9157 451.8801,-32.9157"/>
</g>
</g>
</svg>
