<?xml version="1.0" encoding="UTF-8" standalone="no"?>
<!DOCTYPE svg PUBLIC "-//W3C//DTD SVG 1.1//EN"
 "http://www.w3.org/Graphics/SVG/1.1/DTD/svg11.dtd">
<!-- Generated by graphviz version 2.40.1 (20161225.0304)
 -->
<!-- Title: declaration_list Pages: 1 -->
<svg width="770pt" height="67pt"
 viewBox="0.00 0.00 770.49 66.83" xmlns="http://www.w3.org/2000/svg" xmlns:xlink="http://www.w3.org/1999/xlink">
<g id="graph0" class="graph" transform="scale(1 1) rotate(0) translate(4 62.8313)">
<title>declaration_list</title>
<polygon fill="#ffffff" stroke="transparent" points="-4,4 -4,-62.8313 766.4921,-62.8313 766.4921,4 -4,4"/>
<!-- s256 -->
<g id="node1" class="node">
<title>s256</title>
<polygon fill="none" stroke="#000000" points="0,-8.6156 0,-50.2156 56.4418,-50.2156 56.4418,-8.6156 0,-8.6156"/>
<text text-anchor="middle" x="28.2209" y="-33.6156" font-family="Times,serif" font-size="14.00" fill="#000000">s256</text>
<text text-anchor="middle" x="28.2209" y="-16.8156" font-family="Times,serif" font-size="14.00" fill="#000000">→ SEQ</text>
</g>
<!-- s257 -->
<g id="node2" class="node">
<title>s257</title>
<ellipse fill="none" stroke="#000000" cx="160.6707" cy="-29.4156" rx="68.4585" ry="29.3315"/>
<text text-anchor="middle" x="160.6707" y="-33.6156" font-family="Times,serif" font-size="14.00" fill="#000000">s257 STRING</text>
<text text-anchor="middle" x="160.6707" y="-16.8156" font-family="Times,serif" font-size="14.00" fill="#000000">&quot;{&quot;</text>
</g>
<!-- s256&#45;&gt;s257 -->
<g id="edge1" class="edge">
<title>s256&#45;&gt;s257</title>
<path fill="none" stroke="#000000" d="M56.6347,-29.4156C64.3113,-29.4156 73.0073,-29.4156 82.0218,-29.4156"/>
<polygon fill="#000000" stroke="#000000" points="82.2976,-32.9157 92.2975,-29.4156 82.2975,-25.9157 82.2976,-32.9157"/>
</g>
<!-- s258 -->
<g id="node3" class="node">
<title>s258</title>
<polygon fill="none" stroke="#000000" points="264.8995,-8.6156 264.8995,-50.2156 347.7831,-50.2156 347.7831,-8.6156 264.8995,-8.6156"/>
<text text-anchor="middle" x="306.3413" y="-33.6156" font-family="Times,serif" font-size="14.00" fill="#000000">s258</text>
<text text-anchor="middle" x="306.3413" y="-16.8156" font-family="Times,serif" font-size="14.00" fill="#000000">→ REPEAT</text>
</g>
<!-- s257&#45;&gt;s258 -->
<g id="edge4" class="edge">
<title>s257&#45;&gt;s258</title>
<path fill="none" stroke="#000000" d="M229.2405,-29.4156C237.7499,-29.4156 246.3371,-29.4156 254.5356,-29.4156"/>
<polygon fill="#000000" stroke="#000000" points="254.6772,-32.9157 264.6772,-29.4156 254.6772,-25.9157 254.6772,-32.9157"/>
</g>
<!-- s259 -->
<g id="node4" class="node">
<title>s259</title>
<g id="a_node4"><a xlink:href="rust-grammar.json._declaration_statement.dot.svg" xlink:title="s259 SYMBOL\n_declaration_statement">
<ellipse fill="none" stroke="#000000" cx="486.9087" cy="-29.4156" rx="103.2513" ry="29.3315"/>
<text text-anchor="middle" x="486.9087" y="-33.6156" font-family="Times,serif" font-size="14.00" fill="#000000">s259 SYMBOL</text>
<text text-anchor="middle" x="486.9087" y="-16.8156" font-family="Times,serif" font-size="14.00" fill="#000000">_declaration_statement</text>
</a>
</g>
</g>
<!-- s258&#45;&gt;s259 -->
<g id="edge2" class="edge">
<title>s258&#45;&gt;s259</title>
<path fill="none" stroke="#000000" d="M348.221,-23.6149C356.8038,-23.2415 366.2153,-22.9783 375.9665,-22.8252"/>
<polygon fill="#000000" stroke="#000000" points="376.2723,-26.322 386.2308,-22.7056 376.1906,-19.3225 376.2723,-26.322"/>
</g>
<!-- s259&#45;&gt;s258 -->
<g id="edge3" class="edge">
<title>s259&#45;&gt;s258</title>
<path fill="none" stroke="#000000" d="M386.2308,-36.1257C376.616,-36.0516 367.1607,-35.8741 358.3087,-35.5934"/>
<polygon fill="#000000" stroke="#000000" points="358.3448,-32.0924 348.221,-35.2164 358.0833,-39.0875 358.3448,-32.0924"/>
</g>
<!-- s260 -->
<g id="node5" class="node">
<title>s260</title>
<ellipse fill="none" stroke="#000000" cx="694.2632" cy="-29.4156" rx="68.4585" ry="29.3315"/>
<text text-anchor="middle" x="694.2632" y="-33.6156" font-family="Times,serif" font-size="14.00" fill="#000000">s260 STRING</text>
<text text-anchor="middle" x="694.2632" y="-16.8156" font-family="Times,serif" font-size="14.00" fill="#000000">&quot;}&quot;</text>
</g>
<!-- s259&#45;&gt;s260 -->
<g id="edge5" class="edge">
<title>s259&#45;&gt;s260</title>
<path fill="none" stroke="#000000" d="M590.2822,-29.4156C598.8646,-29.4156 607.4497,-29.4156 615.8024,-29.4156"/>
<polygon fill="#000000" stroke="#000000" points="615.8598,-32.9157 625.8598,-29.4156 615.8597,-25.9157 615.8598,-32.9157"/>
</g>
</g>
</svg>
