<?xml version="1.0" encoding="UTF-8" standalone="no"?>
<!DOCTYPE svg PUBLIC "-//W3C//DTD SVG 1.1//EN"
 "http://www.w3.org/Graphics/SVG/1.1/DTD/svg11.dtd">
<!-- Generated by graphviz version 2.40.1 (20161225.0304)
 -->
<!-- Title: qualified_type Pages: 1 -->
<svg width="604pt" height="67pt"
 viewBox="0.00 0.00 603.83 66.83" xmlns="http://www.w3.org/2000/svg" xmlns:xlink="http://www.w3.org/1999/xlink">
<g id="graph0" class="graph" transform="scale(1 1) rotate(0) translate(4 62.8313)">
<title>qualified_type</title>
<polygon fill="#ffffff" stroke="transparent" points="-4,4 -4,-62.8313 599.8315,-62.8313 599.8315,4 -4,4"/>
<!-- s800 -->
<g id="node1" class="node">
<title>s800</title>
<polygon fill="none" stroke="#000000" points="0,-8.6156 0,-50.2156 56.4418,-50.2156 56.4418,-8.6156 0,-8.6156"/>
<text text-anchor="middle" x="28.2209" y="-33.6156" font-family="Times,serif" font-size="14.00" fill="#000000">s800</text>
<text text-anchor="middle" x="28.2209" y="-16.8156" font-family="Times,serif" font-size="14.00" fill="#000000">→ SEQ</text>
</g>
<!-- s801 -->
<g id="node2" class="node">
<title>s801</title>
<g id="a_node2"><a xlink:href="rust-grammar.json._type.dot.svg" xlink:title="s801 SYMBOL\n_type">
<ellipse fill="none" stroke="#000000" cx="166.1748" cy="-29.4156" rx="73.9667" ry="29.3315"/>
<text text-anchor="middle" x="166.1748" y="-33.6156" font-family="Times,serif" font-size="14.00" fill="#000000">s801 SYMBOL</text>
<text text-anchor="middle" x="166.1748" y="-16.8156" font-family="Times,serif" font-size="14.00" fill="#000000">_type</text>
</a>
</g>
</g>
<!-- s800&#45;&gt;s801 -->
<g id="edge1" class="edge">
<title>s800&#45;&gt;s801</title>
<path fill="none" stroke="#000000" d="M56.4708,-29.4156C64.228,-29.4156 73.0559,-29.4156 82.2564,-29.4156"/>
<polygon fill="#000000" stroke="#000000" points="82.3531,-32.9157 92.353,-29.4156 82.353,-25.9157 82.3531,-32.9157"/>
</g>
<!-- s802 -->
<g id="node3" class="node">
<title>s802</title>
<ellipse fill="none" stroke="#000000" cx="344.1367" cy="-29.4156" rx="68.4585" ry="29.3315"/>
<text text-anchor="middle" x="344.1367" y="-33.6156" font-family="Times,serif" font-size="14.00" fill="#000000">s802 STRING</text>
<text text-anchor="middle" x="344.1367" y="-16.8156" font-family="Times,serif" font-size="14.00" fill="#000000">&quot;as&quot;</text>
</g>
<!-- s801&#45;&gt;s802 -->
<g id="edge2" class="edge">
<title>s801&#45;&gt;s802</title>
<path fill="none" stroke="#000000" d="M240.1006,-29.4156C248.5193,-29.4156 257.1232,-29.4156 265.5989,-29.4156"/>
<polygon fill="#000000" stroke="#000000" points="265.8529,-32.9157 275.8528,-29.4156 265.8528,-25.9157 265.8529,-32.9157"/>
</g>
<!-- s803 -->
<g id="node4" class="node">
<title>s803</title>
<g id="a_node4"><a xlink:href="rust-grammar.json._type.dot.svg" xlink:title="s803 SYMBOL\n_type">
<ellipse fill="none" stroke="#000000" cx="522.0985" cy="-29.4156" rx="73.9667" ry="29.3315"/>
<text text-anchor="middle" x="522.0985" y="-33.6156" font-family="Times,serif" font-size="14.00" fill="#000000">s803 SYMBOL</text>
<text text-anchor="middle" x="522.0985" y="-16.8156" font-family="Times,serif" font-size="14.00" fill="#000000">_type</text>
</a>
</g>
</g>
<!-- s802&#45;&gt;s803 -->
<g id="edge3" class="edge">
<title>s802&#45;&gt;s803</title>
<path fill="none" stroke="#000000" d="M412.4324,-29.4156C420.8162,-29.4156 429.4593,-29.4156 438.0412,-29.4156"/>
<polygon fill="#000000" stroke="#000000" points="438.0682,-32.9157 448.0682,-29.4156 438.0681,-25.9157 438.0682,-32.9157"/>
</g>
</g>
</svg>
