<?xml version="1.0" encoding="UTF-8" standalone="no"?>
<!DOCTYPE svg PUBLIC "-//W3C//DTD SVG 1.1//EN"
 "http://www.w3.org/Graphics/SVG/1.1/DTD/svg11.dtd">
<!-- Generated by graphviz version 2.40.1 (20161225.0304)
 -->
<!-- Title: closure_parameters Pages: 1 -->
<svg width="1832pt" height="205pt"
 viewBox="0.00 0.00 1832.10 204.83" xmlns="http://www.w3.org/2000/svg" xmlns:xlink="http://www.w3.org/1999/xlink">
<g id="graph0" class="graph" transform="scale(1 1) rotate(0) translate(4 200.8313)">
<title>closure_parameters</title>
<polygon fill="#ffffff" stroke="transparent" points="-4,4 -4,-200.8313 1828.0955,-200.8313 1828.0955,4 -4,4"/>
<!-- s1272 -->
<g id="node1" class="node">
<title>s1272</title>
<polygon fill="none" stroke="#000000" points="0,-35.6156 0,-77.2156 56.4418,-77.2156 56.4418,-35.6156 0,-35.6156"/>
<text text-anchor="middle" x="28.2209" y="-60.6156" font-family="Times,serif" font-size="14.00" fill="#000000">s1272</text>
<text text-anchor="middle" x="28.2209" y="-43.8156" font-family="Times,serif" font-size="14.00" fill="#000000">→ SEQ</text>
</g>
<!-- s1273 -->
<g id="node2" class="node">
<title>s1273</title>
<ellipse fill="none" stroke="#000000" cx="166.6204" cy="-56.4156" rx="73.3577" ry="29.3315"/>
<text text-anchor="middle" x="166.6204" y="-60.6156" font-family="Times,serif" font-size="14.00" fill="#000000">s1273 STRING</text>
<text text-anchor="middle" x="166.6204" y="-43.8156" font-family="Times,serif" font-size="14.00" fill="#000000">&quot;|&quot;</text>
</g>
<!-- s1272&#45;&gt;s1273 -->
<g id="edge1" class="edge">
<title>s1272&#45;&gt;s1273</title>
<path fill="none" stroke="#000000" d="M56.5621,-56.4156C64.6032,-56.4156 73.7912,-56.4156 83.3533,-56.4156"/>
<polygon fill="#000000" stroke="#000000" points="83.4211,-59.9157 93.421,-56.4156 83.421,-52.9157 83.4211,-59.9157"/>
</g>
<!-- s1274 -->
<g id="node3" class="node">
<title>s1274</title>
<polygon fill="none" stroke="#000000" points="276.799,-31.6156 276.799,-81.2156 378.3986,-81.2156 378.3986,-31.6156 276.799,-31.6156"/>
<text text-anchor="middle" x="317.8488" y="-60.6156" font-family="Times,serif" font-size="14.00" fill="#000000">s1274</text>
<text text-anchor="middle" x="317.8488" y="-43.8156" font-family="Times,serif" font-size="14.00" fill="#000000">→ CHOICE</text>
<polyline fill="none" stroke="#000000" points="358.8986,-31.6156 358.8986,-81.2156 "/>
<text text-anchor="middle" x="368.6486" y="-64.6156" font-family="Times,serif" font-size="14.00" fill="#000000"> </text>
<polyline fill="none" stroke="#000000" points="358.8986,-56.4156 378.3986,-56.4156 "/>
<text text-anchor="middle" x="368.6486" y="-39.8156" font-family="Times,serif" font-size="14.00" fill="#000000"> </text>
</g>
<!-- s1273&#45;&gt;s1274 -->
<g id="edge15" class="edge">
<title>s1273&#45;&gt;s1274</title>
<path fill="none" stroke="#000000" d="M240.0435,-56.4156C248.7685,-56.4156 257.6051,-56.4156 266.139,-56.4156"/>
<polygon fill="#000000" stroke="#000000" points="266.3705,-59.9157 276.3705,-56.4156 266.3704,-52.9157 266.3705,-59.9157"/>
</g>
<!-- s1275 -->
<g id="node4" class="node">
<title>s1275</title>
<polygon fill="none" stroke="#000000" points="415.3986,-74.6156 415.3986,-116.2156 471.8404,-116.2156 471.8404,-74.6156 415.3986,-74.6156"/>
<text text-anchor="middle" x="443.6195" y="-99.6156" font-family="Times,serif" font-size="14.00" fill="#000000">s1275</text>
<text text-anchor="middle" x="443.6195" y="-82.8156" font-family="Times,serif" font-size="14.00" fill="#000000">→ SEQ</text>
</g>
<!-- s1274&#45;&gt;s1275 -->
<g id="edge13" class="edge">
<title>s1274:p0&#45;&gt;s1275</title>
<path fill="none" stroke="#000000" d="M378.3986,-68.4156C387.5698,-68.4156 396.9524,-70.7229 405.6392,-73.9886"/>
<polygon fill="#000000" stroke="#000000" points="404.5306,-77.3203 415.1029,-78.0109 407.2687,-70.8781 404.5306,-77.3203"/>
</g>
<!-- s1285 -->
<g id="node14" class="node">
<title>s1285</title>
<ellipse fill="none" stroke="#000000" cx="535.2431" cy="-34.4156" rx="45.3054" ry="29.3315"/>
<text text-anchor="middle" x="535.2431" y="-38.6156" font-family="Times,serif" font-size="14.00" fill="#000000">s1285 </text>
<text text-anchor="middle" x="535.2431" y="-21.8156" font-family="Times,serif" font-size="14.00" fill="#000000">BLANK</text>
</g>
<!-- s1274&#45;&gt;s1285 -->
<g id="edge14" class="edge">
<title>s1274:p1&#45;&gt;s1285</title>
<path fill="none" stroke="#000000" d="M378.3986,-44.4156C412.203,-44.4156 450.0227,-42.0735 480.0539,-39.6562"/>
<polygon fill="#000000" stroke="#000000" points="480.6565,-43.1183 490.3321,-38.8018 480.0765,-36.1424 480.6565,-43.1183"/>
</g>
<!-- s1276 -->
<g id="node5" class="node">
<title>s1276</title>
<polygon fill="none" stroke="#000000" points="598.6457,-73.6156 598.6457,-123.2156 700.2453,-123.2156 700.2453,-73.6156 598.6457,-73.6156"/>
<text text-anchor="middle" x="639.6955" y="-102.6156" font-family="Times,serif" font-size="14.00" fill="#000000">s1276</text>
<text text-anchor="middle" x="639.6955" y="-85.8156" font-family="Times,serif" font-size="14.00" fill="#000000">→ CHOICE</text>
<polyline fill="none" stroke="#000000" points="680.7453,-73.6156 680.7453,-123.2156 "/>
<text text-anchor="middle" x="690.4953" y="-106.6156" font-family="Times,serif" font-size="14.00" fill="#000000"> </text>
<polyline fill="none" stroke="#000000" points="680.7453,-98.4156 700.2453,-98.4156 "/>
<text text-anchor="middle" x="690.4953" y="-81.8156" font-family="Times,serif" font-size="14.00" fill="#000000"> </text>
</g>
<!-- s1275&#45;&gt;s1276 -->
<g id="edge4" class="edge">
<title>s1275&#45;&gt;s1276</title>
<path fill="none" stroke="#000000" d="M472.2388,-95.8328C502.1513,-96.2688 549.9943,-96.9661 588.4328,-97.5264"/>
<polygon fill="#000000" stroke="#000000" points="588.4428,-101.0268 598.4928,-97.673 588.5449,-94.0275 588.4428,-101.0268"/>
</g>
<!-- s1277 -->
<g id="node6" class="node">
<title>s1277</title>
<g id="a_node6"><a xlink:href="rust-grammar.json._pattern.dot.svg" xlink:title="s1277 SYMBOL\n_pattern">
<ellipse fill="none" stroke="#000000" cx="870.8888" cy="-163.4156" rx="78.8659" ry="29.3315"/>
<text text-anchor="middle" x="870.8888" y="-167.6156" font-family="Times,serif" font-size="14.00" fill="#000000">s1277 SYMBOL</text>
<text text-anchor="middle" x="870.8888" y="-150.8156" font-family="Times,serif" font-size="14.00" fill="#000000">_pattern</text>
</a>
</g>
</g>
<!-- s1276&#45;&gt;s1277 -->
<g id="edge2" class="edge">
<title>s1276:p0&#45;&gt;s1277</title>
<path fill="none" stroke="#000000" d="M700.2453,-110.4156C739.209,-110.4156 781.0162,-123.1737 813.4974,-136.1709"/>
<polygon fill="#000000" stroke="#000000" points="812.2525,-139.4434 822.8319,-140.0148 814.918,-132.9707 812.2525,-139.4434"/>
<text text-anchor="middle" x="746.2257" y="-125.6156" font-family="Times,serif" font-size="14.00" fill="#000000">_pattern</text>
</g>
<!-- s1278 -->
<g id="node7" class="node">
<title>s1278</title>
<g id="a_node7"><a xlink:href="rust-grammar.json.parameter.dot.svg" xlink:title="s1278 SYMBOL\nparameter">
<ellipse fill="none" stroke="#000000" cx="870.8888" cy="-86.4156" rx="78.8659" ry="29.3315"/>
<text text-anchor="middle" x="870.8888" y="-90.6156" font-family="Times,serif" font-size="14.00" fill="#000000">s1278 SYMBOL</text>
<text text-anchor="middle" x="870.8888" y="-73.8156" font-family="Times,serif" font-size="14.00" fill="#000000">parameter</text>
</a>
</g>
</g>
<!-- s1276&#45;&gt;s1278 -->
<g id="edge3" class="edge">
<title>s1276:p1&#45;&gt;s1278</title>
<path fill="none" stroke="#000000" d="M700.2453,-86.4156C726.6607,-86.4156 755.3762,-86.4156 781.5851,-86.4156"/>
<polygon fill="#000000" stroke="#000000" points="781.8785,-89.9157 791.8785,-86.4156 781.8785,-82.9157 781.8785,-89.9157"/>
<text text-anchor="middle" x="746.2257" y="-90.6156" font-family="Times,serif" font-size="14.00" fill="#000000">parameter</text>
</g>
<!-- s1279 -->
<g id="node8" class="node">
<title>s1279</title>
<polygon fill="none" stroke="#000000" points="986.5716,-77.6156 986.5716,-119.2156 1069.4552,-119.2156 1069.4552,-77.6156 986.5716,-77.6156"/>
<text text-anchor="middle" x="1028.0134" y="-102.6156" font-family="Times,serif" font-size="14.00" fill="#000000">s1279</text>
<text text-anchor="middle" x="1028.0134" y="-85.8156" font-family="Times,serif" font-size="14.00" fill="#000000">→ REPEAT</text>
</g>
<!-- s1277&#45;&gt;s1279 -->
<g id="edge11" class="edge">
<title>s1277&#45;&gt;s1279</title>
<path fill="none" stroke="#000000" d="M923.6461,-141.5908C940.9474,-134.4335 960.127,-126.4992 977.2754,-119.4051"/>
<polygon fill="#000000" stroke="#000000" points="978.666,-122.6176 986.5686,-115.5607 975.9901,-116.1492 978.666,-122.6176"/>
</g>
<!-- s1278&#45;&gt;s1279 -->
<g id="edge12" class="edge">
<title>s1278&#45;&gt;s1279</title>
<path fill="none" stroke="#000000" d="M948.0702,-92.3102C957.6562,-93.0423 967.2695,-93.7765 976.3392,-94.4692"/>
<polygon fill="#000000" stroke="#000000" points="976.0803,-97.9595 986.3178,-95.2312 976.6134,-90.9798 976.0803,-97.9595"/>
</g>
<!-- s1280 -->
<g id="node9" class="node">
<title>s1280</title>
<polygon fill="none" stroke="#000000" points="1151.4129,-77.6156 1151.4129,-119.2156 1207.8547,-119.2156 1207.8547,-77.6156 1151.4129,-77.6156"/>
<text text-anchor="middle" x="1179.6338" y="-102.6156" font-family="Times,serif" font-size="14.00" fill="#000000">s1280</text>
<text text-anchor="middle" x="1179.6338" y="-85.8156" font-family="Times,serif" font-size="14.00" fill="#000000">→ SEQ</text>
</g>
<!-- s1279&#45;&gt;s1280 -->
<g id="edge9" class="edge">
<title>s1279&#45;&gt;s1280</title>
<path fill="none" stroke="#000000" d="M1069.8457,-98.4156C1092.1426,-98.4156 1119.3838,-98.4156 1141.1527,-98.4156"/>
<polygon fill="#000000" stroke="#000000" points="1141.3541,-101.9157 1151.3541,-98.4156 1141.354,-94.9157 1141.3541,-101.9157"/>
</g>
<!-- s1286 -->
<g id="node15" class="node">
<title>s1286</title>
<ellipse fill="none" stroke="#000000" cx="1179.6338" cy="-29.4156" rx="73.3577" ry="29.3315"/>
<text text-anchor="middle" x="1179.6338" y="-33.6156" font-family="Times,serif" font-size="14.00" fill="#000000">s1286 STRING</text>
<text text-anchor="middle" x="1179.6338" y="-16.8156" font-family="Times,serif" font-size="14.00" fill="#000000">&quot;|&quot;</text>
</g>
<!-- s1279&#45;&gt;s1286 -->
<g id="edge16" class="edge">
<title>s1279&#45;&gt;s1286</title>
<path fill="none" stroke="#000000" d="M1069.8457,-79.3784C1085.8206,-72.1085 1104.3335,-63.6836 1121.5534,-55.8471"/>
<polygon fill="#000000" stroke="#000000" points="1123.3106,-58.8929 1130.9627,-51.5651 1120.4111,-52.5216 1123.3106,-58.8929"/>
</g>
<!-- s1281 -->
<g id="node10" class="node">
<title>s1281</title>
<ellipse fill="none" stroke="#000000" cx="1362.991" cy="-92.4156" rx="73.3577" ry="29.3315"/>
<text text-anchor="middle" x="1362.991" y="-96.6156" font-family="Times,serif" font-size="14.00" fill="#000000">s1281 STRING</text>
<text text-anchor="middle" x="1362.991" y="-79.8156" font-family="Times,serif" font-size="14.00" fill="#000000">&quot;,&quot;</text>
</g>
<!-- s1280&#45;&gt;s1281 -->
<g id="edge5" class="edge">
<title>s1280&#45;&gt;s1281</title>
<path fill="none" stroke="#000000" d="M1207.8815,-97.4913C1227.2145,-96.8587 1253.9289,-95.9845 1279.744,-95.1397"/>
<polygon fill="#000000" stroke="#000000" points="1280.0773,-98.6308 1289.9574,-94.8055 1279.8483,-91.6345 1280.0773,-98.6308"/>
</g>
<!-- s1282 -->
<g id="node11" class="node">
<title>s1282</title>
<polygon fill="none" stroke="#000000" points="1473.1697,-103.6156 1473.1697,-153.2156 1574.7693,-153.2156 1574.7693,-103.6156 1473.1697,-103.6156"/>
<text text-anchor="middle" x="1514.2195" y="-132.6156" font-family="Times,serif" font-size="14.00" fill="#000000">s1282</text>
<text text-anchor="middle" x="1514.2195" y="-115.8156" font-family="Times,serif" font-size="14.00" fill="#000000">→ CHOICE</text>
<polyline fill="none" stroke="#000000" points="1555.2693,-103.6156 1555.2693,-153.2156 "/>
<text text-anchor="middle" x="1565.0193" y="-136.6156" font-family="Times,serif" font-size="14.00" fill="#000000"> </text>
<polyline fill="none" stroke="#000000" points="1555.2693,-128.4156 1574.7693,-128.4156 "/>
<text text-anchor="middle" x="1565.0193" y="-111.8156" font-family="Times,serif" font-size="14.00" fill="#000000"> </text>
</g>
<!-- s1281&#45;&gt;s1282 -->
<g id="edge8" class="edge">
<title>s1281&#45;&gt;s1282</title>
<path fill="none" stroke="#000000" d="M1427.0765,-106.7472C1438.8762,-109.386 1451.1671,-112.1347 1462.8757,-114.7531"/>
<polygon fill="#000000" stroke="#000000" points="1462.4654,-118.2477 1472.9882,-117.0146 1463.9932,-111.4165 1462.4654,-118.2477"/>
</g>
<!-- s1282&#45;&gt;s1279 -->
<g id="edge10" class="edge">
<title>s1282&#45;&gt;s1279</title>
<path fill="none" stroke="#000000" d="M1472.9449,-134.4995C1393.6921,-142.5906 1236.5853,-153.1854 1106.4552,-128.4156 1097.4092,-126.6938 1088.0524,-123.9956 1079.0886,-120.9076"/>
<polygon fill="#000000" stroke="#000000" points="1080.1436,-117.567 1069.5496,-117.4316 1077.7469,-124.1439 1080.1436,-117.567"/>
</g>
<!-- s1283 -->
<g id="node12" class="node">
<title>s1283</title>
<g id="a_node12"><a xlink:href="rust-grammar.json._pattern.dot.svg" xlink:title="s1283 SYMBOL\n_pattern">
<ellipse fill="none" stroke="#000000" cx="1745.4128" cy="-167.4156" rx="78.8659" ry="29.3315"/>
<text text-anchor="middle" x="1745.4128" y="-171.6156" font-family="Times,serif" font-size="14.00" fill="#000000">s1283 SYMBOL</text>
<text text-anchor="middle" x="1745.4128" y="-154.8156" font-family="Times,serif" font-size="14.00" fill="#000000">_pattern</text>
</a>
</g>
</g>
<!-- s1282&#45;&gt;s1283 -->
<g id="edge6" class="edge">
<title>s1282:p0&#45;&gt;s1283</title>
<path fill="none" stroke="#000000" d="M1574.7693,-140.4156C1605.6246,-140.4156 1639.2368,-144.7755 1668.408,-149.9912"/>
<polygon fill="#000000" stroke="#000000" points="1668.0589,-153.486 1678.5291,-151.8661 1669.3339,-146.6031 1668.0589,-153.486"/>
<text text-anchor="middle" x="1620.7497" y="-149.6156" font-family="Times,serif" font-size="14.00" fill="#000000">_pattern</text>
</g>
<!-- s1284 -->
<g id="node13" class="node">
<title>s1284</title>
<g id="a_node13"><a xlink:href="rust-grammar.json.parameter.dot.svg" xlink:title="s1284 SYMBOL\nparameter">
<ellipse fill="none" stroke="#000000" cx="1745.4128" cy="-90.4156" rx="78.8659" ry="29.3315"/>
<text text-anchor="middle" x="1745.4128" y="-94.6156" font-family="Times,serif" font-size="14.00" fill="#000000">s1284 SYMBOL</text>
<text text-anchor="middle" x="1745.4128" y="-77.8156" font-family="Times,serif" font-size="14.00" fill="#000000">parameter</text>
</a>
</g>
</g>
<!-- s1282&#45;&gt;s1284 -->
<g id="edge7" class="edge">
<title>s1282:p1&#45;&gt;s1284</title>
<path fill="none" stroke="#000000" d="M1574.7693,-116.4156C1605.3291,-116.4156 1638.6198,-112.29 1667.6165,-107.3255"/>
<polygon fill="#000000" stroke="#000000" points="1668.4474,-110.7329 1677.6823,-105.5399 1667.2247,-103.8405 1668.4474,-110.7329"/>
<text text-anchor="middle" x="1620.7497" y="-119.6156" font-family="Times,serif" font-size="14.00" fill="#000000">parameter</text>
</g>
<!-- s1285&#45;&gt;s1286 -->
<g id="edge17" class="edge">
<title>s1285&#45;&gt;s1286</title>
<path fill="none" stroke="#000000" d="M580.9191,-32.7089C623.6478,-31.2604 689.2517,-29.4156 746.2257,-29.4156 746.2257,-29.4156 746.2257,-29.4156 1028.0134,-29.4156 1050.1555,-29.4156 1074.1166,-29.4156 1096.3106,-29.4156"/>
<polygon fill="#000000" stroke="#000000" points="1096.3706,-32.9157 1106.3706,-29.4156 1096.3706,-25.9157 1096.3706,-32.9157"/>
</g>
</g>
</svg>
