<?xml version="1.0" encoding="UTF-8" standalone="no"?>
<!DOCTYPE svg PUBLIC "-//W3C//DTD SVG 1.1//EN"
 "http://www.w3.org/Graphics/SVG/1.1/DTD/svg11.dtd">
<!-- Generated by graphviz version 2.40.1 (20161225.0304)
 -->
<!-- Title: ordered_field_declaration_list Pages: 1 -->
<svg width="3140pt" height="302pt"
 viewBox="0.00 0.00 3140.14 301.83" xmlns="http://www.w3.org/2000/svg" xmlns:xlink="http://www.w3.org/1999/xlink">
<g id="graph0" class="graph" transform="scale(1 1) rotate(0) translate(4 297.8313)">
<title>ordered_field_declaration_list</title>
<polygon fill="#ffffff" stroke="transparent" points="-4,4 -4,-297.8313 3136.1364,-297.8313 3136.1364,4 -4,4"/>
<!-- s373 -->
<g id="node1" class="node">
<title>s373</title>
<polygon fill="none" stroke="#000000" points="0,-85.6156 0,-127.2156 56.4418,-127.2156 56.4418,-85.6156 0,-85.6156"/>
<text text-anchor="middle" x="28.2209" y="-110.6156" font-family="Times,serif" font-size="14.00" fill="#000000">s373</text>
<text text-anchor="middle" x="28.2209" y="-93.8156" font-family="Times,serif" font-size="14.00" fill="#000000">→ SEQ</text>
</g>
<!-- s374 -->
<g id="node2" class="node">
<title>s374</title>
<ellipse fill="none" stroke="#000000" cx="161.6707" cy="-106.4156" rx="68.4585" ry="29.3315"/>
<text text-anchor="middle" x="161.6707" y="-110.6156" font-family="Times,serif" font-size="14.00" fill="#000000">s374 STRING</text>
<text text-anchor="middle" x="161.6707" y="-93.8156" font-family="Times,serif" font-size="14.00" fill="#000000">&quot;(&quot;</text>
</g>
<!-- s373&#45;&gt;s374 -->
<g id="edge1" class="edge">
<title>s373&#45;&gt;s374</title>
<path fill="none" stroke="#000000" d="M56.5222,-106.4156C64.5856,-106.4156 73.7846,-106.4156 83.3101,-106.4156"/>
<polygon fill="#000000" stroke="#000000" points="83.321,-109.9157 93.321,-106.4156 83.3209,-102.9157 83.321,-109.9157"/>
</g>
<!-- s375 -->
<g id="node3" class="node">
<title>s375</title>
<polygon fill="none" stroke="#000000" points="266.8995,-81.6156 266.8995,-131.2156 368.4991,-131.2156 368.4991,-81.6156 266.8995,-81.6156"/>
<text text-anchor="middle" x="307.9493" y="-110.6156" font-family="Times,serif" font-size="14.00" fill="#000000">s375</text>
<text text-anchor="middle" x="307.9493" y="-93.8156" font-family="Times,serif" font-size="14.00" fill="#000000">→ CHOICE</text>
<polyline fill="none" stroke="#000000" points="348.9991,-81.6156 348.9991,-131.2156 "/>
<text text-anchor="middle" x="358.7491" y="-114.6156" font-family="Times,serif" font-size="14.00" fill="#000000"> </text>
<polyline fill="none" stroke="#000000" points="348.9991,-106.4156 368.4991,-106.4156 "/>
<text text-anchor="middle" x="358.7491" y="-89.8156" font-family="Times,serif" font-size="14.00" fill="#000000"> </text>
</g>
<!-- s374&#45;&gt;s375 -->
<g id="edge26" class="edge">
<title>s374&#45;&gt;s375</title>
<path fill="none" stroke="#000000" d="M230.1071,-106.4156C238.9349,-106.4156 247.9288,-106.4156 256.6274,-106.4156"/>
<polygon fill="#000000" stroke="#000000" points="256.6756,-109.9157 266.6755,-106.4156 256.6755,-102.9157 256.6756,-109.9157"/>
</g>
<!-- s376 -->
<g id="node4" class="node">
<title>s376</title>
<polygon fill="none" stroke="#000000" points="405.4991,-125.6156 405.4991,-167.2156 461.9409,-167.2156 461.9409,-125.6156 405.4991,-125.6156"/>
<text text-anchor="middle" x="433.72" y="-150.6156" font-family="Times,serif" font-size="14.00" fill="#000000">s376</text>
<text text-anchor="middle" x="433.72" y="-133.8156" font-family="Times,serif" font-size="14.00" fill="#000000">→ SEQ</text>
</g>
<!-- s375&#45;&gt;s376 -->
<g id="edge24" class="edge">
<title>s375:p0&#45;&gt;s376</title>
<path fill="none" stroke="#000000" d="M368.4991,-118.4156C377.8199,-118.4156 387.3266,-120.8601 396.0957,-124.3046"/>
<polygon fill="#000000" stroke="#000000" points="394.7167,-127.5217 405.2778,-128.3662 397.5485,-121.12 394.7167,-127.5217"/>
</g>
<!-- s394 -->
<g id="node22" class="node">
<title>s394</title>
<ellipse fill="none" stroke="#000000" cx="525.3436" cy="-94.4156" rx="45.3054" ry="29.3315"/>
<text text-anchor="middle" x="525.3436" y="-98.6156" font-family="Times,serif" font-size="14.00" fill="#000000">s394 </text>
<text text-anchor="middle" x="525.3436" y="-81.8156" font-family="Times,serif" font-size="14.00" fill="#000000">BLANK</text>
</g>
<!-- s375&#45;&gt;s394 -->
<g id="edge25" class="edge">
<title>s375:p1&#45;&gt;s394</title>
<path fill="none" stroke="#000000" d="M368.4991,-94.4156C401.9914,-94.4156 439.5067,-94.4156 469.4476,-94.4156"/>
<polygon fill="#000000" stroke="#000000" points="469.7033,-97.9157 479.7032,-94.4156 469.7032,-90.9157 469.7033,-97.9157"/>
</g>
<!-- s377 -->
<g id="node5" class="node">
<title>s377</title>
<polygon fill="none" stroke="#000000" points="588.7462,-129.6156 588.7462,-171.2156 645.188,-171.2156 645.188,-129.6156 588.7462,-129.6156"/>
<text text-anchor="middle" x="616.9671" y="-154.6156" font-family="Times,serif" font-size="14.00" fill="#000000">s377</text>
<text text-anchor="middle" x="616.9671" y="-137.8156" font-family="Times,serif" font-size="14.00" fill="#000000">→ SEQ</text>
</g>
<!-- s376&#45;&gt;s377 -->
<g id="edge10" class="edge">
<title>s376&#45;&gt;s377</title>
<path fill="none" stroke="#000000" d="M461.9508,-147.0319C493.158,-147.7131 543.6099,-148.8144 578.4363,-149.5746"/>
<polygon fill="#000000" stroke="#000000" points="578.6302,-153.0795 588.7042,-149.7987 578.783,-146.0812 578.6302,-153.0795"/>
</g>
<!-- s378 -->
<g id="node6" class="node">
<title>s378</title>
<polygon fill="none" stroke="#000000" points="682.188,-136.6156 682.188,-178.2156 765.0716,-178.2156 765.0716,-136.6156 682.188,-136.6156"/>
<text text-anchor="middle" x="723.6298" y="-161.6156" font-family="Times,serif" font-size="14.00" fill="#000000">s378</text>
<text text-anchor="middle" x="723.6298" y="-144.8156" font-family="Times,serif" font-size="14.00" fill="#000000">→ REPEAT</text>
</g>
<!-- s377&#45;&gt;s378 -->
<g id="edge4" class="edge">
<title>s377&#45;&gt;s378</title>
<path fill="none" stroke="#000000" d="M645.2707,-152.2731C653.4319,-152.8087 662.6043,-153.4107 671.7212,-154.009"/>
<polygon fill="#000000" stroke="#000000" points="671.7264,-157.5168 681.9341,-154.6793 672.1848,-150.5318 671.7264,-157.5168"/>
</g>
<!-- s379 -->
<g id="node7" class="node">
<title>s379</title>
<g id="a_node7"><a xlink:href="rust-grammar.json.attribute_item.dot.svg" xlink:title="s379 SYMBOL\nattribute_item">
<ellipse fill="none" stroke="#000000" cx="875.8046" cy="-157.4156" rx="73.9667" ry="29.3315"/>
<text text-anchor="middle" x="875.8046" y="-161.6156" font-family="Times,serif" font-size="14.00" fill="#000000">s379 SYMBOL</text>
<text text-anchor="middle" x="875.8046" y="-144.8156" font-family="Times,serif" font-size="14.00" fill="#000000">attribute_item</text>
</a>
</g>
</g>
<!-- s378&#45;&gt;s379 -->
<g id="edge2" class="edge">
<title>s378&#45;&gt;s379</title>
<path fill="none" stroke="#000000" d="M765.2122,-151.3248C774.0947,-150.961 783.7732,-150.7477 793.5887,-150.6851"/>
<polygon fill="#000000" stroke="#000000" points="793.843,-154.185 803.8393,-150.6745 793.8356,-147.185 793.843,-154.185"/>
</g>
<!-- s379&#45;&gt;s378 -->
<g id="edge3" class="edge">
<title>s379&#45;&gt;s378</title>
<path fill="none" stroke="#000000" d="M803.8393,-164.1568C794.2152,-164.198 784.503,-164.0948 775.3209,-163.8473"/>
<polygon fill="#000000" stroke="#000000" points="775.3245,-160.3455 765.2122,-163.5065 775.0886,-167.3415 775.3245,-160.3455"/>
</g>
<!-- s380 -->
<g id="node8" class="node">
<title>s380</title>
<polygon fill="none" stroke="#000000" points="986.5376,-138.6156 986.5376,-188.2156 1088.1372,-188.2156 1088.1372,-138.6156 986.5376,-138.6156"/>
<text text-anchor="middle" x="1027.5874" y="-167.6156" font-family="Times,serif" font-size="14.00" fill="#000000">s380</text>
<text text-anchor="middle" x="1027.5874" y="-150.8156" font-family="Times,serif" font-size="14.00" fill="#000000">→ CHOICE</text>
<polyline fill="none" stroke="#000000" points="1068.6372,-138.6156 1068.6372,-188.2156 "/>
<text text-anchor="middle" x="1078.3872" y="-171.6156" font-family="Times,serif" font-size="14.00" fill="#000000"> </text>
<polyline fill="none" stroke="#000000" points="1068.6372,-163.4156 1088.1372,-163.4156 "/>
<text text-anchor="middle" x="1078.3872" y="-146.8156" font-family="Times,serif" font-size="14.00" fill="#000000"> </text>
</g>
<!-- s379&#45;&gt;s380 -->
<g id="edge7" class="edge">
<title>s379&#45;&gt;s380</title>
<path fill="none" stroke="#000000" d="M949.4805,-160.1523C958.4514,-160.4855 967.5398,-160.8231 976.2986,-161.1484"/>
<polygon fill="#000000" stroke="#000000" points="976.2793,-164.65 986.4024,-161.5237 976.5392,-157.6548 976.2793,-164.65"/>
</g>
<!-- s381 -->
<g id="node9" class="node">
<title>s381</title>
<g id="a_node9"><a xlink:href="rust-grammar.json.visibility_modifier.dot.svg" xlink:title="s381 SYMBOL\nvisibility_modifier">
<ellipse fill="none" stroke="#000000" cx="1314.6899" cy="-228.4156" rx="85.6139" ry="29.3315"/>
<text text-anchor="middle" x="1314.6899" y="-232.6156" font-family="Times,serif" font-size="14.00" fill="#000000">s381 SYMBOL</text>
<text text-anchor="middle" x="1314.6899" y="-215.8156" font-family="Times,serif" font-size="14.00" fill="#000000">visibility_modifier</text>
</a>
</g>
</g>
<!-- s380&#45;&gt;s381 -->
<g id="edge5" class="edge">
<title>s380:p0&#45;&gt;s381</title>
<path fill="none" stroke="#000000" d="M1088.1372,-175.4156C1142.3283,-175.4156 1201.9392,-189.9708 1246.4072,-203.826"/>
<polygon fill="#000000" stroke="#000000" points="1245.3526,-207.1633 1255.9431,-206.8585 1247.4741,-200.4924 1245.3526,-207.1633"/>
<text text-anchor="middle" x="1158.6351" y="-196.6156" font-family="Times,serif" font-size="14.00" fill="#000000">visibility_modifier</text>
</g>
<!-- s382 -->
<g id="node10" class="node">
<title>s382</title>
<ellipse fill="none" stroke="#000000" cx="1314.6899" cy="-151.4156" rx="45.3054" ry="29.3315"/>
<text text-anchor="middle" x="1314.6899" y="-155.6156" font-family="Times,serif" font-size="14.00" fill="#000000">s382 </text>
<text text-anchor="middle" x="1314.6899" y="-138.8156" font-family="Times,serif" font-size="14.00" fill="#000000">BLANK</text>
</g>
<!-- s380&#45;&gt;s382 -->
<g id="edge6" class="edge">
<title>s380:p1&#45;&gt;s382</title>
<path fill="none" stroke="#000000" d="M1088.1372,-151.4156C1146.4608,-151.4156 1213.2303,-151.4156 1259.0926,-151.4156"/>
<polygon fill="#000000" stroke="#000000" points="1259.127,-154.9157 1269.1269,-151.4156 1259.1269,-147.9157 1259.127,-154.9157"/>
</g>
<!-- s383 -->
<g id="node11" class="node">
<title>s383</title>
<g id="a_node11"><a xlink:href="rust-grammar.json._type.dot.svg" xlink:title="s383 SYMBOL\n_type">
<ellipse fill="none" stroke="#000000" cx="1510.9799" cy="-183.4156" rx="73.9667" ry="29.3315"/>
<text text-anchor="middle" x="1510.9799" y="-187.6156" font-family="Times,serif" font-size="14.00" fill="#000000">s383 SYMBOL</text>
<text text-anchor="middle" x="1510.9799" y="-170.8156" font-family="Times,serif" font-size="14.00" fill="#000000">_type</text>
</a>
</g>
</g>
<!-- s381&#45;&gt;s383 -->
<g id="edge8" class="edge">
<title>s381&#45;&gt;s383</title>
<path fill="none" stroke="#000000" d="M1386.1104,-212.0423C1402.541,-208.2755 1420.0533,-204.2608 1436.6058,-200.4661"/>
<polygon fill="#000000" stroke="#000000" points="1437.8048,-203.7821 1446.7698,-198.136 1436.2406,-196.9591 1437.8048,-203.7821"/>
</g>
<!-- s382&#45;&gt;s383 -->
<g id="edge9" class="edge">
<title>s382&#45;&gt;s383</title>
<path fill="none" stroke="#000000" d="M1358.7412,-158.5971C1380.4947,-162.1434 1407.4043,-166.5303 1432.5203,-170.6248"/>
<polygon fill="#000000" stroke="#000000" points="1431.9783,-174.0826 1442.4112,-172.2373 1433.1046,-167.1738 1431.9783,-174.0826"/>
</g>
<!-- s384 -->
<g id="node12" class="node">
<title>s384</title>
<polygon fill="none" stroke="#000000" points="1621.7129,-162.6156 1621.7129,-204.2156 1704.5965,-204.2156 1704.5965,-162.6156 1621.7129,-162.6156"/>
<text text-anchor="middle" x="1663.1547" y="-187.6156" font-family="Times,serif" font-size="14.00" fill="#000000">s384</text>
<text text-anchor="middle" x="1663.1547" y="-170.8156" font-family="Times,serif" font-size="14.00" fill="#000000">→ REPEAT</text>
</g>
<!-- s383&#45;&gt;s384 -->
<g id="edge23" class="edge">
<title>s383&#45;&gt;s384</title>
<path fill="none" stroke="#000000" d="M1584.8384,-183.4156C1593.7753,-183.4156 1602.7533,-183.4156 1611.2785,-183.4156"/>
<polygon fill="#000000" stroke="#000000" points="1611.4198,-186.9157 1621.4197,-183.4156 1611.4197,-179.9157 1611.4198,-186.9157"/>
</g>
<!-- s385 -->
<g id="node13" class="node">
<title>s385</title>
<polygon fill="none" stroke="#000000" points="1764.1754,-162.6156 1764.1754,-204.2156 1820.6172,-204.2156 1820.6172,-162.6156 1764.1754,-162.6156"/>
<text text-anchor="middle" x="1792.3963" y="-187.6156" font-family="Times,serif" font-size="14.00" fill="#000000">s385</text>
<text text-anchor="middle" x="1792.3963" y="-170.8156" font-family="Times,serif" font-size="14.00" fill="#000000">→ SEQ</text>
</g>
<!-- s384&#45;&gt;s385 -->
<g id="edge21" class="edge">
<title>s384&#45;&gt;s385</title>
<path fill="none" stroke="#000000" d="M1704.7589,-183.4156C1720.4674,-183.4156 1738.2631,-183.4156 1753.6949,-183.4156"/>
<polygon fill="#000000" stroke="#000000" points="1753.9462,-186.9157 1763.9462,-183.4156 1753.9462,-179.9157 1753.9462,-186.9157"/>
</g>
<!-- s395 -->
<g id="node23" class="node">
<title>s395</title>
<polygon fill="none" stroke="#000000" points="1741.5965,-69.6156 1741.5965,-119.2156 1843.1961,-119.2156 1843.1961,-69.6156 1741.5965,-69.6156"/>
<text text-anchor="middle" x="1782.6463" y="-98.6156" font-family="Times,serif" font-size="14.00" fill="#000000">s395</text>
<text text-anchor="middle" x="1782.6463" y="-81.8156" font-family="Times,serif" font-size="14.00" fill="#000000">→ CHOICE</text>
<polyline fill="none" stroke="#000000" points="1823.6961,-69.6156 1823.6961,-119.2156 "/>
<text text-anchor="middle" x="1833.4461" y="-102.6156" font-family="Times,serif" font-size="14.00" fill="#000000"> </text>
<polyline fill="none" stroke="#000000" points="1823.6961,-94.4156 1843.1961,-94.4156 "/>
<text text-anchor="middle" x="1833.4461" y="-77.8156" font-family="Times,serif" font-size="14.00" fill="#000000"> </text>
</g>
<!-- s384&#45;&gt;s395 -->
<g id="edge29" class="edge">
<title>s384&#45;&gt;s395</title>
<path fill="none" stroke="#000000" d="M1693.4561,-162.5491C1709.6136,-151.4225 1729.8038,-137.5189 1747.7245,-125.1781"/>
<polygon fill="#000000" stroke="#000000" points="1750.0611,-127.8187 1756.3121,-119.2644 1746.0909,-122.0534 1750.0611,-127.8187"/>
</g>
<!-- s386 -->
<g id="node14" class="node">
<title>s386</title>
<ellipse fill="none" stroke="#000000" cx="1950.9249" cy="-183.4156" rx="68.4585" ry="29.3315"/>
<text text-anchor="middle" x="1950.9249" y="-187.6156" font-family="Times,serif" font-size="14.00" fill="#000000">s386 STRING</text>
<text text-anchor="middle" x="1950.9249" y="-170.8156" font-family="Times,serif" font-size="14.00" fill="#000000">&quot;,&quot;</text>
</g>
<!-- s385&#45;&gt;s386 -->
<g id="edge11" class="edge">
<title>s385&#45;&gt;s386</title>
<path fill="none" stroke="#000000" d="M1820.738,-183.4156C1835.3159,-183.4156 1853.879,-183.4156 1872.3891,-183.4156"/>
<polygon fill="#000000" stroke="#000000" points="1872.6414,-186.9157 1882.6414,-183.4156 1872.6414,-179.9157 1872.6414,-186.9157"/>
</g>
<!-- s387 -->
<g id="node15" class="node">
<title>s387</title>
<polygon fill="none" stroke="#000000" points="2096.1618,-204.6156 2096.1618,-246.2156 2152.6036,-246.2156 2152.6036,-204.6156 2096.1618,-204.6156"/>
<text text-anchor="middle" x="2124.3827" y="-229.6156" font-family="Times,serif" font-size="14.00" fill="#000000">s387</text>
<text text-anchor="middle" x="2124.3827" y="-212.8156" font-family="Times,serif" font-size="14.00" fill="#000000">→ SEQ</text>
</g>
<!-- s386&#45;&gt;s387 -->
<g id="edge20" class="edge">
<title>s386&#45;&gt;s387</title>
<path fill="none" stroke="#000000" d="M2010.6193,-197.8697C2035.4917,-203.8921 2063.6601,-210.7127 2085.7449,-216.0601"/>
<polygon fill="#000000" stroke="#000000" points="2085.1999,-219.5292 2095.7427,-218.4809 2086.8473,-212.7258 2085.1999,-219.5292"/>
</g>
<!-- s387&#45;&gt;s384 -->
<g id="edge22" class="edge">
<title>s387&#45;&gt;s384</title>
<path fill="none" stroke="#000000" d="M2096.1119,-227.9415C2032.1184,-232.9222 1871.6256,-241.261 1741.5965,-213.4156 1732.5922,-211.4874 1723.2565,-208.6847 1714.301,-205.5563"/>
<polygon fill="#000000" stroke="#000000" points="1715.3598,-202.2167 1704.7661,-202.0599 1712.9498,-208.7888 1715.3598,-202.2167"/>
</g>
<!-- s388 -->
<g id="node16" class="node">
<title>s388</title>
<polygon fill="none" stroke="#000000" points="2229.6116,-204.6156 2229.6116,-246.2156 2312.4952,-246.2156 2312.4952,-204.6156 2229.6116,-204.6156"/>
<text text-anchor="middle" x="2271.0534" y="-229.6156" font-family="Times,serif" font-size="14.00" fill="#000000">s388</text>
<text text-anchor="middle" x="2271.0534" y="-212.8156" font-family="Times,serif" font-size="14.00" fill="#000000">→ REPEAT</text>
</g>
<!-- s387&#45;&gt;s388 -->
<g id="edge14" class="edge">
<title>s387&#45;&gt;s388</title>
<path fill="none" stroke="#000000" d="M2152.6623,-225.4156C2171.5755,-225.4156 2197.0165,-225.4156 2219.4675,-225.4156"/>
<polygon fill="#000000" stroke="#000000" points="2219.5382,-228.9157 2229.5382,-225.4156 2219.5381,-221.9157 2219.5382,-228.9157"/>
</g>
<!-- s389 -->
<g id="node17" class="node">
<title>s389</title>
<g id="a_node17"><a xlink:href="rust-grammar.json.attribute_item.dot.svg" xlink:title="s389 SYMBOL\nattribute_item">
<ellipse fill="none" stroke="#000000" cx="2423.2282" cy="-225.4156" rx="73.9667" ry="29.3315"/>
<text text-anchor="middle" x="2423.2282" y="-229.6156" font-family="Times,serif" font-size="14.00" fill="#000000">s389 SYMBOL</text>
<text text-anchor="middle" x="2423.2282" y="-212.8156" font-family="Times,serif" font-size="14.00" fill="#000000">attribute_item</text>
</a>
</g>
</g>
<!-- s388&#45;&gt;s389 -->
<g id="edge12" class="edge">
<title>s388&#45;&gt;s389</title>
<path fill="none" stroke="#000000" d="M2312.6358,-219.3248C2321.5183,-218.961 2331.1968,-218.7477 2341.0122,-218.6851"/>
<polygon fill="#000000" stroke="#000000" points="2341.2665,-222.185 2351.2628,-218.6745 2341.2592,-215.185 2341.2665,-222.185"/>
</g>
<!-- s389&#45;&gt;s388 -->
<g id="edge13" class="edge">
<title>s389&#45;&gt;s388</title>
<path fill="none" stroke="#000000" d="M2351.2628,-232.1568C2341.6388,-232.198 2331.9266,-232.0948 2322.7445,-231.8473"/>
<polygon fill="#000000" stroke="#000000" points="2322.7481,-228.3455 2312.6358,-231.5065 2322.5121,-235.3415 2322.7481,-228.3455"/>
</g>
<!-- s390 -->
<g id="node18" class="node">
<title>s390</title>
<polygon fill="none" stroke="#000000" points="2533.9612,-200.6156 2533.9612,-250.2156 2635.5608,-250.2156 2635.5608,-200.6156 2533.9612,-200.6156"/>
<text text-anchor="middle" x="2575.011" y="-229.6156" font-family="Times,serif" font-size="14.00" fill="#000000">s390</text>
<text text-anchor="middle" x="2575.011" y="-212.8156" font-family="Times,serif" font-size="14.00" fill="#000000">→ CHOICE</text>
<polyline fill="none" stroke="#000000" points="2616.0608,-200.6156 2616.0608,-250.2156 "/>
<text text-anchor="middle" x="2625.8108" y="-233.6156" font-family="Times,serif" font-size="14.00" fill="#000000"> </text>
<polyline fill="none" stroke="#000000" points="2616.0608,-225.4156 2635.5608,-225.4156 "/>
<text text-anchor="middle" x="2625.8108" y="-208.8156" font-family="Times,serif" font-size="14.00" fill="#000000"> </text>
</g>
<!-- s389&#45;&gt;s390 -->
<g id="edge17" class="edge">
<title>s389&#45;&gt;s390</title>
<path fill="none" stroke="#000000" d="M2497.3758,-225.4156C2506.1024,-225.4156 2514.9328,-225.4156 2523.4558,-225.4156"/>
<polygon fill="#000000" stroke="#000000" points="2523.6718,-228.9157 2533.6718,-225.4156 2523.6717,-221.9157 2523.6718,-228.9157"/>
</g>
<!-- s391 -->
<g id="node19" class="node">
<title>s391</title>
<g id="a_node19"><a xlink:href="rust-grammar.json.visibility_modifier.dot.svg" xlink:title="s391 SYMBOL\nvisibility_modifier">
<ellipse fill="none" stroke="#000000" cx="2862.1135" cy="-264.4156" rx="85.6139" ry="29.3315"/>
<text text-anchor="middle" x="2862.1135" y="-268.6156" font-family="Times,serif" font-size="14.00" fill="#000000">s391 SYMBOL</text>
<text text-anchor="middle" x="2862.1135" y="-251.8156" font-family="Times,serif" font-size="14.00" fill="#000000">visibility_modifier</text>
</a>
</g>
</g>
<!-- s390&#45;&gt;s391 -->
<g id="edge15" class="edge">
<title>s390:p0&#45;&gt;s391</title>
<path fill="none" stroke="#000000" d="M2635.5608,-237.4156C2682.2241,-237.4156 2733.9162,-243.1333 2776.1273,-249.3063"/>
<polygon fill="#000000" stroke="#000000" points="2775.6811,-252.7784 2786.089,-250.797 2776.7172,-245.8555 2775.6811,-252.7784"/>
<text text-anchor="middle" x="2706.0587" y="-249.6156" font-family="Times,serif" font-size="14.00" fill="#000000">visibility_modifier</text>
</g>
<!-- s392 -->
<g id="node20" class="node">
<title>s392</title>
<ellipse fill="none" stroke="#000000" cx="2862.1135" cy="-187.4156" rx="45.3054" ry="29.3315"/>
<text text-anchor="middle" x="2862.1135" y="-191.6156" font-family="Times,serif" font-size="14.00" fill="#000000">s392 </text>
<text text-anchor="middle" x="2862.1135" y="-174.8156" font-family="Times,serif" font-size="14.00" fill="#000000">BLANK</text>
</g>
<!-- s390&#45;&gt;s392 -->
<g id="edge16" class="edge">
<title>s390:p1&#45;&gt;s392</title>
<path fill="none" stroke="#000000" d="M2635.5608,-213.4156C2694.8193,-213.4156 2762.2314,-204.5273 2808.0045,-197.1445"/>
<polygon fill="#000000" stroke="#000000" points="2808.7063,-200.5761 2818.0058,-195.4997 2807.5704,-193.6689 2808.7063,-200.5761"/>
</g>
<!-- s393 -->
<g id="node21" class="node">
<title>s393</title>
<g id="a_node21"><a xlink:href="rust-grammar.json._type.dot.svg" xlink:title="s393 SYMBOL\n_type">
<ellipse fill="none" stroke="#000000" cx="3058.4034" cy="-225.4156" rx="73.9667" ry="29.3315"/>
<text text-anchor="middle" x="3058.4034" y="-229.6156" font-family="Times,serif" font-size="14.00" fill="#000000">s393 SYMBOL</text>
<text text-anchor="middle" x="3058.4034" y="-212.8156" font-family="Times,serif" font-size="14.00" fill="#000000">_type</text>
</a>
</g>
</g>
<!-- s391&#45;&gt;s393 -->
<g id="edge18" class="edge">
<title>s391&#45;&gt;s393</title>
<path fill="none" stroke="#000000" d="M2936.3223,-249.6714C2951.3731,-246.681 2967.2238,-243.5317 2982.3377,-240.5288"/>
<polygon fill="#000000" stroke="#000000" points="2983.0213,-243.9615 2992.1475,-238.5798 2981.6571,-237.0957 2983.0213,-243.9615"/>
</g>
<!-- s392&#45;&gt;s393 -->
<g id="edge19" class="edge">
<title>s392&#45;&gt;s393</title>
<path fill="none" stroke="#000000" d="M2905.6766,-195.8491C2928.0118,-200.173 2955.8768,-205.5674 2981.6682,-210.5604"/>
<polygon fill="#000000" stroke="#000000" points="2981.3287,-214.0596 2991.8117,-212.5241 2982.6592,-207.1872 2981.3287,-214.0596"/>
</g>
<!-- s394&#45;&gt;s395 -->
<g id="edge30" class="edge">
<title>s394&#45;&gt;s395</title>
<path fill="none" stroke="#000000" d="M570.8293,-94.4156C597.818,-94.4156 632.7046,-94.4156 663.688,-94.4156 663.688,-94.4156 663.688,-94.4156 1663.1547,-94.4156 1685.4303,-94.4156 1709.8656,-94.4156 1731.4354,-94.4156"/>
<polygon fill="#000000" stroke="#000000" points="1731.448,-97.9157 1741.4479,-94.4156 1731.4479,-90.9157 1731.448,-97.9157"/>
</g>
<!-- s396 -->
<g id="node24" class="node">
<title>s396</title>
<ellipse fill="none" stroke="#000000" cx="1950.9249" cy="-106.4156" rx="68.4585" ry="29.3315"/>
<text text-anchor="middle" x="1950.9249" y="-110.6156" font-family="Times,serif" font-size="14.00" fill="#000000">s396 STRING</text>
<text text-anchor="middle" x="1950.9249" y="-93.8156" font-family="Times,serif" font-size="14.00" fill="#000000">&quot;,&quot;</text>
</g>
<!-- s395&#45;&gt;s396 -->
<g id="edge27" class="edge">
<title>s395:p0&#45;&gt;s396</title>
<path fill="none" stroke="#000000" d="M1843.1961,-106.4156C1852.6352,-106.4156 1862.5396,-106.4156 1872.3588,-106.4156"/>
<polygon fill="#000000" stroke="#000000" points="1872.5377,-109.9157 1882.5377,-106.4156 1872.5377,-102.9157 1872.5377,-109.9157"/>
<text text-anchor="middle" x="1862.9461" y="-110.6156" font-family="Times,serif" font-size="14.00" fill="#000000">,</text>
</g>
<!-- s397 -->
<g id="node25" class="node">
<title>s397</title>
<ellipse fill="none" stroke="#000000" cx="1950.9249" cy="-29.4156" rx="45.3054" ry="29.3315"/>
<text text-anchor="middle" x="1950.9249" y="-33.6156" font-family="Times,serif" font-size="14.00" fill="#000000">s397 </text>
<text text-anchor="middle" x="1950.9249" y="-16.8156" font-family="Times,serif" font-size="14.00" fill="#000000">BLANK</text>
</g>
<!-- s395&#45;&gt;s397 -->
<g id="edge28" class="edge">
<title>s395:p1&#45;&gt;s397</title>
<path fill="none" stroke="#000000" d="M1833.3963,-69.4156C1833.3963,-40.8528 1864.89,-31.1427 1895.2717,-28.4208"/>
<polygon fill="#000000" stroke="#000000" points="1895.7368,-31.8978 1905.4853,-27.7485 1895.277,-24.913 1895.7368,-31.8978"/>
</g>
<!-- s398 -->
<g id="node26" class="node">
<title>s398</title>
<ellipse fill="none" stroke="#000000" cx="2124.3827" cy="-68.4156" rx="68.4585" ry="29.3315"/>
<text text-anchor="middle" x="2124.3827" y="-72.6156" font-family="Times,serif" font-size="14.00" fill="#000000">s398 STRING</text>
<text text-anchor="middle" x="2124.3827" y="-55.8156" font-family="Times,serif" font-size="14.00" fill="#000000">&quot;)&quot;</text>
</g>
<!-- s396&#45;&gt;s398 -->
<g id="edge31" class="edge">
<title>s396&#45;&gt;s398</title>
<path fill="none" stroke="#000000" d="M2012.0797,-93.0183C2025.5011,-90.078 2039.8198,-86.9411 2053.5842,-83.9257"/>
<polygon fill="#000000" stroke="#000000" points="2054.4687,-87.315 2063.4881,-81.756 2052.9707,-80.4772 2054.4687,-87.315"/>
</g>
<!-- s397&#45;&gt;s398 -->
<g id="edge32" class="edge">
<title>s397&#45;&gt;s398</title>
<path fill="none" stroke="#000000" d="M1994.2482,-39.1564C2012.2712,-43.2087 2033.6637,-48.0185 2053.8437,-52.5558"/>
<polygon fill="#000000" stroke="#000000" points="2053.1086,-55.9778 2063.6328,-54.7567 2054.6441,-49.1483 2053.1086,-55.9778"/>
</g>
</g>
</svg>
