<?xml version="1.0" encoding="UTF-8" standalone="no"?>
<!DOCTYPE svg PUBLIC "-//W3C//DTD SVG 1.1//EN"
 "http://www.w3.org/Graphics/SVG/1.1/DTD/svg11.dtd">
<!-- Generated by graphviz version 2.40.1 (20161225.0304)
 -->
<!-- Title: function_item Pages: 1 -->
<svg width="3407pt" height="160pt"
 viewBox="0.00 0.00 3406.77 159.83" xmlns="http://www.w3.org/2000/svg" xmlns:xlink="http://www.w3.org/1999/xlink">
<g id="graph0" class="graph" transform="scale(1 1) rotate(0) translate(4 155.8313)">
<title>function_item</title>
<polygon fill="#ffffff" stroke="transparent" points="-4,4 -4,-155.8313 3402.774,-155.8313 3402.774,4 -4,4"/>
<!-- s458 -->
<g id="node1" class="node">
<title>s458</title>
<polygon fill="none" stroke="#000000" points="0,-46.6156 0,-88.2156 56.4418,-88.2156 56.4418,-46.6156 0,-46.6156"/>
<text text-anchor="middle" x="28.2209" y="-71.6156" font-family="Times,serif" font-size="14.00" fill="#000000">s458</text>
<text text-anchor="middle" x="28.2209" y="-54.8156" font-family="Times,serif" font-size="14.00" fill="#000000">→ SEQ</text>
</g>
<!-- s459 -->
<g id="node2" class="node">
<title>s459</title>
<polygon fill="none" stroke="#000000" points="93.4418,-42.6156 93.4418,-92.2156 195.0414,-92.2156 195.0414,-42.6156 93.4418,-42.6156"/>
<text text-anchor="middle" x="134.4916" y="-71.6156" font-family="Times,serif" font-size="14.00" fill="#000000">s459</text>
<text text-anchor="middle" x="134.4916" y="-54.8156" font-family="Times,serif" font-size="14.00" fill="#000000">→ CHOICE</text>
<polyline fill="none" stroke="#000000" points="175.5414,-42.6156 175.5414,-92.2156 "/>
<text text-anchor="middle" x="185.2914" y="-75.6156" font-family="Times,serif" font-size="14.00" fill="#000000"> </text>
<polyline fill="none" stroke="#000000" points="175.5414,-67.4156 195.0414,-67.4156 "/>
<text text-anchor="middle" x="185.2914" y="-50.8156" font-family="Times,serif" font-size="14.00" fill="#000000"> </text>
</g>
<!-- s458&#45;&gt;s459 -->
<g id="edge3" class="edge">
<title>s458&#45;&gt;s459</title>
<path fill="none" stroke="#000000" d="M56.6028,-67.4156C64.6824,-67.4156 73.8102,-67.4156 83.0459,-67.4156"/>
<polygon fill="#000000" stroke="#000000" points="83.0657,-70.9157 93.0657,-67.4156 83.0656,-63.9157 83.0657,-70.9157"/>
</g>
<!-- s460 -->
<g id="node3" class="node">
<title>s460</title>
<g id="a_node3"><a xlink:href="rust-grammar.json.visibility_modifier.dot.svg" xlink:title="s460 SYMBOL\nvisibility_modifier">
<ellipse fill="none" stroke="#000000" cx="421.5942" cy="-106.4156" rx="85.6139" ry="29.3315"/>
<text text-anchor="middle" x="421.5942" y="-110.6156" font-family="Times,serif" font-size="14.00" fill="#000000">s460 SYMBOL</text>
<text text-anchor="middle" x="421.5942" y="-93.8156" font-family="Times,serif" font-size="14.00" fill="#000000">visibility_modifier</text>
</a>
</g>
</g>
<!-- s459&#45;&gt;s460 -->
<g id="edge1" class="edge">
<title>s459:p0&#45;&gt;s460</title>
<path fill="none" stroke="#000000" d="M195.0414,-79.4156C241.7047,-79.4156 293.3969,-85.1333 335.6079,-91.3063"/>
<polygon fill="#000000" stroke="#000000" points="335.1618,-94.7784 345.5697,-92.797 336.1978,-87.8555 335.1618,-94.7784"/>
<text text-anchor="middle" x="265.5393" y="-91.6156" font-family="Times,serif" font-size="14.00" fill="#000000">visibility_modifier</text>
</g>
<!-- s461 -->
<g id="node4" class="node">
<title>s461</title>
<ellipse fill="none" stroke="#000000" cx="421.5942" cy="-29.4156" rx="45.3054" ry="29.3315"/>
<text text-anchor="middle" x="421.5942" y="-33.6156" font-family="Times,serif" font-size="14.00" fill="#000000">s461 </text>
<text text-anchor="middle" x="421.5942" y="-16.8156" font-family="Times,serif" font-size="14.00" fill="#000000">BLANK</text>
</g>
<!-- s459&#45;&gt;s461 -->
<g id="edge2" class="edge">
<title>s459:p1&#45;&gt;s461</title>
<path fill="none" stroke="#000000" d="M195.0414,-55.4156C254.3,-55.4156 321.7121,-46.5273 367.4852,-39.1445"/>
<polygon fill="#000000" stroke="#000000" points="368.187,-42.5761 377.4865,-37.4997 367.051,-35.6689 368.187,-42.5761"/>
</g>
<!-- s462 -->
<g id="node5" class="node">
<title>s462</title>
<polygon fill="none" stroke="#000000" points="544.1511,-49.6156 544.1511,-99.2156 645.7507,-99.2156 645.7507,-49.6156 544.1511,-49.6156"/>
<text text-anchor="middle" x="585.2009" y="-78.6156" font-family="Times,serif" font-size="14.00" fill="#000000">s462</text>
<text text-anchor="middle" x="585.2009" y="-61.8156" font-family="Times,serif" font-size="14.00" fill="#000000">→ CHOICE</text>
<polyline fill="none" stroke="#000000" points="626.2507,-49.6156 626.2507,-99.2156 "/>
<text text-anchor="middle" x="636.0007" y="-82.6156" font-family="Times,serif" font-size="14.00" fill="#000000"> </text>
<polyline fill="none" stroke="#000000" points="626.2507,-74.4156 645.7507,-74.4156 "/>
<text text-anchor="middle" x="636.0007" y="-57.8156" font-family="Times,serif" font-size="14.00" fill="#000000"> </text>
</g>
<!-- s460&#45;&gt;s462 -->
<g id="edge6" class="edge">
<title>s460&#45;&gt;s462</title>
<path fill="none" stroke="#000000" d="M497.1266,-92.4731C509.5299,-90.1835 522.2428,-87.8369 534.2265,-85.6248"/>
<polygon fill="#000000" stroke="#000000" points="534.9,-89.0597 544.0985,-83.8025 533.6293,-82.176 534.9,-89.0597"/>
</g>
<!-- s461&#45;&gt;s462 -->
<g id="edge7" class="edge">
<title>s461&#45;&gt;s462</title>
<path fill="none" stroke="#000000" d="M464.002,-40.4239C485.1397,-45.9108 511.0789,-52.6441 534.2788,-58.6664"/>
<polygon fill="#000000" stroke="#000000" points="533.4733,-62.0732 544.0319,-61.1981 535.2321,-55.2977 533.4733,-62.0732"/>
</g>
<!-- s463 -->
<g id="node6" class="node">
<title>s463</title>
<g id="a_node6"><a xlink:href="rust-grammar.json.function_modifiers.dot.svg" xlink:title="s463 SYMBOL\nfunction_modifiers">
<ellipse fill="none" stroke="#000000" cx="876.2516" cy="-113.4156" rx="87.3851" ry="29.3315"/>
<text text-anchor="middle" x="876.2516" y="-117.6156" font-family="Times,serif" font-size="14.00" fill="#000000">s463 SYMBOL</text>
<text text-anchor="middle" x="876.2516" y="-100.8156" font-family="Times,serif" font-size="14.00" fill="#000000">function_modifiers</text>
</a>
</g>
</g>
<!-- s462&#45;&gt;s463 -->
<g id="edge4" class="edge">
<title>s462:p0&#45;&gt;s463</title>
<path fill="none" stroke="#000000" d="M645.7507,-86.4156C693.2159,-86.4156 745.8081,-92.1333 788.7571,-98.3063"/>
<polygon fill="#000000" stroke="#000000" points="788.4902,-101.8046 798.893,-99.797 789.5088,-94.8791 788.4902,-101.8046"/>
<text text-anchor="middle" x="717.405" y="-98.6156" font-family="Times,serif" font-size="14.00" fill="#000000">function_modifiers</text>
</g>
<!-- s464 -->
<g id="node7" class="node">
<title>s464</title>
<ellipse fill="none" stroke="#000000" cx="876.2516" cy="-36.4156" rx="45.3054" ry="29.3315"/>
<text text-anchor="middle" x="876.2516" y="-40.6156" font-family="Times,serif" font-size="14.00" fill="#000000">s464 </text>
<text text-anchor="middle" x="876.2516" y="-23.8156" font-family="Times,serif" font-size="14.00" fill="#000000">BLANK</text>
</g>
<!-- s462&#45;&gt;s464 -->
<g id="edge5" class="edge">
<title>s462:p1&#45;&gt;s464</title>
<path fill="none" stroke="#000000" d="M645.7507,-62.4156C706.5305,-62.4156 775.7604,-53.3787 822.3514,-45.9604"/>
<polygon fill="#000000" stroke="#000000" points="822.919,-49.4142 832.2294,-44.3578 821.7979,-42.5045 822.919,-49.4142"/>
</g>
<!-- s465 -->
<g id="node8" class="node">
<title>s465</title>
<ellipse fill="none" stroke="#000000" cx="1068.6729" cy="-74.4156" rx="68.4585" ry="29.3315"/>
<text text-anchor="middle" x="1068.6729" y="-78.6156" font-family="Times,serif" font-size="14.00" fill="#000000">s465 STRING</text>
<text text-anchor="middle" x="1068.6729" y="-61.8156" font-family="Times,serif" font-size="14.00" fill="#000000">&quot;fn&quot;</text>
</g>
<!-- s463&#45;&gt;s465 -->
<g id="edge8" class="edge">
<title>s463&#45;&gt;s465</title>
<path fill="none" stroke="#000000" d="M951.1977,-98.2256C966.1163,-95.2019 981.7529,-92.0326 996.5735,-89.0288"/>
<polygon fill="#000000" stroke="#000000" points="997.5794,-92.3961 1006.6848,-86.9794 996.1888,-85.5356 997.5794,-92.3961"/>
</g>
<!-- s464&#45;&gt;s465 -->
<g id="edge9" class="edge">
<title>s464&#45;&gt;s465</title>
<path fill="none" stroke="#000000" d="M919.915,-45.0384C942.5274,-49.504 970.7262,-55.0728 996.4739,-60.1575"/>
<polygon fill="#000000" stroke="#000000" points="996.0904,-63.6493 1006.579,-62.1531 997.4466,-56.782 996.0904,-63.6493"/>
</g>
<!-- s466 -->
<g id="node9" class="node">
<title>s466</title>
<polygon fill="none" stroke="#000000" points="1173.9017,-49.6156 1173.9017,-99.2156 1275.5013,-99.2156 1275.5013,-49.6156 1173.9017,-49.6156"/>
<text text-anchor="middle" x="1214.9515" y="-78.6156" font-family="Times,serif" font-size="14.00" fill="#000000">s466</text>
<text text-anchor="middle" x="1214.9515" y="-61.8156" font-family="Times,serif" font-size="14.00" fill="#000000">→ CHOICE</text>
<polyline fill="none" stroke="#000000" points="1256.0013,-49.6156 1256.0013,-99.2156 "/>
<text text-anchor="middle" x="1265.7513" y="-82.6156" font-family="Times,serif" font-size="14.00" fill="#000000"> </text>
<polyline fill="none" stroke="#000000" points="1256.0013,-74.4156 1275.5013,-74.4156 "/>
<text text-anchor="middle" x="1265.7513" y="-57.8156" font-family="Times,serif" font-size="14.00" fill="#000000"> </text>
</g>
<!-- s465&#45;&gt;s466 -->
<g id="edge12" class="edge">
<title>s465&#45;&gt;s466</title>
<path fill="none" stroke="#000000" d="M1137.1093,-74.4156C1145.9371,-74.4156 1154.931,-74.4156 1163.6296,-74.4156"/>
<polygon fill="#000000" stroke="#000000" points="1163.6778,-77.9157 1173.6777,-74.4156 1163.6777,-70.9157 1163.6778,-77.9157"/>
</g>
<!-- s467 -->
<g id="node10" class="node">
<title>s467</title>
<g id="a_node10"><a xlink:href="rust-grammar.json.identifier.dot.svg" xlink:title="s467 SYMBOL\nidentifier">
<ellipse fill="none" stroke="#000000" cx="1457.5303" cy="-113.4156" rx="73.9667" ry="29.3315"/>
<text text-anchor="middle" x="1457.5303" y="-117.6156" font-family="Times,serif" font-size="14.00" fill="#000000">s467 SYMBOL</text>
<text text-anchor="middle" x="1457.5303" y="-100.8156" font-family="Times,serif" font-size="14.00" fill="#000000">identifier</text>
</a>
</g>
</g>
<!-- s466&#45;&gt;s467 -->
<g id="edge10" class="edge">
<title>s466:p0&#45;&gt;s467</title>
<path fill="none" stroke="#000000" d="M1275.5013,-86.4156C1311.1134,-86.4156 1350.2244,-91.5347 1383.0355,-97.3149"/>
<polygon fill="#000000" stroke="#000000" points="1382.5408,-100.7822 1393.0052,-99.125 1383.7913,-93.8948 1382.5408,-100.7822"/>
<text text-anchor="middle" x="1329.6493" y="-97.6156" font-family="Times,serif" font-size="14.00" fill="#000000">identifier</text>
</g>
<!-- s468 -->
<g id="node11" class="node">
<title>s468</title>
<g id="a_node11"><a xlink:href="rust-grammar.json.metavariable.dot.svg" xlink:title="s468 SYMBOL\nmetavariable">
<ellipse fill="none" stroke="#000000" cx="1457.5303" cy="-36.4156" rx="73.9667" ry="29.3315"/>
<text text-anchor="middle" x="1457.5303" y="-40.6156" font-family="Times,serif" font-size="14.00" fill="#000000">s468 SYMBOL</text>
<text text-anchor="middle" x="1457.5303" y="-23.8156" font-family="Times,serif" font-size="14.00" fill="#000000">metavariable</text>
</a>
</g>
</g>
<!-- s466&#45;&gt;s468 -->
<g id="edge11" class="edge">
<title>s466:p1&#45;&gt;s468</title>
<path fill="none" stroke="#000000" d="M1275.5013,-62.4156C1310.7962,-62.4156 1349.5573,-57.566 1382.2072,-52.0557"/>
<polygon fill="#000000" stroke="#000000" points="1382.881,-55.4911 1392.1332,-50.329 1381.6813,-48.5947 1382.881,-55.4911"/>
<text text-anchor="middle" x="1329.6493" y="-65.6156" font-family="Times,serif" font-size="14.00" fill="#000000">metavariable</text>
</g>
<!-- s469 -->
<g id="node12" class="node">
<title>s469</title>
<polygon fill="none" stroke="#000000" points="1568.2633,-56.6156 1568.2633,-106.2156 1669.8629,-106.2156 1669.8629,-56.6156 1568.2633,-56.6156"/>
<text text-anchor="middle" x="1609.3131" y="-85.6156" font-family="Times,serif" font-size="14.00" fill="#000000">s469</text>
<text text-anchor="middle" x="1609.3131" y="-68.8156" font-family="Times,serif" font-size="14.00" fill="#000000">→ CHOICE</text>
<polyline fill="none" stroke="#000000" points="1650.3629,-56.6156 1650.3629,-106.2156 "/>
<text text-anchor="middle" x="1660.1129" y="-89.6156" font-family="Times,serif" font-size="14.00" fill="#000000"> </text>
<polyline fill="none" stroke="#000000" points="1650.3629,-81.4156 1669.8629,-81.4156 "/>
<text text-anchor="middle" x="1660.1129" y="-64.8156" font-family="Times,serif" font-size="14.00" fill="#000000"> </text>
</g>
<!-- s467&#45;&gt;s469 -->
<g id="edge15" class="edge">
<title>s467&#45;&gt;s469</title>
<path fill="none" stroke="#000000" d="M1523.698,-100.3077C1535.0382,-98.0612 1546.7757,-95.736 1557.9755,-93.5172"/>
<polygon fill="#000000" stroke="#000000" points="1558.9539,-96.8915 1568.0831,-91.5149 1557.5935,-90.025 1558.9539,-96.8915"/>
</g>
<!-- s468&#45;&gt;s469 -->
<g id="edge16" class="edge">
<title>s468&#45;&gt;s469</title>
<path fill="none" stroke="#000000" d="M1518.1388,-53.3C1531.265,-56.9567 1545.1501,-60.8249 1558.283,-64.4834"/>
<polygon fill="#000000" stroke="#000000" points="1557.5816,-67.9213 1568.1541,-67.2333 1559.4602,-61.178 1557.5816,-67.9213"/>
</g>
<!-- s470 -->
<g id="node13" class="node">
<title>s470</title>
<g id="a_node13"><a xlink:href="rust-grammar.json.type_parameters.dot.svg" xlink:title="s470 SYMBOL\ntype_parameters">
<ellipse fill="none" stroke="#000000" cx="1875.1021" cy="-120.4156" rx="76.9578" ry="29.3315"/>
<text text-anchor="middle" x="1875.1021" y="-124.6156" font-family="Times,serif" font-size="14.00" fill="#000000">s470 SYMBOL</text>
<text text-anchor="middle" x="1875.1021" y="-107.8156" font-family="Times,serif" font-size="14.00" fill="#000000">type_parameters</text>
</a>
</g>
</g>
<!-- s469&#45;&gt;s470 -->
<g id="edge13" class="edge">
<title>s469:p0&#45;&gt;s470</title>
<path fill="none" stroke="#000000" d="M1669.8629,-93.4156C1711.9261,-93.4156 1758.4273,-99.0593 1796.5163,-105.1861"/>
<polygon fill="#000000" stroke="#000000" points="1796.0803,-108.6614 1806.5167,-106.8365 1797.2201,-101.7549 1796.0803,-108.6614"/>
<text text-anchor="middle" x="1734.1182" y="-105.6156" font-family="Times,serif" font-size="14.00" fill="#000000">type_parameters</text>
</g>
<!-- s471 -->
<g id="node14" class="node">
<title>s471</title>
<ellipse fill="none" stroke="#000000" cx="1875.1021" cy="-43.4156" rx="45.3054" ry="29.3315"/>
<text text-anchor="middle" x="1875.1021" y="-47.6156" font-family="Times,serif" font-size="14.00" fill="#000000">s471 </text>
<text text-anchor="middle" x="1875.1021" y="-30.8156" font-family="Times,serif" font-size="14.00" fill="#000000">BLANK</text>
</g>
<!-- s469&#45;&gt;s471 -->
<g id="edge14" class="edge">
<title>s469:p1&#45;&gt;s471</title>
<path fill="none" stroke="#000000" d="M1669.8629,-69.4156C1721.7908,-69.4156 1780.5272,-61.1228 1821.819,-53.904"/>
<polygon fill="#000000" stroke="#000000" points="1822.4347,-57.3495 1831.6635,-52.1456 1821.2038,-50.4586 1822.4347,-57.3495"/>
</g>
<!-- s472 -->
<g id="node15" class="node">
<title>s472</title>
<g id="a_node15"><a xlink:href="rust-grammar.json.parameters.dot.svg" xlink:title="s472 SYMBOL\nparameters">
<ellipse fill="none" stroke="#000000" cx="2062.5637" cy="-81.4156" rx="73.9667" ry="29.3315"/>
<text text-anchor="middle" x="2062.5637" y="-85.6156" font-family="Times,serif" font-size="14.00" fill="#000000">s472 SYMBOL</text>
<text text-anchor="middle" x="2062.5637" y="-68.8156" font-family="Times,serif" font-size="14.00" fill="#000000">parameters</text>
</a>
</g>
</g>
<!-- s470&#45;&gt;s472 -->
<g id="edge17" class="edge">
<title>s470&#45;&gt;s472</title>
<path fill="none" stroke="#000000" d="M1942.78,-106.3357C1957.1807,-103.3398 1972.4727,-100.1584 1987.142,-97.1066"/>
<polygon fill="#000000" stroke="#000000" points="1988.1022,-100.4818 1997.1797,-95.0183 1986.6764,-93.6286 1988.1022,-100.4818"/>
</g>
<!-- s471&#45;&gt;s472 -->
<g id="edge18" class="edge">
<title>s471&#45;&gt;s472</title>
<path fill="none" stroke="#000000" d="M1918.5808,-52.2291C1938.8338,-56.3346 1963.531,-61.3409 1986.7128,-66.04"/>
<polygon fill="#000000" stroke="#000000" points="1986.0416,-69.4751 1996.5377,-68.0316 1987.4324,-62.6146 1986.0416,-69.4751"/>
</g>
<!-- s473 -->
<g id="node16" class="node">
<title>s473</title>
<polygon fill="none" stroke="#000000" points="2173.2967,-56.6156 2173.2967,-106.2156 2274.8963,-106.2156 2274.8963,-56.6156 2173.2967,-56.6156"/>
<text text-anchor="middle" x="2214.3465" y="-85.6156" font-family="Times,serif" font-size="14.00" fill="#000000">s473</text>
<text text-anchor="middle" x="2214.3465" y="-68.8156" font-family="Times,serif" font-size="14.00" fill="#000000">→ CHOICE</text>
<polyline fill="none" stroke="#000000" points="2255.3963,-56.6156 2255.3963,-106.2156 "/>
<text text-anchor="middle" x="2265.1463" y="-89.6156" font-family="Times,serif" font-size="14.00" fill="#000000"> </text>
<polyline fill="none" stroke="#000000" points="2255.3963,-81.4156 2274.8963,-81.4156 "/>
<text text-anchor="middle" x="2265.1463" y="-64.8156" font-family="Times,serif" font-size="14.00" fill="#000000"> </text>
</g>
<!-- s472&#45;&gt;s473 -->
<g id="edge23" class="edge">
<title>s472&#45;&gt;s473</title>
<path fill="none" stroke="#000000" d="M2136.7113,-81.4156C2145.438,-81.4156 2154.2683,-81.4156 2162.7913,-81.4156"/>
<polygon fill="#000000" stroke="#000000" points="2163.0073,-84.9157 2173.0073,-81.4156 2163.0073,-77.9157 2163.0073,-84.9157"/>
</g>
<!-- s474 -->
<g id="node17" class="node">
<title>s474</title>
<polygon fill="none" stroke="#000000" points="2311.8963,-98.6156 2311.8963,-140.2156 2368.3381,-140.2156 2368.3381,-98.6156 2311.8963,-98.6156"/>
<text text-anchor="middle" x="2340.1172" y="-123.6156" font-family="Times,serif" font-size="14.00" fill="#000000">s474</text>
<text text-anchor="middle" x="2340.1172" y="-106.8156" font-family="Times,serif" font-size="14.00" fill="#000000">→ SEQ</text>
</g>
<!-- s473&#45;&gt;s474 -->
<g id="edge21" class="edge">
<title>s473:p0&#45;&gt;s474</title>
<path fill="none" stroke="#000000" d="M2274.8963,-93.4156C2284.2061,-93.4156 2293.7661,-95.7298 2302.5982,-98.9773"/>
<polygon fill="#000000" stroke="#000000" points="2301.2716,-102.2161 2311.8502,-102.8022 2303.946,-95.7471 2301.2716,-102.2161"/>
</g>
<!-- s477 -->
<g id="node20" class="node">
<title>s477</title>
<ellipse fill="none" stroke="#000000" cx="2431.7407" cy="-65.4156" rx="45.3054" ry="29.3315"/>
<text text-anchor="middle" x="2431.7407" y="-69.6156" font-family="Times,serif" font-size="14.00" fill="#000000">s477 </text>
<text text-anchor="middle" x="2431.7407" y="-52.8156" font-family="Times,serif" font-size="14.00" fill="#000000">BLANK</text>
</g>
<!-- s473&#45;&gt;s477 -->
<g id="edge22" class="edge">
<title>s473:p1&#45;&gt;s477</title>
<path fill="none" stroke="#000000" d="M2274.8963,-69.4156C2308.3995,-69.4156 2345.9151,-68.4923 2375.8536,-67.5328"/>
<polygon fill="#000000" stroke="#000000" points="2376.2295,-71.0224 2386.1082,-67.1934 2375.9978,-64.0262 2376.2295,-71.0224"/>
</g>
<!-- s475 -->
<g id="node18" class="node">
<title>s475</title>
<ellipse fill="none" stroke="#000000" cx="2563.3722" cy="-120.4156" rx="68.4585" ry="29.3315"/>
<text text-anchor="middle" x="2563.3722" y="-124.6156" font-family="Times,serif" font-size="14.00" fill="#000000">s475 STRING</text>
<text text-anchor="middle" x="2563.3722" y="-107.8156" font-family="Times,serif" font-size="14.00" fill="#000000">&quot;&#45;&gt;&quot;</text>
</g>
<!-- s474&#45;&gt;s475 -->
<g id="edge19" class="edge">
<title>s474&#45;&gt;s475</title>
<path fill="none" stroke="#000000" d="M2368.3926,-119.5423C2397.5976,-119.6731 2444.4878,-119.8831 2484.9658,-120.0644"/>
<polygon fill="#000000" stroke="#000000" points="2485.0884,-123.5649 2495.104,-120.1099 2485.1198,-116.565 2485.0884,-123.5649"/>
</g>
<!-- s476 -->
<g id="node19" class="node">
<title>s476</title>
<g id="a_node19"><a xlink:href="rust-grammar.json._type.dot.svg" xlink:title="s476 SYMBOL\n_type">
<ellipse fill="none" stroke="#000000" cx="2742.3341" cy="-120.4156" rx="73.9667" ry="29.3315"/>
<text text-anchor="middle" x="2742.3341" y="-124.6156" font-family="Times,serif" font-size="14.00" fill="#000000">s476 SYMBOL</text>
<text text-anchor="middle" x="2742.3341" y="-107.8156" font-family="Times,serif" font-size="14.00" fill="#000000">_type</text>
</a>
</g>
</g>
<!-- s475&#45;&gt;s476 -->
<g id="edge20" class="edge">
<title>s475&#45;&gt;s476</title>
<path fill="none" stroke="#000000" d="M2631.796,-120.4156C2640.5427,-120.4156 2649.5739,-120.4156 2658.5289,-120.4156"/>
<polygon fill="#000000" stroke="#000000" points="2658.588,-123.9157 2668.588,-120.4156 2658.5879,-116.9157 2658.588,-123.9157"/>
</g>
<!-- s478 -->
<g id="node21" class="node">
<title>s478</title>
<polygon fill="none" stroke="#000000" points="2853.0671,-58.6156 2853.0671,-108.2156 2954.6667,-108.2156 2954.6667,-58.6156 2853.0671,-58.6156"/>
<text text-anchor="middle" x="2894.1169" y="-87.6156" font-family="Times,serif" font-size="14.00" fill="#000000">s478</text>
<text text-anchor="middle" x="2894.1169" y="-70.8156" font-family="Times,serif" font-size="14.00" fill="#000000">→ CHOICE</text>
<polyline fill="none" stroke="#000000" points="2935.1667,-58.6156 2935.1667,-108.2156 "/>
<text text-anchor="middle" x="2944.9167" y="-91.6156" font-family="Times,serif" font-size="14.00" fill="#000000"> </text>
<polyline fill="none" stroke="#000000" points="2935.1667,-83.4156 2954.6667,-83.4156 "/>
<text text-anchor="middle" x="2944.9167" y="-66.8156" font-family="Times,serif" font-size="14.00" fill="#000000"> </text>
</g>
<!-- s476&#45;&gt;s478 -->
<g id="edge26" class="edge">
<title>s476&#45;&gt;s478</title>
<path fill="none" stroke="#000000" d="M2806.6402,-105.6859C2818.6689,-102.9307 2831.2062,-100.059 2843.1229,-97.3294"/>
<polygon fill="#000000" stroke="#000000" points="2843.9961,-100.7201 2852.9621,-95.0757 2842.4331,-93.8968 2843.9961,-100.7201"/>
</g>
<!-- s477&#45;&gt;s478 -->
<g id="edge27" class="edge">
<title>s477&#45;&gt;s478</title>
<path fill="none" stroke="#000000" d="M2477.4391,-67.1579C2562.8442,-70.414 2746.6837,-77.423 2842.6802,-81.0829"/>
<polygon fill="#000000" stroke="#000000" points="2842.6887,-84.5856 2852.8148,-81.4693 2842.9554,-77.5907 2842.6887,-84.5856"/>
</g>
<!-- s479 -->
<g id="node22" class="node">
<title>s479</title>
<g id="a_node22"><a xlink:href="rust-grammar.json.where_clause.dot.svg" xlink:title="s479 SYMBOL\nwhere_clause">
<ellipse fill="none" stroke="#000000" cx="3140.5751" cy="-122.4156" rx="73.9667" ry="29.3315"/>
<text text-anchor="middle" x="3140.5751" y="-126.6156" font-family="Times,serif" font-size="14.00" fill="#000000">s479 SYMBOL</text>
<text text-anchor="middle" x="3140.5751" y="-109.8156" font-family="Times,serif" font-size="14.00" fill="#000000">where_clause</text>
</a>
</g>
</g>
<!-- s478&#45;&gt;s479 -->
<g id="edge24" class="edge">
<title>s478:p0&#45;&gt;s479</title>
<path fill="none" stroke="#000000" d="M2954.6667,-95.4156C2991.3171,-95.4156 3031.6137,-100.6183 3065.2933,-106.456"/>
<polygon fill="#000000" stroke="#000000" points="3065.0621,-109.97 3075.5217,-108.283 3066.293,-103.0791 3065.0621,-109.97"/>
<text text-anchor="middle" x="3010.7544" y="-106.6156" font-family="Times,serif" font-size="14.00" fill="#000000">where_clause</text>
</g>
<!-- s480 -->
<g id="node23" class="node">
<title>s480</title>
<ellipse fill="none" stroke="#000000" cx="3140.5751" cy="-45.4156" rx="45.3054" ry="29.3315"/>
<text text-anchor="middle" x="3140.5751" y="-49.6156" font-family="Times,serif" font-size="14.00" fill="#000000">s480 </text>
<text text-anchor="middle" x="3140.5751" y="-32.8156" font-family="Times,serif" font-size="14.00" fill="#000000">BLANK</text>
</g>
<!-- s478&#45;&gt;s480 -->
<g id="edge25" class="edge">
<title>s478:p1&#45;&gt;s480</title>
<path fill="none" stroke="#000000" d="M2954.6667,-71.4156C2999.6483,-71.4156 3050.1671,-63.8578 3087.1766,-56.8918"/>
<polygon fill="#000000" stroke="#000000" points="3088.0856,-60.281 3097.2412,-54.9494 3086.7591,-53.4078 3088.0856,-60.281"/>
</g>
<!-- s481 -->
<g id="node24" class="node">
<title>s481</title>
<g id="a_node24"><a xlink:href="rust-grammar.json.block.dot.svg" xlink:title="s481 SYMBOL\nblock">
<ellipse fill="none" stroke="#000000" cx="3325.041" cy="-83.4156" rx="73.9667" ry="29.3315"/>
<text text-anchor="middle" x="3325.041" y="-87.6156" font-family="Times,serif" font-size="14.00" fill="#000000">s481 SYMBOL</text>
<text text-anchor="middle" x="3325.041" y="-70.8156" font-family="Times,serif" font-size="14.00" fill="#000000">block</text>
</a>
</g>
</g>
<!-- s479&#45;&gt;s481 -->
<g id="edge28" class="edge">
<title>s479&#45;&gt;s481</title>
<path fill="none" stroke="#000000" d="M3205.8705,-108.6108C3220.1019,-105.602 3235.2713,-102.3949 3249.8519,-99.3122"/>
<polygon fill="#000000" stroke="#000000" points="3250.7736,-102.6948 3259.8334,-97.2019 3249.3256,-95.8462 3250.7736,-102.6948"/>
</g>
<!-- s480&#45;&gt;s481 -->
<g id="edge29" class="edge">
<title>s480&#45;&gt;s481</title>
<path fill="none" stroke="#000000" d="M3184.2909,-54.4211C3203.6931,-58.418 3227.0995,-63.2397 3249.2072,-67.7939"/>
<polygon fill="#000000" stroke="#000000" points="3248.7537,-71.2739 3259.2543,-69.8636 3250.1661,-64.4178 3248.7537,-71.2739"/>
</g>
</g>
</svg>
