<?xml version="1.0" encoding="UTF-8" standalone="no"?>
<!DOCTYPE svg PUBLIC "-//W3C//DTD SVG 1.1//EN"
 "http://www.w3.org/Graphics/SVG/1.1/DTD/svg11.dtd">
<!-- Generated by graphviz version 2.40.1 (20161225.0304)
 -->
<!-- Title: comment Pages: 1 -->
<svg width="393pt" height="144pt"
 viewBox="0.00 0.00 393.17 143.83" xmlns="http://www.w3.org/2000/svg" xmlns:xlink="http://www.w3.org/1999/xlink">
<g id="graph0" class="graph" transform="scale(1 1) rotate(0) translate(4 139.8313)">
<title>comment</title>
<polygon fill="#ffffff" stroke="transparent" points="-4,4 -4,-139.8313 389.1713,-139.8313 389.1713,4 -4,4"/>
<!-- s1530 -->
<g id="node1" class="node">
<title>s1530</title>
<polygon fill="none" stroke="#000000" points="0,-42.6156 0,-92.2156 101.5996,-92.2156 101.5996,-42.6156 0,-42.6156"/>
<text text-anchor="middle" x="41.0498" y="-71.6156" font-family="Times,serif" font-size="14.00" fill="#000000">s1530</text>
<text text-anchor="middle" x="41.0498" y="-54.8156" font-family="Times,serif" font-size="14.00" fill="#000000">→ CHOICE</text>
<polyline fill="none" stroke="#000000" points="82.0996,-42.6156 82.0996,-92.2156 "/>
<text text-anchor="middle" x="91.8496" y="-75.6156" font-family="Times,serif" font-size="14.00" fill="#000000"> </text>
<polyline fill="none" stroke="#000000" points="82.0996,-67.4156 101.5996,-67.4156 "/>
<text text-anchor="middle" x="91.8496" y="-50.8156" font-family="Times,serif" font-size="14.00" fill="#000000"> </text>
</g>
<!-- s1531 -->
<g id="node2" class="node">
<title>s1531</title>
<g id="a_node2"><a xlink:href="rust-grammar.json.line_comment.dot.svg" xlink:title="s1531 SYMBOL\nline_comment">
<ellipse fill="none" stroke="#000000" cx="306.4885" cy="-106.4156" rx="78.8659" ry="29.3315"/>
<text text-anchor="middle" x="306.4885" y="-110.6156" font-family="Times,serif" font-size="14.00" fill="#000000">s1531 SYMBOL</text>
<text text-anchor="middle" x="306.4885" y="-93.8156" font-family="Times,serif" font-size="14.00" fill="#000000">line_comment</text>
</a>
</g>
</g>
<!-- s1530&#45;&gt;s1531 -->
<g id="edge1" class="edge">
<title>s1530:p0&#45;&gt;s1531</title>
<path fill="none" stroke="#000000" d="M101.5996,-79.4156C143.0982,-79.4156 188.9225,-84.9273 226.6925,-90.9701"/>
<polygon fill="#000000" stroke="#000000" points="226.1813,-94.433 236.6162,-92.5993 227.3154,-87.5254 226.1813,-94.433"/>
<text text-anchor="middle" x="164.7027" y="-91.6156" font-family="Times,serif" font-size="14.00" fill="#000000">line_comment</text>
</g>
<!-- s1532 -->
<g id="node3" class="node">
<title>s1532</title>
<g id="a_node3"><a xlink:href="rust-grammar.json.block_comment.dot.svg" xlink:title="s1532 SYMBOL\nblock_comment">
<ellipse fill="none" stroke="#000000" cx="306.4885" cy="-29.4156" rx="78.8659" ry="29.3315"/>
<text text-anchor="middle" x="306.4885" y="-33.6156" font-family="Times,serif" font-size="14.00" fill="#000000">s1532 SYMBOL</text>
<text text-anchor="middle" x="306.4885" y="-16.8156" font-family="Times,serif" font-size="14.00" fill="#000000">block_comment</text>
</a>
</g>
</g>
<!-- s1530&#45;&gt;s1532 -->
<g id="edge2" class="edge">
<title>s1530:p1&#45;&gt;s1532</title>
<path fill="none" stroke="#000000" d="M101.5996,-55.4156C142.9078,-55.4156 188.5307,-50.1502 226.2192,-44.3584"/>
<polygon fill="#000000" stroke="#000000" points="226.7913,-47.8115 236.1241,-42.7965 225.7009,-40.8969 226.7913,-47.8115"/>
<text text-anchor="middle" x="164.7027" y="-59.6156" font-family="Times,serif" font-size="14.00" fill="#000000">block_comment</text>
</g>
</g>
</svg>
