<?xml version="1.0" encoding="UTF-8" standalone="no"?>
<!DOCTYPE svg PUBLIC "-//W3C//DTD SVG 1.1//EN"
 "http://www.w3.org/Graphics/SVG/1.1/DTD/svg11.dtd">
<!-- Generated by graphviz version 2.40.1 (20161225.0304)
 -->
<!-- Title: pointer_type Pages: 1 -->
<svg width="862pt" height="144pt"
 viewBox="0.00 0.00 861.72 143.83" xmlns="http://www.w3.org/2000/svg" xmlns:xlink="http://www.w3.org/1999/xlink">
<g id="graph0" class="graph" transform="scale(1 1) rotate(0) translate(4 139.8313)">
<title>pointer_type</title>
<polygon fill="#ffffff" stroke="transparent" points="-4,4 -4,-139.8313 857.7184,-139.8313 857.7184,4 -4,4"/>
<!-- s899 -->
<g id="node1" class="node">
<title>s899</title>
<polygon fill="none" stroke="#000000" points="0,-46.6156 0,-88.2156 56.4418,-88.2156 56.4418,-46.6156 0,-46.6156"/>
<text text-anchor="middle" x="28.2209" y="-71.6156" font-family="Times,serif" font-size="14.00" fill="#000000">s899</text>
<text text-anchor="middle" x="28.2209" y="-54.8156" font-family="Times,serif" font-size="14.00" fill="#000000">→ SEQ</text>
</g>
<!-- s900 -->
<g id="node2" class="node">
<title>s900</title>
<ellipse fill="none" stroke="#000000" cx="161.6707" cy="-67.4156" rx="68.4585" ry="29.3315"/>
<text text-anchor="middle" x="161.6707" y="-71.6156" font-family="Times,serif" font-size="14.00" fill="#000000">s900 STRING</text>
<text text-anchor="middle" x="161.6707" y="-54.8156" font-family="Times,serif" font-size="14.00" fill="#000000">&quot;*&quot;</text>
</g>
<!-- s899&#45;&gt;s900 -->
<g id="edge1" class="edge">
<title>s899&#45;&gt;s900</title>
<path fill="none" stroke="#000000" d="M56.5222,-67.4156C64.5856,-67.4156 73.7846,-67.4156 83.3101,-67.4156"/>
<polygon fill="#000000" stroke="#000000" points="83.321,-70.9157 93.321,-67.4156 83.3209,-63.9157 83.321,-70.9157"/>
</g>
<!-- s901 -->
<g id="node3" class="node">
<title>s901</title>
<polygon fill="none" stroke="#000000" points="266.8995,-42.6156 266.8995,-92.2156 368.4991,-92.2156 368.4991,-42.6156 266.8995,-42.6156"/>
<text text-anchor="middle" x="307.9493" y="-71.6156" font-family="Times,serif" font-size="14.00" fill="#000000">s901</text>
<text text-anchor="middle" x="307.9493" y="-54.8156" font-family="Times,serif" font-size="14.00" fill="#000000">→ CHOICE</text>
<polyline fill="none" stroke="#000000" points="348.9991,-42.6156 348.9991,-92.2156 "/>
<text text-anchor="middle" x="358.7491" y="-75.6156" font-family="Times,serif" font-size="14.00" fill="#000000"> </text>
<polyline fill="none" stroke="#000000" points="348.9991,-67.4156 368.4991,-67.4156 "/>
<text text-anchor="middle" x="358.7491" y="-50.8156" font-family="Times,serif" font-size="14.00" fill="#000000"> </text>
</g>
<!-- s900&#45;&gt;s901 -->
<g id="edge4" class="edge">
<title>s900&#45;&gt;s901</title>
<path fill="none" stroke="#000000" d="M230.1071,-67.4156C238.9349,-67.4156 247.9288,-67.4156 256.6274,-67.4156"/>
<polygon fill="#000000" stroke="#000000" points="256.6756,-70.9157 266.6755,-67.4156 256.6755,-63.9157 256.6756,-70.9157"/>
</g>
<!-- s902 -->
<g id="node4" class="node">
<title>s902</title>
<ellipse fill="none" stroke="#000000" cx="587.0217" cy="-106.4156" rx="68.4585" ry="29.3315"/>
<text text-anchor="middle" x="587.0217" y="-110.6156" font-family="Times,serif" font-size="14.00" fill="#000000">s902 STRING</text>
<text text-anchor="middle" x="587.0217" y="-93.8156" font-family="Times,serif" font-size="14.00" fill="#000000">&quot;const&quot;</text>
</g>
<!-- s901&#45;&gt;s902 -->
<g id="edge2" class="edge">
<title>s901:p0&#45;&gt;s902</title>
<path fill="none" stroke="#000000" d="M368.4991,-79.4156C417.3364,-79.4156 471.8529,-86.1401 514.217,-92.8773"/>
<polygon fill="#000000" stroke="#000000" points="513.7302,-96.3441 524.1623,-94.4945 514.8537,-89.4348 513.7302,-96.3441"/>
<text text-anchor="middle" x="436.645" y="-91.6156" font-family="Times,serif" font-size="14.00" fill="#000000">const</text>
</g>
<!-- s903 -->
<g id="node5" class="node">
<title>s903</title>
<g id="a_node5"><a xlink:href="rust-grammar.json.mutable_specifier.dot.svg" xlink:title="s903 SYMBOL\nmutable_specifier">
<ellipse fill="none" stroke="#000000" cx="587.0217" cy="-29.4156" rx="82.4621" ry="29.3315"/>
<text text-anchor="middle" x="587.0217" y="-33.6156" font-family="Times,serif" font-size="14.00" fill="#000000">s903 SYMBOL</text>
<text text-anchor="middle" x="587.0217" y="-16.8156" font-family="Times,serif" font-size="14.00" fill="#000000">mutable_specifier</text>
</a>
</g>
</g>
<!-- s901&#45;&gt;s903 -->
<g id="edge3" class="edge">
<title>s901:p1&#45;&gt;s903</title>
<path fill="none" stroke="#000000" d="M368.4991,-55.4156C413.2295,-55.4156 462.7516,-49.9776 503.327,-44.0755"/>
<polygon fill="#000000" stroke="#000000" points="504.0668,-47.504 513.4416,-42.568 503.0349,-40.5804 504.0668,-47.504"/>
<text text-anchor="middle" x="436.645" y="-58.6156" font-family="Times,serif" font-size="14.00" fill="#000000">mutable_specifier</text>
</g>
<!-- s904 -->
<g id="node6" class="node">
<title>s904</title>
<g id="a_node6"><a xlink:href="rust-grammar.json._type.dot.svg" xlink:title="s904 SYMBOL\n_type">
<ellipse fill="none" stroke="#000000" cx="779.9854" cy="-67.4156" rx="73.9667" ry="29.3315"/>
<text text-anchor="middle" x="779.9854" y="-71.6156" font-family="Times,serif" font-size="14.00" fill="#000000">s904 SYMBOL</text>
<text text-anchor="middle" x="779.9854" y="-54.8156" font-family="Times,serif" font-size="14.00" fill="#000000">_type</text>
</a>
</g>
</g>
<!-- s902&#45;&gt;s904 -->
<g id="edge5" class="edge">
<title>s902&#45;&gt;s904</title>
<path fill="none" stroke="#000000" d="M648.8728,-93.9149C666.4521,-90.3619 685.7999,-86.4515 704.1092,-82.751"/>
<polygon fill="#000000" stroke="#000000" points="705.0479,-86.1321 714.1564,-80.7204 703.6612,-79.2709 705.0479,-86.1321"/>
</g>
<!-- s903&#45;&gt;s904 -->
<g id="edge6" class="edge">
<title>s903&#45;&gt;s904</title>
<path fill="none" stroke="#000000" d="M659.1486,-43.6195C673.6737,-46.4799 688.9868,-49.4954 703.65,-52.3831"/>
<polygon fill="#000000" stroke="#000000" points="703.1922,-55.86 713.68,-54.3582 704.5447,-48.9919 703.1922,-55.86"/>
</g>
</g>
</svg>
