<?xml version="1.0" encoding="UTF-8" standalone="no"?>
<!DOCTYPE svg PUBLIC "-//W3C//DTD SVG 1.1//EN"
 "http://www.w3.org/Graphics/SVG/1.1/DTD/svg11.dtd">
<!-- Generated by graphviz version 2.40.1 (20161225.0304)
 -->
<!-- Title: use_wildcard Pages: 1 -->
<svg width="593pt" height="67pt"
 viewBox="0.00 0.00 592.82 66.83" xmlns="http://www.w3.org/2000/svg" xmlns:xlink="http://www.w3.org/1999/xlink">
<g id="graph0" class="graph" transform="scale(1 1) rotate(0) translate(4 62.8313)">
<title>use_wildcard</title>
<polygon fill="#ffffff" stroke="transparent" points="-4,4 -4,-62.8313 588.8233,-62.8313 588.8233,4 -4,4"/>
<!-- s703 -->
<g id="node1" class="node">
<title>s703</title>
<polygon fill="none" stroke="#000000" points="0,-8.6156 0,-50.2156 56.4418,-50.2156 56.4418,-8.6156 0,-8.6156"/>
<text text-anchor="middle" x="28.2209" y="-33.6156" font-family="Times,serif" font-size="14.00" fill="#000000">s703</text>
<text text-anchor="middle" x="28.2209" y="-16.8156" font-family="Times,serif" font-size="14.00" fill="#000000">→ SEQ</text>
</g>
<!-- s704 -->
<g id="node2" class="node">
<title>s704</title>
<g id="a_node2"><a xlink:href="rust-grammar.json._path.dot.svg" xlink:title="s704 SYMBOL\n_path">
<ellipse fill="none" stroke="#000000" cx="166.1748" cy="-29.4156" rx="73.9667" ry="29.3315"/>
<text text-anchor="middle" x="166.1748" y="-33.6156" font-family="Times,serif" font-size="14.00" fill="#000000">s704 SYMBOL</text>
<text text-anchor="middle" x="166.1748" y="-16.8156" font-family="Times,serif" font-size="14.00" fill="#000000">_path</text>
</a>
</g>
</g>
<!-- s703&#45;&gt;s704 -->
<g id="edge1" class="edge">
<title>s703&#45;&gt;s704</title>
<path fill="none" stroke="#000000" d="M56.4708,-29.4156C64.228,-29.4156 73.0559,-29.4156 82.2564,-29.4156"/>
<polygon fill="#000000" stroke="#000000" points="82.3531,-32.9157 92.353,-29.4156 82.353,-25.9157 82.3531,-32.9157"/>
</g>
<!-- s705 -->
<g id="node3" class="node">
<title>s705</title>
<ellipse fill="none" stroke="#000000" cx="344.1367" cy="-29.4156" rx="68.4585" ry="29.3315"/>
<text text-anchor="middle" x="344.1367" y="-33.6156" font-family="Times,serif" font-size="14.00" fill="#000000">s705 STRING</text>
<text text-anchor="middle" x="344.1367" y="-16.8156" font-family="Times,serif" font-size="14.00" fill="#000000">&quot;::&quot;</text>
</g>
<!-- s704&#45;&gt;s705 -->
<g id="edge2" class="edge">
<title>s704&#45;&gt;s705</title>
<path fill="none" stroke="#000000" d="M240.1006,-29.4156C248.5193,-29.4156 257.1232,-29.4156 265.5989,-29.4156"/>
<polygon fill="#000000" stroke="#000000" points="265.8529,-32.9157 275.8528,-29.4156 265.8528,-25.9157 265.8529,-32.9157"/>
</g>
<!-- s706 -->
<g id="node4" class="node">
<title>s706</title>
<ellipse fill="none" stroke="#000000" cx="516.5944" cy="-29.4156" rx="68.4585" ry="29.3315"/>
<text text-anchor="middle" x="516.5944" y="-33.6156" font-family="Times,serif" font-size="14.00" fill="#000000">s706 STRING</text>
<text text-anchor="middle" x="516.5944" y="-16.8156" font-family="Times,serif" font-size="14.00" fill="#000000">&quot;*&quot;</text>
</g>
<!-- s705&#45;&gt;s706 -->
<g id="edge3" class="edge">
<title>s705&#45;&gt;s706</title>
<path fill="none" stroke="#000000" d="M412.7921,-29.4156C421.0727,-29.4156 429.5792,-29.4156 437.9882,-29.4156"/>
<polygon fill="#000000" stroke="#000000" points="438.1753,-32.9157 448.1752,-29.4156 438.1752,-25.9157 438.1753,-32.9157"/>
</g>
</g>
</svg>
