<?xml version="1.0" encoding="UTF-8" standalone="no"?>
<!DOCTYPE svg PUBLIC "-//W3C//DTD SVG 1.1//EN"
 "http://www.w3.org/Graphics/SVG/1.1/DTD/svg11.dtd">
<!-- Generated by graphviz version 2.40.1 (20161225.0304)
 -->
<!-- Title: function_modifiers Pages: 1 -->
<svg width="513pt" height="391pt"
 viewBox="0.00 0.00 512.84 390.83" xmlns="http://www.w3.org/2000/svg" xmlns:xlink="http://www.w3.org/1999/xlink">
<g id="graph0" class="graph" transform="scale(1 1) rotate(0) translate(4 386.8313)">
<title>function_modifiers</title>
<polygon fill="#ffffff" stroke="transparent" points="-4,4 -4,-386.8313 508.8437,-386.8313 508.8437,4 -4,4"/>
<!-- s506 -->
<g id="node1" class="node">
<title>s506</title>
<polygon fill="none" stroke="#000000" points="0,-207.6156 0,-249.2156 89.8836,-249.2156 89.8836,-207.6156 0,-207.6156"/>
<text text-anchor="middle" x="44.9418" y="-232.6156" font-family="Times,serif" font-size="14.00" fill="#000000">s506</text>
<text text-anchor="middle" x="44.9418" y="-215.8156" font-family="Times,serif" font-size="14.00" fill="#000000">→ REPEAT1</text>
</g>
<!-- s507 -->
<g id="node2" class="node">
<title>s507</title>
<polygon fill="none" stroke="#000000" points="126.8836,-98.4156 126.8836,-222.4156 228.4832,-222.4156 228.4832,-98.4156 126.8836,-98.4156"/>
<text text-anchor="middle" x="167.9334" y="-164.6156" font-family="Times,serif" font-size="14.00" fill="#000000">s507</text>
<text text-anchor="middle" x="167.9334" y="-147.8156" font-family="Times,serif" font-size="14.00" fill="#000000">→ CHOICE</text>
<polyline fill="none" stroke="#000000" points="208.9832,-98.4156 208.9832,-222.4156 "/>
<text text-anchor="middle" x="218.7332" y="-205.8156" font-family="Times,serif" font-size="14.00" fill="#000000"> </text>
<polyline fill="none" stroke="#000000" points="208.9832,-197.6156 228.4832,-197.6156 "/>
<text text-anchor="middle" x="218.7332" y="-181.0156" font-family="Times,serif" font-size="14.00" fill="#000000"> </text>
<polyline fill="none" stroke="#000000" points="208.9832,-172.8156 228.4832,-172.8156 "/>
<text text-anchor="middle" x="218.7332" y="-156.2156" font-family="Times,serif" font-size="14.00" fill="#000000"> </text>
<polyline fill="none" stroke="#000000" points="208.9832,-148.0156 228.4832,-148.0156 "/>
<text text-anchor="middle" x="218.7332" y="-131.4156" font-family="Times,serif" font-size="14.00" fill="#000000"> </text>
<polyline fill="none" stroke="#000000" points="208.9832,-123.2156 228.4832,-123.2156 "/>
<text text-anchor="middle" x="218.7332" y="-106.6156" font-family="Times,serif" font-size="14.00" fill="#000000"> </text>
</g>
<!-- s506&#45;&gt;s507 -->
<g id="edge6" class="edge">
<title>s506&#45;&gt;s507</title>
<path fill="none" stroke="#000000" d="M85.8518,-207.4585C95.969,-202.2757 107.0167,-196.6163 117.8312,-191.0763"/>
<polygon fill="#000000" stroke="#000000" points="119.5306,-194.1383 126.835,-186.4639 116.3391,-187.9082 119.5306,-194.1383"/>
</g>
<!-- s508 -->
<g id="node3" class="node">
<title>s508</title>
<ellipse fill="none" stroke="#000000" cx="429.7575" cy="-353.4156" rx="68.4585" ry="29.3315"/>
<text text-anchor="middle" x="429.7575" y="-357.6156" font-family="Times,serif" font-size="14.00" fill="#000000">s508 STRING</text>
<text text-anchor="middle" x="429.7575" y="-340.8156" font-family="Times,serif" font-size="14.00" fill="#000000">&quot;async&quot;</text>
</g>
<!-- s507&#45;&gt;s508 -->
<g id="edge1" class="edge">
<title>s507:p0&#45;&gt;s508</title>
<path fill="none" stroke="#000000" d="M218.6834,-222.4156C218.6834,-258.2081 307.412,-302.656 369.8136,-329.4898"/>
<polygon fill="#000000" stroke="#000000" points="368.6277,-332.7888 379.2,-333.4795 371.366,-326.3466 368.6277,-332.7888"/>
<text text-anchor="middle" x="291.5772" y="-315.6156" font-family="Times,serif" font-size="14.00" fill="#000000">async</text>
</g>
<!-- s509 -->
<g id="node4" class="node">
<title>s509</title>
<ellipse fill="none" stroke="#000000" cx="429.7575" cy="-275.4156" rx="68.4585" ry="29.3315"/>
<text text-anchor="middle" x="429.7575" y="-279.6156" font-family="Times,serif" font-size="14.00" fill="#000000">s509 STRING</text>
<text text-anchor="middle" x="429.7575" y="-262.8156" font-family="Times,serif" font-size="14.00" fill="#000000">&quot;default&quot;</text>
</g>
<!-- s507&#45;&gt;s509 -->
<g id="edge2" class="edge">
<title>s507:p1&#45;&gt;s509</title>
<path fill="none" stroke="#000000" d="M228.4832,-185.4156C232.4459,-185.4156 315.5426,-223.0935 373.7109,-249.6921"/>
<polygon fill="#000000" stroke="#000000" points="372.267,-252.8803 382.8166,-253.8584 375.1795,-246.515 372.267,-252.8803"/>
<text text-anchor="middle" x="291.5772" y="-234.6156" font-family="Times,serif" font-size="14.00" fill="#000000">default</text>
</g>
<!-- s510 -->
<g id="node5" class="node">
<title>s510</title>
<ellipse fill="none" stroke="#000000" cx="429.7575" cy="-196.4156" rx="68.4585" ry="29.3315"/>
<text text-anchor="middle" x="429.7575" y="-200.6156" font-family="Times,serif" font-size="14.00" fill="#000000">s510 STRING</text>
<text text-anchor="middle" x="429.7575" y="-183.8156" font-family="Times,serif" font-size="14.00" fill="#000000">&quot;const&quot;</text>
</g>
<!-- s507&#45;&gt;s510 -->
<g id="edge3" class="edge">
<title>s507:p2&#45;&gt;s510</title>
<path fill="none" stroke="#000000" d="M228.4832,-160.4156C273.4519,-160.4156 323.2016,-169.2309 361.9892,-178.1371"/>
<polygon fill="#000000" stroke="#000000" points="361.5777,-181.6359 372.1137,-180.5207 363.1819,-174.8222 361.5777,-181.6359"/>
<text text-anchor="middle" x="291.5772" y="-175.6156" font-family="Times,serif" font-size="14.00" fill="#000000">const</text>
</g>
<!-- s511 -->
<g id="node6" class="node">
<title>s511</title>
<ellipse fill="none" stroke="#000000" cx="429.7575" cy="-115.4156" rx="68.4585" ry="29.3315"/>
<text text-anchor="middle" x="429.7575" y="-119.6156" font-family="Times,serif" font-size="14.00" fill="#000000">s511 STRING</text>
<text text-anchor="middle" x="429.7575" y="-102.8156" font-family="Times,serif" font-size="14.00" fill="#000000">&quot;unsafe&quot;</text>
</g>
<!-- s507&#45;&gt;s511 -->
<g id="edge4" class="edge">
<title>s507:p3&#45;&gt;s511</title>
<path fill="none" stroke="#000000" d="M228.4832,-135.4156C270.5498,-135.4156 317.3207,-131.0361 355.1814,-126.3759"/>
<polygon fill="#000000" stroke="#000000" points="355.6253,-129.8477 365.1082,-125.1227 354.7485,-122.9028 355.6253,-129.8477"/>
<text text-anchor="middle" x="291.5772" y="-138.6156" font-family="Times,serif" font-size="14.00" fill="#000000">unsafe</text>
</g>
<!-- s512 -->
<g id="node7" class="node">
<title>s512</title>
<g id="a_node7"><a xlink:href="rust-grammar.json.extern_modifier.dot.svg" xlink:title="s512 SYMBOL\nextern_modifier">
<ellipse fill="none" stroke="#000000" cx="429.7575" cy="-29.4156" rx="75.1726" ry="29.3315"/>
<text text-anchor="middle" x="429.7575" y="-33.6156" font-family="Times,serif" font-size="14.00" fill="#000000">s512 SYMBOL</text>
<text text-anchor="middle" x="429.7575" y="-16.8156" font-family="Times,serif" font-size="14.00" fill="#000000">extern_modifier</text>
</a>
</g>
</g>
<!-- s507&#45;&gt;s512 -->
<g id="edge5" class="edge">
<title>s507:p4&#45;&gt;s512</title>
<path fill="none" stroke="#000000" d="M228.4832,-110.4156C243.3628,-110.4156 316.5557,-79.5561 370.4068,-55.9324"/>
<polygon fill="#000000" stroke="#000000" points="372.1373,-58.9949 379.8807,-51.7637 369.318,-52.5877 372.1373,-58.9949"/>
<text text-anchor="middle" x="291.5772" y="-109.6156" font-family="Times,serif" font-size="14.00" fill="#000000">extern_modifier</text>
</g>
<!-- s508&#45;&gt;s506 -->
<g id="edge7" class="edge">
<title>s508&#45;&gt;s506</title>
<path fill="none" stroke="#000000" d="M361.9434,-349.2102C298.6166,-343.1866 202.7421,-328.6037 126.8836,-293.4156 107.2866,-284.3253 88.2072,-269.6461 73.3967,-256.5358"/>
<polygon fill="#000000" stroke="#000000" points="75.3803,-253.6081 65.6316,-249.4591 70.6652,-258.7819 75.3803,-253.6081"/>
</g>
<!-- s509&#45;&gt;s506 -->
<g id="edge8" class="edge">
<title>s509&#45;&gt;s506</title>
<path fill="none" stroke="#000000" d="M376.1769,-293.7454C363.3832,-297.3413 349.6656,-300.5692 336.6712,-302.4156 233.6231,-317.0586 205.4678,-288.6187 107.8836,-252.4156 105.1596,-251.4051 102.3715,-250.3646 99.5574,-249.3095"/>
<polygon fill="#000000" stroke="#000000" points="100.5368,-245.9384 89.9449,-245.6886 98.0692,-252.4891 100.5368,-245.9384"/>
</g>
<!-- s510&#45;&gt;s506 -->
<g id="edge9" class="edge">
<title>s510&#45;&gt;s506</title>
<path fill="none" stroke="#000000" d="M386.9707,-219.7005C371.5759,-226.8676 353.7788,-233.815 336.6712,-237.4156 255.7476,-254.4477 159.44,-246.106 100.2514,-237.8203"/>
<polygon fill="#000000" stroke="#000000" points="100.4018,-234.3056 90.0029,-236.334 99.397,-241.2331 100.4018,-234.3056"/>
</g>
<!-- s511&#45;&gt;s506 -->
<g id="edge10" class="edge">
<title>s511&#45;&gt;s506</title>
<path fill="none" stroke="#000000" d="M381.5319,-94.5993C318.0391,-70.688 205.2994,-40.6216 126.8836,-89.4156 87.4387,-113.9602 64.7114,-165.039 53.5957,-197.972"/>
<polygon fill="#000000" stroke="#000000" points="50.2418,-196.9692 50.5132,-207.5605 56.9059,-199.1116 50.2418,-196.9692"/>
</g>
<!-- s512&#45;&gt;s506 -->
<g id="edge11" class="edge">
<title>s512&#45;&gt;s506</title>
<path fill="none" stroke="#000000" d="M360.3766,-17.9016C294.3679,-10.8389 195.2522,-10.7788 126.8836,-58.4156 79.9981,-91.0838 58.9638,-158.148 50.3187,-197.5761"/>
<polygon fill="#000000" stroke="#000000" points="46.8765,-196.9395 48.2883,-207.4398 53.7327,-198.3509 46.8765,-196.9395"/>
</g>
</g>
</svg>
