<?xml version="1.0" encoding="UTF-8" standalone="no"?>
<!DOCTYPE svg PUBLIC "-//W3C//DTD SVG 1.1//EN"
 "http://www.w3.org/Graphics/SVG/1.1/DTD/svg11.dtd">
<!-- Generated by graphviz version 2.40.1 (20161225.0304)
 -->
<!-- Title: binary_expression Pages: 1 -->
<svg width="557pt" height="914pt"
 viewBox="0.00 0.00 556.84 913.83" xmlns="http://www.w3.org/2000/svg" xmlns:xlink="http://www.w3.org/1999/xlink">
<g id="graph0" class="graph" transform="scale(1 1) rotate(0) translate(4 909.8313)">
<title>binary_expression</title>
<polygon fill="#ffffff" stroke="transparent" points="-4,4 -4,-909.8313 552.8444,-909.8313 552.8444,4 -4,4"/>
<!-- s1030 -->
<g id="node1" class="node">
<title>s1030</title>
<polygon fill="none" stroke="#000000" points="0,-303.6156 0,-601.2156 101.5996,-601.2156 101.5996,-303.6156 0,-303.6156"/>
<text text-anchor="middle" x="41.0498" y="-456.6156" font-family="Times,serif" font-size="14.00" fill="#000000">s1030</text>
<text text-anchor="middle" x="41.0498" y="-439.8156" font-family="Times,serif" font-size="14.00" fill="#000000">→ CHOICE</text>
<polyline fill="none" stroke="#000000" points="82.0996,-303.6156 82.0996,-601.2156 "/>
<text text-anchor="middle" x="91.8496" y="-584.6156" font-family="Times,serif" font-size="14.00" fill="#000000"> </text>
<polyline fill="none" stroke="#000000" points="82.0996,-576.4156 101.5996,-576.4156 "/>
<text text-anchor="middle" x="91.8496" y="-559.8156" font-family="Times,serif" font-size="14.00" fill="#000000"> </text>
<polyline fill="none" stroke="#000000" points="82.0996,-551.6156 101.5996,-551.6156 "/>
<text text-anchor="middle" x="91.8496" y="-535.0156" font-family="Times,serif" font-size="14.00" fill="#000000"> </text>
<polyline fill="none" stroke="#000000" points="82.0996,-526.8156 101.5996,-526.8156 "/>
<text text-anchor="middle" x="91.8496" y="-510.2156" font-family="Times,serif" font-size="14.00" fill="#000000"> </text>
<polyline fill="none" stroke="#000000" points="82.0996,-502.0156 101.5996,-502.0156 "/>
<text text-anchor="middle" x="91.8496" y="-485.4156" font-family="Times,serif" font-size="14.00" fill="#000000"> </text>
<polyline fill="none" stroke="#000000" points="82.0996,-477.2156 101.5996,-477.2156 "/>
<text text-anchor="middle" x="91.8496" y="-460.6156" font-family="Times,serif" font-size="14.00" fill="#000000"> </text>
<polyline fill="none" stroke="#000000" points="82.0996,-452.4156 101.5996,-452.4156 "/>
<text text-anchor="middle" x="91.8496" y="-435.8156" font-family="Times,serif" font-size="14.00" fill="#000000"> </text>
<polyline fill="none" stroke="#000000" points="82.0996,-427.6156 101.5996,-427.6156 "/>
<text text-anchor="middle" x="91.8496" y="-411.0156" font-family="Times,serif" font-size="14.00" fill="#000000"> </text>
<polyline fill="none" stroke="#000000" points="82.0996,-402.8156 101.5996,-402.8156 "/>
<text text-anchor="middle" x="91.8496" y="-386.2156" font-family="Times,serif" font-size="14.00" fill="#000000"> </text>
<polyline fill="none" stroke="#000000" points="82.0996,-378.0156 101.5996,-378.0156 "/>
<text text-anchor="middle" x="91.8496" y="-361.4156" font-family="Times,serif" font-size="14.00" fill="#000000"> </text>
<polyline fill="none" stroke="#000000" points="82.0996,-353.2156 101.5996,-353.2156 "/>
<text text-anchor="middle" x="91.8496" y="-336.6156" font-family="Times,serif" font-size="14.00" fill="#000000"> </text>
<polyline fill="none" stroke="#000000" points="82.0996,-328.4156 101.5996,-328.4156 "/>
<text text-anchor="middle" x="91.8496" y="-311.8156" font-family="Times,serif" font-size="14.00" fill="#000000"> </text>
</g>
<!-- s1031 -->
<g id="node2" class="node">
<title>s1031</title>
<ellipse fill="none" stroke="#000000" cx="423.7073" cy="-876.4156" rx="90.5762" ry="29.3315"/>
<text text-anchor="middle" x="423.7073" y="-880.6156" font-family="Times,serif" font-size="14.00" fill="#000000">s1031 PREC_LEFT</text>
<text text-anchor="middle" x="423.7073" y="-863.8156" font-family="Times,serif" font-size="14.00" fill="#000000">(not&#45;implemented)</text>
</g>
<!-- s1030&#45;&gt;s1031 -->
<g id="edge1" class="edge">
<title>s1030:p0&#45;&gt;s1031</title>
<path fill="none" stroke="#000000" d="M91.7998,-601.4156C91.7998,-626.6057 102.1475,-808.2507 119.5996,-826.4156 172.5766,-881.5567 261.1793,-890.7146 329.1209,-888.0454"/>
<polygon fill="#000000" stroke="#000000" points="329.5948,-891.5266 339.4132,-887.5454 329.2551,-884.5348 329.5948,-891.5266"/>
<text text-anchor="middle" x="200.0849" y="-890.6156" font-family="Times,serif" font-size="14.00" fill="#000000">10</text>
</g>
<!-- s1032 -->
<g id="node3" class="node">
<title>s1032</title>
<ellipse fill="none" stroke="#000000" cx="423.7073" cy="-799.4156" rx="90.5762" ry="29.3315"/>
<text text-anchor="middle" x="423.7073" y="-803.6156" font-family="Times,serif" font-size="14.00" fill="#000000">s1032 PREC_LEFT</text>
<text text-anchor="middle" x="423.7073" y="-786.8156" font-family="Times,serif" font-size="14.00" fill="#000000">(not&#45;implemented)</text>
</g>
<!-- s1030&#45;&gt;s1032 -->
<g id="edge2" class="edge">
<title>s1030:p1&#45;&gt;s1032</title>
<path fill="none" stroke="#000000" d="M101.5996,-564.4156C140.9147,-564.4156 93.0741,-711.397 119.5996,-740.4156 170.9386,-796.58 258.4215,-808.6843 326.4141,-808.2751"/>
<polygon fill="#000000" stroke="#000000" points="326.7784,-811.77 336.7236,-808.1174 326.6712,-804.7708 326.7784,-811.77"/>
<text text-anchor="middle" x="200.0849" y="-809.6156" font-family="Times,serif" font-size="14.00" fill="#000000">9</text>
</g>
<!-- s1033 -->
<g id="node4" class="node">
<title>s1033</title>
<ellipse fill="none" stroke="#000000" cx="423.7073" cy="-722.4156" rx="90.5762" ry="29.3315"/>
<text text-anchor="middle" x="423.7073" y="-726.6156" font-family="Times,serif" font-size="14.00" fill="#000000">s1033 PREC_LEFT</text>
<text text-anchor="middle" x="423.7073" y="-709.8156" font-family="Times,serif" font-size="14.00" fill="#000000">(not&#45;implemented)</text>
</g>
<!-- s1030&#45;&gt;s1033 -->
<g id="edge3" class="edge">
<title>s1030:p2&#45;&gt;s1033</title>
<path fill="none" stroke="#000000" d="M101.5996,-539.4156C126.3692,-539.4156 102.7392,-631.2702 119.5996,-649.4156 170.9248,-704.653 256.0551,-721.4432 323.2109,-725.2442"/>
<polygon fill="#000000" stroke="#000000" points="323.2486,-728.7499 333.404,-725.7303 323.5821,-721.7579 323.2486,-728.7499"/>
<text text-anchor="middle" x="200.0849" y="-723.6156" font-family="Times,serif" font-size="14.00" fill="#000000">4</text>
</g>
<!-- s1034 -->
<g id="node5" class="node">
<title>s1034</title>
<ellipse fill="none" stroke="#000000" cx="423.7073" cy="-645.4156" rx="90.5762" ry="29.3315"/>
<text text-anchor="middle" x="423.7073" y="-649.6156" font-family="Times,serif" font-size="14.00" fill="#000000">s1034 PREC_LEFT</text>
<text text-anchor="middle" x="423.7073" y="-632.8156" font-family="Times,serif" font-size="14.00" fill="#000000">(not&#45;implemented)</text>
</g>
<!-- s1030&#45;&gt;s1034 -->
<g id="edge4" class="edge">
<title>s1030:p3&#45;&gt;s1034</title>
<path fill="none" stroke="#000000" d="M101.5996,-514.4156C121.0945,-514.4156 104.9349,-541.5706 119.5996,-554.4156 176.559,-604.3073 259.9789,-626.8575 325.0478,-637.0434"/>
<polygon fill="#000000" stroke="#000000" points="324.92,-640.5629 335.3266,-638.5743 325.9513,-633.6393 324.92,-640.5629"/>
<text text-anchor="middle" x="200.0849" y="-632.6156" font-family="Times,serif" font-size="14.00" fill="#000000">8</text>
</g>
<!-- s1035 -->
<g id="node6" class="node">
<title>s1035</title>
<ellipse fill="none" stroke="#000000" cx="423.7073" cy="-568.4156" rx="90.5762" ry="29.3315"/>
<text text-anchor="middle" x="423.7073" y="-572.6156" font-family="Times,serif" font-size="14.00" fill="#000000">s1035 PREC_LEFT</text>
<text text-anchor="middle" x="423.7073" y="-555.8156" font-family="Times,serif" font-size="14.00" fill="#000000">(not&#45;implemented)</text>
</g>
<!-- s1030&#45;&gt;s1035 -->
<g id="edge5" class="edge">
<title>s1030:p4&#45;&gt;s1035</title>
<path fill="none" stroke="#000000" d="M101.5996,-489.4156C109.9025,-489.4156 111.5648,-492.3227 119.5996,-494.4156 193.8158,-513.7478 278.6364,-534.2569 339.8083,-548.7687"/>
<polygon fill="#000000" stroke="#000000" points="339.2613,-552.2359 349.7988,-551.1353 340.8749,-545.4244 339.2613,-552.2359"/>
<text text-anchor="middle" x="200.0849" y="-537.6156" font-family="Times,serif" font-size="14.00" fill="#000000">3</text>
</g>
<!-- s1036 -->
<g id="node7" class="node">
<title>s1036</title>
<ellipse fill="none" stroke="#000000" cx="423.7073" cy="-491.4156" rx="90.5762" ry="29.3315"/>
<text text-anchor="middle" x="423.7073" y="-495.6156" font-family="Times,serif" font-size="14.00" fill="#000000">s1036 PREC_LEFT</text>
<text text-anchor="middle" x="423.7073" y="-478.8156" font-family="Times,serif" font-size="14.00" fill="#000000">(not&#45;implemented)</text>
</g>
<!-- s1030&#45;&gt;s1036 -->
<g id="edge6" class="edge">
<title>s1030:p5&#45;&gt;s1036</title>
<path fill="none" stroke="#000000" d="M101.5996,-464.4156C178.4385,-464.4156 265.2288,-472.1397 329.3433,-479.3253"/>
<polygon fill="#000000" stroke="#000000" points="329.1022,-482.8203 339.4336,-480.4726 329.8931,-475.8652 329.1022,-482.8203"/>
<text text-anchor="middle" x="200.0849" y="-477.6156" font-family="Times,serif" font-size="14.00" fill="#000000">2</text>
</g>
<!-- s1037 -->
<g id="node8" class="node">
<title>s1037</title>
<ellipse fill="none" stroke="#000000" cx="423.7073" cy="-414.4156" rx="90.5762" ry="29.3315"/>
<text text-anchor="middle" x="423.7073" y="-418.6156" font-family="Times,serif" font-size="14.00" fill="#000000">s1037 PREC_LEFT</text>
<text text-anchor="middle" x="423.7073" y="-401.8156" font-family="Times,serif" font-size="14.00" fill="#000000">(not&#45;implemented)</text>
</g>
<!-- s1030&#45;&gt;s1037 -->
<g id="edge7" class="edge">
<title>s1030:p6&#45;&gt;s1037</title>
<path fill="none" stroke="#000000" d="M101.5996,-440.4156C178.1527,-440.4156 264.6091,-433.0291 328.6631,-426.1302"/>
<polygon fill="#000000" stroke="#000000" points="329.1855,-429.594 338.7461,-425.0283 328.425,-422.6354 329.1855,-429.594"/>
<text text-anchor="middle" x="200.0849" y="-443.6156" font-family="Times,serif" font-size="14.00" fill="#000000">5</text>
</g>
<!-- s1038 -->
<g id="node9" class="node">
<title>s1038</title>
<ellipse fill="none" stroke="#000000" cx="423.7073" cy="-337.4156" rx="90.5762" ry="29.3315"/>
<text text-anchor="middle" x="423.7073" y="-341.6156" font-family="Times,serif" font-size="14.00" fill="#000000">s1038 PREC_LEFT</text>
<text text-anchor="middle" x="423.7073" y="-324.8156" font-family="Times,serif" font-size="14.00" fill="#000000">(not&#45;implemented)</text>
</g>
<!-- s1030&#45;&gt;s1038 -->
<g id="edge8" class="edge">
<title>s1030:p7&#45;&gt;s1038</title>
<path fill="none" stroke="#000000" d="M101.5996,-415.4156C110.0047,-415.4156 111.5045,-411.877 119.5996,-409.6156 192.7462,-389.1819 276.8087,-369.5107 337.9882,-355.8758"/>
<polygon fill="#000000" stroke="#000000" points="338.9837,-359.2401 347.9873,-353.6557 337.4663,-352.4066 338.9837,-359.2401"/>
<text text-anchor="middle" x="200.0849" y="-413.6156" font-family="Times,serif" font-size="14.00" fill="#000000">7</text>
</g>
<!-- s1039 -->
<g id="node10" class="node">
<title>s1039</title>
<ellipse fill="none" stroke="#000000" cx="423.7073" cy="-260.4156" rx="90.5762" ry="29.3315"/>
<text text-anchor="middle" x="423.7073" y="-264.6156" font-family="Times,serif" font-size="14.00" fill="#000000">s1039 PREC_LEFT</text>
<text text-anchor="middle" x="423.7073" y="-247.8156" font-family="Times,serif" font-size="14.00" fill="#000000">(not&#45;implemented)</text>
</g>
<!-- s1030&#45;&gt;s1039 -->
<g id="edge9" class="edge">
<title>s1030:p8&#45;&gt;s1039</title>
<path fill="none" stroke="#000000" d="M101.5996,-390.4156C121.8267,-390.4156 104.4359,-362.0021 119.5996,-348.6156 176.0279,-298.8009 259.0919,-277.0422 324.1559,-267.5781"/>
<polygon fill="#000000" stroke="#000000" points="325.0079,-270.9939 334.4369,-266.1624 324.0529,-264.0594 325.0079,-270.9939"/>
<text text-anchor="middle" x="200.0849" y="-352.6156" font-family="Times,serif" font-size="14.00" fill="#000000">6</text>
</g>
<!-- s1040 -->
<g id="node11" class="node">
<title>s1040</title>
<g id="a_node11"><a xlink:href="rust-grammar.json.assignment_expression.dot.svg" xlink:title="s1040 SYMBOL\nassignment_expression">
<ellipse fill="none" stroke="#000000" cx="423.7073" cy="-183.4156" rx="103.2771" ry="29.3315"/>
<text text-anchor="middle" x="423.7073" y="-187.6156" font-family="Times,serif" font-size="14.00" fill="#000000">s1040 SYMBOL</text>
<text text-anchor="middle" x="423.7073" y="-170.8156" font-family="Times,serif" font-size="14.00" fill="#000000">assignment_expression</text>
</a>
</g>
</g>
<!-- s1030&#45;&gt;s1040 -->
<g id="edge10" class="edge">
<title>s1030:p9&#45;&gt;s1040</title>
<path fill="none" stroke="#000000" d="M101.5996,-365.4156C126.5446,-365.4156 102.5792,-272.8518 119.5996,-254.6156 167.8887,-202.8773 245.986,-185.3879 310.9451,-180.6732"/>
<polygon fill="#000000" stroke="#000000" points="311.4915,-184.1457 321.2513,-180.0229 311.0507,-177.1596 311.4915,-184.1457"/>
<text text-anchor="middle" x="200.0849" y="-258.6156" font-family="Times,serif" font-size="14.00" fill="#000000">assignment_expression</text>
</g>
<!-- s1041 -->
<g id="node12" class="node">
<title>s1041</title>
<g id="a_node12"><a xlink:href="rust-grammar.json.compound_assignment_expr.dot.svg" xlink:title="s1041 SYMBOL\ncompound_assignment_expr">
<ellipse fill="none" stroke="#000000" cx="423.7073" cy="-106.4156" rx="125.2744" ry="29.3315"/>
<text text-anchor="middle" x="423.7073" y="-110.6156" font-family="Times,serif" font-size="14.00" fill="#000000">s1041 SYMBOL</text>
<text text-anchor="middle" x="423.7073" y="-93.8156" font-family="Times,serif" font-size="14.00" fill="#000000">compound_assignment_expr</text>
</a>
</g>
</g>
<!-- s1030&#45;&gt;s1041 -->
<g id="edge11" class="edge">
<title>s1030:p10&#45;&gt;s1041</title>
<path fill="none" stroke="#000000" d="M101.5996,-340.4156C141.0916,-340.4156 92.8784,-192.6947 119.5996,-163.6156 163.2433,-116.1209 232.8426,-100.5948 294.4504,-97.4975"/>
<polygon fill="#000000" stroke="#000000" points="294.8061,-100.9863 304.6594,-97.0924 294.5285,-93.9918 294.8061,-100.9863"/>
<text text-anchor="middle" x="200.0849" y="-167.6156" font-family="Times,serif" font-size="14.00" fill="#000000">compound_assignment_expr</text>
</g>
<!-- s1042 -->
<g id="node13" class="node">
<title>s1042</title>
<g id="a_node13"><a xlink:href="rust-grammar.json.type_cast_expression.dot.svg" xlink:title="s1042 SYMBOL\ntype_cast_expression">
<ellipse fill="none" stroke="#000000" cx="423.7073" cy="-29.4156" rx="95.9642" ry="29.3315"/>
<text text-anchor="middle" x="423.7073" y="-33.6156" font-family="Times,serif" font-size="14.00" fill="#000000">s1042 SYMBOL</text>
<text text-anchor="middle" x="423.7073" y="-16.8156" font-family="Times,serif" font-size="14.00" fill="#000000">type_cast_expression</text>
</a>
</g>
</g>
<!-- s1030&#45;&gt;s1042 -->
<g id="edge12" class="edge">
<title>s1030:p11&#45;&gt;s1042</title>
<path fill="none" stroke="#000000" d="M91.7998,-303.4156C91.7998,-278.1373 102.0378,-95.7974 119.5996,-77.6156 171.7027,-23.673 258.0344,-14.379 325.4285,-16.9967"/>
<polygon fill="#000000" stroke="#000000" points="325.4936,-20.5038 335.6506,-17.4896 325.8308,-13.5119 325.4936,-20.5038"/>
<text text-anchor="middle" x="200.0849" y="-81.6156" font-family="Times,serif" font-size="14.00" fill="#000000">type_cast_expression</text>
</g>
</g>
</svg>
