<?xml version="1.0" encoding="UTF-8" standalone="no"?>
<!DOCTYPE svg PUBLIC "-//W3C//DTD SVG 1.1//EN"
 "http://www.w3.org/Graphics/SVG/1.1/DTD/svg11.dtd">
<!-- Generated by graphviz version 2.40.1 (20161225.0304)
 -->
<!-- Title: extern_modifier Pages: 1 -->
<svg width="632pt" height="144pt"
 viewBox="0.00 0.00 631.50 143.83" xmlns="http://www.w3.org/2000/svg" xmlns:xlink="http://www.w3.org/1999/xlink">
<g id="graph0" class="graph" transform="scale(1 1) rotate(0) translate(4 139.8313)">
<title>extern_modifier</title>
<polygon fill="#ffffff" stroke="transparent" points="-4,4 -4,-139.8313 627.5037,-139.8313 627.5037,4 -4,4"/>
<!-- s753 -->
<g id="node1" class="node">
<title>s753</title>
<polygon fill="none" stroke="#000000" points="0,-46.6156 0,-88.2156 56.4418,-88.2156 56.4418,-46.6156 0,-46.6156"/>
<text text-anchor="middle" x="28.2209" y="-71.6156" font-family="Times,serif" font-size="14.00" fill="#000000">s753</text>
<text text-anchor="middle" x="28.2209" y="-54.8156" font-family="Times,serif" font-size="14.00" fill="#000000">→ SEQ</text>
</g>
<!-- s754 -->
<g id="node2" class="node">
<title>s754</title>
<ellipse fill="none" stroke="#000000" cx="161.6707" cy="-67.4156" rx="68.4585" ry="29.3315"/>
<text text-anchor="middle" x="161.6707" y="-71.6156" font-family="Times,serif" font-size="14.00" fill="#000000">s754 STRING</text>
<text text-anchor="middle" x="161.6707" y="-54.8156" font-family="Times,serif" font-size="14.00" fill="#000000">&quot;extern&quot;</text>
</g>
<!-- s753&#45;&gt;s754 -->
<g id="edge1" class="edge">
<title>s753&#45;&gt;s754</title>
<path fill="none" stroke="#000000" d="M56.5222,-67.4156C64.5856,-67.4156 73.7846,-67.4156 83.3101,-67.4156"/>
<polygon fill="#000000" stroke="#000000" points="83.321,-70.9157 93.321,-67.4156 83.3209,-63.9157 83.321,-70.9157"/>
</g>
<!-- s755 -->
<g id="node3" class="node">
<title>s755</title>
<polygon fill="none" stroke="#000000" points="266.8995,-42.6156 266.8995,-92.2156 368.4991,-92.2156 368.4991,-42.6156 266.8995,-42.6156"/>
<text text-anchor="middle" x="307.9493" y="-71.6156" font-family="Times,serif" font-size="14.00" fill="#000000">s755</text>
<text text-anchor="middle" x="307.9493" y="-54.8156" font-family="Times,serif" font-size="14.00" fill="#000000">→ CHOICE</text>
<polyline fill="none" stroke="#000000" points="348.9991,-42.6156 348.9991,-92.2156 "/>
<text text-anchor="middle" x="358.7491" y="-75.6156" font-family="Times,serif" font-size="14.00" fill="#000000"> </text>
<polyline fill="none" stroke="#000000" points="348.9991,-67.4156 368.4991,-67.4156 "/>
<text text-anchor="middle" x="358.7491" y="-50.8156" font-family="Times,serif" font-size="14.00" fill="#000000"> </text>
</g>
<!-- s754&#45;&gt;s755 -->
<g id="edge4" class="edge">
<title>s754&#45;&gt;s755</title>
<path fill="none" stroke="#000000" d="M230.1071,-67.4156C238.9349,-67.4156 247.9288,-67.4156 256.6274,-67.4156"/>
<polygon fill="#000000" stroke="#000000" points="256.6756,-70.9157 266.6755,-67.4156 256.6755,-63.9157 256.6756,-70.9157"/>
</g>
<!-- s756 -->
<g id="node4" class="node">
<title>s756</title>
<g id="a_node4"><a xlink:href="rust-grammar.json.string_literal.dot.svg" xlink:title="s756 SYMBOL\nstring_literal">
<ellipse fill="none" stroke="#000000" cx="549.7707" cy="-106.4156" rx="73.9667" ry="29.3315"/>
<text text-anchor="middle" x="549.7707" y="-110.6156" font-family="Times,serif" font-size="14.00" fill="#000000">s756 SYMBOL</text>
<text text-anchor="middle" x="549.7707" y="-93.8156" font-family="Times,serif" font-size="14.00" fill="#000000">string_literal</text>
</a>
</g>
</g>
<!-- s755&#45;&gt;s756 -->
<g id="edge2" class="edge">
<title>s755:p0&#45;&gt;s756</title>
<path fill="none" stroke="#000000" d="M368.4991,-79.4156C403.822,-79.4156 442.5983,-84.4932 475.1902,-90.2444"/>
<polygon fill="#000000" stroke="#000000" points="474.6307,-93.7 485.0957,-92.0461 475.8834,-86.813 474.6307,-93.7"/>
<text text-anchor="middle" x="422.2684" y="-90.6156" font-family="Times,serif" font-size="14.00" fill="#000000">string_literal</text>
</g>
<!-- s757 -->
<g id="node5" class="node">
<title>s757</title>
<ellipse fill="none" stroke="#000000" cx="549.7707" cy="-29.4156" rx="45.3054" ry="29.3315"/>
<text text-anchor="middle" x="549.7707" y="-33.6156" font-family="Times,serif" font-size="14.00" fill="#000000">s757 </text>
<text text-anchor="middle" x="549.7707" y="-16.8156" font-family="Times,serif" font-size="14.00" fill="#000000">BLANK</text>
</g>
<!-- s755&#45;&gt;s757 -->
<g id="edge3" class="edge">
<title>s755:p1&#45;&gt;s757</title>
<path fill="none" stroke="#000000" d="M368.4991,-55.4156C411.9038,-55.4156 460.5678,-48.0212 496.537,-41.1191"/>
<polygon fill="#000000" stroke="#000000" points="497.6657,-44.4641 506.8005,-39.0971 496.3126,-37.5961 497.6657,-44.4641"/>
</g>
</g>
</svg>
