<?xml version="1.0" encoding="UTF-8" standalone="no"?>
<!DOCTYPE svg PUBLIC "-//W3C//DTD SVG 1.1//EN"
 "http://www.w3.org/Graphics/SVG/1.1/DTD/svg11.dtd">
<!-- Generated by graphviz version 2.40.1 (20161225.0304)
 -->
<!-- Title: scoped_type_identifier Pages: 1 -->
<svg width="1363pt" height="301pt"
 viewBox="0.00 0.00 1363.19 301.29" xmlns="http://www.w3.org/2000/svg" xmlns:xlink="http://www.w3.org/1999/xlink">
<g id="graph0" class="graph" transform="scale(1 1) rotate(0) translate(4 297.2871)">
<title>scoped_type_identifier</title>
<polygon fill="#ffffff" stroke="transparent" points="-4,4 -4,-297.2871 1359.1899,-297.2871 1359.1899,4 -4,4"/>
<!-- s1001 -->
<g id="node1" class="node">
<title>s1001</title>
<polygon fill="none" stroke="#000000" points="0,-44.6871 0,-86.2871 56.4418,-86.2871 56.4418,-44.6871 0,-44.6871"/>
<text text-anchor="middle" x="28.2209" y="-69.6871" font-family="Times,serif" font-size="14.00" fill="#000000">s1001</text>
<text text-anchor="middle" x="28.2209" y="-52.8871" font-family="Times,serif" font-size="14.00" fill="#000000">→ SEQ</text>
</g>
<!-- s1002 -->
<g id="node2" class="node">
<title>s1002</title>
<polygon fill="none" stroke="#000000" points="93.4418,-40.6871 93.4418,-90.2871 195.0414,-90.2871 195.0414,-40.6871 93.4418,-40.6871"/>
<text text-anchor="middle" x="134.4916" y="-69.6871" font-family="Times,serif" font-size="14.00" fill="#000000">s1002</text>
<text text-anchor="middle" x="134.4916" y="-52.8871" font-family="Times,serif" font-size="14.00" fill="#000000">→ CHOICE</text>
<polyline fill="none" stroke="#000000" points="175.5414,-40.6871 175.5414,-90.2871 "/>
<text text-anchor="middle" x="185.2914" y="-73.6871" font-family="Times,serif" font-size="14.00" fill="#000000"> </text>
<polyline fill="none" stroke="#000000" points="175.5414,-65.4871 195.0414,-65.4871 "/>
<text text-anchor="middle" x="185.2914" y="-48.8871" font-family="Times,serif" font-size="14.00" fill="#000000"> </text>
</g>
<!-- s1001&#45;&gt;s1002 -->
<g id="edge8" class="edge">
<title>s1001&#45;&gt;s1002</title>
<path fill="none" stroke="#000000" d="M56.6028,-65.4871C64.6824,-65.4871 73.8102,-65.4871 83.0459,-65.4871"/>
<polygon fill="#000000" stroke="#000000" points="83.0657,-68.9872 93.0657,-65.4871 83.0656,-61.9872 83.0657,-68.9872"/>
</g>
<!-- s1003 -->
<g id="node3" class="node">
<title>s1003</title>
<polygon fill="none" stroke="#000000" points="232.0414,-100.8871 232.0414,-200.0871 333.641,-200.0871 333.641,-100.8871 232.0414,-100.8871"/>
<text text-anchor="middle" x="273.0912" y="-154.6871" font-family="Times,serif" font-size="14.00" fill="#000000">s1003</text>
<text text-anchor="middle" x="273.0912" y="-137.8871" font-family="Times,serif" font-size="14.00" fill="#000000">→ CHOICE</text>
<polyline fill="none" stroke="#000000" points="314.141,-100.8871 314.141,-200.0871 "/>
<text text-anchor="middle" x="323.891" y="-183.4871" font-family="Times,serif" font-size="14.00" fill="#000000"> </text>
<polyline fill="none" stroke="#000000" points="314.141,-175.2871 333.641,-175.2871 "/>
<text text-anchor="middle" x="323.891" y="-158.6871" font-family="Times,serif" font-size="14.00" fill="#000000"> </text>
<polyline fill="none" stroke="#000000" points="314.141,-150.4871 333.641,-150.4871 "/>
<text text-anchor="middle" x="323.891" y="-133.8871" font-family="Times,serif" font-size="14.00" fill="#000000"> </text>
<polyline fill="none" stroke="#000000" points="314.141,-125.6871 333.641,-125.6871 "/>
<text text-anchor="middle" x="323.891" y="-109.0871" font-family="Times,serif" font-size="14.00" fill="#000000"> </text>
</g>
<!-- s1002&#45;&gt;s1003 -->
<g id="edge6" class="edge">
<title>s1002:p0&#45;&gt;s1003</title>
<path fill="none" stroke="#000000" d="M185.2416,-90.4871C185.2416,-111.9615 202.6009,-125.9945 222.6774,-135.0433"/>
<polygon fill="#000000" stroke="#000000" points="221.4589,-138.3262 232.0403,-138.859 224.1007,-131.8438 221.4589,-138.3262"/>
</g>
<!-- s1009 -->
<g id="node9" class="node">
<title>s1009</title>
<ellipse fill="none" stroke="#000000" cx="397.0436" cy="-34.4871" rx="45.3054" ry="29.3315"/>
<text text-anchor="middle" x="397.0436" y="-38.6871" font-family="Times,serif" font-size="14.00" fill="#000000">s1009 </text>
<text text-anchor="middle" x="397.0436" y="-21.8871" font-family="Times,serif" font-size="14.00" fill="#000000">BLANK</text>
</g>
<!-- s1002&#45;&gt;s1009 -->
<g id="edge7" class="edge">
<title>s1002:p1&#45;&gt;s1009</title>
<path fill="none" stroke="#000000" d="M195.0414,-53.4871C245.2117,-53.4871 302.0843,-47.6058 342.6715,-42.3875"/>
<polygon fill="#000000" stroke="#000000" points="343.1668,-45.8526 352.6254,-41.0791 342.2545,-38.9123 343.1668,-45.8526"/>
</g>
<!-- s1004 -->
<g id="node4" class="node">
<title>s1004</title>
<g id="a_node4"><a xlink:href="rust-grammar.json._path.dot.svg" xlink:title="s1004 SYMBOL\n_path">
<ellipse fill="none" stroke="#000000" cx="629.4292" cy="-249.4871" rx="78.8659" ry="29.3315"/>
<text text-anchor="middle" x="629.4292" y="-253.6871" font-family="Times,serif" font-size="14.00" fill="#000000">s1004 SYMBOL</text>
<text text-anchor="middle" x="629.4292" y="-236.8871" font-family="Times,serif" font-size="14.00" fill="#000000">_path</text>
</a>
</g>
</g>
<!-- s1003&#45;&gt;s1004 -->
<g id="edge1" class="edge">
<title>s1003:p0&#45;&gt;s1004</title>
<path fill="none" stroke="#000000" d="M323.8412,-200.4871C323.8412,-292.9317 461.8692,-283.2499 552.3958,-266.9588"/>
<polygon fill="#000000" stroke="#000000" points="553.1755,-270.3739 562.3666,-265.1038 551.8951,-263.4919 553.1755,-270.3739"/>
<text text-anchor="middle" x="397.0436" y="-280.6871" font-family="Times,serif" font-size="14.00" fill="#000000">_path</text>
</g>
<!-- s1005 -->
<g id="node5" class="node">
<title>s1005</title>
<polygon fill="none" stroke="#000000" points="460.9918,-170.6871 460.9918,-212.2871 532.2008,-212.2871 532.2008,-170.6871 460.9918,-170.6871"/>
<text text-anchor="middle" x="496.5963" y="-195.6871" font-family="Times,serif" font-size="14.00" fill="#000000">s1005</text>
<text text-anchor="middle" x="496.5963" y="-178.8871" font-family="Times,serif" font-size="14.00" fill="#000000">→ ALIAS</text>
</g>
<!-- s1003&#45;&gt;s1005 -->
<g id="edge3" class="edge">
<title>s1003:p1&#45;&gt;s1005</title>
<path fill="none" stroke="#000000" d="M333.641,-162.4871C373.5719,-162.4871 418.1672,-171.0319 450.5975,-178.8451"/>
<polygon fill="#000000" stroke="#000000" points="450.1296,-182.335 460.678,-181.3443 451.8142,-175.5407 450.1296,-182.335"/>
<text text-anchor="middle" x="397.0436" y="-179.6871" font-family="Times,serif" font-size="14.00" fill="#000000">generic_type</text>
</g>
<!-- s1007 -->
<g id="node7" class="node">
<title>s1007</title>
<g id="a_node7"><a xlink:href="rust-grammar.json.bracketed_type.dot.svg" xlink:title="s1007 SYMBOL\nbracketed_type">
<ellipse fill="none" stroke="#000000" cx="629.4292" cy="-138.4871" rx="78.8659" ry="29.3315"/>
<text text-anchor="middle" x="629.4292" y="-142.6871" font-family="Times,serif" font-size="14.00" fill="#000000">s1007 SYMBOL</text>
<text text-anchor="middle" x="629.4292" y="-125.8871" font-family="Times,serif" font-size="14.00" fill="#000000">bracketed_type</text>
</a>
</g>
</g>
<!-- s1003&#45;&gt;s1007 -->
<g id="edge4" class="edge">
<title>s1003:p2&#45;&gt;s1007</title>
<path fill="none" stroke="#000000" d="M333.641,-138.4871C403.0363,-138.4871 481.5897,-138.4871 540.2952,-138.4871"/>
<polygon fill="#000000" stroke="#000000" points="540.6486,-141.9872 550.6486,-138.4871 540.6485,-134.9872 540.6486,-141.9872"/>
<text text-anchor="middle" x="397.0436" y="-142.6871" font-family="Times,serif" font-size="14.00" fill="#000000">bracketed_type</text>
</g>
<!-- s1008 -->
<g id="node8" class="node">
<title>s1008</title>
<g id="a_node8"><a xlink:href="rust-grammar.json.generic_type.dot.svg" xlink:title="s1008 SYMBOL\ngeneric_type">
<ellipse fill="none" stroke="#000000" cx="851.7895" cy="-81.4871" rx="78.8659" ry="29.3315"/>
<text text-anchor="middle" x="851.7895" y="-85.6871" font-family="Times,serif" font-size="14.00" fill="#000000">s1008 SYMBOL</text>
<text text-anchor="middle" x="851.7895" y="-68.8871" font-family="Times,serif" font-size="14.00" fill="#000000">generic_type</text>
</a>
</g>
</g>
<!-- s1003&#45;&gt;s1008 -->
<g id="edge5" class="edge">
<title>s1003:p3&#45;&gt;s1008</title>
<path fill="none" stroke="#000000" d="M333.641,-113.4871C354.7234,-113.4871 621.8555,-96.388 764.0516,-87.1883"/>
<polygon fill="#000000" stroke="#000000" points="764.3157,-90.6786 774.0687,-86.5399 763.8635,-83.6933 764.3157,-90.6786"/>
<text text-anchor="middle" x="496.5963" y="-109.6871" font-family="Times,serif" font-size="14.00" fill="#000000">generic_type</text>
</g>
<!-- s1010 -->
<g id="node10" class="node">
<title>s1010</title>
<ellipse fill="none" stroke="#000000" cx="1087.6458" cy="-138.4871" rx="73.3577" ry="29.3315"/>
<text text-anchor="middle" x="1087.6458" y="-142.6871" font-family="Times,serif" font-size="14.00" fill="#000000">s1010 STRING</text>
<text text-anchor="middle" x="1087.6458" y="-125.8871" font-family="Times,serif" font-size="14.00" fill="#000000">&quot;::&quot;</text>
</g>
<!-- s1004&#45;&gt;s1010 -->
<g id="edge9" class="edge">
<title>s1004&#45;&gt;s1010</title>
<path fill="none" stroke="#000000" d="M703.3211,-259.6859C775.8461,-266.6155 888.2492,-268.9924 977.4672,-233.4871 1008.955,-220.9562 1037.7033,-195.4626 1057.9335,-174.0373"/>
<polygon fill="#000000" stroke="#000000" points="1060.5291,-176.3854 1064.7244,-166.6565 1055.3778,-171.6457 1060.5291,-176.3854"/>
</g>
<!-- s1006 -->
<g id="node6" class="node">
<title>s1006</title>
<g id="a_node6"><a xlink:href="rust-grammar.json.generic_type_with_turbofish.dot.svg" xlink:title="s1006 SYMBOL\ngeneric_type_with_turbofish">
<ellipse fill="none" stroke="#000000" cx="851.7895" cy="-195.4871" rx="125.8555" ry="29.3315"/>
<text text-anchor="middle" x="851.7895" y="-199.6871" font-family="Times,serif" font-size="14.00" fill="#000000">s1006 SYMBOL</text>
<text text-anchor="middle" x="851.7895" y="-182.8871" font-family="Times,serif" font-size="14.00" fill="#000000">generic_type_with_turbofish</text>
</a>
</g>
</g>
<!-- s1005&#45;&gt;s1006 -->
<g id="edge2" class="edge">
<title>s1005&#45;&gt;s1006</title>
<path fill="none" stroke="#000000" d="M532.2799,-191.889C575.2006,-192.3723 649.7665,-193.212 716.0729,-193.9587"/>
<polygon fill="#000000" stroke="#000000" points="716.1749,-197.46 726.2137,-194.0729 716.2538,-190.4605 716.1749,-197.46"/>
</g>
<!-- s1006&#45;&gt;s1010 -->
<g id="edge10" class="edge">
<title>s1006&#45;&gt;s1010</title>
<path fill="none" stroke="#000000" d="M939.2785,-174.3434C964.0561,-168.3554 990.7581,-161.9022 1014.5874,-156.1433"/>
<polygon fill="#000000" stroke="#000000" points="1015.7122,-159.4723 1024.6101,-153.7211 1014.0678,-152.6682 1015.7122,-159.4723"/>
</g>
<!-- s1007&#45;&gt;s1010 -->
<g id="edge11" class="edge">
<title>s1007&#45;&gt;s1010</title>
<path fill="none" stroke="#000000" d="M708.1994,-138.4871C790.8169,-138.4871 920.1312,-138.4871 1004.392,-138.4871"/>
<polygon fill="#000000" stroke="#000000" points="1004.4382,-141.9872 1014.4382,-138.4871 1004.4382,-134.9872 1004.4382,-141.9872"/>
</g>
<!-- s1008&#45;&gt;s1010 -->
<g id="edge12" class="edge">
<title>s1008&#45;&gt;s1010</title>
<path fill="none" stroke="#000000" d="M918.1163,-97.5165C948.2379,-104.796 983.9542,-113.4277 1014.818,-120.8866"/>
<polygon fill="#000000" stroke="#000000" points="1014.1125,-124.3168 1024.6549,-123.2639 1015.7569,-117.5127 1014.1125,-124.3168"/>
</g>
<!-- s1009&#45;&gt;s1010 -->
<g id="edge13" class="edge">
<title>s1009&#45;&gt;s1010</title>
<path fill="none" stroke="#000000" d="M440.4267,-25.4418C539.5433,-6.8131 788.6085,28.362 977.4672,-43.4871 1009.142,-55.5374 1037.8813,-81.0542 1058.0605,-102.6104"/>
<polygon fill="#000000" stroke="#000000" points="1055.5094,-105.0073 1064.8319,-110.0414 1060.6835,-100.2925 1055.5094,-105.0073"/>
</g>
<!-- s1011 -->
<g id="node11" class="node">
<title>s1011</title>
<g id="a_node11"><a xlink:href="rust-grammar.json._type_identifier.dot.svg" xlink:title="s1011 SYMBOL\n_type_identifier">
<ellipse fill="none" stroke="#000000" cx="1276.5072" cy="-138.4871" rx="78.8659" ry="29.3315"/>
<text text-anchor="middle" x="1276.5072" y="-142.6871" font-family="Times,serif" font-size="14.00" fill="#000000">s1011 SYMBOL</text>
<text text-anchor="middle" x="1276.5072" y="-125.8871" font-family="Times,serif" font-size="14.00" fill="#000000">_type_identifier</text>
</a>
</g>
</g>
<!-- s1010&#45;&gt;s1011 -->
<g id="edge14" class="edge">
<title>s1010&#45;&gt;s1011</title>
<path fill="none" stroke="#000000" d="M1160.9348,-138.4871C1169.6737,-138.4871 1178.6672,-138.4871 1187.5947,-138.4871"/>
<polygon fill="#000000" stroke="#000000" points="1187.629,-141.9872 1197.6289,-138.4871 1187.6289,-134.9872 1187.629,-141.9872"/>
</g>
</g>
</svg>
