<?xml version="1.0" encoding="UTF-8" standalone="no"?>
<!DOCTYPE svg PUBLIC "-//W3C//DTD SVG 1.1//EN"
 "http://www.w3.org/Graphics/SVG/1.1/DTD/svg11.dtd">
<!-- Generated by graphviz version 2.40.1 (20161225.0304)
 -->
<!-- Title: captured_pattern Pages: 1 -->
<svg width="634pt" height="67pt"
 viewBox="0.00 0.00 633.53 66.83" xmlns="http://www.w3.org/2000/svg" xmlns:xlink="http://www.w3.org/1999/xlink">
<g id="graph0" class="graph" transform="scale(1 1) rotate(0) translate(4 62.8313)">
<title>captured_pattern</title>
<polygon fill="#ffffff" stroke="transparent" points="-4,4 -4,-62.8313 629.53,-62.8313 629.53,4 -4,4"/>
<!-- s1447 -->
<g id="node1" class="node">
<title>s1447</title>
<polygon fill="none" stroke="#000000" points="0,-8.6156 0,-50.2156 56.4418,-50.2156 56.4418,-8.6156 0,-8.6156"/>
<text text-anchor="middle" x="28.2209" y="-33.6156" font-family="Times,serif" font-size="14.00" fill="#000000">s1447</text>
<text text-anchor="middle" x="28.2209" y="-16.8156" font-family="Times,serif" font-size="14.00" fill="#000000">→ SEQ</text>
</g>
<!-- s1448 -->
<g id="node2" class="node">
<title>s1448</title>
<g id="a_node2"><a xlink:href="rust-grammar.json.identifier.dot.svg" xlink:title="s1448 SYMBOL\nidentifier">
<ellipse fill="none" stroke="#000000" cx="171.1245" cy="-29.4156" rx="78.8659" ry="29.3315"/>
<text text-anchor="middle" x="171.1245" y="-33.6156" font-family="Times,serif" font-size="14.00" fill="#000000">s1448 SYMBOL</text>
<text text-anchor="middle" x="171.1245" y="-16.8156" font-family="Times,serif" font-size="14.00" fill="#000000">identifier</text>
</a>
</g>
</g>
<!-- s1447&#45;&gt;s1448 -->
<g id="edge1" class="edge">
<title>s1447&#45;&gt;s1448</title>
<path fill="none" stroke="#000000" d="M56.4541,-29.4156C64.1598,-29.4156 72.9398,-29.4156 82.1327,-29.4156"/>
<polygon fill="#000000" stroke="#000000" points="82.2387,-32.9157 92.2387,-29.4156 82.2387,-25.9157 82.2387,-32.9157"/>
</g>
<!-- s1449 -->
<g id="node3" class="node">
<title>s1449</title>
<ellipse fill="none" stroke="#000000" cx="358.9859" cy="-29.4156" rx="73.3577" ry="29.3315"/>
<text text-anchor="middle" x="358.9859" y="-33.6156" font-family="Times,serif" font-size="14.00" fill="#000000">s1449 STRING</text>
<text text-anchor="middle" x="358.9859" y="-16.8156" font-family="Times,serif" font-size="14.00" fill="#000000">&quot;@&quot;</text>
</g>
<!-- s1448&#45;&gt;s1449 -->
<g id="edge2" class="edge">
<title>s1448&#45;&gt;s1449</title>
<path fill="none" stroke="#000000" d="M249.9781,-29.4156C258.4016,-29.4156 266.9913,-29.4156 275.4664,-29.4156"/>
<polygon fill="#000000" stroke="#000000" points="275.7286,-32.9157 285.7286,-29.4156 275.7286,-25.9157 275.7286,-32.9157"/>
</g>
<!-- s1450 -->
<g id="node4" class="node">
<title>s1450</title>
<g id="a_node4"><a xlink:href="rust-grammar.json._pattern.dot.svg" xlink:title="s1450 SYMBOL\n_pattern">
<ellipse fill="none" stroke="#000000" cx="546.8473" cy="-29.4156" rx="78.8659" ry="29.3315"/>
<text text-anchor="middle" x="546.8473" y="-33.6156" font-family="Times,serif" font-size="14.00" fill="#000000">s1450 SYMBOL</text>
<text text-anchor="middle" x="546.8473" y="-16.8156" font-family="Times,serif" font-size="14.00" fill="#000000">_pattern</text>
</a>
</g>
</g>
<!-- s1449&#45;&gt;s1450 -->
<g id="edge3" class="edge">
<title>s1449&#45;&gt;s1450</title>
<path fill="none" stroke="#000000" d="M432.4251,-29.4156C440.6925,-29.4156 449.1824,-29.4156 457.6216,-29.4156"/>
<polygon fill="#000000" stroke="#000000" points="457.872,-32.9157 467.872,-29.4156 457.872,-25.9157 457.872,-32.9157"/>
</g>
</g>
</svg>
