<?xml version="1.0" encoding="UTF-8" standalone="no"?>
<!DOCTYPE svg PUBLIC "-//W3C//DTD SVG 1.1//EN"
 "http://www.w3.org/Graphics/SVG/1.1/DTD/svg11.dtd">
<!-- Generated by graphviz version 2.40.1 (20161225.0304)
 -->
<!-- Title: mut_pattern Pages: 1 -->
<svg width="559pt" height="67pt"
 viewBox="0.00 0.00 559.28 66.83" xmlns="http://www.w3.org/2000/svg" xmlns:xlink="http://www.w3.org/1999/xlink">
<g id="graph0" class="graph" transform="scale(1 1) rotate(0) translate(4 62.8313)">
<title>mut_pattern</title>
<polygon fill="#ffffff" stroke="transparent" points="-4,4 -4,-62.8313 555.2771,-62.8313 555.2771,4 -4,4"/>
<!-- s1436 -->
<g id="node1" class="node">
<title>s1436</title>
<polygon fill="none" stroke="#000000" points="0,-8.6156 0,-50.2156 65.0084,-50.2156 65.0084,-8.6156 0,-8.6156"/>
<text text-anchor="middle" x="32.5042" y="-33.6156" font-family="Times,serif" font-size="14.00" fill="#000000">s1436</text>
<text text-anchor="middle" x="32.5042" y="-16.8156" font-family="Times,serif" font-size="14.00" fill="#000000">→ PREC</text>
</g>
<!-- s1437 -->
<g id="node2" class="node">
<title>s1437</title>
<polygon fill="none" stroke="#000000" points="101.0084,-8.6156 101.0084,-50.2156 157.4502,-50.2156 157.4502,-8.6156 101.0084,-8.6156"/>
<text text-anchor="middle" x="129.2293" y="-33.6156" font-family="Times,serif" font-size="14.00" fill="#000000">s1437</text>
<text text-anchor="middle" x="129.2293" y="-16.8156" font-family="Times,serif" font-size="14.00" fill="#000000">→ SEQ</text>
</g>
<!-- s1436&#45;&gt;s1437 -->
<g id="edge3" class="edge">
<title>s1436&#45;&gt;s1437</title>
<path fill="none" stroke="#000000" d="M65.2509,-29.4156C73.4333,-29.4156 82.2837,-29.4156 90.7169,-29.4156"/>
<polygon fill="#000000" stroke="#000000" points="90.7236,-32.9157 100.7236,-29.4156 90.7235,-25.9157 90.7236,-32.9157"/>
</g>
<!-- s1438 -->
<g id="node3" class="node">
<title>s1438</title>
<g id="a_node3"><a xlink:href="rust-grammar.json.mutable_specifier.dot.svg" xlink:title="s1438 SYMBOL\nmutable_specifier">
<ellipse fill="none" stroke="#000000" cx="275.6809" cy="-29.4156" rx="82.4621" ry="29.3315"/>
<text text-anchor="middle" x="275.6809" y="-33.6156" font-family="Times,serif" font-size="14.00" fill="#000000">s1438 SYMBOL</text>
<text text-anchor="middle" x="275.6809" y="-16.8156" font-family="Times,serif" font-size="14.00" fill="#000000">mutable_specifier</text>
</a>
</g>
</g>
<!-- s1437&#45;&gt;s1438 -->
<g id="edge1" class="edge">
<title>s1437&#45;&gt;s1438</title>
<path fill="none" stroke="#000000" d="M157.4666,-29.4156C165.1578,-29.4156 173.93,-29.4156 183.1414,-29.4156"/>
<polygon fill="#000000" stroke="#000000" points="183.2787,-32.9157 193.2787,-29.4156 183.2787,-25.9157 183.2787,-32.9157"/>
</g>
<!-- s1439 -->
<g id="node4" class="node">
<title>s1439</title>
<g id="a_node4"><a xlink:href="rust-grammar.json._pattern.dot.svg" xlink:title="s1439 SYMBOL\n_pattern">
<ellipse fill="none" stroke="#000000" cx="472.5944" cy="-29.4156" rx="78.8659" ry="29.3315"/>
<text text-anchor="middle" x="472.5944" y="-33.6156" font-family="Times,serif" font-size="14.00" fill="#000000">s1439 SYMBOL</text>
<text text-anchor="middle" x="472.5944" y="-16.8156" font-family="Times,serif" font-size="14.00" fill="#000000">_pattern</text>
</a>
</g>
</g>
<!-- s1438&#45;&gt;s1439 -->
<g id="edge2" class="edge">
<title>s1438&#45;&gt;s1439</title>
<path fill="none" stroke="#000000" d="M358.049,-29.4156C366.4406,-29.4156 374.9925,-29.4156 383.4519,-29.4156"/>
<polygon fill="#000000" stroke="#000000" points="383.7076,-32.9157 393.7076,-29.4156 383.7076,-25.9157 383.7076,-32.9157"/>
</g>
</g>
</svg>
