<?xml version="1.0" encoding="UTF-8" standalone="no"?>
<!DOCTYPE svg PUBLIC "-//W3C//DTD SVG 1.1//EN"
 "http://www.w3.org/Graphics/SVG/1.1/DTD/svg11.dtd">
<!-- Generated by graphviz version 2.40.1 (20161225.0304)
 -->
<!-- Title: closure_expression Pages: 1 -->
<svg width="2025pt" height="197pt"
 viewBox="0.00 0.00 2024.82 196.83" xmlns="http://www.w3.org/2000/svg" xmlns:xlink="http://www.w3.org/1999/xlink">
<g id="graph0" class="graph" transform="scale(1 1) rotate(0) translate(4 192.8313)">
<title>closure_expression</title>
<polygon fill="#ffffff" stroke="transparent" points="-4,4 -4,-192.8313 2020.8186,-192.8313 2020.8186,4 -4,4"/>
<!-- s1257 -->
<g id="node1" class="node">
<title>s1257</title>
<polygon fill="none" stroke="#000000" points="0,-46.6156 0,-88.2156 65.0084,-88.2156 65.0084,-46.6156 0,-46.6156"/>
<text text-anchor="middle" x="32.5042" y="-71.6156" font-family="Times,serif" font-size="14.00" fill="#000000">s1257</text>
<text text-anchor="middle" x="32.5042" y="-54.8156" font-family="Times,serif" font-size="14.00" fill="#000000">→ PREC</text>
</g>
<!-- s1258 -->
<g id="node2" class="node">
<title>s1258</title>
<polygon fill="none" stroke="#000000" points="102.0084,-46.6156 102.0084,-88.2156 158.4502,-88.2156 158.4502,-46.6156 102.0084,-46.6156"/>
<text text-anchor="middle" x="130.2293" y="-71.6156" font-family="Times,serif" font-size="14.00" fill="#000000">s1258</text>
<text text-anchor="middle" x="130.2293" y="-54.8156" font-family="Times,serif" font-size="14.00" fill="#000000">→ SEQ</text>
</g>
<!-- s1257&#45;&gt;s1258 -->
<g id="edge16" class="edge">
<title>s1257&#45;&gt;s1258</title>
<path fill="none" stroke="#000000" d="M65.0452,-67.4156C73.5855,-67.4156 82.8774,-67.4156 91.6984,-67.4156"/>
<polygon fill="#000000" stroke="#000000" points="91.7642,-70.9157 101.7641,-67.4156 91.7641,-63.9157 91.7642,-70.9157"/>
</g>
<!-- s1259 -->
<g id="node3" class="node">
<title>s1259</title>
<polygon fill="none" stroke="#000000" points="195.4502,-42.6156 195.4502,-92.2156 297.0498,-92.2156 297.0498,-42.6156 195.4502,-42.6156"/>
<text text-anchor="middle" x="236.5" y="-71.6156" font-family="Times,serif" font-size="14.00" fill="#000000">s1259</text>
<text text-anchor="middle" x="236.5" y="-54.8156" font-family="Times,serif" font-size="14.00" fill="#000000">→ CHOICE</text>
<polyline fill="none" stroke="#000000" points="277.5498,-42.6156 277.5498,-92.2156 "/>
<text text-anchor="middle" x="287.2998" y="-75.6156" font-family="Times,serif" font-size="14.00" fill="#000000"> </text>
<polyline fill="none" stroke="#000000" points="277.5498,-67.4156 297.0498,-67.4156 "/>
<text text-anchor="middle" x="287.2998" y="-50.8156" font-family="Times,serif" font-size="14.00" fill="#000000"> </text>
</g>
<!-- s1258&#45;&gt;s1259 -->
<g id="edge3" class="edge">
<title>s1258&#45;&gt;s1259</title>
<path fill="none" stroke="#000000" d="M158.6112,-67.4156C166.6908,-67.4156 175.8186,-67.4156 185.0543,-67.4156"/>
<polygon fill="#000000" stroke="#000000" points="185.0741,-70.9157 195.0741,-67.4156 185.074,-63.9157 185.0741,-70.9157"/>
</g>
<!-- s1260 -->
<g id="node4" class="node">
<title>s1260</title>
<ellipse fill="none" stroke="#000000" cx="437.3336" cy="-106.4156" rx="73.3577" ry="29.3315"/>
<text text-anchor="middle" x="437.3336" y="-110.6156" font-family="Times,serif" font-size="14.00" fill="#000000">s1260 STRING</text>
<text text-anchor="middle" x="437.3336" y="-93.8156" font-family="Times,serif" font-size="14.00" fill="#000000">&quot;move&quot;</text>
</g>
<!-- s1259&#45;&gt;s1260 -->
<g id="edge1" class="edge">
<title>s1259:p0&#45;&gt;s1260</title>
<path fill="none" stroke="#000000" d="M297.0498,-79.4156C320.0632,-79.4156 344.8237,-82.9628 367.0413,-87.4857"/>
<polygon fill="#000000" stroke="#000000" points="366.5448,-90.9585 377.0551,-89.6232 368.0061,-84.1127 366.5448,-90.9585"/>
<text text-anchor="middle" x="330.6024" y="-86.6156" font-family="Times,serif" font-size="14.00" fill="#000000">move</text>
</g>
<!-- s1261 -->
<g id="node5" class="node">
<title>s1261</title>
<ellipse fill="none" stroke="#000000" cx="437.3336" cy="-29.4156" rx="45.3054" ry="29.3315"/>
<text text-anchor="middle" x="437.3336" y="-33.6156" font-family="Times,serif" font-size="14.00" fill="#000000">s1261 </text>
<text text-anchor="middle" x="437.3336" y="-16.8156" font-family="Times,serif" font-size="14.00" fill="#000000">BLANK</text>
</g>
<!-- s1259&#45;&gt;s1261 -->
<g id="edge2" class="edge">
<title>s1259:p1&#45;&gt;s1261</title>
<path fill="none" stroke="#000000" d="M297.0498,-55.4156C326.8106,-55.4156 359.537,-49.6884 385.8898,-43.61"/>
<polygon fill="#000000" stroke="#000000" points="386.7462,-47.0039 395.6581,-41.2744 385.1183,-40.1958 386.7462,-47.0039"/>
</g>
<!-- s1262 -->
<g id="node6" class="node">
<title>s1262</title>
<g id="a_node6"><a xlink:href="rust-grammar.json.closure_parameters.dot.svg" xlink:title="s1262 SYMBOL\nclosure_parameters">
<ellipse fill="none" stroke="#000000" cx="635.7807" cy="-67.4156" rx="88.0375" ry="29.3315"/>
<text text-anchor="middle" x="635.7807" y="-71.6156" font-family="Times,serif" font-size="14.00" fill="#000000">s1262 SYMBOL</text>
<text text-anchor="middle" x="635.7807" y="-54.8156" font-family="Times,serif" font-size="14.00" fill="#000000">closure_parameters</text>
</a>
</g>
</g>
<!-- s1260&#45;&gt;s1262 -->
<g id="edge4" class="edge">
<title>s1260&#45;&gt;s1262</title>
<path fill="none" stroke="#000000" d="M503.138,-93.4834C517.9462,-90.5732 533.8788,-87.442 549.3862,-84.3944"/>
<polygon fill="#000000" stroke="#000000" points="550.362,-87.7697 559.4993,-82.4069 549.012,-80.9011 550.362,-87.7697"/>
</g>
<!-- s1261&#45;&gt;s1262 -->
<g id="edge5" class="edge">
<title>s1261&#45;&gt;s1262</title>
<path fill="none" stroke="#000000" d="M480.8837,-37.7549C500.95,-41.5973 525.5077,-46.2998 549.1036,-50.8181"/>
<polygon fill="#000000" stroke="#000000" points="548.6614,-54.297 559.1413,-52.7402 549.978,-47.4219 548.6614,-54.297"/>
</g>
<!-- s1263 -->
<g id="node7" class="node">
<title>s1263</title>
<polygon fill="none" stroke="#000000" points="761.0491,-42.6156 761.0491,-92.2156 862.6487,-92.2156 862.6487,-42.6156 761.0491,-42.6156"/>
<text text-anchor="middle" x="802.0989" y="-71.6156" font-family="Times,serif" font-size="14.00" fill="#000000">s1263</text>
<text text-anchor="middle" x="802.0989" y="-54.8156" font-family="Times,serif" font-size="14.00" fill="#000000">→ CHOICE</text>
<polyline fill="none" stroke="#000000" points="843.1487,-42.6156 843.1487,-92.2156 "/>
<text text-anchor="middle" x="852.8987" y="-75.6156" font-family="Times,serif" font-size="14.00" fill="#000000"> </text>
<polyline fill="none" stroke="#000000" points="843.1487,-67.4156 862.6487,-67.4156 "/>
<text text-anchor="middle" x="852.8987" y="-50.8156" font-family="Times,serif" font-size="14.00" fill="#000000"> </text>
</g>
<!-- s1262&#45;&gt;s1263 -->
<g id="edge15" class="edge">
<title>s1262&#45;&gt;s1263</title>
<path fill="none" stroke="#000000" d="M724.0727,-67.4156C732.9787,-67.4156 741.8812,-67.4156 750.4156,-67.4156"/>
<polygon fill="#000000" stroke="#000000" points="750.6187,-70.9157 760.6187,-67.4156 750.6186,-63.9157 750.6187,-70.9157"/>
</g>
<!-- s1264 -->
<g id="node8" class="node">
<title>s1264</title>
<polygon fill="none" stroke="#000000" points="1015.9801,-99.6156 1015.9801,-141.2156 1072.4219,-141.2156 1072.4219,-99.6156 1015.9801,-99.6156"/>
<text text-anchor="middle" x="1044.201" y="-124.6156" font-family="Times,serif" font-size="14.00" fill="#000000">s1264</text>
<text text-anchor="middle" x="1044.201" y="-107.8156" font-family="Times,serif" font-size="14.00" fill="#000000">→ SEQ</text>
</g>
<!-- s1263&#45;&gt;s1264 -->
<g id="edge13" class="edge">
<title>s1263:p0&#45;&gt;s1264</title>
<path fill="none" stroke="#000000" d="M862.6487,-79.4156C913.1558,-79.4156 969.668,-94.7 1006.0238,-106.6046"/>
<polygon fill="#000000" stroke="#000000" points="1005.1278,-109.9956 1015.7217,-109.8571 1007.3537,-103.3589 1005.1278,-109.9956"/>
</g>
<!-- s1271 -->
<g id="node15" class="node">
<title>s1271</title>
<g id="a_node15"><a xlink:href="rust-grammar.json._expression.dot.svg" xlink:title="s1271 SYMBOL\n_expression">
<ellipse fill="none" stroke="#000000" cx="1044.201" cy="-51.4156" rx="78.8659" ry="29.3315"/>
<text text-anchor="middle" x="1044.201" y="-55.6156" font-family="Times,serif" font-size="14.00" fill="#000000">s1271 SYMBOL</text>
<text text-anchor="middle" x="1044.201" y="-38.8156" font-family="Times,serif" font-size="14.00" fill="#000000">_expression</text>
</a>
</g>
</g>
<!-- s1263&#45;&gt;s1271 -->
<g id="edge14" class="edge">
<title>s1263:p1&#45;&gt;s1271</title>
<path fill="none" stroke="#000000" d="M862.6487,-55.4156C892.8249,-55.4156 925.8155,-54.8565 955.2976,-54.1563"/>
<polygon fill="#000000" stroke="#000000" points="955.6583,-57.6486 965.5691,-53.9034 955.486,-50.6507 955.6583,-57.6486"/>
<text text-anchor="middle" x="914.0835" y="-58.6156" font-family="Times,serif" font-size="14.00" fill="#000000">_expression</text>
</g>
<!-- s1265 -->
<g id="node9" class="node">
<title>s1265</title>
<polygon fill="none" stroke="#000000" points="1159.8838,-95.6156 1159.8838,-145.2156 1261.4834,-145.2156 1261.4834,-95.6156 1159.8838,-95.6156"/>
<text text-anchor="middle" x="1200.9336" y="-124.6156" font-family="Times,serif" font-size="14.00" fill="#000000">s1265</text>
<text text-anchor="middle" x="1200.9336" y="-107.8156" font-family="Times,serif" font-size="14.00" fill="#000000">→ CHOICE</text>
<polyline fill="none" stroke="#000000" points="1241.9834,-95.6156 1241.9834,-145.2156 "/>
<text text-anchor="middle" x="1251.7334" y="-128.6156" font-family="Times,serif" font-size="14.00" fill="#000000"> </text>
<polyline fill="none" stroke="#000000" points="1241.9834,-120.4156 1261.4834,-120.4156 "/>
<text text-anchor="middle" x="1251.7334" y="-103.8156" font-family="Times,serif" font-size="14.00" fill="#000000"> </text>
</g>
<!-- s1264&#45;&gt;s1265 -->
<g id="edge10" class="edge">
<title>s1264&#45;&gt;s1265</title>
<path fill="none" stroke="#000000" d="M1072.4425,-120.4156C1093.4904,-120.4156 1123.03,-120.4156 1149.4024,-120.4156"/>
<polygon fill="#000000" stroke="#000000" points="1149.7101,-123.9157 1159.71,-120.4156 1149.71,-116.9157 1149.7101,-123.9157"/>
</g>
<!-- s1266 -->
<g id="node10" class="node">
<title>s1266</title>
<polygon fill="none" stroke="#000000" points="1298.4834,-137.6156 1298.4834,-179.2156 1354.9252,-179.2156 1354.9252,-137.6156 1298.4834,-137.6156"/>
<text text-anchor="middle" x="1326.7043" y="-162.6156" font-family="Times,serif" font-size="14.00" fill="#000000">s1266</text>
<text text-anchor="middle" x="1326.7043" y="-145.8156" font-family="Times,serif" font-size="14.00" fill="#000000">→ SEQ</text>
</g>
<!-- s1265&#45;&gt;s1266 -->
<g id="edge8" class="edge">
<title>s1265:p0&#45;&gt;s1266</title>
<path fill="none" stroke="#000000" d="M1261.4834,-132.4156C1270.7932,-132.4156 1280.3531,-134.7298 1289.1853,-137.9773"/>
<polygon fill="#000000" stroke="#000000" points="1287.8586,-141.2161 1298.4373,-141.8022 1290.5331,-134.7471 1287.8586,-141.2161"/>
</g>
<!-- s1269 -->
<g id="node13" class="node">
<title>s1269</title>
<ellipse fill="none" stroke="#000000" cx="1418.3278" cy="-104.4156" rx="45.3054" ry="29.3315"/>
<text text-anchor="middle" x="1418.3278" y="-108.6156" font-family="Times,serif" font-size="14.00" fill="#000000">s1269 </text>
<text text-anchor="middle" x="1418.3278" y="-91.8156" font-family="Times,serif" font-size="14.00" fill="#000000">BLANK</text>
</g>
<!-- s1265&#45;&gt;s1269 -->
<g id="edge9" class="edge">
<title>s1265:p1&#45;&gt;s1269</title>
<path fill="none" stroke="#000000" d="M1261.4834,-108.4156C1294.9865,-108.4156 1332.5022,-107.4923 1362.4407,-106.5328"/>
<polygon fill="#000000" stroke="#000000" points="1362.8166,-110.0224 1372.6953,-106.1934 1362.5849,-103.0262 1362.8166,-110.0224"/>
</g>
<!-- s1267 -->
<g id="node11" class="node">
<title>s1267</title>
<ellipse fill="none" stroke="#000000" cx="1554.909" cy="-159.4156" rx="73.3577" ry="29.3315"/>
<text text-anchor="middle" x="1554.909" y="-163.6156" font-family="Times,serif" font-size="14.00" fill="#000000">s1267 STRING</text>
<text text-anchor="middle" x="1554.909" y="-146.8156" font-family="Times,serif" font-size="14.00" fill="#000000">&quot;&#45;&gt;&quot;</text>
</g>
<!-- s1266&#45;&gt;s1267 -->
<g id="edge6" class="edge">
<title>s1266&#45;&gt;s1267</title>
<path fill="none" stroke="#000000" d="M1355.1451,-158.5403C1384.1137,-158.6672 1430.442,-158.8702 1471.1929,-159.0488"/>
<polygon fill="#000000" stroke="#000000" points="1471.4039,-162.5497 1481.4192,-159.0936 1471.4347,-155.5497 1471.4039,-162.5497"/>
</g>
<!-- s1268 -->
<g id="node12" class="node">
<title>s1268</title>
<g id="a_node12"><a xlink:href="rust-grammar.json._type.dot.svg" xlink:title="s1268 SYMBOL\n_type">
<ellipse fill="none" stroke="#000000" cx="1743.7704" cy="-159.4156" rx="78.8659" ry="29.3315"/>
<text text-anchor="middle" x="1743.7704" y="-163.6156" font-family="Times,serif" font-size="14.00" fill="#000000">s1268 SYMBOL</text>
<text text-anchor="middle" x="1743.7704" y="-146.8156" font-family="Times,serif" font-size="14.00" fill="#000000">_type</text>
</a>
</g>
</g>
<!-- s1267&#45;&gt;s1268 -->
<g id="edge7" class="edge">
<title>s1267&#45;&gt;s1268</title>
<path fill="none" stroke="#000000" d="M1628.1981,-159.4156C1636.9369,-159.4156 1645.9304,-159.4156 1654.8579,-159.4156"/>
<polygon fill="#000000" stroke="#000000" points="1654.8922,-162.9157 1664.8922,-159.4156 1654.8921,-155.9157 1654.8922,-162.9157"/>
</g>
<!-- s1270 -->
<g id="node14" class="node">
<title>s1270</title>
<g id="a_node14"><a xlink:href="rust-grammar.json.block.dot.svg" xlink:title="s1270 SYMBOL\nblock">
<ellipse fill="none" stroke="#000000" cx="1938.1359" cy="-114.4156" rx="78.8659" ry="29.3315"/>
<text text-anchor="middle" x="1938.1359" y="-118.6156" font-family="Times,serif" font-size="14.00" fill="#000000">s1270 SYMBOL</text>
<text text-anchor="middle" x="1938.1359" y="-101.8156" font-family="Times,serif" font-size="14.00" fill="#000000">block</text>
</a>
</g>
</g>
<!-- s1268&#45;&gt;s1270 -->
<g id="edge11" class="edge">
<title>s1268&#45;&gt;s1270</title>
<path fill="none" stroke="#000000" d="M1810.9321,-143.8662C1827.0158,-140.1425 1844.3159,-136.1371 1860.8179,-132.3165"/>
<polygon fill="#000000" stroke="#000000" points="1862.0187,-135.6312 1870.9715,-129.9657 1860.4397,-128.8115 1862.0187,-135.6312"/>
</g>
<!-- s1269&#45;&gt;s1270 -->
<g id="edge12" class="edge">
<title>s1269&#45;&gt;s1270</title>
<path fill="none" stroke="#000000" d="M1464.0017,-105.2943C1550.0076,-106.9489 1737.3654,-110.5532 1849.0901,-112.7026"/>
<polygon fill="#000000" stroke="#000000" points="1849.2617,-116.2064 1859.3272,-112.8995 1849.3964,-109.2077 1849.2617,-116.2064"/>
</g>
</g>
</svg>
