<?xml version="1.0" encoding="UTF-8" standalone="no"?>
<!DOCTYPE svg PUBLIC "-//W3C//DTD SVG 1.1//EN"
 "http://www.w3.org/Graphics/SVG/1.1/DTD/svg11.dtd">
<!-- Generated by graphviz version 2.40.1 (20161225.0304)
 -->
<!-- Title: integer_literal Pages: 1 -->
<svg width="1110pt" height="1068pt"
 viewBox="0.00 0.00 1109.83 1067.83" xmlns="http://www.w3.org/2000/svg" xmlns:xlink="http://www.w3.org/1999/xlink">
<g id="graph0" class="graph" transform="scale(1 1) rotate(0) translate(4 1063.8313)">
<title>integer_literal</title>
<polygon fill="#ffffff" stroke="transparent" points="-4,4 -4,-1063.8313 1105.8252,-1063.8313 1105.8252,4 -4,4"/>
<!-- s1476 -->
<g id="node1" class="node">
<title>s1476</title>
<polygon fill="none" stroke="#000000" points="0,-298.6156 0,-340.2156 77.425,-340.2156 77.425,-298.6156 0,-298.6156"/>
<text text-anchor="middle" x="38.7125" y="-323.6156" font-family="Times,serif" font-size="14.00" fill="#000000">s1476</text>
<text text-anchor="middle" x="38.7125" y="-306.8156" font-family="Times,serif" font-size="14.00" fill="#000000">→ TOKEN</text>
</g>
<!-- s1477 -->
<g id="node2" class="node">
<title>s1477</title>
<polygon fill="none" stroke="#000000" points="114.425,-298.6156 114.425,-340.2156 170.8668,-340.2156 170.8668,-298.6156 114.425,-298.6156"/>
<text text-anchor="middle" x="142.6459" y="-323.6156" font-family="Times,serif" font-size="14.00" fill="#000000">s1477</text>
<text text-anchor="middle" x="142.6459" y="-306.8156" font-family="Times,serif" font-size="14.00" fill="#000000">→ SEQ</text>
</g>
<!-- s1476&#45;&gt;s1477 -->
<g id="edge26" class="edge">
<title>s1476&#45;&gt;s1477</title>
<path fill="none" stroke="#000000" d="M77.7092,-319.4156C86.3088,-319.4156 95.4146,-319.4156 104.0002,-319.4156"/>
<polygon fill="#000000" stroke="#000000" points="104.1458,-322.9157 114.1458,-319.4156 104.1457,-315.9157 104.1458,-322.9157"/>
</g>
<!-- s1478 -->
<g id="node3" class="node">
<title>s1478</title>
<polygon fill="none" stroke="#000000" points="207.8668,-269.8156 207.8668,-369.0156 309.4664,-369.0156 309.4664,-269.8156 207.8668,-269.8156"/>
<text text-anchor="middle" x="248.9166" y="-323.6156" font-family="Times,serif" font-size="14.00" fill="#000000">s1478</text>
<text text-anchor="middle" x="248.9166" y="-306.8156" font-family="Times,serif" font-size="14.00" fill="#000000">→ CHOICE</text>
<polyline fill="none" stroke="#000000" points="289.9664,-269.8156 289.9664,-369.0156 "/>
<text text-anchor="middle" x="299.7164" y="-352.4156" font-family="Times,serif" font-size="14.00" fill="#000000"> </text>
<polyline fill="none" stroke="#000000" points="289.9664,-344.2156 309.4664,-344.2156 "/>
<text text-anchor="middle" x="299.7164" y="-327.6156" font-family="Times,serif" font-size="14.00" fill="#000000"> </text>
<polyline fill="none" stroke="#000000" points="289.9664,-319.4156 309.4664,-319.4156 "/>
<text text-anchor="middle" x="299.7164" y="-302.8156" font-family="Times,serif" font-size="14.00" fill="#000000"> </text>
<polyline fill="none" stroke="#000000" points="289.9664,-294.6156 309.4664,-294.6156 "/>
<text text-anchor="middle" x="299.7164" y="-278.0156" font-family="Times,serif" font-size="14.00" fill="#000000"> </text>
</g>
<!-- s1477&#45;&gt;s1478 -->
<g id="edge5" class="edge">
<title>s1477&#45;&gt;s1478</title>
<path fill="none" stroke="#000000" d="M171.0278,-319.4156C179.1074,-319.4156 188.2352,-319.4156 197.4709,-319.4156"/>
<polygon fill="#000000" stroke="#000000" points="197.4907,-322.9157 207.4907,-319.4156 197.4906,-315.9157 197.4907,-322.9157"/>
</g>
<!-- s1479 -->
<g id="node4" class="node">
<title>s1479</title>
<ellipse fill="none" stroke="#000000" cx="526.9664" cy="-435.4156" rx="81.9566" ry="29.3315"/>
<text text-anchor="middle" x="526.9664" y="-439.6156" font-family="Times,serif" font-size="14.00" fill="#000000">s1479 PATTERN</text>
<text text-anchor="middle" x="526.9664" y="-422.8156" font-family="Times,serif" font-size="14.00" fill="#000000">&quot;[0&#45;9][0&#45;9_]*&quot;</text>
</g>
<!-- s1478&#45;&gt;s1479 -->
<g id="edge1" class="edge">
<title>s1478:p0&#45;&gt;s1479</title>
<path fill="none" stroke="#000000" d="M299.6666,-369.4156C299.6666,-429.3858 373.539,-442.4295 437.0563,-442.5608"/>
<polygon fill="#000000" stroke="#000000" points="437.1783,-446.06 447.1486,-442.4762 437.1196,-439.0602 437.1783,-446.06"/>
<text text-anchor="middle" x="374.9474" y="-445.6156" font-family="Times,serif" font-size="14.00" fill="#000000">[0&#45;9][0&#45;9_]*</text>
</g>
<!-- s1480 -->
<g id="node5" class="node">
<title>s1480</title>
<ellipse fill="none" stroke="#000000" cx="526.9664" cy="-358.4156" rx="86.576" ry="29.3315"/>
<text text-anchor="middle" x="526.9664" y="-362.6156" font-family="Times,serif" font-size="14.00" fill="#000000">s1480 PATTERN</text>
<text text-anchor="middle" x="526.9664" y="-345.8156" font-family="Times,serif" font-size="14.00" fill="#000000">&quot;0x[0&#45;9a&#45;fA&#45;F_]+&quot;</text>
</g>
<!-- s1478&#45;&gt;s1480 -->
<g id="edge2" class="edge">
<title>s1478:p1&#45;&gt;s1480</title>
<path fill="none" stroke="#000000" d="M309.4664,-331.4156C353.0503,-331.4156 401.1752,-336.821 441.0521,-342.7945"/>
<polygon fill="#000000" stroke="#000000" points="440.5895,-346.2644 451.0048,-344.3226 441.6518,-339.3455 440.5895,-346.2644"/>
<text text-anchor="middle" x="374.9474" y="-342.6156" font-family="Times,serif" font-size="14.00" fill="#000000">0x[0&#45;9a&#45;fA&#45;F_]+</text>
</g>
<!-- s1481 -->
<g id="node6" class="node">
<title>s1481</title>
<ellipse fill="none" stroke="#000000" cx="526.9664" cy="-281.4156" rx="81.9566" ry="29.3315"/>
<text text-anchor="middle" x="526.9664" y="-285.6156" font-family="Times,serif" font-size="14.00" fill="#000000">s1481 PATTERN</text>
<text text-anchor="middle" x="526.9664" y="-268.8156" font-family="Times,serif" font-size="14.00" fill="#000000">&quot;0b[01_]+&quot;</text>
</g>
<!-- s1478&#45;&gt;s1481 -->
<g id="edge3" class="edge">
<title>s1478:p2&#45;&gt;s1481</title>
<path fill="none" stroke="#000000" d="M309.4664,-307.4156C353.815,-307.4156 402.893,-302.0203 443.1885,-296.1452"/>
<polygon fill="#000000" stroke="#000000" points="443.8626,-299.5834 453.2357,-294.6441 442.8283,-292.6602 443.8626,-299.5834"/>
<text text-anchor="middle" x="374.9474" y="-310.6156" font-family="Times,serif" font-size="14.00" fill="#000000">0b[01_]+</text>
</g>
<!-- s1482 -->
<g id="node7" class="node">
<title>s1482</title>
<ellipse fill="none" stroke="#000000" cx="526.9664" cy="-204.4156" rx="81.9566" ry="29.3315"/>
<text text-anchor="middle" x="526.9664" y="-208.6156" font-family="Times,serif" font-size="14.00" fill="#000000">s1482 PATTERN</text>
<text text-anchor="middle" x="526.9664" y="-191.8156" font-family="Times,serif" font-size="14.00" fill="#000000">&quot;0o[0&#45;7_]+&quot;</text>
</g>
<!-- s1478&#45;&gt;s1482 -->
<g id="edge4" class="edge">
<title>s1478:p3&#45;&gt;s1482</title>
<path fill="none" stroke="#000000" d="M309.4664,-282.4156C317.4509,-282.4156 399.6494,-252.2389 460.6509,-229.4252"/>
<polygon fill="#000000" stroke="#000000" points="462.1072,-232.6173 470.2447,-225.8327 459.6523,-226.0618 462.1072,-232.6173"/>
<text text-anchor="middle" x="374.9474" y="-280.6156" font-family="Times,serif" font-size="14.00" fill="#000000">0o[0&#45;7_]+</text>
</g>
<!-- s1483 -->
<g id="node8" class="node">
<title>s1483</title>
<polygon fill="none" stroke="#000000" points="650.5044,-294.6156 650.5044,-344.2156 752.104,-344.2156 752.104,-294.6156 650.5044,-294.6156"/>
<text text-anchor="middle" x="691.5542" y="-323.6156" font-family="Times,serif" font-size="14.00" fill="#000000">s1483</text>
<text text-anchor="middle" x="691.5542" y="-306.8156" font-family="Times,serif" font-size="14.00" fill="#000000">→ CHOICE</text>
<polyline fill="none" stroke="#000000" points="732.604,-294.6156 732.604,-344.2156 "/>
<text text-anchor="middle" x="742.354" y="-327.6156" font-family="Times,serif" font-size="14.00" fill="#000000"> </text>
<polyline fill="none" stroke="#000000" points="732.604,-319.4156 752.104,-319.4156 "/>
<text text-anchor="middle" x="742.354" y="-302.8156" font-family="Times,serif" font-size="14.00" fill="#000000"> </text>
</g>
<!-- s1479&#45;&gt;s1483 -->
<g id="edge22" class="edge">
<title>s1479&#45;&gt;s1483</title>
<path fill="none" stroke="#000000" d="M582.2684,-413.453C592.9371,-408.4009 603.8032,-402.6569 613.5044,-396.4156 633.4323,-383.595 653.4646,-366.4315 669.3523,-351.5628"/>
<polygon fill="#000000" stroke="#000000" points="671.9676,-353.9055 676.8002,-344.477 667.1427,-348.834 671.9676,-353.9055"/>
</g>
<!-- s1480&#45;&gt;s1483 -->
<g id="edge23" class="edge">
<title>s1480&#45;&gt;s1483</title>
<path fill="none" stroke="#000000" d="M599.3867,-342.2149C613.0294,-339.163 627.1684,-336.0001 640.4144,-333.0369"/>
<polygon fill="#000000" stroke="#000000" points="641.3519,-336.4138 650.3466,-330.815 639.8237,-329.5826 641.3519,-336.4138"/>
</g>
<!-- s1481&#45;&gt;s1483 -->
<g id="edge24" class="edge">
<title>s1481&#45;&gt;s1483</title>
<path fill="none" stroke="#000000" d="M597.1227,-296.7074C611.4364,-299.8274 626.387,-303.0861 640.3483,-306.1292"/>
<polygon fill="#000000" stroke="#000000" points="639.8003,-309.5919 650.3163,-308.3019 641.2911,-302.7525 639.8003,-309.5919"/>
</g>
<!-- s1482&#45;&gt;s1483 -->
<g id="edge25" class="edge">
<title>s1482&#45;&gt;s1483</title>
<path fill="none" stroke="#000000" d="M582.2365,-226.4281C592.9078,-231.4761 603.783,-237.2058 613.5044,-243.4156 633.2154,-256.0066 653.093,-272.7942 668.938,-287.3888"/>
<polygon fill="#000000" stroke="#000000" points="666.6816,-290.0708 676.3741,-294.3492 671.4652,-284.9602 666.6816,-290.0708"/>
</g>
<!-- s1484 -->
<g id="node9" class="node">
<title>s1484</title>
<polygon fill="none" stroke="#000000" points="789.104,-355.8156 789.104,-703.0156 890.7036,-703.0156 890.7036,-355.8156 789.104,-355.8156"/>
<text text-anchor="middle" x="830.1538" y="-533.6156" font-family="Times,serif" font-size="14.00" fill="#000000">s1484</text>
<text text-anchor="middle" x="830.1538" y="-516.8156" font-family="Times,serif" font-size="14.00" fill="#000000">→ CHOICE</text>
<polyline fill="none" stroke="#000000" points="871.2036,-355.8156 871.2036,-703.0156 "/>
<text text-anchor="middle" x="880.9536" y="-686.4156" font-family="Times,serif" font-size="14.00" fill="#000000"> </text>
<polyline fill="none" stroke="#000000" points="871.2036,-678.2156 890.7036,-678.2156 "/>
<text text-anchor="middle" x="880.9536" y="-661.6156" font-family="Times,serif" font-size="14.00" fill="#000000"> </text>
<polyline fill="none" stroke="#000000" points="871.2036,-653.4156 890.7036,-653.4156 "/>
<text text-anchor="middle" x="880.9536" y="-636.8156" font-family="Times,serif" font-size="14.00" fill="#000000"> </text>
<polyline fill="none" stroke="#000000" points="871.2036,-628.6156 890.7036,-628.6156 "/>
<text text-anchor="middle" x="880.9536" y="-612.0156" font-family="Times,serif" font-size="14.00" fill="#000000"> </text>
<polyline fill="none" stroke="#000000" points="871.2036,-603.8156 890.7036,-603.8156 "/>
<text text-anchor="middle" x="880.9536" y="-587.2156" font-family="Times,serif" font-size="14.00" fill="#000000"> </text>
<polyline fill="none" stroke="#000000" points="871.2036,-579.0156 890.7036,-579.0156 "/>
<text text-anchor="middle" x="880.9536" y="-562.4156" font-family="Times,serif" font-size="14.00" fill="#000000"> </text>
<polyline fill="none" stroke="#000000" points="871.2036,-554.2156 890.7036,-554.2156 "/>
<text text-anchor="middle" x="880.9536" y="-537.6156" font-family="Times,serif" font-size="14.00" fill="#000000"> </text>
<polyline fill="none" stroke="#000000" points="871.2036,-529.4156 890.7036,-529.4156 "/>
<text text-anchor="middle" x="880.9536" y="-512.8156" font-family="Times,serif" font-size="14.00" fill="#000000"> </text>
<polyline fill="none" stroke="#000000" points="871.2036,-504.6156 890.7036,-504.6156 "/>
<text text-anchor="middle" x="880.9536" y="-488.0156" font-family="Times,serif" font-size="14.00" fill="#000000"> </text>
<polyline fill="none" stroke="#000000" points="871.2036,-479.8156 890.7036,-479.8156 "/>
<text text-anchor="middle" x="880.9536" y="-463.2156" font-family="Times,serif" font-size="14.00" fill="#000000"> </text>
<polyline fill="none" stroke="#000000" points="871.2036,-455.0156 890.7036,-455.0156 "/>
<text text-anchor="middle" x="880.9536" y="-438.4156" font-family="Times,serif" font-size="14.00" fill="#000000"> </text>
<polyline fill="none" stroke="#000000" points="871.2036,-430.2156 890.7036,-430.2156 "/>
<text text-anchor="middle" x="880.9536" y="-413.6156" font-family="Times,serif" font-size="14.00" fill="#000000"> </text>
<polyline fill="none" stroke="#000000" points="871.2036,-405.4156 890.7036,-405.4156 "/>
<text text-anchor="middle" x="880.9536" y="-388.8156" font-family="Times,serif" font-size="14.00" fill="#000000"> </text>
<polyline fill="none" stroke="#000000" points="871.2036,-380.6156 890.7036,-380.6156 "/>
<text text-anchor="middle" x="880.9536" y="-364.0156" font-family="Times,serif" font-size="14.00" fill="#000000"> </text>
</g>
<!-- s1483&#45;&gt;s1484 -->
<g id="edge20" class="edge">
<title>s1483:p0&#45;&gt;s1484</title>
<path fill="none" stroke="#000000" d="M742.3042,-344.4156C742.3042,-385.9175 761.7561,-427.2348 783.292,-460.2608"/>
<polygon fill="#000000" stroke="#000000" points="780.621,-462.5614 789.1029,-468.9102 786.4314,-458.6577 780.621,-462.5614"/>
</g>
<!-- s1499 -->
<g id="node24" class="node">
<title>s1499</title>
<ellipse fill="none" stroke="#000000" cx="839.9038" cy="-307.4156" rx="45.3054" ry="29.3315"/>
<text text-anchor="middle" x="839.9038" y="-311.6156" font-family="Times,serif" font-size="14.00" fill="#000000">s1499 </text>
<text text-anchor="middle" x="839.9038" y="-294.8156" font-family="Times,serif" font-size="14.00" fill="#000000">BLANK</text>
</g>
<!-- s1483&#45;&gt;s1499 -->
<g id="edge21" class="edge">
<title>s1483:p1&#45;&gt;s1499</title>
<path fill="none" stroke="#000000" d="M752.104,-307.4156C762.5002,-307.4156 773.5889,-307.4156 784.2631,-307.4156"/>
<polygon fill="#000000" stroke="#000000" points="784.334,-310.9157 794.334,-307.4156 784.334,-303.9157 784.334,-310.9157"/>
</g>
<!-- s1485 -->
<g id="node10" class="node">
<title>s1485</title>
<ellipse fill="none" stroke="#000000" cx="1028.6466" cy="-1030.4156" rx="73.3577" ry="29.3315"/>
<text text-anchor="middle" x="1028.6466" y="-1034.6156" font-family="Times,serif" font-size="14.00" fill="#000000">s1485 STRING</text>
<text text-anchor="middle" x="1028.6466" y="-1017.8156" font-family="Times,serif" font-size="14.00" fill="#000000">&quot;u8&quot;</text>
</g>
<!-- s1484&#45;&gt;s1485 -->
<g id="edge6" class="edge">
<title>s1484:p0&#45;&gt;s1485</title>
<path fill="none" stroke="#000000" d="M880.9038,-703.4156C880.9038,-751.1504 892.62,-871.472 908.7036,-916.4156 921.9392,-953.4009 926.7646,-964.5975 955.468,-991.4156 960.0241,-995.6725 965.1333,-999.6054 970.478,-1003.202"/>
<polygon fill="#000000" stroke="#000000" points="968.6961,-1006.2159 979.025,-1008.5752 972.4218,-1000.2897 968.6961,-1006.2159"/>
<text text-anchor="middle" x="923.0858" y="-976.6156" font-family="Times,serif" font-size="14.00" fill="#000000">u8</text>
</g>
<!-- s1486 -->
<g id="node11" class="node">
<title>s1486</title>
<ellipse fill="none" stroke="#000000" cx="1028.6466" cy="-953.4156" rx="73.3577" ry="29.3315"/>
<text text-anchor="middle" x="1028.6466" y="-957.6156" font-family="Times,serif" font-size="14.00" fill="#000000">s1486 STRING</text>
<text text-anchor="middle" x="1028.6466" y="-940.8156" font-family="Times,serif" font-size="14.00" fill="#000000">&quot;i8&quot;</text>
</g>
<!-- s1484&#45;&gt;s1486 -->
<g id="edge7" class="edge">
<title>s1484:p1&#45;&gt;s1486</title>
<path fill="none" stroke="#000000" d="M890.7036,-665.4156C910.0296,-665.4156 902.4843,-820.1177 908.7036,-838.4156 921.4666,-875.9659 926.5689,-887.2538 955.468,-914.4156 960.0115,-918.686 965.1123,-922.6278 970.4518,-926.2299"/>
<polygon fill="#000000" stroke="#000000" points="968.6662,-929.2416 978.9931,-931.6091 972.3966,-923.3184 968.6662,-929.2416"/>
<text text-anchor="middle" x="923.0858" y="-899.6156" font-family="Times,serif" font-size="14.00" fill="#000000">i8</text>
</g>
<!-- s1487 -->
<g id="node12" class="node">
<title>s1487</title>
<ellipse fill="none" stroke="#000000" cx="1028.6466" cy="-876.4156" rx="73.3577" ry="29.3315"/>
<text text-anchor="middle" x="1028.6466" y="-880.6156" font-family="Times,serif" font-size="14.00" fill="#000000">s1487 STRING</text>
<text text-anchor="middle" x="1028.6466" y="-863.8156" font-family="Times,serif" font-size="14.00" fill="#000000">&quot;u16&quot;</text>
</g>
<!-- s1484&#45;&gt;s1487 -->
<g id="edge8" class="edge">
<title>s1484:p2&#45;&gt;s1487</title>
<path fill="none" stroke="#000000" d="M890.7036,-641.4156C917.4488,-641.4156 899.584,-735.2732 908.7036,-760.4156 922.3561,-798.0554 926.3725,-809.9094 955.468,-837.4156 959.9991,-841.6992 965.0917,-845.6497 970.4261,-849.2572"/>
<polygon fill="#000000" stroke="#000000" points="968.6368,-852.2667 978.9618,-854.6424 972.3718,-846.3464 968.6368,-852.2667"/>
<text text-anchor="middle" x="923.0858" y="-821.6156" font-family="Times,serif" font-size="14.00" fill="#000000">u16</text>
</g>
<!-- s1488 -->
<g id="node13" class="node">
<title>s1488</title>
<ellipse fill="none" stroke="#000000" cx="1028.6466" cy="-799.4156" rx="73.3577" ry="29.3315"/>
<text text-anchor="middle" x="1028.6466" y="-803.6156" font-family="Times,serif" font-size="14.00" fill="#000000">s1488 STRING</text>
<text text-anchor="middle" x="1028.6466" y="-786.8156" font-family="Times,serif" font-size="14.00" fill="#000000">&quot;i16&quot;</text>
</g>
<!-- s1484&#45;&gt;s1488 -->
<g id="edge9" class="edge">
<title>s1484:p3&#45;&gt;s1488</title>
<path fill="none" stroke="#000000" d="M890.7036,-616.4156C918.9704,-616.4156 897.6956,-651.3804 908.7036,-677.4156 925.1926,-716.4142 925.1794,-730.8289 955.468,-760.4156 959.9284,-764.7727 964.9743,-768.7719 970.2798,-772.4094"/>
<polygon fill="#000000" stroke="#000000" points="968.4695,-775.406 978.7839,-777.8275 972.2308,-769.5024 968.4695,-775.406"/>
<text text-anchor="middle" x="923.0858" y="-743.6156" font-family="Times,serif" font-size="14.00" fill="#000000">i16</text>
</g>
<!-- s1489 -->
<g id="node14" class="node">
<title>s1489</title>
<ellipse fill="none" stroke="#000000" cx="1028.6466" cy="-722.4156" rx="73.3577" ry="29.3315"/>
<text text-anchor="middle" x="1028.6466" y="-726.6156" font-family="Times,serif" font-size="14.00" fill="#000000">s1489 STRING</text>
<text text-anchor="middle" x="1028.6466" y="-709.8156" font-family="Times,serif" font-size="14.00" fill="#000000">&quot;u32&quot;</text>
</g>
<!-- s1484&#45;&gt;s1489 -->
<g id="edge10" class="edge">
<title>s1484:p4&#45;&gt;s1489</title>
<path fill="none" stroke="#000000" d="M890.7036,-591.4156C896.9541,-591.4156 950.7834,-679.2775 955.468,-683.4156 960.212,-687.6062 965.4851,-691.5078 970.9657,-695.096"/>
<polygon fill="#000000" stroke="#000000" points="969.3516,-698.2124 979.7024,-700.4732 973.0207,-692.251 969.3516,-698.2124"/>
<text text-anchor="middle" x="923.0858" y="-660.6156" font-family="Times,serif" font-size="14.00" fill="#000000">u32</text>
</g>
<!-- s1490 -->
<g id="node15" class="node">
<title>s1490</title>
<ellipse fill="none" stroke="#000000" cx="1028.6466" cy="-645.4156" rx="73.3577" ry="29.3315"/>
<text text-anchor="middle" x="1028.6466" y="-649.6156" font-family="Times,serif" font-size="14.00" fill="#000000">s1490 STRING</text>
<text text-anchor="middle" x="1028.6466" y="-632.8156" font-family="Times,serif" font-size="14.00" fill="#000000">&quot;i32&quot;</text>
</g>
<!-- s1484&#45;&gt;s1490 -->
<g id="edge11" class="edge">
<title>s1484:p5&#45;&gt;s1490</title>
<path fill="none" stroke="#000000" d="M890.7036,-566.4156C924.5352,-566.4156 926.1329,-589.5624 955.468,-606.4156 961.647,-609.9655 968.1724,-613.6007 974.6794,-617.1556"/>
<polygon fill="#000000" stroke="#000000" points="973.0468,-620.2517 983.5066,-621.9376 976.3811,-614.0968 973.0468,-620.2517"/>
<text text-anchor="middle" x="923.0858" y="-596.6156" font-family="Times,serif" font-size="14.00" fill="#000000">i32</text>
</g>
<!-- s1491 -->
<g id="node16" class="node">
<title>s1491</title>
<ellipse fill="none" stroke="#000000" cx="1028.6466" cy="-568.4156" rx="73.3577" ry="29.3315"/>
<text text-anchor="middle" x="1028.6466" y="-572.6156" font-family="Times,serif" font-size="14.00" fill="#000000">s1491 STRING</text>
<text text-anchor="middle" x="1028.6466" y="-555.8156" font-family="Times,serif" font-size="14.00" fill="#000000">&quot;u64&quot;</text>
</g>
<!-- s1484&#45;&gt;s1491 -->
<g id="edge12" class="edge">
<title>s1484:p6&#45;&gt;s1491</title>
<path fill="none" stroke="#000000" d="M890.7036,-541.4156C913.1352,-541.4156 937.2429,-544.8968 958.9309,-549.3591"/>
<polygon fill="#000000" stroke="#000000" points="958.1974,-552.7813 968.7107,-551.4694 959.674,-545.9388 958.1974,-552.7813"/>
<text text-anchor="middle" x="923.0858" y="-548.6156" font-family="Times,serif" font-size="14.00" fill="#000000">u64</text>
</g>
<!-- s1492 -->
<g id="node17" class="node">
<title>s1492</title>
<ellipse fill="none" stroke="#000000" cx="1028.6466" cy="-491.4156" rx="73.3577" ry="29.3315"/>
<text text-anchor="middle" x="1028.6466" y="-495.6156" font-family="Times,serif" font-size="14.00" fill="#000000">s1492 STRING</text>
<text text-anchor="middle" x="1028.6466" y="-478.8156" font-family="Times,serif" font-size="14.00" fill="#000000">&quot;i64&quot;</text>
</g>
<!-- s1484&#45;&gt;s1492 -->
<g id="edge13" class="edge">
<title>s1484:p7&#45;&gt;s1492</title>
<path fill="none" stroke="#000000" d="M890.7036,-517.4156C912.7938,-517.4156 936.5349,-514.1559 957.9882,-509.9449"/>
<polygon fill="#000000" stroke="#000000" points="958.9062,-513.3294 967.9932,-507.8818 957.4924,-506.4736 958.9062,-513.3294"/>
<text text-anchor="middle" x="923.0858" y="-520.6156" font-family="Times,serif" font-size="14.00" fill="#000000">i64</text>
</g>
<!-- s1493 -->
<g id="node18" class="node">
<title>s1493</title>
<ellipse fill="none" stroke="#000000" cx="1028.6466" cy="-414.4156" rx="73.3577" ry="29.3315"/>
<text text-anchor="middle" x="1028.6466" y="-418.6156" font-family="Times,serif" font-size="14.00" fill="#000000">s1493 STRING</text>
<text text-anchor="middle" x="1028.6466" y="-401.8156" font-family="Times,serif" font-size="14.00" fill="#000000">&quot;u128&quot;</text>
</g>
<!-- s1484&#45;&gt;s1493 -->
<g id="edge14" class="edge">
<title>s1484:p8&#45;&gt;s1493</title>
<path fill="none" stroke="#000000" d="M890.7036,-492.4156C924.3038,-492.4156 926.2399,-469.9894 955.468,-453.4156 961.753,-449.8518 968.3862,-446.1863 974.9895,-442.5961"/>
<polygon fill="#000000" stroke="#000000" points="976.8035,-445.5944 983.9401,-437.7637 973.4779,-439.4348 976.8035,-445.5944"/>
<text text-anchor="middle" x="923.0858" y="-493.6156" font-family="Times,serif" font-size="14.00" fill="#000000">u128</text>
</g>
<!-- s1494 -->
<g id="node19" class="node">
<title>s1494</title>
<ellipse fill="none" stroke="#000000" cx="1028.6466" cy="-337.4156" rx="73.3577" ry="29.3315"/>
<text text-anchor="middle" x="1028.6466" y="-341.6156" font-family="Times,serif" font-size="14.00" fill="#000000">s1494 STRING</text>
<text text-anchor="middle" x="1028.6466" y="-324.8156" font-family="Times,serif" font-size="14.00" fill="#000000">&quot;i128&quot;</text>
</g>
<!-- s1484&#45;&gt;s1494 -->
<g id="edge15" class="edge">
<title>s1484:p9&#45;&gt;s1494</title>
<path fill="none" stroke="#000000" d="M890.7036,-467.4156C896.9088,-467.4156 950.8068,-380.5117 955.468,-376.4156 960.2228,-372.2373 965.503,-368.3437 970.9879,-364.7605"/>
<polygon fill="#000000" stroke="#000000" points="973.0419,-367.6063 979.7293,-359.3886 969.3769,-361.6424 973.0419,-367.6063"/>
<text text-anchor="middle" x="923.0858" y="-447.6156" font-family="Times,serif" font-size="14.00" fill="#000000">i128</text>
</g>
<!-- s1495 -->
<g id="node20" class="node">
<title>s1495</title>
<ellipse fill="none" stroke="#000000" cx="1028.6466" cy="-260.4156" rx="73.3577" ry="29.3315"/>
<text text-anchor="middle" x="1028.6466" y="-264.6156" font-family="Times,serif" font-size="14.00" fill="#000000">s1495 STRING</text>
<text text-anchor="middle" x="1028.6466" y="-247.8156" font-family="Times,serif" font-size="14.00" fill="#000000">&quot;isize&quot;</text>
</g>
<!-- s1484&#45;&gt;s1495 -->
<g id="edge16" class="edge">
<title>s1484:p10&#45;&gt;s1495</title>
<path fill="none" stroke="#000000" d="M890.7036,-442.4156C918.8851,-442.4156 897.6633,-407.5446 908.7036,-381.6156 925.1697,-342.9435 925.3399,-328.7237 955.468,-299.4156 959.9375,-295.0678 964.9893,-291.0748 970.2985,-287.4411"/>
<polygon fill="#000000" stroke="#000000" points="972.2489,-290.3486 978.8067,-282.0272 968.4909,-284.4428 972.2489,-290.3486"/>
<text text-anchor="middle" x="923.0858" y="-385.6156" font-family="Times,serif" font-size="14.00" fill="#000000">isize</text>
</g>
<!-- s1496 -->
<g id="node21" class="node">
<title>s1496</title>
<ellipse fill="none" stroke="#000000" cx="1028.6466" cy="-183.4156" rx="73.3577" ry="29.3315"/>
<text text-anchor="middle" x="1028.6466" y="-187.6156" font-family="Times,serif" font-size="14.00" fill="#000000">s1496 STRING</text>
<text text-anchor="middle" x="1028.6466" y="-170.8156" font-family="Times,serif" font-size="14.00" fill="#000000">&quot;usize&quot;</text>
</g>
<!-- s1484&#45;&gt;s1496 -->
<g id="edge17" class="edge">
<title>s1484:p11&#45;&gt;s1496</title>
<path fill="none" stroke="#000000" d="M890.7036,-417.4156C917.4049,-417.4156 899.5376,-323.6944 908.7036,-298.6156 922.344,-261.2944 926.5297,-249.6463 955.468,-222.4156 960.009,-218.1426 965.1082,-214.1991 970.4466,-210.5959"/>
<polygon fill="#000000" stroke="#000000" points="972.3916,-213.5073 978.9868,-205.2154 968.6603,-207.5846 972.3916,-213.5073"/>
<text text-anchor="middle" x="923.0858" y="-302.6156" font-family="Times,serif" font-size="14.00" fill="#000000">usize</text>
</g>
<!-- s1497 -->
<g id="node22" class="node">
<title>s1497</title>
<ellipse fill="none" stroke="#000000" cx="1028.6466" cy="-106.4156" rx="73.3577" ry="29.3315"/>
<text text-anchor="middle" x="1028.6466" y="-110.6156" font-family="Times,serif" font-size="14.00" fill="#000000">s1497 STRING</text>
<text text-anchor="middle" x="1028.6466" y="-93.8156" font-family="Times,serif" font-size="14.00" fill="#000000">&quot;f32&quot;</text>
</g>
<!-- s1484&#45;&gt;s1497 -->
<g id="edge18" class="edge">
<title>s1484:p12&#45;&gt;s1497</title>
<path fill="none" stroke="#000000" d="M890.7036,-393.4156C910.0075,-393.4156 902.4471,-238.8775 908.7036,-220.6156 921.4597,-183.3825 926.7255,-172.3024 955.468,-145.4156 960.0216,-141.156 965.1291,-137.2214 970.4727,-133.6237"/>
<polygon fill="#000000" stroke="#000000" points="972.4167,-136.5358 979.0186,-128.2493 968.6901,-130.6102 972.4167,-136.5358"/>
<text text-anchor="middle" x="923.0858" y="-225.6156" font-family="Times,serif" font-size="14.00" fill="#000000">f32</text>
</g>
<!-- s1498 -->
<g id="node23" class="node">
<title>s1498</title>
<ellipse fill="none" stroke="#000000" cx="1028.6466" cy="-29.4156" rx="73.3577" ry="29.3315"/>
<text text-anchor="middle" x="1028.6466" y="-33.6156" font-family="Times,serif" font-size="14.00" fill="#000000">s1498 STRING</text>
<text text-anchor="middle" x="1028.6466" y="-16.8156" font-family="Times,serif" font-size="14.00" fill="#000000">&quot;f64&quot;</text>
</g>
<!-- s1484&#45;&gt;s1498 -->
<g id="edge19" class="edge">
<title>s1484:p13&#45;&gt;s1498</title>
<path fill="none" stroke="#000000" d="M880.9038,-355.4156C880.9038,-349.1928 888.0975,-351.0664 890.7036,-345.4156 928.4145,-263.6478 880.1518,-229.0141 908.7036,-143.6156 921.1832,-106.2889 926.7255,-95.3024 955.468,-68.4156 960.0216,-64.156 965.1291,-60.2214 970.4727,-56.6237"/>
<polygon fill="#000000" stroke="#000000" points="972.4167,-59.5358 979.0186,-51.2493 968.6901,-53.6102 972.4167,-59.5358"/>
<text text-anchor="middle" x="923.0858" y="-148.6156" font-family="Times,serif" font-size="14.00" fill="#000000">f64</text>
</g>
</g>
</svg>
