<?xml version="1.0" encoding="UTF-8" standalone="no"?>
<!DOCTYPE svg PUBLIC "-//W3C//DTD SVG 1.1//EN"
 "http://www.w3.org/Graphics/SVG/1.1/DTD/svg11.dtd">
<!-- Generated by graphviz version 2.40.1 (20161225.0304)
 -->
<!-- Title: _use_clause Pages: 1 -->
<svg width="382pt" height="375pt"
 viewBox="0.00 0.00 382.25 374.83" xmlns="http://www.w3.org/2000/svg" xmlns:xlink="http://www.w3.org/1999/xlink">
<g id="graph0" class="graph" transform="scale(1 1) rotate(0) translate(4 370.8313)">
<title>_use_clause</title>
<polygon fill="#ffffff" stroke="transparent" points="-4,4 -4,-370.8313 378.2456,-370.8313 378.2456,4 -4,4"/>
<!-- s665 -->
<g id="node1" class="node">
<title>s665</title>
<polygon fill="none" stroke="#000000" points="0,-121.4156 0,-245.4156 101.5996,-245.4156 101.5996,-121.4156 0,-121.4156"/>
<text text-anchor="middle" x="41.0498" y="-187.6156" font-family="Times,serif" font-size="14.00" fill="#000000">s665</text>
<text text-anchor="middle" x="41.0498" y="-170.8156" font-family="Times,serif" font-size="14.00" fill="#000000">→ CHOICE</text>
<polyline fill="none" stroke="#000000" points="82.0996,-121.4156 82.0996,-245.4156 "/>
<text text-anchor="middle" x="91.8496" y="-228.8156" font-family="Times,serif" font-size="14.00" fill="#000000"> </text>
<polyline fill="none" stroke="#000000" points="82.0996,-220.6156 101.5996,-220.6156 "/>
<text text-anchor="middle" x="91.8496" y="-204.0156" font-family="Times,serif" font-size="14.00" fill="#000000"> </text>
<polyline fill="none" stroke="#000000" points="82.0996,-195.8156 101.5996,-195.8156 "/>
<text text-anchor="middle" x="91.8496" y="-179.2156" font-family="Times,serif" font-size="14.00" fill="#000000"> </text>
<polyline fill="none" stroke="#000000" points="82.0996,-171.0156 101.5996,-171.0156 "/>
<text text-anchor="middle" x="91.8496" y="-154.4156" font-family="Times,serif" font-size="14.00" fill="#000000"> </text>
<polyline fill="none" stroke="#000000" points="82.0996,-146.2156 101.5996,-146.2156 "/>
<text text-anchor="middle" x="91.8496" y="-129.6156" font-family="Times,serif" font-size="14.00" fill="#000000"> </text>
</g>
<!-- s666 -->
<g id="node2" class="node">
<title>s666</title>
<g id="a_node2"><a xlink:href="rust-grammar.json._path.dot.svg" xlink:title="s666 SYMBOL\n_path">
<ellipse fill="none" stroke="#000000" cx="300.2473" cy="-337.4156" rx="73.9667" ry="29.3315"/>
<text text-anchor="middle" x="300.2473" y="-341.6156" font-family="Times,serif" font-size="14.00" fill="#000000">s666 SYMBOL</text>
<text text-anchor="middle" x="300.2473" y="-324.8156" font-family="Times,serif" font-size="14.00" fill="#000000">_path</text>
</a>
</g>
</g>
<!-- s665&#45;&gt;s666 -->
<g id="edge1" class="edge">
<title>s665:p0&#45;&gt;s666</title>
<path fill="none" stroke="#000000" d="M91.7998,-245.4156C91.7998,-302.8147 158.7704,-324.7022 216.7913,-332.8939"/>
<polygon fill="#000000" stroke="#000000" points="216.3902,-336.3711 226.7565,-334.1823 217.2879,-329.4289 216.3902,-336.3711"/>
<text text-anchor="middle" x="163.9243" y="-334.6156" font-family="Times,serif" font-size="14.00" fill="#000000">_path</text>
</g>
<!-- s667 -->
<g id="node3" class="node">
<title>s667</title>
<g id="a_node3"><a xlink:href="rust-grammar.json.use_as_clause.dot.svg" xlink:title="s667 SYMBOL\nuse_as_clause">
<ellipse fill="none" stroke="#000000" cx="300.2473" cy="-260.4156" rx="73.9667" ry="29.3315"/>
<text text-anchor="middle" x="300.2473" y="-264.6156" font-family="Times,serif" font-size="14.00" fill="#000000">s667 SYMBOL</text>
<text text-anchor="middle" x="300.2473" y="-247.8156" font-family="Times,serif" font-size="14.00" fill="#000000">use_as_clause</text>
</a>
</g>
</g>
<!-- s665&#45;&gt;s667 -->
<g id="edge2" class="edge">
<title>s665:p1&#45;&gt;s667</title>
<path fill="none" stroke="#000000" d="M101.5996,-208.4156C148.9243,-208.4156 200.5842,-222.3984 239.3578,-235.8622"/>
<polygon fill="#000000" stroke="#000000" points="238.3326,-239.2124 248.9273,-239.2653 240.678,-232.617 238.3326,-239.2124"/>
<text text-anchor="middle" x="163.9243" y="-228.6156" font-family="Times,serif" font-size="14.00" fill="#000000">use_as_clause</text>
</g>
<!-- s668 -->
<g id="node4" class="node">
<title>s668</title>
<g id="a_node4"><a xlink:href="rust-grammar.json.use_list.dot.svg" xlink:title="s668 SYMBOL\nuse_list">
<ellipse fill="none" stroke="#000000" cx="300.2473" cy="-183.4156" rx="73.9667" ry="29.3315"/>
<text text-anchor="middle" x="300.2473" y="-187.6156" font-family="Times,serif" font-size="14.00" fill="#000000">s668 SYMBOL</text>
<text text-anchor="middle" x="300.2473" y="-170.8156" font-family="Times,serif" font-size="14.00" fill="#000000">use_list</text>
</a>
</g>
</g>
<!-- s665&#45;&gt;s668 -->
<g id="edge3" class="edge">
<title>s665:p2&#45;&gt;s668</title>
<path fill="none" stroke="#000000" d="M101.5996,-183.4156C139.1094,-183.4156 180.6033,-183.4156 215.9253,-183.4156"/>
<polygon fill="#000000" stroke="#000000" points="216.1953,-186.9157 226.1952,-183.4156 216.1952,-179.9157 216.1953,-186.9157"/>
<text text-anchor="middle" x="163.9243" y="-187.6156" font-family="Times,serif" font-size="14.00" fill="#000000">use_list</text>
</g>
<!-- s669 -->
<g id="node5" class="node">
<title>s669</title>
<g id="a_node5"><a xlink:href="rust-grammar.json.scoped_use_list.dot.svg" xlink:title="s669 SYMBOL\nscoped_use_list">
<ellipse fill="none" stroke="#000000" cx="300.2473" cy="-106.4156" rx="73.9966" ry="29.3315"/>
<text text-anchor="middle" x="300.2473" y="-110.6156" font-family="Times,serif" font-size="14.00" fill="#000000">s669 SYMBOL</text>
<text text-anchor="middle" x="300.2473" y="-93.8156" font-family="Times,serif" font-size="14.00" fill="#000000">scoped_use_list</text>
</a>
</g>
</g>
<!-- s665&#45;&gt;s669 -->
<g id="edge4" class="edge">
<title>s665:p3&#45;&gt;s669</title>
<path fill="none" stroke="#000000" d="M101.5996,-158.4156C148.76,-158.4156 200.2255,-144.5298 238.9534,-131.1093"/>
<polygon fill="#000000" stroke="#000000" points="240.2612,-134.3591 248.5147,-127.7161 237.9199,-127.7623 240.2612,-134.3591"/>
<text text-anchor="middle" x="163.9243" y="-161.6156" font-family="Times,serif" font-size="14.00" fill="#000000">scoped_use_list</text>
</g>
<!-- s670 -->
<g id="node6" class="node">
<title>s670</title>
<g id="a_node6"><a xlink:href="rust-grammar.json.use_wildcard.dot.svg" xlink:title="s670 SYMBOL\nuse_wildcard">
<ellipse fill="none" stroke="#000000" cx="300.2473" cy="-29.4156" rx="73.9667" ry="29.3315"/>
<text text-anchor="middle" x="300.2473" y="-33.6156" font-family="Times,serif" font-size="14.00" fill="#000000">s670 SYMBOL</text>
<text text-anchor="middle" x="300.2473" y="-16.8156" font-family="Times,serif" font-size="14.00" fill="#000000">use_wildcard</text>
</a>
</g>
</g>
<!-- s665&#45;&gt;s670 -->
<g id="edge5" class="edge">
<title>s665:p4&#45;&gt;s670</title>
<path fill="none" stroke="#000000" d="M91.7998,-121.4156C91.7998,-64.0165 158.7704,-42.1291 216.7913,-33.9374"/>
<polygon fill="#000000" stroke="#000000" points="217.2879,-37.4024 226.7565,-32.649 216.3902,-30.4602 217.2879,-37.4024"/>
<text text-anchor="middle" x="163.9243" y="-70.6156" font-family="Times,serif" font-size="14.00" fill="#000000">use_wildcard</text>
</g>
</g>
</svg>
