<?xml version="1.0" encoding="UTF-8" standalone="no"?>
<!DOCTYPE svg PUBLIC "-//W3C//DTD SVG 1.1//EN"
 "http://www.w3.org/Graphics/SVG/1.1/DTD/svg11.dtd">
<!-- Generated by graphviz version 2.40.1 (20161225.0304)
 -->
<!-- Title: const_item Pages: 1 -->
<svg width="2084pt" height="144pt"
 viewBox="0.00 0.00 2084.23 143.83" xmlns="http://www.w3.org/2000/svg" xmlns:xlink="http://www.w3.org/1999/xlink">
<g id="graph0" class="graph" transform="scale(1 1) rotate(0) translate(4 139.8313)">
<title>const_item</title>
<polygon fill="#ffffff" stroke="transparent" points="-4,4 -4,-139.8313 2080.2267,-139.8313 2080.2267,4 -4,4"/>
<!-- s412 -->
<g id="node1" class="node">
<title>s412</title>
<polygon fill="none" stroke="#000000" points="0,-46.6156 0,-88.2156 56.4418,-88.2156 56.4418,-46.6156 0,-46.6156"/>
<text text-anchor="middle" x="28.2209" y="-71.6156" font-family="Times,serif" font-size="14.00" fill="#000000">s412</text>
<text text-anchor="middle" x="28.2209" y="-54.8156" font-family="Times,serif" font-size="14.00" fill="#000000">→ SEQ</text>
</g>
<!-- s413 -->
<g id="node2" class="node">
<title>s413</title>
<polygon fill="none" stroke="#000000" points="93.4418,-42.6156 93.4418,-92.2156 195.0414,-92.2156 195.0414,-42.6156 93.4418,-42.6156"/>
<text text-anchor="middle" x="134.4916" y="-71.6156" font-family="Times,serif" font-size="14.00" fill="#000000">s413</text>
<text text-anchor="middle" x="134.4916" y="-54.8156" font-family="Times,serif" font-size="14.00" fill="#000000">→ CHOICE</text>
<polyline fill="none" stroke="#000000" points="175.5414,-42.6156 175.5414,-92.2156 "/>
<text text-anchor="middle" x="185.2914" y="-75.6156" font-family="Times,serif" font-size="14.00" fill="#000000"> </text>
<polyline fill="none" stroke="#000000" points="175.5414,-67.4156 195.0414,-67.4156 "/>
<text text-anchor="middle" x="185.2914" y="-50.8156" font-family="Times,serif" font-size="14.00" fill="#000000"> </text>
</g>
<!-- s412&#45;&gt;s413 -->
<g id="edge3" class="edge">
<title>s412&#45;&gt;s413</title>
<path fill="none" stroke="#000000" d="M56.6028,-67.4156C64.6824,-67.4156 73.8102,-67.4156 83.0459,-67.4156"/>
<polygon fill="#000000" stroke="#000000" points="83.0657,-70.9157 93.0657,-67.4156 83.0656,-63.9157 83.0657,-70.9157"/>
</g>
<!-- s414 -->
<g id="node3" class="node">
<title>s414</title>
<g id="a_node3"><a xlink:href="rust-grammar.json.visibility_modifier.dot.svg" xlink:title="s414 SYMBOL\nvisibility_modifier">
<ellipse fill="none" stroke="#000000" cx="421.5942" cy="-106.4156" rx="85.6139" ry="29.3315"/>
<text text-anchor="middle" x="421.5942" y="-110.6156" font-family="Times,serif" font-size="14.00" fill="#000000">s414 SYMBOL</text>
<text text-anchor="middle" x="421.5942" y="-93.8156" font-family="Times,serif" font-size="14.00" fill="#000000">visibility_modifier</text>
</a>
</g>
</g>
<!-- s413&#45;&gt;s414 -->
<g id="edge1" class="edge">
<title>s413:p0&#45;&gt;s414</title>
<path fill="none" stroke="#000000" d="M195.0414,-79.4156C241.7047,-79.4156 293.3969,-85.1333 335.6079,-91.3063"/>
<polygon fill="#000000" stroke="#000000" points="335.1618,-94.7784 345.5697,-92.797 336.1978,-87.8555 335.1618,-94.7784"/>
<text text-anchor="middle" x="265.5393" y="-91.6156" font-family="Times,serif" font-size="14.00" fill="#000000">visibility_modifier</text>
</g>
<!-- s415 -->
<g id="node4" class="node">
<title>s415</title>
<ellipse fill="none" stroke="#000000" cx="421.5942" cy="-29.4156" rx="45.3054" ry="29.3315"/>
<text text-anchor="middle" x="421.5942" y="-33.6156" font-family="Times,serif" font-size="14.00" fill="#000000">s415 </text>
<text text-anchor="middle" x="421.5942" y="-16.8156" font-family="Times,serif" font-size="14.00" fill="#000000">BLANK</text>
</g>
<!-- s413&#45;&gt;s415 -->
<g id="edge2" class="edge">
<title>s413:p1&#45;&gt;s415</title>
<path fill="none" stroke="#000000" d="M195.0414,-55.4156C254.3,-55.4156 321.7121,-46.5273 367.4852,-39.1445"/>
<polygon fill="#000000" stroke="#000000" points="368.187,-42.5761 377.4865,-37.4997 367.051,-35.6689 368.187,-42.5761"/>
</g>
<!-- s416 -->
<g id="node5" class="node">
<title>s416</title>
<ellipse fill="none" stroke="#000000" cx="612.38" cy="-67.4156" rx="68.4585" ry="29.3315"/>
<text text-anchor="middle" x="612.38" y="-71.6156" font-family="Times,serif" font-size="14.00" fill="#000000">s416 STRING</text>
<text text-anchor="middle" x="612.38" y="-54.8156" font-family="Times,serif" font-size="14.00" fill="#000000">&quot;const&quot;</text>
</g>
<!-- s414&#45;&gt;s416 -->
<g id="edge4" class="edge">
<title>s414&#45;&gt;s416</title>
<path fill="none" stroke="#000000" d="M495.3569,-91.3372C510.1812,-88.3069 525.7411,-85.1262 540.5001,-82.1092"/>
<polygon fill="#000000" stroke="#000000" points="541.4747,-85.4824 550.5711,-80.0505 540.0727,-78.6242 541.4747,-85.4824"/>
</g>
<!-- s415&#45;&gt;s416 -->
<g id="edge5" class="edge">
<title>s415&#45;&gt;s416</title>
<path fill="none" stroke="#000000" d="M465.3643,-38.1336C487.6049,-42.5634 515.2029,-48.0603 540.4601,-53.0909"/>
<polygon fill="#000000" stroke="#000000" points="539.8855,-56.5451 550.3765,-55.066 541.2529,-49.68 539.8855,-56.5451"/>
</g>
<!-- s417 -->
<g id="node6" class="node">
<title>s417</title>
<g id="a_node6"><a xlink:href="rust-grammar.json.identifier.dot.svg" xlink:title="s417 SYMBOL\nidentifier">
<ellipse fill="none" stroke="#000000" cx="791.3418" cy="-67.4156" rx="73.9667" ry="29.3315"/>
<text text-anchor="middle" x="791.3418" y="-71.6156" font-family="Times,serif" font-size="14.00" fill="#000000">s417 SYMBOL</text>
<text text-anchor="middle" x="791.3418" y="-54.8156" font-family="Times,serif" font-size="14.00" fill="#000000">identifier</text>
</a>
</g>
</g>
<!-- s416&#45;&gt;s417 -->
<g id="edge6" class="edge">
<title>s416&#45;&gt;s417</title>
<path fill="none" stroke="#000000" d="M680.8038,-67.4156C689.5504,-67.4156 698.5816,-67.4156 707.5367,-67.4156"/>
<polygon fill="#000000" stroke="#000000" points="707.5958,-70.9157 717.5957,-67.4156 707.5957,-63.9157 707.5958,-70.9157"/>
</g>
<!-- s418 -->
<g id="node7" class="node">
<title>s418</title>
<ellipse fill="none" stroke="#000000" cx="970.3037" cy="-67.4156" rx="68.4585" ry="29.3315"/>
<text text-anchor="middle" x="970.3037" y="-71.6156" font-family="Times,serif" font-size="14.00" fill="#000000">s418 STRING</text>
<text text-anchor="middle" x="970.3037" y="-54.8156" font-family="Times,serif" font-size="14.00" fill="#000000">&quot;:&quot;</text>
</g>
<!-- s417&#45;&gt;s418 -->
<g id="edge7" class="edge">
<title>s417&#45;&gt;s418</title>
<path fill="none" stroke="#000000" d="M865.1657,-67.4156C873.8854,-67.4156 882.8098,-67.4156 891.5937,-67.4156"/>
<polygon fill="#000000" stroke="#000000" points="891.82,-70.9157 901.82,-67.4156 891.8199,-63.9157 891.82,-70.9157"/>
</g>
<!-- s419 -->
<g id="node8" class="node">
<title>s419</title>
<g id="a_node8"><a xlink:href="rust-grammar.json._type.dot.svg" xlink:title="s419 SYMBOL\n_type">
<ellipse fill="none" stroke="#000000" cx="1149.2656" cy="-67.4156" rx="73.9667" ry="29.3315"/>
<text text-anchor="middle" x="1149.2656" y="-71.6156" font-family="Times,serif" font-size="14.00" fill="#000000">s419 SYMBOL</text>
<text text-anchor="middle" x="1149.2656" y="-54.8156" font-family="Times,serif" font-size="14.00" fill="#000000">_type</text>
</a>
</g>
</g>
<!-- s418&#45;&gt;s419 -->
<g id="edge8" class="edge">
<title>s418&#45;&gt;s419</title>
<path fill="none" stroke="#000000" d="M1038.7276,-67.4156C1047.4742,-67.4156 1056.5054,-67.4156 1065.4605,-67.4156"/>
<polygon fill="#000000" stroke="#000000" points="1065.5195,-70.9157 1075.5195,-67.4156 1065.5194,-63.9157 1065.5195,-70.9157"/>
</g>
<!-- s420 -->
<g id="node9" class="node">
<title>s420</title>
<polygon fill="none" stroke="#000000" points="1259.9986,-42.6156 1259.9986,-92.2156 1361.5982,-92.2156 1361.5982,-42.6156 1259.9986,-42.6156"/>
<text text-anchor="middle" x="1301.0484" y="-71.6156" font-family="Times,serif" font-size="14.00" fill="#000000">s420</text>
<text text-anchor="middle" x="1301.0484" y="-54.8156" font-family="Times,serif" font-size="14.00" fill="#000000">→ CHOICE</text>
<polyline fill="none" stroke="#000000" points="1342.0982,-42.6156 1342.0982,-92.2156 "/>
<text text-anchor="middle" x="1351.8482" y="-75.6156" font-family="Times,serif" font-size="14.00" fill="#000000"> </text>
<polyline fill="none" stroke="#000000" points="1342.0982,-67.4156 1361.5982,-67.4156 "/>
<text text-anchor="middle" x="1351.8482" y="-50.8156" font-family="Times,serif" font-size="14.00" fill="#000000"> </text>
</g>
<!-- s419&#45;&gt;s420 -->
<g id="edge13" class="edge">
<title>s419&#45;&gt;s420</title>
<path fill="none" stroke="#000000" d="M1223.4132,-67.4156C1232.1399,-67.4156 1240.9702,-67.4156 1249.4932,-67.4156"/>
<polygon fill="#000000" stroke="#000000" points="1249.7092,-70.9157 1259.7092,-67.4156 1249.7092,-63.9157 1249.7092,-70.9157"/>
</g>
<!-- s421 -->
<g id="node10" class="node">
<title>s421</title>
<polygon fill="none" stroke="#000000" points="1398.5982,-84.6156 1398.5982,-126.2156 1455.04,-126.2156 1455.04,-84.6156 1398.5982,-84.6156"/>
<text text-anchor="middle" x="1426.8191" y="-109.6156" font-family="Times,serif" font-size="14.00" fill="#000000">s421</text>
<text text-anchor="middle" x="1426.8191" y="-92.8156" font-family="Times,serif" font-size="14.00" fill="#000000">→ SEQ</text>
</g>
<!-- s420&#45;&gt;s421 -->
<g id="edge11" class="edge">
<title>s420:p0&#45;&gt;s421</title>
<path fill="none" stroke="#000000" d="M1361.5982,-79.4156C1370.908,-79.4156 1380.4679,-81.7298 1389.3001,-84.9773"/>
<polygon fill="#000000" stroke="#000000" points="1387.9734,-88.2161 1398.5521,-88.8022 1390.6479,-81.7471 1387.9734,-88.2161"/>
</g>
<!-- s424 -->
<g id="node13" class="node">
<title>s424</title>
<ellipse fill="none" stroke="#000000" cx="1518.4426" cy="-51.4156" rx="45.3054" ry="29.3315"/>
<text text-anchor="middle" x="1518.4426" y="-55.6156" font-family="Times,serif" font-size="14.00" fill="#000000">s424 </text>
<text text-anchor="middle" x="1518.4426" y="-38.8156" font-family="Times,serif" font-size="14.00" fill="#000000">BLANK</text>
</g>
<!-- s420&#45;&gt;s424 -->
<g id="edge12" class="edge">
<title>s420:p1&#45;&gt;s424</title>
<path fill="none" stroke="#000000" d="M1361.5982,-55.4156C1395.1014,-55.4156 1432.617,-54.4923 1462.5555,-53.5328"/>
<polygon fill="#000000" stroke="#000000" points="1462.9314,-57.0224 1472.8101,-53.1934 1462.6997,-50.0262 1462.9314,-57.0224"/>
</g>
<!-- s422 -->
<g id="node11" class="node">
<title>s422</title>
<ellipse fill="none" stroke="#000000" cx="1650.0741" cy="-106.4156" rx="68.4585" ry="29.3315"/>
<text text-anchor="middle" x="1650.0741" y="-110.6156" font-family="Times,serif" font-size="14.00" fill="#000000">s422 STRING</text>
<text text-anchor="middle" x="1650.0741" y="-93.8156" font-family="Times,serif" font-size="14.00" fill="#000000">&quot;=&quot;</text>
</g>
<!-- s421&#45;&gt;s422 -->
<g id="edge9" class="edge">
<title>s421&#45;&gt;s422</title>
<path fill="none" stroke="#000000" d="M1455.0945,-105.5423C1484.2995,-105.6731 1531.1897,-105.8831 1571.6677,-106.0644"/>
<polygon fill="#000000" stroke="#000000" points="1571.7903,-109.5649 1581.8059,-106.1099 1571.8217,-102.565 1571.7903,-109.5649"/>
</g>
<!-- s423 -->
<g id="node12" class="node">
<title>s423</title>
<g id="a_node12"><a xlink:href="rust-grammar.json._expression.dot.svg" xlink:title="s423 SYMBOL\n_expression">
<ellipse fill="none" stroke="#000000" cx="1829.036" cy="-106.4156" rx="73.9667" ry="29.3315"/>
<text text-anchor="middle" x="1829.036" y="-110.6156" font-family="Times,serif" font-size="14.00" fill="#000000">s423 SYMBOL</text>
<text text-anchor="middle" x="1829.036" y="-93.8156" font-family="Times,serif" font-size="14.00" fill="#000000">_expression</text>
</a>
</g>
</g>
<!-- s422&#45;&gt;s423 -->
<g id="edge10" class="edge">
<title>s422&#45;&gt;s423</title>
<path fill="none" stroke="#000000" d="M1718.4979,-106.4156C1727.2445,-106.4156 1736.2757,-106.4156 1745.2308,-106.4156"/>
<polygon fill="#000000" stroke="#000000" points="1745.2899,-109.9157 1755.2899,-106.4156 1745.2898,-102.9157 1745.2899,-109.9157"/>
</g>
<!-- s425 -->
<g id="node14" class="node">
<title>s425</title>
<ellipse fill="none" stroke="#000000" cx="2007.9978" cy="-61.4156" rx="68.4585" ry="29.3315"/>
<text text-anchor="middle" x="2007.9978" y="-65.6156" font-family="Times,serif" font-size="14.00" fill="#000000">s425 STRING</text>
<text text-anchor="middle" x="2007.9978" y="-48.8156" font-family="Times,serif" font-size="14.00" fill="#000000">&quot;;&quot;</text>
</g>
<!-- s423&#45;&gt;s425 -->
<g id="edge14" class="edge">
<title>s423&#45;&gt;s425</title>
<path fill="none" stroke="#000000" d="M1891.6281,-90.6768C1906.9247,-86.8305 1923.3769,-82.6936 1938.9559,-78.7762"/>
<polygon fill="#000000" stroke="#000000" points="1940.2019,-82.072 1949.0465,-76.239 1938.4949,-75.2833 1940.2019,-82.072"/>
</g>
<!-- s424&#45;&gt;s425 -->
<g id="edge15" class="edge">
<title>s424&#45;&gt;s425</title>
<path fill="none" stroke="#000000" d="M1564.0591,-52.3474C1647.6765,-54.0555 1826.3838,-57.7059 1929.7495,-59.8173"/>
<polygon fill="#000000" stroke="#000000" points="1929.7492,-63.3179 1939.8187,-60.023 1929.8923,-56.3194 1929.7492,-63.3179"/>
</g>
</g>
</svg>
