<?xml version="1.0" encoding="UTF-8" standalone="no"?>
<!DOCTYPE svg PUBLIC "-//W3C//DTD SVG 1.1//EN"
 "http://www.w3.org/Graphics/SVG/1.1/DTD/svg11.dtd">
<!-- Generated by graphviz version 2.40.1 (20161225.0304)
 -->
<!-- Title: constrained_type_parameter Pages: 1 -->
<svg width="662pt" height="144pt"
 viewBox="0.00 0.00 662.01 143.83" xmlns="http://www.w3.org/2000/svg" xmlns:xlink="http://www.w3.org/1999/xlink">
<g id="graph0" class="graph" transform="scale(1 1) rotate(0) translate(4 139.8313)">
<title>constrained_type_parameter</title>
<polygon fill="#ffffff" stroke="transparent" points="-4,4 -4,-139.8313 658.009,-139.8313 658.009,4 -4,4"/>
<!-- s630 -->
<g id="node1" class="node">
<title>s630</title>
<polygon fill="none" stroke="#000000" points="0,-46.6156 0,-88.2156 56.4418,-88.2156 56.4418,-46.6156 0,-46.6156"/>
<text text-anchor="middle" x="28.2209" y="-71.6156" font-family="Times,serif" font-size="14.00" fill="#000000">s630</text>
<text text-anchor="middle" x="28.2209" y="-54.8156" font-family="Times,serif" font-size="14.00" fill="#000000">→ SEQ</text>
</g>
<!-- s631 -->
<g id="node2" class="node">
<title>s631</title>
<polygon fill="none" stroke="#000000" points="93.4418,-42.6156 93.4418,-92.2156 195.0414,-92.2156 195.0414,-42.6156 93.4418,-42.6156"/>
<text text-anchor="middle" x="134.4916" y="-71.6156" font-family="Times,serif" font-size="14.00" fill="#000000">s631</text>
<text text-anchor="middle" x="134.4916" y="-54.8156" font-family="Times,serif" font-size="14.00" fill="#000000">→ CHOICE</text>
<polyline fill="none" stroke="#000000" points="175.5414,-42.6156 175.5414,-92.2156 "/>
<text text-anchor="middle" x="185.2914" y="-75.6156" font-family="Times,serif" font-size="14.00" fill="#000000"> </text>
<polyline fill="none" stroke="#000000" points="175.5414,-67.4156 195.0414,-67.4156 "/>
<text text-anchor="middle" x="185.2914" y="-50.8156" font-family="Times,serif" font-size="14.00" fill="#000000"> </text>
</g>
<!-- s630&#45;&gt;s631 -->
<g id="edge3" class="edge">
<title>s630&#45;&gt;s631</title>
<path fill="none" stroke="#000000" d="M56.6028,-67.4156C64.6824,-67.4156 73.8102,-67.4156 83.0459,-67.4156"/>
<polygon fill="#000000" stroke="#000000" points="83.0657,-70.9157 93.0657,-67.4156 83.0656,-63.9157 83.0657,-70.9157"/>
</g>
<!-- s632 -->
<g id="node3" class="node">
<title>s632</title>
<g id="a_node3"><a xlink:href="rust-grammar.json.lifetime.dot.svg" xlink:title="s632 SYMBOL\nlifetime">
<ellipse fill="none" stroke="#000000" cx="395.0012" cy="-106.4156" rx="73.9667" ry="29.3315"/>
<text text-anchor="middle" x="395.0012" y="-110.6156" font-family="Times,serif" font-size="14.00" fill="#000000">s632 SYMBOL</text>
<text text-anchor="middle" x="395.0012" y="-93.8156" font-family="Times,serif" font-size="14.00" fill="#000000">lifetime</text>
</a>
</g>
</g>
<!-- s631&#45;&gt;s632 -->
<g id="edge1" class="edge">
<title>s631:p0&#45;&gt;s632</title>
<path fill="none" stroke="#000000" d="M195.0414,-79.4156C236.1869,-79.4156 281.67,-85.0995 318.8487,-91.2515"/>
<polygon fill="#000000" stroke="#000000" points="318.6592,-94.7694 329.1043,-92.9947 319.8323,-87.8684 318.6592,-94.7694"/>
<text text-anchor="middle" x="257.7504" y="-91.6156" font-family="Times,serif" font-size="14.00" fill="#000000">lifetime</text>
</g>
<!-- s633 -->
<g id="node4" class="node">
<title>s633</title>
<g id="a_node4"><a xlink:href="rust-grammar.json._type_identifier.dot.svg" xlink:title="s633 SYMBOL\n_type_identifier">
<ellipse fill="none" stroke="#000000" cx="395.0012" cy="-29.4156" rx="74.5836" ry="29.3315"/>
<text text-anchor="middle" x="395.0012" y="-33.6156" font-family="Times,serif" font-size="14.00" fill="#000000">s633 SYMBOL</text>
<text text-anchor="middle" x="395.0012" y="-16.8156" font-family="Times,serif" font-size="14.00" fill="#000000">_type_identifier</text>
</a>
</g>
</g>
<!-- s631&#45;&gt;s633 -->
<g id="edge2" class="edge">
<title>s631:p1&#45;&gt;s633</title>
<path fill="none" stroke="#000000" d="M195.0414,-55.4156C235.8401,-55.4156 280.9334,-50.0272 317.9556,-44.1564"/>
<polygon fill="#000000" stroke="#000000" points="318.8663,-47.5542 328.1734,-42.4918 317.7407,-40.6453 318.8663,-47.5542"/>
<text text-anchor="middle" x="257.7504" y="-58.6156" font-family="Times,serif" font-size="14.00" fill="#000000">_type_identifier</text>
</g>
<!-- s634 -->
<g id="node5" class="node">
<title>s634</title>
<g id="a_node5"><a xlink:href="rust-grammar.json.trait_bounds.dot.svg" xlink:title="s634 SYMBOL\ntrait_bounds">
<ellipse fill="none" stroke="#000000" cx="580.276" cy="-67.4156" rx="73.9667" ry="29.3315"/>
<text text-anchor="middle" x="580.276" y="-71.6156" font-family="Times,serif" font-size="14.00" fill="#000000">s634 SYMBOL</text>
<text text-anchor="middle" x="580.276" y="-54.8156" font-family="Times,serif" font-size="14.00" fill="#000000">trait_bounds</text>
</a>
</g>
</g>
<!-- s632&#45;&gt;s634 -->
<g id="edge4" class="edge">
<title>s632&#45;&gt;s634</title>
<path fill="none" stroke="#000000" d="M460.3221,-92.6657C474.7124,-89.6366 490.0685,-86.4041 504.822,-83.2986"/>
<polygon fill="#000000" stroke="#000000" points="505.8558,-86.6577 514.9204,-81.1729 504.4139,-79.8078 505.8558,-86.6577"/>
</g>
<!-- s633&#45;&gt;s634 -->
<g id="edge5" class="edge">
<title>s633&#45;&gt;s634</title>
<path fill="none" stroke="#000000" d="M461.3663,-43.0272C475.4552,-45.9168 490.4279,-48.9877 504.8265,-51.9409"/>
<polygon fill="#000000" stroke="#000000" points="504.1858,-55.3823 514.6851,-53.9629 505.5923,-48.525 504.1858,-55.3823"/>
</g>
</g>
</svg>
