<?xml version="1.0" encoding="UTF-8" standalone="no"?>
<!DOCTYPE svg PUBLIC "-//W3C//DTD SVG 1.1//EN"
 "http://www.w3.org/Graphics/SVG/1.1/DTD/svg11.dtd">
<!-- Generated by graphviz version 2.40.1 (20161225.0304)
 -->
<!-- Title: tuple_type Pages: 1 -->
<svg width="1135pt" height="258pt"
 viewBox="0.00 0.00 1134.71 257.83" xmlns="http://www.w3.org/2000/svg" xmlns:xlink="http://www.w3.org/1999/xlink">
<g id="graph0" class="graph" transform="scale(1 1) rotate(0) translate(4 253.8313)">
<title>tuple_type</title>
<polygon fill="#ffffff" stroke="transparent" points="-4,4 -4,-253.8313 1130.7143,-253.8313 1130.7143,4 -4,4"/>
<!-- s832 -->
<g id="node1" class="node">
<title>s832</title>
<polygon fill="none" stroke="#000000" points="0,-142.6156 0,-184.2156 56.4418,-184.2156 56.4418,-142.6156 0,-142.6156"/>
<text text-anchor="middle" x="28.2209" y="-167.6156" font-family="Times,serif" font-size="14.00" fill="#000000">s832</text>
<text text-anchor="middle" x="28.2209" y="-150.8156" font-family="Times,serif" font-size="14.00" fill="#000000">→ SEQ</text>
</g>
<!-- s833 -->
<g id="node2" class="node">
<title>s833</title>
<ellipse fill="none" stroke="#000000" cx="161.6707" cy="-163.4156" rx="68.4585" ry="29.3315"/>
<text text-anchor="middle" x="161.6707" y="-167.6156" font-family="Times,serif" font-size="14.00" fill="#000000">s833 STRING</text>
<text text-anchor="middle" x="161.6707" y="-150.8156" font-family="Times,serif" font-size="14.00" fill="#000000">&quot;(&quot;</text>
</g>
<!-- s832&#45;&gt;s833 -->
<g id="edge1" class="edge">
<title>s832&#45;&gt;s833</title>
<path fill="none" stroke="#000000" d="M56.5222,-163.4156C64.5856,-163.4156 73.7846,-163.4156 83.3101,-163.4156"/>
<polygon fill="#000000" stroke="#000000" points="83.321,-166.9157 93.321,-163.4156 83.3209,-159.9157 83.321,-166.9157"/>
</g>
<!-- s834 -->
<g id="node3" class="node">
<title>s834</title>
<polygon fill="none" stroke="#000000" points="266.8995,-142.6156 266.8995,-184.2156 323.3413,-184.2156 323.3413,-142.6156 266.8995,-142.6156"/>
<text text-anchor="middle" x="295.1204" y="-167.6156" font-family="Times,serif" font-size="14.00" fill="#000000">s834</text>
<text text-anchor="middle" x="295.1204" y="-150.8156" font-family="Times,serif" font-size="14.00" fill="#000000">→ SEQ</text>
</g>
<!-- s833&#45;&gt;s834 -->
<g id="edge8" class="edge">
<title>s833&#45;&gt;s834</title>
<path fill="none" stroke="#000000" d="M229.9593,-163.4156C239.0674,-163.4156 248.1366,-163.4156 256.4876,-163.4156"/>
<polygon fill="#000000" stroke="#000000" points="256.6303,-166.9157 266.6303,-163.4156 256.6302,-159.9157 256.6303,-166.9157"/>
</g>
<!-- s835 -->
<g id="node4" class="node">
<title>s835</title>
<g id="a_node4"><a xlink:href="rust-grammar.json._type.dot.svg" xlink:title="s835 SYMBOL\n_type">
<ellipse fill="none" stroke="#000000" cx="434.0743" cy="-163.4156" rx="73.9667" ry="29.3315"/>
<text text-anchor="middle" x="434.0743" y="-167.6156" font-family="Times,serif" font-size="14.00" fill="#000000">s835 SYMBOL</text>
<text text-anchor="middle" x="434.0743" y="-150.8156" font-family="Times,serif" font-size="14.00" fill="#000000">_type</text>
</a>
</g>
</g>
<!-- s834&#45;&gt;s835 -->
<g id="edge2" class="edge">
<title>s834&#45;&gt;s835</title>
<path fill="none" stroke="#000000" d="M323.5752,-163.4156C331.5896,-163.4156 340.7386,-163.4156 350.2635,-163.4156"/>
<polygon fill="#000000" stroke="#000000" points="350.2936,-166.9157 360.2936,-163.4156 350.2935,-159.9157 350.2936,-166.9157"/>
</g>
<!-- s836 -->
<g id="node5" class="node">
<title>s836</title>
<polygon fill="none" stroke="#000000" points="544.8073,-142.6156 544.8073,-184.2156 627.6909,-184.2156 627.6909,-142.6156 544.8073,-142.6156"/>
<text text-anchor="middle" x="586.2491" y="-167.6156" font-family="Times,serif" font-size="14.00" fill="#000000">s836</text>
<text text-anchor="middle" x="586.2491" y="-150.8156" font-family="Times,serif" font-size="14.00" fill="#000000">→ REPEAT</text>
</g>
<!-- s835&#45;&gt;s836 -->
<g id="edge7" class="edge">
<title>s835&#45;&gt;s836</title>
<path fill="none" stroke="#000000" d="M507.9329,-163.4156C516.8698,-163.4156 525.8477,-163.4156 534.373,-163.4156"/>
<polygon fill="#000000" stroke="#000000" points="534.5142,-166.9157 544.5142,-163.4156 534.5142,-159.9157 534.5142,-166.9157"/>
</g>
<!-- s837 -->
<g id="node6" class="node">
<title>s837</title>
<polygon fill="none" stroke="#000000" points="687.2698,-195.6156 687.2698,-237.2156 743.7116,-237.2156 743.7116,-195.6156 687.2698,-195.6156"/>
<text text-anchor="middle" x="715.4907" y="-220.6156" font-family="Times,serif" font-size="14.00" fill="#000000">s837</text>
<text text-anchor="middle" x="715.4907" y="-203.8156" font-family="Times,serif" font-size="14.00" fill="#000000">→ SEQ</text>
</g>
<!-- s836&#45;&gt;s837 -->
<g id="edge5" class="edge">
<title>s836&#45;&gt;s837</title>
<path fill="none" stroke="#000000" d="M627.8534,-180.4769C643.8639,-187.0426 662.0428,-194.4974 677.6771,-200.9088"/>
<polygon fill="#000000" stroke="#000000" points="676.4604,-204.1927 687.0407,-204.7487 679.1164,-197.7161 676.4604,-204.1927"/>
</g>
<!-- s840 -->
<g id="node9" class="node">
<title>s840</title>
<polygon fill="none" stroke="#000000" points="664.6909,-69.6156 664.6909,-119.2156 766.2905,-119.2156 766.2905,-69.6156 664.6909,-69.6156"/>
<text text-anchor="middle" x="705.7407" y="-98.6156" font-family="Times,serif" font-size="14.00" fill="#000000">s840</text>
<text text-anchor="middle" x="705.7407" y="-81.8156" font-family="Times,serif" font-size="14.00" fill="#000000">→ CHOICE</text>
<polyline fill="none" stroke="#000000" points="746.7905,-69.6156 746.7905,-119.2156 "/>
<text text-anchor="middle" x="756.5405" y="-102.6156" font-family="Times,serif" font-size="14.00" fill="#000000"> </text>
<polyline fill="none" stroke="#000000" points="746.7905,-94.4156 766.2905,-94.4156 "/>
<text text-anchor="middle" x="756.5405" y="-77.8156" font-family="Times,serif" font-size="14.00" fill="#000000"> </text>
</g>
<!-- s836&#45;&gt;s840 -->
<g id="edge11" class="edge">
<title>s836&#45;&gt;s840</title>
<path fill="none" stroke="#000000" d="M625.3766,-142.5261C636.1633,-136.7673 648.0787,-130.4058 659.6153,-124.2467"/>
<polygon fill="#000000" stroke="#000000" points="661.5842,-127.1631 668.7573,-119.3658 658.2874,-120.988 661.5842,-127.1631"/>
</g>
<!-- s838 -->
<g id="node7" class="node">
<title>s838</title>
<ellipse fill="none" stroke="#000000" cx="874.0194" cy="-220.4156" rx="68.4585" ry="29.3315"/>
<text text-anchor="middle" x="874.0194" y="-224.6156" font-family="Times,serif" font-size="14.00" fill="#000000">s838 STRING</text>
<text text-anchor="middle" x="874.0194" y="-207.8156" font-family="Times,serif" font-size="14.00" fill="#000000">&quot;,&quot;</text>
</g>
<!-- s837&#45;&gt;s838 -->
<g id="edge3" class="edge">
<title>s837&#45;&gt;s838</title>
<path fill="none" stroke="#000000" d="M743.8325,-217.1308C758.4104,-217.4986 776.9735,-217.967 795.4836,-218.434"/>
<polygon fill="#000000" stroke="#000000" points="795.6507,-221.9393 805.7359,-218.6927 795.8274,-214.9415 795.6507,-221.9393"/>
</g>
<!-- s839 -->
<g id="node8" class="node">
<title>s839</title>
<g id="a_node8"><a xlink:href="rust-grammar.json._type.dot.svg" xlink:title="s839 SYMBOL\n_type">
<ellipse fill="none" stroke="#000000" cx="1052.9813" cy="-184.4156" rx="73.9667" ry="29.3315"/>
<text text-anchor="middle" x="1052.9813" y="-188.6156" font-family="Times,serif" font-size="14.00" fill="#000000">s839 SYMBOL</text>
<text text-anchor="middle" x="1052.9813" y="-171.8156" font-family="Times,serif" font-size="14.00" fill="#000000">_type</text>
</a>
</g>
</g>
<!-- s838&#45;&gt;s839 -->
<g id="edge4" class="edge">
<title>s838&#45;&gt;s839</title>
<path fill="none" stroke="#000000" d="M935.8585,-207.9761C949.1102,-205.3104 963.2588,-202.4642 976.9751,-199.7051"/>
<polygon fill="#000000" stroke="#000000" points="977.754,-203.1186 986.8673,-197.7151 976.3734,-196.256 977.754,-203.1186"/>
</g>
<!-- s839&#45;&gt;s836 -->
<g id="edge6" class="edge">
<title>s839&#45;&gt;s836</title>
<path fill="none" stroke="#000000" d="M979.6127,-181.1145C884.6368,-176.8412 721.4797,-169.5002 638.3013,-165.7577"/>
<polygon fill="#000000" stroke="#000000" points="638.2265,-162.2508 628.0793,-165.2977 637.9118,-169.2438 638.2265,-162.2508"/>
</g>
<!-- s841 -->
<g id="node10" class="node">
<title>s841</title>
<ellipse fill="none" stroke="#000000" cx="874.0194" cy="-106.4156" rx="68.4585" ry="29.3315"/>
<text text-anchor="middle" x="874.0194" y="-110.6156" font-family="Times,serif" font-size="14.00" fill="#000000">s841 STRING</text>
<text text-anchor="middle" x="874.0194" y="-93.8156" font-family="Times,serif" font-size="14.00" fill="#000000">&quot;,&quot;</text>
</g>
<!-- s840&#45;&gt;s841 -->
<g id="edge9" class="edge">
<title>s840:p0&#45;&gt;s841</title>
<path fill="none" stroke="#000000" d="M766.2905,-106.4156C775.7297,-106.4156 785.634,-106.4156 795.4533,-106.4156"/>
<polygon fill="#000000" stroke="#000000" points="795.6322,-109.9157 805.6322,-106.4156 795.6321,-102.9157 795.6322,-109.9157"/>
<text text-anchor="middle" x="786.0405" y="-110.6156" font-family="Times,serif" font-size="14.00" fill="#000000">,</text>
</g>
<!-- s842 -->
<g id="node11" class="node">
<title>s842</title>
<ellipse fill="none" stroke="#000000" cx="874.0194" cy="-29.4156" rx="45.3054" ry="29.3315"/>
<text text-anchor="middle" x="874.0194" y="-33.6156" font-family="Times,serif" font-size="14.00" fill="#000000">s842 </text>
<text text-anchor="middle" x="874.0194" y="-16.8156" font-family="Times,serif" font-size="14.00" fill="#000000">BLANK</text>
</g>
<!-- s840&#45;&gt;s842 -->
<g id="edge10" class="edge">
<title>s840:p1&#45;&gt;s842</title>
<path fill="none" stroke="#000000" d="M756.4907,-69.4156C756.4907,-40.8528 787.9844,-31.1427 818.3661,-28.4208"/>
<polygon fill="#000000" stroke="#000000" points="818.8313,-31.8978 828.5798,-27.7485 818.3714,-24.913 818.8313,-31.8978"/>
</g>
<!-- s843 -->
<g id="node12" class="node">
<title>s843</title>
<ellipse fill="none" stroke="#000000" cx="1052.9813" cy="-68.4156" rx="68.4585" ry="29.3315"/>
<text text-anchor="middle" x="1052.9813" y="-72.6156" font-family="Times,serif" font-size="14.00" fill="#000000">s843 STRING</text>
<text text-anchor="middle" x="1052.9813" y="-55.8156" font-family="Times,serif" font-size="14.00" fill="#000000">&quot;)&quot;</text>
</g>
<!-- s841&#45;&gt;s843 -->
<g id="edge12" class="edge">
<title>s841&#45;&gt;s843</title>
<path fill="none" stroke="#000000" d="M935.3576,-93.3914C950.2979,-90.219 966.4036,-86.7992 981.76,-83.5385"/>
<polygon fill="#000000" stroke="#000000" points="982.6684,-86.9237 991.7233,-81.4229 981.2144,-80.0764 982.6684,-86.9237"/>
</g>
<!-- s842&#45;&gt;s843 -->
<g id="edge13" class="edge">
<title>s842&#45;&gt;s843</title>
<path fill="none" stroke="#000000" d="M917.3411,-38.8565C936.7178,-43.0791 960.0712,-48.1683 981.8981,-52.9249"/>
<polygon fill="#000000" stroke="#000000" points="981.2836,-56.3731 991.7995,-55.0827 982.7741,-49.5336 981.2836,-56.3731"/>
</g>
</g>
</svg>
