<?xml version="1.0" encoding="UTF-8" standalone="no"?>
<!DOCTYPE svg PUBLIC "-//W3C//DTD SVG 1.1//EN"
 "http://www.w3.org/Graphics/SVG/1.1/DTD/svg11.dtd">
<!-- Generated by graphviz version 2.40.1 (20161225.0304)
 -->
<!-- Title: use_declaration Pages: 1 -->
<svg width="1047pt" height="144pt"
 viewBox="0.00 0.00 1046.53 143.83" xmlns="http://www.w3.org/2000/svg" xmlns:xlink="http://www.w3.org/1999/xlink">
<g id="graph0" class="graph" transform="scale(1 1) rotate(0) translate(4 139.8313)">
<title>use_declaration</title>
<polygon fill="#ffffff" stroke="transparent" points="-4,4 -4,-139.8313 1042.5326,-139.8313 1042.5326,4 -4,4"/>
<!-- s658 -->
<g id="node1" class="node">
<title>s658</title>
<polygon fill="none" stroke="#000000" points="0,-46.6156 0,-88.2156 56.4418,-88.2156 56.4418,-46.6156 0,-46.6156"/>
<text text-anchor="middle" x="28.2209" y="-71.6156" font-family="Times,serif" font-size="14.00" fill="#000000">s658</text>
<text text-anchor="middle" x="28.2209" y="-54.8156" font-family="Times,serif" font-size="14.00" fill="#000000">→ SEQ</text>
</g>
<!-- s659 -->
<g id="node2" class="node">
<title>s659</title>
<polygon fill="none" stroke="#000000" points="93.4418,-42.6156 93.4418,-92.2156 195.0414,-92.2156 195.0414,-42.6156 93.4418,-42.6156"/>
<text text-anchor="middle" x="134.4916" y="-71.6156" font-family="Times,serif" font-size="14.00" fill="#000000">s659</text>
<text text-anchor="middle" x="134.4916" y="-54.8156" font-family="Times,serif" font-size="14.00" fill="#000000">→ CHOICE</text>
<polyline fill="none" stroke="#000000" points="175.5414,-42.6156 175.5414,-92.2156 "/>
<text text-anchor="middle" x="185.2914" y="-75.6156" font-family="Times,serif" font-size="14.00" fill="#000000"> </text>
<polyline fill="none" stroke="#000000" points="175.5414,-67.4156 195.0414,-67.4156 "/>
<text text-anchor="middle" x="185.2914" y="-50.8156" font-family="Times,serif" font-size="14.00" fill="#000000"> </text>
</g>
<!-- s658&#45;&gt;s659 -->
<g id="edge3" class="edge">
<title>s658&#45;&gt;s659</title>
<path fill="none" stroke="#000000" d="M56.6028,-67.4156C64.6824,-67.4156 73.8102,-67.4156 83.0459,-67.4156"/>
<polygon fill="#000000" stroke="#000000" points="83.0657,-70.9157 93.0657,-67.4156 83.0656,-63.9157 83.0657,-70.9157"/>
</g>
<!-- s660 -->
<g id="node3" class="node">
<title>s660</title>
<g id="a_node3"><a xlink:href="rust-grammar.json.visibility_modifier.dot.svg" xlink:title="s660 SYMBOL\nvisibility_modifier">
<ellipse fill="none" stroke="#000000" cx="421.5942" cy="-106.4156" rx="85.6139" ry="29.3315"/>
<text text-anchor="middle" x="421.5942" y="-110.6156" font-family="Times,serif" font-size="14.00" fill="#000000">s660 SYMBOL</text>
<text text-anchor="middle" x="421.5942" y="-93.8156" font-family="Times,serif" font-size="14.00" fill="#000000">visibility_modifier</text>
</a>
</g>
</g>
<!-- s659&#45;&gt;s660 -->
<g id="edge1" class="edge">
<title>s659:p0&#45;&gt;s660</title>
<path fill="none" stroke="#000000" d="M195.0414,-79.4156C241.7047,-79.4156 293.3969,-85.1333 335.6079,-91.3063"/>
<polygon fill="#000000" stroke="#000000" points="335.1618,-94.7784 345.5697,-92.797 336.1978,-87.8555 335.1618,-94.7784"/>
<text text-anchor="middle" x="265.5393" y="-91.6156" font-family="Times,serif" font-size="14.00" fill="#000000">visibility_modifier</text>
</g>
<!-- s661 -->
<g id="node4" class="node">
<title>s661</title>
<ellipse fill="none" stroke="#000000" cx="421.5942" cy="-29.4156" rx="45.3054" ry="29.3315"/>
<text text-anchor="middle" x="421.5942" y="-33.6156" font-family="Times,serif" font-size="14.00" fill="#000000">s661 </text>
<text text-anchor="middle" x="421.5942" y="-16.8156" font-family="Times,serif" font-size="14.00" fill="#000000">BLANK</text>
</g>
<!-- s659&#45;&gt;s661 -->
<g id="edge2" class="edge">
<title>s659:p1&#45;&gt;s661</title>
<path fill="none" stroke="#000000" d="M195.0414,-55.4156C254.3,-55.4156 321.7121,-46.5273 367.4852,-39.1445"/>
<polygon fill="#000000" stroke="#000000" points="368.187,-42.5761 377.4865,-37.4997 367.051,-35.6689 368.187,-42.5761"/>
</g>
<!-- s662 -->
<g id="node5" class="node">
<title>s662</title>
<ellipse fill="none" stroke="#000000" cx="612.38" cy="-67.4156" rx="68.4585" ry="29.3315"/>
<text text-anchor="middle" x="612.38" y="-71.6156" font-family="Times,serif" font-size="14.00" fill="#000000">s662 STRING</text>
<text text-anchor="middle" x="612.38" y="-54.8156" font-family="Times,serif" font-size="14.00" fill="#000000">&quot;use&quot;</text>
</g>
<!-- s660&#45;&gt;s662 -->
<g id="edge4" class="edge">
<title>s660&#45;&gt;s662</title>
<path fill="none" stroke="#000000" d="M495.3569,-91.3372C510.1812,-88.3069 525.7411,-85.1262 540.5001,-82.1092"/>
<polygon fill="#000000" stroke="#000000" points="541.4747,-85.4824 550.5711,-80.0505 540.0727,-78.6242 541.4747,-85.4824"/>
</g>
<!-- s661&#45;&gt;s662 -->
<g id="edge5" class="edge">
<title>s661&#45;&gt;s662</title>
<path fill="none" stroke="#000000" d="M465.3643,-38.1336C487.6049,-42.5634 515.2029,-48.0603 540.4601,-53.0909"/>
<polygon fill="#000000" stroke="#000000" points="539.8855,-56.5451 550.3765,-55.066 541.2529,-49.68 539.8855,-56.5451"/>
</g>
<!-- s663 -->
<g id="node6" class="node">
<title>s663</title>
<g id="a_node6"><a xlink:href="rust-grammar.json._use_clause.dot.svg" xlink:title="s663 SYMBOL\n_use_clause">
<ellipse fill="none" stroke="#000000" cx="791.3418" cy="-67.4156" rx="73.9667" ry="29.3315"/>
<text text-anchor="middle" x="791.3418" y="-71.6156" font-family="Times,serif" font-size="14.00" fill="#000000">s663 SYMBOL</text>
<text text-anchor="middle" x="791.3418" y="-54.8156" font-family="Times,serif" font-size="14.00" fill="#000000">_use_clause</text>
</a>
</g>
</g>
<!-- s662&#45;&gt;s663 -->
<g id="edge6" class="edge">
<title>s662&#45;&gt;s663</title>
<path fill="none" stroke="#000000" d="M680.8038,-67.4156C689.5504,-67.4156 698.5816,-67.4156 707.5367,-67.4156"/>
<polygon fill="#000000" stroke="#000000" points="707.5958,-70.9157 717.5957,-67.4156 707.5957,-63.9157 707.5958,-70.9157"/>
</g>
<!-- s664 -->
<g id="node7" class="node">
<title>s664</title>
<ellipse fill="none" stroke="#000000" cx="970.3037" cy="-67.4156" rx="68.4585" ry="29.3315"/>
<text text-anchor="middle" x="970.3037" y="-71.6156" font-family="Times,serif" font-size="14.00" fill="#000000">s664 STRING</text>
<text text-anchor="middle" x="970.3037" y="-54.8156" font-family="Times,serif" font-size="14.00" fill="#000000">&quot;;&quot;</text>
</g>
<!-- s663&#45;&gt;s664 -->
<g id="edge7" class="edge">
<title>s663&#45;&gt;s664</title>
<path fill="none" stroke="#000000" d="M865.1657,-67.4156C873.8854,-67.4156 882.8098,-67.4156 891.5937,-67.4156"/>
<polygon fill="#000000" stroke="#000000" points="891.82,-70.9157 901.82,-67.4156 891.8199,-63.9157 891.82,-70.9157"/>
</g>
</g>
</svg>
