<?xml version="1.0" encoding="UTF-8" standalone="no"?>
<!DOCTYPE svg PUBLIC "-//W3C//DTD SVG 1.1//EN"
 "http://www.w3.org/Graphics/SVG/1.1/DTD/svg11.dtd">
<!-- Generated by graphviz version 2.40.1 (20161225.0304)
 -->
<!-- Title: scoped_identifier Pages: 1 -->
<svg width="1332pt" height="228pt"
 viewBox="0.00 0.00 1332.40 227.83" xmlns="http://www.w3.org/2000/svg" xmlns:xlink="http://www.w3.org/1999/xlink">
<g id="graph0" class="graph" transform="scale(1 1) rotate(0) translate(4 223.8313)">
<title>scoped_identifier</title>
<polygon fill="#ffffff" stroke="transparent" points="-4,4 -4,-223.8313 1328.4002,-223.8313 1328.4002,4 -4,4"/>
<!-- s981 -->
<g id="node1" class="node">
<title>s981</title>
<polygon fill="none" stroke="#000000" points="0,-36.6156 0,-78.2156 56.4418,-78.2156 56.4418,-36.6156 0,-36.6156"/>
<text text-anchor="middle" x="28.2209" y="-61.6156" font-family="Times,serif" font-size="14.00" fill="#000000">s981</text>
<text text-anchor="middle" x="28.2209" y="-44.8156" font-family="Times,serif" font-size="14.00" fill="#000000">→ SEQ</text>
</g>
<!-- s982 -->
<g id="node2" class="node">
<title>s982</title>
<polygon fill="none" stroke="#000000" points="93.4418,-32.6156 93.4418,-82.2156 195.0414,-82.2156 195.0414,-32.6156 93.4418,-32.6156"/>
<text text-anchor="middle" x="134.4916" y="-61.6156" font-family="Times,serif" font-size="14.00" fill="#000000">s982</text>
<text text-anchor="middle" x="134.4916" y="-44.8156" font-family="Times,serif" font-size="14.00" fill="#000000">→ CHOICE</text>
<polyline fill="none" stroke="#000000" points="175.5414,-32.6156 175.5414,-82.2156 "/>
<text text-anchor="middle" x="185.2914" y="-65.6156" font-family="Times,serif" font-size="14.00" fill="#000000"> </text>
<polyline fill="none" stroke="#000000" points="175.5414,-57.4156 195.0414,-57.4156 "/>
<text text-anchor="middle" x="185.2914" y="-40.8156" font-family="Times,serif" font-size="14.00" fill="#000000"> </text>
</g>
<!-- s981&#45;&gt;s982 -->
<g id="edge7" class="edge">
<title>s981&#45;&gt;s982</title>
<path fill="none" stroke="#000000" d="M56.6028,-57.4156C64.6824,-57.4156 73.8102,-57.4156 83.0459,-57.4156"/>
<polygon fill="#000000" stroke="#000000" points="83.0657,-60.9157 93.0657,-57.4156 83.0656,-53.9157 83.0657,-60.9157"/>
</g>
<!-- s983 -->
<g id="node3" class="node">
<title>s983</title>
<polygon fill="none" stroke="#000000" points="232.0414,-82.2156 232.0414,-156.6156 333.641,-156.6156 333.641,-82.2156 232.0414,-82.2156"/>
<text text-anchor="middle" x="273.0912" y="-123.6156" font-family="Times,serif" font-size="14.00" fill="#000000">s983</text>
<text text-anchor="middle" x="273.0912" y="-106.8156" font-family="Times,serif" font-size="14.00" fill="#000000">→ CHOICE</text>
<polyline fill="none" stroke="#000000" points="314.141,-82.2156 314.141,-156.6156 "/>
<text text-anchor="middle" x="323.891" y="-140.0156" font-family="Times,serif" font-size="14.00" fill="#000000"> </text>
<polyline fill="none" stroke="#000000" points="314.141,-131.8156 333.641,-131.8156 "/>
<text text-anchor="middle" x="323.891" y="-115.2156" font-family="Times,serif" font-size="14.00" fill="#000000"> </text>
<polyline fill="none" stroke="#000000" points="314.141,-107.0156 333.641,-107.0156 "/>
<text text-anchor="middle" x="323.891" y="-90.4156" font-family="Times,serif" font-size="14.00" fill="#000000"> </text>
</g>
<!-- s982&#45;&gt;s983 -->
<g id="edge5" class="edge">
<title>s982:p0&#45;&gt;s983</title>
<path fill="none" stroke="#000000" d="M195.0414,-69.4156C206.4378,-69.4156 217.7047,-72.636 228.1737,-77.4421"/>
<polygon fill="#000000" stroke="#000000" points="226.6546,-80.5963 237.1516,-82.0328 229.8415,-74.3638 226.6546,-80.5963"/>
</g>
<!-- s988 -->
<g id="node8" class="node">
<title>s988</title>
<ellipse fill="none" stroke="#000000" cx="397.0436" cy="-29.4156" rx="45.3054" ry="29.3315"/>
<text text-anchor="middle" x="397.0436" y="-33.6156" font-family="Times,serif" font-size="14.00" fill="#000000">s988 </text>
<text text-anchor="middle" x="397.0436" y="-16.8156" font-family="Times,serif" font-size="14.00" fill="#000000">BLANK</text>
</g>
<!-- s982&#45;&gt;s988 -->
<g id="edge6" class="edge">
<title>s982:p1&#45;&gt;s988</title>
<path fill="none" stroke="#000000" d="M195.0414,-45.4156C244.9855,-45.4156 301.6594,-40.495 342.2389,-36.1113"/>
<polygon fill="#000000" stroke="#000000" points="342.6398,-39.5884 352.1951,-35.0117 341.8713,-32.6307 342.6398,-39.5884"/>
</g>
<!-- s984 -->
<g id="node4" class="node">
<title>s984</title>
<g id="a_node4"><a xlink:href="rust-grammar.json._path.dot.svg" xlink:title="s984 SYMBOL\n_path">
<ellipse fill="none" stroke="#000000" cx="623.3882" cy="-190.4156" rx="73.9667" ry="29.3315"/>
<text text-anchor="middle" x="623.3882" y="-194.6156" font-family="Times,serif" font-size="14.00" fill="#000000">s984 SYMBOL</text>
<text text-anchor="middle" x="623.3882" y="-177.8156" font-family="Times,serif" font-size="14.00" fill="#000000">_path</text>
</a>
</g>
</g>
<!-- s983&#45;&gt;s984 -->
<g id="edge1" class="edge">
<title>s983:p0&#45;&gt;s984</title>
<path fill="none" stroke="#000000" d="M333.641,-144.4156C408.3906,-144.4156 492.6608,-159.5336 550.9691,-172.4358"/>
<polygon fill="#000000" stroke="#000000" points="550.2972,-175.872 560.8212,-174.6494 551.8318,-169.0423 550.2972,-175.872"/>
<text text-anchor="middle" x="397.0436" y="-155.6156" font-family="Times,serif" font-size="14.00" fill="#000000">_path</text>
</g>
<!-- s985 -->
<g id="node5" class="node">
<title>s985</title>
<g id="a_node5"><a xlink:href="rust-grammar.json.bracketed_type.dot.svg" xlink:title="s985 SYMBOL\nbracketed_type">
<ellipse fill="none" stroke="#000000" cx="623.3882" cy="-126.4156" rx="73.9667" ry="29.3315"/>
<text text-anchor="middle" x="623.3882" y="-130.6156" font-family="Times,serif" font-size="14.00" fill="#000000">s985 SYMBOL</text>
<text text-anchor="middle" x="623.3882" y="-113.8156" font-family="Times,serif" font-size="14.00" fill="#000000">bracketed_type</text>
</a>
</g>
</g>
<!-- s983&#45;&gt;s985 -->
<g id="edge2" class="edge">
<title>s983:p1&#45;&gt;s985</title>
<path fill="none" stroke="#000000" d="M333.641,-119.4156C403.0629,-119.4156 481.8137,-121.4488 539.6747,-123.3236"/>
<polygon fill="#000000" stroke="#000000" points="539.7546,-126.828 549.8644,-123.6591 539.9851,-119.8318 539.7546,-126.828"/>
<text text-anchor="middle" x="397.0436" y="-124.6156" font-family="Times,serif" font-size="14.00" fill="#000000">bracketed_type</text>
</g>
<!-- s986 -->
<g id="node6" class="node">
<title>s986</title>
<polygon fill="none" stroke="#000000" points="460.4462,-58.6156 460.4462,-100.2156 531.6552,-100.2156 531.6552,-58.6156 460.4462,-58.6156"/>
<text text-anchor="middle" x="496.0507" y="-83.6156" font-family="Times,serif" font-size="14.00" fill="#000000">s986</text>
<text text-anchor="middle" x="496.0507" y="-66.8156" font-family="Times,serif" font-size="14.00" fill="#000000">→ ALIAS</text>
</g>
<!-- s983&#45;&gt;s986 -->
<g id="edge4" class="edge">
<title>s983:p2&#45;&gt;s986</title>
<path fill="none" stroke="#000000" d="M333.641,-94.4156C341.9206,-94.4156 343.4747,-90.9801 351.641,-89.6156 384.3172,-84.1558 421.6291,-81.6143 450.1399,-80.4333"/>
<polygon fill="#000000" stroke="#000000" points="450.3584,-83.9277 460.2208,-80.0569 450.0971,-76.9325 450.3584,-83.9277"/>
<text text-anchor="middle" x="397.0436" y="-94.6156" font-family="Times,serif" font-size="14.00" fill="#000000">generic_type</text>
</g>
<!-- s989 -->
<g id="node9" class="node">
<title>s989</title>
<ellipse fill="none" stroke="#000000" cx="1071.7053" cy="-125.4156" rx="68.4585" ry="29.3315"/>
<text text-anchor="middle" x="1071.7053" y="-129.6156" font-family="Times,serif" font-size="14.00" fill="#000000">s989 STRING</text>
<text text-anchor="middle" x="1071.7053" y="-112.8156" font-family="Times,serif" font-size="14.00" fill="#000000">&quot;::&quot;</text>
</g>
<!-- s984&#45;&gt;s989 -->
<g id="edge8" class="edge">
<title>s984&#45;&gt;s989</title>
<path fill="none" stroke="#000000" d="M693.5429,-180.9793C766.5339,-171.0572 884.1094,-154.7816 985.4765,-139.4156 989.4127,-138.819 993.4483,-138.1975 997.5215,-137.5625"/>
<polygon fill="#000000" stroke="#000000" points="998.3543,-140.9746 1007.6888,-135.9628 997.2663,-134.0597 998.3543,-140.9746"/>
</g>
<!-- s985&#45;&gt;s989 -->
<g id="edge9" class="edge">
<title>s985&#45;&gt;s989</title>
<path fill="none" stroke="#000000" d="M697.1675,-126.2511C778.7702,-126.0691 909.7197,-125.777 993.1789,-125.5908"/>
<polygon fill="#000000" stroke="#000000" points="993.3749,-129.0905 1003.367,-125.5681 993.3592,-122.0905 993.3749,-129.0905"/>
</g>
<!-- s987 -->
<g id="node7" class="node">
<title>s987</title>
<g id="a_node7"><a xlink:href="rust-grammar.json.generic_type_with_turbofish.dot.svg" xlink:title="s987 SYMBOL\ngeneric_type_with_turbofish">
<ellipse fill="none" stroke="#000000" cx="840.7989" cy="-83.4156" rx="125.8555" ry="29.3315"/>
<text text-anchor="middle" x="840.7989" y="-87.6156" font-family="Times,serif" font-size="14.00" fill="#000000">s987 SYMBOL</text>
<text text-anchor="middle" x="840.7989" y="-70.8156" font-family="Times,serif" font-size="14.00" fill="#000000">generic_type_with_turbofish</text>
</a>
</g>
</g>
<!-- s986&#45;&gt;s987 -->
<g id="edge3" class="edge">
<title>s986&#45;&gt;s987</title>
<path fill="none" stroke="#000000" d="M531.9692,-79.8324C572.9762,-80.3082 642.503,-81.1149 705.2153,-81.8425"/>
<polygon fill="#000000" stroke="#000000" points="705.1763,-85.3422 715.2163,-81.9585 705.2576,-78.3427 705.1763,-85.3422"/>
</g>
<!-- s987&#45;&gt;s989 -->
<g id="edge10" class="edge">
<title>s987&#45;&gt;s989</title>
<path fill="none" stroke="#000000" d="M940.0641,-101.4712C959.7503,-105.0519 980.0772,-108.7492 998.6938,-112.1354"/>
<polygon fill="#000000" stroke="#000000" points="998.087,-115.5824 1008.5519,-113.9285 999.3397,-108.6954 998.087,-115.5824"/>
</g>
<!-- s988&#45;&gt;s989 -->
<g id="edge11" class="edge">
<title>s988&#45;&gt;s989</title>
<path fill="none" stroke="#000000" d="M441.1889,-21.7635C539.1313,-6.665 780.6392,20.1252 966.4765,-45.4156 993.297,-54.8747 1018.8099,-73.9228 1037.996,-91.0596"/>
<polygon fill="#000000" stroke="#000000" points="1035.8214,-93.8146 1045.5529,-98.0038 1040.5579,-88.6604 1035.8214,-93.8146"/>
</g>
<!-- s990 -->
<g id="node10" class="node">
<title>s990</title>
<g id="a_node10"><a xlink:href="rust-grammar.json.identifier.dot.svg" xlink:title="s990 SYMBOL\nidentifier">
<ellipse fill="none" stroke="#000000" cx="1250.6672" cy="-125.4156" rx="73.9667" ry="29.3315"/>
<text text-anchor="middle" x="1250.6672" y="-129.6156" font-family="Times,serif" font-size="14.00" fill="#000000">s990 SYMBOL</text>
<text text-anchor="middle" x="1250.6672" y="-112.8156" font-family="Times,serif" font-size="14.00" fill="#000000">identifier</text>
</a>
</g>
</g>
<!-- s989&#45;&gt;s990 -->
<g id="edge12" class="edge">
<title>s989&#45;&gt;s990</title>
<path fill="none" stroke="#000000" d="M1140.1292,-125.4156C1148.8758,-125.4156 1157.907,-125.4156 1166.8621,-125.4156"/>
<polygon fill="#000000" stroke="#000000" points="1166.9211,-128.9157 1176.9211,-125.4156 1166.9211,-121.9157 1166.9211,-128.9157"/>
</g>
</g>
</svg>
