<?xml version="1.0" encoding="UTF-8" standalone="no"?>
<!DOCTYPE svg PUBLIC "-//W3C//DTD SVG 1.1//EN"
 "http://www.w3.org/Graphics/SVG/1.1/DTD/svg11.dtd">
<!-- Generated by graphviz version 2.40.1 (20161225.0304)
 -->
<!-- Title: unary_expression Pages: 1 -->
<svg width="689pt" height="221pt"
 viewBox="0.00 0.00 688.77 220.83" xmlns="http://www.w3.org/2000/svg" xmlns:xlink="http://www.w3.org/1999/xlink">
<g id="graph0" class="graph" transform="scale(1 1) rotate(0) translate(4 216.8313)">
<title>unary_expression</title>
<polygon fill="#ffffff" stroke="transparent" points="-4,4 -4,-216.8313 684.7725,-216.8313 684.7725,4 -4,4"/>
<!-- s1013 -->
<g id="node1" class="node">
<title>s1013</title>
<polygon fill="none" stroke="#000000" points="0,-85.6156 0,-127.2156 65.0084,-127.2156 65.0084,-85.6156 0,-85.6156"/>
<text text-anchor="middle" x="32.5042" y="-110.6156" font-family="Times,serif" font-size="14.00" fill="#000000">s1013</text>
<text text-anchor="middle" x="32.5042" y="-93.8156" font-family="Times,serif" font-size="14.00" fill="#000000">→ PREC</text>
</g>
<!-- s1014 -->
<g id="node2" class="node">
<title>s1014</title>
<polygon fill="none" stroke="#000000" points="102.0084,-85.6156 102.0084,-127.2156 158.4502,-127.2156 158.4502,-85.6156 102.0084,-85.6156"/>
<text text-anchor="middle" x="130.2293" y="-110.6156" font-family="Times,serif" font-size="14.00" fill="#000000">s1014</text>
<text text-anchor="middle" x="130.2293" y="-93.8156" font-family="Times,serif" font-size="14.00" fill="#000000">→ SEQ</text>
</g>
<!-- s1013&#45;&gt;s1014 -->
<g id="edge8" class="edge">
<title>s1013&#45;&gt;s1014</title>
<path fill="none" stroke="#000000" d="M65.0452,-106.4156C73.5855,-106.4156 82.8774,-106.4156 91.6984,-106.4156"/>
<polygon fill="#000000" stroke="#000000" points="91.7642,-109.9157 101.7641,-106.4156 91.7641,-102.9157 91.7642,-109.9157"/>
</g>
<!-- s1015 -->
<g id="node3" class="node">
<title>s1015</title>
<polygon fill="none" stroke="#000000" points="195.4502,-69.2156 195.4502,-143.6156 297.0498,-143.6156 297.0498,-69.2156 195.4502,-69.2156"/>
<text text-anchor="middle" x="236.5" y="-110.6156" font-family="Times,serif" font-size="14.00" fill="#000000">s1015</text>
<text text-anchor="middle" x="236.5" y="-93.8156" font-family="Times,serif" font-size="14.00" fill="#000000">→ CHOICE</text>
<polyline fill="none" stroke="#000000" points="277.5498,-69.2156 277.5498,-143.6156 "/>
<text text-anchor="middle" x="287.2998" y="-127.0156" font-family="Times,serif" font-size="14.00" fill="#000000"> </text>
<polyline fill="none" stroke="#000000" points="277.5498,-118.8156 297.0498,-118.8156 "/>
<text text-anchor="middle" x="287.2998" y="-102.2156" font-family="Times,serif" font-size="14.00" fill="#000000"> </text>
<polyline fill="none" stroke="#000000" points="277.5498,-94.0156 297.0498,-94.0156 "/>
<text text-anchor="middle" x="287.2998" y="-77.4156" font-family="Times,serif" font-size="14.00" fill="#000000"> </text>
</g>
<!-- s1014&#45;&gt;s1015 -->
<g id="edge4" class="edge">
<title>s1014&#45;&gt;s1015</title>
<path fill="none" stroke="#000000" d="M158.6112,-106.4156C166.6908,-106.4156 175.8186,-106.4156 185.0543,-106.4156"/>
<polygon fill="#000000" stroke="#000000" points="185.0741,-109.9157 195.0741,-106.4156 185.074,-102.9157 185.0741,-109.9157"/>
</g>
<!-- s1016 -->
<g id="node4" class="node">
<title>s1016</title>
<ellipse fill="none" stroke="#000000" cx="413.2284" cy="-183.4156" rx="73.3577" ry="29.3315"/>
<text text-anchor="middle" x="413.2284" y="-187.6156" font-family="Times,serif" font-size="14.00" fill="#000000">s1016 STRING</text>
<text text-anchor="middle" x="413.2284" y="-170.8156" font-family="Times,serif" font-size="14.00" fill="#000000">&quot;&#45;&quot;</text>
</g>
<!-- s1015&#45;&gt;s1016 -->
<g id="edge1" class="edge">
<title>s1015:p0&#45;&gt;s1016</title>
<path fill="none" stroke="#000000" d="M287.25,-143.4156C287.25,-166.4077 306.5479,-177.5295 330.0379,-182.5508"/>
<polygon fill="#000000" stroke="#000000" points="329.491,-186.0083 339.9463,-184.294 330.704,-179.1142 329.491,-186.0083"/>
<text text-anchor="middle" x="318.5498" y="-183.6156" font-family="Times,serif" font-size="14.00" fill="#000000">&#45;</text>
</g>
<!-- s1017 -->
<g id="node5" class="node">
<title>s1017</title>
<ellipse fill="none" stroke="#000000" cx="413.2284" cy="-106.4156" rx="73.3577" ry="29.3315"/>
<text text-anchor="middle" x="413.2284" y="-110.6156" font-family="Times,serif" font-size="14.00" fill="#000000">s1017 STRING</text>
<text text-anchor="middle" x="413.2284" y="-93.8156" font-family="Times,serif" font-size="14.00" fill="#000000">&quot;*&quot;</text>
</g>
<!-- s1015&#45;&gt;s1017 -->
<g id="edge2" class="edge">
<title>s1015:p1&#45;&gt;s1017</title>
<path fill="none" stroke="#000000" d="M297.0498,-106.4156C307.628,-106.4156 318.7479,-106.4156 329.7437,-106.4156"/>
<polygon fill="#000000" stroke="#000000" points="329.7879,-109.9157 339.7878,-106.4156 329.7878,-102.9157 329.7879,-109.9157"/>
<text text-anchor="middle" x="318.5498" y="-110.6156" font-family="Times,serif" font-size="14.00" fill="#000000">*</text>
</g>
<!-- s1018 -->
<g id="node6" class="node">
<title>s1018</title>
<ellipse fill="none" stroke="#000000" cx="413.2284" cy="-29.4156" rx="73.3577" ry="29.3315"/>
<text text-anchor="middle" x="413.2284" y="-33.6156" font-family="Times,serif" font-size="14.00" fill="#000000">s1018 STRING</text>
<text text-anchor="middle" x="413.2284" y="-16.8156" font-family="Times,serif" font-size="14.00" fill="#000000">&quot;!&quot;</text>
</g>
<!-- s1015&#45;&gt;s1018 -->
<g id="edge3" class="edge">
<title>s1015:p2&#45;&gt;s1018</title>
<path fill="none" stroke="#000000" d="M287.25,-69.4156C287.25,-46.4236 306.5479,-35.3017 330.0379,-30.2805"/>
<polygon fill="#000000" stroke="#000000" points="330.704,-33.7171 339.9463,-28.5373 329.491,-26.823 330.704,-33.7171"/>
<text text-anchor="middle" x="318.5498" y="-38.6156" font-family="Times,serif" font-size="14.00" fill="#000000">!</text>
</g>
<!-- s1019 -->
<g id="node7" class="node">
<title>s1019</title>
<g id="a_node7"><a xlink:href="rust-grammar.json._expression.dot.svg" xlink:title="s1019 SYMBOL\n_expression">
<ellipse fill="none" stroke="#000000" cx="602.0898" cy="-106.4156" rx="78.8659" ry="29.3315"/>
<text text-anchor="middle" x="602.0898" y="-110.6156" font-family="Times,serif" font-size="14.00" fill="#000000">s1019 SYMBOL</text>
<text text-anchor="middle" x="602.0898" y="-93.8156" font-family="Times,serif" font-size="14.00" fill="#000000">_expression</text>
</a>
</g>
</g>
<!-- s1016&#45;&gt;s1019 -->
<g id="edge5" class="edge">
<title>s1016&#45;&gt;s1019</title>
<path fill="none" stroke="#000000" d="M464.8356,-162.3751C487.8792,-152.98 515.2393,-141.8251 539.4449,-131.9564"/>
<polygon fill="#000000" stroke="#000000" points="540.9616,-135.1178 548.9001,-128.1014 538.3188,-128.6358 540.9616,-135.1178"/>
</g>
<!-- s1017&#45;&gt;s1019 -->
<g id="edge6" class="edge">
<title>s1017&#45;&gt;s1019</title>
<path fill="none" stroke="#000000" d="M486.5175,-106.4156C495.2563,-106.4156 504.2498,-106.4156 513.1773,-106.4156"/>
<polygon fill="#000000" stroke="#000000" points="513.2116,-109.9157 523.2116,-106.4156 513.2115,-102.9157 513.2116,-109.9157"/>
</g>
<!-- s1018&#45;&gt;s1019 -->
<g id="edge7" class="edge">
<title>s1018&#45;&gt;s1019</title>
<path fill="none" stroke="#000000" d="M464.8356,-50.4562C487.8792,-59.8513 515.2393,-71.0061 539.4449,-80.8749"/>
<polygon fill="#000000" stroke="#000000" points="538.3188,-84.1955 548.9001,-84.7299 540.9616,-77.7135 538.3188,-84.1955"/>
</g>
</g>
</svg>
