<?xml version="1.0" encoding="UTF-8" standalone="no"?>
<!DOCTYPE svg PUBLIC "-//W3C//DTD SVG 1.1//EN"
 "http://www.w3.org/Graphics/SVG/1.1/DTD/svg11.dtd">
<!-- Generated by graphviz version 2.40.1 (20161225.0304)
 -->
<!-- Title: parenthesized_expression Pages: 1 -->
<svg width="623pt" height="67pt"
 viewBox="0.00 0.00 622.52 66.83" xmlns="http://www.w3.org/2000/svg" xmlns:xlink="http://www.w3.org/1999/xlink">
<g id="graph0" class="graph" transform="scale(1 1) rotate(0) translate(4 62.8313)">
<title>parenthesized_expression</title>
<polygon fill="#ffffff" stroke="transparent" points="-4,4 -4,-62.8313 618.5218,-62.8313 618.5218,4 -4,4"/>
<!-- s1091 -->
<g id="node1" class="node">
<title>s1091</title>
<polygon fill="none" stroke="#000000" points="0,-8.6156 0,-50.2156 56.4418,-50.2156 56.4418,-8.6156 0,-8.6156"/>
<text text-anchor="middle" x="28.2209" y="-33.6156" font-family="Times,serif" font-size="14.00" fill="#000000">s1091</text>
<text text-anchor="middle" x="28.2209" y="-16.8156" font-family="Times,serif" font-size="14.00" fill="#000000">→ SEQ</text>
</g>
<!-- s1092 -->
<g id="node2" class="node">
<title>s1092</title>
<ellipse fill="none" stroke="#000000" cx="165.6204" cy="-29.4156" rx="73.3577" ry="29.3315"/>
<text text-anchor="middle" x="165.6204" y="-33.6156" font-family="Times,serif" font-size="14.00" fill="#000000">s1092 STRING</text>
<text text-anchor="middle" x="165.6204" y="-16.8156" font-family="Times,serif" font-size="14.00" fill="#000000">&quot;(&quot;</text>
</g>
<!-- s1091&#45;&gt;s1092 -->
<g id="edge1" class="edge">
<title>s1091&#45;&gt;s1092</title>
<path fill="none" stroke="#000000" d="M56.6902,-29.4156C64.4253,-29.4156 73.211,-29.4156 82.3577,-29.4156"/>
<polygon fill="#000000" stroke="#000000" points="82.3919,-32.9157 92.3919,-29.4156 82.3919,-25.9157 82.3919,-32.9157"/>
</g>
<!-- s1093 -->
<g id="node3" class="node">
<title>s1093</title>
<g id="a_node3"><a xlink:href="rust-grammar.json._expression.dot.svg" xlink:title="s1093 SYMBOL\n_expression">
<ellipse fill="none" stroke="#000000" cx="353.4818" cy="-29.4156" rx="78.8659" ry="29.3315"/>
<text text-anchor="middle" x="353.4818" y="-33.6156" font-family="Times,serif" font-size="14.00" fill="#000000">s1093 SYMBOL</text>
<text text-anchor="middle" x="353.4818" y="-16.8156" font-family="Times,serif" font-size="14.00" fill="#000000">_expression</text>
</a>
</g>
</g>
<!-- s1092&#45;&gt;s1093 -->
<g id="edge2" class="edge">
<title>s1092&#45;&gt;s1093</title>
<path fill="none" stroke="#000000" d="M239.0597,-29.4156C247.327,-29.4156 255.8169,-29.4156 264.2561,-29.4156"/>
<polygon fill="#000000" stroke="#000000" points="264.5066,-32.9157 274.5065,-29.4156 264.5065,-25.9157 264.5066,-32.9157"/>
</g>
<!-- s1094 -->
<g id="node4" class="node">
<title>s1094</title>
<ellipse fill="none" stroke="#000000" cx="541.3431" cy="-29.4156" rx="73.3577" ry="29.3315"/>
<text text-anchor="middle" x="541.3431" y="-33.6156" font-family="Times,serif" font-size="14.00" fill="#000000">s1094 STRING</text>
<text text-anchor="middle" x="541.3431" y="-16.8156" font-family="Times,serif" font-size="14.00" fill="#000000">&quot;)&quot;</text>
</g>
<!-- s1093&#45;&gt;s1094 -->
<g id="edge3" class="edge">
<title>s1093&#45;&gt;s1094</title>
<path fill="none" stroke="#000000" d="M432.3354,-29.4156C440.7589,-29.4156 449.3485,-29.4156 457.8237,-29.4156"/>
<polygon fill="#000000" stroke="#000000" points="458.0859,-32.9157 468.0859,-29.4156 458.0858,-25.9157 458.0859,-32.9157"/>
</g>
</g>
</svg>
