<?xml version="1.0" encoding="UTF-8" standalone="no"?>
<!DOCTYPE svg PUBLIC "-//W3C//DTD SVG 1.1//EN"
 "http://www.w3.org/Graphics/SVG/1.1/DTD/svg11.dtd">
<!-- Generated by graphviz version 2.40.1 (20161225.0304)
 -->
<!-- Title: field_declaration Pages: 1 -->
<svg width="1061pt" height="144pt"
 viewBox="0.00 0.00 1061.35 143.83" xmlns="http://www.w3.org/2000/svg" xmlns:xlink="http://www.w3.org/1999/xlink">
<g id="graph0" class="graph" transform="scale(1 1) rotate(0) translate(4 139.8313)">
<title>field_declaration</title>
<polygon fill="#ffffff" stroke="transparent" points="-4,4 -4,-139.8313 1057.3521,-139.8313 1057.3521,4 -4,4"/>
<!-- s366 -->
<g id="node1" class="node">
<title>s366</title>
<polygon fill="none" stroke="#000000" points="0,-46.6156 0,-88.2156 56.4418,-88.2156 56.4418,-46.6156 0,-46.6156"/>
<text text-anchor="middle" x="28.2209" y="-71.6156" font-family="Times,serif" font-size="14.00" fill="#000000">s366</text>
<text text-anchor="middle" x="28.2209" y="-54.8156" font-family="Times,serif" font-size="14.00" fill="#000000">→ SEQ</text>
</g>
<!-- s367 -->
<g id="node2" class="node">
<title>s367</title>
<polygon fill="none" stroke="#000000" points="93.4418,-42.6156 93.4418,-92.2156 195.0414,-92.2156 195.0414,-42.6156 93.4418,-42.6156"/>
<text text-anchor="middle" x="134.4916" y="-71.6156" font-family="Times,serif" font-size="14.00" fill="#000000">s367</text>
<text text-anchor="middle" x="134.4916" y="-54.8156" font-family="Times,serif" font-size="14.00" fill="#000000">→ CHOICE</text>
<polyline fill="none" stroke="#000000" points="175.5414,-42.6156 175.5414,-92.2156 "/>
<text text-anchor="middle" x="185.2914" y="-75.6156" font-family="Times,serif" font-size="14.00" fill="#000000"> </text>
<polyline fill="none" stroke="#000000" points="175.5414,-67.4156 195.0414,-67.4156 "/>
<text text-anchor="middle" x="185.2914" y="-50.8156" font-family="Times,serif" font-size="14.00" fill="#000000"> </text>
</g>
<!-- s366&#45;&gt;s367 -->
<g id="edge3" class="edge">
<title>s366&#45;&gt;s367</title>
<path fill="none" stroke="#000000" d="M56.6028,-67.4156C64.6824,-67.4156 73.8102,-67.4156 83.0459,-67.4156"/>
<polygon fill="#000000" stroke="#000000" points="83.0657,-70.9157 93.0657,-67.4156 83.0656,-63.9157 83.0657,-70.9157"/>
</g>
<!-- s368 -->
<g id="node3" class="node">
<title>s368</title>
<g id="a_node3"><a xlink:href="rust-grammar.json.visibility_modifier.dot.svg" xlink:title="s368 SYMBOL\nvisibility_modifier">
<ellipse fill="none" stroke="#000000" cx="421.5942" cy="-106.4156" rx="85.6139" ry="29.3315"/>
<text text-anchor="middle" x="421.5942" y="-110.6156" font-family="Times,serif" font-size="14.00" fill="#000000">s368 SYMBOL</text>
<text text-anchor="middle" x="421.5942" y="-93.8156" font-family="Times,serif" font-size="14.00" fill="#000000">visibility_modifier</text>
</a>
</g>
</g>
<!-- s367&#45;&gt;s368 -->
<g id="edge1" class="edge">
<title>s367:p0&#45;&gt;s368</title>
<path fill="none" stroke="#000000" d="M195.0414,-79.4156C241.7047,-79.4156 293.3969,-85.1333 335.6079,-91.3063"/>
<polygon fill="#000000" stroke="#000000" points="335.1618,-94.7784 345.5697,-92.797 336.1978,-87.8555 335.1618,-94.7784"/>
<text text-anchor="middle" x="265.5393" y="-91.6156" font-family="Times,serif" font-size="14.00" fill="#000000">visibility_modifier</text>
</g>
<!-- s369 -->
<g id="node4" class="node">
<title>s369</title>
<ellipse fill="none" stroke="#000000" cx="421.5942" cy="-29.4156" rx="45.3054" ry="29.3315"/>
<text text-anchor="middle" x="421.5942" y="-33.6156" font-family="Times,serif" font-size="14.00" fill="#000000">s369 </text>
<text text-anchor="middle" x="421.5942" y="-16.8156" font-family="Times,serif" font-size="14.00" fill="#000000">BLANK</text>
</g>
<!-- s367&#45;&gt;s369 -->
<g id="edge2" class="edge">
<title>s367:p1&#45;&gt;s369</title>
<path fill="none" stroke="#000000" d="M195.0414,-55.4156C254.3,-55.4156 321.7121,-46.5273 367.4852,-39.1445"/>
<polygon fill="#000000" stroke="#000000" points="368.187,-42.5761 377.4865,-37.4997 367.051,-35.6689 368.187,-42.5761"/>
</g>
<!-- s370 -->
<g id="node5" class="node">
<title>s370</title>
<g id="a_node5"><a xlink:href="rust-grammar.json._field_identifier.dot.svg" xlink:title="s370 SYMBOL\n_field_identifier">
<ellipse fill="none" stroke="#000000" cx="619.7897" cy="-67.4156" rx="75.7775" ry="29.3315"/>
<text text-anchor="middle" x="619.7897" y="-71.6156" font-family="Times,serif" font-size="14.00" fill="#000000">s370 SYMBOL</text>
<text text-anchor="middle" x="619.7897" y="-54.8156" font-family="Times,serif" font-size="14.00" fill="#000000">_field_identifier</text>
</a>
</g>
</g>
<!-- s368&#45;&gt;s370 -->
<g id="edge4" class="edge">
<title>s368&#45;&gt;s370</title>
<path fill="none" stroke="#000000" d="M495.9588,-91.7825C511.0963,-88.8038 527.0564,-85.6633 542.2995,-82.6638"/>
<polygon fill="#000000" stroke="#000000" points="543.0609,-86.0812 552.197,-80.7162 541.7093,-79.2129 543.0609,-86.0812"/>
</g>
<!-- s369&#45;&gt;s370 -->
<g id="edge5" class="edge">
<title>s369&#45;&gt;s370</title>
<path fill="none" stroke="#000000" d="M465.5802,-37.8491C488.0297,-42.1533 516.0122,-47.5184 541.9544,-52.4923"/>
<polygon fill="#000000" stroke="#000000" points="541.3012,-55.9307 551.7814,-54.3764 542.6194,-49.0559 541.3012,-55.9307"/>
</g>
<!-- s371 -->
<g id="node6" class="node">
<title>s371</title>
<ellipse fill="none" stroke="#000000" cx="800.6573" cy="-67.4156" rx="68.4585" ry="29.3315"/>
<text text-anchor="middle" x="800.6573" y="-71.6156" font-family="Times,serif" font-size="14.00" fill="#000000">s371 STRING</text>
<text text-anchor="middle" x="800.6573" y="-54.8156" font-family="Times,serif" font-size="14.00" fill="#000000">&quot;:&quot;</text>
</g>
<!-- s370&#45;&gt;s371 -->
<g id="edge6" class="edge">
<title>s370&#45;&gt;s371</title>
<path fill="none" stroke="#000000" d="M695.4459,-67.4156C704.2125,-67.4156 713.1695,-67.4156 721.9753,-67.4156"/>
<polygon fill="#000000" stroke="#000000" points="722.2226,-70.9157 732.2226,-67.4156 722.2226,-63.9157 722.2226,-70.9157"/>
</g>
<!-- s372 -->
<g id="node7" class="node">
<title>s372</title>
<g id="a_node7"><a xlink:href="rust-grammar.json._type.dot.svg" xlink:title="s372 SYMBOL\n_type">
<ellipse fill="none" stroke="#000000" cx="979.6191" cy="-67.4156" rx="73.9667" ry="29.3315"/>
<text text-anchor="middle" x="979.6191" y="-71.6156" font-family="Times,serif" font-size="14.00" fill="#000000">s372 SYMBOL</text>
<text text-anchor="middle" x="979.6191" y="-54.8156" font-family="Times,serif" font-size="14.00" fill="#000000">_type</text>
</a>
</g>
</g>
<!-- s371&#45;&gt;s372 -->
<g id="edge7" class="edge">
<title>s371&#45;&gt;s372</title>
<path fill="none" stroke="#000000" d="M869.0811,-67.4156C877.8277,-67.4156 886.8589,-67.4156 895.814,-67.4156"/>
<polygon fill="#000000" stroke="#000000" points="895.8731,-70.9157 905.873,-67.4156 895.873,-63.9157 895.8731,-70.9157"/>
</g>
</g>
</svg>
