<?xml version="1.0" encoding="UTF-8" standalone="no"?>
<!DOCTYPE svg PUBLIC "-//W3C//DTD SVG 1.1//EN"
 "http://www.w3.org/Graphics/SVG/1.1/DTD/svg11.dtd">
<!-- Generated by graphviz version 2.40.1 (20161225.0304)
 -->
<!-- Title: generic_type_with_turbofish Pages: 1 -->
<svg width="856pt" height="144pt"
 viewBox="0.00 0.00 855.84 143.83" xmlns="http://www.w3.org/2000/svg" xmlns:xlink="http://www.w3.org/1999/xlink">
<g id="graph0" class="graph" transform="scale(1 1) rotate(0) translate(4 139.8313)">
<title>generic_type_with_turbofish</title>
<polygon fill="#ffffff" stroke="transparent" points="-4,4 -4,-139.8313 851.8433,-139.8313 851.8433,4 -4,4"/>
<!-- s861 -->
<g id="node1" class="node">
<title>s861</title>
<polygon fill="none" stroke="#000000" points="0,-46.6156 0,-88.2156 56.4418,-88.2156 56.4418,-46.6156 0,-46.6156"/>
<text text-anchor="middle" x="28.2209" y="-71.6156" font-family="Times,serif" font-size="14.00" fill="#000000">s861</text>
<text text-anchor="middle" x="28.2209" y="-54.8156" font-family="Times,serif" font-size="14.00" fill="#000000">→ SEQ</text>
</g>
<!-- s862 -->
<g id="node2" class="node">
<title>s862</title>
<polygon fill="none" stroke="#000000" points="93.4418,-42.6156 93.4418,-92.2156 195.0414,-92.2156 195.0414,-42.6156 93.4418,-42.6156"/>
<text text-anchor="middle" x="134.4916" y="-71.6156" font-family="Times,serif" font-size="14.00" fill="#000000">s862</text>
<text text-anchor="middle" x="134.4916" y="-54.8156" font-family="Times,serif" font-size="14.00" fill="#000000">→ CHOICE</text>
<polyline fill="none" stroke="#000000" points="175.5414,-42.6156 175.5414,-92.2156 "/>
<text text-anchor="middle" x="185.2914" y="-75.6156" font-family="Times,serif" font-size="14.00" fill="#000000"> </text>
<polyline fill="none" stroke="#000000" points="175.5414,-67.4156 195.0414,-67.4156 "/>
<text text-anchor="middle" x="185.2914" y="-50.8156" font-family="Times,serif" font-size="14.00" fill="#000000"> </text>
</g>
<!-- s861&#45;&gt;s862 -->
<g id="edge3" class="edge">
<title>s861&#45;&gt;s862</title>
<path fill="none" stroke="#000000" d="M56.6028,-67.4156C64.6824,-67.4156 73.8102,-67.4156 83.0459,-67.4156"/>
<polygon fill="#000000" stroke="#000000" points="83.0657,-70.9157 93.0657,-67.4156 83.0656,-63.9157 83.0657,-70.9157"/>
</g>
<!-- s863 -->
<g id="node3" class="node">
<title>s863</title>
<g id="a_node3"><a xlink:href="rust-grammar.json._type_identifier.dot.svg" xlink:title="s863 SYMBOL\n_type_identifier">
<ellipse fill="none" stroke="#000000" cx="408.263" cy="-106.4156" rx="74.5836" ry="29.3315"/>
<text text-anchor="middle" x="408.263" y="-110.6156" font-family="Times,serif" font-size="14.00" fill="#000000">s863 SYMBOL</text>
<text text-anchor="middle" x="408.263" y="-93.8156" font-family="Times,serif" font-size="14.00" fill="#000000">_type_identifier</text>
</a>
</g>
</g>
<!-- s862&#45;&gt;s863 -->
<g id="edge1" class="edge">
<title>s862:p0&#45;&gt;s863</title>
<path fill="none" stroke="#000000" d="M195.0414,-79.4156C240.275,-79.4156 290.4817,-85.4702 330.8084,-91.8451"/>
<polygon fill="#000000" stroke="#000000" points="330.4081,-95.3258 340.839,-93.4692 331.527,-88.4158 330.4081,-95.3258"/>
<text text-anchor="middle" x="261.6347" y="-91.6156" font-family="Times,serif" font-size="14.00" fill="#000000">_type_identifier</text>
</g>
<!-- s864 -->
<g id="node4" class="node">
<title>s864</title>
<g id="a_node4"><a xlink:href="rust-grammar.json.scoped_identifier.dot.svg" xlink:title="s864 SYMBOL\nscoped_identifier">
<ellipse fill="none" stroke="#000000" cx="408.263" cy="-29.4156" rx="80.07" ry="29.3315"/>
<text text-anchor="middle" x="408.263" y="-33.6156" font-family="Times,serif" font-size="14.00" fill="#000000">s864 SYMBOL</text>
<text text-anchor="middle" x="408.263" y="-16.8156" font-family="Times,serif" font-size="14.00" fill="#000000">scoped_identifier</text>
</a>
</g>
</g>
<!-- s862&#45;&gt;s864 -->
<g id="edge2" class="edge">
<title>s862:p1&#45;&gt;s864</title>
<path fill="none" stroke="#000000" d="M195.0414,-55.4156C238.6095,-55.4156 286.8194,-50.0006 326.3604,-44.113"/>
<polygon fill="#000000" stroke="#000000" points="327.1233,-47.5372 336.4805,-42.568 326.0668,-40.6173 327.1233,-47.5372"/>
<text text-anchor="middle" x="261.6347" y="-58.6156" font-family="Times,serif" font-size="14.00" fill="#000000">scoped_identifier</text>
</g>
<!-- s865 -->
<g id="node5" class="node">
<title>s865</title>
<ellipse fill="none" stroke="#000000" cx="593.5269" cy="-67.4156" rx="68.4585" ry="29.3315"/>
<text text-anchor="middle" x="593.5269" y="-71.6156" font-family="Times,serif" font-size="14.00" fill="#000000">s865 STRING</text>
<text text-anchor="middle" x="593.5269" y="-54.8156" font-family="Times,serif" font-size="14.00" fill="#000000">&quot;::&quot;</text>
</g>
<!-- s863&#45;&gt;s865 -->
<g id="edge4" class="edge">
<title>s863&#45;&gt;s865</title>
<path fill="none" stroke="#000000" d="M474.1018,-92.5559C489.544,-89.3051 506.0731,-85.8256 521.7601,-82.5233"/>
<polygon fill="#000000" stroke="#000000" points="522.8627,-85.868 531.9272,-80.383 521.4207,-79.0181 522.8627,-85.868"/>
</g>
<!-- s864&#45;&gt;s865 -->
<g id="edge5" class="edge">
<title>s864&#45;&gt;s865</title>
<path fill="none" stroke="#000000" d="M478.3033,-43.7818C492.6232,-46.719 507.7102,-49.8135 522.0787,-52.7607"/>
<polygon fill="#000000" stroke="#000000" points="521.3937,-56.193 531.893,-54.7737 522.8002,-49.3357 521.3937,-56.193"/>
</g>
<!-- s866 -->
<g id="node6" class="node">
<title>s866</title>
<g id="a_node6"><a xlink:href="rust-grammar.json.type_arguments.dot.svg" xlink:title="s866 SYMBOL\ntype_arguments">
<ellipse fill="none" stroke="#000000" cx="773.2995" cy="-67.4156" rx="74.5876" ry="29.3315"/>
<text text-anchor="middle" x="773.2995" y="-71.6156" font-family="Times,serif" font-size="14.00" fill="#000000">s866 SYMBOL</text>
<text text-anchor="middle" x="773.2995" y="-54.8156" font-family="Times,serif" font-size="14.00" fill="#000000">type_arguments</text>
</a>
</g>
</g>
<!-- s865&#45;&gt;s866 -->
<g id="edge6" class="edge">
<title>s865&#45;&gt;s866</title>
<path fill="none" stroke="#000000" d="M662.0041,-67.4156C670.7274,-67.4156 679.7364,-67.4156 688.6758,-67.4156"/>
<polygon fill="#000000" stroke="#000000" points="688.7201,-70.9157 698.72,-67.4156 688.72,-63.9157 688.7201,-70.9157"/>
</g>
</g>
</svg>
