<?xml version="1.0" encoding="UTF-8" standalone="no"?>
<!DOCTYPE svg PUBLIC "-//W3C//DTD SVG 1.1//EN"
 "http://www.w3.org/Graphics/SVG/1.1/DTD/svg11.dtd">
<!-- Generated by graphviz version 2.40.1 (20161225.0304)
 -->
<!-- Title: parameter Pages: 1 -->
<svg width="1331pt" height="221pt"
 viewBox="0.00 0.00 1331.08 220.83" xmlns="http://www.w3.org/2000/svg" xmlns:xlink="http://www.w3.org/1999/xlink">
<g id="graph0" class="graph" transform="scale(1 1) rotate(0) translate(4 216.8313)">
<title>parameter</title>
<polygon fill="#ffffff" stroke="transparent" points="-4,4 -4,-216.8313 1327.0813,-216.8313 1327.0813,4 -4,4"/>
<!-- s743 -->
<g id="node1" class="node">
<title>s743</title>
<polygon fill="none" stroke="#000000" points="0,-78.6156 0,-120.2156 56.4418,-120.2156 56.4418,-78.6156 0,-78.6156"/>
<text text-anchor="middle" x="28.2209" y="-103.6156" font-family="Times,serif" font-size="14.00" fill="#000000">s743</text>
<text text-anchor="middle" x="28.2209" y="-86.8156" font-family="Times,serif" font-size="14.00" fill="#000000">→ SEQ</text>
</g>
<!-- s744 -->
<g id="node2" class="node">
<title>s744</title>
<polygon fill="none" stroke="#000000" points="93.4418,-74.6156 93.4418,-124.2156 195.0414,-124.2156 195.0414,-74.6156 93.4418,-74.6156"/>
<text text-anchor="middle" x="134.4916" y="-103.6156" font-family="Times,serif" font-size="14.00" fill="#000000">s744</text>
<text text-anchor="middle" x="134.4916" y="-86.8156" font-family="Times,serif" font-size="14.00" fill="#000000">→ CHOICE</text>
<polyline fill="none" stroke="#000000" points="175.5414,-74.6156 175.5414,-124.2156 "/>
<text text-anchor="middle" x="185.2914" y="-107.6156" font-family="Times,serif" font-size="14.00" fill="#000000"> </text>
<polyline fill="none" stroke="#000000" points="175.5414,-99.4156 195.0414,-99.4156 "/>
<text text-anchor="middle" x="185.2914" y="-82.8156" font-family="Times,serif" font-size="14.00" fill="#000000"> </text>
</g>
<!-- s743&#45;&gt;s744 -->
<g id="edge3" class="edge">
<title>s743&#45;&gt;s744</title>
<path fill="none" stroke="#000000" d="M56.6028,-99.4156C64.6824,-99.4156 73.8102,-99.4156 83.0459,-99.4156"/>
<polygon fill="#000000" stroke="#000000" points="83.0657,-102.9157 93.0657,-99.4156 83.0656,-95.9157 83.0657,-102.9157"/>
</g>
<!-- s745 -->
<g id="node3" class="node">
<title>s745</title>
<g id="a_node3"><a xlink:href="rust-grammar.json.mutable_specifier.dot.svg" xlink:title="s745 SYMBOL\nmutable_specifier">
<ellipse fill="none" stroke="#000000" cx="413.5639" cy="-138.4156" rx="82.4621" ry="29.3315"/>
<text text-anchor="middle" x="413.5639" y="-142.6156" font-family="Times,serif" font-size="14.00" fill="#000000">s745 SYMBOL</text>
<text text-anchor="middle" x="413.5639" y="-125.8156" font-family="Times,serif" font-size="14.00" fill="#000000">mutable_specifier</text>
</a>
</g>
</g>
<!-- s744&#45;&gt;s745 -->
<g id="edge1" class="edge">
<title>s744:p0&#45;&gt;s745</title>
<path fill="none" stroke="#000000" d="M195.0414,-111.4156C239.9724,-111.4156 289.7104,-117.1074 330.3696,-123.2644"/>
<polygon fill="#000000" stroke="#000000" points="330.0842,-126.7619 340.5026,-124.8365 331.1575,-119.8447 330.0842,-126.7619"/>
<text text-anchor="middle" x="263.1873" y="-123.6156" font-family="Times,serif" font-size="14.00" fill="#000000">mutable_specifier</text>
</g>
<!-- s746 -->
<g id="node4" class="node">
<title>s746</title>
<ellipse fill="none" stroke="#000000" cx="413.5639" cy="-61.4156" rx="45.3054" ry="29.3315"/>
<text text-anchor="middle" x="413.5639" y="-65.6156" font-family="Times,serif" font-size="14.00" fill="#000000">s746 </text>
<text text-anchor="middle" x="413.5639" y="-48.8156" font-family="Times,serif" font-size="14.00" fill="#000000">BLANK</text>
</g>
<!-- s744&#45;&gt;s746 -->
<g id="edge2" class="edge">
<title>s744:p1&#45;&gt;s746</title>
<path fill="none" stroke="#000000" d="M195.0414,-87.4156C251.5755,-87.4156 315.7641,-78.7288 359.8697,-71.3975"/>
<polygon fill="#000000" stroke="#000000" points="360.5239,-74.8366 369.7978,-69.7137 359.3534,-67.9352 360.5239,-74.8366"/>
</g>
<!-- s747 -->
<g id="node5" class="node">
<title>s747</title>
<polygon fill="none" stroke="#000000" points="532.7946,-69.2156 532.7946,-143.6156 634.3942,-143.6156 634.3942,-69.2156 532.7946,-69.2156"/>
<text text-anchor="middle" x="573.8444" y="-110.6156" font-family="Times,serif" font-size="14.00" fill="#000000">s747</text>
<text text-anchor="middle" x="573.8444" y="-93.8156" font-family="Times,serif" font-size="14.00" fill="#000000">→ CHOICE</text>
<polyline fill="none" stroke="#000000" points="614.8942,-69.2156 614.8942,-143.6156 "/>
<text text-anchor="middle" x="624.6442" y="-127.0156" font-family="Times,serif" font-size="14.00" fill="#000000"> </text>
<polyline fill="none" stroke="#000000" points="614.8942,-118.8156 634.3942,-118.8156 "/>
<text text-anchor="middle" x="624.6442" y="-102.2156" font-family="Times,serif" font-size="14.00" fill="#000000"> </text>
<polyline fill="none" stroke="#000000" points="614.8942,-94.0156 634.3942,-94.0156 "/>
<text text-anchor="middle" x="624.6442" y="-77.4156" font-family="Times,serif" font-size="14.00" fill="#000000"> </text>
</g>
<!-- s745&#45;&gt;s747 -->
<g id="edge7" class="edge">
<title>s745&#45;&gt;s747</title>
<path fill="none" stroke="#000000" d="M486.6589,-124.6591C498.6328,-122.4055 510.9285,-120.0915 522.5705,-117.9004"/>
<polygon fill="#000000" stroke="#000000" points="523.4284,-121.3005 532.6085,-116.0113 522.1336,-114.4213 523.4284,-121.3005"/>
</g>
<!-- s746&#45;&gt;s747 -->
<g id="edge8" class="edge">
<title>s746&#45;&gt;s747</title>
<path fill="none" stroke="#000000" d="M456.0312,-72.655C476.1618,-77.9827 500.5807,-84.4454 522.6433,-90.2844"/>
<polygon fill="#000000" stroke="#000000" points="522.0278,-93.742 532.5905,-92.917 523.8188,-86.9749 522.0278,-93.742"/>
</g>
<!-- s748 -->
<g id="node6" class="node">
<title>s748</title>
<g id="a_node6"><a xlink:href="rust-grammar.json._pattern.dot.svg" xlink:title="s748 SYMBOL\n_pattern">
<ellipse fill="none" stroke="#000000" cx="874.1371" cy="-183.4156" rx="73.9667" ry="29.3315"/>
<text text-anchor="middle" x="874.1371" y="-187.6156" font-family="Times,serif" font-size="14.00" fill="#000000">s748 SYMBOL</text>
<text text-anchor="middle" x="874.1371" y="-170.8156" font-family="Times,serif" font-size="14.00" fill="#000000">_pattern</text>
</a>
</g>
</g>
<!-- s747&#45;&gt;s748 -->
<g id="edge4" class="edge">
<title>s747:p0&#45;&gt;s748</title>
<path fill="none" stroke="#000000" d="M634.3942,-131.4156C694.3606,-131.4156 760.8861,-147.1456 808.6159,-161.3026"/>
<polygon fill="#000000" stroke="#000000" points="807.6198,-164.6578 818.2048,-164.2005 809.6449,-157.9572 807.6198,-164.6578"/>
<text text-anchor="middle" x="708.7554" y="-151.6156" font-family="Times,serif" font-size="14.00" fill="#000000">_pattern</text>
</g>
<!-- s749 -->
<g id="node7" class="node">
<title>s749</title>
<g id="a_node7"><a xlink:href="rust-grammar.json.self.dot.svg" xlink:title="s749 SYMBOL\nself">
<ellipse fill="none" stroke="#000000" cx="874.1371" cy="-106.4156" rx="73.9667" ry="29.3315"/>
<text text-anchor="middle" x="874.1371" y="-110.6156" font-family="Times,serif" font-size="14.00" fill="#000000">s749 SYMBOL</text>
<text text-anchor="middle" x="874.1371" y="-93.8156" font-family="Times,serif" font-size="14.00" fill="#000000">self</text>
</a>
</g>
</g>
<!-- s747&#45;&gt;s749 -->
<g id="edge5" class="edge">
<title>s747:p1&#45;&gt;s749</title>
<path fill="none" stroke="#000000" d="M634.3942,-106.4156C686.0527,-106.4156 743.9724,-106.4156 789.94,-106.4156"/>
<polygon fill="#000000" stroke="#000000" points="790.1567,-109.9157 800.1567,-106.4156 790.1566,-102.9157 790.1567,-109.9157"/>
<text text-anchor="middle" x="708.7554" y="-110.6156" font-family="Times,serif" font-size="14.00" fill="#000000">self</text>
</g>
<!-- s750 -->
<g id="node8" class="node">
<title>s750</title>
<g id="a_node8"><a xlink:href="rust-grammar.json._reserved_identifier.dot.svg" xlink:title="s750 SYMBOL\n_reserved_identifier">
<ellipse fill="none" stroke="#000000" cx="874.1371" cy="-29.4156" rx="91.041" ry="29.3315"/>
<text text-anchor="middle" x="874.1371" y="-33.6156" font-family="Times,serif" font-size="14.00" fill="#000000">s750 SYMBOL</text>
<text text-anchor="middle" x="874.1371" y="-16.8156" font-family="Times,serif" font-size="14.00" fill="#000000">_reserved_identifier</text>
</a>
</g>
</g>
<!-- s747&#45;&gt;s750 -->
<g id="edge6" class="edge">
<title>s747:p2&#45;&gt;s750</title>
<path fill="none" stroke="#000000" d="M634.3942,-81.4156C691.4521,-81.4156 754.4483,-67.1746 801.5411,-53.5978"/>
<polygon fill="#000000" stroke="#000000" points="802.7346,-56.8951 811.341,-50.7161 800.7598,-50.1794 802.7346,-56.8951"/>
<text text-anchor="middle" x="708.7554" y="-84.6156" font-family="Times,serif" font-size="14.00" fill="#000000">_reserved_identifier</text>
</g>
<!-- s751 -->
<g id="node9" class="node">
<title>s751</title>
<ellipse fill="none" stroke="#000000" cx="1070.3865" cy="-106.4156" rx="68.4585" ry="29.3315"/>
<text text-anchor="middle" x="1070.3865" y="-110.6156" font-family="Times,serif" font-size="14.00" fill="#000000">s751 STRING</text>
<text text-anchor="middle" x="1070.3865" y="-93.8156" font-family="Times,serif" font-size="14.00" fill="#000000">&quot;:&quot;</text>
</g>
<!-- s748&#45;&gt;s751 -->
<g id="edge9" class="edge">
<title>s748&#45;&gt;s751</title>
<path fill="none" stroke="#000000" d="M926.7283,-162.7811C952.4128,-152.7036 983.4452,-140.5277 1010.0857,-130.0751"/>
<polygon fill="#000000" stroke="#000000" points="1011.6532,-133.2199 1019.6839,-126.3092 1009.0964,-126.7036 1011.6532,-133.2199"/>
</g>
<!-- s749&#45;&gt;s751 -->
<g id="edge10" class="edge">
<title>s749&#45;&gt;s751</title>
<path fill="none" stroke="#000000" d="M948.0509,-106.4156C962.3024,-106.4156 977.2807,-106.4156 991.678,-106.4156"/>
<polygon fill="#000000" stroke="#000000" points="992.0402,-109.9157 1002.0402,-106.4156 992.0401,-102.9157 992.0402,-109.9157"/>
</g>
<!-- s750&#45;&gt;s751 -->
<g id="edge11" class="edge">
<title>s750&#45;&gt;s751</title>
<path fill="none" stroke="#000000" d="M932.2219,-52.2056C956.8765,-61.8791 985.6017,-73.1497 1010.454,-82.9006"/>
<polygon fill="#000000" stroke="#000000" points="1009.1852,-86.1625 1019.7727,-86.5569 1011.742,-79.6462 1009.1852,-86.1625"/>
</g>
<!-- s752 -->
<g id="node10" class="node">
<title>s752</title>
<g id="a_node10"><a xlink:href="rust-grammar.json._type.dot.svg" xlink:title="s752 SYMBOL\n_type">
<ellipse fill="none" stroke="#000000" cx="1249.3483" cy="-106.4156" rx="73.9667" ry="29.3315"/>
<text text-anchor="middle" x="1249.3483" y="-110.6156" font-family="Times,serif" font-size="14.00" fill="#000000">s752 SYMBOL</text>
<text text-anchor="middle" x="1249.3483" y="-93.8156" font-family="Times,serif" font-size="14.00" fill="#000000">_type</text>
</a>
</g>
</g>
<!-- s751&#45;&gt;s752 -->
<g id="edge12" class="edge">
<title>s751&#45;&gt;s752</title>
<path fill="none" stroke="#000000" d="M1138.8103,-106.4156C1147.5569,-106.4156 1156.5881,-106.4156 1165.5432,-106.4156"/>
<polygon fill="#000000" stroke="#000000" points="1165.6023,-109.9157 1175.6022,-106.4156 1165.6022,-102.9157 1165.6023,-109.9157"/>
</g>
</g>
</svg>
