<?xml version="1.0" encoding="UTF-8" standalone="no"?>
<!DOCTYPE svg PUBLIC "-//W3C//DTD SVG 1.1//EN"
 "http://www.w3.org/Graphics/SVG/1.1/DTD/svg11.dtd">
<!-- Generated by graphviz version 2.40.1 (20161225.0304)
 -->
<!-- Title: unit_expression Pages: 1 -->
<svg width="429pt" height="67pt"
 viewBox="0.00 0.00 429.16 66.83" xmlns="http://www.w3.org/2000/svg" xmlns:xlink="http://www.w3.org/1999/xlink">
<g id="graph0" class="graph" transform="scale(1 1) rotate(0) translate(4 62.8313)">
<title>unit_expression</title>
<polygon fill="#ffffff" stroke="transparent" points="-4,4 -4,-62.8313 425.1563,-62.8313 425.1563,4 -4,4"/>
<!-- s1108 -->
<g id="node1" class="node">
<title>s1108</title>
<polygon fill="none" stroke="#000000" points="0,-8.6156 0,-50.2156 56.4418,-50.2156 56.4418,-8.6156 0,-8.6156"/>
<text text-anchor="middle" x="28.2209" y="-33.6156" font-family="Times,serif" font-size="14.00" fill="#000000">s1108</text>
<text text-anchor="middle" x="28.2209" y="-16.8156" font-family="Times,serif" font-size="14.00" fill="#000000">→ SEQ</text>
</g>
<!-- s1109 -->
<g id="node2" class="node">
<title>s1109</title>
<ellipse fill="none" stroke="#000000" cx="165.6204" cy="-29.4156" rx="73.3577" ry="29.3315"/>
<text text-anchor="middle" x="165.6204" y="-33.6156" font-family="Times,serif" font-size="14.00" fill="#000000">s1109 STRING</text>
<text text-anchor="middle" x="165.6204" y="-16.8156" font-family="Times,serif" font-size="14.00" fill="#000000">&quot;(&quot;</text>
</g>
<!-- s1108&#45;&gt;s1109 -->
<g id="edge1" class="edge">
<title>s1108&#45;&gt;s1109</title>
<path fill="none" stroke="#000000" d="M56.6902,-29.4156C64.4253,-29.4156 73.211,-29.4156 82.3577,-29.4156"/>
<polygon fill="#000000" stroke="#000000" points="82.3919,-32.9157 92.3919,-29.4156 82.3919,-25.9157 82.3919,-32.9157"/>
</g>
<!-- s1110 -->
<g id="node3" class="node">
<title>s1110</title>
<ellipse fill="none" stroke="#000000" cx="347.9777" cy="-29.4156" rx="73.3577" ry="29.3315"/>
<text text-anchor="middle" x="347.9777" y="-33.6156" font-family="Times,serif" font-size="14.00" fill="#000000">s1110 STRING</text>
<text text-anchor="middle" x="347.9777" y="-16.8156" font-family="Times,serif" font-size="14.00" fill="#000000">&quot;)&quot;</text>
</g>
<!-- s1109&#45;&gt;s1110 -->
<g id="edge2" class="edge">
<title>s1109&#45;&gt;s1110</title>
<path fill="none" stroke="#000000" d="M239.0038,-29.4156C247.4688,-29.4156 256.1467,-29.4156 264.7301,-29.4156"/>
<polygon fill="#000000" stroke="#000000" points="264.7445,-32.9157 274.7445,-29.4156 264.7444,-25.9157 264.7445,-32.9157"/>
</g>
</g>
</svg>
