<?xml version="1.0" encoding="UTF-8" standalone="no"?>
<!DOCTYPE svg PUBLIC "-//W3C//DTD SVG 1.1//EN"
 "http://www.w3.org/Graphics/SVG/1.1/DTD/svg11.dtd">
<!-- Generated by graphviz version 2.40.1 (20161225.0304)
 -->
<!-- Title: return_expression Pages: 1 -->
<svg width="522pt" height="136pt"
 viewBox="0.00 0.00 522.19 135.83" xmlns="http://www.w3.org/2000/svg" xmlns:xlink="http://www.w3.org/1999/xlink">
<g id="graph0" class="graph" transform="scale(1 1) rotate(0) translate(4 131.8313)">
<title>return_expression</title>
<polygon fill="#ffffff" stroke="transparent" points="-4,4 -4,-131.8313 518.1931,-131.8313 518.1931,4 -4,4"/>
<!-- s1049 -->
<g id="node1" class="node">
<title>s1049</title>
<polygon fill="none" stroke="#000000" points="0,-39.6156 0,-89.2156 101.5996,-89.2156 101.5996,-39.6156 0,-39.6156"/>
<text text-anchor="middle" x="41.0498" y="-68.6156" font-family="Times,serif" font-size="14.00" fill="#000000">s1049</text>
<text text-anchor="middle" x="41.0498" y="-51.8156" font-family="Times,serif" font-size="14.00" fill="#000000">→ CHOICE</text>
<polyline fill="none" stroke="#000000" points="82.0996,-39.6156 82.0996,-89.2156 "/>
<text text-anchor="middle" x="91.8496" y="-72.6156" font-family="Times,serif" font-size="14.00" fill="#000000"> </text>
<polyline fill="none" stroke="#000000" points="82.0996,-64.4156 101.5996,-64.4156 "/>
<text text-anchor="middle" x="91.8496" y="-47.8156" font-family="Times,serif" font-size="14.00" fill="#000000"> </text>
</g>
<!-- s1050 -->
<g id="node2" class="node">
<title>s1050</title>
<ellipse fill="none" stroke="#000000" cx="240.048" cy="-98.4156" rx="90.5762" ry="29.3315"/>
<text text-anchor="middle" x="240.048" y="-102.6156" font-family="Times,serif" font-size="14.00" fill="#000000">s1050 PREC_LEFT</text>
<text text-anchor="middle" x="240.048" y="-85.8156" font-family="Times,serif" font-size="14.00" fill="#000000">(not&#45;implemented)</text>
</g>
<!-- s1049&#45;&gt;s1050 -->
<g id="edge1" class="edge">
<title>s1049:p0&#45;&gt;s1050</title>
<path fill="none" stroke="#000000" d="M101.5996,-76.4156C118.791,-76.4156 137.036,-78.0906 154.4444,-80.5162"/>
<polygon fill="#000000" stroke="#000000" points="154.1771,-84.0149 164.5832,-82.0241 155.2069,-77.091 154.1771,-84.0149"/>
</g>
<!-- s1051 -->
<g id="node3" class="node">
<title>s1051</title>
<polygon fill="none" stroke="#000000" points="207.5438,-8.6156 207.5438,-50.2156 272.5522,-50.2156 272.5522,-8.6156 207.5438,-8.6156"/>
<text text-anchor="middle" x="240.048" y="-33.6156" font-family="Times,serif" font-size="14.00" fill="#000000">s1051</text>
<text text-anchor="middle" x="240.048" y="-16.8156" font-family="Times,serif" font-size="14.00" fill="#000000">→ PREC</text>
</g>
<!-- s1049&#45;&gt;s1051 -->
<g id="edge3" class="edge">
<title>s1049:p1&#45;&gt;s1051</title>
<path fill="none" stroke="#000000" d="M101.5996,-52.4156C134.0078,-52.4156 170.1132,-46.2069 197.3256,-40.2411"/>
<polygon fill="#000000" stroke="#000000" points="198.3155,-43.6056 207.2934,-37.98 196.7668,-36.779 198.3155,-43.6056"/>
<text text-anchor="middle" x="125.4299" y="-56.6156" font-family="Times,serif" font-size="14.00" fill="#000000">&#45;1</text>
</g>
<!-- s1052 -->
<g id="node4" class="node">
<title>s1052</title>
<ellipse fill="none" stroke="#000000" cx="441.0145" cy="-29.4156" rx="73.3577" ry="29.3315"/>
<text text-anchor="middle" x="441.0145" y="-33.6156" font-family="Times,serif" font-size="14.00" fill="#000000">s1052 STRING</text>
<text text-anchor="middle" x="441.0145" y="-16.8156" font-family="Times,serif" font-size="14.00" fill="#000000">&quot;return&quot;</text>
</g>
<!-- s1051&#45;&gt;s1052 -->
<g id="edge2" class="edge">
<title>s1051&#45;&gt;s1052</title>
<path fill="none" stroke="#000000" d="M272.7841,-29.4156C295.8672,-29.4156 327.8785,-29.4156 357.7872,-29.4156"/>
<polygon fill="#000000" stroke="#000000" points="357.8336,-32.9157 367.8336,-29.4156 357.8336,-25.9157 357.8336,-32.9157"/>
</g>
</g>
</svg>
