<?xml version="1.0" encoding="UTF-8" standalone="no"?>
<!DOCTYPE svg PUBLIC "-//W3C//DTD SVG 1.1//EN"
 "http://www.w3.org/Graphics/SVG/1.1/DTD/svg11.dtd">
<!-- Generated by graphviz version 2.40.1 (20161225.0304)
 -->
<!-- Title: higher_ranked_trait_bound Pages: 1 -->
<svg width="610pt" height="67pt"
 viewBox="0.00 0.00 609.82 66.83" xmlns="http://www.w3.org/2000/svg" xmlns:xlink="http://www.w3.org/1999/xlink">
<g id="graph0" class="graph" transform="scale(1 1) rotate(0) translate(4 62.8313)">
<title>higher_ranked_trait_bound</title>
<polygon fill="#ffffff" stroke="transparent" points="-4,4 -4,-62.8313 605.8227,-62.8313 605.8227,4 -4,4"/>
<!-- s597 -->
<g id="node1" class="node">
<title>s597</title>
<polygon fill="none" stroke="#000000" points="0,-8.6156 0,-50.2156 56.4418,-50.2156 56.4418,-8.6156 0,-8.6156"/>
<text text-anchor="middle" x="28.2209" y="-33.6156" font-family="Times,serif" font-size="14.00" fill="#000000">s597</text>
<text text-anchor="middle" x="28.2209" y="-16.8156" font-family="Times,serif" font-size="14.00" fill="#000000">→ SEQ</text>
</g>
<!-- s598 -->
<g id="node2" class="node">
<title>s598</title>
<ellipse fill="none" stroke="#000000" cx="160.6707" cy="-29.4156" rx="68.4585" ry="29.3315"/>
<text text-anchor="middle" x="160.6707" y="-33.6156" font-family="Times,serif" font-size="14.00" fill="#000000">s598 STRING</text>
<text text-anchor="middle" x="160.6707" y="-16.8156" font-family="Times,serif" font-size="14.00" fill="#000000">&quot;for&quot;</text>
</g>
<!-- s597&#45;&gt;s598 -->
<g id="edge1" class="edge">
<title>s597&#45;&gt;s598</title>
<path fill="none" stroke="#000000" d="M56.6347,-29.4156C64.3113,-29.4156 73.0073,-29.4156 82.0218,-29.4156"/>
<polygon fill="#000000" stroke="#000000" points="82.2976,-32.9157 92.2975,-29.4156 82.2975,-25.9157 82.2976,-32.9157"/>
</g>
<!-- s599 -->
<g id="node3" class="node">
<title>s599</title>
<g id="a_node3"><a xlink:href="rust-grammar.json.type_parameters.dot.svg" xlink:title="s599 SYMBOL\ntype_parameters">
<ellipse fill="none" stroke="#000000" cx="341.6281" cy="-29.4156" rx="76.9578" ry="29.3315"/>
<text text-anchor="middle" x="341.6281" y="-33.6156" font-family="Times,serif" font-size="14.00" fill="#000000">s599 SYMBOL</text>
<text text-anchor="middle" x="341.6281" y="-16.8156" font-family="Times,serif" font-size="14.00" fill="#000000">type_parameters</text>
</a>
</g>
</g>
<!-- s598&#45;&gt;s599 -->
<g id="edge2" class="edge">
<title>s598&#45;&gt;s599</title>
<path fill="none" stroke="#000000" d="M229.0829,-29.4156C237.4276,-29.4156 246.0389,-29.4156 254.6089,-29.4156"/>
<polygon fill="#000000" stroke="#000000" points="254.6317,-32.9157 264.6317,-29.4156 254.6317,-25.9157 254.6317,-32.9157"/>
</g>
<!-- s600 -->
<g id="node4" class="node">
<title>s600</title>
<g id="a_node4"><a xlink:href="rust-grammar.json._type.dot.svg" xlink:title="s600 SYMBOL\n_type">
<ellipse fill="none" stroke="#000000" cx="528.0897" cy="-29.4156" rx="73.9667" ry="29.3315"/>
<text text-anchor="middle" x="528.0897" y="-33.6156" font-family="Times,serif" font-size="14.00" fill="#000000">s600 SYMBOL</text>
<text text-anchor="middle" x="528.0897" y="-16.8156" font-family="Times,serif" font-size="14.00" fill="#000000">_type</text>
</a>
</g>
</g>
<!-- s599&#45;&gt;s600 -->
<g id="edge3" class="edge">
<title>s599&#45;&gt;s600</title>
<path fill="none" stroke="#000000" d="M418.5457,-29.4156C427.054,-29.4156 435.7493,-29.4156 444.3363,-29.4156"/>
<polygon fill="#000000" stroke="#000000" points="444.3492,-32.9157 454.3491,-29.4156 444.3491,-25.9157 444.3492,-32.9157"/>
</g>
</g>
</svg>
