<?xml version="1.0" encoding="UTF-8" standalone="no"?>
<!DOCTYPE svg PUBLIC "-//W3C//DTD SVG 1.1//EN"
 "http://www.w3.org/Graphics/SVG/1.1/DTD/svg11.dtd">
<!-- Generated by graphviz version 2.40.1 (20161225.0304)
 -->
<!-- Title: struct_pattern Pages: 1 -->
<svg width="2613pt" height="301pt"
 viewBox="0.00 0.00 2613.38 300.83" xmlns="http://www.w3.org/2000/svg" xmlns:xlink="http://www.w3.org/1999/xlink">
<g id="graph0" class="graph" transform="scale(1 1) rotate(0) translate(4 296.8313)">
<title>struct_pattern</title>
<polygon fill="#ffffff" stroke="transparent" points="-4,4 -4,-296.8313 2609.3817,-296.8313 2609.3817,4 -4,4"/>
<!-- s1400 -->
<g id="node1" class="node">
<title>s1400</title>
<polygon fill="none" stroke="#000000" points="0,-100.6156 0,-142.2156 56.4418,-142.2156 56.4418,-100.6156 0,-100.6156"/>
<text text-anchor="middle" x="28.2209" y="-125.6156" font-family="Times,serif" font-size="14.00" fill="#000000">s1400</text>
<text text-anchor="middle" x="28.2209" y="-108.8156" font-family="Times,serif" font-size="14.00" fill="#000000">→ SEQ</text>
</g>
<!-- s1401 -->
<g id="node2" class="node">
<title>s1401</title>
<polygon fill="none" stroke="#000000" points="93.4418,-96.6156 93.4418,-146.2156 195.0414,-146.2156 195.0414,-96.6156 93.4418,-96.6156"/>
<text text-anchor="middle" x="134.4916" y="-125.6156" font-family="Times,serif" font-size="14.00" fill="#000000">s1401</text>
<text text-anchor="middle" x="134.4916" y="-108.8156" font-family="Times,serif" font-size="14.00" fill="#000000">→ CHOICE</text>
<polyline fill="none" stroke="#000000" points="175.5414,-96.6156 175.5414,-146.2156 "/>
<text text-anchor="middle" x="185.2914" y="-129.6156" font-family="Times,serif" font-size="14.00" fill="#000000"> </text>
<polyline fill="none" stroke="#000000" points="175.5414,-121.4156 195.0414,-121.4156 "/>
<text text-anchor="middle" x="185.2914" y="-104.8156" font-family="Times,serif" font-size="14.00" fill="#000000"> </text>
</g>
<!-- s1400&#45;&gt;s1401 -->
<g id="edge3" class="edge">
<title>s1400&#45;&gt;s1401</title>
<path fill="none" stroke="#000000" d="M56.6028,-121.4156C64.6824,-121.4156 73.8102,-121.4156 83.0459,-121.4156"/>
<polygon fill="#000000" stroke="#000000" points="83.0657,-124.9157 93.0657,-121.4156 83.0656,-117.9157 83.0657,-124.9157"/>
</g>
<!-- s1402 -->
<g id="node3" class="node">
<title>s1402</title>
<g id="a_node3"><a xlink:href="rust-grammar.json._type_identifier.dot.svg" xlink:title="s1402 SYMBOL\n_type_identifier">
<ellipse fill="none" stroke="#000000" cx="461.3629" cy="-160.4156" rx="78.8659" ry="29.3315"/>
<text text-anchor="middle" x="461.3629" y="-164.6156" font-family="Times,serif" font-size="14.00" fill="#000000">s1402 SYMBOL</text>
<text text-anchor="middle" x="461.3629" y="-147.8156" font-family="Times,serif" font-size="14.00" fill="#000000">_type_identifier</text>
</a>
</g>
</g>
<!-- s1401&#45;&gt;s1402 -->
<g id="edge1" class="edge">
<title>s1401:p0&#45;&gt;s1402</title>
<path fill="none" stroke="#000000" d="M195.0414,-133.4156C256.8197,-133.4156 326.2497,-140.6959 378.7271,-147.6956"/>
<polygon fill="#000000" stroke="#000000" points="378.2756,-151.1663 388.6556,-149.0435 379.2173,-144.23 378.2756,-151.1663"/>
<text text-anchor="middle" x="277.1873" y="-146.6156" font-family="Times,serif" font-size="14.00" fill="#000000">_type_identifier</text>
</g>
<!-- s1403 -->
<g id="node4" class="node">
<title>s1403</title>
<g id="a_node4"><a xlink:href="rust-grammar.json.scoped_type_identifier.dot.svg" xlink:title="s1403 SYMBOL\nscoped_type_identifier">
<ellipse fill="none" stroke="#000000" cx="461.3629" cy="-83.4156" rx="102.0594" ry="29.3315"/>
<text text-anchor="middle" x="461.3629" y="-87.6156" font-family="Times,serif" font-size="14.00" fill="#000000">s1403 SYMBOL</text>
<text text-anchor="middle" x="461.3629" y="-70.8156" font-family="Times,serif" font-size="14.00" fill="#000000">scoped_type_identifier</text>
</a>
</g>
</g>
<!-- s1401&#45;&gt;s1403 -->
<g id="edge2" class="edge">
<title>s1401:p1&#45;&gt;s1403</title>
<path fill="none" stroke="#000000" d="M195.0414,-109.4156C249.8034,-109.4156 310.601,-103.9029 360.2648,-97.9543"/>
<polygon fill="#000000" stroke="#000000" points="360.8635,-101.4073 370.3652,-96.7203 360.0145,-94.459 360.8635,-101.4073"/>
<text text-anchor="middle" x="277.1873" y="-112.6156" font-family="Times,serif" font-size="14.00" fill="#000000">scoped_type_identifier</text>
</g>
<!-- s1404 -->
<g id="node5" class="node">
<title>s1404</title>
<ellipse fill="none" stroke="#000000" cx="673.5712" cy="-121.4156" rx="73.3577" ry="29.3315"/>
<text text-anchor="middle" x="673.5712" y="-125.6156" font-family="Times,serif" font-size="14.00" fill="#000000">s1404 STRING</text>
<text text-anchor="middle" x="673.5712" y="-108.8156" font-family="Times,serif" font-size="14.00" fill="#000000">&quot;{&quot;</text>
</g>
<!-- s1402&#45;&gt;s1404 -->
<g id="edge4" class="edge">
<title>s1402&#45;&gt;s1404</title>
<path fill="none" stroke="#000000" d="M532.0252,-147.4292C552.8423,-143.6034 575.7157,-139.3997 596.8913,-135.508"/>
<polygon fill="#000000" stroke="#000000" points="597.6068,-138.9352 606.8094,-133.6852 596.3415,-132.0505 597.6068,-138.9352"/>
</g>
<!-- s1403&#45;&gt;s1404 -->
<g id="edge5" class="edge">
<title>s1403&#45;&gt;s1404</title>
<path fill="none" stroke="#000000" d="M548.2885,-98.9813C564.2504,-101.8396 580.8114,-104.8052 596.461,-107.6076"/>
<polygon fill="#000000" stroke="#000000" points="596.1375,-111.1052 606.5979,-109.4228 597.3714,-104.2148 596.1375,-111.1052"/>
</g>
<!-- s1405 -->
<g id="node6" class="node">
<title>s1405</title>
<polygon fill="none" stroke="#000000" points="783.7499,-96.6156 783.7499,-146.2156 885.3495,-146.2156 885.3495,-96.6156 783.7499,-96.6156"/>
<text text-anchor="middle" x="824.7997" y="-125.6156" font-family="Times,serif" font-size="14.00" fill="#000000">s1405</text>
<text text-anchor="middle" x="824.7997" y="-108.8156" font-family="Times,serif" font-size="14.00" fill="#000000">→ CHOICE</text>
<polyline fill="none" stroke="#000000" points="865.8495,-96.6156 865.8495,-146.2156 "/>
<text text-anchor="middle" x="875.5995" y="-129.6156" font-family="Times,serif" font-size="14.00" fill="#000000"> </text>
<polyline fill="none" stroke="#000000" points="865.8495,-121.4156 885.3495,-121.4156 "/>
<text text-anchor="middle" x="875.5995" y="-104.8156" font-family="Times,serif" font-size="14.00" fill="#000000"> </text>
</g>
<!-- s1404&#45;&gt;s1405 -->
<g id="edge19" class="edge">
<title>s1404&#45;&gt;s1405</title>
<path fill="none" stroke="#000000" d="M746.9943,-121.4156C755.7193,-121.4156 764.5559,-121.4156 773.0898,-121.4156"/>
<polygon fill="#000000" stroke="#000000" points="773.3213,-124.9157 783.3213,-121.4156 773.3212,-117.9157 773.3213,-124.9157"/>
</g>
<!-- s1406 -->
<g id="node7" class="node">
<title>s1406</title>
<polygon fill="none" stroke="#000000" points="922.3495,-139.6156 922.3495,-181.2156 978.7913,-181.2156 978.7913,-139.6156 922.3495,-139.6156"/>
<text text-anchor="middle" x="950.5704" y="-164.6156" font-family="Times,serif" font-size="14.00" fill="#000000">s1406</text>
<text text-anchor="middle" x="950.5704" y="-147.8156" font-family="Times,serif" font-size="14.00" fill="#000000">→ SEQ</text>
</g>
<!-- s1405&#45;&gt;s1406 -->
<g id="edge17" class="edge">
<title>s1405:p0&#45;&gt;s1406</title>
<path fill="none" stroke="#000000" d="M885.3495,-133.4156C894.5206,-133.4156 903.9033,-135.7229 912.5901,-138.9886"/>
<polygon fill="#000000" stroke="#000000" points="911.4814,-142.3203 922.0537,-143.0109 914.2196,-135.8781 911.4814,-142.3203"/>
</g>
<!-- s1416 -->
<g id="node17" class="node">
<title>s1416</title>
<ellipse fill="none" stroke="#000000" cx="1042.1939" cy="-99.4156" rx="45.3054" ry="29.3315"/>
<text text-anchor="middle" x="1042.1939" y="-103.6156" font-family="Times,serif" font-size="14.00" fill="#000000">s1416 </text>
<text text-anchor="middle" x="1042.1939" y="-86.8156" font-family="Times,serif" font-size="14.00" fill="#000000">BLANK</text>
</g>
<!-- s1405&#45;&gt;s1416 -->
<g id="edge18" class="edge">
<title>s1405:p1&#45;&gt;s1416</title>
<path fill="none" stroke="#000000" d="M885.3495,-109.4156C919.1538,-109.4156 956.9736,-107.0735 987.0047,-104.6562"/>
<polygon fill="#000000" stroke="#000000" points="987.6073,-108.1183 997.2829,-103.8018 987.0273,-101.1424 987.6073,-108.1183"/>
</g>
<!-- s1407 -->
<g id="node8" class="node">
<title>s1407</title>
<polygon fill="none" stroke="#000000" points="1105.5965,-138.6156 1105.5965,-188.2156 1207.1961,-188.2156 1207.1961,-138.6156 1105.5965,-138.6156"/>
<text text-anchor="middle" x="1146.6463" y="-167.6156" font-family="Times,serif" font-size="14.00" fill="#000000">s1407</text>
<text text-anchor="middle" x="1146.6463" y="-150.8156" font-family="Times,serif" font-size="14.00" fill="#000000">→ CHOICE</text>
<polyline fill="none" stroke="#000000" points="1187.6961,-138.6156 1187.6961,-188.2156 "/>
<text text-anchor="middle" x="1197.4461" y="-171.6156" font-family="Times,serif" font-size="14.00" fill="#000000"> </text>
<polyline fill="none" stroke="#000000" points="1187.6961,-163.4156 1207.1961,-163.4156 "/>
<text text-anchor="middle" x="1197.4461" y="-146.8156" font-family="Times,serif" font-size="14.00" fill="#000000"> </text>
</g>
<!-- s1406&#45;&gt;s1407 -->
<g id="edge8" class="edge">
<title>s1406&#45;&gt;s1407</title>
<path fill="none" stroke="#000000" d="M979.1896,-160.8328C1009.1021,-161.2688 1056.9451,-161.9661 1095.3837,-162.5264"/>
<polygon fill="#000000" stroke="#000000" points="1095.3937,-166.0268 1105.4436,-162.673 1095.4957,-159.0275 1095.3937,-166.0268"/>
</g>
<!-- s1408 -->
<g id="node9" class="node">
<title>s1408</title>
<g id="a_node9"><a xlink:href="rust-grammar.json.field_pattern.dot.svg" xlink:title="s1408 SYMBOL\nfield_pattern">
<ellipse fill="none" stroke="#000000" cx="1485.4626" cy="-228.4156" rx="78.8659" ry="29.3315"/>
<text text-anchor="middle" x="1485.4626" y="-232.6156" font-family="Times,serif" font-size="14.00" fill="#000000">s1408 SYMBOL</text>
<text text-anchor="middle" x="1485.4626" y="-215.8156" font-family="Times,serif" font-size="14.00" fill="#000000">field_pattern</text>
</a>
</g>
</g>
<!-- s1407&#45;&gt;s1408 -->
<g id="edge6" class="edge">
<title>s1407:p0&#45;&gt;s1408</title>
<path fill="none" stroke="#000000" d="M1207.1961,-175.4156C1278.6415,-175.4156 1358.612,-192.484 1414.4233,-207.2485"/>
<polygon fill="#000000" stroke="#000000" points="1413.6421,-210.6627 1424.2079,-209.8788 1415.4594,-203.9027 1413.6421,-210.6627"/>
<text text-anchor="middle" x="1292.8406" y="-197.6156" font-family="Times,serif" font-size="14.00" fill="#000000">field_pattern</text>
</g>
<!-- s1409 -->
<g id="node10" class="node">
<title>s1409</title>
<g id="a_node10"><a xlink:href="rust-grammar.json.remaining_field_pattern.dot.svg" xlink:title="s1409 SYMBOL\nremaining_field_pattern">
<ellipse fill="none" stroke="#000000" cx="1485.4626" cy="-151.4156" rx="106.955" ry="29.3315"/>
<text text-anchor="middle" x="1485.4626" y="-155.6156" font-family="Times,serif" font-size="14.00" fill="#000000">s1409 SYMBOL</text>
<text text-anchor="middle" x="1485.4626" y="-138.8156" font-family="Times,serif" font-size="14.00" fill="#000000">remaining_field_pattern</text>
</a>
</g>
</g>
<!-- s1407&#45;&gt;s1409 -->
<g id="edge7" class="edge">
<title>s1407:p1&#45;&gt;s1409</title>
<path fill="none" stroke="#000000" d="M1207.1961,-151.4156C1260.0759,-151.4156 1318.6082,-151.4156 1368.2918,-151.4156"/>
<polygon fill="#000000" stroke="#000000" points="1368.4298,-154.9157 1378.4297,-151.4156 1368.4297,-147.9157 1368.4298,-154.9157"/>
<text text-anchor="middle" x="1292.8406" y="-155.6156" font-family="Times,serif" font-size="14.00" fill="#000000">remaining_field_pattern</text>
</g>
<!-- s1410 -->
<g id="node11" class="node">
<title>s1410</title>
<polygon fill="none" stroke="#000000" points="1629.4401,-162.6156 1629.4401,-204.2156 1712.3237,-204.2156 1712.3237,-162.6156 1629.4401,-162.6156"/>
<text text-anchor="middle" x="1670.8819" y="-187.6156" font-family="Times,serif" font-size="14.00" fill="#000000">s1410</text>
<text text-anchor="middle" x="1670.8819" y="-170.8156" font-family="Times,serif" font-size="14.00" fill="#000000">→ REPEAT</text>
</g>
<!-- s1408&#45;&gt;s1410 -->
<g id="edge15" class="edge">
<title>s1408&#45;&gt;s1410</title>
<path fill="none" stroke="#000000" d="M1551.6179,-212.3602C1573.873,-206.959 1598.3577,-201.0168 1619.321,-195.9291"/>
<polygon fill="#000000" stroke="#000000" points="1620.4116,-199.2661 1629.304,-193.5063 1618.7606,-192.4636 1620.4116,-199.2661"/>
</g>
<!-- s1409&#45;&gt;s1410 -->
<g id="edge16" class="edge">
<title>s1409&#45;&gt;s1410</title>
<path fill="none" stroke="#000000" d="M1576.2711,-167.0875C1591.0411,-169.6366 1605.8756,-172.1967 1619.274,-174.5091"/>
<polygon fill="#000000" stroke="#000000" points="1618.7655,-177.973 1629.2151,-176.2247 1619.956,-171.0749 1618.7655,-177.973"/>
</g>
<!-- s1411 -->
<g id="node12" class="node">
<title>s1411</title>
<polygon fill="none" stroke="#000000" points="1771.9026,-162.6156 1771.9026,-204.2156 1828.3444,-204.2156 1828.3444,-162.6156 1771.9026,-162.6156"/>
<text text-anchor="middle" x="1800.1235" y="-187.6156" font-family="Times,serif" font-size="14.00" fill="#000000">s1411</text>
<text text-anchor="middle" x="1800.1235" y="-170.8156" font-family="Times,serif" font-size="14.00" fill="#000000">→ SEQ</text>
</g>
<!-- s1410&#45;&gt;s1411 -->
<g id="edge13" class="edge">
<title>s1410&#45;&gt;s1411</title>
<path fill="none" stroke="#000000" d="M1712.4861,-183.4156C1728.1946,-183.4156 1745.9903,-183.4156 1761.4221,-183.4156"/>
<polygon fill="#000000" stroke="#000000" points="1761.6734,-186.9157 1771.6734,-183.4156 1761.6733,-179.9157 1761.6734,-186.9157"/>
</g>
<!-- s1417 -->
<g id="node18" class="node">
<title>s1417</title>
<polygon fill="none" stroke="#000000" points="1749.3237,-69.6156 1749.3237,-119.2156 1850.9233,-119.2156 1850.9233,-69.6156 1749.3237,-69.6156"/>
<text text-anchor="middle" x="1790.3735" y="-98.6156" font-family="Times,serif" font-size="14.00" fill="#000000">s1417</text>
<text text-anchor="middle" x="1790.3735" y="-81.8156" font-family="Times,serif" font-size="14.00" fill="#000000">→ CHOICE</text>
<polyline fill="none" stroke="#000000" points="1831.4233,-69.6156 1831.4233,-119.2156 "/>
<text text-anchor="middle" x="1841.1733" y="-102.6156" font-family="Times,serif" font-size="14.00" fill="#000000"> </text>
<polyline fill="none" stroke="#000000" points="1831.4233,-94.4156 1850.9233,-94.4156 "/>
<text text-anchor="middle" x="1841.1733" y="-77.8156" font-family="Times,serif" font-size="14.00" fill="#000000"> </text>
</g>
<!-- s1410&#45;&gt;s1417 -->
<g id="edge22" class="edge">
<title>s1410&#45;&gt;s1417</title>
<path fill="none" stroke="#000000" d="M1701.1833,-162.5491C1717.3408,-151.4225 1737.531,-137.5189 1755.4517,-125.1781"/>
<polygon fill="#000000" stroke="#000000" points="1757.7883,-127.8187 1764.0393,-119.2644 1753.8181,-122.0534 1757.7883,-127.8187"/>
</g>
<!-- s1412 -->
<g id="node13" class="node">
<title>s1412</title>
<ellipse fill="none" stroke="#000000" cx="1963.6019" cy="-183.4156" rx="73.3577" ry="29.3315"/>
<text text-anchor="middle" x="1963.6019" y="-187.6156" font-family="Times,serif" font-size="14.00" fill="#000000">s1412 STRING</text>
<text text-anchor="middle" x="1963.6019" y="-170.8156" font-family="Times,serif" font-size="14.00" fill="#000000">&quot;,&quot;</text>
</g>
<!-- s1411&#45;&gt;s1412 -->
<g id="edge9" class="edge">
<title>s1411&#45;&gt;s1412</title>
<path fill="none" stroke="#000000" d="M1828.5992,-183.4156C1843.0998,-183.4156 1861.5616,-183.4156 1880.142,-183.4156"/>
<polygon fill="#000000" stroke="#000000" points="1880.1492,-186.9157 1890.1491,-183.4156 1880.1491,-179.9157 1880.1492,-186.9157"/>
</g>
<!-- s1413 -->
<g id="node14" class="node">
<title>s1413</title>
<polygon fill="none" stroke="#000000" points="2096.1593,-200.6156 2096.1593,-250.2156 2197.7589,-250.2156 2197.7589,-200.6156 2096.1593,-200.6156"/>
<text text-anchor="middle" x="2137.2091" y="-229.6156" font-family="Times,serif" font-size="14.00" fill="#000000">s1413</text>
<text text-anchor="middle" x="2137.2091" y="-212.8156" font-family="Times,serif" font-size="14.00" fill="#000000">→ CHOICE</text>
<polyline fill="none" stroke="#000000" points="2178.2589,-200.6156 2178.2589,-250.2156 "/>
<text text-anchor="middle" x="2188.0089" y="-233.6156" font-family="Times,serif" font-size="14.00" fill="#000000"> </text>
<polyline fill="none" stroke="#000000" points="2178.2589,-225.4156 2197.7589,-225.4156 "/>
<text text-anchor="middle" x="2188.0089" y="-208.8156" font-family="Times,serif" font-size="14.00" fill="#000000"> </text>
</g>
<!-- s1412&#45;&gt;s1413 -->
<g id="edge12" class="edge">
<title>s1412&#45;&gt;s1413</title>
<path fill="none" stroke="#000000" d="M2027.2168,-197.9873C2046.2425,-202.3454 2067.0527,-207.1122 2085.9097,-211.4316"/>
<polygon fill="#000000" stroke="#000000" points="2085.3368,-214.8909 2095.8658,-213.7122 2086.8998,-208.0677 2085.3368,-214.8909"/>
</g>
<!-- s1413&#45;&gt;s1410 -->
<g id="edge14" class="edge">
<title>s1413&#45;&gt;s1410</title>
<path fill="none" stroke="#000000" d="M2096.0438,-229.6695C2019.7221,-234.7523 1871.5605,-239.5924 1749.3237,-213.4156 1740.3194,-211.4874 1730.9837,-208.6847 1722.0282,-205.5563"/>
<polygon fill="#000000" stroke="#000000" points="1723.087,-202.2167 1712.4933,-202.0599 1720.677,-208.7888 1723.087,-202.2167"/>
</g>
<!-- s1414 -->
<g id="node15" class="node">
<title>s1414</title>
<g id="a_node15"><a xlink:href="rust-grammar.json.field_pattern.dot.svg" xlink:title="s1414 SYMBOL\nfield_pattern">
<ellipse fill="none" stroke="#000000" cx="2498.4042" cy="-263.4156" rx="78.8659" ry="29.3315"/>
<text text-anchor="middle" x="2498.4042" y="-267.6156" font-family="Times,serif" font-size="14.00" fill="#000000">s1414 SYMBOL</text>
<text text-anchor="middle" x="2498.4042" y="-250.8156" font-family="Times,serif" font-size="14.00" fill="#000000">field_pattern</text>
</a>
</g>
</g>
<!-- s1413&#45;&gt;s1414 -->
<g id="edge10" class="edge">
<title>s1413:p0&#45;&gt;s1414</title>
<path fill="none" stroke="#000000" d="M2197.9591,-237.4156C2271.0841,-237.4156 2353.8488,-245.1549 2413.968,-252.1886"/>
<polygon fill="#000000" stroke="#000000" points="2413.8251,-255.6961 2424.1683,-253.4006 2414.6511,-248.745 2413.8251,-255.6961"/>
<text text-anchor="middle" x="2305.7822" y="-250.6156" font-family="Times,serif" font-size="14.00" fill="#000000">field_pattern</text>
</g>
<!-- s1415 -->
<g id="node16" class="node">
<title>s1415</title>
<g id="a_node16"><a xlink:href="rust-grammar.json.remaining_field_pattern.dot.svg" xlink:title="s1415 SYMBOL\nremaining_field_pattern">
<ellipse fill="none" stroke="#000000" cx="2498.4042" cy="-186.4156" rx="106.955" ry="29.3315"/>
<text text-anchor="middle" x="2498.4042" y="-190.6156" font-family="Times,serif" font-size="14.00" fill="#000000">s1415 SYMBOL</text>
<text text-anchor="middle" x="2498.4042" y="-173.8156" font-family="Times,serif" font-size="14.00" fill="#000000">remaining_field_pattern</text>
</a>
</g>
</g>
<!-- s1413&#45;&gt;s1415 -->
<g id="edge11" class="edge">
<title>s1413:p1&#45;&gt;s1415</title>
<path fill="none" stroke="#000000" d="M2197.9591,-213.4156C2262.5555,-213.4156 2334.6517,-207.1477 2392.0249,-200.6519"/>
<polygon fill="#000000" stroke="#000000" points="2392.6613,-204.1018 2402.1952,-199.4807 2391.8604,-197.1478 2392.6613,-204.1018"/>
<text text-anchor="middle" x="2305.7822" y="-216.6156" font-family="Times,serif" font-size="14.00" fill="#000000">remaining_field_pattern</text>
</g>
<!-- s1416&#45;&gt;s1417 -->
<g id="edge23" class="edge">
<title>s1416&#45;&gt;s1417</title>
<path fill="none" stroke="#000000" d="M1087.9256,-97.956C1138.1666,-96.4802 1221.2441,-94.4156 1292.8406,-94.4156 1292.8406,-94.4156 1292.8406,-94.4156 1670.8819,-94.4156 1693.1575,-94.4156 1717.5928,-94.4156 1739.1626,-94.4156"/>
<polygon fill="#000000" stroke="#000000" points="1739.1752,-97.9157 1749.1751,-94.4156 1739.1751,-90.9157 1739.1752,-97.9157"/>
</g>
<!-- s1418 -->
<g id="node19" class="node">
<title>s1418</title>
<ellipse fill="none" stroke="#000000" cx="1963.6019" cy="-106.4156" rx="73.3577" ry="29.3315"/>
<text text-anchor="middle" x="1963.6019" y="-110.6156" font-family="Times,serif" font-size="14.00" fill="#000000">s1418 STRING</text>
<text text-anchor="middle" x="1963.6019" y="-93.8156" font-family="Times,serif" font-size="14.00" fill="#000000">&quot;,&quot;</text>
</g>
<!-- s1417&#45;&gt;s1418 -->
<g id="edge20" class="edge">
<title>s1417:p0&#45;&gt;s1418</title>
<path fill="none" stroke="#000000" d="M1850.9233,-106.4156C1860.3605,-106.4156 1870.2424,-106.4156 1880.0662,-106.4156"/>
<polygon fill="#000000" stroke="#000000" points="1880.2615,-109.9157 1890.2615,-106.4156 1880.2614,-102.9157 1880.2615,-109.9157"/>
<text text-anchor="middle" x="1870.6733" y="-110.6156" font-family="Times,serif" font-size="14.00" fill="#000000">,</text>
</g>
<!-- s1419 -->
<g id="node20" class="node">
<title>s1419</title>
<ellipse fill="none" stroke="#000000" cx="1963.6019" cy="-29.4156" rx="45.3054" ry="29.3315"/>
<text text-anchor="middle" x="1963.6019" y="-33.6156" font-family="Times,serif" font-size="14.00" fill="#000000">s1419 </text>
<text text-anchor="middle" x="1963.6019" y="-16.8156" font-family="Times,serif" font-size="14.00" fill="#000000">BLANK</text>
</g>
<!-- s1417&#45;&gt;s1419 -->
<g id="edge21" class="edge">
<title>s1417:p1&#45;&gt;s1419</title>
<path fill="none" stroke="#000000" d="M1841.1235,-69.4156C1841.1235,-39.0381 1875.5899,-29.6335 1907.9553,-27.499"/>
<polygon fill="#000000" stroke="#000000" points="1908.5062,-30.9783 1918.3434,-27.044 1908.1998,-23.985 1908.5062,-30.9783"/>
</g>
<!-- s1420 -->
<g id="node21" class="node">
<title>s1420</title>
<ellipse fill="none" stroke="#000000" cx="2146.9591" cy="-68.4156" rx="73.3577" ry="29.3315"/>
<text text-anchor="middle" x="2146.9591" y="-72.6156" font-family="Times,serif" font-size="14.00" fill="#000000">s1420 STRING</text>
<text text-anchor="middle" x="2146.9591" y="-55.8156" font-family="Times,serif" font-size="14.00" fill="#000000">&quot;}&quot;</text>
</g>
<!-- s1418&#45;&gt;s1420 -->
<g id="edge24" class="edge">
<title>s1418&#45;&gt;s1420</title>
<path fill="none" stroke="#000000" d="M2028.7631,-92.9113C2042.7299,-90.0167 2057.5951,-86.9359 2071.9017,-83.971"/>
<polygon fill="#000000" stroke="#000000" points="2072.6174,-87.3971 2081.699,-81.9405 2071.1968,-80.5428 2072.6174,-87.3971"/>
</g>
<!-- s1419&#45;&gt;s1420 -->
<g id="edge25" class="edge">
<title>s1419&#45;&gt;s1420</title>
<path fill="none" stroke="#000000" d="M2007.055,-38.6581C2026.5242,-42.7992 2050.0498,-47.8031 2072.2085,-52.5162"/>
<polygon fill="#000000" stroke="#000000" points="2071.7645,-56 2082.2739,-54.6571 2073.2209,-49.1532 2071.7645,-56"/>
</g>
</g>
</svg>
