<?xml version="1.0" encoding="UTF-8" standalone="no"?>
<!DOCTYPE svg PUBLIC "-//W3C//DTD SVG 1.1//EN"
 "http://www.w3.org/Graphics/SVG/1.1/DTD/svg11.dtd">
<!-- Generated by graphviz version 2.40.1 (20161225.0304)
 -->
<!-- Title: use_list Pages: 1 -->
<svg width="1852pt" height="411pt"
 viewBox="0.00 0.00 1851.54 410.83" xmlns="http://www.w3.org/2000/svg" xmlns:xlink="http://www.w3.org/1999/xlink">
<g id="graph0" class="graph" transform="scale(1 1) rotate(0) translate(4 406.8313)">
<title>use_list</title>
<polygon fill="#ffffff" stroke="transparent" points="-4,4 -4,-406.8313 1847.5365,-406.8313 1847.5365,4 -4,4"/>
<!-- s677 -->
<g id="node1" class="node">
<title>s677</title>
<polygon fill="none" stroke="#000000" points="0,-148.6156 0,-190.2156 56.4418,-190.2156 56.4418,-148.6156 0,-148.6156"/>
<text text-anchor="middle" x="28.2209" y="-173.6156" font-family="Times,serif" font-size="14.00" fill="#000000">s677</text>
<text text-anchor="middle" x="28.2209" y="-156.8156" font-family="Times,serif" font-size="14.00" fill="#000000">→ SEQ</text>
</g>
<!-- s678 -->
<g id="node2" class="node">
<title>s678</title>
<ellipse fill="none" stroke="#000000" cx="161.6707" cy="-169.4156" rx="68.4585" ry="29.3315"/>
<text text-anchor="middle" x="161.6707" y="-173.6156" font-family="Times,serif" font-size="14.00" fill="#000000">s678 STRING</text>
<text text-anchor="middle" x="161.6707" y="-156.8156" font-family="Times,serif" font-size="14.00" fill="#000000">&quot;{&quot;</text>
</g>
<!-- s677&#45;&gt;s678 -->
<g id="edge1" class="edge">
<title>s677&#45;&gt;s678</title>
<path fill="none" stroke="#000000" d="M56.5222,-169.4156C64.5856,-169.4156 73.7846,-169.4156 83.3101,-169.4156"/>
<polygon fill="#000000" stroke="#000000" points="83.321,-172.9157 93.321,-169.4156 83.3209,-165.9157 83.321,-172.9157"/>
</g>
<!-- s679 -->
<g id="node3" class="node">
<title>s679</title>
<polygon fill="none" stroke="#000000" points="266.8995,-144.6156 266.8995,-194.2156 368.4991,-194.2156 368.4991,-144.6156 266.8995,-144.6156"/>
<text text-anchor="middle" x="307.9493" y="-173.6156" font-family="Times,serif" font-size="14.00" fill="#000000">s679</text>
<text text-anchor="middle" x="307.9493" y="-156.8156" font-family="Times,serif" font-size="14.00" fill="#000000">→ CHOICE</text>
<polyline fill="none" stroke="#000000" points="348.9991,-144.6156 348.9991,-194.2156 "/>
<text text-anchor="middle" x="358.7491" y="-177.6156" font-family="Times,serif" font-size="14.00" fill="#000000"> </text>
<polyline fill="none" stroke="#000000" points="348.9991,-169.4156 368.4991,-169.4156 "/>
<text text-anchor="middle" x="358.7491" y="-152.8156" font-family="Times,serif" font-size="14.00" fill="#000000"> </text>
</g>
<!-- s678&#45;&gt;s679 -->
<g id="edge21" class="edge">
<title>s678&#45;&gt;s679</title>
<path fill="none" stroke="#000000" d="M230.1071,-169.4156C238.9349,-169.4156 247.9288,-169.4156 256.6274,-169.4156"/>
<polygon fill="#000000" stroke="#000000" points="256.6756,-172.9157 266.6755,-169.4156 256.6755,-165.9157 256.6756,-172.9157"/>
</g>
<!-- s680 -->
<g id="node4" class="node">
<title>s680</title>
<polygon fill="none" stroke="#000000" points="405.4991,-197.6156 405.4991,-239.2156 461.9409,-239.2156 461.9409,-197.6156 405.4991,-197.6156"/>
<text text-anchor="middle" x="433.72" y="-222.6156" font-family="Times,serif" font-size="14.00" fill="#000000">s680</text>
<text text-anchor="middle" x="433.72" y="-205.8156" font-family="Times,serif" font-size="14.00" fill="#000000">→ SEQ</text>
</g>
<!-- s679&#45;&gt;s680 -->
<g id="edge19" class="edge">
<title>s679:p0&#45;&gt;s680</title>
<path fill="none" stroke="#000000" d="M368.4991,-181.4156C380.2796,-181.4156 391.8811,-186.0389 401.9582,-192.0168"/>
<polygon fill="#000000" stroke="#000000" points="400.1042,-194.9864 410.3876,-197.5367 403.9391,-189.1303 400.1042,-194.9864"/>
</g>
<!-- s694 -->
<g id="node18" class="node">
<title>s694</title>
<ellipse fill="none" stroke="#000000" cx="525.3436" cy="-109.4156" rx="45.3054" ry="29.3315"/>
<text text-anchor="middle" x="525.3436" y="-113.6156" font-family="Times,serif" font-size="14.00" fill="#000000">s694 </text>
<text text-anchor="middle" x="525.3436" y="-96.8156" font-family="Times,serif" font-size="14.00" fill="#000000">BLANK</text>
</g>
<!-- s679&#45;&gt;s694 -->
<g id="edge20" class="edge">
<title>s679:p1&#45;&gt;s694</title>
<path fill="none" stroke="#000000" d="M368.4991,-157.4156C407.0426,-157.4156 448.6735,-143.9976 479.3525,-131.3503"/>
<polygon fill="#000000" stroke="#000000" points="481.0757,-134.421 488.9106,-127.2891 478.3382,-127.9785 481.0757,-134.421"/>
</g>
<!-- s681 -->
<g id="node5" class="node">
<title>s681</title>
<polygon fill="none" stroke="#000000" points="588.7462,-181.8156 588.7462,-281.0156 690.3458,-281.0156 690.3458,-181.8156 588.7462,-181.8156"/>
<text text-anchor="middle" x="629.796" y="-235.6156" font-family="Times,serif" font-size="14.00" fill="#000000">s681</text>
<text text-anchor="middle" x="629.796" y="-218.8156" font-family="Times,serif" font-size="14.00" fill="#000000">→ CHOICE</text>
<polyline fill="none" stroke="#000000" points="670.8458,-181.8156 670.8458,-281.0156 "/>
<text text-anchor="middle" x="680.5958" y="-264.4156" font-family="Times,serif" font-size="14.00" fill="#000000"> </text>
<polyline fill="none" stroke="#000000" points="670.8458,-256.2156 690.3458,-256.2156 "/>
<text text-anchor="middle" x="680.5958" y="-239.6156" font-family="Times,serif" font-size="14.00" fill="#000000"> </text>
<polyline fill="none" stroke="#000000" points="670.8458,-231.4156 690.3458,-231.4156 "/>
<text text-anchor="middle" x="680.5958" y="-214.8156" font-family="Times,serif" font-size="14.00" fill="#000000"> </text>
<polyline fill="none" stroke="#000000" points="670.8458,-206.6156 690.3458,-206.6156 "/>
<text text-anchor="middle" x="680.5958" y="-190.0156" font-family="Times,serif" font-size="14.00" fill="#000000"> </text>
</g>
<!-- s680&#45;&gt;s681 -->
<g id="edge6" class="edge">
<title>s680&#45;&gt;s681</title>
<path fill="none" stroke="#000000" d="M462.3393,-220.2232C492.2518,-222.1125 540.0948,-225.1343 578.5333,-227.5621"/>
<polygon fill="#000000" stroke="#000000" points="578.3926,-231.0601 588.5933,-228.1975 578.8339,-224.074 578.3926,-231.0601"/>
</g>
<!-- s682 -->
<g id="node6" class="node">
<title>s682</title>
<g id="a_node6"><a xlink:href="rust-grammar.json._path.dot.svg" xlink:title="s682 SYMBOL\n_path">
<ellipse fill="none" stroke="#000000" cx="888.9935" cy="-373.4156" rx="73.9667" ry="29.3315"/>
<text text-anchor="middle" x="888.9935" y="-377.6156" font-family="Times,serif" font-size="14.00" fill="#000000">s682 SYMBOL</text>
<text text-anchor="middle" x="888.9935" y="-360.8156" font-family="Times,serif" font-size="14.00" fill="#000000">_path</text>
</a>
</g>
</g>
<!-- s681&#45;&gt;s682 -->
<g id="edge2" class="edge">
<title>s681:p0&#45;&gt;s682</title>
<path fill="none" stroke="#000000" d="M680.546,-281.4156C680.546,-338.8147 747.5166,-360.7022 805.5375,-368.8939"/>
<polygon fill="#000000" stroke="#000000" points="805.1364,-372.3711 815.5027,-370.1823 806.0341,-365.4289 805.1364,-372.3711"/>
<text text-anchor="middle" x="752.6705" y="-370.6156" font-family="Times,serif" font-size="14.00" fill="#000000">_path</text>
</g>
<!-- s683 -->
<g id="node7" class="node">
<title>s683</title>
<g id="a_node7"><a xlink:href="rust-grammar.json.use_as_clause.dot.svg" xlink:title="s683 SYMBOL\nuse_as_clause">
<ellipse fill="none" stroke="#000000" cx="888.9935" cy="-296.4156" rx="73.9667" ry="29.3315"/>
<text text-anchor="middle" x="888.9935" y="-300.6156" font-family="Times,serif" font-size="14.00" fill="#000000">s683 SYMBOL</text>
<text text-anchor="middle" x="888.9935" y="-283.8156" font-family="Times,serif" font-size="14.00" fill="#000000">use_as_clause</text>
</a>
</g>
</g>
<!-- s681&#45;&gt;s683 -->
<g id="edge3" class="edge">
<title>s681:p1&#45;&gt;s683</title>
<path fill="none" stroke="#000000" d="M690.3458,-243.4156C737.8939,-243.4156 789.7459,-257.7664 828.5482,-271.533"/>
<polygon fill="#000000" stroke="#000000" points="827.5273,-274.8859 838.1214,-275.0113 829.9178,-268.3067 827.5273,-274.8859"/>
<text text-anchor="middle" x="752.6705" y="-264.6156" font-family="Times,serif" font-size="14.00" fill="#000000">use_as_clause</text>
</g>
<!-- s684 -->
<g id="node8" class="node">
<title>s684</title>
<g id="a_node8"><a xlink:href="rust-grammar.json.use_list.dot.svg" xlink:title="s684 SYMBOL\nuse_list">
<ellipse fill="none" stroke="#000000" cx="888.9935" cy="-219.4156" rx="73.9667" ry="29.3315"/>
<text text-anchor="middle" x="888.9935" y="-223.6156" font-family="Times,serif" font-size="14.00" fill="#000000">s684 SYMBOL</text>
<text text-anchor="middle" x="888.9935" y="-206.8156" font-family="Times,serif" font-size="14.00" fill="#000000">use_list</text>
</a>
</g>
</g>
<!-- s681&#45;&gt;s684 -->
<g id="edge4" class="edge">
<title>s681:p2&#45;&gt;s684</title>
<path fill="none" stroke="#000000" d="M690.3458,-219.4156C727.8556,-219.4156 769.3495,-219.4156 804.6715,-219.4156"/>
<polygon fill="#000000" stroke="#000000" points="804.9415,-222.9157 814.9414,-219.4156 804.9414,-215.9157 804.9415,-222.9157"/>
<text text-anchor="middle" x="752.6705" y="-223.6156" font-family="Times,serif" font-size="14.00" fill="#000000">use_list</text>
</g>
<!-- s685 -->
<g id="node9" class="node">
<title>s685</title>
<g id="a_node9"><a xlink:href="rust-grammar.json.scoped_use_list.dot.svg" xlink:title="s685 SYMBOL\nscoped_use_list">
<ellipse fill="none" stroke="#000000" cx="888.9935" cy="-142.4156" rx="73.9966" ry="29.3315"/>
<text text-anchor="middle" x="888.9935" y="-146.6156" font-family="Times,serif" font-size="14.00" fill="#000000">s685 SYMBOL</text>
<text text-anchor="middle" x="888.9935" y="-129.8156" font-family="Times,serif" font-size="14.00" fill="#000000">scoped_use_list</text>
</a>
</g>
</g>
<!-- s681&#45;&gt;s685 -->
<g id="edge5" class="edge">
<title>s681:p3&#45;&gt;s685</title>
<path fill="none" stroke="#000000" d="M690.3458,-194.4156C737.5061,-194.4156 788.9717,-180.5298 827.6996,-167.1093"/>
<polygon fill="#000000" stroke="#000000" points="829.0074,-170.3591 837.2609,-163.7161 826.6661,-163.7623 829.0074,-170.3591"/>
<text text-anchor="middle" x="752.6705" y="-197.6156" font-family="Times,serif" font-size="14.00" fill="#000000">scoped_use_list</text>
</g>
<!-- s686 -->
<g id="node10" class="node">
<title>s686</title>
<polygon fill="none" stroke="#000000" points="999.9918,-198.6156 999.9918,-240.2156 1082.8754,-240.2156 1082.8754,-198.6156 999.9918,-198.6156"/>
<text text-anchor="middle" x="1041.4336" y="-223.6156" font-family="Times,serif" font-size="14.00" fill="#000000">s686</text>
<text text-anchor="middle" x="1041.4336" y="-206.8156" font-family="Times,serif" font-size="14.00" fill="#000000">→ REPEAT</text>
</g>
<!-- s682&#45;&gt;s686 -->
<g id="edge15" class="edge">
<title>s682&#45;&gt;s686</title>
<path fill="none" stroke="#000000" d="M938.5687,-351.6248C947.2043,-346.6528 955.7325,-340.894 962.9918,-334.4156 990.1727,-310.1587 1012.5414,-274.5948 1026.3407,-249.4503"/>
<polygon fill="#000000" stroke="#000000" points="1029.5683,-250.837 1031.202,-240.3689 1023.3968,-247.5334 1029.5683,-250.837"/>
</g>
<!-- s683&#45;&gt;s686 -->
<g id="edge16" class="edge">
<title>s683&#45;&gt;s686</title>
<path fill="none" stroke="#000000" d="M934.7305,-273.3131C952.4301,-264.3728 972.7553,-254.1062 990.8862,-244.948"/>
<polygon fill="#000000" stroke="#000000" points="992.794,-247.9055 1000.1419,-240.2728 989.6379,-241.6574 992.794,-247.9055"/>
</g>
<!-- s684&#45;&gt;s686 -->
<g id="edge17" class="edge">
<title>s684&#45;&gt;s686</title>
<path fill="none" stroke="#000000" d="M962.9808,-219.4156C971.9333,-219.4156 980.9269,-219.4156 989.467,-219.4156"/>
<polygon fill="#000000" stroke="#000000" points="989.6259,-222.9157 999.6259,-219.4156 989.6259,-215.9157 989.6259,-222.9157"/>
</g>
<!-- s685&#45;&gt;s686 -->
<g id="edge18" class="edge">
<title>s685&#45;&gt;s686</title>
<path fill="none" stroke="#000000" d="M935.1442,-165.7271C952.7553,-174.6228 972.9171,-184.8068 990.9138,-193.8973"/>
<polygon fill="#000000" stroke="#000000" points="989.5986,-197.1541 1000.1026,-198.5387 992.7547,-190.9059 989.5986,-197.1541"/>
</g>
<!-- s687 -->
<g id="node11" class="node">
<title>s687</title>
<polygon fill="none" stroke="#000000" points="1142.4543,-184.6156 1142.4543,-226.2156 1198.8961,-226.2156 1198.8961,-184.6156 1142.4543,-184.6156"/>
<text text-anchor="middle" x="1170.6752" y="-209.6156" font-family="Times,serif" font-size="14.00" fill="#000000">s687</text>
<text text-anchor="middle" x="1170.6752" y="-192.8156" font-family="Times,serif" font-size="14.00" fill="#000000">→ SEQ</text>
</g>
<!-- s686&#45;&gt;s687 -->
<g id="edge13" class="edge">
<title>s686&#45;&gt;s687</title>
<path fill="none" stroke="#000000" d="M1083.0378,-214.9089C1098.7463,-213.2073 1116.542,-211.2796 1131.9739,-209.6079"/>
<polygon fill="#000000" stroke="#000000" points="1132.6602,-213.0541 1142.2251,-208.4975 1131.9063,-206.0949 1132.6602,-213.0541"/>
</g>
<!-- s695 -->
<g id="node19" class="node">
<title>s695</title>
<polygon fill="none" stroke="#000000" points="1119.8754,-62.6156 1119.8754,-112.2156 1221.475,-112.2156 1221.475,-62.6156 1119.8754,-62.6156"/>
<text text-anchor="middle" x="1160.9252" y="-91.6156" font-family="Times,serif" font-size="14.00" fill="#000000">s695</text>
<text text-anchor="middle" x="1160.9252" y="-74.8156" font-family="Times,serif" font-size="14.00" fill="#000000">→ CHOICE</text>
<polyline fill="none" stroke="#000000" points="1201.975,-62.6156 1201.975,-112.2156 "/>
<text text-anchor="middle" x="1211.725" y="-95.6156" font-family="Times,serif" font-size="14.00" fill="#000000"> </text>
<polyline fill="none" stroke="#000000" points="1201.975,-87.4156 1221.475,-87.4156 "/>
<text text-anchor="middle" x="1211.725" y="-70.8156" font-family="Times,serif" font-size="14.00" fill="#000000"> </text>
</g>
<!-- s686&#45;&gt;s695 -->
<g id="edge24" class="edge">
<title>s686&#45;&gt;s695</title>
<path fill="none" stroke="#000000" d="M1061.9123,-198.4998C1082.6826,-177.2862 1115.1074,-144.1694 1139.1548,-119.6087"/>
<polygon fill="#000000" stroke="#000000" points="1141.8315,-121.8778 1146.3267,-112.2838 1136.8298,-116.9806 1141.8315,-121.8778"/>
</g>
<!-- s688 -->
<g id="node12" class="node">
<title>s688</title>
<ellipse fill="none" stroke="#000000" cx="1329.2039" cy="-201.4156" rx="68.4585" ry="29.3315"/>
<text text-anchor="middle" x="1329.2039" y="-205.6156" font-family="Times,serif" font-size="14.00" fill="#000000">s688 STRING</text>
<text text-anchor="middle" x="1329.2039" y="-188.8156" font-family="Times,serif" font-size="14.00" fill="#000000">&quot;,&quot;</text>
</g>
<!-- s687&#45;&gt;s688 -->
<g id="edge7" class="edge">
<title>s687&#45;&gt;s688</title>
<path fill="none" stroke="#000000" d="M1199.0169,-204.7005C1213.5949,-204.3327 1232.1579,-203.8643 1250.668,-203.3973"/>
<polygon fill="#000000" stroke="#000000" points="1251.0118,-206.8898 1260.9203,-203.1386 1250.8352,-199.892 1251.0118,-206.8898"/>
</g>
<!-- s689 -->
<g id="node13" class="node">
<title>s689</title>
<polygon fill="none" stroke="#000000" points="1451.8618,-188.8156 1451.8618,-288.0156 1553.4614,-288.0156 1553.4614,-188.8156 1451.8618,-188.8156"/>
<text text-anchor="middle" x="1492.9116" y="-242.6156" font-family="Times,serif" font-size="14.00" fill="#000000">s689</text>
<text text-anchor="middle" x="1492.9116" y="-225.8156" font-family="Times,serif" font-size="14.00" fill="#000000">→ CHOICE</text>
<polyline fill="none" stroke="#000000" points="1533.9614,-188.8156 1533.9614,-288.0156 "/>
<text text-anchor="middle" x="1543.7114" y="-271.4156" font-family="Times,serif" font-size="14.00" fill="#000000"> </text>
<polyline fill="none" stroke="#000000" points="1533.9614,-263.2156 1553.4614,-263.2156 "/>
<text text-anchor="middle" x="1543.7114" y="-246.6156" font-family="Times,serif" font-size="14.00" fill="#000000"> </text>
<polyline fill="none" stroke="#000000" points="1533.9614,-238.4156 1553.4614,-238.4156 "/>
<text text-anchor="middle" x="1543.7114" y="-221.8156" font-family="Times,serif" font-size="14.00" fill="#000000"> </text>
<polyline fill="none" stroke="#000000" points="1533.9614,-213.6156 1553.4614,-213.6156 "/>
<text text-anchor="middle" x="1543.7114" y="-197.0156" font-family="Times,serif" font-size="14.00" fill="#000000"> </text>
</g>
<!-- s688&#45;&gt;s689 -->
<g id="edge12" class="edge">
<title>s688&#45;&gt;s689</title>
<path fill="none" stroke="#000000" d="M1390.3586,-214.4605C1406.998,-218.0098 1425.0166,-221.8533 1441.6482,-225.401"/>
<polygon fill="#000000" stroke="#000000" points="1441.2896,-228.9031 1451.7997,-227.5664 1442.7499,-222.0572 1441.2896,-228.9031"/>
</g>
<!-- s689&#45;&gt;s686 -->
<g id="edge14" class="edge">
<title>s689&#45;&gt;s686</title>
<path fill="none" stroke="#000000" d="M1451.8156,-238.9963C1434.5538,-239.1675 1415.1542,-239.3314 1397.4327,-239.4156 1274.0625,-240.0018 1242.4353,-249.5448 1119.8754,-235.4156 1111.1476,-234.4095 1101.9475,-232.9247 1093.0404,-231.259"/>
<polygon fill="#000000" stroke="#000000" points="1093.6362,-227.8092 1083.1492,-229.3174 1092.2877,-234.6781 1093.6362,-227.8092"/>
</g>
<!-- s690 -->
<g id="node14" class="node">
<title>s690</title>
<g id="a_node14"><a xlink:href="rust-grammar.json._path.dot.svg" xlink:title="s690 SYMBOL\n_path">
<ellipse fill="none" stroke="#000000" cx="1769.5382" cy="-353.4156" rx="73.9667" ry="29.3315"/>
<text text-anchor="middle" x="1769.5382" y="-357.6156" font-family="Times,serif" font-size="14.00" fill="#000000">s690 SYMBOL</text>
<text text-anchor="middle" x="1769.5382" y="-340.8156" font-family="Times,serif" font-size="14.00" fill="#000000">_path</text>
</a>
</g>
</g>
<!-- s689&#45;&gt;s690 -->
<g id="edge8" class="edge">
<title>s689:p0&#45;&gt;s690</title>
<path fill="none" stroke="#000000" d="M1543.6616,-288.4156C1543.6616,-350.293 1622.9128,-361.6721 1687.5287,-360.6663"/>
<polygon fill="#000000" stroke="#000000" points="1687.852,-364.1593 1697.7591,-360.4044 1687.6727,-357.1616 1687.852,-364.1593"/>
<text text-anchor="middle" x="1633.2152" y="-364.6156" font-family="Times,serif" font-size="14.00" fill="#000000">_path</text>
</g>
<!-- s691 -->
<g id="node15" class="node">
<title>s691</title>
<g id="a_node15"><a xlink:href="rust-grammar.json.use_as_clause.dot.svg" xlink:title="s691 SYMBOL\nuse_as_clause">
<ellipse fill="none" stroke="#000000" cx="1769.5382" cy="-276.4156" rx="73.9667" ry="29.3315"/>
<text text-anchor="middle" x="1769.5382" y="-280.6156" font-family="Times,serif" font-size="14.00" fill="#000000">s691 SYMBOL</text>
<text text-anchor="middle" x="1769.5382" y="-263.8156" font-family="Times,serif" font-size="14.00" fill="#000000">use_as_clause</text>
</a>
</g>
</g>
<!-- s689&#45;&gt;s691 -->
<g id="edge9" class="edge">
<title>s689:p1&#45;&gt;s691</title>
<path fill="none" stroke="#000000" d="M1553.6616,-250.4156C1599.8696,-250.4156 1651.2446,-256.36 1692.2808,-262.5642"/>
<polygon fill="#000000" stroke="#000000" points="1691.7942,-266.0304 1702.2118,-264.1009 1692.8647,-259.1128 1691.7942,-266.0304"/>
<text text-anchor="middle" x="1633.2152" y="-263.6156" font-family="Times,serif" font-size="14.00" fill="#000000">use_as_clause</text>
</g>
<!-- s692 -->
<g id="node16" class="node">
<title>s692</title>
<g id="a_node16"><a xlink:href="rust-grammar.json.use_list.dot.svg" xlink:title="s692 SYMBOL\nuse_list">
<ellipse fill="none" stroke="#000000" cx="1769.5382" cy="-199.4156" rx="73.9667" ry="29.3315"/>
<text text-anchor="middle" x="1769.5382" y="-203.6156" font-family="Times,serif" font-size="14.00" fill="#000000">s692 SYMBOL</text>
<text text-anchor="middle" x="1769.5382" y="-186.8156" font-family="Times,serif" font-size="14.00" fill="#000000">use_list</text>
</a>
</g>
</g>
<!-- s689&#45;&gt;s692 -->
<g id="edge10" class="edge">
<title>s689:p2&#45;&gt;s692</title>
<path fill="none" stroke="#000000" d="M1553.6616,-226.4156C1600.07,-226.4156 1651.6594,-220.1959 1692.766,-213.7269"/>
<polygon fill="#000000" stroke="#000000" points="1693.3952,-217.1708 1702.7114,-212.125 1692.282,-210.2598 1693.3952,-217.1708"/>
<text text-anchor="middle" x="1633.2152" y="-228.6156" font-family="Times,serif" font-size="14.00" fill="#000000">use_list</text>
</g>
<!-- s693 -->
<g id="node17" class="node">
<title>s693</title>
<g id="a_node17"><a xlink:href="rust-grammar.json.scoped_use_list.dot.svg" xlink:title="s693 SYMBOL\nscoped_use_list">
<ellipse fill="none" stroke="#000000" cx="1769.5382" cy="-122.4156" rx="73.9966" ry="29.3315"/>
<text text-anchor="middle" x="1769.5382" y="-126.6156" font-family="Times,serif" font-size="14.00" fill="#000000">s693 SYMBOL</text>
<text text-anchor="middle" x="1769.5382" y="-109.8156" font-family="Times,serif" font-size="14.00" fill="#000000">scoped_use_list</text>
</a>
</g>
</g>
<!-- s689&#45;&gt;s693 -->
<g id="edge11" class="edge">
<title>s689:p3&#45;&gt;s693</title>
<path fill="none" stroke="#000000" d="M1543.6616,-188.4156C1543.6616,-126.5619 1622.6649,-114.7853 1687.2252,-115.4881"/>
<polygon fill="#000000" stroke="#000000" points="1687.3772,-118.9919 1697.4484,-115.7022 1687.5239,-111.9935 1687.3772,-118.9919"/>
<text text-anchor="middle" x="1633.2152" y="-132.6156" font-family="Times,serif" font-size="14.00" fill="#000000">scoped_use_list</text>
</g>
<!-- s694&#45;&gt;s695 -->
<g id="edge25" class="edge">
<title>s694&#45;&gt;s695</title>
<path fill="none" stroke="#000000" d="M569.6284,-101.9535C615.336,-94.9082 688.7763,-85.4156 752.6705,-85.4156 752.6705,-85.4156 752.6705,-85.4156 1041.4336,-85.4156 1063.7119,-85.4156 1088.1477,-85.7164 1109.7173,-86.0847"/>
<polygon fill="#000000" stroke="#000000" points="1109.6686,-89.5843 1119.7297,-86.2638 1109.7939,-82.5854 1109.6686,-89.5843"/>
</g>
<!-- s696 -->
<g id="node20" class="node">
<title>s696</title>
<ellipse fill="none" stroke="#000000" cx="1329.2039" cy="-106.4156" rx="68.4585" ry="29.3315"/>
<text text-anchor="middle" x="1329.2039" y="-110.6156" font-family="Times,serif" font-size="14.00" fill="#000000">s696 STRING</text>
<text text-anchor="middle" x="1329.2039" y="-93.8156" font-family="Times,serif" font-size="14.00" fill="#000000">&quot;,&quot;</text>
</g>
<!-- s695&#45;&gt;s696 -->
<g id="edge22" class="edge">
<title>s695:p0&#45;&gt;s696</title>
<path fill="none" stroke="#000000" d="M1221.475,-99.4156C1231.3147,-99.4156 1241.6494,-99.71 1251.8622,-100.1781"/>
<polygon fill="#000000" stroke="#000000" points="1251.845,-103.6817 1262.0115,-100.6995 1252.2043,-96.691 1251.845,-103.6817"/>
<text text-anchor="middle" x="1241.225" y="-104.6156" font-family="Times,serif" font-size="14.00" fill="#000000">,</text>
</g>
<!-- s697 -->
<g id="node21" class="node">
<title>s697</title>
<ellipse fill="none" stroke="#000000" cx="1329.2039" cy="-29.4156" rx="45.3054" ry="29.3315"/>
<text text-anchor="middle" x="1329.2039" y="-33.6156" font-family="Times,serif" font-size="14.00" fill="#000000">s697 </text>
<text text-anchor="middle" x="1329.2039" y="-16.8156" font-family="Times,serif" font-size="14.00" fill="#000000">BLANK</text>
</g>
<!-- s695&#45;&gt;s697 -->
<g id="edge23" class="edge">
<title>s695:p1&#45;&gt;s697</title>
<path fill="none" stroke="#000000" d="M1221.475,-75.4156C1245.0003,-75.4156 1269.2618,-66.0229 1288.7906,-55.7261"/>
<polygon fill="#000000" stroke="#000000" points="1290.6369,-58.7046 1297.6911,-50.7996 1287.2469,-52.5802 1290.6369,-58.7046"/>
</g>
<!-- s698 -->
<g id="node22" class="node">
<title>s698</title>
<ellipse fill="none" stroke="#000000" cx="1502.6616" cy="-68.4156" rx="68.4585" ry="29.3315"/>
<text text-anchor="middle" x="1502.6616" y="-72.6156" font-family="Times,serif" font-size="14.00" fill="#000000">s698 STRING</text>
<text text-anchor="middle" x="1502.6616" y="-55.8156" font-family="Times,serif" font-size="14.00" fill="#000000">&quot;}&quot;</text>
</g>
<!-- s696&#45;&gt;s698 -->
<g id="edge26" class="edge">
<title>s696&#45;&gt;s698</title>
<path fill="none" stroke="#000000" d="M1390.3586,-93.0183C1403.78,-90.078 1418.0987,-86.9411 1431.8631,-83.9257"/>
<polygon fill="#000000" stroke="#000000" points="1432.7477,-87.315 1441.767,-81.756 1431.2496,-80.4772 1432.7477,-87.315"/>
</g>
<!-- s697&#45;&gt;s698 -->
<g id="edge27" class="edge">
<title>s697&#45;&gt;s698</title>
<path fill="none" stroke="#000000" d="M1372.5271,-39.1564C1390.5502,-43.2087 1411.9426,-48.0185 1432.1226,-52.5558"/>
<polygon fill="#000000" stroke="#000000" points="1431.3875,-55.9778 1441.9117,-54.7567 1432.9231,-49.1483 1431.3875,-55.9778"/>
</g>
</g>
</svg>
