<?xml version="1.0" encoding="UTF-8" standalone="no"?>
<!DOCTYPE svg PUBLIC "-//W3C//DTD SVG 1.1//EN"
 "http://www.w3.org/Graphics/SVG/1.1/DTD/svg11.dtd">
<!-- Generated by graphviz version 2.40.1 (20161225.0304)
 -->
<!-- Title: where_predicate Pages: 1 -->
<svg width="814pt" height="529pt"
 viewBox="0.00 0.00 814.07 528.83" xmlns="http://www.w3.org/2000/svg" xmlns:xlink="http://www.w3.org/1999/xlink">
<g id="graph0" class="graph" transform="scale(1 1) rotate(0) translate(4 524.8313)">
<title>where_predicate</title>
<polygon fill="#ffffff" stroke="transparent" points="-4,4 -4,-524.8313 810.0672,-524.8313 810.0672,4 -4,4"/>
<!-- s524 -->
<g id="node1" class="node">
<title>s524</title>
<polygon fill="none" stroke="#000000" points="0,-239.6156 0,-281.2156 56.4418,-281.2156 56.4418,-239.6156 0,-239.6156"/>
<text text-anchor="middle" x="28.2209" y="-264.6156" font-family="Times,serif" font-size="14.00" fill="#000000">s524</text>
<text text-anchor="middle" x="28.2209" y="-247.8156" font-family="Times,serif" font-size="14.00" fill="#000000">→ SEQ</text>
</g>
<!-- s525 -->
<g id="node2" class="node">
<title>s525</title>
<polygon fill="none" stroke="#000000" points="93.4418,-173.6156 93.4418,-347.2156 195.0414,-347.2156 195.0414,-173.6156 93.4418,-173.6156"/>
<text text-anchor="middle" x="134.4916" y="-264.6156" font-family="Times,serif" font-size="14.00" fill="#000000">s525</text>
<text text-anchor="middle" x="134.4916" y="-247.8156" font-family="Times,serif" font-size="14.00" fill="#000000">→ CHOICE</text>
<polyline fill="none" stroke="#000000" points="175.5414,-173.6156 175.5414,-347.2156 "/>
<text text-anchor="middle" x="185.2914" y="-330.6156" font-family="Times,serif" font-size="14.00" fill="#000000"> </text>
<polyline fill="none" stroke="#000000" points="175.5414,-322.4156 195.0414,-322.4156 "/>
<text text-anchor="middle" x="185.2914" y="-305.8156" font-family="Times,serif" font-size="14.00" fill="#000000"> </text>
<polyline fill="none" stroke="#000000" points="175.5414,-297.6156 195.0414,-297.6156 "/>
<text text-anchor="middle" x="185.2914" y="-281.0156" font-family="Times,serif" font-size="14.00" fill="#000000"> </text>
<polyline fill="none" stroke="#000000" points="175.5414,-272.8156 195.0414,-272.8156 "/>
<text text-anchor="middle" x="185.2914" y="-256.2156" font-family="Times,serif" font-size="14.00" fill="#000000"> </text>
<polyline fill="none" stroke="#000000" points="175.5414,-248.0156 195.0414,-248.0156 "/>
<text text-anchor="middle" x="185.2914" y="-231.4156" font-family="Times,serif" font-size="14.00" fill="#000000"> </text>
<polyline fill="none" stroke="#000000" points="175.5414,-223.2156 195.0414,-223.2156 "/>
<text text-anchor="middle" x="185.2914" y="-206.6156" font-family="Times,serif" font-size="14.00" fill="#000000"> </text>
<polyline fill="none" stroke="#000000" points="175.5414,-198.4156 195.0414,-198.4156 "/>
<text text-anchor="middle" x="185.2914" y="-181.8156" font-family="Times,serif" font-size="14.00" fill="#000000"> </text>
</g>
<!-- s524&#45;&gt;s525 -->
<g id="edge8" class="edge">
<title>s524&#45;&gt;s525</title>
<path fill="none" stroke="#000000" d="M56.6028,-260.4156C64.6824,-260.4156 73.8102,-260.4156 83.0459,-260.4156"/>
<polygon fill="#000000" stroke="#000000" points="83.0657,-263.9157 93.0657,-260.4156 83.0656,-256.9157 83.0657,-263.9157"/>
</g>
<!-- s526 -->
<g id="node3" class="node">
<title>s526</title>
<g id="a_node3"><a xlink:href="rust-grammar.json.lifetime.dot.svg" xlink:title="s526 SYMBOL\nlifetime">
<ellipse fill="none" stroke="#000000" cx="502.5226" cy="-491.4156" rx="73.9667" ry="29.3315"/>
<text text-anchor="middle" x="502.5226" y="-495.6156" font-family="Times,serif" font-size="14.00" fill="#000000">s526 SYMBOL</text>
<text text-anchor="middle" x="502.5226" y="-478.8156" font-family="Times,serif" font-size="14.00" fill="#000000">lifetime</text>
</a>
</g>
</g>
<!-- s525&#45;&gt;s526 -->
<g id="edge1" class="edge">
<title>s525:p0&#45;&gt;s526</title>
<path fill="none" stroke="#000000" d="M185.2416,-347.4156C185.2416,-450.1374 324.8474,-479.9433 418.8496,-488.3696"/>
<polygon fill="#000000" stroke="#000000" points="418.6789,-491.8674 428.9345,-489.208 419.2589,-484.8914 418.6789,-491.8674"/>
<text text-anchor="middle" x="289.2427" y="-484.6156" font-family="Times,serif" font-size="14.00" fill="#000000">lifetime</text>
</g>
<!-- s527 -->
<g id="node4" class="node">
<title>s527</title>
<g id="a_node4"><a xlink:href="rust-grammar.json._type_identifier.dot.svg" xlink:title="s527 SYMBOL\n_type_identifier">
<ellipse fill="none" stroke="#000000" cx="502.5226" cy="-414.4156" rx="74.5836" ry="29.3315"/>
<text text-anchor="middle" x="502.5226" y="-418.6156" font-family="Times,serif" font-size="14.00" fill="#000000">s527 SYMBOL</text>
<text text-anchor="middle" x="502.5226" y="-401.8156" font-family="Times,serif" font-size="14.00" fill="#000000">_type_identifier</text>
</a>
</g>
</g>
<!-- s525&#45;&gt;s527 -->
<g id="edge2" class="edge">
<title>s525:p1&#45;&gt;s527</title>
<path fill="none" stroke="#000000" d="M195.0414,-310.4156C205.1763,-310.4156 204.0576,-319.7245 213.0414,-324.4156 281.3186,-360.0687 366.1399,-384.3714 426.2742,-398.6491"/>
<polygon fill="#000000" stroke="#000000" points="425.5465,-402.0733 436.0806,-400.9406 427.1394,-395.2569 425.5465,-402.0733"/>
<text text-anchor="middle" x="289.2427" y="-384.6156" font-family="Times,serif" font-size="14.00" fill="#000000">_type_identifier</text>
</g>
<!-- s528 -->
<g id="node5" class="node">
<title>s528</title>
<g id="a_node5"><a xlink:href="rust-grammar.json.scoped_type_identifier.dot.svg" xlink:title="s528 SYMBOL\nscoped_type_identifier">
<ellipse fill="none" stroke="#000000" cx="502.5226" cy="-337.4156" rx="102.0594" ry="29.3315"/>
<text text-anchor="middle" x="502.5226" y="-341.6156" font-family="Times,serif" font-size="14.00" fill="#000000">s528 SYMBOL</text>
<text text-anchor="middle" x="502.5226" y="-324.8156" font-family="Times,serif" font-size="14.00" fill="#000000">scoped_type_identifier</text>
</a>
</g>
</g>
<!-- s525&#45;&gt;s528 -->
<g id="edge3" class="edge">
<title>s525:p2&#45;&gt;s528</title>
<path fill="none" stroke="#000000" d="M195.0414,-285.4156C270.9433,-285.4156 355.9276,-301.0108 417.283,-315.1202"/>
<polygon fill="#000000" stroke="#000000" points="416.7707,-318.5946 427.3046,-317.4598 418.3622,-311.7779 416.7707,-318.5946"/>
<text text-anchor="middle" x="289.2427" y="-307.6156" font-family="Times,serif" font-size="14.00" fill="#000000">scoped_type_identifier</text>
</g>
<!-- s529 -->
<g id="node6" class="node">
<title>s529</title>
<g id="a_node6"><a xlink:href="rust-grammar.json.generic_type.dot.svg" xlink:title="s529 SYMBOL\ngeneric_type">
<ellipse fill="none" stroke="#000000" cx="502.5226" cy="-260.4156" rx="73.9667" ry="29.3315"/>
<text text-anchor="middle" x="502.5226" y="-264.6156" font-family="Times,serif" font-size="14.00" fill="#000000">s529 SYMBOL</text>
<text text-anchor="middle" x="502.5226" y="-247.8156" font-family="Times,serif" font-size="14.00" fill="#000000">generic_type</text>
</a>
</g>
</g>
<!-- s525&#45;&gt;s529 -->
<g id="edge4" class="edge">
<title>s525:p3&#45;&gt;s529</title>
<path fill="none" stroke="#000000" d="M195.0414,-260.4156C270.6392,-260.4156 356.6919,-260.4156 418.4983,-260.4156"/>
<polygon fill="#000000" stroke="#000000" points="418.5892,-263.9157 428.5892,-260.4156 418.5891,-256.9157 418.5892,-263.9157"/>
<text text-anchor="middle" x="289.2427" y="-264.6156" font-family="Times,serif" font-size="14.00" fill="#000000">generic_type</text>
</g>
<!-- s530 -->
<g id="node7" class="node">
<title>s530</title>
<g id="a_node7"><a xlink:href="rust-grammar.json.reference_type.dot.svg" xlink:title="s530 SYMBOL\nreference_type">
<ellipse fill="none" stroke="#000000" cx="502.5226" cy="-183.4156" rx="73.9667" ry="29.3315"/>
<text text-anchor="middle" x="502.5226" y="-187.6156" font-family="Times,serif" font-size="14.00" fill="#000000">s530 SYMBOL</text>
<text text-anchor="middle" x="502.5226" y="-170.8156" font-family="Times,serif" font-size="14.00" fill="#000000">reference_type</text>
</a>
</g>
</g>
<!-- s525&#45;&gt;s530 -->
<g id="edge5" class="edge">
<title>s525:p4&#45;&gt;s530</title>
<path fill="none" stroke="#000000" d="M195.0414,-235.4156C276.9693,-235.4156 369.479,-217.2459 431.4331,-202.3873"/>
<polygon fill="#000000" stroke="#000000" points="432.6001,-205.7055 441.4889,-199.9402 430.9449,-198.904 432.6001,-205.7055"/>
<text text-anchor="middle" x="289.2427" y="-238.6156" font-family="Times,serif" font-size="14.00" fill="#000000">reference_type</text>
</g>
<!-- s531 -->
<g id="node8" class="node">
<title>s531</title>
<g id="a_node8"><a xlink:href="rust-grammar.json.tuple_type.dot.svg" xlink:title="s531 SYMBOL\ntuple_type">
<ellipse fill="none" stroke="#000000" cx="502.5226" cy="-106.4156" rx="73.9667" ry="29.3315"/>
<text text-anchor="middle" x="502.5226" y="-110.6156" font-family="Times,serif" font-size="14.00" fill="#000000">s531 SYMBOL</text>
<text text-anchor="middle" x="502.5226" y="-93.8156" font-family="Times,serif" font-size="14.00" fill="#000000">tuple_type</text>
</a>
</g>
</g>
<!-- s525&#45;&gt;s531 -->
<g id="edge6" class="edge">
<title>s525:p5&#45;&gt;s531</title>
<path fill="none" stroke="#000000" d="M195.0414,-210.4156C205.3984,-210.4156 203.9203,-200.5221 213.0414,-195.6156 280.8223,-159.1546 365.7148,-135.2292 426.0011,-121.423"/>
<polygon fill="#000000" stroke="#000000" points="426.8456,-124.8205 435.8335,-119.2109 425.3091,-117.9913 426.8456,-124.8205"/>
<text text-anchor="middle" x="289.2427" y="-199.6156" font-family="Times,serif" font-size="14.00" fill="#000000">tuple_type</text>
</g>
<!-- s532 -->
<g id="node9" class="node">
<title>s532</title>
<g id="a_node9"><a xlink:href="rust-grammar.json.higher_ranked_trait_bound.dot.svg" xlink:title="s532 SYMBOL\nhigher_ranked_trait_bound">
<ellipse fill="none" stroke="#000000" cx="502.5226" cy="-29.4156" rx="119.1573" ry="29.3315"/>
<text text-anchor="middle" x="502.5226" y="-33.6156" font-family="Times,serif" font-size="14.00" fill="#000000">s532 SYMBOL</text>
<text text-anchor="middle" x="502.5226" y="-16.8156" font-family="Times,serif" font-size="14.00" fill="#000000">higher_ranked_trait_bound</text>
</a>
</g>
</g>
<!-- s525&#45;&gt;s532 -->
<g id="edge7" class="edge">
<title>s525:p6&#45;&gt;s532</title>
<path fill="none" stroke="#000000" d="M185.2416,-173.4156C185.2416,-85.4635 287.5879,-50.9666 376.0242,-37.5755"/>
<polygon fill="#000000" stroke="#000000" points="376.7784,-41.0033 386.1805,-36.1195 375.785,-34.0741 376.7784,-41.0033"/>
<text text-anchor="middle" x="289.2427" y="-102.6156" font-family="Times,serif" font-size="14.00" fill="#000000">higher_ranked_trait_bound</text>
</g>
<!-- s533 -->
<g id="node10" class="node">
<title>s533</title>
<g id="a_node10"><a xlink:href="rust-grammar.json.trait_bounds.dot.svg" xlink:title="s533 SYMBOL\ntrait_bounds">
<ellipse fill="none" stroke="#000000" cx="732.3342" cy="-260.4156" rx="73.9667" ry="29.3315"/>
<text text-anchor="middle" x="732.3342" y="-264.6156" font-family="Times,serif" font-size="14.00" fill="#000000">s533 SYMBOL</text>
<text text-anchor="middle" x="732.3342" y="-247.8156" font-family="Times,serif" font-size="14.00" fill="#000000">trait_bounds</text>
</a>
</g>
</g>
<!-- s526&#45;&gt;s533 -->
<g id="edge9" class="edge">
<title>s526&#45;&gt;s533</title>
<path fill="none" stroke="#000000" d="M569.2441,-478.8614C587.6004,-473.0536 606.5721,-464.621 621.6012,-452.4156 671.3439,-412.0191 703.2281,-342.9334 719.439,-299.5771"/>
<polygon fill="#000000" stroke="#000000" points="722.8154,-300.5335 722.943,-289.9395 716.2367,-298.1417 722.8154,-300.5335"/>
</g>
<!-- s527&#45;&gt;s533 -->
<g id="edge10" class="edge">
<title>s527&#45;&gt;s533</title>
<path fill="none" stroke="#000000" d="M567.186,-399.5158C585.5946,-393.6439 605.1096,-385.7643 621.6012,-375.4156 654.6486,-354.6781 684.8331,-321.9758 705.3112,-296.7368"/>
<polygon fill="#000000" stroke="#000000" points="708.1172,-298.8316 711.6102,-288.8291 702.6419,-294.4702 708.1172,-298.8316"/>
</g>
<!-- s528&#45;&gt;s533 -->
<g id="edge11" class="edge">
<title>s528&#45;&gt;s533</title>
<path fill="none" stroke="#000000" d="M570.2732,-315.4091C587.062,-309.9055 604.9979,-303.9831 621.6012,-298.4156 636.3025,-293.486 652.0754,-288.1198 666.9758,-283.015"/>
<polygon fill="#000000" stroke="#000000" points="668.2987,-286.2615 676.6215,-279.7055 666.0268,-279.6404 668.2987,-286.2615"/>
</g>
<!-- s529&#45;&gt;s533 -->
<g id="edge12" class="edge">
<title>s529&#45;&gt;s533</title>
<path fill="none" stroke="#000000" d="M576.5014,-260.4156C599.3613,-260.4156 624.707,-260.4156 648.2001,-260.4156"/>
<polygon fill="#000000" stroke="#000000" points="648.4941,-263.9157 658.494,-260.4156 648.494,-256.9157 648.4941,-263.9157"/>
</g>
<!-- s530&#45;&gt;s533 -->
<g id="edge13" class="edge">
<title>s530&#45;&gt;s533</title>
<path fill="none" stroke="#000000" d="M559.8137,-201.9987C579.4271,-208.4086 601.4916,-215.6724 621.6012,-222.4156 636.3025,-227.3453 652.0754,-232.7115 666.9758,-237.8162"/>
<polygon fill="#000000" stroke="#000000" points="666.0268,-241.1909 676.6215,-241.1258 668.2987,-234.5698 666.0268,-241.1909"/>
</g>
<!-- s531&#45;&gt;s533 -->
<g id="edge14" class="edge">
<title>s531&#45;&gt;s533</title>
<path fill="none" stroke="#000000" d="M566.5693,-121.1194C585.1581,-127.0117 604.9253,-134.9513 621.6012,-145.4156 654.6486,-166.1532 684.8331,-198.8555 705.3112,-224.0945"/>
<polygon fill="#000000" stroke="#000000" points="702.6419,-226.3611 711.6102,-232.0021 708.1172,-221.9996 702.6419,-226.3611"/>
</g>
<!-- s532&#45;&gt;s533 -->
<g id="edge15" class="edge">
<title>s532&#45;&gt;s533</title>
<path fill="none" stroke="#000000" d="M589.6844,-49.5714C601.1273,-54.5498 612.1447,-60.7359 621.6012,-68.4156 671.3439,-108.8122 703.2281,-177.8979 719.439,-221.2542"/>
<polygon fill="#000000" stroke="#000000" points="716.2367,-222.6896 722.943,-230.8918 722.8154,-220.2977 716.2367,-222.6896"/>
</g>
</g>
</svg>
