<?xml version="1.0" encoding="UTF-8" standalone="no"?>
<!DOCTYPE svg PUBLIC "-//W3C//DTD SVG 1.1//EN"
 "http://www.w3.org/Graphics/SVG/1.1/DTD/svg11.dtd">
<!-- Generated by graphviz version 2.40.1 (20161225.0304)
 -->
<!-- Title: source_file Pages: 1 -->
<svg width="255pt" height="67pt"
 viewBox="0.00 0.00 254.55 66.83" xmlns="http://www.w3.org/2000/svg" xmlns:xlink="http://www.w3.org/1999/xlink">
<g id="graph0" class="graph" transform="scale(1 1) rotate(0) translate(4 62.8313)">
<title>source_file</title>
<polygon fill="#ffffff" stroke="transparent" points="-4,4 -4,-62.8313 250.5506,-62.8313 250.5506,4 -4,4"/>
<!-- s1 -->
<g id="node1" class="node">
<title>s1</title>
<polygon fill="none" stroke="#000000" points="0,-8.6156 0,-50.2156 82.8836,-50.2156 82.8836,-8.6156 0,-8.6156"/>
<text text-anchor="middle" x="41.4418" y="-33.6156" font-family="Times,serif" font-size="14.00" fill="#000000">s1</text>
<text text-anchor="middle" x="41.4418" y="-16.8156" font-family="Times,serif" font-size="14.00" fill="#000000">→ REPEAT</text>
</g>
<!-- s2 -->
<g id="node2" class="node">
<title>s2</title>
<g id="a_node2"><a xlink:href="rust-grammar.json._statement.dot.svg" xlink:title="s2 SYMBOL\n_statement">
<ellipse fill="none" stroke="#000000" cx="182.7171" cy="-29.4156" rx="63.6674" ry="29.3315"/>
<text text-anchor="middle" x="182.7171" y="-33.6156" font-family="Times,serif" font-size="14.00" fill="#000000">s2 SYMBOL</text>
<text text-anchor="middle" x="182.7171" y="-16.8156" font-family="Times,serif" font-size="14.00" fill="#000000">_statement</text>
</a>
</g>
</g>
<!-- s1&#45;&gt;s2 -->
<g id="edge1" class="edge">
<title>s1&#45;&gt;s2</title>
<path fill="none" stroke="#000000" d="M83.0649,-23.1996C91.6721,-22.8647 100.975,-22.6873 110.319,-22.6675"/>
<polygon fill="#000000" stroke="#000000" points="110.4294,-26.1679 120.4433,-22.7079 110.4574,-19.1679 110.4294,-26.1679"/>
</g>
<!-- s2&#45;&gt;s1 -->
<g id="edge2" class="edge">
<title>s2&#45;&gt;s1</title>
<path fill="none" stroke="#000000" d="M120.4433,-36.1234C111.3529,-36.2156 102.075,-36.1569 93.2234,-35.9472"/>
<polygon fill="#000000" stroke="#000000" points="93.1688,-32.4439 83.0649,-35.6317 92.9514,-39.4405 93.1688,-32.4439"/>
</g>
</g>
</svg>
