<?xml version="1.0" encoding="UTF-8" standalone="no"?>
<!DOCTYPE svg PUBLIC "-//W3C//DTD SVG 1.1//EN"
 "http://www.w3.org/Graphics/SVG/1.1/DTD/svg11.dtd">
<!-- Generated by graphviz version 2.40.1 (20161225.0304)
 -->
<!-- Title: associated_type Pages: 1 -->
<svg width="989pt" height="144pt"
 viewBox="0.00 0.00 989.50 143.83" xmlns="http://www.w3.org/2000/svg" xmlns:xlink="http://www.w3.org/1999/xlink">
<g id="graph0" class="graph" transform="scale(1 1) rotate(0) translate(4 139.8313)">
<title>associated_type</title>
<polygon fill="#ffffff" stroke="transparent" points="-4,4 -4,-139.8313 985.4981,-139.8313 985.4981,4 -4,4"/>
<!-- s574 -->
<g id="node1" class="node">
<title>s574</title>
<polygon fill="none" stroke="#000000" points="0,-46.6156 0,-88.2156 56.4418,-88.2156 56.4418,-46.6156 0,-46.6156"/>
<text text-anchor="middle" x="28.2209" y="-71.6156" font-family="Times,serif" font-size="14.00" fill="#000000">s574</text>
<text text-anchor="middle" x="28.2209" y="-54.8156" font-family="Times,serif" font-size="14.00" fill="#000000">→ SEQ</text>
</g>
<!-- s575 -->
<g id="node2" class="node">
<title>s575</title>
<ellipse fill="none" stroke="#000000" cx="161.6707" cy="-67.4156" rx="68.4585" ry="29.3315"/>
<text text-anchor="middle" x="161.6707" y="-71.6156" font-family="Times,serif" font-size="14.00" fill="#000000">s575 STRING</text>
<text text-anchor="middle" x="161.6707" y="-54.8156" font-family="Times,serif" font-size="14.00" fill="#000000">&quot;type&quot;</text>
</g>
<!-- s574&#45;&gt;s575 -->
<g id="edge1" class="edge">
<title>s574&#45;&gt;s575</title>
<path fill="none" stroke="#000000" d="M56.5222,-67.4156C64.5856,-67.4156 73.7846,-67.4156 83.3101,-67.4156"/>
<polygon fill="#000000" stroke="#000000" points="83.321,-70.9157 93.321,-67.4156 83.3209,-63.9157 83.321,-70.9157"/>
</g>
<!-- s576 -->
<g id="node3" class="node">
<title>s576</title>
<g id="a_node3"><a xlink:href="rust-grammar.json._type_identifier.dot.svg" xlink:title="s576 SYMBOL\n_type_identifier">
<ellipse fill="none" stroke="#000000" cx="341.4413" cy="-67.4156" rx="74.5836" ry="29.3315"/>
<text text-anchor="middle" x="341.4413" y="-71.6156" font-family="Times,serif" font-size="14.00" fill="#000000">s576 SYMBOL</text>
<text text-anchor="middle" x="341.4413" y="-54.8156" font-family="Times,serif" font-size="14.00" fill="#000000">_type_identifier</text>
</a>
</g>
</g>
<!-- s575&#45;&gt;s576 -->
<g id="edge2" class="edge">
<title>s575&#45;&gt;s576</title>
<path fill="none" stroke="#000000" d="M230.1471,-67.4156C238.8703,-67.4156 247.8792,-67.4156 256.8185,-67.4156"/>
<polygon fill="#000000" stroke="#000000" points="256.8627,-70.9157 266.8626,-67.4156 256.8626,-63.9157 256.8627,-70.9157"/>
</g>
<!-- s577 -->
<g id="node4" class="node">
<title>s577</title>
<polygon fill="none" stroke="#000000" points="452.9831,-42.6156 452.9831,-92.2156 554.5827,-92.2156 554.5827,-42.6156 452.9831,-42.6156"/>
<text text-anchor="middle" x="494.0329" y="-71.6156" font-family="Times,serif" font-size="14.00" fill="#000000">s577</text>
<text text-anchor="middle" x="494.0329" y="-54.8156" font-family="Times,serif" font-size="14.00" fill="#000000">→ CHOICE</text>
<polyline fill="none" stroke="#000000" points="535.0827,-42.6156 535.0827,-92.2156 "/>
<text text-anchor="middle" x="544.8327" y="-75.6156" font-family="Times,serif" font-size="14.00" fill="#000000"> </text>
<polyline fill="none" stroke="#000000" points="535.0827,-67.4156 554.5827,-67.4156 "/>
<text text-anchor="middle" x="544.8327" y="-50.8156" font-family="Times,serif" font-size="14.00" fill="#000000"> </text>
</g>
<!-- s576&#45;&gt;s577 -->
<g id="edge5" class="edge">
<title>s576&#45;&gt;s577</title>
<path fill="none" stroke="#000000" d="M416.4345,-67.4156C425.176,-67.4156 434.0135,-67.4156 442.5385,-67.4156"/>
<polygon fill="#000000" stroke="#000000" points="442.7547,-70.9157 452.7547,-67.4156 442.7546,-63.9157 442.7547,-70.9157"/>
</g>
<!-- s578 -->
<g id="node5" class="node">
<title>s578</title>
<g id="a_node5"><a xlink:href="rust-grammar.json.trait_bounds.dot.svg" xlink:title="s578 SYMBOL\ntrait_bounds">
<ellipse fill="none" stroke="#000000" cx="734.3073" cy="-106.4156" rx="73.9667" ry="29.3315"/>
<text text-anchor="middle" x="734.3073" y="-110.6156" font-family="Times,serif" font-size="14.00" fill="#000000">s578 SYMBOL</text>
<text text-anchor="middle" x="734.3073" y="-93.8156" font-family="Times,serif" font-size="14.00" fill="#000000">trait_bounds</text>
</a>
</g>
</g>
<!-- s577&#45;&gt;s578 -->
<g id="edge3" class="edge">
<title>s577:p0&#45;&gt;s578</title>
<path fill="none" stroke="#000000" d="M554.5827,-79.4156C589.3174,-79.4156 627.4133,-84.4085 659.5565,-90.1001"/>
<polygon fill="#000000" stroke="#000000" points="659.3053,-93.6121 669.7716,-91.9671 660.5639,-86.7261 659.3053,-93.6121"/>
<text text-anchor="middle" x="607.5785" y="-90.6156" font-family="Times,serif" font-size="14.00" fill="#000000">trait_bounds</text>
</g>
<!-- s579 -->
<g id="node6" class="node">
<title>s579</title>
<ellipse fill="none" stroke="#000000" cx="734.3073" cy="-29.4156" rx="45.3054" ry="29.3315"/>
<text text-anchor="middle" x="734.3073" y="-33.6156" font-family="Times,serif" font-size="14.00" fill="#000000">s579 </text>
<text text-anchor="middle" x="734.3073" y="-16.8156" font-family="Times,serif" font-size="14.00" fill="#000000">BLANK</text>
</g>
<!-- s577&#45;&gt;s579 -->
<g id="edge4" class="edge">
<title>s577:p1&#45;&gt;s579</title>
<path fill="none" stroke="#000000" d="M554.5827,-55.4156C597.481,-55.4156 645.551,-48.0704 681.1758,-41.1881"/>
<polygon fill="#000000" stroke="#000000" points="682.217,-44.5499 691.3449,-39.1711 680.855,-37.6836 682.217,-44.5499"/>
</g>
<!-- s580 -->
<g id="node7" class="node">
<title>s580</title>
<ellipse fill="none" stroke="#000000" cx="913.2692" cy="-67.4156" rx="68.4585" ry="29.3315"/>
<text text-anchor="middle" x="913.2692" y="-71.6156" font-family="Times,serif" font-size="14.00" fill="#000000">s580 STRING</text>
<text text-anchor="middle" x="913.2692" y="-54.8156" font-family="Times,serif" font-size="14.00" fill="#000000">&quot;;&quot;</text>
</g>
<!-- s578&#45;&gt;s580 -->
<g id="edge6" class="edge">
<title>s578&#45;&gt;s580</title>
<path fill="none" stroke="#000000" d="M799.1697,-92.2806C813.0951,-89.2459 827.883,-86.0233 842.0351,-82.9392"/>
<polygon fill="#000000" stroke="#000000" points="843.1807,-86.2718 852.2061,-80.7227 841.6901,-79.4323 843.1807,-86.2718"/>
</g>
<!-- s579&#45;&gt;s580 -->
<g id="edge7" class="edge">
<title>s579&#45;&gt;s580</title>
<path fill="none" stroke="#000000" d="M777.629,-38.6144C796.916,-42.7097 820.1429,-47.6416 841.8827,-52.2578"/>
<polygon fill="#000000" stroke="#000000" points="841.2383,-55.6989 851.7472,-54.3523 842.6923,-48.8515 841.2383,-55.6989"/>
</g>
</g>
</svg>
