<?xml version="1.0" encoding="UTF-8" standalone="no"?>
<!DOCTYPE svg PUBLIC "-//W3C//DTD SVG 1.1//EN"
 "http://www.w3.org/Graphics/SVG/1.1/DTD/svg11.dtd">
<!-- Generated by graphviz version 2.40.1 (20161225.0304)
 -->
<!-- Title: inner_attribute_item Pages: 1 -->
<svg width="938pt" height="67pt"
 viewBox="0.00 0.00 937.74 66.83" xmlns="http://www.w3.org/2000/svg" xmlns:xlink="http://www.w3.org/1999/xlink">
<g id="graph0" class="graph" transform="scale(1 1) rotate(0) translate(4 62.8313)">
<title>inner_attribute_item</title>
<polygon fill="#ffffff" stroke="transparent" points="-4,4 -4,-62.8313 933.7388,-62.8313 933.7388,4 -4,4"/>
<!-- s207 -->
<g id="node1" class="node">
<title>s207</title>
<polygon fill="none" stroke="#000000" points="0,-8.6156 0,-50.2156 56.4418,-50.2156 56.4418,-8.6156 0,-8.6156"/>
<text text-anchor="middle" x="28.2209" y="-33.6156" font-family="Times,serif" font-size="14.00" fill="#000000">s207</text>
<text text-anchor="middle" x="28.2209" y="-16.8156" font-family="Times,serif" font-size="14.00" fill="#000000">→ SEQ</text>
</g>
<!-- s208 -->
<g id="node2" class="node">
<title>s208</title>
<ellipse fill="none" stroke="#000000" cx="160.6707" cy="-29.4156" rx="68.4585" ry="29.3315"/>
<text text-anchor="middle" x="160.6707" y="-33.6156" font-family="Times,serif" font-size="14.00" fill="#000000">s208 STRING</text>
<text text-anchor="middle" x="160.6707" y="-16.8156" font-family="Times,serif" font-size="14.00" fill="#000000">&quot;#&quot;</text>
</g>
<!-- s207&#45;&gt;s208 -->
<g id="edge1" class="edge">
<title>s207&#45;&gt;s208</title>
<path fill="none" stroke="#000000" d="M56.6347,-29.4156C64.3113,-29.4156 73.0073,-29.4156 82.0218,-29.4156"/>
<polygon fill="#000000" stroke="#000000" points="82.2976,-32.9157 92.2975,-29.4156 82.2975,-25.9157 82.2976,-32.9157"/>
</g>
<!-- s209 -->
<g id="node3" class="node">
<title>s209</title>
<ellipse fill="none" stroke="#000000" cx="333.1284" cy="-29.4156" rx="68.4585" ry="29.3315"/>
<text text-anchor="middle" x="333.1284" y="-33.6156" font-family="Times,serif" font-size="14.00" fill="#000000">s209 STRING</text>
<text text-anchor="middle" x="333.1284" y="-16.8156" font-family="Times,serif" font-size="14.00" fill="#000000">&quot;!&quot;</text>
</g>
<!-- s208&#45;&gt;s209 -->
<g id="edge2" class="edge">
<title>s208&#45;&gt;s209</title>
<path fill="none" stroke="#000000" d="M229.3261,-29.4156C237.6067,-29.4156 246.1132,-29.4156 254.5222,-29.4156"/>
<polygon fill="#000000" stroke="#000000" points="254.7093,-32.9157 264.7092,-29.4156 254.7092,-25.9157 254.7093,-32.9157"/>
</g>
<!-- s210 -->
<g id="node4" class="node">
<title>s210</title>
<ellipse fill="none" stroke="#000000" cx="505.5862" cy="-29.4156" rx="68.4585" ry="29.3315"/>
<text text-anchor="middle" x="505.5862" y="-33.6156" font-family="Times,serif" font-size="14.00" fill="#000000">s210 STRING</text>
<text text-anchor="middle" x="505.5862" y="-16.8156" font-family="Times,serif" font-size="14.00" fill="#000000">&quot;[&quot;</text>
</g>
<!-- s209&#45;&gt;s210 -->
<g id="edge3" class="edge">
<title>s209&#45;&gt;s210</title>
<path fill="none" stroke="#000000" d="M401.7838,-29.4156C410.0645,-29.4156 418.5709,-29.4156 426.9799,-29.4156"/>
<polygon fill="#000000" stroke="#000000" points="427.167,-32.9157 437.167,-29.4156 427.167,-25.9157 427.167,-32.9157"/>
</g>
<!-- s211 -->
<g id="node5" class="node">
<title>s211</title>
<g id="a_node5"><a xlink:href="rust-grammar.json.meta_item.dot.svg" xlink:title="s211 SYMBOL\nmeta_item">
<ellipse fill="none" stroke="#000000" cx="683.548" cy="-29.4156" rx="73.9667" ry="29.3315"/>
<text text-anchor="middle" x="683.548" y="-33.6156" font-family="Times,serif" font-size="14.00" fill="#000000">s211 SYMBOL</text>
<text text-anchor="middle" x="683.548" y="-16.8156" font-family="Times,serif" font-size="14.00" fill="#000000">meta_item</text>
</a>
</g>
</g>
<!-- s210&#45;&gt;s211 -->
<g id="edge4" class="edge">
<title>s210&#45;&gt;s211</title>
<path fill="none" stroke="#000000" d="M573.8819,-29.4156C582.2657,-29.4156 590.9088,-29.4156 599.4907,-29.4156"/>
<polygon fill="#000000" stroke="#000000" points="599.5177,-32.9157 609.5177,-29.4156 599.5177,-25.9157 599.5177,-32.9157"/>
</g>
<!-- s212 -->
<g id="node6" class="node">
<title>s212</title>
<ellipse fill="none" stroke="#000000" cx="861.5099" cy="-29.4156" rx="68.4585" ry="29.3315"/>
<text text-anchor="middle" x="861.5099" y="-33.6156" font-family="Times,serif" font-size="14.00" fill="#000000">s212 STRING</text>
<text text-anchor="middle" x="861.5099" y="-16.8156" font-family="Times,serif" font-size="14.00" fill="#000000">&quot;]&quot;</text>
</g>
<!-- s211&#45;&gt;s212 -->
<g id="edge5" class="edge">
<title>s211&#45;&gt;s212</title>
<path fill="none" stroke="#000000" d="M757.4738,-29.4156C765.8926,-29.4156 774.4965,-29.4156 782.9722,-29.4156"/>
<polygon fill="#000000" stroke="#000000" points="783.2261,-32.9157 793.2261,-29.4156 783.2261,-25.9157 783.2261,-32.9157"/>
</g>
</g>
</svg>
