<?xml version="1.0" encoding="UTF-8" standalone="no"?>
<!DOCTYPE svg PUBLIC "-//W3C//DTD SVG 1.1//EN"
 "http://www.w3.org/Graphics/SVG/1.1/DTD/svg11.dtd">
<!-- Generated by graphviz version 2.40.1 (20161225.0304)
 -->
<!-- Title: await_expression Pages: 1 -->
<svg width="724pt" height="67pt"
 viewBox="0.00 0.00 723.53 66.83" xmlns="http://www.w3.org/2000/svg" xmlns:xlink="http://www.w3.org/1999/xlink">
<g id="graph0" class="graph" transform="scale(1 1) rotate(0) translate(4 62.8313)">
<title>await_expression</title>
<polygon fill="#ffffff" stroke="transparent" points="-4,4 -4,-62.8313 719.5302,-62.8313 719.5302,4 -4,4"/>
<!-- s1298 -->
<g id="node1" class="node">
<title>s1298</title>
<polygon fill="none" stroke="#000000" points="0,-8.6156 0,-50.2156 65.0084,-50.2156 65.0084,-8.6156 0,-8.6156"/>
<text text-anchor="middle" x="32.5042" y="-33.6156" font-family="Times,serif" font-size="14.00" fill="#000000">s1298</text>
<text text-anchor="middle" x="32.5042" y="-16.8156" font-family="Times,serif" font-size="14.00" fill="#000000">→ PREC</text>
</g>
<!-- s1299 -->
<g id="node2" class="node">
<title>s1299</title>
<polygon fill="none" stroke="#000000" points="101.0084,-8.6156 101.0084,-50.2156 157.4502,-50.2156 157.4502,-8.6156 101.0084,-8.6156"/>
<text text-anchor="middle" x="129.2293" y="-33.6156" font-family="Times,serif" font-size="14.00" fill="#000000">s1299</text>
<text text-anchor="middle" x="129.2293" y="-16.8156" font-family="Times,serif" font-size="14.00" fill="#000000">→ SEQ</text>
</g>
<!-- s1298&#45;&gt;s1299 -->
<g id="edge4" class="edge">
<title>s1298&#45;&gt;s1299</title>
<path fill="none" stroke="#000000" d="M65.2509,-29.4156C73.4333,-29.4156 82.2837,-29.4156 90.7169,-29.4156"/>
<polygon fill="#000000" stroke="#000000" points="90.7236,-32.9157 100.7236,-29.4156 90.7235,-25.9157 90.7236,-32.9157"/>
</g>
<!-- s1300 -->
<g id="node3" class="node">
<title>s1300</title>
<g id="a_node3"><a xlink:href="rust-grammar.json._expression.dot.svg" xlink:title="s1300 SYMBOL\n_expression">
<ellipse fill="none" stroke="#000000" cx="272.1329" cy="-29.4156" rx="78.8659" ry="29.3315"/>
<text text-anchor="middle" x="272.1329" y="-33.6156" font-family="Times,serif" font-size="14.00" fill="#000000">s1300 SYMBOL</text>
<text text-anchor="middle" x="272.1329" y="-16.8156" font-family="Times,serif" font-size="14.00" fill="#000000">_expression</text>
</a>
</g>
</g>
<!-- s1299&#45;&gt;s1300 -->
<g id="edge1" class="edge">
<title>s1299&#45;&gt;s1300</title>
<path fill="none" stroke="#000000" d="M157.4625,-29.4156C165.1682,-29.4156 173.9482,-29.4156 183.1411,-29.4156"/>
<polygon fill="#000000" stroke="#000000" points="183.2471,-32.9157 193.2471,-29.4156 183.2471,-25.9157 183.2471,-32.9157"/>
</g>
<!-- s1301 -->
<g id="node4" class="node">
<title>s1301</title>
<ellipse fill="none" stroke="#000000" cx="459.9943" cy="-29.4156" rx="73.3577" ry="29.3315"/>
<text text-anchor="middle" x="459.9943" y="-33.6156" font-family="Times,serif" font-size="14.00" fill="#000000">s1301 STRING</text>
<text text-anchor="middle" x="459.9943" y="-16.8156" font-family="Times,serif" font-size="14.00" fill="#000000">&quot;.&quot;</text>
</g>
<!-- s1300&#45;&gt;s1301 -->
<g id="edge2" class="edge">
<title>s1300&#45;&gt;s1301</title>
<path fill="none" stroke="#000000" d="M350.9865,-29.4156C359.41,-29.4156 367.9997,-29.4156 376.4748,-29.4156"/>
<polygon fill="#000000" stroke="#000000" points="376.737,-32.9157 386.737,-29.4156 376.737,-25.9157 376.737,-32.9157"/>
</g>
<!-- s1302 -->
<g id="node5" class="node">
<title>s1302</title>
<ellipse fill="none" stroke="#000000" cx="642.3515" cy="-29.4156" rx="73.3577" ry="29.3315"/>
<text text-anchor="middle" x="642.3515" y="-33.6156" font-family="Times,serif" font-size="14.00" fill="#000000">s1302 STRING</text>
<text text-anchor="middle" x="642.3515" y="-16.8156" font-family="Times,serif" font-size="14.00" fill="#000000">&quot;await&quot;</text>
</g>
<!-- s1301&#45;&gt;s1302 -->
<g id="edge3" class="edge">
<title>s1301&#45;&gt;s1302</title>
<path fill="none" stroke="#000000" d="M533.3777,-29.4156C541.8427,-29.4156 550.5206,-29.4156 559.104,-29.4156"/>
<polygon fill="#000000" stroke="#000000" points="559.1184,-32.9157 569.1184,-29.4156 559.1183,-25.9157 559.1184,-32.9157"/>
</g>
</g>
</svg>
