<?xml version="1.0" encoding="UTF-8" standalone="no"?>
<!DOCTYPE svg PUBLIC "-//W3C//DTD SVG 1.1//EN"
 "http://www.w3.org/Graphics/SVG/1.1/DTD/svg11.dtd">
<!-- Generated by graphviz version 2.40.1 (20161225.0304)
 -->
<!-- Title: last_match_arm Pages: 1 -->
<svg width="1275pt" height="144pt"
 viewBox="0.00 0.00 1275.24 144.22" xmlns="http://www.w3.org/2000/svg" xmlns:xlink="http://www.w3.org/1999/xlink">
<g id="graph0" class="graph" transform="scale(1 1) rotate(0) translate(4 140.2156)">
<title>last_match_arm</title>
<polygon fill="#ffffff" stroke="transparent" points="-4,4 -4,-140.2156 1271.2359,-140.2156 1271.2359,4 -4,4"/>
<!-- s1197 -->
<g id="node1" class="node">
<title>s1197</title>
<polygon fill="none" stroke="#000000" points="0,-46.6156 0,-88.2156 56.4418,-88.2156 56.4418,-46.6156 0,-46.6156"/>
<text text-anchor="middle" x="28.2209" y="-71.6156" font-family="Times,serif" font-size="14.00" fill="#000000">s1197</text>
<text text-anchor="middle" x="28.2209" y="-54.8156" font-family="Times,serif" font-size="14.00" fill="#000000">→ SEQ</text>
</g>
<!-- s1198 -->
<g id="node2" class="node">
<title>s1198</title>
<polygon fill="none" stroke="#000000" points="93.4418,-46.6156 93.4418,-88.2156 176.3254,-88.2156 176.3254,-46.6156 93.4418,-46.6156"/>
<text text-anchor="middle" x="134.8836" y="-71.6156" font-family="Times,serif" font-size="14.00" fill="#000000">s1198</text>
<text text-anchor="middle" x="134.8836" y="-54.8156" font-family="Times,serif" font-size="14.00" fill="#000000">→ REPEAT</text>
</g>
<!-- s1197&#45;&gt;s1198 -->
<g id="edge3" class="edge">
<title>s1197&#45;&gt;s1198</title>
<path fill="none" stroke="#000000" d="M56.5245,-67.4156C64.6857,-67.4156 73.8581,-67.4156 82.9751,-67.4156"/>
<polygon fill="#000000" stroke="#000000" points="83.188,-70.9157 93.1879,-67.4156 83.1879,-63.9157 83.188,-70.9157"/>
</g>
<!-- s1199 -->
<g id="node3" class="node">
<title>s1199</title>
<g id="a_node3"><a xlink:href="rust-grammar.json.attribute_item.dot.svg" xlink:title="s1199 SYMBOL\nattribute_item">
<ellipse fill="none" stroke="#000000" cx="292.0081" cy="-67.4156" rx="78.8659" ry="29.3315"/>
<text text-anchor="middle" x="292.0081" y="-71.6156" font-family="Times,serif" font-size="14.00" fill="#000000">s1199 SYMBOL</text>
<text text-anchor="middle" x="292.0081" y="-54.8156" font-family="Times,serif" font-size="14.00" fill="#000000">attribute_item</text>
</a>
</g>
</g>
<!-- s1198&#45;&gt;s1199 -->
<g id="edge1" class="edge">
<title>s1198&#45;&gt;s1199</title>
<path fill="none" stroke="#000000" d="M176.5776,-61.3752C185.417,-61.0083 195.0618,-60.7837 204.8873,-60.7014"/>
<polygon fill="#000000" stroke="#000000" points="205.1774,-64.2005 215.1657,-60.6671 205.154,-57.2006 205.1774,-64.2005"/>
</g>
<!-- s1199&#45;&gt;s1198 -->
<g id="edge2" class="edge">
<title>s1199&#45;&gt;s1198</title>
<path fill="none" stroke="#000000" d="M215.1657,-74.1642C205.4979,-74.1804 195.7954,-74.0602 186.6442,-73.8037"/>
<polygon fill="#000000" stroke="#000000" points="186.6924,-70.3033 176.5776,-73.4561 186.4508,-77.2992 186.6924,-70.3033"/>
</g>
<!-- s1200 -->
<g id="node4" class="node">
<title>s1200</title>
<g id="a_node4"><a xlink:href="rust-grammar.json.match_pattern.dot.svg" xlink:title="s1200 SYMBOL\nmatch_pattern">
<ellipse fill="none" stroke="#000000" cx="486.3736" cy="-67.4156" rx="78.8659" ry="29.3315"/>
<text text-anchor="middle" x="486.3736" y="-71.6156" font-family="Times,serif" font-size="14.00" fill="#000000">s1200 SYMBOL</text>
<text text-anchor="middle" x="486.3736" y="-54.8156" font-family="Times,serif" font-size="14.00" fill="#000000">match_pattern</text>
</a>
</g>
</g>
<!-- s1199&#45;&gt;s1200 -->
<g id="edge4" class="edge">
<title>s1199&#45;&gt;s1200</title>
<path fill="none" stroke="#000000" d="M370.7838,-67.4156C379.5763,-67.4156 388.5774,-67.4156 397.4848,-67.4156"/>
<polygon fill="#000000" stroke="#000000" points="397.4858,-70.9157 407.4858,-67.4156 397.4857,-63.9157 397.4858,-70.9157"/>
</g>
<!-- s1201 -->
<g id="node5" class="node">
<title>s1201</title>
<ellipse fill="none" stroke="#000000" cx="675.235" cy="-67.4156" rx="73.3577" ry="29.3315"/>
<text text-anchor="middle" x="675.235" y="-71.6156" font-family="Times,serif" font-size="14.00" fill="#000000">s1201 STRING</text>
<text text-anchor="middle" x="675.235" y="-54.8156" font-family="Times,serif" font-size="14.00" fill="#000000">&quot;=&gt;&quot;</text>
</g>
<!-- s1200&#45;&gt;s1201 -->
<g id="edge5" class="edge">
<title>s1200&#45;&gt;s1201</title>
<path fill="none" stroke="#000000" d="M565.1003,-67.4156C573.8299,-67.4156 582.7439,-67.4156 591.5322,-67.4156"/>
<polygon fill="#000000" stroke="#000000" points="591.7727,-70.9157 601.7727,-67.4156 591.7727,-63.9157 591.7727,-70.9157"/>
</g>
<!-- s1202 -->
<g id="node6" class="node">
<title>s1202</title>
<g id="a_node6"><a xlink:href="rust-grammar.json._expression.dot.svg" xlink:title="s1202 SYMBOL\n_expression">
<ellipse fill="none" stroke="#000000" cx="864.0964" cy="-67.4156" rx="78.8659" ry="29.3315"/>
<text text-anchor="middle" x="864.0964" y="-71.6156" font-family="Times,serif" font-size="14.00" fill="#000000">s1202 SYMBOL</text>
<text text-anchor="middle" x="864.0964" y="-54.8156" font-family="Times,serif" font-size="14.00" fill="#000000">_expression</text>
</a>
</g>
</g>
<!-- s1201&#45;&gt;s1202 -->
<g id="edge6" class="edge">
<title>s1201&#45;&gt;s1202</title>
<path fill="none" stroke="#000000" d="M748.524,-67.4156C757.2629,-67.4156 766.2564,-67.4156 775.1838,-67.4156"/>
<polygon fill="#000000" stroke="#000000" points="775.2182,-70.9157 785.2181,-67.4156 775.2181,-63.9157 775.2182,-70.9157"/>
</g>
<!-- s1203 -->
<g id="node7" class="node">
<title>s1203</title>
<polygon fill="none" stroke="#000000" points="979.7791,-42.6156 979.7791,-92.2156 1081.3787,-92.2156 1081.3787,-42.6156 979.7791,-42.6156"/>
<text text-anchor="middle" x="1020.8289" y="-71.6156" font-family="Times,serif" font-size="14.00" fill="#000000">s1203</text>
<text text-anchor="middle" x="1020.8289" y="-54.8156" font-family="Times,serif" font-size="14.00" fill="#000000">→ CHOICE</text>
<polyline fill="none" stroke="#000000" points="1061.8787,-42.6156 1061.8787,-92.2156 "/>
<text text-anchor="middle" x="1071.6287" y="-75.6156" font-family="Times,serif" font-size="14.00" fill="#000000"> </text>
<polyline fill="none" stroke="#000000" points="1061.8787,-67.4156 1081.3787,-67.4156 "/>
<text text-anchor="middle" x="1071.6287" y="-50.8156" font-family="Times,serif" font-size="14.00" fill="#000000"> </text>
</g>
<!-- s1202&#45;&gt;s1203 -->
<g id="edge9" class="edge">
<title>s1202&#45;&gt;s1203</title>
<path fill="none" stroke="#000000" d="M942.9498,-67.4156C951.7928,-67.4156 960.702,-67.4156 969.2768,-67.4156"/>
<polygon fill="#000000" stroke="#000000" points="969.5434,-70.9157 979.5433,-67.4156 969.5433,-63.9157 969.5434,-70.9157"/>
</g>
<!-- s1204 -->
<g id="node8" class="node">
<title>s1204</title>
<ellipse fill="none" stroke="#000000" cx="1194.0573" cy="-106.4156" rx="73.3577" ry="29.3315"/>
<text text-anchor="middle" x="1194.0573" y="-110.6156" font-family="Times,serif" font-size="14.00" fill="#000000">s1204 STRING</text>
<text text-anchor="middle" x="1194.0573" y="-93.8156" font-family="Times,serif" font-size="14.00" fill="#000000">&quot;,&quot;</text>
</g>
<!-- s1203&#45;&gt;s1204 -->
<g id="edge7" class="edge">
<title>s1203:p0&#45;&gt;s1204</title>
<path fill="none" stroke="#000000" d="M1071.5789,-92.4156C1071.5789,-115.6553 1093.6146,-121.6989 1118.9925,-120.9532"/>
<polygon fill="#000000" stroke="#000000" points="1119.4662,-124.4307 1129.2317,-120.3217 1119.0352,-117.444 1119.4662,-124.4307"/>
<text text-anchor="middle" x="1101.1287" y="-123.6156" font-family="Times,serif" font-size="14.00" fill="#000000">,</text>
</g>
<!-- s1205 -->
<g id="node9" class="node">
<title>s1205</title>
<ellipse fill="none" stroke="#000000" cx="1194.0573" cy="-29.4156" rx="45.3054" ry="29.3315"/>
<text text-anchor="middle" x="1194.0573" y="-33.6156" font-family="Times,serif" font-size="14.00" fill="#000000">s1205 </text>
<text text-anchor="middle" x="1194.0573" y="-16.8156" font-family="Times,serif" font-size="14.00" fill="#000000">BLANK</text>
</g>
<!-- s1203&#45;&gt;s1205 -->
<g id="edge8" class="edge">
<title>s1203:p1&#45;&gt;s1205</title>
<path fill="none" stroke="#000000" d="M1071.5789,-42.4156C1071.5789,-12.3791 1108.4545,-11.391 1141.738,-16.6166"/>
<polygon fill="#000000" stroke="#000000" points="1141.4509,-20.12 1151.9072,-18.4125 1142.6683,-13.2267 1141.4509,-20.12"/>
</g>
</g>
</svg>
