<?xml version="1.0" encoding="UTF-8" standalone="no"?>
<!DOCTYPE svg PUBLIC "-//W3C//DTD SVG 1.1//EN"
 "http://www.w3.org/Graphics/SVG/1.1/DTD/svg11.dtd">
<!-- Generated by graphviz version 2.40.1 (20161225.0304)
 -->
<!-- Title: macro_definition Pages: 1 -->
<svg width="1999pt" height="452pt"
 viewBox="0.00 0.00 1999.19 451.83" xmlns="http://www.w3.org/2000/svg" xmlns:xlink="http://www.w3.org/1999/xlink">
<g id="graph0" class="graph" transform="scale(1 1) rotate(0) translate(4 447.8313)">
<title>macro_definition</title>
<polygon fill="#ffffff" stroke="transparent" points="-4,4 -4,-447.8313 1995.1915,-447.8313 1995.1915,4 -4,4"/>
<!-- s35 -->
<g id="node1" class="node">
<title>s35</title>
<polygon fill="none" stroke="#000000" points="0,-221.6156 0,-263.2156 56.4418,-263.2156 56.4418,-221.6156 0,-221.6156"/>
<text text-anchor="middle" x="28.2209" y="-246.6156" font-family="Times,serif" font-size="14.00" fill="#000000">s35</text>
<text text-anchor="middle" x="28.2209" y="-229.8156" font-family="Times,serif" font-size="14.00" fill="#000000">→ SEQ</text>
</g>
<!-- s36 -->
<g id="node2" class="node">
<title>s36</title>
<ellipse fill="none" stroke="#000000" cx="165.0523" cy="-242.4156" rx="71.7213" ry="29.3315"/>
<text text-anchor="middle" x="165.0523" y="-246.6156" font-family="Times,serif" font-size="14.00" fill="#000000">s36 STRING</text>
<text text-anchor="middle" x="165.0523" y="-229.8156" font-family="Times,serif" font-size="14.00" fill="#000000">&quot;macro_rules!&quot;</text>
</g>
<!-- s35&#45;&gt;s36 -->
<g id="edge1" class="edge">
<title>s35&#45;&gt;s36</title>
<path fill="none" stroke="#000000" d="M56.5725,-242.4156C64.5899,-242.4156 73.7408,-242.4156 83.2507,-242.4156"/>
<polygon fill="#000000" stroke="#000000" points="83.2586,-245.9157 93.2586,-242.4156 83.2586,-238.9157 83.2586,-245.9157"/>
</g>
<!-- s37 -->
<g id="node3" class="node">
<title>s37</title>
<g id="a_node3"><a xlink:href="rust-grammar.json.identifier.dot.svg" xlink:title="s37 SYMBOL\nidentifier">
<ellipse fill="none" stroke="#000000" cx="342.4461" cy="-242.4156" rx="68.5672" ry="29.3315"/>
<text text-anchor="middle" x="342.4461" y="-246.6156" font-family="Times,serif" font-size="14.00" fill="#000000">s37 SYMBOL</text>
<text text-anchor="middle" x="342.4461" y="-229.8156" font-family="Times,serif" font-size="14.00" fill="#000000">identifier</text>
</a>
</g>
</g>
<!-- s36&#45;&gt;s37 -->
<g id="edge2" class="edge">
<title>s36&#45;&gt;s37</title>
<path fill="none" stroke="#000000" d="M236.6939,-242.4156C245.4022,-242.4156 254.3386,-242.4156 263.1497,-242.4156"/>
<polygon fill="#000000" stroke="#000000" points="263.4147,-245.9157 273.4146,-242.4156 263.4146,-238.9157 263.4147,-245.9157"/>
</g>
<!-- s38 -->
<g id="node4" class="node">
<title>s38</title>
<polygon fill="none" stroke="#000000" points="448.2294,-217.6156 448.2294,-267.2156 549.829,-267.2156 549.829,-217.6156 448.2294,-217.6156"/>
<text text-anchor="middle" x="489.2792" y="-246.6156" font-family="Times,serif" font-size="14.00" fill="#000000">s38</text>
<text text-anchor="middle" x="489.2792" y="-229.8156" font-family="Times,serif" font-size="14.00" fill="#000000">→ CHOICE</text>
<polyline fill="none" stroke="#000000" points="530.329,-217.6156 530.329,-267.2156 "/>
<text text-anchor="middle" x="540.079" y="-250.6156" font-family="Times,serif" font-size="14.00" fill="#000000"> </text>
<polyline fill="none" stroke="#000000" points="530.329,-242.4156 549.829,-242.4156 "/>
<text text-anchor="middle" x="540.079" y="-225.8156" font-family="Times,serif" font-size="14.00" fill="#000000"> </text>
</g>
<!-- s37&#45;&gt;s38 -->
<g id="edge28" class="edge">
<title>s37&#45;&gt;s38</title>
<path fill="none" stroke="#000000" d="M411.5815,-242.4156C420.4142,-242.4156 429.4046,-242.4156 438.0945,-242.4156"/>
<polygon fill="#000000" stroke="#000000" points="438.1303,-245.9157 448.1303,-242.4156 438.1303,-238.9157 438.1303,-245.9157"/>
</g>
<!-- s39 -->
<g id="node5" class="node">
<title>s39</title>
<polygon fill="none" stroke="#000000" points="586.829,-254.6156 586.829,-296.2156 643.2708,-296.2156 643.2708,-254.6156 586.829,-254.6156"/>
<text text-anchor="middle" x="615.0499" y="-279.6156" font-family="Times,serif" font-size="14.00" fill="#000000">s39</text>
<text text-anchor="middle" x="615.0499" y="-262.8156" font-family="Times,serif" font-size="14.00" fill="#000000">→ SEQ</text>
</g>
<!-- s38&#45;&gt;s39 -->
<g id="edge15" class="edge">
<title>s38:p0&#45;&gt;s39</title>
<path fill="none" stroke="#000000" d="M549.829,-254.4156C558.904,-254.4156 568.3622,-256.2806 577.1694,-258.8989"/>
<polygon fill="#000000" stroke="#000000" points="576.1874,-262.261 586.7812,-262.116 578.4092,-255.623 576.1874,-262.261"/>
</g>
<!-- s51 -->
<g id="node17" class="node">
<title>s51</title>
<polygon fill="none" stroke="#000000" points="586.829,-191.6156 586.829,-233.2156 643.2708,-233.2156 643.2708,-191.6156 586.829,-191.6156"/>
<text text-anchor="middle" x="615.0499" y="-216.6156" font-family="Times,serif" font-size="14.00" fill="#000000">s51</text>
<text text-anchor="middle" x="615.0499" y="-199.8156" font-family="Times,serif" font-size="14.00" fill="#000000">→ SEQ</text>
</g>
<!-- s38&#45;&gt;s51 -->
<g id="edge27" class="edge">
<title>s38:p1&#45;&gt;s51</title>
<path fill="none" stroke="#000000" d="M549.829,-230.4156C558.7902,-230.4156 568.2025,-228.8171 577.0012,-226.5728"/>
<polygon fill="#000000" stroke="#000000" points="577.9699,-229.9362 586.6178,-223.8153 576.0404,-223.2073 577.9699,-229.9362"/>
</g>
<!-- s40 -->
<g id="node6" class="node">
<title>s40</title>
<ellipse fill="none" stroke="#000000" cx="743.5499" cy="-278.4156" rx="63.059" ry="29.3315"/>
<text text-anchor="middle" x="743.5499" y="-282.6156" font-family="Times,serif" font-size="14.00" fill="#000000">s40 STRING</text>
<text text-anchor="middle" x="743.5499" y="-265.8156" font-family="Times,serif" font-size="14.00" fill="#000000">&quot;(&quot;</text>
</g>
<!-- s39&#45;&gt;s40 -->
<g id="edge3" class="edge">
<title>s39&#45;&gt;s40</title>
<path fill="none" stroke="#000000" d="M643.5682,-276.0814C651.5502,-276.2678 660.6111,-276.4793 669.941,-276.6971"/>
<polygon fill="#000000" stroke="#000000" points="670.0532,-280.2006 680.1322,-276.9351 670.2167,-273.2025 670.0532,-280.2006"/>
</g>
<!-- s41 -->
<g id="node7" class="node">
<title>s41</title>
<polygon fill="none" stroke="#000000" points="843.829,-258.6156 843.829,-300.2156 900.2708,-300.2156 900.2708,-258.6156 843.829,-258.6156"/>
<text text-anchor="middle" x="872.0499" y="-283.6156" font-family="Times,serif" font-size="14.00" fill="#000000">s41</text>
<text text-anchor="middle" x="872.0499" y="-266.8156" font-family="Times,serif" font-size="14.00" fill="#000000">→ SEQ</text>
</g>
<!-- s40&#45;&gt;s41 -->
<g id="edge12" class="edge">
<title>s40&#45;&gt;s41</title>
<path fill="none" stroke="#000000" d="M807.047,-278.9098C816.1166,-278.9804 825.2063,-279.0511 833.5929,-279.1164"/>
<polygon fill="#000000" stroke="#000000" points="833.7585,-282.6177 843.7855,-279.1957 833.813,-275.6179 833.7585,-282.6177"/>
</g>
<!-- s42 -->
<g id="node8" class="node">
<title>s42</title>
<polygon fill="none" stroke="#000000" points="937.2708,-258.6156 937.2708,-300.2156 1020.1544,-300.2156 1020.1544,-258.6156 937.2708,-258.6156"/>
<text text-anchor="middle" x="978.7126" y="-283.6156" font-family="Times,serif" font-size="14.00" fill="#000000">s42</text>
<text text-anchor="middle" x="978.7126" y="-266.8156" font-family="Times,serif" font-size="14.00" fill="#000000">→ REPEAT</text>
</g>
<!-- s41&#45;&gt;s42 -->
<g id="edge8" class="edge">
<title>s41&#45;&gt;s42</title>
<path fill="none" stroke="#000000" d="M900.3535,-279.4156C908.5147,-279.4156 917.6871,-279.4156 926.8041,-279.4156"/>
<polygon fill="#000000" stroke="#000000" points="927.017,-282.9157 937.017,-279.4156 927.0169,-275.9157 927.017,-282.9157"/>
</g>
<!-- s43 -->
<g id="node9" class="node">
<title>s43</title>
<polygon fill="none" stroke="#000000" points="1057.1544,-311.6156 1057.1544,-353.2156 1113.5962,-353.2156 1113.5962,-311.6156 1057.1544,-311.6156"/>
<text text-anchor="middle" x="1085.3753" y="-336.6156" font-family="Times,serif" font-size="14.00" fill="#000000">s43</text>
<text text-anchor="middle" x="1085.3753" y="-319.8156" font-family="Times,serif" font-size="14.00" fill="#000000">→ SEQ</text>
</g>
<!-- s42&#45;&gt;s43 -->
<g id="edge6" class="edge">
<title>s42&#45;&gt;s43</title>
<path fill="none" stroke="#000000" d="M1020.2566,-300.0586C1029.3735,-304.5887 1038.9742,-309.3592 1047.9192,-313.804"/>
<polygon fill="#000000" stroke="#000000" points="1046.443,-316.9787 1056.9559,-318.2942 1049.558,-310.7099 1046.443,-316.9787"/>
</g>
<!-- s44 -->
<g id="node10" class="node">
<title>s44</title>
<g id="a_node10"><a xlink:href="rust-grammar.json.macro_rule.dot.svg" xlink:title="s44 SYMBOL\nmacro_rule">
<ellipse fill="none" stroke="#000000" cx="1219.3795" cy="-336.4156" rx="68.5672" ry="29.3315"/>
<text text-anchor="middle" x="1219.3795" y="-340.6156" font-family="Times,serif" font-size="14.00" fill="#000000">s44 SYMBOL</text>
<text text-anchor="middle" x="1219.3795" y="-323.8156" font-family="Times,serif" font-size="14.00" fill="#000000">macro_rule</text>
</a>
</g>
</g>
<!-- s43&#45;&gt;s44 -->
<g id="edge4" class="edge">
<title>s43&#45;&gt;s44</title>
<path fill="none" stroke="#000000" d="M1113.7942,-333.2639C1121.8911,-333.5056 1131.1283,-333.7814 1140.6934,-334.0669"/>
<polygon fill="#000000" stroke="#000000" points="1140.6458,-337.5669 1150.7458,-334.3669 1140.8548,-330.57 1140.6458,-337.5669"/>
</g>
<!-- s45 -->
<g id="node11" class="node">
<title>s45</title>
<ellipse fill="none" stroke="#000000" cx="1388.4419" cy="-336.4156" rx="63.059" ry="29.3315"/>
<text text-anchor="middle" x="1388.4419" y="-340.6156" font-family="Times,serif" font-size="14.00" fill="#000000">s45 STRING</text>
<text text-anchor="middle" x="1388.4419" y="-323.8156" font-family="Times,serif" font-size="14.00" fill="#000000">&quot;;&quot;</text>
</g>
<!-- s44&#45;&gt;s45 -->
<g id="edge5" class="edge">
<title>s44&#45;&gt;s45</title>
<path fill="none" stroke="#000000" d="M1288.6314,-336.4156C1297.283,-336.4156 1306.1554,-336.4156 1314.8699,-336.4156"/>
<polygon fill="#000000" stroke="#000000" points="1315.0045,-339.9157 1325.0045,-336.4156 1315.0045,-332.9157 1315.0045,-339.9157"/>
</g>
<!-- s45&#45;&gt;s42 -->
<g id="edge7" class="edge">
<title>s45&#45;&gt;s42</title>
<path fill="none" stroke="#000000" d="M1342.8911,-315.8399C1326.0332,-309.1167 1306.5465,-302.3681 1288.1627,-298.4156 1199.1194,-279.2717 1092.5907,-277.1343 1030.5941,-277.8853"/>
<polygon fill="#000000" stroke="#000000" points="1030.2391,-274.3902 1020.2935,-278.0419 1030.3456,-281.3894 1030.2391,-274.3902"/>
</g>
<!-- s46 -->
<g id="node12" class="node">
<title>s46</title>
<polygon fill="none" stroke="#000000" points="1488.721,-311.6156 1488.721,-361.2156 1590.3206,-361.2156 1590.3206,-311.6156 1488.721,-311.6156"/>
<text text-anchor="middle" x="1529.7708" y="-340.6156" font-family="Times,serif" font-size="14.00" fill="#000000">s46</text>
<text text-anchor="middle" x="1529.7708" y="-323.8156" font-family="Times,serif" font-size="14.00" fill="#000000">→ CHOICE</text>
<polyline fill="none" stroke="#000000" points="1570.8206,-311.6156 1570.8206,-361.2156 "/>
<text text-anchor="middle" x="1580.5706" y="-344.6156" font-family="Times,serif" font-size="14.00" fill="#000000"> </text>
<polyline fill="none" stroke="#000000" points="1570.8206,-336.4156 1590.3206,-336.4156 "/>
<text text-anchor="middle" x="1580.5706" y="-319.8156" font-family="Times,serif" font-size="14.00" fill="#000000"> </text>
</g>
<!-- s45&#45;&gt;s46 -->
<g id="edge11" class="edge">
<title>s45&#45;&gt;s46</title>
<path fill="none" stroke="#000000" d="M1452.075,-336.4156C1460.7693,-336.4156 1469.6794,-336.4156 1478.3289,-336.4156"/>
<polygon fill="#000000" stroke="#000000" points="1478.3345,-339.9157 1488.3345,-336.4156 1478.3344,-332.9157 1478.3345,-339.9157"/>
</g>
<!-- s47 -->
<g id="node13" class="node">
<title>s47</title>
<g id="a_node13"><a xlink:href="rust-grammar.json.macro_rule.dot.svg" xlink:title="s47 SYMBOL\nmacro_rule">
<ellipse fill="none" stroke="#000000" cx="1758.85" cy="-414.4156" rx="68.5672" ry="29.3315"/>
<text text-anchor="middle" x="1758.85" y="-418.6156" font-family="Times,serif" font-size="14.00" fill="#000000">s47 SYMBOL</text>
<text text-anchor="middle" x="1758.85" y="-401.8156" font-family="Times,serif" font-size="14.00" fill="#000000">macro_rule</text>
</a>
</g>
</g>
<!-- s46&#45;&gt;s47 -->
<g id="edge9" class="edge">
<title>s46:p0&#45;&gt;s47</title>
<path fill="none" stroke="#000000" d="M1580.5208,-361.4156C1580.5208,-406.1936 1632.822,-418.016 1680.7761,-419.4448"/>
<polygon fill="#000000" stroke="#000000" points="1680.8703,-422.9465 1690.9227,-419.6 1680.9774,-415.9474 1680.8703,-422.9465"/>
<text text-anchor="middle" x="1640.1937" y="-422.6156" font-family="Times,serif" font-size="14.00" fill="#000000">macro_rule</text>
</g>
<!-- s48 -->
<g id="node14" class="node">
<title>s48</title>
<ellipse fill="none" stroke="#000000" cx="1758.85" cy="-260.4156" rx="45.3054" ry="29.3315"/>
<text text-anchor="middle" x="1758.85" y="-264.6156" font-family="Times,serif" font-size="14.00" fill="#000000">s48 </text>
<text text-anchor="middle" x="1758.85" y="-247.8156" font-family="Times,serif" font-size="14.00" fill="#000000">BLANK</text>
</g>
<!-- s46&#45;&gt;s48 -->
<g id="edge10" class="edge">
<title>s46:p1&#45;&gt;s48</title>
<path fill="none" stroke="#000000" d="M1580.5208,-311.4156C1580.5208,-259.4913 1651.2733,-252.7451 1703.6468,-254.8643"/>
<polygon fill="#000000" stroke="#000000" points="1703.6815,-258.3707 1713.85,-255.3955 1704.0456,-251.3802 1703.6815,-258.3707"/>
</g>
<!-- s49 -->
<g id="node15" class="node">
<title>s49</title>
<ellipse fill="none" stroke="#000000" cx="1758.85" cy="-337.4156" rx="63.059" ry="29.3315"/>
<text text-anchor="middle" x="1758.85" y="-341.6156" font-family="Times,serif" font-size="14.00" fill="#000000">s49 STRING</text>
<text text-anchor="middle" x="1758.85" y="-324.8156" font-family="Times,serif" font-size="14.00" fill="#000000">&quot;)&quot;</text>
</g>
<!-- s46&#45;&gt;s49 -->
<g id="edge13" class="edge">
<title>s46&#45;&gt;s49</title>
<path fill="none" stroke="#000000" d="M1590.3906,-336.6476C1618.4732,-336.7756 1653.8588,-336.9369 1684.9412,-337.0787"/>
<polygon fill="#000000" stroke="#000000" points="1685.2846,-340.5802 1695.3005,-337.1259 1685.3166,-333.5802 1685.2846,-340.5802"/>
</g>
<!-- s50 -->
<g id="node16" class="node">
<title>s50</title>
<ellipse fill="none" stroke="#000000" cx="1927.9124" cy="-337.4156" rx="63.059" ry="29.3315"/>
<text text-anchor="middle" x="1927.9124" y="-341.6156" font-family="Times,serif" font-size="14.00" fill="#000000">s50 STRING</text>
<text text-anchor="middle" x="1927.9124" y="-324.8156" font-family="Times,serif" font-size="14.00" fill="#000000">&quot;;&quot;</text>
</g>
<!-- s49&#45;&gt;s50 -->
<g id="edge14" class="edge">
<title>s49&#45;&gt;s50</title>
<path fill="none" stroke="#000000" d="M1822.2836,-337.4156C1832.7212,-337.4156 1843.6171,-337.4156 1854.278,-337.4156"/>
<polygon fill="#000000" stroke="#000000" points="1854.4046,-340.9157 1864.4045,-337.4156 1854.4045,-333.9157 1854.4046,-340.9157"/>
</g>
<!-- s52 -->
<g id="node18" class="node">
<title>s52</title>
<ellipse fill="none" stroke="#000000" cx="743.5499" cy="-200.4156" rx="63.059" ry="29.3315"/>
<text text-anchor="middle" x="743.5499" y="-204.6156" font-family="Times,serif" font-size="14.00" fill="#000000">s52 STRING</text>
<text text-anchor="middle" x="743.5499" y="-187.8156" font-family="Times,serif" font-size="14.00" fill="#000000">&quot;{&quot;</text>
</g>
<!-- s51&#45;&gt;s52 -->
<g id="edge16" class="edge">
<title>s51&#45;&gt;s52</title>
<path fill="none" stroke="#000000" d="M643.5682,-209.7525C651.9095,-208.9735 661.429,-208.0845 671.2025,-207.1718"/>
<polygon fill="#000000" stroke="#000000" points="671.8095,-210.6305 681.4407,-206.2157 671.1585,-203.6608 671.8095,-210.6305"/>
</g>
<!-- s53 -->
<g id="node19" class="node">
<title>s53</title>
<polygon fill="none" stroke="#000000" points="843.829,-172.6156 843.829,-214.2156 900.2708,-214.2156 900.2708,-172.6156 843.829,-172.6156"/>
<text text-anchor="middle" x="872.0499" y="-197.6156" font-family="Times,serif" font-size="14.00" fill="#000000">s53</text>
<text text-anchor="middle" x="872.0499" y="-180.8156" font-family="Times,serif" font-size="14.00" fill="#000000">→ SEQ</text>
</g>
<!-- s52&#45;&gt;s53 -->
<g id="edge25" class="edge">
<title>s52&#45;&gt;s53</title>
<path fill="none" stroke="#000000" d="M806.6706,-196.9772C815.7747,-196.4812 824.909,-195.9836 833.3421,-195.5242"/>
<polygon fill="#000000" stroke="#000000" points="833.7991,-199.0046 843.5939,-194.9658 833.4183,-192.015 833.7991,-199.0046"/>
</g>
<!-- s54 -->
<g id="node20" class="node">
<title>s54</title>
<polygon fill="none" stroke="#000000" points="937.2708,-142.6156 937.2708,-184.2156 1020.1544,-184.2156 1020.1544,-142.6156 937.2708,-142.6156"/>
<text text-anchor="middle" x="978.7126" y="-167.6156" font-family="Times,serif" font-size="14.00" fill="#000000">s54</text>
<text text-anchor="middle" x="978.7126" y="-150.8156" font-family="Times,serif" font-size="14.00" fill="#000000">→ REPEAT</text>
</g>
<!-- s53&#45;&gt;s54 -->
<g id="edge21" class="edge">
<title>s53&#45;&gt;s54</title>
<path fill="none" stroke="#000000" d="M900.3535,-185.455C908.6025,-183.1349 917.8845,-180.5242 927.0982,-177.9328"/>
<polygon fill="#000000" stroke="#000000" points="928.3382,-181.2199 937.017,-175.143 926.4428,-174.4813 928.3382,-181.2199"/>
</g>
<!-- s55 -->
<g id="node21" class="node">
<title>s55</title>
<polygon fill="none" stroke="#000000" points="1057.1544,-142.6156 1057.1544,-184.2156 1113.5962,-184.2156 1113.5962,-142.6156 1057.1544,-142.6156"/>
<text text-anchor="middle" x="1085.3753" y="-167.6156" font-family="Times,serif" font-size="14.00" fill="#000000">s55</text>
<text text-anchor="middle" x="1085.3753" y="-150.8156" font-family="Times,serif" font-size="14.00" fill="#000000">→ SEQ</text>
</g>
<!-- s54&#45;&gt;s55 -->
<g id="edge19" class="edge">
<title>s54&#45;&gt;s55</title>
<path fill="none" stroke="#000000" d="M1020.2566,-163.4156C1028.9897,-163.4156 1038.1666,-163.4156 1046.7859,-163.4156"/>
<polygon fill="#000000" stroke="#000000" points="1046.9559,-166.9157 1056.9559,-163.4156 1046.9558,-159.9157 1046.9559,-166.9157"/>
</g>
<!-- s56 -->
<g id="node22" class="node">
<title>s56</title>
<g id="a_node22"><a xlink:href="rust-grammar.json.macro_rule.dot.svg" xlink:title="s56 SYMBOL\nmacro_rule">
<ellipse fill="none" stroke="#000000" cx="1219.3795" cy="-163.4156" rx="68.5672" ry="29.3315"/>
<text text-anchor="middle" x="1219.3795" y="-167.6156" font-family="Times,serif" font-size="14.00" fill="#000000">s56 SYMBOL</text>
<text text-anchor="middle" x="1219.3795" y="-150.8156" font-family="Times,serif" font-size="14.00" fill="#000000">macro_rule</text>
</a>
</g>
</g>
<!-- s55&#45;&gt;s56 -->
<g id="edge17" class="edge">
<title>s55&#45;&gt;s56</title>
<path fill="none" stroke="#000000" d="M1113.7942,-163.4156C1121.7494,-163.4156 1130.8055,-163.4156 1140.1917,-163.4156"/>
<polygon fill="#000000" stroke="#000000" points="1140.4699,-166.9157 1150.4699,-163.4156 1140.4699,-159.9157 1140.4699,-166.9157"/>
</g>
<!-- s57 -->
<g id="node23" class="node">
<title>s57</title>
<ellipse fill="none" stroke="#000000" cx="1388.4419" cy="-106.4156" rx="63.059" ry="29.3315"/>
<text text-anchor="middle" x="1388.4419" y="-110.6156" font-family="Times,serif" font-size="14.00" fill="#000000">s57 STRING</text>
<text text-anchor="middle" x="1388.4419" y="-93.8156" font-family="Times,serif" font-size="14.00" fill="#000000">&quot;;&quot;</text>
</g>
<!-- s56&#45;&gt;s57 -->
<g id="edge18" class="edge">
<title>s56&#45;&gt;s57</title>
<path fill="none" stroke="#000000" d="M1273.8025,-145.0667C1290.906,-139.3002 1309.9012,-132.8959 1327.4304,-126.9859"/>
<polygon fill="#000000" stroke="#000000" points="1328.6389,-130.2721 1336.9966,-123.7606 1326.4025,-123.6389 1328.6389,-130.2721"/>
</g>
<!-- s57&#45;&gt;s54 -->
<g id="edge20" class="edge">
<title>s57&#45;&gt;s54</title>
<path fill="none" stroke="#000000" d="M1325.0338,-106.2C1257.7399,-107.2152 1148.6962,-112.4306 1057.1544,-133.4156 1048.1788,-135.4732 1038.8577,-138.3414 1029.9078,-141.4951"/>
<polygon fill="#000000" stroke="#000000" points="1028.5508,-138.265 1020.3757,-145.0044 1030.9692,-144.8339 1028.5508,-138.265"/>
</g>
<!-- s58 -->
<g id="node24" class="node">
<title>s58</title>
<polygon fill="none" stroke="#000000" points="1488.721,-81.6156 1488.721,-131.2156 1590.3206,-131.2156 1590.3206,-81.6156 1488.721,-81.6156"/>
<text text-anchor="middle" x="1529.7708" y="-110.6156" font-family="Times,serif" font-size="14.00" fill="#000000">s58</text>
<text text-anchor="middle" x="1529.7708" y="-93.8156" font-family="Times,serif" font-size="14.00" fill="#000000">→ CHOICE</text>
<polyline fill="none" stroke="#000000" points="1570.8206,-81.6156 1570.8206,-131.2156 "/>
<text text-anchor="middle" x="1580.5706" y="-114.6156" font-family="Times,serif" font-size="14.00" fill="#000000"> </text>
<polyline fill="none" stroke="#000000" points="1570.8206,-106.4156 1590.3206,-106.4156 "/>
<text text-anchor="middle" x="1580.5706" y="-89.8156" font-family="Times,serif" font-size="14.00" fill="#000000"> </text>
</g>
<!-- s57&#45;&gt;s58 -->
<g id="edge24" class="edge">
<title>s57&#45;&gt;s58</title>
<path fill="none" stroke="#000000" d="M1452.075,-106.4156C1460.7693,-106.4156 1469.6794,-106.4156 1478.3289,-106.4156"/>
<polygon fill="#000000" stroke="#000000" points="1478.3345,-109.9157 1488.3345,-106.4156 1478.3344,-102.9157 1478.3345,-109.9157"/>
</g>
<!-- s59 -->
<g id="node25" class="node">
<title>s59</title>
<g id="a_node25"><a xlink:href="rust-grammar.json.macro_rule.dot.svg" xlink:title="s59 SYMBOL\nmacro_rule">
<ellipse fill="none" stroke="#000000" cx="1758.85" cy="-183.4156" rx="68.5672" ry="29.3315"/>
<text text-anchor="middle" x="1758.85" y="-187.6156" font-family="Times,serif" font-size="14.00" fill="#000000">s59 SYMBOL</text>
<text text-anchor="middle" x="1758.85" y="-170.8156" font-family="Times,serif" font-size="14.00" fill="#000000">macro_rule</text>
</a>
</g>
</g>
<!-- s58&#45;&gt;s59 -->
<g id="edge22" class="edge">
<title>s58:p0&#45;&gt;s59</title>
<path fill="none" stroke="#000000" d="M1580.5208,-131.4156C1580.5208,-176.2009 1632.9982,-187.6991 1681.0183,-188.8456"/>
<polygon fill="#000000" stroke="#000000" points="1681.1445,-192.3468 1691.1771,-188.9414 1681.2106,-185.3472 1681.1445,-192.3468"/>
<text text-anchor="middle" x="1640.1937" y="-191.6156" font-family="Times,serif" font-size="14.00" fill="#000000">macro_rule</text>
</g>
<!-- s60 -->
<g id="node26" class="node">
<title>s60</title>
<ellipse fill="none" stroke="#000000" cx="1758.85" cy="-29.4156" rx="45.3054" ry="29.3315"/>
<text text-anchor="middle" x="1758.85" y="-33.6156" font-family="Times,serif" font-size="14.00" fill="#000000">s60 </text>
<text text-anchor="middle" x="1758.85" y="-16.8156" font-family="Times,serif" font-size="14.00" fill="#000000">BLANK</text>
</g>
<!-- s58&#45;&gt;s60 -->
<g id="edge23" class="edge">
<title>s58:p1&#45;&gt;s60</title>
<path fill="none" stroke="#000000" d="M1580.5208,-81.4156C1580.5208,-29.4136 1651.2733,-22.2908 1703.6468,-24.1419"/>
<polygon fill="#000000" stroke="#000000" points="1703.6968,-27.648 1713.85,-24.6211 1704.0253,-20.6557 1703.6968,-27.648"/>
</g>
<!-- s61 -->
<g id="node27" class="node">
<title>s61</title>
<ellipse fill="none" stroke="#000000" cx="1758.85" cy="-106.4156" rx="63.059" ry="29.3315"/>
<text text-anchor="middle" x="1758.85" y="-110.6156" font-family="Times,serif" font-size="14.00" fill="#000000">s61 STRING</text>
<text text-anchor="middle" x="1758.85" y="-93.8156" font-family="Times,serif" font-size="14.00" fill="#000000">&quot;}&quot;</text>
</g>
<!-- s58&#45;&gt;s61 -->
<g id="edge26" class="edge">
<title>s58&#45;&gt;s61</title>
<path fill="none" stroke="#000000" d="M1590.3906,-106.4156C1618.4732,-106.4156 1653.8588,-106.4156 1684.9412,-106.4156"/>
<polygon fill="#000000" stroke="#000000" points="1685.3005,-109.9157 1695.3005,-106.4156 1685.3004,-102.9157 1685.3005,-109.9157"/>
</g>
</g>
</svg>
