<?xml version="1.0" encoding="UTF-8" standalone="no"?>
<!DOCTYPE svg PUBLIC "-//W3C//DTD SVG 1.1//EN"
 "http://www.w3.org/Graphics/SVG/1.1/DTD/svg11.dtd">
<!-- Generated by graphviz version 2.40.1 (20161225.0304)
 -->
<!-- Title: bracketed_type Pages: 1 -->
<svg width="814pt" height="144pt"
 viewBox="0.00 0.00 814.29 143.83" xmlns="http://www.w3.org/2000/svg" xmlns:xlink="http://www.w3.org/1999/xlink">
<g id="graph0" class="graph" transform="scale(1 1) rotate(0) translate(4 139.8313)">
<title>bracketed_type</title>
<polygon fill="#ffffff" stroke="transparent" points="-4,4 -4,-139.8313 810.2897,-139.8313 810.2897,4 -4,4"/>
<!-- s794 -->
<g id="node1" class="node">
<title>s794</title>
<polygon fill="none" stroke="#000000" points="0,-46.6156 0,-88.2156 56.4418,-88.2156 56.4418,-46.6156 0,-46.6156"/>
<text text-anchor="middle" x="28.2209" y="-71.6156" font-family="Times,serif" font-size="14.00" fill="#000000">s794</text>
<text text-anchor="middle" x="28.2209" y="-54.8156" font-family="Times,serif" font-size="14.00" fill="#000000">→ SEQ</text>
</g>
<!-- s795 -->
<g id="node2" class="node">
<title>s795</title>
<ellipse fill="none" stroke="#000000" cx="161.6707" cy="-67.4156" rx="68.4585" ry="29.3315"/>
<text text-anchor="middle" x="161.6707" y="-71.6156" font-family="Times,serif" font-size="14.00" fill="#000000">s795 STRING</text>
<text text-anchor="middle" x="161.6707" y="-54.8156" font-family="Times,serif" font-size="14.00" fill="#000000">&quot;&lt;&quot;</text>
</g>
<!-- s794&#45;&gt;s795 -->
<g id="edge1" class="edge">
<title>s794&#45;&gt;s795</title>
<path fill="none" stroke="#000000" d="M56.5222,-67.4156C64.5856,-67.4156 73.7846,-67.4156 83.3101,-67.4156"/>
<polygon fill="#000000" stroke="#000000" points="83.321,-70.9157 93.321,-67.4156 83.3209,-63.9157 83.321,-70.9157"/>
</g>
<!-- s796 -->
<g id="node3" class="node">
<title>s796</title>
<polygon fill="none" stroke="#000000" points="266.8995,-42.6156 266.8995,-92.2156 368.4991,-92.2156 368.4991,-42.6156 266.8995,-42.6156"/>
<text text-anchor="middle" x="307.9493" y="-71.6156" font-family="Times,serif" font-size="14.00" fill="#000000">s796</text>
<text text-anchor="middle" x="307.9493" y="-54.8156" font-family="Times,serif" font-size="14.00" fill="#000000">→ CHOICE</text>
<polyline fill="none" stroke="#000000" points="348.9991,-42.6156 348.9991,-92.2156 "/>
<text text-anchor="middle" x="358.7491" y="-75.6156" font-family="Times,serif" font-size="14.00" fill="#000000"> </text>
<polyline fill="none" stroke="#000000" points="348.9991,-67.4156 368.4991,-67.4156 "/>
<text text-anchor="middle" x="358.7491" y="-50.8156" font-family="Times,serif" font-size="14.00" fill="#000000"> </text>
</g>
<!-- s795&#45;&gt;s796 -->
<g id="edge4" class="edge">
<title>s795&#45;&gt;s796</title>
<path fill="none" stroke="#000000" d="M230.1071,-67.4156C238.9349,-67.4156 247.9288,-67.4156 256.6274,-67.4156"/>
<polygon fill="#000000" stroke="#000000" points="256.6756,-70.9157 266.6755,-67.4156 256.6755,-63.9157 256.6756,-70.9157"/>
</g>
<!-- s797 -->
<g id="node4" class="node">
<title>s797</title>
<g id="a_node4"><a xlink:href="rust-grammar.json._type.dot.svg" xlink:title="s797 SYMBOL\n_type">
<ellipse fill="none" stroke="#000000" cx="559.0989" cy="-106.4156" rx="73.9667" ry="29.3315"/>
<text text-anchor="middle" x="559.0989" y="-110.6156" font-family="Times,serif" font-size="14.00" fill="#000000">s797 SYMBOL</text>
<text text-anchor="middle" x="559.0989" y="-93.8156" font-family="Times,serif" font-size="14.00" fill="#000000">_type</text>
</a>
</g>
</g>
<!-- s796&#45;&gt;s797 -->
<g id="edge2" class="edge">
<title>s796:p0&#45;&gt;s797</title>
<path fill="none" stroke="#000000" d="M368.4991,-79.4156C406.6737,-79.4156 448.7277,-84.7909 483.5992,-90.7447"/>
<polygon fill="#000000" stroke="#000000" points="483.2506,-94.237 493.7054,-92.5202 484.4618,-87.3426 483.2506,-94.237"/>
<text text-anchor="middle" x="426.9325" y="-90.6156" font-family="Times,serif" font-size="14.00" fill="#000000">_type</text>
</g>
<!-- s798 -->
<g id="node5" class="node">
<title>s798</title>
<g id="a_node5"><a xlink:href="rust-grammar.json.qualified_type.dot.svg" xlink:title="s798 SYMBOL\nqualified_type">
<ellipse fill="none" stroke="#000000" cx="559.0989" cy="-29.4156" rx="73.9667" ry="29.3315"/>
<text text-anchor="middle" x="559.0989" y="-33.6156" font-family="Times,serif" font-size="14.00" fill="#000000">s798 SYMBOL</text>
<text text-anchor="middle" x="559.0989" y="-16.8156" font-family="Times,serif" font-size="14.00" fill="#000000">qualified_type</text>
</a>
</g>
</g>
<!-- s796&#45;&gt;s798 -->
<g id="edge3" class="edge">
<title>s796:p1&#45;&gt;s798</title>
<path fill="none" stroke="#000000" d="M368.4991,-55.4156C406.4944,-55.4156 448.3624,-50.2806 483.1569,-44.5746"/>
<polygon fill="#000000" stroke="#000000" points="483.9653,-47.9878 493.2435,-42.8726 482.8005,-41.0854 483.9653,-47.9878"/>
<text text-anchor="middle" x="426.9325" y="-58.6156" font-family="Times,serif" font-size="14.00" fill="#000000">qualified_type</text>
</g>
<!-- s799 -->
<g id="node6" class="node">
<title>s799</title>
<ellipse fill="none" stroke="#000000" cx="738.0608" cy="-67.4156" rx="68.4585" ry="29.3315"/>
<text text-anchor="middle" x="738.0608" y="-71.6156" font-family="Times,serif" font-size="14.00" fill="#000000">s799 STRING</text>
<text text-anchor="middle" x="738.0608" y="-54.8156" font-family="Times,serif" font-size="14.00" fill="#000000">&quot;&gt;&quot;</text>
</g>
<!-- s797&#45;&gt;s799 -->
<g id="edge5" class="edge">
<title>s797&#45;&gt;s799</title>
<path fill="none" stroke="#000000" d="M623.9613,-92.2806C637.8867,-89.2459 652.6747,-86.0233 666.8267,-82.9392"/>
<polygon fill="#000000" stroke="#000000" points="667.9723,-86.2718 676.9977,-80.7227 666.4818,-79.4323 667.9723,-86.2718"/>
</g>
<!-- s798&#45;&gt;s799 -->
<g id="edge6" class="edge">
<title>s798&#45;&gt;s799</title>
<path fill="none" stroke="#000000" d="M624.2145,-43.242C637.9665,-46.162 652.5497,-49.2586 666.5239,-52.2258"/>
<polygon fill="#000000" stroke="#000000" points="666.0622,-55.7057 676.5711,-54.3592 667.5162,-48.8584 666.0622,-55.7057"/>
</g>
</g>
</svg>
