<?xml version="1.0" encoding="UTF-8" standalone="no"?>
<!DOCTYPE svg PUBLIC "-//W3C//DTD SVG 1.1//EN"
 "http://www.w3.org/Graphics/SVG/1.1/DTD/svg11.dtd">
<!-- Generated by graphviz version 2.40.1 (20161225.0304)
 -->
<!-- Title: generic_type Pages: 1 -->
<svg width="859pt" height="144pt"
 viewBox="0.00 0.00 859.49 143.83" xmlns="http://www.w3.org/2000/svg" xmlns:xlink="http://www.w3.org/1999/xlink">
<g id="graph0" class="graph" transform="scale(1 1) rotate(0) translate(4 139.8313)">
<title>generic_type</title>
<polygon fill="#ffffff" stroke="transparent" points="-4,4 -4,-139.8313 855.4885,-139.8313 855.4885,4 -4,4"/>
<!-- s855 -->
<g id="node1" class="node">
<title>s855</title>
<polygon fill="none" stroke="#000000" points="0,-46.6156 0,-88.2156 65.0084,-88.2156 65.0084,-46.6156 0,-46.6156"/>
<text text-anchor="middle" x="32.5042" y="-71.6156" font-family="Times,serif" font-size="14.00" fill="#000000">s855</text>
<text text-anchor="middle" x="32.5042" y="-54.8156" font-family="Times,serif" font-size="14.00" fill="#000000">→ PREC</text>
</g>
<!-- s856 -->
<g id="node2" class="node">
<title>s856</title>
<polygon fill="none" stroke="#000000" points="102.0084,-46.6156 102.0084,-88.2156 158.4502,-88.2156 158.4502,-46.6156 102.0084,-46.6156"/>
<text text-anchor="middle" x="130.2293" y="-71.6156" font-family="Times,serif" font-size="14.00" fill="#000000">s856</text>
<text text-anchor="middle" x="130.2293" y="-54.8156" font-family="Times,serif" font-size="14.00" fill="#000000">→ SEQ</text>
</g>
<!-- s855&#45;&gt;s856 -->
<g id="edge6" class="edge">
<title>s855&#45;&gt;s856</title>
<path fill="none" stroke="#000000" d="M65.0452,-67.4156C73.5855,-67.4156 82.8774,-67.4156 91.6984,-67.4156"/>
<polygon fill="#000000" stroke="#000000" points="91.7642,-70.9157 101.7641,-67.4156 91.7641,-63.9157 91.7642,-70.9157"/>
</g>
<!-- s857 -->
<g id="node3" class="node">
<title>s857</title>
<polygon fill="none" stroke="#000000" points="195.4502,-42.6156 195.4502,-92.2156 297.0498,-92.2156 297.0498,-42.6156 195.4502,-42.6156"/>
<text text-anchor="middle" x="236.5" y="-71.6156" font-family="Times,serif" font-size="14.00" fill="#000000">s857</text>
<text text-anchor="middle" x="236.5" y="-54.8156" font-family="Times,serif" font-size="14.00" fill="#000000">→ CHOICE</text>
<polyline fill="none" stroke="#000000" points="277.5498,-42.6156 277.5498,-92.2156 "/>
<text text-anchor="middle" x="287.2998" y="-75.6156" font-family="Times,serif" font-size="14.00" fill="#000000"> </text>
<polyline fill="none" stroke="#000000" points="277.5498,-67.4156 297.0498,-67.4156 "/>
<text text-anchor="middle" x="287.2998" y="-50.8156" font-family="Times,serif" font-size="14.00" fill="#000000"> </text>
</g>
<!-- s856&#45;&gt;s857 -->
<g id="edge3" class="edge">
<title>s856&#45;&gt;s857</title>
<path fill="none" stroke="#000000" d="M158.6112,-67.4156C166.6908,-67.4156 175.8186,-67.4156 185.0543,-67.4156"/>
<polygon fill="#000000" stroke="#000000" points="185.0741,-70.9157 195.0741,-67.4156 185.074,-63.9157 185.0741,-70.9157"/>
</g>
<!-- s858 -->
<g id="node4" class="node">
<title>s858</title>
<g id="a_node4"><a xlink:href="rust-grammar.json._type_identifier.dot.svg" xlink:title="s858 SYMBOL\n_type_identifier">
<ellipse fill="none" stroke="#000000" cx="563.3713" cy="-106.4156" rx="74.5836" ry="29.3315"/>
<text text-anchor="middle" x="563.3713" y="-110.6156" font-family="Times,serif" font-size="14.00" fill="#000000">s858 SYMBOL</text>
<text text-anchor="middle" x="563.3713" y="-93.8156" font-family="Times,serif" font-size="14.00" fill="#000000">_type_identifier</text>
</a>
</g>
</g>
<!-- s857&#45;&gt;s858 -->
<g id="edge1" class="edge">
<title>s857:p0&#45;&gt;s858</title>
<path fill="none" stroke="#000000" d="M297.0498,-79.4156C360.1379,-79.4156 431.2056,-87.0079 484.0501,-94.1404"/>
<polygon fill="#000000" stroke="#000000" points="483.6501,-97.6182 494.0334,-95.5115 484.6027,-90.6833 483.6501,-97.6182"/>
<text text-anchor="middle" x="379.1957" y="-92.6156" font-family="Times,serif" font-size="14.00" fill="#000000">_type_identifier</text>
</g>
<!-- s859 -->
<g id="node5" class="node">
<title>s859</title>
<g id="a_node5"><a xlink:href="rust-grammar.json.scoped_type_identifier.dot.svg" xlink:title="s859 SYMBOL\nscoped_type_identifier">
<ellipse fill="none" stroke="#000000" cx="563.3713" cy="-29.4156" rx="102.0594" ry="29.3315"/>
<text text-anchor="middle" x="563.3713" y="-33.6156" font-family="Times,serif" font-size="14.00" fill="#000000">s859 SYMBOL</text>
<text text-anchor="middle" x="563.3713" y="-16.8156" font-family="Times,serif" font-size="14.00" fill="#000000">scoped_type_identifier</text>
</a>
</g>
</g>
<!-- s857&#45;&gt;s859 -->
<g id="edge2" class="edge">
<title>s857:p1&#45;&gt;s859</title>
<path fill="none" stroke="#000000" d="M297.0498,-55.4156C351.8118,-55.4156 412.6094,-49.9029 462.2732,-43.9543"/>
<polygon fill="#000000" stroke="#000000" points="462.8719,-47.4073 472.3736,-42.7203 462.0229,-40.459 462.8719,-47.4073"/>
<text text-anchor="middle" x="379.1957" y="-58.6156" font-family="Times,serif" font-size="14.00" fill="#000000">scoped_type_identifier</text>
</g>
<!-- s860 -->
<g id="node6" class="node">
<title>s860</title>
<g id="a_node6"><a xlink:href="rust-grammar.json.type_arguments.dot.svg" xlink:title="s860 SYMBOL\ntype_arguments">
<ellipse fill="none" stroke="#000000" cx="776.9448" cy="-67.4156" rx="74.5876" ry="29.3315"/>
<text text-anchor="middle" x="776.9448" y="-71.6156" font-family="Times,serif" font-size="14.00" fill="#000000">s860 SYMBOL</text>
<text text-anchor="middle" x="776.9448" y="-54.8156" font-family="Times,serif" font-size="14.00" fill="#000000">type_arguments</text>
</a>
</g>
</g>
<!-- s858&#45;&gt;s860 -->
<g id="edge4" class="edge">
<title>s858&#45;&gt;s860</title>
<path fill="none" stroke="#000000" d="M631.2407,-94.0222C652.8487,-90.0765 676.9194,-85.681 699.1714,-81.6176"/>
<polygon fill="#000000" stroke="#000000" points="700.0433,-85.0163 709.2519,-79.7768 698.7858,-78.1302 700.0433,-85.0163"/>
</g>
<!-- s859&#45;&gt;s860 -->
<g id="edge5" class="edge">
<title>s859&#45;&gt;s860</title>
<path fill="none" stroke="#000000" d="M650.2398,-44.8717C666.25,-47.7203 682.8795,-50.6791 698.6191,-53.4796"/>
<polygon fill="#000000" stroke="#000000" points="698.3598,-56.9883 708.8183,-55.2943 699.5861,-50.0966 698.3598,-56.9883"/>
</g>
</g>
</svg>
