<?xml version="1.0" encoding="UTF-8" standalone="no"?>
<!DOCTYPE svg PUBLIC "-//W3C//DTD SVG 1.1//EN"
 "http://www.w3.org/Graphics/SVG/1.1/DTD/svg11.dtd">
<!-- Generated by graphviz version 2.40.1 (20161225.0304)
 -->
<!-- Title: dynamic_type Pages: 1 -->
<svg width="745pt" height="221pt"
 viewBox="0.00 0.00 744.85 220.83" xmlns="http://www.w3.org/2000/svg" xmlns:xlink="http://www.w3.org/1999/xlink">
<g id="graph0" class="graph" transform="scale(1 1) rotate(0) translate(4 216.8313)">
<title>dynamic_type</title>
<polygon fill="#ffffff" stroke="transparent" points="-4,4 -4,-216.8313 740.8504,-216.8313 740.8504,4 -4,4"/>
<!-- s912 -->
<g id="node1" class="node">
<title>s912</title>
<polygon fill="none" stroke="#000000" points="0,-85.6156 0,-127.2156 56.4418,-127.2156 56.4418,-85.6156 0,-85.6156"/>
<text text-anchor="middle" x="28.2209" y="-110.6156" font-family="Times,serif" font-size="14.00" fill="#000000">s912</text>
<text text-anchor="middle" x="28.2209" y="-93.8156" font-family="Times,serif" font-size="14.00" fill="#000000">→ SEQ</text>
</g>
<!-- s913 -->
<g id="node2" class="node">
<title>s913</title>
<ellipse fill="none" stroke="#000000" cx="161.6707" cy="-106.4156" rx="68.4585" ry="29.3315"/>
<text text-anchor="middle" x="161.6707" y="-110.6156" font-family="Times,serif" font-size="14.00" fill="#000000">s913 STRING</text>
<text text-anchor="middle" x="161.6707" y="-93.8156" font-family="Times,serif" font-size="14.00" fill="#000000">&quot;dyn&quot;</text>
</g>
<!-- s912&#45;&gt;s913 -->
<g id="edge1" class="edge">
<title>s912&#45;&gt;s913</title>
<path fill="none" stroke="#000000" d="M56.5222,-106.4156C64.5856,-106.4156 73.7846,-106.4156 83.3101,-106.4156"/>
<polygon fill="#000000" stroke="#000000" points="83.321,-109.9157 93.321,-106.4156 83.3209,-102.9157 83.321,-109.9157"/>
</g>
<!-- s914 -->
<g id="node3" class="node">
<title>s914</title>
<polygon fill="none" stroke="#000000" points="266.8995,-69.2156 266.8995,-143.6156 368.4991,-143.6156 368.4991,-69.2156 266.8995,-69.2156"/>
<text text-anchor="middle" x="307.9493" y="-110.6156" font-family="Times,serif" font-size="14.00" fill="#000000">s914</text>
<text text-anchor="middle" x="307.9493" y="-93.8156" font-family="Times,serif" font-size="14.00" fill="#000000">→ CHOICE</text>
<polyline fill="none" stroke="#000000" points="348.9991,-69.2156 348.9991,-143.6156 "/>
<text text-anchor="middle" x="358.7491" y="-127.0156" font-family="Times,serif" font-size="14.00" fill="#000000"> </text>
<polyline fill="none" stroke="#000000" points="348.9991,-118.8156 368.4991,-118.8156 "/>
<text text-anchor="middle" x="358.7491" y="-102.2156" font-family="Times,serif" font-size="14.00" fill="#000000"> </text>
<polyline fill="none" stroke="#000000" points="348.9991,-94.0156 368.4991,-94.0156 "/>
<text text-anchor="middle" x="358.7491" y="-77.4156" font-family="Times,serif" font-size="14.00" fill="#000000"> </text>
</g>
<!-- s913&#45;&gt;s914 -->
<g id="edge5" class="edge">
<title>s913&#45;&gt;s914</title>
<path fill="none" stroke="#000000" d="M230.1071,-106.4156C238.9349,-106.4156 247.9288,-106.4156 256.6274,-106.4156"/>
<polygon fill="#000000" stroke="#000000" points="256.6756,-109.9157 266.6755,-106.4156 256.6755,-102.9157 256.6756,-109.9157"/>
</g>
<!-- s915 -->
<g id="node4" class="node">
<title>s915</title>
<g id="a_node4"><a xlink:href="rust-grammar.json._type_identifier.dot.svg" xlink:title="s915 SYMBOL\n_type_identifier">
<ellipse fill="none" stroke="#000000" cx="634.8207" cy="-183.4156" rx="74.5836" ry="29.3315"/>
<text text-anchor="middle" x="634.8207" y="-187.6156" font-family="Times,serif" font-size="14.00" fill="#000000">s915 SYMBOL</text>
<text text-anchor="middle" x="634.8207" y="-170.8156" font-family="Times,serif" font-size="14.00" fill="#000000">_type_identifier</text>
</a>
</g>
</g>
<!-- s914&#45;&gt;s915 -->
<g id="edge2" class="edge">
<title>s914:p0&#45;&gt;s915</title>
<path fill="none" stroke="#000000" d="M368.4991,-131.4156C436.7969,-131.4156 513.1512,-148.0927 566.533,-162.5579"/>
<polygon fill="#000000" stroke="#000000" points="565.6556,-165.9465 576.2261,-165.2286 567.5151,-159.1979 565.6556,-165.9465"/>
<text text-anchor="middle" x="450.645" y="-153.6156" font-family="Times,serif" font-size="14.00" fill="#000000">_type_identifier</text>
</g>
<!-- s916 -->
<g id="node5" class="node">
<title>s916</title>
<g id="a_node5"><a xlink:href="rust-grammar.json.scoped_type_identifier.dot.svg" xlink:title="s916 SYMBOL\nscoped_type_identifier">
<ellipse fill="none" stroke="#000000" cx="634.8207" cy="-106.4156" rx="102.0594" ry="29.3315"/>
<text text-anchor="middle" x="634.8207" y="-110.6156" font-family="Times,serif" font-size="14.00" fill="#000000">s916 SYMBOL</text>
<text text-anchor="middle" x="634.8207" y="-93.8156" font-family="Times,serif" font-size="14.00" fill="#000000">scoped_type_identifier</text>
</a>
</g>
</g>
<!-- s914&#45;&gt;s916 -->
<g id="edge3" class="edge">
<title>s914:p1&#45;&gt;s916</title>
<path fill="none" stroke="#000000" d="M368.4991,-106.4156C419.1113,-106.4156 475.1337,-106.4156 522.686,-106.4156"/>
<polygon fill="#000000" stroke="#000000" points="522.6996,-109.9157 532.6996,-106.4156 522.6995,-102.9157 522.6996,-109.9157"/>
<text text-anchor="middle" x="450.645" y="-110.6156" font-family="Times,serif" font-size="14.00" fill="#000000">scoped_type_identifier</text>
</g>
<!-- s917 -->
<g id="node6" class="node">
<title>s917</title>
<g id="a_node6"><a xlink:href="rust-grammar.json.generic_type.dot.svg" xlink:title="s917 SYMBOL\ngeneric_type">
<ellipse fill="none" stroke="#000000" cx="634.8207" cy="-29.4156" rx="73.9667" ry="29.3315"/>
<text text-anchor="middle" x="634.8207" y="-33.6156" font-family="Times,serif" font-size="14.00" fill="#000000">s917 SYMBOL</text>
<text text-anchor="middle" x="634.8207" y="-16.8156" font-family="Times,serif" font-size="14.00" fill="#000000">generic_type</text>
</a>
</g>
</g>
<!-- s914&#45;&gt;s917 -->
<g id="edge4" class="edge">
<title>s914:p2&#45;&gt;s917</title>
<path fill="none" stroke="#000000" d="M368.4991,-81.4156C436.9077,-81.4156 513.3991,-64.6844 566.7928,-50.203"/>
<polygon fill="#000000" stroke="#000000" points="567.777,-53.5623 576.4866,-47.5297 565.916,-46.8142 567.777,-53.5623"/>
<text text-anchor="middle" x="450.645" y="-84.6156" font-family="Times,serif" font-size="14.00" fill="#000000">generic_type</text>
</g>
</g>
</svg>
