<?xml version="1.0" encoding="UTF-8" standalone="no"?>
<!DOCTYPE svg PUBLIC "-//W3C//DTD SVG 1.1//EN"
 "http://www.w3.org/Graphics/SVG/1.1/DTD/svg11.dtd">
<!-- Generated by graphviz version 2.40.1 (20161225.0304)
 -->
<!-- Title: while_let_expression Pages: 1 -->
<svg width="1797pt" height="144pt"
 viewBox="0.00 0.00 1797.37 143.83" xmlns="http://www.w3.org/2000/svg" xmlns:xlink="http://www.w3.org/1999/xlink">
<g id="graph0" class="graph" transform="scale(1 1) rotate(0) translate(4 139.8313)">
<title>while_let_expression</title>
<polygon fill="#ffffff" stroke="transparent" points="-4,4 -4,-139.8313 1793.3741,-139.8313 1793.3741,4 -4,4"/>
<!-- s1226 -->
<g id="node1" class="node">
<title>s1226</title>
<polygon fill="none" stroke="#000000" points="0,-46.6156 0,-88.2156 56.4418,-88.2156 56.4418,-46.6156 0,-46.6156"/>
<text text-anchor="middle" x="28.2209" y="-71.6156" font-family="Times,serif" font-size="14.00" fill="#000000">s1226</text>
<text text-anchor="middle" x="28.2209" y="-54.8156" font-family="Times,serif" font-size="14.00" fill="#000000">→ SEQ</text>
</g>
<!-- s1227 -->
<g id="node2" class="node">
<title>s1227</title>
<polygon fill="none" stroke="#000000" points="92.4418,-42.6156 92.4418,-92.2156 194.0414,-92.2156 194.0414,-42.6156 92.4418,-42.6156"/>
<text text-anchor="middle" x="133.4916" y="-71.6156" font-family="Times,serif" font-size="14.00" fill="#000000">s1227</text>
<text text-anchor="middle" x="133.4916" y="-54.8156" font-family="Times,serif" font-size="14.00" fill="#000000">→ CHOICE</text>
<polyline fill="none" stroke="#000000" points="174.5414,-42.6156 174.5414,-92.2156 "/>
<text text-anchor="middle" x="184.2914" y="-75.6156" font-family="Times,serif" font-size="14.00" fill="#000000"> </text>
<polyline fill="none" stroke="#000000" points="174.5414,-67.4156 194.0414,-67.4156 "/>
<text text-anchor="middle" x="184.2914" y="-50.8156" font-family="Times,serif" font-size="14.00" fill="#000000"> </text>
</g>
<!-- s1226&#45;&gt;s1227 -->
<g id="edge5" class="edge">
<title>s1226&#45;&gt;s1227</title>
<path fill="none" stroke="#000000" d="M56.653,-67.4156C64.4832,-67.4156 73.2894,-67.4156 82.209,-67.4156"/>
<polygon fill="#000000" stroke="#000000" points="82.2817,-70.9157 92.2817,-67.4156 82.2817,-63.9157 82.2817,-70.9157"/>
</g>
<!-- s1228 -->
<g id="node3" class="node">
<title>s1228</title>
<polygon fill="none" stroke="#000000" points="230.0414,-78.6156 230.0414,-120.2156 286.4832,-120.2156 286.4832,-78.6156 230.0414,-78.6156"/>
<text text-anchor="middle" x="258.2623" y="-103.6156" font-family="Times,serif" font-size="14.00" fill="#000000">s1228</text>
<text text-anchor="middle" x="258.2623" y="-86.8156" font-family="Times,serif" font-size="14.00" fill="#000000">→ SEQ</text>
</g>
<!-- s1227&#45;&gt;s1228 -->
<g id="edge3" class="edge">
<title>s1227:p0&#45;&gt;s1228</title>
<path fill="none" stroke="#000000" d="M194.0414,-79.4156C202.6865,-79.4156 211.7022,-81.0882 220.1511,-83.466"/>
<polygon fill="#000000" stroke="#000000" points="219.1625,-86.8242 229.753,-86.5232 221.2863,-80.1542 219.1625,-86.8242"/>
</g>
<!-- s1231 -->
<g id="node6" class="node">
<title>s1231</title>
<ellipse fill="none" stroke="#000000" cx="401.1659" cy="-29.4156" rx="45.3054" ry="29.3315"/>
<text text-anchor="middle" x="401.1659" y="-33.6156" font-family="Times,serif" font-size="14.00" fill="#000000">s1231 </text>
<text text-anchor="middle" x="401.1659" y="-16.8156" font-family="Times,serif" font-size="14.00" fill="#000000">BLANK</text>
</g>
<!-- s1227&#45;&gt;s1231 -->
<g id="edge4" class="edge">
<title>s1227:p1&#45;&gt;s1231</title>
<path fill="none" stroke="#000000" d="M194.0414,-55.4156C246.6062,-55.4156 306.0946,-47.0697 347.788,-39.8349"/>
<polygon fill="#000000" stroke="#000000" points="348.489,-43.2653 357.7244,-38.0733 347.2669,-36.3728 348.489,-43.2653"/>
</g>
<!-- s1229 -->
<g id="node4" class="node">
<title>s1229</title>
<g id="a_node4"><a xlink:href="rust-grammar.json.loop_label.dot.svg" xlink:title="s1229 SYMBOL\nloop_label">
<ellipse fill="none" stroke="#000000" cx="401.1659" cy="-106.4156" rx="78.8659" ry="29.3315"/>
<text text-anchor="middle" x="401.1659" y="-110.6156" font-family="Times,serif" font-size="14.00" fill="#000000">s1229 SYMBOL</text>
<text text-anchor="middle" x="401.1659" y="-93.8156" font-family="Times,serif" font-size="14.00" fill="#000000">loop_label</text>
</a>
</g>
</g>
<!-- s1228&#45;&gt;s1229 -->
<g id="edge1" class="edge">
<title>s1228&#45;&gt;s1229</title>
<path fill="none" stroke="#000000" d="M286.4955,-100.7986C294.3207,-101.1819 303.2537,-101.6195 312.602,-102.0774"/>
<polygon fill="#000000" stroke="#000000" points="312.7167,-105.5871 322.876,-102.5807 313.0593,-98.5955 312.7167,-105.5871"/>
</g>
<!-- s1230 -->
<g id="node5" class="node">
<title>s1230</title>
<ellipse fill="none" stroke="#000000" cx="589.0273" cy="-101.4156" rx="73.3577" ry="29.3315"/>
<text text-anchor="middle" x="589.0273" y="-105.6156" font-family="Times,serif" font-size="14.00" fill="#000000">s1230 STRING</text>
<text text-anchor="middle" x="589.0273" y="-88.8156" font-family="Times,serif" font-size="14.00" fill="#000000">&quot;:&quot;</text>
</g>
<!-- s1229&#45;&gt;s1230 -->
<g id="edge2" class="edge">
<title>s1229&#45;&gt;s1230</title>
<path fill="none" stroke="#000000" d="M479.7476,-104.3242C488.3473,-104.0953 497.1234,-103.8617 505.7771,-103.6314"/>
<polygon fill="#000000" stroke="#000000" points="505.9582,-107.1279 515.8615,-103.363 505.7719,-100.1304 505.9582,-107.1279"/>
</g>
<!-- s1232 -->
<g id="node7" class="node">
<title>s1232</title>
<ellipse fill="none" stroke="#000000" cx="771.3845" cy="-67.4156" rx="73.3577" ry="29.3315"/>
<text text-anchor="middle" x="771.3845" y="-71.6156" font-family="Times,serif" font-size="14.00" fill="#000000">s1232 STRING</text>
<text text-anchor="middle" x="771.3845" y="-54.8156" font-family="Times,serif" font-size="14.00" fill="#000000">&quot;while&quot;</text>
</g>
<!-- s1230&#45;&gt;s1232 -->
<g id="edge6" class="edge">
<title>s1230&#45;&gt;s1232</title>
<path fill="none" stroke="#000000" d="M655.6365,-88.9965C668.4467,-86.6081 681.9561,-84.0893 695.0461,-81.6487"/>
<polygon fill="#000000" stroke="#000000" points="695.7668,-85.0748 704.9559,-79.8011 694.4838,-78.1933 695.7668,-85.0748"/>
</g>
<!-- s1231&#45;&gt;s1232 -->
<g id="edge7" class="edge">
<title>s1231&#45;&gt;s1232</title>
<path fill="none" stroke="#000000" d="M446.1919,-34.0372C506.6511,-40.2429 615.1234,-51.3767 690.0636,-59.0687"/>
<polygon fill="#000000" stroke="#000000" points="690.1018,-62.5909 700.407,-60.1304 690.8166,-55.6275 690.1018,-62.5909"/>
</g>
<!-- s1233 -->
<g id="node8" class="node">
<title>s1233</title>
<ellipse fill="none" stroke="#000000" cx="953.7418" cy="-67.4156" rx="73.3577" ry="29.3315"/>
<text text-anchor="middle" x="953.7418" y="-71.6156" font-family="Times,serif" font-size="14.00" fill="#000000">s1233 STRING</text>
<text text-anchor="middle" x="953.7418" y="-54.8156" font-family="Times,serif" font-size="14.00" fill="#000000">&quot;let&quot;</text>
</g>
<!-- s1232&#45;&gt;s1233 -->
<g id="edge8" class="edge">
<title>s1232&#45;&gt;s1233</title>
<path fill="none" stroke="#000000" d="M844.768,-67.4156C853.2329,-67.4156 861.9108,-67.4156 870.4942,-67.4156"/>
<polygon fill="#000000" stroke="#000000" points="870.5086,-70.9157 880.5086,-67.4156 870.5086,-63.9157 870.5086,-70.9157"/>
</g>
<!-- s1234 -->
<g id="node9" class="node">
<title>s1234</title>
<g id="a_node9"><a xlink:href="rust-grammar.json._pattern.dot.svg" xlink:title="s1234 SYMBOL\n_pattern">
<ellipse fill="none" stroke="#000000" cx="1141.6032" cy="-67.4156" rx="78.8659" ry="29.3315"/>
<text text-anchor="middle" x="1141.6032" y="-71.6156" font-family="Times,serif" font-size="14.00" fill="#000000">s1234 SYMBOL</text>
<text text-anchor="middle" x="1141.6032" y="-54.8156" font-family="Times,serif" font-size="14.00" fill="#000000">_pattern</text>
</a>
</g>
</g>
<!-- s1233&#45;&gt;s1234 -->
<g id="edge9" class="edge">
<title>s1233&#45;&gt;s1234</title>
<path fill="none" stroke="#000000" d="M1027.181,-67.4156C1035.4484,-67.4156 1043.9383,-67.4156 1052.3775,-67.4156"/>
<polygon fill="#000000" stroke="#000000" points="1052.6279,-70.9157 1062.6279,-67.4156 1052.6279,-63.9157 1052.6279,-70.9157"/>
</g>
<!-- s1235 -->
<g id="node10" class="node">
<title>s1235</title>
<ellipse fill="none" stroke="#000000" cx="1329.4645" cy="-67.4156" rx="73.3577" ry="29.3315"/>
<text text-anchor="middle" x="1329.4645" y="-71.6156" font-family="Times,serif" font-size="14.00" fill="#000000">s1235 STRING</text>
<text text-anchor="middle" x="1329.4645" y="-54.8156" font-family="Times,serif" font-size="14.00" fill="#000000">&quot;=&quot;</text>
</g>
<!-- s1234&#45;&gt;s1235 -->
<g id="edge10" class="edge">
<title>s1234&#45;&gt;s1235</title>
<path fill="none" stroke="#000000" d="M1220.4567,-67.4156C1228.8803,-67.4156 1237.4699,-67.4156 1245.945,-67.4156"/>
<polygon fill="#000000" stroke="#000000" points="1246.2073,-70.9157 1256.2072,-67.4156 1246.2072,-63.9157 1246.2073,-70.9157"/>
</g>
<!-- s1236 -->
<g id="node11" class="node">
<title>s1236</title>
<g id="a_node11"><a xlink:href="rust-grammar.json._expression.dot.svg" xlink:title="s1236 SYMBOL\n_expression">
<ellipse fill="none" stroke="#000000" cx="1517.3259" cy="-67.4156" rx="78.8659" ry="29.3315"/>
<text text-anchor="middle" x="1517.3259" y="-71.6156" font-family="Times,serif" font-size="14.00" fill="#000000">s1236 SYMBOL</text>
<text text-anchor="middle" x="1517.3259" y="-54.8156" font-family="Times,serif" font-size="14.00" fill="#000000">_expression</text>
</a>
</g>
</g>
<!-- s1235&#45;&gt;s1236 -->
<g id="edge11" class="edge">
<title>s1235&#45;&gt;s1236</title>
<path fill="none" stroke="#000000" d="M1402.9038,-67.4156C1411.1711,-67.4156 1419.661,-67.4156 1428.1002,-67.4156"/>
<polygon fill="#000000" stroke="#000000" points="1428.3507,-70.9157 1438.3506,-67.4156 1428.3506,-63.9157 1428.3507,-70.9157"/>
</g>
<!-- s1237 -->
<g id="node12" class="node">
<title>s1237</title>
<g id="a_node12"><a xlink:href="rust-grammar.json.block.dot.svg" xlink:title="s1237 SYMBOL\nblock">
<ellipse fill="none" stroke="#000000" cx="1710.6914" cy="-67.4156" rx="78.8659" ry="29.3315"/>
<text text-anchor="middle" x="1710.6914" y="-71.6156" font-family="Times,serif" font-size="14.00" fill="#000000">s1237 SYMBOL</text>
<text text-anchor="middle" x="1710.6914" y="-54.8156" font-family="Times,serif" font-size="14.00" fill="#000000">block</text>
</a>
</g>
</g>
<!-- s1236&#45;&gt;s1237 -->
<g id="edge12" class="edge">
<title>s1236&#45;&gt;s1237</title>
<path fill="none" stroke="#000000" d="M1596.2539,-67.4156C1604.5691,-67.4156 1613.0657,-67.4156 1621.4862,-67.4156"/>
<polygon fill="#000000" stroke="#000000" points="1621.7023,-70.9157 1631.7023,-67.4156 1621.7023,-63.9157 1621.7023,-70.9157"/>
</g>
</g>
</svg>
