<?xml version="1.0" encoding="UTF-8" standalone="no"?>
<!DOCTYPE svg PUBLIC "-//W3C//DTD SVG 1.1//EN"
 "http://www.w3.org/Graphics/SVG/1.1/DTD/svg11.dtd">
<!-- Generated by graphviz version 2.40.1 (20161225.0304)
 -->
<!-- Title: reference_expression Pages: 1 -->
<svg width="984pt" height="144pt"
 viewBox="0.00 0.00 983.53 143.83" xmlns="http://www.w3.org/2000/svg" xmlns:xlink="http://www.w3.org/1999/xlink">
<g id="graph0" class="graph" transform="scale(1 1) rotate(0) translate(4 139.8313)">
<title>reference_expression</title>
<polygon fill="#ffffff" stroke="transparent" points="-4,4 -4,-139.8313 979.5258,-139.8313 979.5258,4 -4,4"/>
<!-- s1023 -->
<g id="node1" class="node">
<title>s1023</title>
<polygon fill="none" stroke="#000000" points="0,-46.6156 0,-88.2156 65.0084,-88.2156 65.0084,-46.6156 0,-46.6156"/>
<text text-anchor="middle" x="32.5042" y="-71.6156" font-family="Times,serif" font-size="14.00" fill="#000000">s1023</text>
<text text-anchor="middle" x="32.5042" y="-54.8156" font-family="Times,serif" font-size="14.00" fill="#000000">→ PREC</text>
</g>
<!-- s1024 -->
<g id="node2" class="node">
<title>s1024</title>
<polygon fill="none" stroke="#000000" points="102.0084,-46.6156 102.0084,-88.2156 158.4502,-88.2156 158.4502,-46.6156 102.0084,-46.6156"/>
<text text-anchor="middle" x="130.2293" y="-71.6156" font-family="Times,serif" font-size="14.00" fill="#000000">s1024</text>
<text text-anchor="middle" x="130.2293" y="-54.8156" font-family="Times,serif" font-size="14.00" fill="#000000">→ SEQ</text>
</g>
<!-- s1023&#45;&gt;s1024 -->
<g id="edge7" class="edge">
<title>s1023&#45;&gt;s1024</title>
<path fill="none" stroke="#000000" d="M65.0452,-67.4156C73.5855,-67.4156 82.8774,-67.4156 91.6984,-67.4156"/>
<polygon fill="#000000" stroke="#000000" points="91.7642,-70.9157 101.7641,-67.4156 91.7641,-63.9157 91.7642,-70.9157"/>
</g>
<!-- s1025 -->
<g id="node3" class="node">
<title>s1025</title>
<ellipse fill="none" stroke="#000000" cx="268.6288" cy="-67.4156" rx="73.3577" ry="29.3315"/>
<text text-anchor="middle" x="268.6288" y="-71.6156" font-family="Times,serif" font-size="14.00" fill="#000000">s1025 STRING</text>
<text text-anchor="middle" x="268.6288" y="-54.8156" font-family="Times,serif" font-size="14.00" fill="#000000">&quot;&amp;&quot;</text>
</g>
<!-- s1024&#45;&gt;s1025 -->
<g id="edge1" class="edge">
<title>s1024&#45;&gt;s1025</title>
<path fill="none" stroke="#000000" d="M158.5705,-67.4156C166.6116,-67.4156 175.7996,-67.4156 185.3617,-67.4156"/>
<polygon fill="#000000" stroke="#000000" points="185.4295,-70.9157 195.4294,-67.4156 185.4294,-63.9157 185.4295,-70.9157"/>
</g>
<!-- s1026 -->
<g id="node4" class="node">
<title>s1026</title>
<polygon fill="none" stroke="#000000" points="378.8074,-42.6156 378.8074,-92.2156 480.407,-92.2156 480.407,-42.6156 378.8074,-42.6156"/>
<text text-anchor="middle" x="419.8572" y="-71.6156" font-family="Times,serif" font-size="14.00" fill="#000000">s1026</text>
<text text-anchor="middle" x="419.8572" y="-54.8156" font-family="Times,serif" font-size="14.00" fill="#000000">→ CHOICE</text>
<polyline fill="none" stroke="#000000" points="460.907,-42.6156 460.907,-92.2156 "/>
<text text-anchor="middle" x="470.657" y="-75.6156" font-family="Times,serif" font-size="14.00" fill="#000000"> </text>
<polyline fill="none" stroke="#000000" points="460.907,-67.4156 480.407,-67.4156 "/>
<text text-anchor="middle" x="470.657" y="-50.8156" font-family="Times,serif" font-size="14.00" fill="#000000"> </text>
</g>
<!-- s1025&#45;&gt;s1026 -->
<g id="edge4" class="edge">
<title>s1025&#45;&gt;s1026</title>
<path fill="none" stroke="#000000" d="M342.0519,-67.4156C350.7769,-67.4156 359.6135,-67.4156 368.1474,-67.4156"/>
<polygon fill="#000000" stroke="#000000" points="368.3789,-70.9157 378.3789,-67.4156 368.3788,-63.9157 368.3789,-70.9157"/>
</g>
<!-- s1027 -->
<g id="node5" class="node">
<title>s1027</title>
<g id="a_node5"><a xlink:href="rust-grammar.json.mutable_specifier.dot.svg" xlink:title="s1027 SYMBOL\nmutable_specifier">
<ellipse fill="none" stroke="#000000" cx="698.9296" cy="-106.4156" rx="82.4621" ry="29.3315"/>
<text text-anchor="middle" x="698.9296" y="-110.6156" font-family="Times,serif" font-size="14.00" fill="#000000">s1027 SYMBOL</text>
<text text-anchor="middle" x="698.9296" y="-93.8156" font-family="Times,serif" font-size="14.00" fill="#000000">mutable_specifier</text>
</a>
</g>
</g>
<!-- s1026&#45;&gt;s1027 -->
<g id="edge2" class="edge">
<title>s1026:p0&#45;&gt;s1027</title>
<path fill="none" stroke="#000000" d="M480.407,-79.4156C525.338,-79.4156 575.0761,-85.1074 615.7352,-91.2644"/>
<polygon fill="#000000" stroke="#000000" points="615.4498,-94.7619 625.8683,-92.8365 616.5231,-87.8447 615.4498,-94.7619"/>
<text text-anchor="middle" x="548.5529" y="-91.6156" font-family="Times,serif" font-size="14.00" fill="#000000">mutable_specifier</text>
</g>
<!-- s1028 -->
<g id="node6" class="node">
<title>s1028</title>
<ellipse fill="none" stroke="#000000" cx="698.9296" cy="-29.4156" rx="45.3054" ry="29.3315"/>
<text text-anchor="middle" x="698.9296" y="-33.6156" font-family="Times,serif" font-size="14.00" fill="#000000">s1028 </text>
<text text-anchor="middle" x="698.9296" y="-16.8156" font-family="Times,serif" font-size="14.00" fill="#000000">BLANK</text>
</g>
<!-- s1026&#45;&gt;s1028 -->
<g id="edge3" class="edge">
<title>s1026:p1&#45;&gt;s1028</title>
<path fill="none" stroke="#000000" d="M480.407,-55.4156C536.9412,-55.4156 601.1298,-46.7288 645.2354,-39.3975"/>
<polygon fill="#000000" stroke="#000000" points="645.8895,-42.8366 655.1635,-37.7137 644.719,-35.9352 645.8895,-42.8366"/>
</g>
<!-- s1029 -->
<g id="node7" class="node">
<title>s1029</title>
<g id="a_node7"><a xlink:href="rust-grammar.json._expression.dot.svg" xlink:title="s1029 SYMBOL\n_expression">
<ellipse fill="none" stroke="#000000" cx="896.843" cy="-67.4156" rx="78.8659" ry="29.3315"/>
<text text-anchor="middle" x="896.843" y="-71.6156" font-family="Times,serif" font-size="14.00" fill="#000000">s1029 SYMBOL</text>
<text text-anchor="middle" x="896.843" y="-54.8156" font-family="Times,serif" font-size="14.00" fill="#000000">_expression</text>
</a>
</g>
</g>
<!-- s1027&#45;&gt;s1029 -->
<g id="edge5" class="edge">
<title>s1027&#45;&gt;s1029</title>
<path fill="none" stroke="#000000" d="M771.221,-92.1702C786.1669,-89.225 801.9898,-86.107 817.1816,-83.1134"/>
<polygon fill="#000000" stroke="#000000" points="817.9234,-86.5346 827.058,-81.1672 816.57,-79.6667 817.9234,-86.5346"/>
</g>
<!-- s1028&#45;&gt;s1029 -->
<g id="edge6" class="edge">
<title>s1028&#45;&gt;s1029</title>
<path fill="none" stroke="#000000" d="M742.853,-37.8491C764.5686,-42.0185 791.4686,-47.1834 816.6792,-52.0239"/>
<polygon fill="#000000" stroke="#000000" points="816.1328,-55.4829 826.6134,-53.9313 817.4528,-48.6085 816.1328,-55.4829"/>
</g>
</g>
</svg>
