<?xml version="1.0" encoding="UTF-8" standalone="no"?>
<!DOCTYPE svg PUBLIC "-//W3C//DTD SVG 1.1//EN"
 "http://www.w3.org/Graphics/SVG/1.1/DTD/svg11.dtd">
<!-- Generated by graphviz version 2.40.1 (20161225.0304)
 -->
<!-- Title: trait_item Pages: 1 -->
<svg width="2618pt" height="165pt"
 viewBox="0.00 0.00 2617.62 164.83" xmlns="http://www.w3.org/2000/svg" xmlns:xlink="http://www.w3.org/1999/xlink">
<g id="graph0" class="graph" transform="scale(1 1) rotate(0) translate(4 160.8313)">
<title>trait_item</title>
<polygon fill="#ffffff" stroke="transparent" points="-4,4 -4,-160.8313 2613.6157,-160.8313 2613.6157,4 -4,4"/>
<!-- s555 -->
<g id="node1" class="node">
<title>s555</title>
<polygon fill="none" stroke="#000000" points="0,-46.6156 0,-88.2156 56.4418,-88.2156 56.4418,-46.6156 0,-46.6156"/>
<text text-anchor="middle" x="28.2209" y="-71.6156" font-family="Times,serif" font-size="14.00" fill="#000000">s555</text>
<text text-anchor="middle" x="28.2209" y="-54.8156" font-family="Times,serif" font-size="14.00" fill="#000000">→ SEQ</text>
</g>
<!-- s556 -->
<g id="node2" class="node">
<title>s556</title>
<polygon fill="none" stroke="#000000" points="93.4418,-42.6156 93.4418,-92.2156 195.0414,-92.2156 195.0414,-42.6156 93.4418,-42.6156"/>
<text text-anchor="middle" x="134.4916" y="-71.6156" font-family="Times,serif" font-size="14.00" fill="#000000">s556</text>
<text text-anchor="middle" x="134.4916" y="-54.8156" font-family="Times,serif" font-size="14.00" fill="#000000">→ CHOICE</text>
<polyline fill="none" stroke="#000000" points="175.5414,-42.6156 175.5414,-92.2156 "/>
<text text-anchor="middle" x="185.2914" y="-75.6156" font-family="Times,serif" font-size="14.00" fill="#000000"> </text>
<polyline fill="none" stroke="#000000" points="175.5414,-67.4156 195.0414,-67.4156 "/>
<text text-anchor="middle" x="185.2914" y="-50.8156" font-family="Times,serif" font-size="14.00" fill="#000000"> </text>
</g>
<!-- s555&#45;&gt;s556 -->
<g id="edge3" class="edge">
<title>s555&#45;&gt;s556</title>
<path fill="none" stroke="#000000" d="M56.6028,-67.4156C64.6824,-67.4156 73.8102,-67.4156 83.0459,-67.4156"/>
<polygon fill="#000000" stroke="#000000" points="83.0657,-70.9157 93.0657,-67.4156 83.0656,-63.9157 83.0657,-70.9157"/>
</g>
<!-- s557 -->
<g id="node3" class="node">
<title>s557</title>
<g id="a_node3"><a xlink:href="rust-grammar.json.visibility_modifier.dot.svg" xlink:title="s557 SYMBOL\nvisibility_modifier">
<ellipse fill="none" stroke="#000000" cx="421.5942" cy="-106.4156" rx="85.6139" ry="29.3315"/>
<text text-anchor="middle" x="421.5942" y="-110.6156" font-family="Times,serif" font-size="14.00" fill="#000000">s557 SYMBOL</text>
<text text-anchor="middle" x="421.5942" y="-93.8156" font-family="Times,serif" font-size="14.00" fill="#000000">visibility_modifier</text>
</a>
</g>
</g>
<!-- s556&#45;&gt;s557 -->
<g id="edge1" class="edge">
<title>s556:p0&#45;&gt;s557</title>
<path fill="none" stroke="#000000" d="M195.0414,-79.4156C241.7047,-79.4156 293.3969,-85.1333 335.6079,-91.3063"/>
<polygon fill="#000000" stroke="#000000" points="335.1618,-94.7784 345.5697,-92.797 336.1978,-87.8555 335.1618,-94.7784"/>
<text text-anchor="middle" x="265.5393" y="-91.6156" font-family="Times,serif" font-size="14.00" fill="#000000">visibility_modifier</text>
</g>
<!-- s558 -->
<g id="node4" class="node">
<title>s558</title>
<ellipse fill="none" stroke="#000000" cx="421.5942" cy="-29.4156" rx="45.3054" ry="29.3315"/>
<text text-anchor="middle" x="421.5942" y="-33.6156" font-family="Times,serif" font-size="14.00" fill="#000000">s558 </text>
<text text-anchor="middle" x="421.5942" y="-16.8156" font-family="Times,serif" font-size="14.00" fill="#000000">BLANK</text>
</g>
<!-- s556&#45;&gt;s558 -->
<g id="edge2" class="edge">
<title>s556:p1&#45;&gt;s558</title>
<path fill="none" stroke="#000000" d="M195.0414,-55.4156C254.3,-55.4156 321.7121,-46.5273 367.4852,-39.1445"/>
<polygon fill="#000000" stroke="#000000" points="368.187,-42.5761 377.4865,-37.4997 367.051,-35.6689 368.187,-42.5761"/>
</g>
<!-- s559 -->
<g id="node5" class="node">
<title>s559</title>
<polygon fill="none" stroke="#000000" points="544.1511,-49.6156 544.1511,-99.2156 645.7507,-99.2156 645.7507,-49.6156 544.1511,-49.6156"/>
<text text-anchor="middle" x="585.2009" y="-78.6156" font-family="Times,serif" font-size="14.00" fill="#000000">s559</text>
<text text-anchor="middle" x="585.2009" y="-61.8156" font-family="Times,serif" font-size="14.00" fill="#000000">→ CHOICE</text>
<polyline fill="none" stroke="#000000" points="626.2507,-49.6156 626.2507,-99.2156 "/>
<text text-anchor="middle" x="636.0007" y="-82.6156" font-family="Times,serif" font-size="14.00" fill="#000000"> </text>
<polyline fill="none" stroke="#000000" points="626.2507,-74.4156 645.7507,-74.4156 "/>
<text text-anchor="middle" x="636.0007" y="-57.8156" font-family="Times,serif" font-size="14.00" fill="#000000"> </text>
</g>
<!-- s557&#45;&gt;s559 -->
<g id="edge6" class="edge">
<title>s557&#45;&gt;s559</title>
<path fill="none" stroke="#000000" d="M497.1266,-92.4731C509.5299,-90.1835 522.2428,-87.8369 534.2265,-85.6248"/>
<polygon fill="#000000" stroke="#000000" points="534.9,-89.0597 544.0985,-83.8025 533.6293,-82.176 534.9,-89.0597"/>
</g>
<!-- s558&#45;&gt;s559 -->
<g id="edge7" class="edge">
<title>s558&#45;&gt;s559</title>
<path fill="none" stroke="#000000" d="M464.002,-40.4239C485.1397,-45.9108 511.0789,-52.6441 534.2788,-58.6664"/>
<polygon fill="#000000" stroke="#000000" points="533.4733,-62.0732 544.0319,-61.1981 535.2321,-55.2977 533.4733,-62.0732"/>
</g>
<!-- s560 -->
<g id="node6" class="node">
<title>s560</title>
<ellipse fill="none" stroke="#000000" cx="786.514" cy="-113.4156" rx="68.4585" ry="29.3315"/>
<text text-anchor="middle" x="786.514" y="-117.6156" font-family="Times,serif" font-size="14.00" fill="#000000">s560 STRING</text>
<text text-anchor="middle" x="786.514" y="-100.8156" font-family="Times,serif" font-size="14.00" fill="#000000">&quot;unsafe&quot;</text>
</g>
<!-- s559&#45;&gt;s560 -->
<g id="edge4" class="edge">
<title>s559:p0&#45;&gt;s560</title>
<path fill="none" stroke="#000000" d="M645.7507,-86.4156C669.9194,-86.4156 696.011,-90.3022 719.0876,-95.1261"/>
<polygon fill="#000000" stroke="#000000" points="718.6013,-98.6025 729.1182,-97.3197 720.0969,-91.7641 718.6013,-98.6025"/>
<text text-anchor="middle" x="682.0179" y="-94.6156" font-family="Times,serif" font-size="14.00" fill="#000000">unsafe</text>
</g>
<!-- s561 -->
<g id="node7" class="node">
<title>s561</title>
<ellipse fill="none" stroke="#000000" cx="786.514" cy="-36.4156" rx="45.3054" ry="29.3315"/>
<text text-anchor="middle" x="786.514" y="-40.6156" font-family="Times,serif" font-size="14.00" fill="#000000">s561 </text>
<text text-anchor="middle" x="786.514" y="-23.8156" font-family="Times,serif" font-size="14.00" fill="#000000">BLANK</text>
</g>
<!-- s559&#45;&gt;s561 -->
<g id="edge5" class="edge">
<title>s559:p1&#45;&gt;s561</title>
<path fill="none" stroke="#000000" d="M645.7507,-62.4156C675.6098,-62.4156 708.4479,-56.6884 734.8914,-50.61"/>
<polygon fill="#000000" stroke="#000000" points="735.7771,-53.997 744.6935,-48.2744 734.1546,-47.1876 735.7771,-53.997"/>
</g>
<!-- s562 -->
<g id="node8" class="node">
<title>s562</title>
<ellipse fill="none" stroke="#000000" cx="959.9717" cy="-74.4156" rx="68.4585" ry="29.3315"/>
<text text-anchor="middle" x="959.9717" y="-78.6156" font-family="Times,serif" font-size="14.00" fill="#000000">s562 STRING</text>
<text text-anchor="middle" x="959.9717" y="-61.8156" font-family="Times,serif" font-size="14.00" fill="#000000">&quot;trait&quot;</text>
</g>
<!-- s560&#45;&gt;s562 -->
<g id="edge8" class="edge">
<title>s560&#45;&gt;s562</title>
<path fill="none" stroke="#000000" d="M847.1811,-99.7753C860.7814,-96.7175 875.3243,-93.4477 889.2918,-90.3072"/>
<polygon fill="#000000" stroke="#000000" points="890.3502,-93.6567 899.3389,-88.0482 888.8146,-86.8272 890.3502,-93.6567"/>
</g>
<!-- s561&#45;&gt;s562 -->
<g id="edge9" class="edge">
<title>s561&#45;&gt;s562</title>
<path fill="none" stroke="#000000" d="M829.8372,-45.9066C847.6925,-49.8182 868.8548,-54.4543 888.8689,-58.8389"/>
<polygon fill="#000000" stroke="#000000" points="888.3759,-62.3138 898.8933,-61.035 889.8739,-55.476 888.3759,-62.3138"/>
</g>
<!-- s563 -->
<g id="node9" class="node">
<title>s563</title>
<g id="a_node9"><a xlink:href="rust-grammar.json._type_identifier.dot.svg" xlink:title="s563 SYMBOL\n_type_identifier">
<ellipse fill="none" stroke="#000000" cx="1139.7424" cy="-74.4156" rx="74.5836" ry="29.3315"/>
<text text-anchor="middle" x="1139.7424" y="-78.6156" font-family="Times,serif" font-size="14.00" fill="#000000">s563 SYMBOL</text>
<text text-anchor="middle" x="1139.7424" y="-61.8156" font-family="Times,serif" font-size="14.00" fill="#000000">_type_identifier</text>
</a>
</g>
</g>
<!-- s562&#45;&gt;s563 -->
<g id="edge10" class="edge">
<title>s562&#45;&gt;s563</title>
<path fill="none" stroke="#000000" d="M1028.4481,-74.4156C1037.1714,-74.4156 1046.1803,-74.4156 1055.1195,-74.4156"/>
<polygon fill="#000000" stroke="#000000" points="1055.1637,-77.9157 1065.1637,-74.4156 1055.1637,-70.9157 1055.1637,-77.9157"/>
</g>
<!-- s564 -->
<g id="node10" class="node">
<title>s564</title>
<polygon fill="none" stroke="#000000" points="1251.2842,-49.6156 1251.2842,-99.2156 1352.8838,-99.2156 1352.8838,-49.6156 1251.2842,-49.6156"/>
<text text-anchor="middle" x="1292.334" y="-78.6156" font-family="Times,serif" font-size="14.00" fill="#000000">s564</text>
<text text-anchor="middle" x="1292.334" y="-61.8156" font-family="Times,serif" font-size="14.00" fill="#000000">→ CHOICE</text>
<polyline fill="none" stroke="#000000" points="1333.3838,-49.6156 1333.3838,-99.2156 "/>
<text text-anchor="middle" x="1343.1338" y="-82.6156" font-family="Times,serif" font-size="14.00" fill="#000000"> </text>
<polyline fill="none" stroke="#000000" points="1333.3838,-74.4156 1352.8838,-74.4156 "/>
<text text-anchor="middle" x="1343.1338" y="-57.8156" font-family="Times,serif" font-size="14.00" fill="#000000"> </text>
</g>
<!-- s563&#45;&gt;s564 -->
<g id="edge13" class="edge">
<title>s563&#45;&gt;s564</title>
<path fill="none" stroke="#000000" d="M1214.7356,-74.4156C1223.477,-74.4156 1232.3146,-74.4156 1240.8396,-74.4156"/>
<polygon fill="#000000" stroke="#000000" points="1241.0557,-77.9157 1251.0557,-74.4156 1241.0557,-70.9157 1241.0557,-77.9157"/>
</g>
<!-- s565 -->
<g id="node11" class="node">
<title>s565</title>
<g id="a_node11"><a xlink:href="rust-grammar.json.type_parameters.dot.svg" xlink:title="s565 SYMBOL\ntype_parameters">
<ellipse fill="none" stroke="#000000" cx="1558.1229" cy="-113.4156" rx="76.9578" ry="29.3315"/>
<text text-anchor="middle" x="1558.1229" y="-117.6156" font-family="Times,serif" font-size="14.00" fill="#000000">s565 SYMBOL</text>
<text text-anchor="middle" x="1558.1229" y="-100.8156" font-family="Times,serif" font-size="14.00" fill="#000000">type_parameters</text>
</a>
</g>
</g>
<!-- s564&#45;&gt;s565 -->
<g id="edge11" class="edge">
<title>s564:p0&#45;&gt;s565</title>
<path fill="none" stroke="#000000" d="M1352.8838,-86.4156C1394.9469,-86.4156 1441.4482,-92.0593 1479.5372,-98.1861"/>
<polygon fill="#000000" stroke="#000000" points="1479.1011,-101.6614 1489.5376,-99.8365 1480.241,-94.7549 1479.1011,-101.6614"/>
<text text-anchor="middle" x="1417.1391" y="-98.6156" font-family="Times,serif" font-size="14.00" fill="#000000">type_parameters</text>
</g>
<!-- s566 -->
<g id="node12" class="node">
<title>s566</title>
<ellipse fill="none" stroke="#000000" cx="1558.1229" cy="-36.4156" rx="45.3054" ry="29.3315"/>
<text text-anchor="middle" x="1558.1229" y="-40.6156" font-family="Times,serif" font-size="14.00" fill="#000000">s566 </text>
<text text-anchor="middle" x="1558.1229" y="-23.8156" font-family="Times,serif" font-size="14.00" fill="#000000">BLANK</text>
</g>
<!-- s564&#45;&gt;s566 -->
<g id="edge12" class="edge">
<title>s564:p1&#45;&gt;s566</title>
<path fill="none" stroke="#000000" d="M1352.8838,-62.4156C1404.8116,-62.4156 1463.548,-54.1228 1504.8398,-46.904"/>
<polygon fill="#000000" stroke="#000000" points="1505.4556,-50.3495 1514.6843,-45.1456 1504.2246,-43.4586 1505.4556,-50.3495"/>
</g>
<!-- s567 -->
<g id="node13" class="node">
<title>s567</title>
<polygon fill="none" stroke="#000000" points="1671.8515,-56.6156 1671.8515,-106.2156 1773.4511,-106.2156 1773.4511,-56.6156 1671.8515,-56.6156"/>
<text text-anchor="middle" x="1712.9013" y="-85.6156" font-family="Times,serif" font-size="14.00" fill="#000000">s567</text>
<text text-anchor="middle" x="1712.9013" y="-68.8156" font-family="Times,serif" font-size="14.00" fill="#000000">→ CHOICE</text>
<polyline fill="none" stroke="#000000" points="1753.9511,-56.6156 1753.9511,-106.2156 "/>
<text text-anchor="middle" x="1763.7011" y="-89.6156" font-family="Times,serif" font-size="14.00" fill="#000000"> </text>
<polyline fill="none" stroke="#000000" points="1753.9511,-81.4156 1773.4511,-81.4156 "/>
<text text-anchor="middle" x="1763.7011" y="-64.8156" font-family="Times,serif" font-size="14.00" fill="#000000"> </text>
</g>
<!-- s565&#45;&gt;s567 -->
<g id="edge16" class="edge">
<title>s565&#45;&gt;s567</title>
<path fill="none" stroke="#000000" d="M1626.9445,-100.0302C1638.4056,-97.801 1650.2246,-95.5023 1661.4787,-93.3134"/>
<polygon fill="#000000" stroke="#000000" points="1662.4811,-96.6841 1671.6289,-91.3393 1661.1446,-89.8129 1662.4811,-96.6841"/>
</g>
<!-- s566&#45;&gt;s567 -->
<g id="edge17" class="edge">
<title>s566&#45;&gt;s567</title>
<path fill="none" stroke="#000000" d="M1600.0661,-47.8875C1618.8024,-53.012 1641.2461,-59.1506 1661.779,-64.7665"/>
<polygon fill="#000000" stroke="#000000" points="1661.1116,-68.2125 1671.6808,-67.4747 1662.9584,-61.4605 1661.1116,-68.2125"/>
</g>
<!-- s568 -->
<g id="node14" class="node">
<title>s568</title>
<g id="a_node14"><a xlink:href="rust-grammar.json.trait_bounds.dot.svg" xlink:title="s568 SYMBOL\ntrait_bounds">
<ellipse fill="none" stroke="#000000" cx="1953.1757" cy="-120.4156" rx="73.9667" ry="29.3315"/>
<text text-anchor="middle" x="1953.1757" y="-124.6156" font-family="Times,serif" font-size="14.00" fill="#000000">s568 SYMBOL</text>
<text text-anchor="middle" x="1953.1757" y="-107.8156" font-family="Times,serif" font-size="14.00" fill="#000000">trait_bounds</text>
</a>
</g>
</g>
<!-- s567&#45;&gt;s568 -->
<g id="edge14" class="edge">
<title>s567:p0&#45;&gt;s568</title>
<path fill="none" stroke="#000000" d="M1773.4511,-93.4156C1808.1858,-93.4156 1846.2817,-98.4085 1878.4249,-104.1001"/>
<polygon fill="#000000" stroke="#000000" points="1878.1737,-107.6121 1888.64,-105.9671 1879.4323,-100.7261 1878.1737,-107.6121"/>
<text text-anchor="middle" x="1826.4469" y="-104.6156" font-family="Times,serif" font-size="14.00" fill="#000000">trait_bounds</text>
</g>
<!-- s569 -->
<g id="node15" class="node">
<title>s569</title>
<ellipse fill="none" stroke="#000000" cx="1953.1757" cy="-43.4156" rx="45.3054" ry="29.3315"/>
<text text-anchor="middle" x="1953.1757" y="-47.6156" font-family="Times,serif" font-size="14.00" fill="#000000">s569 </text>
<text text-anchor="middle" x="1953.1757" y="-30.8156" font-family="Times,serif" font-size="14.00" fill="#000000">BLANK</text>
</g>
<!-- s567&#45;&gt;s569 -->
<g id="edge15" class="edge">
<title>s567:p1&#45;&gt;s569</title>
<path fill="none" stroke="#000000" d="M1773.4511,-69.4156C1816.3494,-69.4156 1864.4194,-62.0704 1900.0442,-55.1881"/>
<polygon fill="#000000" stroke="#000000" points="1901.0854,-58.5499 1910.2133,-53.1711 1899.7234,-51.6836 1901.0854,-58.5499"/>
</g>
<!-- s570 -->
<g id="node16" class="node">
<title>s570</title>
<polygon fill="none" stroke="#000000" points="2063.9087,-63.6156 2063.9087,-113.2156 2165.5083,-113.2156 2165.5083,-63.6156 2063.9087,-63.6156"/>
<text text-anchor="middle" x="2104.9585" y="-92.6156" font-family="Times,serif" font-size="14.00" fill="#000000">s570</text>
<text text-anchor="middle" x="2104.9585" y="-75.8156" font-family="Times,serif" font-size="14.00" fill="#000000">→ CHOICE</text>
<polyline fill="none" stroke="#000000" points="2146.0083,-63.6156 2146.0083,-113.2156 "/>
<text text-anchor="middle" x="2155.7583" y="-96.6156" font-family="Times,serif" font-size="14.00" fill="#000000"> </text>
<polyline fill="none" stroke="#000000" points="2146.0083,-88.4156 2165.5083,-88.4156 "/>
<text text-anchor="middle" x="2155.7583" y="-71.8156" font-family="Times,serif" font-size="14.00" fill="#000000"> </text>
</g>
<!-- s568&#45;&gt;s570 -->
<g id="edge20" class="edge">
<title>s568&#45;&gt;s570</title>
<path fill="none" stroke="#000000" d="M2019.3434,-107.3077C2030.6836,-105.0612 2042.421,-102.736 2053.6209,-100.5172"/>
<polygon fill="#000000" stroke="#000000" points="2054.5993,-103.8915 2063.7285,-98.5149 2053.2389,-97.025 2054.5993,-103.8915"/>
</g>
<!-- s569&#45;&gt;s570 -->
<g id="edge21" class="edge">
<title>s569&#45;&gt;s570</title>
<path fill="none" stroke="#000000" d="M1995.1949,-55.1214C2013.1079,-60.1116 2034.3534,-66.0302 2053.9277,-71.4832"/>
<polygon fill="#000000" stroke="#000000" points="2053.1092,-74.8884 2063.6817,-74.2005 2054.9878,-68.1452 2053.1092,-74.8884"/>
</g>
<!-- s571 -->
<g id="node17" class="node">
<title>s571</title>
<g id="a_node17"><a xlink:href="rust-grammar.json.where_clause.dot.svg" xlink:title="s571 SYMBOL\nwhere_clause">
<ellipse fill="none" stroke="#000000" cx="2351.4167" cy="-127.4156" rx="73.9667" ry="29.3315"/>
<text text-anchor="middle" x="2351.4167" y="-131.6156" font-family="Times,serif" font-size="14.00" fill="#000000">s571 SYMBOL</text>
<text text-anchor="middle" x="2351.4167" y="-114.8156" font-family="Times,serif" font-size="14.00" fill="#000000">where_clause</text>
</a>
</g>
</g>
<!-- s570&#45;&gt;s571 -->
<g id="edge18" class="edge">
<title>s570:p0&#45;&gt;s571</title>
<path fill="none" stroke="#000000" d="M2165.5083,-100.4156C2202.1587,-100.4156 2242.4554,-105.6183 2276.1349,-111.456"/>
<polygon fill="#000000" stroke="#000000" points="2275.9037,-114.97 2286.3634,-113.283 2277.1347,-108.0791 2275.9037,-114.97"/>
<text text-anchor="middle" x="2221.596" y="-111.6156" font-family="Times,serif" font-size="14.00" fill="#000000">where_clause</text>
</g>
<!-- s572 -->
<g id="node18" class="node">
<title>s572</title>
<ellipse fill="none" stroke="#000000" cx="2351.4167" cy="-50.4156" rx="45.3054" ry="29.3315"/>
<text text-anchor="middle" x="2351.4167" y="-54.6156" font-family="Times,serif" font-size="14.00" fill="#000000">s572 </text>
<text text-anchor="middle" x="2351.4167" y="-37.8156" font-family="Times,serif" font-size="14.00" fill="#000000">BLANK</text>
</g>
<!-- s570&#45;&gt;s572 -->
<g id="edge19" class="edge">
<title>s570:p1&#45;&gt;s572</title>
<path fill="none" stroke="#000000" d="M2165.5083,-76.4156C2210.49,-76.4156 2261.0087,-68.8578 2298.0183,-61.8918"/>
<polygon fill="#000000" stroke="#000000" points="2298.9272,-65.281 2308.0828,-59.9494 2297.6007,-58.4078 2298.9272,-65.281"/>
</g>
<!-- s573 -->
<g id="node19" class="node">
<title>s573</title>
<g id="a_node19"><a xlink:href="rust-grammar.json.declaration_list.dot.svg" xlink:title="s573 SYMBOL\ndeclaration_list">
<ellipse fill="none" stroke="#000000" cx="2535.8827" cy="-88.4156" rx="73.9667" ry="29.3315"/>
<text text-anchor="middle" x="2535.8827" y="-92.6156" font-family="Times,serif" font-size="14.00" fill="#000000">s573 SYMBOL</text>
<text text-anchor="middle" x="2535.8827" y="-75.8156" font-family="Times,serif" font-size="14.00" fill="#000000">declaration_list</text>
</a>
</g>
</g>
<!-- s571&#45;&gt;s573 -->
<g id="edge22" class="edge">
<title>s571&#45;&gt;s573</title>
<path fill="none" stroke="#000000" d="M2416.7121,-113.6108C2430.9436,-110.602 2446.1129,-107.3949 2460.6936,-104.3122"/>
<polygon fill="#000000" stroke="#000000" points="2461.6153,-107.6948 2470.675,-102.2019 2460.1673,-100.8462 2461.6153,-107.6948"/>
</g>
<!-- s572&#45;&gt;s573 -->
<g id="edge23" class="edge">
<title>s572&#45;&gt;s573</title>
<path fill="none" stroke="#000000" d="M2395.1326,-59.4211C2414.5347,-63.418 2437.9412,-68.2397 2460.0488,-72.7939"/>
<polygon fill="#000000" stroke="#000000" points="2459.5954,-76.2739 2470.0959,-74.8636 2461.0078,-69.4178 2459.5954,-76.2739"/>
</g>
</g>
</svg>
