<?xml version="1.0" encoding="UTF-8" standalone="no"?>
<!DOCTYPE svg PUBLIC "-//W3C//DTD SVG 1.1//EN"
 "http://www.w3.org/Graphics/SVG/1.1/DTD/svg11.dtd">
<!-- Generated by graphviz version 2.40.1 (20161225.0304)
 -->
<!-- Title: tuple_expression Pages: 1 -->
<svg width="1892pt" height="150pt"
 viewBox="0.00 0.00 1892.20 149.83" xmlns="http://www.w3.org/2000/svg" xmlns:xlink="http://www.w3.org/1999/xlink">
<g id="graph0" class="graph" transform="scale(1 1) rotate(0) translate(4 145.8313)">
<title>tuple_expression</title>
<polygon fill="#ffffff" stroke="transparent" points="-4,4 -4,-145.8313 1888.2036,-145.8313 1888.2036,4 -4,4"/>
<!-- s1095 -->
<g id="node1" class="node">
<title>s1095</title>
<polygon fill="none" stroke="#000000" points="0,-46.6156 0,-88.2156 56.4418,-88.2156 56.4418,-46.6156 0,-46.6156"/>
<text text-anchor="middle" x="28.2209" y="-71.6156" font-family="Times,serif" font-size="14.00" fill="#000000">s1095</text>
<text text-anchor="middle" x="28.2209" y="-54.8156" font-family="Times,serif" font-size="14.00" fill="#000000">→ SEQ</text>
</g>
<!-- s1096 -->
<g id="node2" class="node">
<title>s1096</title>
<ellipse fill="none" stroke="#000000" cx="166.6204" cy="-67.4156" rx="73.3577" ry="29.3315"/>
<text text-anchor="middle" x="166.6204" y="-71.6156" font-family="Times,serif" font-size="14.00" fill="#000000">s1096 STRING</text>
<text text-anchor="middle" x="166.6204" y="-54.8156" font-family="Times,serif" font-size="14.00" fill="#000000">&quot;(&quot;</text>
</g>
<!-- s1095&#45;&gt;s1096 -->
<g id="edge1" class="edge">
<title>s1095&#45;&gt;s1096</title>
<path fill="none" stroke="#000000" d="M56.5621,-67.4156C64.6032,-67.4156 73.7912,-67.4156 83.3533,-67.4156"/>
<polygon fill="#000000" stroke="#000000" points="83.4211,-70.9157 93.421,-67.4156 83.421,-63.9157 83.4211,-70.9157"/>
</g>
<!-- s1097 -->
<g id="node3" class="node">
<title>s1097</title>
<polygon fill="none" stroke="#000000" points="276.799,-46.6156 276.799,-88.2156 333.2408,-88.2156 333.2408,-46.6156 276.799,-46.6156"/>
<text text-anchor="middle" x="305.0199" y="-71.6156" font-family="Times,serif" font-size="14.00" fill="#000000">s1097</text>
<text text-anchor="middle" x="305.0199" y="-54.8156" font-family="Times,serif" font-size="14.00" fill="#000000">→ SEQ</text>
</g>
<!-- s1096&#45;&gt;s1097 -->
<g id="edge4" class="edge">
<title>s1096&#45;&gt;s1097</title>
<path fill="none" stroke="#000000" d="M239.8728,-67.4156C249.082,-67.4156 258.1951,-67.4156 266.5568,-67.4156"/>
<polygon fill="#000000" stroke="#000000" points="266.6971,-70.9157 276.6971,-67.4156 266.697,-63.9157 266.6971,-70.9157"/>
</g>
<!-- s1098 -->
<g id="node4" class="node">
<title>s1098</title>
<g id="a_node4"><a xlink:href="rust-grammar.json._expression.dot.svg" xlink:title="s1098 SYMBOL\n_expression">
<ellipse fill="none" stroke="#000000" cx="448.9236" cy="-67.4156" rx="78.8659" ry="29.3315"/>
<text text-anchor="middle" x="448.9236" y="-71.6156" font-family="Times,serif" font-size="14.00" fill="#000000">s1098 SYMBOL</text>
<text text-anchor="middle" x="448.9236" y="-54.8156" font-family="Times,serif" font-size="14.00" fill="#000000">_expression</text>
</a>
</g>
</g>
<!-- s1097&#45;&gt;s1098 -->
<g id="edge2" class="edge">
<title>s1097&#45;&gt;s1098</title>
<path fill="none" stroke="#000000" d="M333.4507,-67.4156C341.4145,-67.4156 350.5177,-67.4156 360.0404,-67.4156"/>
<polygon fill="#000000" stroke="#000000" points="360.0858,-70.9157 370.0858,-67.4156 360.0858,-63.9157 360.0858,-70.9157"/>
</g>
<!-- s1099 -->
<g id="node5" class="node">
<title>s1099</title>
<ellipse fill="none" stroke="#000000" cx="637.7849" cy="-67.4156" rx="73.3577" ry="29.3315"/>
<text text-anchor="middle" x="637.7849" y="-71.6156" font-family="Times,serif" font-size="14.00" fill="#000000">s1099 STRING</text>
<text text-anchor="middle" x="637.7849" y="-54.8156" font-family="Times,serif" font-size="14.00" fill="#000000">&quot;,&quot;</text>
</g>
<!-- s1098&#45;&gt;s1099 -->
<g id="edge3" class="edge">
<title>s1098&#45;&gt;s1099</title>
<path fill="none" stroke="#000000" d="M527.6502,-67.4156C536.3799,-67.4156 545.2938,-67.4156 554.0821,-67.4156"/>
<polygon fill="#000000" stroke="#000000" points="554.3227,-70.9157 564.3226,-67.4156 554.3226,-63.9157 554.3227,-70.9157"/>
</g>
<!-- s1100 -->
<g id="node6" class="node">
<title>s1100</title>
<polygon fill="none" stroke="#000000" points="747.9636,-46.6156 747.9636,-88.2156 830.8472,-88.2156 830.8472,-46.6156 747.9636,-46.6156"/>
<text text-anchor="middle" x="789.4054" y="-71.6156" font-family="Times,serif" font-size="14.00" fill="#000000">s1100</text>
<text text-anchor="middle" x="789.4054" y="-54.8156" font-family="Times,serif" font-size="14.00" fill="#000000">→ REPEAT</text>
</g>
<!-- s1099&#45;&gt;s1100 -->
<g id="edge9" class="edge">
<title>s1099&#45;&gt;s1100</title>
<path fill="none" stroke="#000000" d="M711.3744,-67.4156C720.2788,-67.4156 729.224,-67.4156 737.7182,-67.4156"/>
<polygon fill="#000000" stroke="#000000" points="737.8225,-70.9157 747.8225,-67.4156 737.8224,-63.9157 737.8225,-70.9157"/>
</g>
<!-- s1101 -->
<g id="node7" class="node">
<title>s1101</title>
<polygon fill="none" stroke="#000000" points="867.8472,-87.6156 867.8472,-129.2156 924.289,-129.2156 924.289,-87.6156 867.8472,-87.6156"/>
<text text-anchor="middle" x="896.0681" y="-112.6156" font-family="Times,serif" font-size="14.00" fill="#000000">s1101</text>
<text text-anchor="middle" x="896.0681" y="-95.8156" font-family="Times,serif" font-size="14.00" fill="#000000">→ SEQ</text>
</g>
<!-- s1100&#45;&gt;s1101 -->
<g id="edge7" class="edge">
<title>s1100&#45;&gt;s1101</title>
<path fill="none" stroke="#000000" d="M830.9494,-83.3847C839.8743,-86.8154 849.2629,-90.4242 858.0462,-93.8004"/>
<polygon fill="#000000" stroke="#000000" points="857.0586,-97.1704 867.6486,-97.4915 859.5702,-90.6365 857.0586,-97.1704"/>
</g>
<!-- s1102 -->
<g id="node8" class="node">
<title>s1102</title>
<g id="a_node8"><a xlink:href="rust-grammar.json._expression.dot.svg" xlink:title="s1102 SYMBOL\n_expression">
<ellipse fill="none" stroke="#000000" cx="1039.9717" cy="-112.4156" rx="78.8659" ry="29.3315"/>
<text text-anchor="middle" x="1039.9717" y="-116.6156" font-family="Times,serif" font-size="14.00" fill="#000000">s1102 SYMBOL</text>
<text text-anchor="middle" x="1039.9717" y="-99.8156" font-family="Times,serif" font-size="14.00" fill="#000000">_expression</text>
</a>
</g>
</g>
<!-- s1101&#45;&gt;s1102 -->
<g id="edge5" class="edge">
<title>s1101&#45;&gt;s1102</title>
<path fill="none" stroke="#000000" d="M924.4988,-109.2059C932.5234,-109.429 941.7049,-109.6842 951.3067,-109.9511"/>
<polygon fill="#000000" stroke="#000000" points="951.3407,-113.4533 961.4341,-110.2326 951.5353,-106.456 951.3407,-113.4533"/>
</g>
<!-- s1103 -->
<g id="node9" class="node">
<title>s1103</title>
<ellipse fill="none" stroke="#000000" cx="1228.8331" cy="-67.4156" rx="73.3577" ry="29.3315"/>
<text text-anchor="middle" x="1228.8331" y="-71.6156" font-family="Times,serif" font-size="14.00" fill="#000000">s1103 STRING</text>
<text text-anchor="middle" x="1228.8331" y="-54.8156" font-family="Times,serif" font-size="14.00" fill="#000000">&quot;,&quot;</text>
</g>
<!-- s1102&#45;&gt;s1103 -->
<g id="edge6" class="edge">
<title>s1102&#45;&gt;s1103</title>
<path fill="none" stroke="#000000" d="M1106.5572,-96.5503C1122.4755,-92.7575 1139.5532,-88.6883 1155.7472,-84.8298"/>
<polygon fill="#000000" stroke="#000000" points="1156.7814,-88.1815 1165.6978,-82.4589 1155.1589,-81.3721 1156.7814,-88.1815"/>
</g>
<!-- s1103&#45;&gt;s1100 -->
<g id="edge8" class="edge">
<title>s1103&#45;&gt;s1100</title>
<path fill="none" stroke="#000000" d="M1155.5108,-67.4156C1066.6175,-67.4156 919.0637,-67.4156 841.197,-67.4156"/>
<polygon fill="#000000" stroke="#000000" points="841.1419,-63.9157 831.1418,-67.4156 841.1418,-70.9157 841.1419,-63.9157"/>
</g>
<!-- s1104 -->
<g id="node10" class="node">
<title>s1104</title>
<polygon fill="none" stroke="#000000" points="1339.0117,-42.6156 1339.0117,-92.2156 1440.6113,-92.2156 1440.6113,-42.6156 1339.0117,-42.6156"/>
<text text-anchor="middle" x="1380.0615" y="-71.6156" font-family="Times,serif" font-size="14.00" fill="#000000">s1104</text>
<text text-anchor="middle" x="1380.0615" y="-54.8156" font-family="Times,serif" font-size="14.00" fill="#000000">→ CHOICE</text>
<polyline fill="none" stroke="#000000" points="1421.1113,-42.6156 1421.1113,-92.2156 "/>
<text text-anchor="middle" x="1430.8613" y="-75.6156" font-family="Times,serif" font-size="14.00" fill="#000000"> </text>
<polyline fill="none" stroke="#000000" points="1421.1113,-67.4156 1440.6113,-67.4156 "/>
<text text-anchor="middle" x="1430.8613" y="-50.8156" font-family="Times,serif" font-size="14.00" fill="#000000"> </text>
</g>
<!-- s1103&#45;&gt;s1104 -->
<g id="edge12" class="edge">
<title>s1103&#45;&gt;s1104</title>
<path fill="none" stroke="#000000" d="M1302.2561,-67.4156C1310.9812,-67.4156 1319.8178,-67.4156 1328.3517,-67.4156"/>
<polygon fill="#000000" stroke="#000000" points="1328.5831,-70.9157 1338.5831,-67.4156 1328.5831,-63.9157 1328.5831,-70.9157"/>
</g>
<!-- s1105 -->
<g id="node11" class="node">
<title>s1105</title>
<g id="a_node11"><a xlink:href="rust-grammar.json._expression.dot.svg" xlink:title="s1105 SYMBOL\n_expression">
<ellipse fill="none" stroke="#000000" cx="1622.1636" cy="-106.4156" rx="78.8659" ry="29.3315"/>
<text text-anchor="middle" x="1622.1636" y="-110.6156" font-family="Times,serif" font-size="14.00" fill="#000000">s1105 SYMBOL</text>
<text text-anchor="middle" x="1622.1636" y="-93.8156" font-family="Times,serif" font-size="14.00" fill="#000000">_expression</text>
</a>
</g>
</g>
<!-- s1104&#45;&gt;s1105 -->
<g id="edge10" class="edge">
<title>s1104:p0&#45;&gt;s1105</title>
<path fill="none" stroke="#000000" d="M1440.6113,-79.4156C1474.6851,-79.4156 1511.9685,-84.1261 1543.8358,-89.6121"/>
<polygon fill="#000000" stroke="#000000" points="1543.5228,-93.1112 1553.981,-91.4155 1544.748,-86.2193 1543.5228,-93.1112"/>
<text text-anchor="middle" x="1492.0461" y="-89.6156" font-family="Times,serif" font-size="14.00" fill="#000000">_expression</text>
</g>
<!-- s1106 -->
<g id="node12" class="node">
<title>s1106</title>
<ellipse fill="none" stroke="#000000" cx="1622.1636" cy="-29.4156" rx="45.3054" ry="29.3315"/>
<text text-anchor="middle" x="1622.1636" y="-33.6156" font-family="Times,serif" font-size="14.00" fill="#000000">s1106 </text>
<text text-anchor="middle" x="1622.1636" y="-16.8156" font-family="Times,serif" font-size="14.00" fill="#000000">BLANK</text>
</g>
<!-- s1104&#45;&gt;s1106 -->
<g id="edge11" class="edge">
<title>s1104:p1&#45;&gt;s1106</title>
<path fill="none" stroke="#000000" d="M1440.6113,-55.4156C1484.2684,-55.4156 1533.2397,-47.9576 1569.3098,-41.0302"/>
<polygon fill="#000000" stroke="#000000" points="1569.9909,-44.4634 1579.1261,-39.0971 1568.6383,-37.5953 1569.9909,-44.4634"/>
</g>
<!-- s1107 -->
<g id="node13" class="node">
<title>s1107</title>
<ellipse fill="none" stroke="#000000" cx="1811.025" cy="-67.4156" rx="73.3577" ry="29.3315"/>
<text text-anchor="middle" x="1811.025" y="-71.6156" font-family="Times,serif" font-size="14.00" fill="#000000">s1107 STRING</text>
<text text-anchor="middle" x="1811.025" y="-54.8156" font-family="Times,serif" font-size="14.00" fill="#000000">&quot;)&quot;</text>
</g>
<!-- s1105&#45;&gt;s1107 -->
<g id="edge13" class="edge">
<title>s1105&#45;&gt;s1107</title>
<path fill="none" stroke="#000000" d="M1691.1486,-92.1702C1705.6176,-89.1823 1720.9479,-86.0166 1735.6368,-82.9834"/>
<polygon fill="#000000" stroke="#000000" points="1736.5995,-86.3585 1745.6851,-80.9084 1735.1839,-79.5031 1736.5995,-86.3585"/>
</g>
<!-- s1106&#45;&gt;s1107 -->
<g id="edge14" class="edge">
<title>s1106&#45;&gt;s1107</title>
<path fill="none" stroke="#000000" d="M1665.9669,-38.2291C1686.5619,-42.3729 1711.7183,-47.4345 1735.2621,-52.1717"/>
<polygon fill="#000000" stroke="#000000" points="1734.7417,-55.6371 1745.2356,-54.1784 1736.1225,-48.7746 1734.7417,-55.6371"/>
</g>
</g>
</svg>
