<?xml version="1.0" encoding="UTF-8" standalone="no"?>
<!DOCTYPE svg PUBLIC "-//W3C//DTD SVG 1.1//EN"
 "http://www.w3.org/Graphics/SVG/1.1/DTD/svg11.dtd">
<!-- Generated by graphviz version 2.40.1 (20161225.0304)
 -->
<!-- Title: enum_variant Pages: 1 -->
<svg width="2067pt" height="217pt"
 viewBox="0.00 0.00 2067.08 216.83" xmlns="http://www.w3.org/2000/svg" xmlns:xlink="http://www.w3.org/1999/xlink">
<g id="graph0" class="graph" transform="scale(1 1) rotate(0) translate(4 212.8313)">
<title>enum_variant</title>
<polygon fill="#ffffff" stroke="transparent" points="-4,4 -4,-212.8313 2063.0839,-212.8313 2063.0839,4 -4,4"/>
<!-- s331 -->
<g id="node1" class="node">
<title>s331</title>
<polygon fill="none" stroke="#000000" points="0,-46.6156 0,-88.2156 56.4418,-88.2156 56.4418,-46.6156 0,-46.6156"/>
<text text-anchor="middle" x="28.2209" y="-71.6156" font-family="Times,serif" font-size="14.00" fill="#000000">s331</text>
<text text-anchor="middle" x="28.2209" y="-54.8156" font-family="Times,serif" font-size="14.00" fill="#000000">→ SEQ</text>
</g>
<!-- s332 -->
<g id="node2" class="node">
<title>s332</title>
<polygon fill="none" stroke="#000000" points="93.4418,-42.6156 93.4418,-92.2156 195.0414,-92.2156 195.0414,-42.6156 93.4418,-42.6156"/>
<text text-anchor="middle" x="134.4916" y="-71.6156" font-family="Times,serif" font-size="14.00" fill="#000000">s332</text>
<text text-anchor="middle" x="134.4916" y="-54.8156" font-family="Times,serif" font-size="14.00" fill="#000000">→ CHOICE</text>
<polyline fill="none" stroke="#000000" points="175.5414,-42.6156 175.5414,-92.2156 "/>
<text text-anchor="middle" x="185.2914" y="-75.6156" font-family="Times,serif" font-size="14.00" fill="#000000"> </text>
<polyline fill="none" stroke="#000000" points="175.5414,-67.4156 195.0414,-67.4156 "/>
<text text-anchor="middle" x="185.2914" y="-50.8156" font-family="Times,serif" font-size="14.00" fill="#000000"> </text>
</g>
<!-- s331&#45;&gt;s332 -->
<g id="edge3" class="edge">
<title>s331&#45;&gt;s332</title>
<path fill="none" stroke="#000000" d="M56.6028,-67.4156C64.6824,-67.4156 73.8102,-67.4156 83.0459,-67.4156"/>
<polygon fill="#000000" stroke="#000000" points="83.0657,-70.9157 93.0657,-67.4156 83.0656,-63.9157 83.0657,-70.9157"/>
</g>
<!-- s333 -->
<g id="node3" class="node">
<title>s333</title>
<g id="a_node3"><a xlink:href="rust-grammar.json.visibility_modifier.dot.svg" xlink:title="s333 SYMBOL\nvisibility_modifier">
<ellipse fill="none" stroke="#000000" cx="421.5942" cy="-106.4156" rx="85.6139" ry="29.3315"/>
<text text-anchor="middle" x="421.5942" y="-110.6156" font-family="Times,serif" font-size="14.00" fill="#000000">s333 SYMBOL</text>
<text text-anchor="middle" x="421.5942" y="-93.8156" font-family="Times,serif" font-size="14.00" fill="#000000">visibility_modifier</text>
</a>
</g>
</g>
<!-- s332&#45;&gt;s333 -->
<g id="edge1" class="edge">
<title>s332:p0&#45;&gt;s333</title>
<path fill="none" stroke="#000000" d="M195.0414,-79.4156C241.7047,-79.4156 293.3969,-85.1333 335.6079,-91.3063"/>
<polygon fill="#000000" stroke="#000000" points="335.1618,-94.7784 345.5697,-92.797 336.1978,-87.8555 335.1618,-94.7784"/>
<text text-anchor="middle" x="265.5393" y="-91.6156" font-family="Times,serif" font-size="14.00" fill="#000000">visibility_modifier</text>
</g>
<!-- s334 -->
<g id="node4" class="node">
<title>s334</title>
<ellipse fill="none" stroke="#000000" cx="421.5942" cy="-29.4156" rx="45.3054" ry="29.3315"/>
<text text-anchor="middle" x="421.5942" y="-33.6156" font-family="Times,serif" font-size="14.00" fill="#000000">s334 </text>
<text text-anchor="middle" x="421.5942" y="-16.8156" font-family="Times,serif" font-size="14.00" fill="#000000">BLANK</text>
</g>
<!-- s332&#45;&gt;s334 -->
<g id="edge2" class="edge">
<title>s332:p1&#45;&gt;s334</title>
<path fill="none" stroke="#000000" d="M195.0414,-55.4156C254.3,-55.4156 321.7121,-46.5273 367.4852,-39.1445"/>
<polygon fill="#000000" stroke="#000000" points="368.187,-42.5761 377.4865,-37.4997 367.051,-35.6689 368.187,-42.5761"/>
</g>
<!-- s335 -->
<g id="node5" class="node">
<title>s335</title>
<g id="a_node5"><a xlink:href="rust-grammar.json.identifier.dot.svg" xlink:title="s335 SYMBOL\nidentifier">
<ellipse fill="none" stroke="#000000" cx="617.8841" cy="-67.4156" rx="73.9667" ry="29.3315"/>
<text text-anchor="middle" x="617.8841" y="-71.6156" font-family="Times,serif" font-size="14.00" fill="#000000">s335 SYMBOL</text>
<text text-anchor="middle" x="617.8841" y="-54.8156" font-family="Times,serif" font-size="14.00" fill="#000000">identifier</text>
</a>
</g>
</g>
<!-- s333&#45;&gt;s335 -->
<g id="edge4" class="edge">
<title>s333&#45;&gt;s335</title>
<path fill="none" stroke="#000000" d="M495.803,-91.6714C510.8538,-88.681 526.7044,-85.5317 541.8183,-82.5288"/>
<polygon fill="#000000" stroke="#000000" points="542.5019,-85.9615 551.6281,-80.5798 541.1377,-79.0957 542.5019,-85.9615"/>
</g>
<!-- s334&#45;&gt;s335 -->
<g id="edge5" class="edge">
<title>s334&#45;&gt;s335</title>
<path fill="none" stroke="#000000" d="M465.1573,-37.8491C487.4924,-42.173 515.3574,-47.5674 541.1488,-52.5604"/>
<polygon fill="#000000" stroke="#000000" points="540.8094,-56.0596 551.2924,-54.5241 542.1399,-49.1872 540.8094,-56.0596"/>
</g>
<!-- s336 -->
<g id="node6" class="node">
<title>s336</title>
<polygon fill="none" stroke="#000000" points="728.6171,-42.6156 728.6171,-92.2156 830.2167,-92.2156 830.2167,-42.6156 728.6171,-42.6156"/>
<text text-anchor="middle" x="769.6669" y="-71.6156" font-family="Times,serif" font-size="14.00" fill="#000000">s336</text>
<text text-anchor="middle" x="769.6669" y="-54.8156" font-family="Times,serif" font-size="14.00" fill="#000000">→ CHOICE</text>
<polyline fill="none" stroke="#000000" points="810.7167,-42.6156 810.7167,-92.2156 "/>
<text text-anchor="middle" x="820.4667" y="-75.6156" font-family="Times,serif" font-size="14.00" fill="#000000"> </text>
<polyline fill="none" stroke="#000000" points="810.7167,-67.4156 830.2167,-67.4156 "/>
<text text-anchor="middle" x="820.4667" y="-50.8156" font-family="Times,serif" font-size="14.00" fill="#000000"> </text>
</g>
<!-- s335&#45;&gt;s336 -->
<g id="edge10" class="edge">
<title>s335&#45;&gt;s336</title>
<path fill="none" stroke="#000000" d="M692.0317,-67.4156C700.7584,-67.4156 709.5888,-67.4156 718.1117,-67.4156"/>
<polygon fill="#000000" stroke="#000000" points="718.3277,-70.9157 728.3277,-67.4156 718.3277,-63.9157 718.3277,-70.9157"/>
</g>
<!-- s337 -->
<g id="node7" class="node">
<title>s337</title>
<polygon fill="none" stroke="#000000" points="867.2167,-89.6156 867.2167,-139.2156 968.8163,-139.2156 968.8163,-89.6156 867.2167,-89.6156"/>
<text text-anchor="middle" x="908.2665" y="-118.6156" font-family="Times,serif" font-size="14.00" fill="#000000">s337</text>
<text text-anchor="middle" x="908.2665" y="-101.8156" font-family="Times,serif" font-size="14.00" fill="#000000">→ CHOICE</text>
<polyline fill="none" stroke="#000000" points="949.3163,-89.6156 949.3163,-139.2156 "/>
<text text-anchor="middle" x="959.0663" y="-122.6156" font-family="Times,serif" font-size="14.00" fill="#000000"> </text>
<polyline fill="none" stroke="#000000" points="949.3163,-114.4156 968.8163,-114.4156 "/>
<text text-anchor="middle" x="959.0663" y="-97.8156" font-family="Times,serif" font-size="14.00" fill="#000000"> </text>
</g>
<!-- s336&#45;&gt;s337 -->
<g id="edge8" class="edge">
<title>s336:p0&#45;&gt;s337</title>
<path fill="none" stroke="#000000" d="M830.2167,-79.4156C841.7662,-79.4156 853.6016,-82.0612 864.6928,-85.8977"/>
<polygon fill="#000000" stroke="#000000" points="863.6314,-89.2389 874.222,-89.5391 866.1302,-82.7 863.6314,-89.2389"/>
</g>
<!-- s340 -->
<g id="node10" class="node">
<title>s340</title>
<ellipse fill="none" stroke="#000000" cx="1071.1733" cy="-48.4156" rx="45.3054" ry="29.3315"/>
<text text-anchor="middle" x="1071.1733" y="-52.6156" font-family="Times,serif" font-size="14.00" fill="#000000">s340 </text>
<text text-anchor="middle" x="1071.1733" y="-35.8156" font-family="Times,serif" font-size="14.00" fill="#000000">BLANK</text>
</g>
<!-- s336&#45;&gt;s340 -->
<g id="edge9" class="edge">
<title>s336:p1&#45;&gt;s340</title>
<path fill="none" stroke="#000000" d="M830.2167,-55.4156C893.9028,-55.4156 967.0174,-52.9422 1015.8474,-50.9358"/>
<polygon fill="#000000" stroke="#000000" points="1016.0415,-54.4309 1025.8865,-50.5159 1015.7489,-47.437 1016.0415,-54.4309"/>
</g>
<!-- s338 -->
<g id="node8" class="node">
<title>s338</title>
<g id="a_node8"><a xlink:href="rust-grammar.json.field_declaration_list.dot.svg" xlink:title="s338 SYMBOL\nfield_declaration_list">
<ellipse fill="none" stroke="#000000" cx="1304.1428" cy="-179.4156" rx="95.3674" ry="29.3315"/>
<text text-anchor="middle" x="1304.1428" y="-183.6156" font-family="Times,serif" font-size="14.00" fill="#000000">s338 SYMBOL</text>
<text text-anchor="middle" x="1304.1428" y="-166.8156" font-family="Times,serif" font-size="14.00" fill="#000000">field_declaration_list</text>
</a>
</g>
</g>
<!-- s337&#45;&gt;s338 -->
<g id="edge6" class="edge">
<title>s337:p0&#45;&gt;s338</title>
<path fill="none" stroke="#000000" d="M968.8163,-126.4156C1055.0104,-126.4156 1152.1559,-143.7116 1219.6121,-158.5425"/>
<polygon fill="#000000" stroke="#000000" points="1219.2385,-162.045 1229.7604,-160.8043 1220.7614,-155.2127 1219.2385,-162.045"/>
<text text-anchor="middle" x="1071.1733" y="-148.6156" font-family="Times,serif" font-size="14.00" fill="#000000">field_declaration_list</text>
</g>
<!-- s339 -->
<g id="node9" class="node">
<title>s339</title>
<g id="a_node9"><a xlink:href="rust-grammar.json.ordered_field_declaration_list.dot.svg" xlink:title="s339 SYMBOL\nordered_field_declaration_list">
<ellipse fill="none" stroke="#000000" cx="1304.1428" cy="-102.4156" rx="130.7251" ry="29.3315"/>
<text text-anchor="middle" x="1304.1428" y="-106.6156" font-family="Times,serif" font-size="14.00" fill="#000000">s339 SYMBOL</text>
<text text-anchor="middle" x="1304.1428" y="-89.8156" font-family="Times,serif" font-size="14.00" fill="#000000">ordered_field_declaration_list</text>
</a>
</g>
</g>
<!-- s337&#45;&gt;s339 -->
<g id="edge7" class="edge">
<title>s337:p1&#45;&gt;s339</title>
<path fill="none" stroke="#000000" d="M968.8163,-102.4156C1032.5166,-102.4156 1103.0237,-102.4156 1162.8815,-102.4156"/>
<polygon fill="#000000" stroke="#000000" points="1163.1597,-105.9157 1173.1597,-102.4156 1163.1597,-98.9157 1163.1597,-105.9157"/>
<text text-anchor="middle" x="1071.1733" y="-106.6156" font-family="Times,serif" font-size="14.00" fill="#000000">ordered_field_declaration_list</text>
</g>
<!-- s341 -->
<g id="node11" class="node">
<title>s341</title>
<polygon fill="none" stroke="#000000" points="1471.7553,-77.6156 1471.7553,-127.2156 1573.3549,-127.2156 1573.3549,-77.6156 1471.7553,-77.6156"/>
<text text-anchor="middle" x="1512.8051" y="-106.6156" font-family="Times,serif" font-size="14.00" fill="#000000">s341</text>
<text text-anchor="middle" x="1512.8051" y="-89.8156" font-family="Times,serif" font-size="14.00" fill="#000000">→ CHOICE</text>
<polyline fill="none" stroke="#000000" points="1553.8549,-77.6156 1553.8549,-127.2156 "/>
<text text-anchor="middle" x="1563.6049" y="-110.6156" font-family="Times,serif" font-size="14.00" fill="#000000"> </text>
<polyline fill="none" stroke="#000000" points="1553.8549,-102.4156 1573.3549,-102.4156 "/>
<text text-anchor="middle" x="1563.6049" y="-85.8156" font-family="Times,serif" font-size="14.00" fill="#000000"> </text>
</g>
<!-- s338&#45;&gt;s341 -->
<g id="edge15" class="edge">
<title>s338&#45;&gt;s341</title>
<path fill="none" stroke="#000000" d="M1375.48,-159.776C1394.8619,-153.9903 1415.7437,-147.3407 1434.7553,-140.4156 1443.6741,-137.167 1452.9864,-133.475 1462.0719,-129.6996"/>
<polygon fill="#000000" stroke="#000000" points="1463.5793,-132.8625 1471.432,-125.7501 1460.8579,-126.4131 1463.5793,-132.8625"/>
</g>
<!-- s339&#45;&gt;s341 -->
<g id="edge16" class="edge">
<title>s339&#45;&gt;s341</title>
<path fill="none" stroke="#000000" d="M1434.977,-102.4156C1444.1487,-102.4156 1453.1084,-102.4156 1461.5831,-102.4156"/>
<polygon fill="#000000" stroke="#000000" points="1461.6616,-105.9157 1471.6615,-102.4156 1461.6615,-98.9157 1461.6616,-105.9157"/>
</g>
<!-- s340&#45;&gt;s341 -->
<g id="edge17" class="edge">
<title>s340&#45;&gt;s341</title>
<path fill="none" stroke="#000000" d="M1116.3723,-45.2036C1185.8278,-41.4252 1322.5383,-38.5878 1434.7553,-64.4156 1444.4671,-66.6509 1454.4494,-69.9258 1464.0421,-73.6302"/>
<polygon fill="#000000" stroke="#000000" points="1462.8979,-76.9429 1473.4803,-77.4551 1465.527,-70.4554 1462.8979,-76.9429"/>
</g>
<!-- s342 -->
<g id="node12" class="node">
<title>s342</title>
<polygon fill="none" stroke="#000000" points="1627.5367,-138.6156 1627.5367,-180.2156 1683.9785,-180.2156 1683.9785,-138.6156 1627.5367,-138.6156"/>
<text text-anchor="middle" x="1655.7576" y="-163.6156" font-family="Times,serif" font-size="14.00" fill="#000000">s342</text>
<text text-anchor="middle" x="1655.7576" y="-146.8156" font-family="Times,serif" font-size="14.00" fill="#000000">→ SEQ</text>
</g>
<!-- s341&#45;&gt;s342 -->
<g id="edge13" class="edge">
<title>s341:p0&#45;&gt;s342</title>
<path fill="none" stroke="#000000" d="M1573.3549,-114.4156C1583.0714,-114.4156 1601.609,-124.175 1618.6446,-134.6039"/>
<polygon fill="#000000" stroke="#000000" points="1617.03,-137.7227 1627.3615,-140.0704 1620.7491,-131.7923 1617.03,-137.7227"/>
</g>
<!-- s345 -->
<g id="node15" class="node">
<title>s345</title>
<ellipse fill="none" stroke="#000000" cx="1655.7576" cy="-90.4156" rx="45.3054" ry="29.3315"/>
<text text-anchor="middle" x="1655.7576" y="-94.6156" font-family="Times,serif" font-size="14.00" fill="#000000">s345 </text>
<text text-anchor="middle" x="1655.7576" y="-77.8156" font-family="Times,serif" font-size="14.00" fill="#000000">BLANK</text>
</g>
<!-- s341&#45;&gt;s345 -->
<g id="edge14" class="edge">
<title>s341:p1&#45;&gt;s345</title>
<path fill="none" stroke="#000000" d="M1573.3549,-90.4156C1581.8894,-90.4156 1590.921,-90.4156 1599.7546,-90.4156"/>
<polygon fill="#000000" stroke="#000000" points="1599.992,-93.9157 1609.992,-90.4156 1599.9919,-86.9157 1599.992,-93.9157"/>
</g>
<!-- s343 -->
<g id="node13" class="node">
<title>s343</title>
<ellipse fill="none" stroke="#000000" cx="1806.389" cy="-159.4156" rx="68.4585" ry="29.3315"/>
<text text-anchor="middle" x="1806.389" y="-163.6156" font-family="Times,serif" font-size="14.00" fill="#000000">s343 STRING</text>
<text text-anchor="middle" x="1806.389" y="-146.8156" font-family="Times,serif" font-size="14.00" fill="#000000">&quot;=&quot;</text>
</g>
<!-- s342&#45;&gt;s343 -->
<g id="edge11" class="edge">
<title>s342&#45;&gt;s343</title>
<path fill="none" stroke="#000000" d="M1684.0902,-159.4156C1696.6739,-159.4156 1712.1711,-159.4156 1727.8547,-159.4156"/>
<polygon fill="#000000" stroke="#000000" points="1728.1593,-162.9157 1738.1593,-159.4156 1728.1593,-155.9157 1728.1593,-162.9157"/>
</g>
<!-- s344 -->
<g id="node14" class="node">
<title>s344</title>
<g id="a_node14"><a xlink:href="rust-grammar.json._expression.dot.svg" xlink:title="s344 SYMBOL\n_expression">
<ellipse fill="none" stroke="#000000" cx="1985.3509" cy="-159.4156" rx="73.9667" ry="29.3315"/>
<text text-anchor="middle" x="1985.3509" y="-163.6156" font-family="Times,serif" font-size="14.00" fill="#000000">s344 SYMBOL</text>
<text text-anchor="middle" x="1985.3509" y="-146.8156" font-family="Times,serif" font-size="14.00" fill="#000000">_expression</text>
</a>
</g>
</g>
<!-- s343&#45;&gt;s344 -->
<g id="edge12" class="edge">
<title>s343&#45;&gt;s344</title>
<path fill="none" stroke="#000000" d="M1874.8129,-159.4156C1883.5595,-159.4156 1892.5907,-159.4156 1901.5458,-159.4156"/>
<polygon fill="#000000" stroke="#000000" points="1901.6048,-162.9157 1911.6048,-159.4156 1901.6048,-155.9157 1901.6048,-162.9157"/>
</g>
</g>
</svg>
