<?xml version="1.0" encoding="UTF-8" standalone="no"?>
<!DOCTYPE svg PUBLIC "-//W3C//DTD SVG 1.1//EN"
 "http://www.w3.org/Graphics/SVG/1.1/DTD/svg11.dtd">
<!-- Generated by graphviz version 2.40.1 (20161225.0304)
 -->
<!-- Title: where_clause Pages: 1 -->
<svg width="1147pt" height="266pt"
 viewBox="0.00 0.00 1146.66 265.83" xmlns="http://www.w3.org/2000/svg" xmlns:xlink="http://www.w3.org/1999/xlink">
<g id="graph0" class="graph" transform="scale(1 1) rotate(0) translate(4 261.8313)">
<title>where_clause</title>
<polygon fill="#ffffff" stroke="transparent" points="-4,4 -4,-261.8313 1142.657,-261.8313 1142.657,4 -4,4"/>
<!-- s513 -->
<g id="node1" class="node">
<title>s513</title>
<polygon fill="none" stroke="#000000" points="0,-78.6156 0,-120.2156 56.4418,-120.2156 56.4418,-78.6156 0,-78.6156"/>
<text text-anchor="middle" x="28.2209" y="-103.6156" font-family="Times,serif" font-size="14.00" fill="#000000">s513</text>
<text text-anchor="middle" x="28.2209" y="-86.8156" font-family="Times,serif" font-size="14.00" fill="#000000">→ SEQ</text>
</g>
<!-- s514 -->
<g id="node2" class="node">
<title>s514</title>
<ellipse fill="none" stroke="#000000" cx="161.6707" cy="-99.4156" rx="68.4585" ry="29.3315"/>
<text text-anchor="middle" x="161.6707" y="-103.6156" font-family="Times,serif" font-size="14.00" fill="#000000">s514 STRING</text>
<text text-anchor="middle" x="161.6707" y="-86.8156" font-family="Times,serif" font-size="14.00" fill="#000000">&quot;where&quot;</text>
</g>
<!-- s513&#45;&gt;s514 -->
<g id="edge1" class="edge">
<title>s513&#45;&gt;s514</title>
<path fill="none" stroke="#000000" d="M56.5222,-99.4156C64.5856,-99.4156 73.7846,-99.4156 83.3101,-99.4156"/>
<polygon fill="#000000" stroke="#000000" points="83.321,-102.9157 93.321,-99.4156 83.3209,-95.9157 83.321,-102.9157"/>
</g>
<!-- s515 -->
<g id="node3" class="node">
<title>s515</title>
<polygon fill="none" stroke="#000000" points="266.8995,-78.6156 266.8995,-120.2156 323.3413,-120.2156 323.3413,-78.6156 266.8995,-78.6156"/>
<text text-anchor="middle" x="295.1204" y="-103.6156" font-family="Times,serif" font-size="14.00" fill="#000000">s515</text>
<text text-anchor="middle" x="295.1204" y="-86.8156" font-family="Times,serif" font-size="14.00" fill="#000000">→ SEQ</text>
</g>
<!-- s514&#45;&gt;s515 -->
<g id="edge8" class="edge">
<title>s514&#45;&gt;s515</title>
<path fill="none" stroke="#000000" d="M229.9593,-99.4156C239.0674,-99.4156 248.1366,-99.4156 256.4876,-99.4156"/>
<polygon fill="#000000" stroke="#000000" points="256.6303,-102.9157 266.6303,-99.4156 256.6302,-95.9157 256.6303,-102.9157"/>
</g>
<!-- s516 -->
<g id="node4" class="node">
<title>s516</title>
<g id="a_node4"><a xlink:href="rust-grammar.json.where_predicate.dot.svg" xlink:title="s516 SYMBOL\nwhere_predicate">
<ellipse fill="none" stroke="#000000" cx="437.06" cy="-99.4156" rx="76.938" ry="29.3315"/>
<text text-anchor="middle" x="437.06" y="-103.6156" font-family="Times,serif" font-size="14.00" fill="#000000">s516 SYMBOL</text>
<text text-anchor="middle" x="437.06" y="-86.8156" font-family="Times,serif" font-size="14.00" fill="#000000">where_predicate</text>
</a>
</g>
</g>
<!-- s515&#45;&gt;s516 -->
<g id="edge2" class="edge">
<title>s515&#45;&gt;s516</title>
<path fill="none" stroke="#000000" d="M323.5029,-99.4156C331.4888,-99.4156 340.6163,-99.4156 350.1484,-99.4156"/>
<polygon fill="#000000" stroke="#000000" points="350.1974,-102.9157 360.1974,-99.4156 350.1973,-95.9157 350.1974,-102.9157"/>
</g>
<!-- s517 -->
<g id="node5" class="node">
<title>s517</title>
<polygon fill="none" stroke="#000000" points="550.7787,-78.6156 550.7787,-120.2156 633.6623,-120.2156 633.6623,-78.6156 550.7787,-78.6156"/>
<text text-anchor="middle" x="592.2205" y="-103.6156" font-family="Times,serif" font-size="14.00" fill="#000000">s517</text>
<text text-anchor="middle" x="592.2205" y="-86.8156" font-family="Times,serif" font-size="14.00" fill="#000000">→ REPEAT</text>
</g>
<!-- s516&#45;&gt;s517 -->
<g id="edge7" class="edge">
<title>s516&#45;&gt;s517</title>
<path fill="none" stroke="#000000" d="M514.1857,-99.4156C523.1616,-99.4156 532.1456,-99.4156 540.6571,-99.4156"/>
<polygon fill="#000000" stroke="#000000" points="540.7726,-102.9157 550.7726,-99.4156 540.7725,-95.9157 540.7726,-102.9157"/>
</g>
<!-- s518 -->
<g id="node6" class="node">
<title>s518</title>
<polygon fill="none" stroke="#000000" points="693.2412,-157.6156 693.2412,-199.2156 749.683,-199.2156 749.683,-157.6156 693.2412,-157.6156"/>
<text text-anchor="middle" x="721.4621" y="-182.6156" font-family="Times,serif" font-size="14.00" fill="#000000">s518</text>
<text text-anchor="middle" x="721.4621" y="-165.8156" font-family="Times,serif" font-size="14.00" fill="#000000">→ SEQ</text>
</g>
<!-- s517&#45;&gt;s518 -->
<g id="edge5" class="edge">
<title>s517&#45;&gt;s518</title>
<path fill="none" stroke="#000000" d="M626.5156,-120.3788C644.3815,-131.2995 666.247,-144.665 684.4897,-155.8159"/>
<polygon fill="#000000" stroke="#000000" points="682.763,-158.8626 693.1207,-161.0917 686.4139,-152.89 682.763,-158.8626"/>
</g>
<!-- s521 -->
<g id="node9" class="node">
<title>s521</title>
<polygon fill="none" stroke="#000000" points="670.6623,-74.6156 670.6623,-124.2156 772.2619,-124.2156 772.2619,-74.6156 670.6623,-74.6156"/>
<text text-anchor="middle" x="711.7121" y="-103.6156" font-family="Times,serif" font-size="14.00" fill="#000000">s521</text>
<text text-anchor="middle" x="711.7121" y="-86.8156" font-family="Times,serif" font-size="14.00" fill="#000000">→ CHOICE</text>
<polyline fill="none" stroke="#000000" points="752.7619,-74.6156 752.7619,-124.2156 "/>
<text text-anchor="middle" x="762.5119" y="-107.6156" font-family="Times,serif" font-size="14.00" fill="#000000"> </text>
<polyline fill="none" stroke="#000000" points="752.7619,-99.4156 772.2619,-99.4156 "/>
<text text-anchor="middle" x="762.5119" y="-82.8156" font-family="Times,serif" font-size="14.00" fill="#000000"> </text>
</g>
<!-- s517&#45;&gt;s521 -->
<g id="edge11" class="edge">
<title>s517&#45;&gt;s521</title>
<path fill="none" stroke="#000000" d="M633.8248,-99.4156C642.2958,-99.4156 651.3739,-99.4156 660.3609,-99.4156"/>
<polygon fill="#000000" stroke="#000000" points="660.4317,-102.9157 670.4317,-99.4156 660.4317,-95.9157 660.4317,-102.9157"/>
</g>
<!-- s519 -->
<g id="node7" class="node">
<title>s519</title>
<ellipse fill="none" stroke="#000000" cx="879.9908" cy="-228.4156" rx="68.4585" ry="29.3315"/>
<text text-anchor="middle" x="879.9908" y="-232.6156" font-family="Times,serif" font-size="14.00" fill="#000000">s519 STRING</text>
<text text-anchor="middle" x="879.9908" y="-215.8156" font-family="Times,serif" font-size="14.00" fill="#000000">&quot;,&quot;</text>
</g>
<!-- s518&#45;&gt;s519 -->
<g id="edge3" class="edge">
<title>s518&#45;&gt;s519</title>
<path fill="none" stroke="#000000" d="M749.8039,-187.3546C767.9609,-193.0814 792.3,-200.758 815.0191,-207.9235"/>
<polygon fill="#000000" stroke="#000000" points="814.0441,-211.2859 824.6338,-210.956 816.1497,-204.6101 814.0441,-211.2859"/>
</g>
<!-- s520 -->
<g id="node8" class="node">
<title>s520</title>
<g id="a_node8"><a xlink:href="rust-grammar.json.where_predicate.dot.svg" xlink:title="s520 SYMBOL\nwhere_predicate">
<ellipse fill="none" stroke="#000000" cx="1061.9383" cy="-29.4156" rx="76.938" ry="29.3315"/>
<text text-anchor="middle" x="1061.9383" y="-33.6156" font-family="Times,serif" font-size="14.00" fill="#000000">s520 SYMBOL</text>
<text text-anchor="middle" x="1061.9383" y="-16.8156" font-family="Times,serif" font-size="14.00" fill="#000000">where_predicate</text>
</a>
</g>
</g>
<!-- s519&#45;&gt;s520 -->
<g id="edge4" class="edge">
<title>s519&#45;&gt;s520</title>
<path fill="none" stroke="#000000" d="M925.2106,-206.2871C933.3068,-201.3163 941.3439,-195.6447 948.2197,-189.4156 987.6329,-153.7095 1021.2521,-102.0798 1041.4953,-67.2085"/>
<polygon fill="#000000" stroke="#000000" points="1044.6722,-68.7034 1046.5963,-58.2848 1038.595,-65.2295 1044.6722,-68.7034"/>
</g>
<!-- s520&#45;&gt;s517 -->
<g id="edge6" class="edge">
<title>s520&#45;&gt;s517</title>
<path fill="none" stroke="#000000" d="M985.4131,-26.955C905.1369,-26.5454 776.2074,-32.0887 670.6623,-65.4156 661.6282,-68.2682 652.2227,-71.812 643.1927,-75.5249"/>
<polygon fill="#000000" stroke="#000000" points="641.7968,-72.315 633.9496,-79.4335 644.5231,-78.7623 641.7968,-72.315"/>
</g>
<!-- s522 -->
<g id="node10" class="node">
<title>s522</title>
<ellipse fill="none" stroke="#000000" cx="879.9908" cy="-151.4156" rx="68.4585" ry="29.3315"/>
<text text-anchor="middle" x="879.9908" y="-155.6156" font-family="Times,serif" font-size="14.00" fill="#000000">s522 STRING</text>
<text text-anchor="middle" x="879.9908" y="-138.8156" font-family="Times,serif" font-size="14.00" fill="#000000">&quot;,&quot;</text>
</g>
<!-- s521&#45;&gt;s522 -->
<g id="edge9" class="edge">
<title>s521:p0&#45;&gt;s522</title>
<path fill="none" stroke="#000000" d="M762.4621,-124.4156C762.4621,-145.6618 780.9312,-154.3063 803.2265,-157.0013"/>
<polygon fill="#000000" stroke="#000000" points="803.076,-160.5006 813.3283,-157.8285 803.6474,-153.524 803.076,-160.5006"/>
<text text-anchor="middle" x="792.0119" y="-158.6156" font-family="Times,serif" font-size="14.00" fill="#000000">,</text>
</g>
<!-- s523 -->
<g id="node11" class="node">
<title>s523</title>
<ellipse fill="none" stroke="#000000" cx="879.9908" cy="-74.4156" rx="45.3054" ry="29.3315"/>
<text text-anchor="middle" x="879.9908" y="-78.6156" font-family="Times,serif" font-size="14.00" fill="#000000">s523 </text>
<text text-anchor="middle" x="879.9908" y="-61.8156" font-family="Times,serif" font-size="14.00" fill="#000000">BLANK</text>
</g>
<!-- s521&#45;&gt;s523 -->
<g id="edge10" class="edge">
<title>s521:p1&#45;&gt;s523</title>
<path fill="none" stroke="#000000" d="M772.2619,-87.4156C789.7347,-87.4156 808.6876,-85.7092 825.7544,-83.5328"/>
<polygon fill="#000000" stroke="#000000" points="826.6686,-86.9409 836.1072,-82.128 825.7273,-80.0045 826.6686,-86.9409"/>
</g>
</g>
</svg>
