<?xml version="1.0" encoding="UTF-8" standalone="no"?>
<!DOCTYPE svg PUBLIC "-//W3C//DTD SVG 1.1//EN"
 "http://www.w3.org/Graphics/SVG/1.1/DTD/svg11.dtd">
<!-- Generated by graphviz version 2.40.1 (20161225.0304)
 -->
<!-- Title: match_expression Pages: 1 -->
<svg width="1473pt" height="144pt"
 viewBox="0.00 0.00 1473.31 143.83" xmlns="http://www.w3.org/2000/svg" xmlns:xlink="http://www.w3.org/1999/xlink">
<g id="graph0" class="graph" transform="scale(1 1) rotate(0) translate(4 139.8313)">
<title>match_expression</title>
<polygon fill="#ffffff" stroke="transparent" points="-4,4 -4,-139.8313 1469.3084,-139.8313 1469.3084,4 -4,4"/>
<!-- s1172 -->
<g id="node1" class="node">
<title>s1172</title>
<polygon fill="none" stroke="#000000" points="0,-42.6156 0,-84.2156 56.4418,-84.2156 56.4418,-42.6156 0,-42.6156"/>
<text text-anchor="middle" x="28.2209" y="-67.6156" font-family="Times,serif" font-size="14.00" fill="#000000">s1172</text>
<text text-anchor="middle" x="28.2209" y="-50.8156" font-family="Times,serif" font-size="14.00" fill="#000000">→ SEQ</text>
</g>
<!-- s1173 -->
<g id="node2" class="node">
<title>s1173</title>
<ellipse fill="none" stroke="#000000" cx="165.6204" cy="-63.4156" rx="73.3577" ry="29.3315"/>
<text text-anchor="middle" x="165.6204" y="-67.6156" font-family="Times,serif" font-size="14.00" fill="#000000">s1173 STRING</text>
<text text-anchor="middle" x="165.6204" y="-50.8156" font-family="Times,serif" font-size="14.00" fill="#000000">&quot;match&quot;</text>
</g>
<!-- s1172&#45;&gt;s1173 -->
<g id="edge1" class="edge">
<title>s1172&#45;&gt;s1173</title>
<path fill="none" stroke="#000000" d="M56.6902,-63.4156C64.4253,-63.4156 73.211,-63.4156 82.3577,-63.4156"/>
<polygon fill="#000000" stroke="#000000" points="82.3919,-66.9157 92.3919,-63.4156 82.3919,-59.9157 82.3919,-66.9157"/>
</g>
<!-- s1174 -->
<g id="node3" class="node">
<title>s1174</title>
<g id="a_node3"><a xlink:href="rust-grammar.json._expression.dot.svg" xlink:title="s1174 SYMBOL\n_expression">
<ellipse fill="none" stroke="#000000" cx="353.4818" cy="-63.4156" rx="78.8659" ry="29.3315"/>
<text text-anchor="middle" x="353.4818" y="-67.6156" font-family="Times,serif" font-size="14.00" fill="#000000">s1174 SYMBOL</text>
<text text-anchor="middle" x="353.4818" y="-50.8156" font-family="Times,serif" font-size="14.00" fill="#000000">_expression</text>
</a>
</g>
</g>
<!-- s1173&#45;&gt;s1174 -->
<g id="edge2" class="edge">
<title>s1173&#45;&gt;s1174</title>
<path fill="none" stroke="#000000" d="M239.0597,-63.4156C247.327,-63.4156 255.8169,-63.4156 264.2561,-63.4156"/>
<polygon fill="#000000" stroke="#000000" points="264.5066,-66.9157 274.5065,-63.4156 264.5065,-59.9157 264.5066,-66.9157"/>
</g>
<!-- s1175 -->
<g id="node4" class="node">
<title>s1175</title>
<ellipse fill="none" stroke="#000000" cx="541.3431" cy="-63.4156" rx="73.3577" ry="29.3315"/>
<text text-anchor="middle" x="541.3431" y="-67.6156" font-family="Times,serif" font-size="14.00" fill="#000000">s1175 STRING</text>
<text text-anchor="middle" x="541.3431" y="-50.8156" font-family="Times,serif" font-size="14.00" fill="#000000">&quot;{&quot;</text>
</g>
<!-- s1174&#45;&gt;s1175 -->
<g id="edge3" class="edge">
<title>s1174&#45;&gt;s1175</title>
<path fill="none" stroke="#000000" d="M432.3354,-63.4156C440.7589,-63.4156 449.3485,-63.4156 457.8237,-63.4156"/>
<polygon fill="#000000" stroke="#000000" points="458.0859,-66.9157 468.0859,-63.4156 458.0858,-59.9157 458.0859,-66.9157"/>
</g>
<!-- s1176 -->
<g id="node5" class="node">
<title>s1176</title>
<polygon fill="none" stroke="#000000" points="650.5218,-38.6156 650.5218,-88.2156 752.1214,-88.2156 752.1214,-38.6156 650.5218,-38.6156"/>
<text text-anchor="middle" x="691.5716" y="-67.6156" font-family="Times,serif" font-size="14.00" fill="#000000">s1176</text>
<text text-anchor="middle" x="691.5716" y="-50.8156" font-family="Times,serif" font-size="14.00" fill="#000000">→ CHOICE</text>
<polyline fill="none" stroke="#000000" points="732.6214,-38.6156 732.6214,-88.2156 "/>
<text text-anchor="middle" x="742.3714" y="-71.6156" font-family="Times,serif" font-size="14.00" fill="#000000"> </text>
<polyline fill="none" stroke="#000000" points="732.6214,-63.4156 752.1214,-63.4156 "/>
<text text-anchor="middle" x="742.3714" y="-46.8156" font-family="Times,serif" font-size="14.00" fill="#000000"> </text>
</g>
<!-- s1175&#45;&gt;s1176 -->
<g id="edge11" class="edge">
<title>s1175&#45;&gt;s1176</title>
<path fill="none" stroke="#000000" d="M614.7773,-63.4156C623.2095,-63.4156 631.7395,-63.4156 639.989,-63.4156"/>
<polygon fill="#000000" stroke="#000000" points="640.2601,-66.9157 650.2601,-63.4156 640.2601,-59.9157 640.2601,-66.9157"/>
</g>
<!-- s1177 -->
<g id="node6" class="node">
<title>s1177</title>
<polygon fill="none" stroke="#000000" points="788.1214,-72.6156 788.1214,-114.2156 844.5632,-114.2156 844.5632,-72.6156 788.1214,-72.6156"/>
<text text-anchor="middle" x="816.3423" y="-97.6156" font-family="Times,serif" font-size="14.00" fill="#000000">s1177</text>
<text text-anchor="middle" x="816.3423" y="-80.8156" font-family="Times,serif" font-size="14.00" fill="#000000">→ SEQ</text>
</g>
<!-- s1176&#45;&gt;s1177 -->
<g id="edge9" class="edge">
<title>s1176:p0&#45;&gt;s1177</title>
<path fill="none" stroke="#000000" d="M752.1214,-75.4156C760.7768,-75.4156 769.853,-76.9503 778.3663,-79.1234"/>
<polygon fill="#000000" stroke="#000000" points="777.4644,-82.5059 788.0427,-81.9141 779.4042,-75.78 777.4644,-82.5059"/>
</g>
<!-- s1182 -->
<g id="node11" class="node">
<title>s1182</title>
<ellipse fill="none" stroke="#000000" cx="925.9658" cy="-29.4156" rx="45.3054" ry="29.3315"/>
<text text-anchor="middle" x="925.9658" y="-33.6156" font-family="Times,serif" font-size="14.00" fill="#000000">s1182 </text>
<text text-anchor="middle" x="925.9658" y="-16.8156" font-family="Times,serif" font-size="14.00" fill="#000000">BLANK</text>
</g>
<!-- s1176&#45;&gt;s1182 -->
<g id="edge10" class="edge">
<title>s1176:p1&#45;&gt;s1182</title>
<path fill="none" stroke="#000000" d="M752.1214,-51.4156C792.5114,-51.4156 837.7652,-45.4985 871.9745,-39.8016"/>
<polygon fill="#000000" stroke="#000000" points="872.9532,-43.1851 882.219,-38.0475 871.7717,-36.2855 872.9532,-43.1851"/>
</g>
<!-- s1178 -->
<g id="node7" class="node">
<title>s1178</title>
<polygon fill="none" stroke="#000000" points="884.524,-77.6156 884.524,-119.2156 967.4076,-119.2156 967.4076,-77.6156 884.524,-77.6156"/>
<text text-anchor="middle" x="925.9658" y="-102.6156" font-family="Times,serif" font-size="14.00" fill="#000000">s1178</text>
<text text-anchor="middle" x="925.9658" y="-85.8156" font-family="Times,serif" font-size="14.00" fill="#000000">→ REPEAT</text>
</g>
<!-- s1177&#45;&gt;s1178 -->
<g id="edge6" class="edge">
<title>s1177&#45;&gt;s1178</title>
<path fill="none" stroke="#000000" d="M844.5731,-94.7033C853.6131,-95.1156 863.9259,-95.586 874.1028,-96.0501"/>
<polygon fill="#000000" stroke="#000000" points="874.0331,-99.5505 884.1822,-96.5099 874.3521,-92.5578 874.0331,-99.5505"/>
</g>
<!-- s1179 -->
<g id="node8" class="node">
<title>s1179</title>
<g id="a_node8"><a xlink:href="rust-grammar.json.match_arm.dot.svg" xlink:title="s1179 SYMBOL\nmatch_arm">
<ellipse fill="none" stroke="#000000" cx="1086.0512" cy="-98.4156" rx="78.8659" ry="29.3315"/>
<text text-anchor="middle" x="1086.0512" y="-102.6156" font-family="Times,serif" font-size="14.00" fill="#000000">s1179 SYMBOL</text>
<text text-anchor="middle" x="1086.0512" y="-85.8156" font-family="Times,serif" font-size="14.00" fill="#000000">match_arm</text>
</a>
</g>
</g>
<!-- s1178&#45;&gt;s1179 -->
<g id="edge4" class="edge">
<title>s1178&#45;&gt;s1179</title>
<path fill="none" stroke="#000000" d="M967.6084,-92.4098C977.3966,-91.9991 988.1888,-91.7584 999.1539,-91.6877"/>
<polygon fill="#000000" stroke="#000000" points="999.2545,-95.1876 1009.2485,-91.6706 999.2426,-88.1876 999.2545,-95.1876"/>
</g>
<!-- s1179&#45;&gt;s1178 -->
<g id="edge5" class="edge">
<title>s1179&#45;&gt;s1178</title>
<path fill="none" stroke="#000000" d="M1009.2485,-105.1607C998.5921,-105.1931 987.859,-105.0657 977.8063,-104.7786"/>
<polygon fill="#000000" stroke="#000000" points="977.7248,-101.2737 967.6084,-104.4215 977.4798,-108.2694 977.7248,-101.2737"/>
</g>
<!-- s1180 -->
<g id="node9" class="node">
<title>s1180</title>
<polygon fill="none" stroke="#000000" points="1200.7339,-77.6156 1200.7339,-119.2156 1271.9429,-119.2156 1271.9429,-77.6156 1200.7339,-77.6156"/>
<text text-anchor="middle" x="1236.3384" y="-102.6156" font-family="Times,serif" font-size="14.00" fill="#000000">s1180</text>
<text text-anchor="middle" x="1236.3384" y="-85.8156" font-family="Times,serif" font-size="14.00" fill="#000000">→ ALIAS</text>
</g>
<!-- s1179&#45;&gt;s1180 -->
<g id="edge8" class="edge">
<title>s1179&#45;&gt;s1180</title>
<path fill="none" stroke="#000000" d="M1165.1558,-98.4156C1173.8095,-98.4156 1182.3931,-98.4156 1190.4455,-98.4156"/>
<polygon fill="#000000" stroke="#000000" points="1190.6867,-101.9157 1200.6867,-98.4156 1190.6867,-94.9157 1190.6867,-101.9157"/>
</g>
<!-- s1181 -->
<g id="node10" class="node">
<title>s1181</title>
<g id="a_node10"><a xlink:href="rust-grammar.json.last_match_arm.dot.svg" xlink:title="s1181 SYMBOL\nlast_match_arm">
<ellipse fill="none" stroke="#000000" cx="1386.6256" cy="-106.4156" rx="78.8659" ry="29.3315"/>
<text text-anchor="middle" x="1386.6256" y="-110.6156" font-family="Times,serif" font-size="14.00" fill="#000000">s1181 SYMBOL</text>
<text text-anchor="middle" x="1386.6256" y="-93.8156" font-family="Times,serif" font-size="14.00" fill="#000000">last_match_arm</text>
</a>
</g>
</g>
<!-- s1180&#45;&gt;s1181 -->
<g id="edge7" class="edge">
<title>s1180&#45;&gt;s1181</title>
<path fill="none" stroke="#000000" d="M1271.9544,-100.3115C1280.1136,-100.7459 1289.1421,-101.2265 1298.4456,-101.7217"/>
<polygon fill="#000000" stroke="#000000" points="1298.4488,-105.2267 1308.6207,-102.2633 1298.8209,-98.2366 1298.4488,-105.2267"/>
</g>
<!-- s1183 -->
<g id="node12" class="node">
<title>s1183</title>
<ellipse fill="none" stroke="#000000" cx="1386.6256" cy="-29.4156" rx="73.3577" ry="29.3315"/>
<text text-anchor="middle" x="1386.6256" y="-33.6156" font-family="Times,serif" font-size="14.00" fill="#000000">s1183 STRING</text>
<text text-anchor="middle" x="1386.6256" y="-16.8156" font-family="Times,serif" font-size="14.00" fill="#000000">&quot;}&quot;</text>
</g>
<!-- s1180&#45;&gt;s1183 -->
<g id="edge12" class="edge">
<title>s1180&#45;&gt;s1183</title>
<path fill="none" stroke="#000000" d="M1271.9544,-82.0636C1288.9619,-74.2551 1309.746,-64.7127 1328.9254,-55.907"/>
<polygon fill="#000000" stroke="#000000" points="1330.5607,-59.0075 1338.1883,-51.6542 1327.6399,-52.646 1330.5607,-59.0075"/>
</g>
<!-- s1182&#45;&gt;s1183 -->
<g id="edge13" class="edge">
<title>s1182&#45;&gt;s1183</title>
<path fill="none" stroke="#000000" d="M971.3963,-29.4156C1048.4553,-29.4156 1205.8791,-29.4156 1303.2159,-29.4156"/>
<polygon fill="#000000" stroke="#000000" points="1303.318,-32.9157 1313.318,-29.4156 1303.318,-25.9157 1303.318,-32.9157"/>
</g>
</g>
</svg>
