<?xml version="1.0" encoding="UTF-8" standalone="no"?>
<!DOCTYPE svg PUBLIC "-//W3C//DTD SVG 1.1//EN"
 "http://www.w3.org/Graphics/SVG/1.1/DTD/svg11.dtd">
<!-- Generated by graphviz version 2.40.1 (20161225.0304)
 -->
<!-- Title: for_in_statement Pages: 1 -->
<svg width="2171pt" height="266pt"
 viewBox="0.00 0.00 2170.87 265.83" xmlns="http://www.w3.org/2000/svg" xmlns:xlink="http://www.w3.org/1999/xlink">
<g id="graph0" class="graph" transform="scale(1 1) rotate(0) translate(4 261.8313)">
<title>for_in_statement</title>
<polygon fill="#ffffff" stroke="transparent" points="-4,4 -4,-261.8313 2166.8661,-261.8313 2166.8661,4 -4,4"/>
<!-- s191 -->
<g id="node1" class="node">
<title>s191</title>
<polygon fill="none" stroke="#000000" points="0,-43.6156 0,-85.2156 56.4418,-85.2156 56.4418,-43.6156 0,-43.6156"/>
<text text-anchor="middle" x="28.2209" y="-68.6156" font-family="Times,serif" font-size="14.00" fill="#000000">s191</text>
<text text-anchor="middle" x="28.2209" y="-51.8156" font-family="Times,serif" font-size="14.00" fill="#000000">→ SEQ</text>
</g>
<!-- s192 -->
<g id="node2" class="node">
<title>s192</title>
<ellipse fill="none" stroke="#000000" cx="161.6707" cy="-64.4156" rx="68.4585" ry="29.3315"/>
<text text-anchor="middle" x="161.6707" y="-68.6156" font-family="Times,serif" font-size="14.00" fill="#000000">s192 STRING</text>
<text text-anchor="middle" x="161.6707" y="-51.8156" font-family="Times,serif" font-size="14.00" fill="#000000">&quot;for&quot;</text>
</g>
<!-- s191&#45;&gt;s192 -->
<g id="edge1" class="edge">
<title>s191&#45;&gt;s192</title>
<path fill="none" stroke="#000000" d="M56.5222,-64.4156C64.5856,-64.4156 73.7846,-64.4156 83.3101,-64.4156"/>
<polygon fill="#000000" stroke="#000000" points="83.321,-67.9157 93.321,-64.4156 83.3209,-60.9157 83.321,-67.9157"/>
</g>
<!-- s193 -->
<g id="node3" class="node">
<title>s193</title>
<ellipse fill="none" stroke="#000000" cx="335.1284" cy="-64.4156" rx="68.4585" ry="29.3315"/>
<text text-anchor="middle" x="335.1284" y="-68.6156" font-family="Times,serif" font-size="14.00" fill="#000000">s193 STRING</text>
<text text-anchor="middle" x="335.1284" y="-51.8156" font-family="Times,serif" font-size="14.00" fill="#000000">&quot;(&quot;</text>
</g>
<!-- s192&#45;&gt;s193 -->
<g id="edge2" class="edge">
<title>s192&#45;&gt;s193</title>
<path fill="none" stroke="#000000" d="M230.2258,-64.4156C238.8698,-64.4156 247.7659,-64.4156 256.5496,-64.4156"/>
<polygon fill="#000000" stroke="#000000" points="256.7874,-67.9157 266.7873,-64.4156 256.7873,-60.9157 256.7874,-67.9157"/>
</g>
<!-- s194 -->
<g id="node4" class="node">
<title>s194</title>
<polygon fill="none" stroke="#000000" points="440.3573,-39.6156 440.3573,-89.2156 541.9569,-89.2156 541.9569,-39.6156 440.3573,-39.6156"/>
<text text-anchor="middle" x="481.4071" y="-68.6156" font-family="Times,serif" font-size="14.00" fill="#000000">s194</text>
<text text-anchor="middle" x="481.4071" y="-51.8156" font-family="Times,serif" font-size="14.00" fill="#000000">→ CHOICE</text>
<polyline fill="none" stroke="#000000" points="522.4569,-39.6156 522.4569,-89.2156 "/>
<text text-anchor="middle" x="532.2069" y="-72.6156" font-family="Times,serif" font-size="14.00" fill="#000000"> </text>
<polyline fill="none" stroke="#000000" points="522.4569,-64.4156 541.9569,-64.4156 "/>
<text text-anchor="middle" x="532.2069" y="-47.8156" font-family="Times,serif" font-size="14.00" fill="#000000"> </text>
</g>
<!-- s193&#45;&gt;s194 -->
<g id="edge8" class="edge">
<title>s193&#45;&gt;s194</title>
<path fill="none" stroke="#000000" d="M403.5649,-64.4156C412.3926,-64.4156 421.3865,-64.4156 430.0851,-64.4156"/>
<polygon fill="#000000" stroke="#000000" points="430.1333,-67.9157 440.1333,-64.4156 430.1332,-60.9157 430.1333,-67.9157"/>
</g>
<!-- s195 -->
<g id="node5" class="node">
<title>s195</title>
<polygon fill="none" stroke="#000000" points="578.9569,-87.2156 578.9569,-161.6156 680.5565,-161.6156 680.5565,-87.2156 578.9569,-87.2156"/>
<text text-anchor="middle" x="620.0067" y="-128.6156" font-family="Times,serif" font-size="14.00" fill="#000000">s195</text>
<text text-anchor="middle" x="620.0067" y="-111.8156" font-family="Times,serif" font-size="14.00" fill="#000000">→ CHOICE</text>
<polyline fill="none" stroke="#000000" points="661.0565,-87.2156 661.0565,-161.6156 "/>
<text text-anchor="middle" x="670.8065" y="-145.0156" font-family="Times,serif" font-size="14.00" fill="#000000"> </text>
<polyline fill="none" stroke="#000000" points="661.0565,-136.8156 680.5565,-136.8156 "/>
<text text-anchor="middle" x="670.8065" y="-120.2156" font-family="Times,serif" font-size="14.00" fill="#000000"> </text>
<polyline fill="none" stroke="#000000" points="661.0565,-112.0156 680.5565,-112.0156 "/>
<text text-anchor="middle" x="670.8065" y="-95.4156" font-family="Times,serif" font-size="14.00" fill="#000000"> </text>
</g>
<!-- s194&#45;&gt;s195 -->
<g id="edge6" class="edge">
<title>s194:p0&#45;&gt;s195</title>
<path fill="none" stroke="#000000" d="M541.9569,-76.4156C552.1196,-76.4156 562.2226,-78.9222 571.7623,-82.7897"/>
<polygon fill="#000000" stroke="#000000" points="570.5467,-86.0826 581.0956,-87.0684 573.4639,-79.7194 570.5467,-86.0826"/>
</g>
<!-- s199 -->
<g id="node9" class="node">
<title>s199</title>
<ellipse fill="none" stroke="#000000" cx="743.9591" cy="-29.4156" rx="45.3054" ry="29.3315"/>
<text text-anchor="middle" x="743.9591" y="-33.6156" font-family="Times,serif" font-size="14.00" fill="#000000">s199 </text>
<text text-anchor="middle" x="743.9591" y="-16.8156" font-family="Times,serif" font-size="14.00" fill="#000000">BLANK</text>
</g>
<!-- s194&#45;&gt;s199 -->
<g id="edge7" class="edge">
<title>s194:p1&#45;&gt;s199</title>
<path fill="none" stroke="#000000" d="M541.9569,-52.4156C592.3922,-52.4156 649.4587,-45.25 690.0406,-38.918"/>
<polygon fill="#000000" stroke="#000000" points="690.6651,-42.3627 699.9888,-37.3309 689.5623,-35.4501 690.6651,-42.3627"/>
</g>
<!-- s196 -->
<g id="node6" class="node">
<title>s196</title>
<ellipse fill="none" stroke="#000000" cx="875.5906" cy="-228.4156" rx="68.4585" ry="29.3315"/>
<text text-anchor="middle" x="875.5906" y="-232.6156" font-family="Times,serif" font-size="14.00" fill="#000000">s196 STRING</text>
<text text-anchor="middle" x="875.5906" y="-215.8156" font-family="Times,serif" font-size="14.00" fill="#000000">&quot;var&quot;</text>
</g>
<!-- s195&#45;&gt;s196 -->
<g id="edge3" class="edge">
<title>s195:p0&#45;&gt;s196</title>
<path fill="none" stroke="#000000" d="M670.7567,-161.4156C670.7567,-217.0072 739.7548,-230.6384 797.6599,-232.2898"/>
<polygon fill="#000000" stroke="#000000" points="797.8948,-235.7942 807.9526,-232.4642 798.0134,-228.7952 797.8948,-235.7942"/>
<text text-anchor="middle" x="743.9591" y="-235.6156" font-family="Times,serif" font-size="14.00" fill="#000000">var</text>
</g>
<!-- s197 -->
<g id="node7" class="node">
<title>s197</title>
<ellipse fill="none" stroke="#000000" cx="875.5906" cy="-151.4156" rx="68.4585" ry="29.3315"/>
<text text-anchor="middle" x="875.5906" y="-155.6156" font-family="Times,serif" font-size="14.00" fill="#000000">s197 STRING</text>
<text text-anchor="middle" x="875.5906" y="-138.8156" font-family="Times,serif" font-size="14.00" fill="#000000">&quot;let&quot;</text>
</g>
<!-- s195&#45;&gt;s197 -->
<g id="edge4" class="edge">
<title>s195:p1&#45;&gt;s197</title>
<path fill="none" stroke="#000000" d="M680.5565,-124.4156C721.6442,-124.4156 767.1448,-130.368 803.8563,-136.6831"/>
<polygon fill="#000000" stroke="#000000" points="803.5104,-140.1761 813.9668,-138.4692 804.7282,-133.2828 803.5104,-140.1761"/>
<text text-anchor="middle" x="743.9591" y="-137.6156" font-family="Times,serif" font-size="14.00" fill="#000000">let</text>
</g>
<!-- s198 -->
<g id="node8" class="node">
<title>s198</title>
<ellipse fill="none" stroke="#000000" cx="875.5906" cy="-74.4156" rx="68.4585" ry="29.3315"/>
<text text-anchor="middle" x="875.5906" y="-78.6156" font-family="Times,serif" font-size="14.00" fill="#000000">s198 STRING</text>
<text text-anchor="middle" x="875.5906" y="-61.8156" font-family="Times,serif" font-size="14.00" fill="#000000">&quot;const&quot;</text>
</g>
<!-- s195&#45;&gt;s198 -->
<g id="edge5" class="edge">
<title>s195:p2&#45;&gt;s198</title>
<path fill="none" stroke="#000000" d="M680.5565,-99.4156C721.277,-99.4156 766.3946,-93.9877 802.9704,-88.1903"/>
<polygon fill="#000000" stroke="#000000" points="803.7418,-91.6109 813.0495,-86.5495 802.617,-84.7018 803.7418,-91.6109"/>
<text text-anchor="middle" x="743.9591" y="-103.6156" font-family="Times,serif" font-size="14.00" fill="#000000">const</text>
</g>
<!-- s200 -->
<g id="node10" class="node">
<title>s200</title>
<polygon fill="none" stroke="#000000" points="980.8195,-87.6156 980.8195,-137.2156 1082.4191,-137.2156 1082.4191,-87.6156 980.8195,-87.6156"/>
<text text-anchor="middle" x="1021.8693" y="-116.6156" font-family="Times,serif" font-size="14.00" fill="#000000">s200</text>
<text text-anchor="middle" x="1021.8693" y="-99.8156" font-family="Times,serif" font-size="14.00" fill="#000000">→ CHOICE</text>
<polyline fill="none" stroke="#000000" points="1062.9191,-87.6156 1062.9191,-137.2156 "/>
<text text-anchor="middle" x="1072.6691" y="-120.6156" font-family="Times,serif" font-size="14.00" fill="#000000"> </text>
<polyline fill="none" stroke="#000000" points="1062.9191,-112.4156 1082.4191,-112.4156 "/>
<text text-anchor="middle" x="1072.6691" y="-95.8156" font-family="Times,serif" font-size="14.00" fill="#000000"> </text>
</g>
<!-- s196&#45;&gt;s200 -->
<g id="edge11" class="edge">
<title>s196&#45;&gt;s200</title>
<path fill="none" stroke="#000000" d="M918.6307,-205.5648C927.1732,-200.5462 935.9332,-195.0412 943.8195,-189.4156 962.8265,-175.8573 982.4997,-158.9161 998.3937,-144.3791"/>
<polygon fill="#000000" stroke="#000000" points="1000.9084,-146.8207 1005.8731,-137.4611 996.1553,-141.6818 1000.9084,-146.8207"/>
</g>
<!-- s197&#45;&gt;s200 -->
<g id="edge12" class="edge">
<title>s197&#45;&gt;s200</title>
<path fill="none" stroke="#000000" d="M935.0235,-136.5602C946.7977,-133.6171 959.1716,-130.5242 970.9852,-127.5714"/>
<polygon fill="#000000" stroke="#000000" points="971.8987,-130.9508 980.7515,-125.1303 970.2012,-124.1597 971.8987,-130.9508"/>
</g>
<!-- s198&#45;&gt;s200 -->
<g id="edge13" class="edge">
<title>s198&#45;&gt;s200</title>
<path fill="none" stroke="#000000" d="M935.0235,-88.8902C946.7977,-91.7578 959.1716,-94.7714 970.9852,-97.6485"/>
<polygon fill="#000000" stroke="#000000" points="970.2072,-101.0613 980.7515,-100.027 971.8637,-94.2601 970.2072,-101.0613"/>
</g>
<!-- s199&#45;&gt;s200 -->
<g id="edge14" class="edge">
<title>s199&#45;&gt;s200</title>
<path fill="none" stroke="#000000" d="M788.5454,-22.7217C830.2185,-18.3474 893.4064,-16.6155 943.8195,-36.4156 967.2523,-45.619 988.7156,-63.9273 1004.5552,-80.268"/>
<polygon fill="#000000" stroke="#000000" points="1002.0322,-82.6942 1011.424,-87.5977 1007.1399,-77.9076 1002.0322,-82.6942"/>
</g>
<!-- s201 -->
<g id="node11" class="node">
<title>s201</title>
<g id="a_node11"><a xlink:href="javascript-grammar.json.identifier.dot.svg" xlink:title="s201 SYMBOL\nidentifier">
<ellipse fill="none" stroke="#000000" cx="1346.0878" cy="-151.4156" rx="73.9667" ry="29.3315"/>
<text text-anchor="middle" x="1346.0878" y="-155.6156" font-family="Times,serif" font-size="14.00" fill="#000000">s201 SYMBOL</text>
<text text-anchor="middle" x="1346.0878" y="-138.8156" font-family="Times,serif" font-size="14.00" fill="#000000">identifier</text>
</a>
</g>
</g>
<!-- s200&#45;&gt;s201 -->
<g id="edge9" class="edge">
<title>s200:p0&#45;&gt;s201</title>
<path fill="none" stroke="#000000" d="M1082.4191,-124.4156C1144.7553,-124.4156 1214.9521,-131.9763 1267.2344,-139.0959"/>
<polygon fill="#000000" stroke="#000000" points="1267.0585,-142.6049 1277.4444,-140.5115 1268.0199,-135.6712 1267.0585,-142.6049"/>
<text text-anchor="middle" x="1163.788" y="-137.6156" font-family="Times,serif" font-size="14.00" fill="#000000">identifier</text>
</g>
<!-- s202 -->
<g id="node12" class="node">
<title>s202</title>
<g id="a_node12"><a xlink:href="javascript-grammar.json._destructuring_pattern.dot.svg" xlink:title="s202 SYMBOL\n_destructuring_pattern">
<ellipse fill="none" stroke="#000000" cx="1346.0878" cy="-74.4156" rx="100.8618" ry="29.3315"/>
<text text-anchor="middle" x="1346.0878" y="-78.6156" font-family="Times,serif" font-size="14.00" fill="#000000">s202 SYMBOL</text>
<text text-anchor="middle" x="1346.0878" y="-61.8156" font-family="Times,serif" font-size="14.00" fill="#000000">_destructuring_pattern</text>
</a>
</g>
</g>
<!-- s200&#45;&gt;s202 -->
<g id="edge10" class="edge">
<title>s200:p1&#45;&gt;s202</title>
<path fill="none" stroke="#000000" d="M1082.4191,-100.4156C1136.6408,-100.4156 1196.8332,-94.9029 1246.0012,-88.9543"/>
<polygon fill="#000000" stroke="#000000" points="1246.5047,-92.4188 1256.0007,-87.7203 1245.6473,-85.4715 1246.5047,-92.4188"/>
<text text-anchor="middle" x="1163.788" y="-104.6156" font-family="Times,serif" font-size="14.00" fill="#000000">_destructuring_pattern</text>
</g>
<!-- s203 -->
<g id="node13" class="node">
<title>s203</title>
<ellipse fill="none" stroke="#000000" cx="1552.2475" cy="-112.4156" rx="68.4585" ry="29.3315"/>
<text text-anchor="middle" x="1552.2475" y="-116.6156" font-family="Times,serif" font-size="14.00" fill="#000000">s203 STRING</text>
<text text-anchor="middle" x="1552.2475" y="-99.8156" font-family="Times,serif" font-size="14.00" fill="#000000">&quot;in&quot;</text>
</g>
<!-- s201&#45;&gt;s203 -->
<g id="edge15" class="edge">
<title>s201&#45;&gt;s203</title>
<path fill="none" stroke="#000000" d="M1412.7372,-138.8073C1434.1609,-134.7545 1457.9939,-130.2459 1479.8121,-126.1185"/>
<polygon fill="#000000" stroke="#000000" points="1480.5039,-129.5498 1489.679,-124.252 1479.2027,-122.6718 1480.5039,-129.5498"/>
</g>
<!-- s202&#45;&gt;s203 -->
<g id="edge16" class="edge">
<title>s202&#45;&gt;s203</title>
<path fill="none" stroke="#000000" d="M1431.429,-90.146C1447.331,-93.0771 1463.8137,-96.1152 1479.3013,-98.97"/>
<polygon fill="#000000" stroke="#000000" points="1478.8504,-102.4457 1489.3192,-100.8165 1480.1193,-95.5617 1478.8504,-102.4457"/>
</g>
<!-- s204 -->
<g id="node14" class="node">
<title>s204</title>
<g id="a_node14"><a xlink:href="javascript-grammar.json._expressions.dot.svg" xlink:title="s204 SYMBOL\n_expressions">
<ellipse fill="none" stroke="#000000" cx="1731.2094" cy="-112.4156" rx="73.9667" ry="29.3315"/>
<text text-anchor="middle" x="1731.2094" y="-116.6156" font-family="Times,serif" font-size="14.00" fill="#000000">s204 SYMBOL</text>
<text text-anchor="middle" x="1731.2094" y="-99.8156" font-family="Times,serif" font-size="14.00" fill="#000000">_expressions</text>
</a>
</g>
</g>
<!-- s203&#45;&gt;s204 -->
<g id="edge17" class="edge">
<title>s203&#45;&gt;s204</title>
<path fill="none" stroke="#000000" d="M1620.6713,-112.4156C1629.418,-112.4156 1638.4492,-112.4156 1647.4042,-112.4156"/>
<polygon fill="#000000" stroke="#000000" points="1647.4633,-115.9157 1657.4633,-112.4156 1647.4632,-108.9157 1647.4633,-115.9157"/>
</g>
<!-- s205 -->
<g id="node15" class="node">
<title>s205</title>
<ellipse fill="none" stroke="#000000" cx="1910.1712" cy="-112.4156" rx="68.4585" ry="29.3315"/>
<text text-anchor="middle" x="1910.1712" y="-116.6156" font-family="Times,serif" font-size="14.00" fill="#000000">s205 STRING</text>
<text text-anchor="middle" x="1910.1712" y="-99.8156" font-family="Times,serif" font-size="14.00" fill="#000000">&quot;)&quot;</text>
</g>
<!-- s204&#45;&gt;s205 -->
<g id="edge18" class="edge">
<title>s204&#45;&gt;s205</title>
<path fill="none" stroke="#000000" d="M1805.0332,-112.4156C1813.7529,-112.4156 1822.6773,-112.4156 1831.4612,-112.4156"/>
<polygon fill="#000000" stroke="#000000" points="1831.6875,-115.9157 1841.6875,-112.4156 1831.6874,-108.9157 1831.6875,-115.9157"/>
</g>
<!-- s206 -->
<g id="node16" class="node">
<title>s206</title>
<g id="a_node16"><a xlink:href="javascript-grammar.json._statement.dot.svg" xlink:title="s206 SYMBOL\n_statement">
<ellipse fill="none" stroke="#000000" cx="2089.1331" cy="-112.4156" rx="73.9667" ry="29.3315"/>
<text text-anchor="middle" x="2089.1331" y="-116.6156" font-family="Times,serif" font-size="14.00" fill="#000000">s206 SYMBOL</text>
<text text-anchor="middle" x="2089.1331" y="-99.8156" font-family="Times,serif" font-size="14.00" fill="#000000">_statement</text>
</a>
</g>
</g>
<!-- s205&#45;&gt;s206 -->
<g id="edge19" class="edge">
<title>s205&#45;&gt;s206</title>
<path fill="none" stroke="#000000" d="M1978.5951,-112.4156C1987.3417,-112.4156 1996.3729,-112.4156 2005.328,-112.4156"/>
<polygon fill="#000000" stroke="#000000" points="2005.387,-115.9157 2015.387,-112.4156 2005.387,-108.9157 2005.387,-115.9157"/>
</g>
</g>
</svg>
