<?xml version="1.0" encoding="UTF-8" standalone="no"?>
<!DOCTYPE svg PUBLIC "-//W3C//DTD SVG 1.1//EN"
 "http://www.w3.org/Graphics/SVG/1.1/DTD/svg11.dtd">
<!-- Generated by graphviz version 2.40.1 (20161225.0304)
 -->
<!-- Title: _identifier_reference Pages: 1 -->
<svg width="563pt" height="136pt"
 viewBox="0.00 0.00 563.42 135.83" xmlns="http://www.w3.org/2000/svg" xmlns:xlink="http://www.w3.org/1999/xlink">
<g id="graph0" class="graph" transform="scale(1 1) rotate(0) translate(4 131.8313)">
<title>_identifier_reference</title>
<polygon fill="#ffffff" stroke="transparent" points="-4,4 -4,-131.8313 559.4194,-131.8313 559.4194,4 -4,4"/>
<!-- s810 -->
<g id="node1" class="node">
<title>s810</title>
<polygon fill="none" stroke="#000000" points="0,-39.6156 0,-89.2156 101.5996,-89.2156 101.5996,-39.6156 0,-39.6156"/>
<text text-anchor="middle" x="41.0498" y="-68.6156" font-family="Times,serif" font-size="14.00" fill="#000000">s810</text>
<text text-anchor="middle" x="41.0498" y="-51.8156" font-family="Times,serif" font-size="14.00" fill="#000000">→ CHOICE</text>
<polyline fill="none" stroke="#000000" points="82.0996,-39.6156 82.0996,-89.2156 "/>
<text text-anchor="middle" x="91.8496" y="-72.6156" font-family="Times,serif" font-size="14.00" fill="#000000"> </text>
<polyline fill="none" stroke="#000000" points="82.0996,-64.4156 101.5996,-64.4156 "/>
<text text-anchor="middle" x="91.8496" y="-47.8156" font-family="Times,serif" font-size="14.00" fill="#000000"> </text>
</g>
<!-- s811 -->
<g id="node2" class="node">
<title>s811</title>
<g id="a_node2"><a xlink:href="javascript-grammar.json.identifier.dot.svg" xlink:title="s811 SYMBOL\nidentifier">
<ellipse fill="none" stroke="#000000" cx="262.6454" cy="-98.4156" rx="73.9667" ry="29.3315"/>
<text text-anchor="middle" x="262.6454" y="-102.6156" font-family="Times,serif" font-size="14.00" fill="#000000">s811 SYMBOL</text>
<text text-anchor="middle" x="262.6454" y="-85.8156" font-family="Times,serif" font-size="14.00" fill="#000000">identifier</text>
</a>
</g>
</g>
<!-- s810&#45;&gt;s811 -->
<g id="edge1" class="edge">
<title>s810:p0&#45;&gt;s811</title>
<path fill="none" stroke="#000000" d="M101.5996,-76.4156C129.3744,-76.4156 159.5978,-79.6677 186.2811,-83.6712"/>
<polygon fill="#000000" stroke="#000000" points="185.9021,-87.1543 196.322,-85.2371 186.9808,-80.2379 185.9021,-87.1543"/>
<text text-anchor="middle" x="145.256" y="-84.6156" font-family="Times,serif" font-size="14.00" fill="#000000">identifier</text>
</g>
<!-- s812 -->
<g id="node3" class="node">
<title>s812</title>
<polygon fill="none" stroke="#000000" points="227.0409,-8.6156 227.0409,-50.2156 298.2499,-50.2156 298.2499,-8.6156 227.0409,-8.6156"/>
<text text-anchor="middle" x="262.6454" y="-33.6156" font-family="Times,serif" font-size="14.00" fill="#000000">s812</text>
<text text-anchor="middle" x="262.6454" y="-16.8156" font-family="Times,serif" font-size="14.00" fill="#000000">→ ALIAS</text>
</g>
<!-- s810&#45;&gt;s812 -->
<g id="edge3" class="edge">
<title>s810:p1&#45;&gt;s812</title>
<path fill="none" stroke="#000000" d="M101.5996,-52.4156C140.8464,-52.4156 184.9376,-45.6387 217.05,-39.4421"/>
<polygon fill="#000000" stroke="#000000" points="217.9069,-42.8404 227.0339,-37.4599 216.5437,-35.9744 217.9069,-42.8404"/>
<text text-anchor="middle" x="145.256" y="-56.6156" font-family="Times,serif" font-size="14.00" fill="#000000">identifier</text>
</g>
<!-- s813 -->
<g id="node4" class="node">
<title>s813</title>
<g id="a_node4"><a xlink:href="javascript-grammar.json._reserved_identifier.dot.svg" xlink:title="s813 SYMBOL\n_reserved_identifier">
<ellipse fill="none" stroke="#000000" cx="464.3989" cy="-29.4156" rx="91.041" ry="29.3315"/>
<text text-anchor="middle" x="464.3989" y="-33.6156" font-family="Times,serif" font-size="14.00" fill="#000000">s813 SYMBOL</text>
<text text-anchor="middle" x="464.3989" y="-16.8156" font-family="Times,serif" font-size="14.00" fill="#000000">_reserved_identifier</text>
</a>
</g>
</g>
<!-- s812&#45;&gt;s813 -->
<g id="edge2" class="edge">
<title>s812&#45;&gt;s813</title>
<path fill="none" stroke="#000000" d="M298.2504,-29.4156C316.4806,-29.4156 339.6949,-29.4156 362.9497,-29.4156"/>
<polygon fill="#000000" stroke="#000000" points="363.2602,-32.9157 373.2602,-29.4156 363.2602,-25.9157 363.2602,-32.9157"/>
</g>
</g>
</svg>
