<?xml version="1.0" encoding="UTF-8" standalone="no"?>
<!DOCTYPE svg PUBLIC "-//W3C//DTD SVG 1.1//EN"
 "http://www.w3.org/Graphics/SVG/1.1/DTD/svg11.dtd">
<!-- Generated by graphviz version 2.40.1 (20161225.0304)
 -->
<!-- Title: jsx_closing_element Pages: 1 -->
<svg width="799pt" height="67pt"
 viewBox="0.00 0.00 798.79 66.83" xmlns="http://www.w3.org/2000/svg" xmlns:xlink="http://www.w3.org/1999/xlink">
<g id="graph0" class="graph" transform="scale(1 1) rotate(0) translate(4 62.8313)">
<title>jsx_closing_element</title>
<polygon fill="#ffffff" stroke="transparent" points="-4,4 -4,-62.8313 794.7928,-62.8313 794.7928,4 -4,4"/>
<!-- s443 -->
<g id="node1" class="node">
<title>s443</title>
<polygon fill="none" stroke="#000000" points="0,-8.6156 0,-50.2156 56.4418,-50.2156 56.4418,-8.6156 0,-8.6156"/>
<text text-anchor="middle" x="28.2209" y="-33.6156" font-family="Times,serif" font-size="14.00" fill="#000000">s443</text>
<text text-anchor="middle" x="28.2209" y="-16.8156" font-family="Times,serif" font-size="14.00" fill="#000000">→ SEQ</text>
</g>
<!-- s444 -->
<g id="node2" class="node">
<title>s444</title>
<ellipse fill="none" stroke="#000000" cx="160.6707" cy="-29.4156" rx="68.4585" ry="29.3315"/>
<text text-anchor="middle" x="160.6707" y="-33.6156" font-family="Times,serif" font-size="14.00" fill="#000000">s444 STRING</text>
<text text-anchor="middle" x="160.6707" y="-16.8156" font-family="Times,serif" font-size="14.00" fill="#000000">&quot;&lt;&quot;</text>
</g>
<!-- s443&#45;&gt;s444 -->
<g id="edge1" class="edge">
<title>s443&#45;&gt;s444</title>
<path fill="none" stroke="#000000" d="M56.6347,-29.4156C64.3113,-29.4156 73.0073,-29.4156 82.0218,-29.4156"/>
<polygon fill="#000000" stroke="#000000" points="82.2976,-32.9157 92.2975,-29.4156 82.2975,-25.9157 82.2976,-32.9157"/>
</g>
<!-- s445 -->
<g id="node3" class="node">
<title>s445</title>
<ellipse fill="none" stroke="#000000" cx="333.1284" cy="-29.4156" rx="68.4585" ry="29.3315"/>
<text text-anchor="middle" x="333.1284" y="-33.6156" font-family="Times,serif" font-size="14.00" fill="#000000">s445 STRING</text>
<text text-anchor="middle" x="333.1284" y="-16.8156" font-family="Times,serif" font-size="14.00" fill="#000000">&quot;/&quot;</text>
</g>
<!-- s444&#45;&gt;s445 -->
<g id="edge2" class="edge">
<title>s444&#45;&gt;s445</title>
<path fill="none" stroke="#000000" d="M229.3261,-29.4156C237.6067,-29.4156 246.1132,-29.4156 254.5222,-29.4156"/>
<polygon fill="#000000" stroke="#000000" points="254.7093,-32.9157 264.7092,-29.4156 254.7092,-25.9157 254.7093,-32.9157"/>
</g>
<!-- s446 -->
<g id="node4" class="node">
<title>s446</title>
<g id="a_node4"><a xlink:href="javascript-grammar.json._jsx_element_name.dot.svg" xlink:title="s446 SYMBOL\n_jsx_element_name">
<ellipse fill="none" stroke="#000000" cx="527.8462" cy="-29.4156" rx="90.4778" ry="29.3315"/>
<text text-anchor="middle" x="527.8462" y="-33.6156" font-family="Times,serif" font-size="14.00" fill="#000000">s446 SYMBOL</text>
<text text-anchor="middle" x="527.8462" y="-16.8156" font-family="Times,serif" font-size="14.00" fill="#000000">_jsx_element_name</text>
</a>
</g>
</g>
<!-- s445&#45;&gt;s446 -->
<g id="edge3" class="edge">
<title>s445&#45;&gt;s446</title>
<path fill="none" stroke="#000000" d="M401.5048,-29.4156C409.7748,-29.4156 418.3518,-29.4156 426.9656,-29.4156"/>
<polygon fill="#000000" stroke="#000000" points="427.0783,-32.9157 437.0782,-29.4156 427.0782,-25.9157 427.0783,-32.9157"/>
</g>
<!-- s447 -->
<g id="node5" class="node">
<title>s447</title>
<ellipse fill="none" stroke="#000000" cx="722.5639" cy="-29.4156" rx="68.4585" ry="29.3315"/>
<text text-anchor="middle" x="722.5639" y="-33.6156" font-family="Times,serif" font-size="14.00" fill="#000000">s447 STRING</text>
<text text-anchor="middle" x="722.5639" y="-16.8156" font-family="Times,serif" font-size="14.00" fill="#000000">&quot;&gt;&quot;</text>
</g>
<!-- s446&#45;&gt;s447 -->
<g id="edge4" class="edge">
<title>s446&#45;&gt;s447</title>
<path fill="none" stroke="#000000" d="M618.3645,-29.4156C626.9079,-29.4156 635.522,-29.4156 643.9417,-29.4156"/>
<polygon fill="#000000" stroke="#000000" points="644.0978,-32.9157 654.0977,-29.4156 644.0977,-25.9157 644.0978,-32.9157"/>
</g>
</g>
</svg>
