<?xml version="1.0" encoding="UTF-8" standalone="no"?>
<!DOCTYPE svg PUBLIC "-//W3C//DTD SVG 1.1//EN"
 "http://www.w3.org/Graphics/SVG/1.1/DTD/svg11.dtd">
<!-- Generated by graphviz version 2.40.1 (20161225.0304)
 -->
<!-- Title: _statement Pages: 1 -->
<svg width="459pt" height="1607pt"
 viewBox="0.00 0.00 459.19 1606.83" xmlns="http://www.w3.org/2000/svg" xmlns:xlink="http://www.w3.org/1999/xlink">
<g id="graph0" class="graph" transform="scale(1 1) rotate(0) translate(4 1602.8313)">
<title>_statement</title>
<polygon fill="#ffffff" stroke="transparent" points="-4,4 -4,-1602.8313 455.189,-1602.8313 455.189,4 -4,4"/>
<!-- s113 -->
<g id="node1" class="node">
<title>s113</title>
<polygon fill="none" stroke="#000000" points="0,-539.0156 0,-1059.8156 101.5996,-1059.8156 101.5996,-539.0156 0,-539.0156"/>
<text text-anchor="middle" x="41.0498" y="-803.6156" font-family="Times,serif" font-size="14.00" fill="#000000">s113</text>
<text text-anchor="middle" x="41.0498" y="-786.8156" font-family="Times,serif" font-size="14.00" fill="#000000">→ CHOICE</text>
<polyline fill="none" stroke="#000000" points="82.0996,-539.0156 82.0996,-1059.8156 "/>
<text text-anchor="middle" x="91.8496" y="-1043.2156" font-family="Times,serif" font-size="14.00" fill="#000000"> </text>
<polyline fill="none" stroke="#000000" points="82.0996,-1035.0156 101.5996,-1035.0156 "/>
<text text-anchor="middle" x="91.8496" y="-1018.4156" font-family="Times,serif" font-size="14.00" fill="#000000"> </text>
<polyline fill="none" stroke="#000000" points="82.0996,-1010.2156 101.5996,-1010.2156 "/>
<text text-anchor="middle" x="91.8496" y="-993.6156" font-family="Times,serif" font-size="14.00" fill="#000000"> </text>
<polyline fill="none" stroke="#000000" points="82.0996,-985.4156 101.5996,-985.4156 "/>
<text text-anchor="middle" x="91.8496" y="-968.8156" font-family="Times,serif" font-size="14.00" fill="#000000"> </text>
<polyline fill="none" stroke="#000000" points="82.0996,-960.6156 101.5996,-960.6156 "/>
<text text-anchor="middle" x="91.8496" y="-944.0156" font-family="Times,serif" font-size="14.00" fill="#000000"> </text>
<polyline fill="none" stroke="#000000" points="82.0996,-935.8156 101.5996,-935.8156 "/>
<text text-anchor="middle" x="91.8496" y="-919.2156" font-family="Times,serif" font-size="14.00" fill="#000000"> </text>
<polyline fill="none" stroke="#000000" points="82.0996,-911.0156 101.5996,-911.0156 "/>
<text text-anchor="middle" x="91.8496" y="-894.4156" font-family="Times,serif" font-size="14.00" fill="#000000"> </text>
<polyline fill="none" stroke="#000000" points="82.0996,-886.2156 101.5996,-886.2156 "/>
<text text-anchor="middle" x="91.8496" y="-869.6156" font-family="Times,serif" font-size="14.00" fill="#000000"> </text>
<polyline fill="none" stroke="#000000" points="82.0996,-861.4156 101.5996,-861.4156 "/>
<text text-anchor="middle" x="91.8496" y="-844.8156" font-family="Times,serif" font-size="14.00" fill="#000000"> </text>
<polyline fill="none" stroke="#000000" points="82.0996,-836.6156 101.5996,-836.6156 "/>
<text text-anchor="middle" x="91.8496" y="-820.0156" font-family="Times,serif" font-size="14.00" fill="#000000"> </text>
<polyline fill="none" stroke="#000000" points="82.0996,-811.8156 101.5996,-811.8156 "/>
<text text-anchor="middle" x="91.8496" y="-795.2156" font-family="Times,serif" font-size="14.00" fill="#000000"> </text>
<polyline fill="none" stroke="#000000" points="82.0996,-787.0156 101.5996,-787.0156 "/>
<text text-anchor="middle" x="91.8496" y="-770.4156" font-family="Times,serif" font-size="14.00" fill="#000000"> </text>
<polyline fill="none" stroke="#000000" points="82.0996,-762.2156 101.5996,-762.2156 "/>
<text text-anchor="middle" x="91.8496" y="-745.6156" font-family="Times,serif" font-size="14.00" fill="#000000"> </text>
<polyline fill="none" stroke="#000000" points="82.0996,-737.4156 101.5996,-737.4156 "/>
<text text-anchor="middle" x="91.8496" y="-720.8156" font-family="Times,serif" font-size="14.00" fill="#000000"> </text>
<polyline fill="none" stroke="#000000" points="82.0996,-712.6156 101.5996,-712.6156 "/>
<text text-anchor="middle" x="91.8496" y="-696.0156" font-family="Times,serif" font-size="14.00" fill="#000000"> </text>
<polyline fill="none" stroke="#000000" points="82.0996,-687.8156 101.5996,-687.8156 "/>
<text text-anchor="middle" x="91.8496" y="-671.2156" font-family="Times,serif" font-size="14.00" fill="#000000"> </text>
<polyline fill="none" stroke="#000000" points="82.0996,-663.0156 101.5996,-663.0156 "/>
<text text-anchor="middle" x="91.8496" y="-646.4156" font-family="Times,serif" font-size="14.00" fill="#000000"> </text>
<polyline fill="none" stroke="#000000" points="82.0996,-638.2156 101.5996,-638.2156 "/>
<text text-anchor="middle" x="91.8496" y="-621.6156" font-family="Times,serif" font-size="14.00" fill="#000000"> </text>
<polyline fill="none" stroke="#000000" points="82.0996,-613.4156 101.5996,-613.4156 "/>
<text text-anchor="middle" x="91.8496" y="-596.8156" font-family="Times,serif" font-size="14.00" fill="#000000"> </text>
<polyline fill="none" stroke="#000000" points="82.0996,-588.6156 101.5996,-588.6156 "/>
<text text-anchor="middle" x="91.8496" y="-572.0156" font-family="Times,serif" font-size="14.00" fill="#000000"> </text>
<polyline fill="none" stroke="#000000" points="82.0996,-563.8156 101.5996,-563.8156 "/>
<text text-anchor="middle" x="91.8496" y="-547.2156" font-family="Times,serif" font-size="14.00" fill="#000000"> </text>
</g>
<!-- s114 -->
<g id="node2" class="node">
<title>s114</title>
<g id="a_node2"><a xlink:href="javascript-grammar.json.export_statement.dot.svg" xlink:title="s114 SYMBOL\nexport_statement">
<ellipse fill="none" stroke="#000000" cx="354.6545" cy="-1569.4156" rx="79.4811" ry="29.3315"/>
<text text-anchor="middle" x="354.6545" y="-1573.6156" font-family="Times,serif" font-size="14.00" fill="#000000">s114 SYMBOL</text>
<text text-anchor="middle" x="354.6545" y="-1556.8156" font-family="Times,serif" font-size="14.00" fill="#000000">export_statement</text>
</a>
</g>
</g>
<!-- s113&#45;&gt;s114 -->
<g id="edge1" class="edge">
<title>s113:p0&#45;&gt;s114</title>
<path fill="none" stroke="#000000" d="M91.7998,-1059.4156C91.7998,-1084.6297 103.4124,-1493.0837 119.5996,-1512.4156 154.6657,-1554.2942 214.7837,-1568.3307 265.4415,-1572.007"/>
<polygon fill="#000000" stroke="#000000" points="265.2442,-1575.5013 275.4367,-1572.6092 265.6654,-1568.514 265.2442,-1575.5013"/>
<text text-anchor="middle" x="179.8598" y="-1572.6156" font-family="Times,serif" font-size="14.00" fill="#000000">export_statement</text>
</g>
<!-- s115 -->
<g id="node3" class="node">
<title>s115</title>
<g id="a_node3"><a xlink:href="javascript-grammar.json.import_statement.dot.svg" xlink:title="s115 SYMBOL\nimport_statement">
<ellipse fill="none" stroke="#000000" cx="354.6545" cy="-1492.4156" rx="80.6967" ry="29.3315"/>
<text text-anchor="middle" x="354.6545" y="-1496.6156" font-family="Times,serif" font-size="14.00" fill="#000000">s115 SYMBOL</text>
<text text-anchor="middle" x="354.6545" y="-1479.8156" font-family="Times,serif" font-size="14.00" fill="#000000">import_statement</text>
</a>
</g>
</g>
<!-- s113&#45;&gt;s115 -->
<g id="edge2" class="edge">
<title>s113:p1&#45;&gt;s115</title>
<path fill="none" stroke="#000000" d="M101.5996,-1022.4156C124.5103,-1022.4156 105.0821,-1416.6916 119.5996,-1434.4156 154.0572,-1476.4841 213.7201,-1490.8454 264.3117,-1494.76"/>
<polygon fill="#000000" stroke="#000000" points="264.093,-1498.2531 274.2989,-1495.4088 264.5468,-1491.2678 264.093,-1498.2531"/>
<text text-anchor="middle" x="179.8598" y="-1495.6156" font-family="Times,serif" font-size="14.00" fill="#000000">import_statement</text>
</g>
<!-- s116 -->
<g id="node4" class="node">
<title>s116</title>
<g id="a_node4"><a xlink:href="javascript-grammar.json.debugger_statement.dot.svg" xlink:title="s116 SYMBOL\ndebugger_statement">
<ellipse fill="none" stroke="#000000" cx="354.6545" cy="-1415.4156" rx="91.0667" ry="29.3315"/>
<text text-anchor="middle" x="354.6545" y="-1419.6156" font-family="Times,serif" font-size="14.00" fill="#000000">s116 SYMBOL</text>
<text text-anchor="middle" x="354.6545" y="-1402.8156" font-family="Times,serif" font-size="14.00" fill="#000000">debugger_statement</text>
</a>
</g>
</g>
<!-- s113&#45;&gt;s116 -->
<g id="edge3" class="edge">
<title>s113:p2&#45;&gt;s116</title>
<path fill="none" stroke="#000000" d="M101.5996,-997.4156C141.5386,-997.4156 94.2545,-1325.549 119.5996,-1356.4156 151.693,-1395.5008 205.469,-1410.8896 253.4908,-1416.2178"/>
<polygon fill="#000000" stroke="#000000" points="253.3486,-1419.7204 263.6409,-1417.207 254.0276,-1412.7534 253.3486,-1419.7204"/>
<text text-anchor="middle" x="179.8598" y="-1417.6156" font-family="Times,serif" font-size="14.00" fill="#000000">debugger_statement</text>
</g>
<!-- s117 -->
<g id="node5" class="node">
<title>s117</title>
<g id="a_node5"><a xlink:href="javascript-grammar.json.expression_statement.dot.svg" xlink:title="s117 SYMBOL\nexpression_statement">
<ellipse fill="none" stroke="#000000" cx="354.6545" cy="-1338.4156" rx="96.569" ry="29.3315"/>
<text text-anchor="middle" x="354.6545" y="-1342.6156" font-family="Times,serif" font-size="14.00" fill="#000000">s117 SYMBOL</text>
<text text-anchor="middle" x="354.6545" y="-1325.8156" font-family="Times,serif" font-size="14.00" fill="#000000">expression_statement</text>
</a>
</g>
</g>
<!-- s113&#45;&gt;s117 -->
<g id="edge4" class="edge">
<title>s113:p3&#45;&gt;s117</title>
<path fill="none" stroke="#000000" d="M101.5996,-973.4156C135.4365,-973.4156 98.113,-1251.2763 119.5996,-1277.4156 150.5272,-1315.0404 201.408,-1331.1298 247.9358,-1337.4581"/>
<polygon fill="#000000" stroke="#000000" points="247.7475,-1340.961 258.0978,-1338.6982 248.5954,-1334.0126 247.7475,-1340.961"/>
<text text-anchor="middle" x="179.8598" y="-1339.6156" font-family="Times,serif" font-size="14.00" fill="#000000">expression_statement</text>
</g>
<!-- s118 -->
<g id="node6" class="node">
<title>s118</title>
<g id="a_node6"><a xlink:href="javascript-grammar.json._declaration.dot.svg" xlink:title="s118 SYMBOL\n_declaration">
<ellipse fill="none" stroke="#000000" cx="354.6545" cy="-1261.4156" rx="73.9667" ry="29.3315"/>
<text text-anchor="middle" x="354.6545" y="-1265.6156" font-family="Times,serif" font-size="14.00" fill="#000000">s118 SYMBOL</text>
<text text-anchor="middle" x="354.6545" y="-1248.8156" font-family="Times,serif" font-size="14.00" fill="#000000">_declaration</text>
</a>
</g>
</g>
<!-- s113&#45;&gt;s118 -->
<g id="edge5" class="edge">
<title>s113:p4&#45;&gt;s118</title>
<path fill="none" stroke="#000000" d="M101.5996,-948.4156C129.2276,-948.4156 102.0831,-1175.0502 119.5996,-1196.4156 155.713,-1240.4642 218.7839,-1256.1673 270.5061,-1261.152"/>
<polygon fill="#000000" stroke="#000000" points="270.4289,-1264.6579 280.6879,-1262.0113 271.0176,-1257.6827 270.4289,-1264.6579"/>
<text text-anchor="middle" x="179.8598" y="-1260.6156" font-family="Times,serif" font-size="14.00" fill="#000000">_declaration</text>
</g>
<!-- s119 -->
<g id="node7" class="node">
<title>s119</title>
<g id="a_node7"><a xlink:href="javascript-grammar.json.statement_block.dot.svg" xlink:title="s119 SYMBOL\nstatement_block">
<ellipse fill="none" stroke="#000000" cx="354.6545" cy="-1184.4156" rx="76.3905" ry="29.3315"/>
<text text-anchor="middle" x="354.6545" y="-1188.6156" font-family="Times,serif" font-size="14.00" fill="#000000">s119 SYMBOL</text>
<text text-anchor="middle" x="354.6545" y="-1171.8156" font-family="Times,serif" font-size="14.00" fill="#000000">statement_block</text>
</a>
</g>
</g>
<!-- s113&#45;&gt;s119 -->
<g id="edge6" class="edge">
<title>s113:p5&#45;&gt;s119</title>
<path fill="none" stroke="#000000" d="M101.5996,-923.4156C143.7896,-923.4156 92.9314,-1079.723 119.5996,-1112.4156 155.3872,-1156.2878 217.2021,-1174.0252 268.4606,-1180.9329"/>
<polygon fill="#000000" stroke="#000000" points="268.2083,-1184.4281 278.5607,-1182.1745 269.0625,-1177.4804 268.2083,-1184.4281"/>
<text text-anchor="middle" x="179.8598" y="-1179.6156" font-family="Times,serif" font-size="14.00" fill="#000000">statement_block</text>
</g>
<!-- s120 -->
<g id="node8" class="node">
<title>s120</title>
<g id="a_node8"><a xlink:href="javascript-grammar.json.if_statement.dot.svg" xlink:title="s120 SYMBOL\nif_statement">
<ellipse fill="none" stroke="#000000" cx="354.6545" cy="-1107.4156" rx="73.9667" ry="29.3315"/>
<text text-anchor="middle" x="354.6545" y="-1111.6156" font-family="Times,serif" font-size="14.00" fill="#000000">s120 SYMBOL</text>
<text text-anchor="middle" x="354.6545" y="-1094.8156" font-family="Times,serif" font-size="14.00" fill="#000000">if_statement</text>
</a>
</g>
</g>
<!-- s113&#45;&gt;s120 -->
<g id="edge7" class="edge">
<title>s113:p6&#45;&gt;s120</title>
<path fill="none" stroke="#000000" d="M101.5996,-898.4156C129.8839,-898.4156 101.6693,-1002.5409 119.5996,-1024.4156 156.7654,-1069.7576 220.4183,-1090.354 272.1182,-1099.6975"/>
<polygon fill="#000000" stroke="#000000" points="271.8433,-1103.2007 282.2875,-1101.4201 273.0125,-1096.299 271.8433,-1103.2007"/>
<text text-anchor="middle" x="179.8598" y="-1095.6156" font-family="Times,serif" font-size="14.00" fill="#000000">if_statement</text>
</g>
<!-- s121 -->
<g id="node9" class="node">
<title>s121</title>
<g id="a_node9"><a xlink:href="javascript-grammar.json.switch_statement.dot.svg" xlink:title="s121 SYMBOL\nswitch_statement">
<ellipse fill="none" stroke="#000000" cx="354.6545" cy="-1030.4156" rx="80.0859" ry="29.3315"/>
<text text-anchor="middle" x="354.6545" y="-1034.6156" font-family="Times,serif" font-size="14.00" fill="#000000">s121 SYMBOL</text>
<text text-anchor="middle" x="354.6545" y="-1017.8156" font-family="Times,serif" font-size="14.00" fill="#000000">switch_statement</text>
</a>
</g>
</g>
<!-- s113&#45;&gt;s121 -->
<g id="edge8" class="edge">
<title>s113:p7&#45;&gt;s121</title>
<path fill="none" stroke="#000000" d="M101.5996,-873.4156C129.8664,-873.4156 100.6719,-913.4215 119.5996,-934.4156 159.0319,-978.1531 221.3207,-1002.3852 271.8721,-1015.5588"/>
<polygon fill="#000000" stroke="#000000" points="271.265,-1019.0148 281.8157,-1018.0486 272.9653,-1012.2244 271.265,-1019.0148"/>
<text text-anchor="middle" x="179.8598" y="-1007.6156" font-family="Times,serif" font-size="14.00" fill="#000000">switch_statement</text>
</g>
<!-- s122 -->
<g id="node10" class="node">
<title>s122</title>
<g id="a_node10"><a xlink:href="javascript-grammar.json.for_statement.dot.svg" xlink:title="s122 SYMBOL\nfor_statement">
<ellipse fill="none" stroke="#000000" cx="354.6545" cy="-953.4156" rx="73.9667" ry="29.3315"/>
<text text-anchor="middle" x="354.6545" y="-957.6156" font-family="Times,serif" font-size="14.00" fill="#000000">s122 SYMBOL</text>
<text text-anchor="middle" x="354.6545" y="-940.8156" font-family="Times,serif" font-size="14.00" fill="#000000">for_statement</text>
</a>
</g>
</g>
<!-- s113&#45;&gt;s122 -->
<g id="edge9" class="edge">
<title>s113:p8&#45;&gt;s122</title>
<path fill="none" stroke="#000000" d="M101.5996,-849.4156C111.2144,-849.4156 111.0737,-856.9712 119.5996,-861.4156 174.132,-889.8429 239.5104,-914.7494 287.4572,-931.453"/>
<polygon fill="#000000" stroke="#000000" points="286.5147,-934.8303 297.1094,-934.7869 288.8001,-928.2138 286.5147,-934.8303"/>
<text text-anchor="middle" x="179.8598" y="-917.6156" font-family="Times,serif" font-size="14.00" fill="#000000">for_statement</text>
</g>
<!-- s123 -->
<g id="node11" class="node">
<title>s123</title>
<g id="a_node11"><a xlink:href="javascript-grammar.json.for_in_statement.dot.svg" xlink:title="s123 SYMBOL\nfor_in_statement">
<ellipse fill="none" stroke="#000000" cx="354.6545" cy="-876.4156" rx="78.2835" ry="29.3315"/>
<text text-anchor="middle" x="354.6545" y="-880.6156" font-family="Times,serif" font-size="14.00" fill="#000000">s123 SYMBOL</text>
<text text-anchor="middle" x="354.6545" y="-863.8156" font-family="Times,serif" font-size="14.00" fill="#000000">for_in_statement</text>
</a>
</g>
</g>
<!-- s113&#45;&gt;s123 -->
<g id="edge10" class="edge">
<title>s113:p9&#45;&gt;s123</title>
<path fill="none" stroke="#000000" d="M101.5996,-824.4156C164.7766,-824.4156 235.0433,-840.1589 285.4705,-854.3206"/>
<polygon fill="#000000" stroke="#000000" points="284.7065,-857.7423 295.2835,-857.1267 286.6312,-851.0121 284.7065,-857.7423"/>
<text text-anchor="middle" x="179.8598" y="-844.6156" font-family="Times,serif" font-size="14.00" fill="#000000">for_in_statement</text>
</g>
<!-- s124 -->
<g id="node12" class="node">
<title>s124</title>
<g id="a_node12"><a xlink:href="javascript-grammar.json.for_of_statement.dot.svg" xlink:title="s124 SYMBOL\nfor_of_statement">
<ellipse fill="none" stroke="#000000" cx="354.6545" cy="-799.4156" rx="78.8724" ry="29.3315"/>
<text text-anchor="middle" x="354.6545" y="-803.6156" font-family="Times,serif" font-size="14.00" fill="#000000">s124 SYMBOL</text>
<text text-anchor="middle" x="354.6545" y="-786.8156" font-family="Times,serif" font-size="14.00" fill="#000000">for_of_statement</text>
</a>
</g>
</g>
<!-- s113&#45;&gt;s124 -->
<g id="edge11" class="edge">
<title>s113:p10&#45;&gt;s124</title>
<path fill="none" stroke="#000000" d="M101.5996,-799.4156C155.9454,-799.4156 216.8563,-799.4156 265.2985,-799.4156"/>
<polygon fill="#000000" stroke="#000000" points="265.4395,-802.9157 275.4394,-799.4156 265.4394,-795.9157 265.4395,-802.9157"/>
<text text-anchor="middle" x="179.8598" y="-803.6156" font-family="Times,serif" font-size="14.00" fill="#000000">for_of_statement</text>
</g>
<!-- s125 -->
<g id="node13" class="node">
<title>s125</title>
<g id="a_node13"><a xlink:href="javascript-grammar.json.while_statement.dot.svg" xlink:title="s125 SYMBOL\nwhile_statement">
<ellipse fill="none" stroke="#000000" cx="354.6545" cy="-722.4156" rx="76.3865" ry="29.3315"/>
<text text-anchor="middle" x="354.6545" y="-726.6156" font-family="Times,serif" font-size="14.00" fill="#000000">s125 SYMBOL</text>
<text text-anchor="middle" x="354.6545" y="-709.8156" font-family="Times,serif" font-size="14.00" fill="#000000">while_statement</text>
</a>
</g>
</g>
<!-- s113&#45;&gt;s125 -->
<g id="edge12" class="edge">
<title>s113:p11&#45;&gt;s125</title>
<path fill="none" stroke="#000000" d="M101.5996,-774.4156C165.1971,-774.4156 235.9789,-758.4621 286.4747,-744.2282"/>
<polygon fill="#000000" stroke="#000000" points="287.6489,-747.5326 296.2953,-741.4096 285.7178,-740.8042 287.6489,-747.5326"/>
<text text-anchor="middle" x="179.8598" y="-777.6156" font-family="Times,serif" font-size="14.00" fill="#000000">while_statement</text>
</g>
<!-- s126 -->
<g id="node14" class="node">
<title>s126</title>
<g id="a_node14"><a xlink:href="javascript-grammar.json.do_statement.dot.svg" xlink:title="s126 SYMBOL\ndo_statement">
<ellipse fill="none" stroke="#000000" cx="354.6545" cy="-645.4156" rx="73.9667" ry="29.3315"/>
<text text-anchor="middle" x="354.6545" y="-649.6156" font-family="Times,serif" font-size="14.00" fill="#000000">s126 SYMBOL</text>
<text text-anchor="middle" x="354.6545" y="-632.8156" font-family="Times,serif" font-size="14.00" fill="#000000">do_statement</text>
</a>
</g>
</g>
<!-- s113&#45;&gt;s126 -->
<g id="edge13" class="edge">
<title>s113:p12&#45;&gt;s126</title>
<path fill="none" stroke="#000000" d="M101.5996,-749.4156C111.4161,-749.4156 110.9573,-741.2713 119.5996,-736.6156 173.498,-707.5804 238.6643,-683.0491 286.6979,-666.7672"/>
<polygon fill="#000000" stroke="#000000" points="288.0054,-670.0203 296.3723,-663.5207 285.7784,-663.384 288.0054,-670.0203"/>
<text text-anchor="middle" x="179.8598" y="-740.6156" font-family="Times,serif" font-size="14.00" fill="#000000">do_statement</text>
</g>
<!-- s127 -->
<g id="node15" class="node">
<title>s127</title>
<g id="a_node15"><a xlink:href="javascript-grammar.json.try_statement.dot.svg" xlink:title="s127 SYMBOL\ntry_statement">
<ellipse fill="none" stroke="#000000" cx="354.6545" cy="-568.4156" rx="73.9667" ry="29.3315"/>
<text text-anchor="middle" x="354.6545" y="-572.6156" font-family="Times,serif" font-size="14.00" fill="#000000">s127 SYMBOL</text>
<text text-anchor="middle" x="354.6545" y="-555.8156" font-family="Times,serif" font-size="14.00" fill="#000000">try_statement</text>
</a>
</g>
</g>
<!-- s113&#45;&gt;s127 -->
<g id="edge14" class="edge">
<title>s113:p13&#45;&gt;s127</title>
<path fill="none" stroke="#000000" d="M101.5996,-725.4156C130.6346,-725.4156 100.1423,-684.1666 119.5996,-662.6156 160.0779,-617.7819 224.8135,-593.9387 276.109,-581.469"/>
<polygon fill="#000000" stroke="#000000" points="276.9057,-584.8772 285.8493,-579.1972 275.3156,-578.0602 276.9057,-584.8772"/>
<text text-anchor="middle" x="179.8598" y="-666.6156" font-family="Times,serif" font-size="14.00" fill="#000000">try_statement</text>
</g>
<!-- s128 -->
<g id="node16" class="node">
<title>s128</title>
<g id="a_node16"><a xlink:href="javascript-grammar.json.with_statement.dot.svg" xlink:title="s128 SYMBOL\nwith_statement">
<ellipse fill="none" stroke="#000000" cx="354.6545" cy="-491.4156" rx="73.9667" ry="29.3315"/>
<text text-anchor="middle" x="354.6545" y="-495.6156" font-family="Times,serif" font-size="14.00" fill="#000000">s128 SYMBOL</text>
<text text-anchor="middle" x="354.6545" y="-478.8156" font-family="Times,serif" font-size="14.00" fill="#000000">with_statement</text>
</a>
</g>
</g>
<!-- s113&#45;&gt;s128 -->
<g id="edge15" class="edge">
<title>s113:p14&#45;&gt;s128</title>
<path fill="none" stroke="#000000" d="M101.5996,-700.4156C130.5,-700.4156 101.1941,-593.8972 119.5996,-571.6156 156.7352,-526.6594 220.2303,-506.8199 271.8726,-498.1061"/>
<polygon fill="#000000" stroke="#000000" points="272.6973,-501.5195 282.0317,-496.5076 271.6092,-494.6046 272.6973,-501.5195"/>
<text text-anchor="middle" x="179.8598" y="-575.6156" font-family="Times,serif" font-size="14.00" fill="#000000">with_statement</text>
</g>
<!-- s129 -->
<g id="node17" class="node">
<title>s129</title>
<g id="a_node17"><a xlink:href="javascript-grammar.json.break_statement.dot.svg" xlink:title="s129 SYMBOL\nbreak_statement">
<ellipse fill="none" stroke="#000000" cx="354.6545" cy="-414.4156" rx="76.3687" ry="29.3315"/>
<text text-anchor="middle" x="354.6545" y="-418.6156" font-family="Times,serif" font-size="14.00" fill="#000000">s129 SYMBOL</text>
<text text-anchor="middle" x="354.6545" y="-401.8156" font-family="Times,serif" font-size="14.00" fill="#000000">break_statement</text>
</a>
</g>
</g>
<!-- s113&#45;&gt;s129 -->
<g id="edge16" class="edge">
<title>s113:p15&#45;&gt;s129</title>
<path fill="none" stroke="#000000" d="M101.5996,-675.4156C144.4091,-675.4156 92.3818,-516.6587 119.5996,-483.6156 155.4149,-440.135 217.0715,-423.1211 268.2524,-416.8271"/>
<polygon fill="#000000" stroke="#000000" points="268.7858,-420.2895 278.3381,-415.7066 268.0127,-413.3323 268.7858,-420.2895"/>
<text text-anchor="middle" x="179.8598" y="-487.6156" font-family="Times,serif" font-size="14.00" fill="#000000">break_statement</text>
</g>
<!-- s130 -->
<g id="node18" class="node">
<title>s130</title>
<g id="a_node18"><a xlink:href="javascript-grammar.json.continue_statement.dot.svg" xlink:title="s130 SYMBOL\ncontinue_statement">
<ellipse fill="none" stroke="#000000" cx="354.6545" cy="-337.4156" rx="88.0809" ry="29.3315"/>
<text text-anchor="middle" x="354.6545" y="-341.6156" font-family="Times,serif" font-size="14.00" fill="#000000">s130 SYMBOL</text>
<text text-anchor="middle" x="354.6545" y="-324.8156" font-family="Times,serif" font-size="14.00" fill="#000000">continue_statement</text>
</a>
</g>
</g>
<!-- s113&#45;&gt;s130 -->
<g id="edge17" class="edge">
<title>s113:p16&#45;&gt;s130</title>
<path fill="none" stroke="#000000" d="M101.5996,-650.4156C129.4271,-650.4156 101.8856,-422.0769 119.5996,-400.6156 152.5039,-360.7507 207.6299,-344.553 256.2289,-338.5068"/>
<polygon fill="#000000" stroke="#000000" points="256.621,-341.9849 266.1711,-337.3973 255.8446,-335.0281 256.621,-341.9849"/>
<text text-anchor="middle" x="179.8598" y="-404.6156" font-family="Times,serif" font-size="14.00" fill="#000000">continue_statement</text>
</g>
<!-- s131 -->
<g id="node19" class="node">
<title>s131</title>
<g id="a_node19"><a xlink:href="javascript-grammar.json.return_statement.dot.svg" xlink:title="s131 SYMBOL\nreturn_statement">
<ellipse fill="none" stroke="#000000" cx="354.6545" cy="-260.4156" rx="77.673" ry="29.3315"/>
<text text-anchor="middle" x="354.6545" y="-264.6156" font-family="Times,serif" font-size="14.00" fill="#000000">s131 SYMBOL</text>
<text text-anchor="middle" x="354.6545" y="-247.8156" font-family="Times,serif" font-size="14.00" fill="#000000">return_statement</text>
</a>
</g>
</g>
<!-- s113&#45;&gt;s131 -->
<g id="edge18" class="edge">
<title>s113:p17&#45;&gt;s131</title>
<path fill="none" stroke="#000000" d="M101.5996,-625.4156C135.6362,-625.4156 97.8965,-345.8352 119.5996,-319.6156 154.8815,-276.9916 215.9277,-262.5352 266.9652,-258.556"/>
<polygon fill="#000000" stroke="#000000" points="267.2798,-262.043 277.0287,-257.8947 266.8206,-255.0581 267.2798,-262.043"/>
<text text-anchor="middle" x="179.8598" y="-323.6156" font-family="Times,serif" font-size="14.00" fill="#000000">return_statement</text>
</g>
<!-- s132 -->
<g id="node20" class="node">
<title>s132</title>
<g id="a_node20"><a xlink:href="javascript-grammar.json.throw_statement.dot.svg" xlink:title="s132 SYMBOL\nthrow_statement">
<ellipse fill="none" stroke="#000000" cx="354.6545" cy="-183.4156" rx="77.0863" ry="29.3315"/>
<text text-anchor="middle" x="354.6545" y="-187.6156" font-family="Times,serif" font-size="14.00" fill="#000000">s132 SYMBOL</text>
<text text-anchor="middle" x="354.6545" y="-170.8156" font-family="Times,serif" font-size="14.00" fill="#000000">throw_statement</text>
</a>
</g>
</g>
<!-- s113&#45;&gt;s132 -->
<g id="edge19" class="edge">
<title>s113:p18&#45;&gt;s132</title>
<path fill="none" stroke="#000000" d="M101.5996,-601.4156C141.7383,-601.4156 94.0198,-271.5477 119.5996,-240.6156 154.98,-197.8322 216.494,-183.9809 267.7198,-180.5903"/>
<polygon fill="#000000" stroke="#000000" points="268.0199,-184.0793 277.817,-180.0461 267.6431,-177.0894 268.0199,-184.0793"/>
<text text-anchor="middle" x="179.8598" y="-244.6156" font-family="Times,serif" font-size="14.00" fill="#000000">throw_statement</text>
</g>
<!-- s133 -->
<g id="node21" class="node">
<title>s133</title>
<g id="a_node21"><a xlink:href="javascript-grammar.json.empty_statement.dot.svg" xlink:title="s133 SYMBOL\nempty_statement">
<ellipse fill="none" stroke="#000000" cx="354.6545" cy="-106.4156" rx="78.8922" ry="29.3315"/>
<text text-anchor="middle" x="354.6545" y="-110.6156" font-family="Times,serif" font-size="14.00" fill="#000000">s133 SYMBOL</text>
<text text-anchor="middle" x="354.6545" y="-93.8156" font-family="Times,serif" font-size="14.00" fill="#000000">empty_statement</text>
</a>
</g>
</g>
<!-- s113&#45;&gt;s133 -->
<g id="edge20" class="edge">
<title>s113:p19&#45;&gt;s133</title>
<path fill="none" stroke="#000000" d="M101.5996,-576.4156C124.6102,-576.4156 104.9562,-180.3656 119.5996,-162.6156 154.5824,-120.2114 215.3235,-106.4906 266.295,-103.2005"/>
<polygon fill="#000000" stroke="#000000" points="266.5445,-106.6923 276.3486,-102.6761 266.1798,-99.7018 266.5445,-106.6923"/>
<text text-anchor="middle" x="179.8598" y="-166.6156" font-family="Times,serif" font-size="14.00" fill="#000000">empty_statement</text>
</g>
<!-- s134 -->
<g id="node22" class="node">
<title>s134</title>
<g id="a_node22"><a xlink:href="javascript-grammar.json.labeled_statement.dot.svg" xlink:title="s134 SYMBOL\nlabeled_statement">
<ellipse fill="none" stroke="#000000" cx="354.6545" cy="-29.4156" rx="82.5707" ry="29.3315"/>
<text text-anchor="middle" x="354.6545" y="-33.6156" font-family="Times,serif" font-size="14.00" fill="#000000">s134 SYMBOL</text>
<text text-anchor="middle" x="354.6545" y="-16.8156" font-family="Times,serif" font-size="14.00" fill="#000000">labeled_statement</text>
</a>
</g>
</g>
<!-- s113&#45;&gt;s134 -->
<g id="edge21" class="edge">
<title>s113:p20&#45;&gt;s134</title>
<path fill="none" stroke="#000000" d="M91.7998,-539.4156C91.7998,-514.1018 103.2805,-103.967 119.5996,-84.6156 153.9828,-43.8436 212.2513,-29.9643 262.1694,-26.3173"/>
<polygon fill="#000000" stroke="#000000" points="262.5856,-29.7987 272.3571,-25.7038 262.1647,-22.8113 262.5856,-29.7987"/>
<text text-anchor="middle" x="179.8598" y="-88.6156" font-family="Times,serif" font-size="14.00" fill="#000000">labeled_statement</text>
</g>
</g>
</svg>
