<?xml version="1.0" encoding="UTF-8" standalone="no"?>
<!DOCTYPE svg PUBLIC "-//W3C//DTD SVG 1.1//EN"
 "http://www.w3.org/Graphics/SVG/1.1/DTD/svg11.dtd">
<!-- Generated by graphviz version 2.40.1 (20161225.0304)
 -->
<!-- Title: method_definition Pages: 1 -->
<svg width="1536pt" height="276pt"
 viewBox="0.00 0.00 1535.74 275.83" xmlns="http://www.w3.org/2000/svg" xmlns:xlink="http://www.w3.org/1999/xlink">
<g id="graph0" class="graph" transform="scale(1 1) rotate(0) translate(4 271.8313)">
<title>method_definition</title>
<polygon fill="#ffffff" stroke="transparent" points="-4,4 -4,-271.8313 1531.7427,-271.8313 1531.7427,4 -4,4"/>
<!-- s880 -->
<g id="node1" class="node">
<title>s880</title>
<polygon fill="none" stroke="#000000" points="0,-46.6156 0,-88.2156 56.4418,-88.2156 56.4418,-46.6156 0,-46.6156"/>
<text text-anchor="middle" x="28.2209" y="-71.6156" font-family="Times,serif" font-size="14.00" fill="#000000">s880</text>
<text text-anchor="middle" x="28.2209" y="-54.8156" font-family="Times,serif" font-size="14.00" fill="#000000">→ SEQ</text>
</g>
<!-- s881 -->
<g id="node2" class="node">
<title>s881</title>
<polygon fill="none" stroke="#000000" points="93.4418,-42.6156 93.4418,-92.2156 195.0414,-92.2156 195.0414,-42.6156 93.4418,-42.6156"/>
<text text-anchor="middle" x="134.4916" y="-71.6156" font-family="Times,serif" font-size="14.00" fill="#000000">s881</text>
<text text-anchor="middle" x="134.4916" y="-54.8156" font-family="Times,serif" font-size="14.00" fill="#000000">→ CHOICE</text>
<polyline fill="none" stroke="#000000" points="175.5414,-42.6156 175.5414,-92.2156 "/>
<text text-anchor="middle" x="185.2914" y="-75.6156" font-family="Times,serif" font-size="14.00" fill="#000000"> </text>
<polyline fill="none" stroke="#000000" points="175.5414,-67.4156 195.0414,-67.4156 "/>
<text text-anchor="middle" x="185.2914" y="-50.8156" font-family="Times,serif" font-size="14.00" fill="#000000"> </text>
</g>
<!-- s880&#45;&gt;s881 -->
<g id="edge3" class="edge">
<title>s880&#45;&gt;s881</title>
<path fill="none" stroke="#000000" d="M56.6028,-67.4156C64.6824,-67.4156 73.8102,-67.4156 83.0459,-67.4156"/>
<polygon fill="#000000" stroke="#000000" points="83.0657,-70.9157 93.0657,-67.4156 83.0656,-63.9157 83.0657,-70.9157"/>
</g>
<!-- s882 -->
<g id="node3" class="node">
<title>s882</title>
<ellipse fill="none" stroke="#000000" cx="331.1441" cy="-106.4156" rx="68.4585" ry="29.3315"/>
<text text-anchor="middle" x="331.1441" y="-110.6156" font-family="Times,serif" font-size="14.00" fill="#000000">s882 STRING</text>
<text text-anchor="middle" x="331.1441" y="-93.8156" font-family="Times,serif" font-size="14.00" fill="#000000">&quot;async&quot;</text>
</g>
<!-- s881&#45;&gt;s882 -->
<g id="edge1" class="edge">
<title>s881:p0&#45;&gt;s882</title>
<path fill="none" stroke="#000000" d="M195.0414,-79.4156C217.916,-79.4156 242.5468,-83.1305 264.4839,-87.8043"/>
<polygon fill="#000000" stroke="#000000" points="263.835,-91.2455 274.3575,-90.0093 265.3607,-84.4138 263.835,-91.2455"/>
<text text-anchor="middle" x="228.9783" y="-87.6156" font-family="Times,serif" font-size="14.00" fill="#000000">async</text>
</g>
<!-- s883 -->
<g id="node4" class="node">
<title>s883</title>
<ellipse fill="none" stroke="#000000" cx="331.1441" cy="-29.4156" rx="45.3054" ry="29.3315"/>
<text text-anchor="middle" x="331.1441" y="-33.6156" font-family="Times,serif" font-size="14.00" fill="#000000">s883 </text>
<text text-anchor="middle" x="331.1441" y="-16.8156" font-family="Times,serif" font-size="14.00" fill="#000000">BLANK</text>
</g>
<!-- s881&#45;&gt;s883 -->
<g id="edge2" class="edge">
<title>s881:p1&#45;&gt;s883</title>
<path fill="none" stroke="#000000" d="M195.0414,-55.4156C223.393,-55.4156 254.486,-49.9051 279.7874,-43.9579"/>
<polygon fill="#000000" stroke="#000000" points="280.6521,-47.3496 289.537,-41.5783 278.9923,-40.5492 280.6521,-47.3496"/>
</g>
<!-- s884 -->
<g id="node5" class="node">
<title>s884</title>
<polygon fill="none" stroke="#000000" points="436.3729,-49.6156 436.3729,-99.2156 537.9725,-99.2156 537.9725,-49.6156 436.3729,-49.6156"/>
<text text-anchor="middle" x="477.4227" y="-78.6156" font-family="Times,serif" font-size="14.00" fill="#000000">s884</text>
<text text-anchor="middle" x="477.4227" y="-61.8156" font-family="Times,serif" font-size="14.00" fill="#000000">→ CHOICE</text>
<polyline fill="none" stroke="#000000" points="518.4725,-49.6156 518.4725,-99.2156 "/>
<text text-anchor="middle" x="528.2225" y="-82.6156" font-family="Times,serif" font-size="14.00" fill="#000000"> </text>
<polyline fill="none" stroke="#000000" points="518.4725,-74.4156 537.9725,-74.4156 "/>
<text text-anchor="middle" x="528.2225" y="-57.8156" font-family="Times,serif" font-size="14.00" fill="#000000"> </text>
</g>
<!-- s882&#45;&gt;s884 -->
<g id="edge9" class="edge">
<title>s882&#45;&gt;s884</title>
<path fill="none" stroke="#000000" d="M392.8107,-93.7684C403.7672,-91.5213 415.174,-89.1819 426.1134,-86.9383"/>
<polygon fill="#000000" stroke="#000000" points="426.9092,-90.3481 436.0021,-84.9103 425.5028,-83.4908 426.9092,-90.3481"/>
</g>
<!-- s883&#45;&gt;s884 -->
<g id="edge10" class="edge">
<title>s883&#45;&gt;s884</title>
<path fill="none" stroke="#000000" d="M372.9569,-41.4748C389.4084,-46.2196 408.6196,-51.7602 426.5413,-56.929"/>
<polygon fill="#000000" stroke="#000000" points="425.7612,-60.3466 436.3395,-59.7549 427.701,-53.6208 425.7612,-60.3466"/>
</g>
<!-- s885 -->
<g id="node6" class="node">
<title>s885</title>
<polygon fill="none" stroke="#000000" points="574.9725,-97.2156 574.9725,-171.6156 676.5721,-171.6156 676.5721,-97.2156 574.9725,-97.2156"/>
<text text-anchor="middle" x="616.0223" y="-138.6156" font-family="Times,serif" font-size="14.00" fill="#000000">s885</text>
<text text-anchor="middle" x="616.0223" y="-121.8156" font-family="Times,serif" font-size="14.00" fill="#000000">→ CHOICE</text>
<polyline fill="none" stroke="#000000" points="657.0721,-97.2156 657.0721,-171.6156 "/>
<text text-anchor="middle" x="666.8221" y="-155.0156" font-family="Times,serif" font-size="14.00" fill="#000000"> </text>
<polyline fill="none" stroke="#000000" points="657.0721,-146.8156 676.5721,-146.8156 "/>
<text text-anchor="middle" x="666.8221" y="-130.2156" font-family="Times,serif" font-size="14.00" fill="#000000"> </text>
<polyline fill="none" stroke="#000000" points="657.0721,-122.0156 676.5721,-122.0156 "/>
<text text-anchor="middle" x="666.8221" y="-105.4156" font-family="Times,serif" font-size="14.00" fill="#000000"> </text>
</g>
<!-- s884&#45;&gt;s885 -->
<g id="edge7" class="edge">
<title>s884:p0&#45;&gt;s885</title>
<path fill="none" stroke="#000000" d="M537.9725,-86.4156C548.1353,-86.4156 558.2382,-88.9222 567.7779,-92.7897"/>
<polygon fill="#000000" stroke="#000000" points="566.5624,-96.0826 577.1113,-97.0684 569.4795,-89.7194 566.5624,-96.0826"/>
</g>
<!-- s889 -->
<g id="node10" class="node">
<title>s889</title>
<ellipse fill="none" stroke="#000000" cx="739.9748" cy="-39.4156" rx="45.3054" ry="29.3315"/>
<text text-anchor="middle" x="739.9748" y="-43.6156" font-family="Times,serif" font-size="14.00" fill="#000000">s889 </text>
<text text-anchor="middle" x="739.9748" y="-26.8156" font-family="Times,serif" font-size="14.00" fill="#000000">BLANK</text>
</g>
<!-- s884&#45;&gt;s889 -->
<g id="edge8" class="edge">
<title>s884:p1&#45;&gt;s889</title>
<path fill="none" stroke="#000000" d="M537.9725,-62.4156C588.4078,-62.4156 645.4743,-55.25 686.0562,-48.918"/>
<polygon fill="#000000" stroke="#000000" points="686.6807,-52.3627 696.0044,-47.3309 685.5779,-45.4501 686.6807,-52.3627"/>
</g>
<!-- s886 -->
<g id="node7" class="node">
<title>s886</title>
<ellipse fill="none" stroke="#000000" cx="871.6063" cy="-238.4156" rx="68.4585" ry="29.3315"/>
<text text-anchor="middle" x="871.6063" y="-242.6156" font-family="Times,serif" font-size="14.00" fill="#000000">s886 STRING</text>
<text text-anchor="middle" x="871.6063" y="-225.8156" font-family="Times,serif" font-size="14.00" fill="#000000">&quot;get&quot;</text>
</g>
<!-- s885&#45;&gt;s886 -->
<g id="edge4" class="edge">
<title>s885:p0&#45;&gt;s886</title>
<path fill="none" stroke="#000000" d="M666.7723,-171.4156C666.7723,-227.0072 735.7705,-240.6384 793.6755,-242.2898"/>
<polygon fill="#000000" stroke="#000000" points="793.9104,-245.7942 803.9683,-242.4642 794.0291,-238.7952 793.9104,-245.7942"/>
<text text-anchor="middle" x="739.9748" y="-245.6156" font-family="Times,serif" font-size="14.00" fill="#000000">get</text>
</g>
<!-- s887 -->
<g id="node8" class="node">
<title>s887</title>
<ellipse fill="none" stroke="#000000" cx="871.6063" cy="-161.4156" rx="68.4585" ry="29.3315"/>
<text text-anchor="middle" x="871.6063" y="-165.6156" font-family="Times,serif" font-size="14.00" fill="#000000">s887 STRING</text>
<text text-anchor="middle" x="871.6063" y="-148.8156" font-family="Times,serif" font-size="14.00" fill="#000000">&quot;set&quot;</text>
</g>
<!-- s885&#45;&gt;s887 -->
<g id="edge5" class="edge">
<title>s885:p1&#45;&gt;s887</title>
<path fill="none" stroke="#000000" d="M676.5721,-134.4156C717.6599,-134.4156 763.1605,-140.368 799.872,-146.6831"/>
<polygon fill="#000000" stroke="#000000" points="799.526,-150.1761 809.9825,-148.4692 800.7439,-143.2828 799.526,-150.1761"/>
<text text-anchor="middle" x="739.9748" y="-147.6156" font-family="Times,serif" font-size="14.00" fill="#000000">set</text>
</g>
<!-- s888 -->
<g id="node9" class="node">
<title>s888</title>
<ellipse fill="none" stroke="#000000" cx="871.6063" cy="-84.4156" rx="68.4585" ry="29.3315"/>
<text text-anchor="middle" x="871.6063" y="-88.6156" font-family="Times,serif" font-size="14.00" fill="#000000">s888 STRING</text>
<text text-anchor="middle" x="871.6063" y="-71.8156" font-family="Times,serif" font-size="14.00" fill="#000000">&quot;*&quot;</text>
</g>
<!-- s885&#45;&gt;s888 -->
<g id="edge6" class="edge">
<title>s885:p2&#45;&gt;s888</title>
<path fill="none" stroke="#000000" d="M676.5721,-109.4156C717.2927,-109.4156 762.4103,-103.9877 798.9861,-98.1903"/>
<polygon fill="#000000" stroke="#000000" points="799.7574,-101.6109 809.0651,-96.5495 798.6326,-94.7018 799.7574,-101.6109"/>
<text text-anchor="middle" x="739.9748" y="-112.6156" font-family="Times,serif" font-size="14.00" fill="#000000">*</text>
</g>
<!-- s890 -->
<g id="node11" class="node">
<title>s890</title>
<g id="a_node11"><a xlink:href="javascript-grammar.json._property_name.dot.svg" xlink:title="s890 SYMBOL\n_property_name">
<ellipse fill="none" stroke="#000000" cx="1053.0232" cy="-109.4156" rx="76.3766" ry="29.3315"/>
<text text-anchor="middle" x="1053.0232" y="-113.6156" font-family="Times,serif" font-size="14.00" fill="#000000">s890 SYMBOL</text>
<text text-anchor="middle" x="1053.0232" y="-96.8156" font-family="Times,serif" font-size="14.00" fill="#000000">_property_name</text>
</a>
</g>
</g>
<!-- s886&#45;&gt;s890 -->
<g id="edge11" class="edge">
<title>s886&#45;&gt;s890</title>
<path fill="none" stroke="#000000" d="M914.4376,-215.2646C922.9962,-210.2692 931.8156,-204.8496 939.8351,-199.4156 965.452,-182.058 992.6393,-160.5521 1013.9467,-142.9158"/>
<polygon fill="#000000" stroke="#000000" points="1016.3685,-145.4537 1021.8096,-136.3627 1011.8869,-140.0764 1016.3685,-145.4537"/>
</g>
<!-- s887&#45;&gt;s890 -->
<g id="edge12" class="edge">
<title>s887&#45;&gt;s890</title>
<path fill="none" stroke="#000000" d="M928.51,-145.1052C945.4316,-140.2549 964.1848,-134.8796 981.8928,-129.8039"/>
<polygon fill="#000000" stroke="#000000" points="982.9562,-133.1401 991.6047,-127.0202 981.0274,-126.4111 982.9562,-133.1401"/>
</g>
<!-- s888&#45;&gt;s890 -->
<g id="edge13" class="edge">
<title>s888&#45;&gt;s890</title>
<path fill="none" stroke="#000000" d="M936.8456,-93.4059C947.9237,-94.9325 959.5533,-96.5351 970.9969,-98.1121"/>
<polygon fill="#000000" stroke="#000000" points="970.6028,-101.5908 980.987,-99.4888 971.5585,-94.6563 970.6028,-101.5908"/>
</g>
<!-- s889&#45;&gt;s890 -->
<g id="edge14" class="edge">
<title>s889&#45;&gt;s890</title>
<path fill="none" stroke="#000000" d="M784.9444,-35.0613C826.0615,-32.4609 888.1581,-32.0328 939.8351,-46.4156 963.804,-53.0867 988.1946,-65.7572 1008.1662,-77.9961"/>
<polygon fill="#000000" stroke="#000000" points="1006.3983,-81.0188 1016.7266,-83.3803 1010.1252,-75.0934 1006.3983,-81.0188"/>
</g>
<!-- s891 -->
<g id="node12" class="node">
<title>s891</title>
<g id="a_node12"><a xlink:href="javascript-grammar.json.formal_parameters.dot.svg" xlink:title="s891 SYMBOL\nformal_parameters">
<ellipse fill="none" stroke="#000000" cx="1252.282" cy="-109.4156" rx="86.1415" ry="29.3315"/>
<text text-anchor="middle" x="1252.282" y="-113.6156" font-family="Times,serif" font-size="14.00" fill="#000000">s891 SYMBOL</text>
<text text-anchor="middle" x="1252.282" y="-96.8156" font-family="Times,serif" font-size="14.00" fill="#000000">formal_parameters</text>
</a>
</g>
</g>
<!-- s890&#45;&gt;s891 -->
<g id="edge15" class="edge">
<title>s890&#45;&gt;s891</title>
<path fill="none" stroke="#000000" d="M1129.492,-109.4156C1138.1837,-109.4156 1147.1243,-109.4156 1156.029,-109.4156"/>
<polygon fill="#000000" stroke="#000000" points="1156.0522,-112.9157 1166.0521,-109.4156 1156.0521,-105.9157 1156.0522,-112.9157"/>
</g>
<!-- s892 -->
<g id="node13" class="node">
<title>s892</title>
<g id="a_node13"><a xlink:href="javascript-grammar.json.statement_block.dot.svg" xlink:title="s892 SYMBOL\nstatement_block">
<ellipse fill="none" stroke="#000000" cx="1451.5477" cy="-109.4156" rx="76.3905" ry="29.3315"/>
<text text-anchor="middle" x="1451.5477" y="-113.6156" font-family="Times,serif" font-size="14.00" fill="#000000">s892 SYMBOL</text>
<text text-anchor="middle" x="1451.5477" y="-96.8156" font-family="Times,serif" font-size="14.00" fill="#000000">statement_block</text>
</a>
</g>
</g>
<!-- s891&#45;&gt;s892 -->
<g id="edge16" class="edge">
<title>s891&#45;&gt;s892</title>
<path fill="none" stroke="#000000" d="M1338.5239,-109.4156C1347.2936,-109.4156 1356.2042,-109.4156 1364.9774,-109.4156"/>
<polygon fill="#000000" stroke="#000000" points="1365.1964,-112.9157 1375.1964,-109.4156 1365.1964,-105.9157 1365.1964,-112.9157"/>
</g>
</g>
</svg>
