<?xml version="1.0" encoding="UTF-8" standalone="no"?>
<!DOCTYPE svg PUBLIC "-//W3C//DTD SVG 1.1//EN"
 "http://www.w3.org/Graphics/SVG/1.1/DTD/svg11.dtd">
<!-- Generated by graphviz version 2.40.1 (20161225.0304)
 -->
<!-- Title: export_clause Pages: 1 -->
<svg width="1768pt" height="263pt"
 viewBox="0.00 0.00 1767.86 262.83" xmlns="http://www.w3.org/2000/svg" xmlns:xlink="http://www.w3.org/1999/xlink">
<g id="graph0" class="graph" transform="scale(1 1) rotate(0) translate(4 258.8313)">
<title>export_clause</title>
<polygon fill="#ffffff" stroke="transparent" points="-4,4 -4,-258.8313 1763.8643,-258.8313 1763.8643,4 -4,4"/>
<!-- s35 -->
<g id="node1" class="node">
<title>s35</title>
<polygon fill="none" stroke="#000000" points="0,-86.6156 0,-128.2156 56.4418,-128.2156 56.4418,-86.6156 0,-86.6156"/>
<text text-anchor="middle" x="28.2209" y="-111.6156" font-family="Times,serif" font-size="14.00" fill="#000000">s35</text>
<text text-anchor="middle" x="28.2209" y="-94.8156" font-family="Times,serif" font-size="14.00" fill="#000000">→ SEQ</text>
</g>
<!-- s36 -->
<g id="node2" class="node">
<title>s36</title>
<ellipse fill="none" stroke="#000000" cx="156.7209" cy="-107.4156" rx="63.059" ry="29.3315"/>
<text text-anchor="middle" x="156.7209" y="-111.6156" font-family="Times,serif" font-size="14.00" fill="#000000">s36 STRING</text>
<text text-anchor="middle" x="156.7209" y="-94.8156" font-family="Times,serif" font-size="14.00" fill="#000000">&quot;{&quot;</text>
</g>
<!-- s35&#45;&gt;s36 -->
<g id="edge1" class="edge">
<title>s35&#45;&gt;s36</title>
<path fill="none" stroke="#000000" d="M56.7392,-107.4156C64.7212,-107.4156 73.7821,-107.4156 83.112,-107.4156"/>
<polygon fill="#000000" stroke="#000000" points="83.3033,-110.9157 93.3032,-107.4156 83.3032,-103.9157 83.3033,-110.9157"/>
</g>
<!-- s37 -->
<g id="node3" class="node">
<title>s37</title>
<polygon fill="none" stroke="#000000" points="257.0001,-82.6156 257.0001,-132.2156 358.5997,-132.2156 358.5997,-82.6156 257.0001,-82.6156"/>
<text text-anchor="middle" x="298.0499" y="-111.6156" font-family="Times,serif" font-size="14.00" fill="#000000">s37</text>
<text text-anchor="middle" x="298.0499" y="-94.8156" font-family="Times,serif" font-size="14.00" fill="#000000">→ CHOICE</text>
<polyline fill="none" stroke="#000000" points="339.0997,-82.6156 339.0997,-132.2156 "/>
<text text-anchor="middle" x="348.8497" y="-115.6156" font-family="Times,serif" font-size="14.00" fill="#000000"> </text>
<polyline fill="none" stroke="#000000" points="339.0997,-107.4156 358.5997,-107.4156 "/>
<text text-anchor="middle" x="348.8497" y="-90.8156" font-family="Times,serif" font-size="14.00" fill="#000000"> </text>
</g>
<!-- s36&#45;&gt;s37 -->
<g id="edge12" class="edge">
<title>s36&#45;&gt;s37</title>
<path fill="none" stroke="#000000" d="M220.3541,-107.4156C229.0484,-107.4156 237.9585,-107.4156 246.608,-107.4156"/>
<polygon fill="#000000" stroke="#000000" points="246.6136,-110.9157 256.6136,-107.4156 246.6135,-103.9157 246.6136,-110.9157"/>
</g>
<!-- s38 -->
<g id="node4" class="node">
<title>s38</title>
<polygon fill="none" stroke="#000000" points="395.5997,-125.6156 395.5997,-167.2156 452.0415,-167.2156 452.0415,-125.6156 395.5997,-125.6156"/>
<text text-anchor="middle" x="423.8206" y="-150.6156" font-family="Times,serif" font-size="14.00" fill="#000000">s38</text>
<text text-anchor="middle" x="423.8206" y="-133.8156" font-family="Times,serif" font-size="14.00" fill="#000000">→ SEQ</text>
</g>
<!-- s37&#45;&gt;s38 -->
<g id="edge10" class="edge">
<title>s37:p0&#45;&gt;s38</title>
<path fill="none" stroke="#000000" d="M358.5997,-119.4156C367.7708,-119.4156 377.1535,-121.7229 385.8403,-124.9886"/>
<polygon fill="#000000" stroke="#000000" points="384.7316,-128.3203 395.3039,-129.0109 387.4697,-121.8781 384.7316,-128.3203"/>
</g>
<!-- s46 -->
<g id="node12" class="node">
<title>s46</title>
<ellipse fill="none" stroke="#000000" cx="515.4441" cy="-95.4156" rx="45.3054" ry="29.3315"/>
<text text-anchor="middle" x="515.4441" y="-99.6156" font-family="Times,serif" font-size="14.00" fill="#000000">s46 </text>
<text text-anchor="middle" x="515.4441" y="-82.8156" font-family="Times,serif" font-size="14.00" fill="#000000">BLANK</text>
</g>
<!-- s37&#45;&gt;s46 -->
<g id="edge11" class="edge">
<title>s37:p1&#45;&gt;s46</title>
<path fill="none" stroke="#000000" d="M358.5997,-95.4156C392.0919,-95.4156 429.6072,-95.4156 459.5481,-95.4156"/>
<polygon fill="#000000" stroke="#000000" points="459.8038,-98.9157 469.8037,-95.4156 459.8037,-91.9157 459.8038,-98.9157"/>
</g>
<!-- s39 -->
<g id="node5" class="node">
<title>s39</title>
<polygon fill="none" stroke="#000000" points="578.8467,-128.6156 578.8467,-170.2156 650.0557,-170.2156 650.0557,-128.6156 578.8467,-128.6156"/>
<text text-anchor="middle" x="614.4512" y="-153.6156" font-family="Times,serif" font-size="14.00" fill="#000000">s39</text>
<text text-anchor="middle" x="614.4512" y="-136.8156" font-family="Times,serif" font-size="14.00" fill="#000000">→ ALIAS</text>
</g>
<!-- s38&#45;&gt;s39 -->
<g id="edge3" class="edge">
<title>s38&#45;&gt;s39</title>
<path fill="none" stroke="#000000" d="M452.3599,-146.8648C482.9891,-147.3468 532.1062,-148.1198 568.2542,-148.6886"/>
<polygon fill="#000000" stroke="#000000" points="568.4957,-152.1928 578.5495,-148.8506 568.6059,-145.1936 568.4957,-152.1928"/>
</g>
<!-- s40 -->
<g id="node6" class="node">
<title>s40</title>
<g id="a_node6"><a xlink:href="javascript-grammar.json._import_export_specifier.dot.svg" xlink:title="s40 SYMBOL\n_import_export_specifier">
<ellipse fill="none" stroke="#000000" cx="798.9829" cy="-154.4156" rx="111.8545" ry="29.3315"/>
<text text-anchor="middle" x="798.9829" y="-158.6156" font-family="Times,serif" font-size="14.00" fill="#000000">s40 SYMBOL</text>
<text text-anchor="middle" x="798.9829" y="-141.8156" font-family="Times,serif" font-size="14.00" fill="#000000">_import_export_specifier</text>
</a>
</g>
</g>
<!-- s39&#45;&gt;s40 -->
<g id="edge2" class="edge">
<title>s39&#45;&gt;s40</title>
<path fill="none" stroke="#000000" d="M650.4688,-150.3916C658.6426,-150.613 667.7688,-150.8603 677.3681,-151.1204"/>
<polygon fill="#000000" stroke="#000000" points="677.4316,-154.6233 687.5228,-151.3956 677.6213,-147.6259 677.4316,-154.6233"/>
</g>
<!-- s41 -->
<g id="node7" class="node">
<title>s41</title>
<polygon fill="none" stroke="#000000" points="947.9101,-137.6156 947.9101,-179.2156 1030.7937,-179.2156 1030.7937,-137.6156 947.9101,-137.6156"/>
<text text-anchor="middle" x="989.3519" y="-162.6156" font-family="Times,serif" font-size="14.00" fill="#000000">s41</text>
<text text-anchor="middle" x="989.3519" y="-145.8156" font-family="Times,serif" font-size="14.00" fill="#000000">→ REPEAT</text>
</g>
<!-- s40&#45;&gt;s41 -->
<g id="edge9" class="edge">
<title>s40&#45;&gt;s41</title>
<path fill="none" stroke="#000000" d="M910.8225,-156.7656C920.1438,-156.9615 929.2451,-157.1527 937.7538,-157.3315"/>
<polygon fill="#000000" stroke="#000000" points="937.7422,-160.8319 947.8136,-157.5428 937.8893,-153.8334 937.7422,-160.8319"/>
</g>
<!-- s42 -->
<g id="node8" class="node">
<title>s42</title>
<polygon fill="none" stroke="#000000" points="1090.3726,-161.6156 1090.3726,-203.2156 1146.8144,-203.2156 1146.8144,-161.6156 1090.3726,-161.6156"/>
<text text-anchor="middle" x="1118.5935" y="-186.6156" font-family="Times,serif" font-size="14.00" fill="#000000">s42</text>
<text text-anchor="middle" x="1118.5935" y="-169.8156" font-family="Times,serif" font-size="14.00" fill="#000000">→ SEQ</text>
</g>
<!-- s41&#45;&gt;s42 -->
<g id="edge7" class="edge">
<title>s41&#45;&gt;s42</title>
<path fill="none" stroke="#000000" d="M1030.9562,-166.1415C1046.6646,-169.0585 1064.4604,-172.3632 1079.8922,-175.2289"/>
<polygon fill="#000000" stroke="#000000" points="1079.6725,-178.7478 1090.1435,-177.1325 1080.9506,-171.8655 1079.6725,-178.7478"/>
</g>
<!-- s47 -->
<g id="node13" class="node">
<title>s47</title>
<polygon fill="none" stroke="#000000" points="1067.7937,-69.6156 1067.7937,-119.2156 1169.3933,-119.2156 1169.3933,-69.6156 1067.7937,-69.6156"/>
<text text-anchor="middle" x="1108.8435" y="-98.6156" font-family="Times,serif" font-size="14.00" fill="#000000">s47</text>
<text text-anchor="middle" x="1108.8435" y="-81.8156" font-family="Times,serif" font-size="14.00" fill="#000000">→ CHOICE</text>
<polyline fill="none" stroke="#000000" points="1149.8933,-69.6156 1149.8933,-119.2156 "/>
<text text-anchor="middle" x="1159.6433" y="-102.6156" font-family="Times,serif" font-size="14.00" fill="#000000"> </text>
<polyline fill="none" stroke="#000000" points="1149.8933,-94.4156 1169.3933,-94.4156 "/>
<text text-anchor="middle" x="1159.6433" y="-77.8156" font-family="Times,serif" font-size="14.00" fill="#000000"> </text>
</g>
<!-- s41&#45;&gt;s47 -->
<g id="edge15" class="edge">
<title>s41&#45;&gt;s47</title>
<path fill="none" stroke="#000000" d="M1030.9562,-137.8134C1040.0153,-133.3273 1049.7686,-128.4975 1059.3624,-123.7467"/>
<polygon fill="#000000" stroke="#000000" points="1061.0755,-126.8041 1068.4838,-119.2298 1057.9691,-120.5311 1061.0755,-126.8041"/>
</g>
<!-- s43 -->
<g id="node9" class="node">
<title>s43</title>
<ellipse fill="none" stroke="#000000" cx="1272.1725" cy="-183.4156" rx="63.059" ry="29.3315"/>
<text text-anchor="middle" x="1272.1725" y="-187.6156" font-family="Times,serif" font-size="14.00" fill="#000000">s43 STRING</text>
<text text-anchor="middle" x="1272.1725" y="-170.8156" font-family="Times,serif" font-size="14.00" fill="#000000">&quot;,&quot;</text>
</g>
<!-- s42&#45;&gt;s43 -->
<g id="edge4" class="edge">
<title>s42&#45;&gt;s43</title>
<path fill="none" stroke="#000000" d="M1147.1206,-182.6014C1161.759,-182.6967 1180.3324,-182.8176 1198.6567,-182.937"/>
<polygon fill="#000000" stroke="#000000" points="1198.7621,-186.4376 1208.7847,-183.0029 1198.8077,-179.4378 1198.7621,-186.4376"/>
</g>
<!-- s44 -->
<g id="node10" class="node">
<title>s44</title>
<polygon fill="none" stroke="#000000" points="1400.1262,-204.6156 1400.1262,-246.2156 1471.3352,-246.2156 1471.3352,-204.6156 1400.1262,-204.6156"/>
<text text-anchor="middle" x="1435.7307" y="-229.6156" font-family="Times,serif" font-size="14.00" fill="#000000">s44</text>
<text text-anchor="middle" x="1435.7307" y="-212.8156" font-family="Times,serif" font-size="14.00" fill="#000000">→ ALIAS</text>
</g>
<!-- s43&#45;&gt;s44 -->
<g id="edge6" class="edge">
<title>s43&#45;&gt;s44</title>
<path fill="none" stroke="#000000" d="M1328.0025,-197.7522C1348.3343,-202.9732 1371.0534,-208.8072 1390.3672,-213.7668"/>
<polygon fill="#000000" stroke="#000000" points="1389.5697,-217.1755 1400.126,-216.2727 1391.3108,-210.3954 1389.5697,-217.1755"/>
</g>
<!-- s44&#45;&gt;s41 -->
<g id="edge8" class="edge">
<title>s44&#45;&gt;s41</title>
<path fill="none" stroke="#000000" d="M1399.9847,-230.9126C1332.7425,-239.8033 1183.7622,-252.566 1067.7937,-212.4156 1050.8447,-206.5476 1034.1741,-195.9557 1020.5897,-185.6973"/>
<polygon fill="#000000" stroke="#000000" points="1022.5845,-182.8139 1012.5553,-179.3983 1018.2656,-188.3227 1022.5845,-182.8139"/>
</g>
<!-- s45 -->
<g id="node11" class="node">
<title>s45</title>
<g id="a_node11"><a xlink:href="javascript-grammar.json._import_export_specifier.dot.svg" xlink:title="s45 SYMBOL\n_import_export_specifier">
<ellipse fill="none" stroke="#000000" cx="1647.9371" cy="-225.4156" rx="111.8545" ry="29.3315"/>
<text text-anchor="middle" x="1647.9371" y="-229.6156" font-family="Times,serif" font-size="14.00" fill="#000000">s45 SYMBOL</text>
<text text-anchor="middle" x="1647.9371" y="-212.8156" font-family="Times,serif" font-size="14.00" fill="#000000">_import_export_specifier</text>
</a>
</g>
</g>
<!-- s44&#45;&gt;s45 -->
<g id="edge5" class="edge">
<title>s44&#45;&gt;s45</title>
<path fill="none" stroke="#000000" d="M1471.7286,-225.4156C1487.1047,-225.4156 1506.036,-225.4156 1525.7251,-225.4156"/>
<polygon fill="#000000" stroke="#000000" points="1525.7559,-228.9157 1535.7559,-225.4156 1525.7558,-221.9157 1525.7559,-228.9157"/>
</g>
<!-- s46&#45;&gt;s47 -->
<g id="edge16" class="edge">
<title>s46&#45;&gt;s47</title>
<path fill="none" stroke="#000000" d="M561.0019,-95.4156C591.4516,-95.4156 632.4043,-95.4156 668.5557,-95.4156 668.5557,-95.4156 668.5557,-95.4156 989.3519,-95.4156 1011.6282,-95.4156 1036.0637,-95.2653 1057.6334,-95.0811"/>
<polygon fill="#000000" stroke="#000000" points="1057.6777,-98.581 1067.6459,-94.9916 1057.615,-91.5812 1057.6777,-98.581"/>
</g>
<!-- s48 -->
<g id="node14" class="node">
<title>s48</title>
<ellipse fill="none" stroke="#000000" cx="1272.1725" cy="-106.4156" rx="63.059" ry="29.3315"/>
<text text-anchor="middle" x="1272.1725" y="-110.6156" font-family="Times,serif" font-size="14.00" fill="#000000">s48 STRING</text>
<text text-anchor="middle" x="1272.1725" y="-93.8156" font-family="Times,serif" font-size="14.00" fill="#000000">&quot;,&quot;</text>
</g>
<!-- s47&#45;&gt;s48 -->
<g id="edge13" class="edge">
<title>s47:p0&#45;&gt;s48</title>
<path fill="none" stroke="#000000" d="M1169.3933,-106.4156C1178.8623,-106.4156 1188.822,-106.4156 1198.662,-106.4156"/>
<polygon fill="#000000" stroke="#000000" points="1198.8475,-109.9157 1208.8475,-106.4156 1198.8475,-102.9157 1198.8475,-109.9157"/>
<text text-anchor="middle" x="1189.1433" y="-110.6156" font-family="Times,serif" font-size="14.00" fill="#000000">,</text>
</g>
<!-- s49 -->
<g id="node15" class="node">
<title>s49</title>
<ellipse fill="none" stroke="#000000" cx="1272.1725" cy="-29.4156" rx="45.3054" ry="29.3315"/>
<text text-anchor="middle" x="1272.1725" y="-33.6156" font-family="Times,serif" font-size="14.00" fill="#000000">s49 </text>
<text text-anchor="middle" x="1272.1725" y="-16.8156" font-family="Times,serif" font-size="14.00" fill="#000000">BLANK</text>
</g>
<!-- s47&#45;&gt;s49 -->
<g id="edge14" class="edge">
<title>s47:p1&#45;&gt;s49</title>
<path fill="none" stroke="#000000" d="M1159.5935,-69.4156C1159.5935,-42.6046 1188.295,-32.6706 1216.714,-29.406"/>
<polygon fill="#000000" stroke="#000000" points="1217.0582,-32.8892 1226.7068,-28.5126 1216.4349,-25.917 1217.0582,-32.8892"/>
</g>
<!-- s50 -->
<g id="node16" class="node">
<title>s50</title>
<ellipse fill="none" stroke="#000000" cx="1435.7307" cy="-68.4156" rx="63.059" ry="29.3315"/>
<text text-anchor="middle" x="1435.7307" y="-72.6156" font-family="Times,serif" font-size="14.00" fill="#000000">s50 STRING</text>
<text text-anchor="middle" x="1435.7307" y="-55.8156" font-family="Times,serif" font-size="14.00" fill="#000000">&quot;}&quot;</text>
</g>
<!-- s48&#45;&gt;s50 -->
<g id="edge17" class="edge">
<title>s48&#45;&gt;s50</title>
<path fill="none" stroke="#000000" d="M1328.9182,-93.2317C1341.8583,-90.2253 1355.7239,-87.0039 1369.0369,-83.9108"/>
<polygon fill="#000000" stroke="#000000" points="1370.1368,-87.2486 1379.0853,-81.5762 1368.5527,-80.4302 1370.1368,-87.2486"/>
</g>
<!-- s49&#45;&gt;s50 -->
<g id="edge18" class="edge">
<title>s49&#45;&gt;s50</title>
<path fill="none" stroke="#000000" d="M1315.1455,-39.6624C1331.7528,-43.6224 1351.1396,-48.2451 1369.4504,-52.6113"/>
<polygon fill="#000000" stroke="#000000" points="1368.6572,-56.0202 1379.1963,-54.9352 1370.2809,-49.2111 1368.6572,-56.0202"/>
</g>
</g>
</svg>
