<?xml version="1.0" encoding="UTF-8" standalone="no"?>
<!DOCTYPE svg PUBLIC "-//W3C//DTD SVG 1.1//EN"
 "http://www.w3.org/Graphics/SVG/1.1/DTD/svg11.dtd">
<!-- Generated by graphviz version 2.40.1 (20161225.0304)
 -->
<!-- Title: arrow_function Pages: 1 -->
<svg width="1737pt" height="218pt"
 viewBox="0.00 0.00 1737.11 217.83" xmlns="http://www.w3.org/2000/svg" xmlns:xlink="http://www.w3.org/1999/xlink">
<g id="graph0" class="graph" transform="scale(1 1) rotate(0) translate(4 213.8313)">
<title>arrow_function</title>
<polygon fill="#ffffff" stroke="transparent" points="-4,4 -4,-213.8313 1733.1054,-213.8313 1733.1054,4 -4,4"/>
<!-- s504 -->
<g id="node1" class="node">
<title>s504</title>
<polygon fill="none" stroke="#000000" points="0,-46.6156 0,-88.2156 56.4418,-88.2156 56.4418,-46.6156 0,-46.6156"/>
<text text-anchor="middle" x="28.2209" y="-71.6156" font-family="Times,serif" font-size="14.00" fill="#000000">s504</text>
<text text-anchor="middle" x="28.2209" y="-54.8156" font-family="Times,serif" font-size="14.00" fill="#000000">→ SEQ</text>
</g>
<!-- s505 -->
<g id="node2" class="node">
<title>s505</title>
<polygon fill="none" stroke="#000000" points="93.4418,-42.6156 93.4418,-92.2156 195.0414,-92.2156 195.0414,-42.6156 93.4418,-42.6156"/>
<text text-anchor="middle" x="134.4916" y="-71.6156" font-family="Times,serif" font-size="14.00" fill="#000000">s505</text>
<text text-anchor="middle" x="134.4916" y="-54.8156" font-family="Times,serif" font-size="14.00" fill="#000000">→ CHOICE</text>
<polyline fill="none" stroke="#000000" points="175.5414,-42.6156 175.5414,-92.2156 "/>
<text text-anchor="middle" x="185.2914" y="-75.6156" font-family="Times,serif" font-size="14.00" fill="#000000"> </text>
<polyline fill="none" stroke="#000000" points="175.5414,-67.4156 195.0414,-67.4156 "/>
<text text-anchor="middle" x="185.2914" y="-50.8156" font-family="Times,serif" font-size="14.00" fill="#000000"> </text>
</g>
<!-- s504&#45;&gt;s505 -->
<g id="edge3" class="edge">
<title>s504&#45;&gt;s505</title>
<path fill="none" stroke="#000000" d="M56.6028,-67.4156C64.6824,-67.4156 73.8102,-67.4156 83.0459,-67.4156"/>
<polygon fill="#000000" stroke="#000000" points="83.0657,-70.9157 93.0657,-67.4156 83.0656,-63.9157 83.0657,-70.9157"/>
</g>
<!-- s506 -->
<g id="node3" class="node">
<title>s506</title>
<ellipse fill="none" stroke="#000000" cx="331.1441" cy="-106.4156" rx="68.4585" ry="29.3315"/>
<text text-anchor="middle" x="331.1441" y="-110.6156" font-family="Times,serif" font-size="14.00" fill="#000000">s506 STRING</text>
<text text-anchor="middle" x="331.1441" y="-93.8156" font-family="Times,serif" font-size="14.00" fill="#000000">&quot;async&quot;</text>
</g>
<!-- s505&#45;&gt;s506 -->
<g id="edge1" class="edge">
<title>s505:p0&#45;&gt;s506</title>
<path fill="none" stroke="#000000" d="M195.0414,-79.4156C217.916,-79.4156 242.5468,-83.1305 264.4839,-87.8043"/>
<polygon fill="#000000" stroke="#000000" points="263.835,-91.2455 274.3575,-90.0093 265.3607,-84.4138 263.835,-91.2455"/>
<text text-anchor="middle" x="228.9783" y="-87.6156" font-family="Times,serif" font-size="14.00" fill="#000000">async</text>
</g>
<!-- s507 -->
<g id="node4" class="node">
<title>s507</title>
<ellipse fill="none" stroke="#000000" cx="331.1441" cy="-29.4156" rx="45.3054" ry="29.3315"/>
<text text-anchor="middle" x="331.1441" y="-33.6156" font-family="Times,serif" font-size="14.00" fill="#000000">s507 </text>
<text text-anchor="middle" x="331.1441" y="-16.8156" font-family="Times,serif" font-size="14.00" fill="#000000">BLANK</text>
</g>
<!-- s505&#45;&gt;s507 -->
<g id="edge2" class="edge">
<title>s505:p1&#45;&gt;s507</title>
<path fill="none" stroke="#000000" d="M195.0414,-55.4156C223.393,-55.4156 254.486,-49.9051 279.7874,-43.9579"/>
<polygon fill="#000000" stroke="#000000" points="280.6521,-47.3496 289.537,-41.5783 278.9923,-40.5492 280.6521,-47.3496"/>
</g>
<!-- s508 -->
<g id="node5" class="node">
<title>s508</title>
<polygon fill="none" stroke="#000000" points="436.3729,-49.6156 436.3729,-99.2156 537.9725,-99.2156 537.9725,-49.6156 436.3729,-49.6156"/>
<text text-anchor="middle" x="477.4227" y="-78.6156" font-family="Times,serif" font-size="14.00" fill="#000000">s508</text>
<text text-anchor="middle" x="477.4227" y="-61.8156" font-family="Times,serif" font-size="14.00" fill="#000000">→ CHOICE</text>
<polyline fill="none" stroke="#000000" points="518.4725,-49.6156 518.4725,-99.2156 "/>
<text text-anchor="middle" x="528.2225" y="-82.6156" font-family="Times,serif" font-size="14.00" fill="#000000"> </text>
<polyline fill="none" stroke="#000000" points="518.4725,-74.4156 537.9725,-74.4156 "/>
<text text-anchor="middle" x="528.2225" y="-57.8156" font-family="Times,serif" font-size="14.00" fill="#000000"> </text>
</g>
<!-- s506&#45;&gt;s508 -->
<g id="edge8" class="edge">
<title>s506&#45;&gt;s508</title>
<path fill="none" stroke="#000000" d="M392.8107,-93.7684C403.7672,-91.5213 415.174,-89.1819 426.1134,-86.9383"/>
<polygon fill="#000000" stroke="#000000" points="426.9092,-90.3481 436.0021,-84.9103 425.5028,-83.4908 426.9092,-90.3481"/>
</g>
<!-- s507&#45;&gt;s508 -->
<g id="edge9" class="edge">
<title>s507&#45;&gt;s508</title>
<path fill="none" stroke="#000000" d="M372.9569,-41.4748C389.4084,-46.2196 408.6196,-51.7602 426.5413,-56.929"/>
<polygon fill="#000000" stroke="#000000" points="425.7612,-60.3466 436.3395,-59.7549 427.701,-53.6208 425.7612,-60.3466"/>
</g>
<!-- s509 -->
<g id="node6" class="node">
<title>s509</title>
<polygon fill="none" stroke="#000000" points="679.6949,-90.6156 679.6949,-140.2156 781.2945,-140.2156 781.2945,-90.6156 679.6949,-90.6156"/>
<text text-anchor="middle" x="720.7447" y="-119.6156" font-family="Times,serif" font-size="14.00" fill="#000000">s509</text>
<text text-anchor="middle" x="720.7447" y="-102.8156" font-family="Times,serif" font-size="14.00" fill="#000000">→ CHOICE</text>
<polyline fill="none" stroke="#000000" points="761.7945,-90.6156 761.7945,-140.2156 "/>
<text text-anchor="middle" x="771.5445" y="-123.6156" font-family="Times,serif" font-size="14.00" fill="#000000"> </text>
<polyline fill="none" stroke="#000000" points="761.7945,-115.4156 781.2945,-115.4156 "/>
<text text-anchor="middle" x="771.5445" y="-98.8156" font-family="Times,serif" font-size="14.00" fill="#000000"> </text>
</g>
<!-- s508&#45;&gt;s509 -->
<g id="edge6" class="edge">
<title>s508:p0&#45;&gt;s509</title>
<path fill="none" stroke="#000000" d="M537.9725,-86.4156C582.343,-86.4156 631.8304,-94.0407 669.5206,-101.4711"/>
<polygon fill="#000000" stroke="#000000" points="668.835,-104.9032 679.3301,-103.4528 670.2212,-98.0418 668.835,-104.9032"/>
</g>
<!-- s512 -->
<g id="node9" class="node">
<title>s512</title>
<g id="a_node9"><a xlink:href="javascript-grammar.json.formal_parameters.dot.svg" xlink:title="s512 SYMBOL\nformal_parameters">
<ellipse fill="none" stroke="#000000" cx="885.3653" cy="-53.4156" rx="86.1415" ry="29.3315"/>
<text text-anchor="middle" x="885.3653" y="-57.6156" font-family="Times,serif" font-size="14.00" fill="#000000">s512 SYMBOL</text>
<text text-anchor="middle" x="885.3653" y="-40.8156" font-family="Times,serif" font-size="14.00" fill="#000000">formal_parameters</text>
</a>
</g>
</g>
<!-- s508&#45;&gt;s512 -->
<g id="edge7" class="edge">
<title>s508:p1&#45;&gt;s512</title>
<path fill="none" stroke="#000000" d="M537.9725,-62.4156C623.0776,-62.4156 719.8711,-59.683 789.6314,-57.2292"/>
<polygon fill="#000000" stroke="#000000" points="789.8542,-60.7236 799.7231,-56.8695 789.6048,-53.728 789.8542,-60.7236"/>
<text text-anchor="middle" x="608.8337" y="-65.6156" font-family="Times,serif" font-size="14.00" fill="#000000">formal_parameters</text>
</g>
<!-- s510 -->
<g id="node7" class="node">
<title>s510</title>
<g id="a_node7"><a xlink:href="javascript-grammar.json.identifier.dot.svg" xlink:title="s510 SYMBOL\nidentifier">
<ellipse fill="none" stroke="#000000" cx="1063.169" cy="-180.4156" rx="73.9667" ry="29.3315"/>
<text text-anchor="middle" x="1063.169" y="-184.6156" font-family="Times,serif" font-size="14.00" fill="#000000">s510 SYMBOL</text>
<text text-anchor="middle" x="1063.169" y="-167.8156" font-family="Times,serif" font-size="14.00" fill="#000000">identifier</text>
</a>
</g>
</g>
<!-- s509&#45;&gt;s510 -->
<g id="edge4" class="edge">
<title>s509:p0&#45;&gt;s510</title>
<path fill="none" stroke="#000000" d="M781.2945,-127.4156C854.9258,-127.4156 937.5419,-145.099 994.1961,-160.0371"/>
<polygon fill="#000000" stroke="#000000" points="993.5474,-163.4867 1004.1125,-162.6937 995.3589,-156.7251 993.5474,-163.4867"/>
<text text-anchor="middle" x="885.3653" y="-157.6156" font-family="Times,serif" font-size="14.00" fill="#000000">identifier</text>
</g>
<!-- s511 -->
<g id="node8" class="node">
<title>s511</title>
<ellipse fill="none" stroke="#000000" cx="1063.169" cy="-103.4156" rx="45.3054" ry="29.3315"/>
<text text-anchor="middle" x="1063.169" y="-107.6156" font-family="Times,serif" font-size="14.00" fill="#000000">s511 </text>
<text text-anchor="middle" x="1063.169" y="-90.8156" font-family="Times,serif" font-size="14.00" fill="#000000">BLANK</text>
</g>
<!-- s509&#45;&gt;s511 -->
<g id="edge5" class="edge">
<title>s509:p1&#45;&gt;s511</title>
<path fill="none" stroke="#000000" d="M781.2945,-103.4156C859.6121,-103.4156 950.1698,-103.4156 1007.056,-103.4156"/>
<polygon fill="#000000" stroke="#000000" points="1007.2755,-106.9157 1017.2755,-103.4156 1007.2755,-99.9157 1007.2755,-106.9157"/>
</g>
<!-- s513 -->
<g id="node10" class="node">
<title>s513</title>
<ellipse fill="none" stroke="#000000" cx="1242.1309" cy="-103.4156" rx="68.4585" ry="29.3315"/>
<text text-anchor="middle" x="1242.1309" y="-107.6156" font-family="Times,serif" font-size="14.00" fill="#000000">s513 STRING</text>
<text text-anchor="middle" x="1242.1309" y="-90.8156" font-family="Times,serif" font-size="14.00" fill="#000000">&quot;=&gt;&quot;</text>
</g>
<!-- s510&#45;&gt;s513 -->
<g id="edge10" class="edge">
<title>s510&#45;&gt;s513</title>
<path fill="none" stroke="#000000" d="M1113.4961,-158.7619C1135.5762,-149.2618 1161.6183,-138.0569 1184.4751,-128.2226"/>
<polygon fill="#000000" stroke="#000000" points="1185.9199,-131.4112 1193.7224,-124.2438 1183.1533,-124.9811 1185.9199,-131.4112"/>
</g>
<!-- s511&#45;&gt;s513 -->
<g id="edge11" class="edge">
<title>s511&#45;&gt;s513</title>
<path fill="none" stroke="#000000" d="M1108.7917,-103.4156C1125.4703,-103.4156 1144.8497,-103.4156 1163.5804,-103.4156"/>
<polygon fill="#000000" stroke="#000000" points="1163.5972,-106.9157 1173.5972,-103.4156 1163.5972,-99.9157 1163.5972,-106.9157"/>
</g>
<!-- s512&#45;&gt;s513 -->
<g id="edge12" class="edge">
<title>s512&#45;&gt;s513</title>
<path fill="none" stroke="#000000" d="M971.4201,-51.2048C1020.3682,-51.516 1082.5609,-54.5637 1136.902,-65.4156 1152.5269,-68.5359 1168.943,-73.5583 1184.0389,-78.9434"/>
<polygon fill="#000000" stroke="#000000" points="1183.1534,-82.347 1193.7469,-82.5182 1185.5723,-75.7782 1183.1534,-82.347"/>
</g>
<!-- s514 -->
<g id="node11" class="node">
<title>s514</title>
<polygon fill="none" stroke="#000000" points="1347.3598,-78.6156 1347.3598,-128.2156 1448.9594,-128.2156 1448.9594,-78.6156 1347.3598,-78.6156"/>
<text text-anchor="middle" x="1388.4096" y="-107.6156" font-family="Times,serif" font-size="14.00" fill="#000000">s514</text>
<text text-anchor="middle" x="1388.4096" y="-90.8156" font-family="Times,serif" font-size="14.00" fill="#000000">→ CHOICE</text>
<polyline fill="none" stroke="#000000" points="1429.4594,-78.6156 1429.4594,-128.2156 "/>
<text text-anchor="middle" x="1439.2094" y="-111.6156" font-family="Times,serif" font-size="14.00" fill="#000000"> </text>
<polyline fill="none" stroke="#000000" points="1429.4594,-103.4156 1448.9594,-103.4156 "/>
<text text-anchor="middle" x="1439.2094" y="-86.8156" font-family="Times,serif" font-size="14.00" fill="#000000"> </text>
</g>
<!-- s513&#45;&gt;s514 -->
<g id="edge15" class="edge">
<title>s513&#45;&gt;s514</title>
<path fill="none" stroke="#000000" d="M1310.5673,-103.4156C1319.3951,-103.4156 1328.389,-103.4156 1337.0876,-103.4156"/>
<polygon fill="#000000" stroke="#000000" points="1337.1358,-106.9157 1347.1357,-103.4156 1337.1357,-99.9157 1337.1358,-106.9157"/>
</g>
<!-- s515 -->
<g id="node12" class="node">
<title>s515</title>
<g id="a_node12"><a xlink:href="javascript-grammar.json._expression.dot.svg" xlink:title="s515 SYMBOL\n_expression">
<ellipse fill="none" stroke="#000000" cx="1652.9104" cy="-142.4156" rx="73.9667" ry="29.3315"/>
<text text-anchor="middle" x="1652.9104" y="-146.6156" font-family="Times,serif" font-size="14.00" fill="#000000">s515 SYMBOL</text>
<text text-anchor="middle" x="1652.9104" y="-129.8156" font-family="Times,serif" font-size="14.00" fill="#000000">_expression</text>
</a>
</g>
</g>
<!-- s514&#45;&gt;s515 -->
<g id="edge13" class="edge">
<title>s514:p0&#45;&gt;s515</title>
<path fill="none" stroke="#000000" d="M1448.9594,-115.4156C1491.4187,-115.4156 1538.4236,-121.2377 1576.5967,-127.4748"/>
<polygon fill="#000000" stroke="#000000" points="1576.1682,-130.9517 1586.6092,-129.1529 1577.3254,-124.048 1576.1682,-130.9517"/>
<text text-anchor="middle" x="1512.8374" y="-127.6156" font-family="Times,serif" font-size="14.00" fill="#000000">_expression</text>
</g>
<!-- s516 -->
<g id="node13" class="node">
<title>s516</title>
<g id="a_node13"><a xlink:href="javascript-grammar.json.statement_block.dot.svg" xlink:title="s516 SYMBOL\nstatement_block">
<ellipse fill="none" stroke="#000000" cx="1652.9104" cy="-65.4156" rx="76.3905" ry="29.3315"/>
<text text-anchor="middle" x="1652.9104" y="-69.6156" font-family="Times,serif" font-size="14.00" fill="#000000">s516 SYMBOL</text>
<text text-anchor="middle" x="1652.9104" y="-52.8156" font-family="Times,serif" font-size="14.00" fill="#000000">statement_block</text>
</a>
</g>
</g>
<!-- s514&#45;&gt;s516 -->
<g id="edge14" class="edge">
<title>s514:p1&#45;&gt;s516</title>
<path fill="none" stroke="#000000" d="M1448.9594,-91.4156C1490.573,-91.4156 1536.582,-86.0236 1574.3529,-80.1505"/>
<polygon fill="#000000" stroke="#000000" points="1574.9487,-83.5998 1584.2724,-78.568 1573.8458,-76.6872 1574.9487,-83.5998"/>
<text text-anchor="middle" x="1512.8374" y="-94.6156" font-family="Times,serif" font-size="14.00" fill="#000000">statement_block</text>
</g>
</g>
</svg>
