<?xml version="1.0" encoding="UTF-8" standalone="no"?>
<!DOCTYPE svg PUBLIC "-//W3C//DTD SVG 1.1//EN"
 "http://www.w3.org/Graphics/SVG/1.1/DTD/svg11.dtd">
<!-- Generated by graphviz version 2.40.1 (20161225.0304)
 -->
<!-- Title: _jsx_element Pages: 1 -->
<svg width="512pt" height="144pt"
 viewBox="0.00 0.00 511.77 143.83" xmlns="http://www.w3.org/2000/svg" xmlns:xlink="http://www.w3.org/1999/xlink">
<g id="graph0" class="graph" transform="scale(1 1) rotate(0) translate(4 139.8313)">
<title>_jsx_element</title>
<polygon fill="#ffffff" stroke="transparent" points="-4,4 -4,-139.8313 507.7735,-139.8313 507.7735,4 -4,4"/>
<!-- s392 -->
<g id="node1" class="node">
<title>s392</title>
<polygon fill="none" stroke="#000000" points="0,-42.6156 0,-92.2156 101.5996,-92.2156 101.5996,-42.6156 0,-42.6156"/>
<text text-anchor="middle" x="41.0498" y="-71.6156" font-family="Times,serif" font-size="14.00" fill="#000000">s392</text>
<text text-anchor="middle" x="41.0498" y="-54.8156" font-family="Times,serif" font-size="14.00" fill="#000000">→ CHOICE</text>
<polyline fill="none" stroke="#000000" points="82.0996,-42.6156 82.0996,-92.2156 "/>
<text text-anchor="middle" x="91.8496" y="-75.6156" font-family="Times,serif" font-size="14.00" fill="#000000"> </text>
<polyline fill="none" stroke="#000000" points="82.0996,-67.4156 101.5996,-67.4156 "/>
<text text-anchor="middle" x="91.8496" y="-50.8156" font-family="Times,serif" font-size="14.00" fill="#000000"> </text>
</g>
<!-- s393 -->
<g id="node2" class="node">
<title>s393</title>
<g id="a_node2"><a xlink:href="javascript-grammar.json.jsx_element.dot.svg" xlink:title="s393 SYMBOL\njsx_element">
<ellipse fill="none" stroke="#000000" cx="391.8373" cy="-106.4156" rx="73.9667" ry="29.3315"/>
<text text-anchor="middle" x="391.8373" y="-110.6156" font-family="Times,serif" font-size="14.00" fill="#000000">s393 SYMBOL</text>
<text text-anchor="middle" x="391.8373" y="-93.8156" font-family="Times,serif" font-size="14.00" fill="#000000">jsx_element</text>
</a>
</g>
</g>
<!-- s392&#45;&gt;s393 -->
<g id="edge1" class="edge">
<title>s392:p0&#45;&gt;s393</title>
<path fill="none" stroke="#000000" d="M101.5996,-79.4156C173.0898,-79.4156 254.061,-87.6375 312.2796,-95.0072"/>
<polygon fill="#000000" stroke="#000000" points="312.1483,-98.519 322.5131,-96.3234 313.0413,-91.5762 312.1483,-98.519"/>
<text text-anchor="middle" x="190.7504" y="-92.6156" font-family="Times,serif" font-size="14.00" fill="#000000">jsx_element</text>
</g>
<!-- s394 -->
<g id="node3" class="node">
<title>s394</title>
<g id="a_node3"><a xlink:href="javascript-grammar.json.jsx_self_closing_element.dot.svg" xlink:title="s394 SYMBOL\njsx_self_closing_element">
<ellipse fill="none" stroke="#000000" cx="391.8373" cy="-29.4156" rx="111.8723" ry="29.3315"/>
<text text-anchor="middle" x="391.8373" y="-33.6156" font-family="Times,serif" font-size="14.00" fill="#000000">s394 SYMBOL</text>
<text text-anchor="middle" x="391.8373" y="-16.8156" font-family="Times,serif" font-size="14.00" fill="#000000">jsx_self_closing_element</text>
</a>
</g>
</g>
<!-- s392&#45;&gt;s394 -->
<g id="edge2" class="edge">
<title>s392:p1&#45;&gt;s394</title>
<path fill="none" stroke="#000000" d="M101.5996,-55.4156C161.3702,-55.4156 227.7895,-49.8779 281.99,-43.9138"/>
<polygon fill="#000000" stroke="#000000" points="282.4157,-47.3881 291.9638,-42.7965 281.6363,-40.4316 282.4157,-47.3881"/>
<text text-anchor="middle" x="190.7504" y="-59.6156" font-family="Times,serif" font-size="14.00" fill="#000000">jsx_self_closing_element</text>
</g>
</g>
</svg>
