<?xml version="1.0" encoding="UTF-8" standalone="no"?>
<!DOCTYPE svg PUBLIC "-//W3C//DTD SVG 1.1//EN"
 "http://www.w3.org/Graphics/SVG/1.1/DTD/svg11.dtd">
<!-- Generated by graphviz version 2.40.1 (20161225.0304)
 -->
<!-- Title: variable_declarator Pages: 1 -->
<svg width="950pt" height="151pt"
 viewBox="0.00 0.00 950.35 150.83" xmlns="http://www.w3.org/2000/svg" xmlns:xlink="http://www.w3.org/1999/xlink">
<g id="graph0" class="graph" transform="scale(1 1) rotate(0) translate(4 146.8313)">
<title>variable_declarator</title>
<polygon fill="#ffffff" stroke="transparent" points="-4,4 -4,-146.8313 946.3545,-146.8313 946.3545,4 -4,4"/>
<!-- s158 -->
<g id="node1" class="node">
<title>s158</title>
<polygon fill="none" stroke="#000000" points="0,-46.6156 0,-88.2156 56.4418,-88.2156 56.4418,-46.6156 0,-46.6156"/>
<text text-anchor="middle" x="28.2209" y="-71.6156" font-family="Times,serif" font-size="14.00" fill="#000000">s158</text>
<text text-anchor="middle" x="28.2209" y="-54.8156" font-family="Times,serif" font-size="14.00" fill="#000000">→ SEQ</text>
</g>
<!-- s159 -->
<g id="node2" class="node">
<title>s159</title>
<polygon fill="none" stroke="#000000" points="93.4418,-42.6156 93.4418,-92.2156 195.0414,-92.2156 195.0414,-42.6156 93.4418,-42.6156"/>
<text text-anchor="middle" x="134.4916" y="-71.6156" font-family="Times,serif" font-size="14.00" fill="#000000">s159</text>
<text text-anchor="middle" x="134.4916" y="-54.8156" font-family="Times,serif" font-size="14.00" fill="#000000">→ CHOICE</text>
<polyline fill="none" stroke="#000000" points="175.5414,-42.6156 175.5414,-92.2156 "/>
<text text-anchor="middle" x="185.2914" y="-75.6156" font-family="Times,serif" font-size="14.00" fill="#000000"> </text>
<polyline fill="none" stroke="#000000" points="175.5414,-67.4156 195.0414,-67.4156 "/>
<text text-anchor="middle" x="185.2914" y="-50.8156" font-family="Times,serif" font-size="14.00" fill="#000000"> </text>
</g>
<!-- s158&#45;&gt;s159 -->
<g id="edge3" class="edge">
<title>s158&#45;&gt;s159</title>
<path fill="none" stroke="#000000" d="M56.6028,-67.4156C64.6824,-67.4156 73.8102,-67.4156 83.0459,-67.4156"/>
<polygon fill="#000000" stroke="#000000" points="83.0657,-70.9157 93.0657,-67.4156 83.0656,-63.9157 83.0657,-70.9157"/>
</g>
<!-- s160 -->
<g id="node3" class="node">
<title>s160</title>
<g id="a_node3"><a xlink:href="javascript-grammar.json.identifier.dot.svg" xlink:title="s160 SYMBOL\nidentifier">
<ellipse fill="none" stroke="#000000" cx="458.7101" cy="-106.4156" rx="73.9667" ry="29.3315"/>
<text text-anchor="middle" x="458.7101" y="-110.6156" font-family="Times,serif" font-size="14.00" fill="#000000">s160 SYMBOL</text>
<text text-anchor="middle" x="458.7101" y="-93.8156" font-family="Times,serif" font-size="14.00" fill="#000000">identifier</text>
</a>
</g>
</g>
<!-- s159&#45;&gt;s160 -->
<g id="edge1" class="edge">
<title>s159:p0&#45;&gt;s160</title>
<path fill="none" stroke="#000000" d="M195.0414,-79.4156C257.3776,-79.4156 327.5744,-86.9763 379.8567,-94.0959"/>
<polygon fill="#000000" stroke="#000000" points="379.6808,-97.6049 390.0667,-95.5115 380.6422,-90.6712 379.6808,-97.6049"/>
<text text-anchor="middle" x="276.4103" y="-92.6156" font-family="Times,serif" font-size="14.00" fill="#000000">identifier</text>
</g>
<!-- s161 -->
<g id="node4" class="node">
<title>s161</title>
<g id="a_node4"><a xlink:href="javascript-grammar.json._destructuring_pattern.dot.svg" xlink:title="s161 SYMBOL\n_destructuring_pattern">
<ellipse fill="none" stroke="#000000" cx="458.7101" cy="-29.4156" rx="100.8618" ry="29.3315"/>
<text text-anchor="middle" x="458.7101" y="-33.6156" font-family="Times,serif" font-size="14.00" fill="#000000">s161 SYMBOL</text>
<text text-anchor="middle" x="458.7101" y="-16.8156" font-family="Times,serif" font-size="14.00" fill="#000000">_destructuring_pattern</text>
</a>
</g>
</g>
<!-- s159&#45;&gt;s161 -->
<g id="edge2" class="edge">
<title>s159:p1&#45;&gt;s161</title>
<path fill="none" stroke="#000000" d="M195.0414,-55.4156C249.2631,-55.4156 309.4555,-49.9029 358.6235,-43.9543"/>
<polygon fill="#000000" stroke="#000000" points="359.127,-47.4188 368.623,-42.7203 358.2696,-40.4715 359.127,-47.4188"/>
<text text-anchor="middle" x="276.4103" y="-58.6156" font-family="Times,serif" font-size="14.00" fill="#000000">_destructuring_pattern</text>
</g>
<!-- s162 -->
<g id="node5" class="node">
<title>s162</title>
<polygon fill="none" stroke="#000000" points="596.6409,-49.6156 596.6409,-99.2156 698.2405,-99.2156 698.2405,-49.6156 596.6409,-49.6156"/>
<text text-anchor="middle" x="637.6907" y="-78.6156" font-family="Times,serif" font-size="14.00" fill="#000000">s162</text>
<text text-anchor="middle" x="637.6907" y="-61.8156" font-family="Times,serif" font-size="14.00" fill="#000000">→ CHOICE</text>
<polyline fill="none" stroke="#000000" points="678.7405,-49.6156 678.7405,-99.2156 "/>
<text text-anchor="middle" x="688.4905" y="-82.6156" font-family="Times,serif" font-size="14.00" fill="#000000"> </text>
<polyline fill="none" stroke="#000000" points="678.7405,-74.4156 698.2405,-74.4156 "/>
<text text-anchor="middle" x="688.4905" y="-57.8156" font-family="Times,serif" font-size="14.00" fill="#000000"> </text>
</g>
<!-- s160&#45;&gt;s162 -->
<g id="edge6" class="edge">
<title>s160&#45;&gt;s162</title>
<path fill="none" stroke="#000000" d="M526.5795,-94.9081C546.1077,-91.597 567.2832,-88.0066 586.3733,-84.7699"/>
<polygon fill="#000000" stroke="#000000" points="587.1681,-88.1851 596.4423,-83.0626 585.9979,-81.2836 587.1681,-88.1851"/>
</g>
<!-- s161&#45;&gt;s162 -->
<g id="edge7" class="edge">
<title>s161&#45;&gt;s162</title>
<path fill="none" stroke="#000000" d="M536.8364,-48.0437C553.3905,-51.9908 570.632,-56.1018 586.4398,-59.8709"/>
<polygon fill="#000000" stroke="#000000" points="586.06,-63.3784 596.5991,-62.2932 587.6836,-56.5693 586.06,-63.3784"/>
</g>
<!-- s163 -->
<g id="node6" class="node">
<title>s163</title>
<g id="a_node6"><a xlink:href="javascript-grammar.json._initializer.dot.svg" xlink:title="s163 SYMBOL\n_initializer">
<ellipse fill="none" stroke="#000000" cx="868.6215" cy="-113.4156" rx="73.9667" ry="29.3315"/>
<text text-anchor="middle" x="868.6215" y="-117.6156" font-family="Times,serif" font-size="14.00" fill="#000000">s163 SYMBOL</text>
<text text-anchor="middle" x="868.6215" y="-100.8156" font-family="Times,serif" font-size="14.00" fill="#000000">_initializer</text>
</a>
</g>
</g>
<!-- s162&#45;&gt;s163 -->
<g id="edge4" class="edge">
<title>s162:p0&#45;&gt;s163</title>
<path fill="none" stroke="#000000" d="M698.2405,-86.4156C730.1258,-86.4156 764.9585,-91.0854 794.7724,-96.5409"/>
<polygon fill="#000000" stroke="#000000" points="794.2029,-99.9951 804.6793,-98.4155 795.5044,-93.1172 794.2029,-99.9951"/>
<text text-anchor="middle" x="746.5645" y="-96.6156" font-family="Times,serif" font-size="14.00" fill="#000000">_initializer</text>
</g>
<!-- s164 -->
<g id="node7" class="node">
<title>s164</title>
<ellipse fill="none" stroke="#000000" cx="868.6215" cy="-36.4156" rx="45.3054" ry="29.3315"/>
<text text-anchor="middle" x="868.6215" y="-40.6156" font-family="Times,serif" font-size="14.00" fill="#000000">s164 </text>
<text text-anchor="middle" x="868.6215" y="-23.8156" font-family="Times,serif" font-size="14.00" fill="#000000">BLANK</text>
</g>
<!-- s162&#45;&gt;s164 -->
<g id="edge5" class="edge">
<title>s162:p1&#45;&gt;s164</title>
<path fill="none" stroke="#000000" d="M698.2405,-62.4156C737.9673,-62.4156 782.3142,-55.4226 815.8042,-48.69"/>
<polygon fill="#000000" stroke="#000000" points="816.7476,-52.069 825.832,-46.6169 815.3304,-45.214 816.7476,-52.069"/>
</g>
</g>
</svg>
