<?xml version="1.0" encoding="UTF-8" standalone="no"?>
<!DOCTYPE svg PUBLIC "-//W3C//DTD SVG 1.1//EN"
 "http://www.w3.org/Graphics/SVG/1.1/DTD/svg11.dtd">
<!-- Generated by graphviz version 2.40.1 (20161225.0304)
 -->
<!-- Title: class Pages: 1 -->
<svg width="1313pt" height="144pt"
 viewBox="0.00 0.00 1312.54 143.83" xmlns="http://www.w3.org/2000/svg" xmlns:xlink="http://www.w3.org/1999/xlink">
<g id="graph0" class="graph" transform="scale(1 1) rotate(0) translate(4 139.8313)">
<title>class</title>
<polygon fill="#ffffff" stroke="transparent" points="-4,4 -4,-139.8313 1308.5413,-139.8313 1308.5413,4 -4,4"/>
<!-- s482 -->
<g id="node1" class="node">
<title>s482</title>
<polygon fill="none" stroke="#000000" points="0,-46.6156 0,-88.2156 56.4418,-88.2156 56.4418,-46.6156 0,-46.6156"/>
<text text-anchor="middle" x="28.2209" y="-71.6156" font-family="Times,serif" font-size="14.00" fill="#000000">s482</text>
<text text-anchor="middle" x="28.2209" y="-54.8156" font-family="Times,serif" font-size="14.00" fill="#000000">→ SEQ</text>
</g>
<!-- s483 -->
<g id="node2" class="node">
<title>s483</title>
<polygon fill="none" stroke="#000000" points="93.4418,-46.6156 93.4418,-88.2156 176.3254,-88.2156 176.3254,-46.6156 93.4418,-46.6156"/>
<text text-anchor="middle" x="134.8836" y="-71.6156" font-family="Times,serif" font-size="14.00" fill="#000000">s483</text>
<text text-anchor="middle" x="134.8836" y="-54.8156" font-family="Times,serif" font-size="14.00" fill="#000000">→ REPEAT</text>
</g>
<!-- s482&#45;&gt;s483 -->
<g id="edge3" class="edge">
<title>s482&#45;&gt;s483</title>
<path fill="none" stroke="#000000" d="M56.5245,-67.4156C64.6857,-67.4156 73.8581,-67.4156 82.9751,-67.4156"/>
<polygon fill="#000000" stroke="#000000" points="83.188,-70.9157 93.1879,-67.4156 83.1879,-63.9157 83.188,-70.9157"/>
</g>
<!-- s484 -->
<g id="node3" class="node">
<title>s484</title>
<g id="a_node3"><a xlink:href="javascript-grammar.json.decorator.dot.svg" xlink:title="s484 SYMBOL\ndecorator">
<ellipse fill="none" stroke="#000000" cx="287.0584" cy="-67.4156" rx="73.9667" ry="29.3315"/>
<text text-anchor="middle" x="287.0584" y="-71.6156" font-family="Times,serif" font-size="14.00" fill="#000000">s484 SYMBOL</text>
<text text-anchor="middle" x="287.0584" y="-54.8156" font-family="Times,serif" font-size="14.00" fill="#000000">decorator</text>
</a>
</g>
</g>
<!-- s483&#45;&gt;s484 -->
<g id="edge1" class="edge">
<title>s483&#45;&gt;s484</title>
<path fill="none" stroke="#000000" d="M176.466,-61.3248C185.3486,-60.961 195.0271,-60.7477 204.8425,-60.6851"/>
<polygon fill="#000000" stroke="#000000" points="205.0968,-64.185 215.0931,-60.6745 205.0894,-57.185 205.0968,-64.185"/>
</g>
<!-- s484&#45;&gt;s483 -->
<g id="edge2" class="edge">
<title>s484&#45;&gt;s483</title>
<path fill="none" stroke="#000000" d="M215.0931,-74.1568C205.4691,-74.198 195.7568,-74.0948 186.5747,-73.8473"/>
<polygon fill="#000000" stroke="#000000" points="186.5783,-70.3455 176.466,-73.5065 186.3424,-77.3415 186.5783,-70.3455"/>
</g>
<!-- s485 -->
<g id="node4" class="node">
<title>s485</title>
<ellipse fill="none" stroke="#000000" cx="466.0203" cy="-67.4156" rx="68.4585" ry="29.3315"/>
<text text-anchor="middle" x="466.0203" y="-71.6156" font-family="Times,serif" font-size="14.00" fill="#000000">s485 STRING</text>
<text text-anchor="middle" x="466.0203" y="-54.8156" font-family="Times,serif" font-size="14.00" fill="#000000">&quot;class&quot;</text>
</g>
<!-- s484&#45;&gt;s485 -->
<g id="edge4" class="edge">
<title>s484&#45;&gt;s485</title>
<path fill="none" stroke="#000000" d="M360.8823,-67.4156C369.6019,-67.4156 378.5263,-67.4156 387.3102,-67.4156"/>
<polygon fill="#000000" stroke="#000000" points="387.5365,-70.9157 397.5365,-67.4156 387.5365,-63.9157 387.5365,-70.9157"/>
</g>
<!-- s486 -->
<g id="node5" class="node">
<title>s486</title>
<g id="a_node5"><a xlink:href="javascript-grammar.json.identifier.dot.svg" xlink:title="s486 SYMBOL\nidentifier">
<ellipse fill="none" stroke="#000000" cx="644.9821" cy="-67.4156" rx="73.9667" ry="29.3315"/>
<text text-anchor="middle" x="644.9821" y="-71.6156" font-family="Times,serif" font-size="14.00" fill="#000000">s486 SYMBOL</text>
<text text-anchor="middle" x="644.9821" y="-54.8156" font-family="Times,serif" font-size="14.00" fill="#000000">identifier</text>
</a>
</g>
</g>
<!-- s485&#45;&gt;s486 -->
<g id="edge5" class="edge">
<title>s485&#45;&gt;s486</title>
<path fill="none" stroke="#000000" d="M534.4441,-67.4156C543.1907,-67.4156 552.2219,-67.4156 561.177,-67.4156"/>
<polygon fill="#000000" stroke="#000000" points="561.2361,-70.9157 571.236,-67.4156 561.236,-63.9157 561.2361,-70.9157"/>
</g>
<!-- s487 -->
<g id="node6" class="node">
<title>s487</title>
<polygon fill="none" stroke="#000000" points="755.7151,-42.6156 755.7151,-92.2156 857.3147,-92.2156 857.3147,-42.6156 755.7151,-42.6156"/>
<text text-anchor="middle" x="796.7649" y="-71.6156" font-family="Times,serif" font-size="14.00" fill="#000000">s487</text>
<text text-anchor="middle" x="796.7649" y="-54.8156" font-family="Times,serif" font-size="14.00" fill="#000000">→ CHOICE</text>
<polyline fill="none" stroke="#000000" points="837.8147,-42.6156 837.8147,-92.2156 "/>
<text text-anchor="middle" x="847.5647" y="-75.6156" font-family="Times,serif" font-size="14.00" fill="#000000"> </text>
<polyline fill="none" stroke="#000000" points="837.8147,-67.4156 857.3147,-67.4156 "/>
<text text-anchor="middle" x="847.5647" y="-50.8156" font-family="Times,serif" font-size="14.00" fill="#000000"> </text>
</g>
<!-- s486&#45;&gt;s487 -->
<g id="edge8" class="edge">
<title>s486&#45;&gt;s487</title>
<path fill="none" stroke="#000000" d="M719.1298,-67.4156C727.8564,-67.4156 736.6868,-67.4156 745.2097,-67.4156"/>
<polygon fill="#000000" stroke="#000000" points="745.4258,-70.9157 755.4257,-67.4156 745.4257,-63.9157 745.4258,-70.9157"/>
</g>
<!-- s488 -->
<g id="node7" class="node">
<title>s488</title>
<g id="a_node7"><a xlink:href="javascript-grammar.json.class_heritage.dot.svg" xlink:title="s488 SYMBOL\nclass_heritage">
<ellipse fill="none" stroke="#000000" cx="1046.3423" cy="-106.4156" rx="73.9667" ry="29.3315"/>
<text text-anchor="middle" x="1046.3423" y="-110.6156" font-family="Times,serif" font-size="14.00" fill="#000000">s488 SYMBOL</text>
<text text-anchor="middle" x="1046.3423" y="-93.8156" font-family="Times,serif" font-size="14.00" fill="#000000">class_heritage</text>
</a>
</g>
</g>
<!-- s487&#45;&gt;s488 -->
<g id="edge6" class="edge">
<title>s487:p0&#45;&gt;s488</title>
<path fill="none" stroke="#000000" d="M857.3147,-79.4156C895.0297,-79.4156 936.5561,-84.7482 971.0574,-90.6736"/>
<polygon fill="#000000" stroke="#000000" points="970.6022,-94.1473 981.0587,-92.4411 971.8205,-87.2541 970.6022,-94.1473"/>
<text text-anchor="middle" x="914.962" y="-90.6156" font-family="Times,serif" font-size="14.00" fill="#000000">class_heritage</text>
</g>
<!-- s489 -->
<g id="node8" class="node">
<title>s489</title>
<ellipse fill="none" stroke="#000000" cx="1046.3423" cy="-29.4156" rx="45.3054" ry="29.3315"/>
<text text-anchor="middle" x="1046.3423" y="-33.6156" font-family="Times,serif" font-size="14.00" fill="#000000">s489 </text>
<text text-anchor="middle" x="1046.3423" y="-16.8156" font-family="Times,serif" font-size="14.00" fill="#000000">BLANK</text>
</g>
<!-- s487&#45;&gt;s489 -->
<g id="edge7" class="edge">
<title>s487:p1&#45;&gt;s489</title>
<path fill="none" stroke="#000000" d="M857.3147,-55.4156C903.3395,-55.4156 955.0848,-47.7573 992.7847,-40.7534"/>
<polygon fill="#000000" stroke="#000000" points="993.8606,-44.1115 1003.0291,-38.8022 992.5508,-37.2351 993.8606,-44.1115"/>
</g>
<!-- s490 -->
<g id="node9" class="node">
<title>s490</title>
<g id="a_node9"><a xlink:href="javascript-grammar.json.class_body.dot.svg" xlink:title="s490 SYMBOL\nclass_body">
<ellipse fill="none" stroke="#000000" cx="1230.8083" cy="-67.4156" rx="73.9667" ry="29.3315"/>
<text text-anchor="middle" x="1230.8083" y="-71.6156" font-family="Times,serif" font-size="14.00" fill="#000000">s490 SYMBOL</text>
<text text-anchor="middle" x="1230.8083" y="-54.8156" font-family="Times,serif" font-size="14.00" fill="#000000">class_body</text>
</a>
</g>
</g>
<!-- s488&#45;&gt;s490 -->
<g id="edge9" class="edge">
<title>s488&#45;&gt;s490</title>
<path fill="none" stroke="#000000" d="M1111.6377,-92.6108C1125.8692,-89.602 1141.0386,-86.3949 1155.6192,-83.3122"/>
<polygon fill="#000000" stroke="#000000" points="1156.5409,-86.6948 1165.6006,-81.2019 1155.0929,-79.8462 1156.5409,-86.6948"/>
</g>
<!-- s489&#45;&gt;s490 -->
<g id="edge10" class="edge">
<title>s489&#45;&gt;s490</title>
<path fill="none" stroke="#000000" d="M1090.0582,-38.4211C1109.4603,-42.418 1132.8668,-47.2397 1154.9744,-51.7939"/>
<polygon fill="#000000" stroke="#000000" points="1154.521,-55.2739 1165.0215,-53.8636 1155.9334,-48.4178 1154.521,-55.2739"/>
</g>
</g>
</svg>
