<?xml version="1.0" encoding="UTF-8" standalone="no"?>
<!DOCTYPE svg PUBLIC "-//W3C//DTD SVG 1.1//EN"
 "http://www.w3.org/Graphics/SVG/1.1/DTD/svg11.dtd">
<!-- Generated by graphviz version 2.40.1 (20161225.0304)
 -->
<!-- Title: do_statement Pages: 1 -->
<svg width="1038pt" height="67pt"
 viewBox="0.00 0.00 1038.32 66.83" xmlns="http://www.w3.org/2000/svg" xmlns:xlink="http://www.w3.org/1999/xlink">
<g id="graph0" class="graph" transform="scale(1 1) rotate(0) translate(4 62.8313)">
<title>do_statement</title>
<polygon fill="#ffffff" stroke="transparent" points="-4,4 -4,-62.8313 1034.3216,-62.8313 1034.3216,4 -4,4"/>
<!-- s230 -->
<g id="node1" class="node">
<title>s230</title>
<polygon fill="none" stroke="#000000" points="0,-8.6156 0,-50.2156 56.4418,-50.2156 56.4418,-8.6156 0,-8.6156"/>
<text text-anchor="middle" x="28.2209" y="-33.6156" font-family="Times,serif" font-size="14.00" fill="#000000">s230</text>
<text text-anchor="middle" x="28.2209" y="-16.8156" font-family="Times,serif" font-size="14.00" fill="#000000">→ SEQ</text>
</g>
<!-- s231 -->
<g id="node2" class="node">
<title>s231</title>
<ellipse fill="none" stroke="#000000" cx="160.6707" cy="-29.4156" rx="68.4585" ry="29.3315"/>
<text text-anchor="middle" x="160.6707" y="-33.6156" font-family="Times,serif" font-size="14.00" fill="#000000">s231 STRING</text>
<text text-anchor="middle" x="160.6707" y="-16.8156" font-family="Times,serif" font-size="14.00" fill="#000000">&quot;do&quot;</text>
</g>
<!-- s230&#45;&gt;s231 -->
<g id="edge1" class="edge">
<title>s230&#45;&gt;s231</title>
<path fill="none" stroke="#000000" d="M56.6347,-29.4156C64.3113,-29.4156 73.0073,-29.4156 82.0218,-29.4156"/>
<polygon fill="#000000" stroke="#000000" points="82.2976,-32.9157 92.2975,-29.4156 82.2975,-25.9157 82.2976,-32.9157"/>
</g>
<!-- s232 -->
<g id="node3" class="node">
<title>s232</title>
<g id="a_node3"><a xlink:href="javascript-grammar.json._statement.dot.svg" xlink:title="s232 SYMBOL\n_statement">
<ellipse fill="none" stroke="#000000" cx="338.6325" cy="-29.4156" rx="73.9667" ry="29.3315"/>
<text text-anchor="middle" x="338.6325" y="-33.6156" font-family="Times,serif" font-size="14.00" fill="#000000">s232 SYMBOL</text>
<text text-anchor="middle" x="338.6325" y="-16.8156" font-family="Times,serif" font-size="14.00" fill="#000000">_statement</text>
</a>
</g>
</g>
<!-- s231&#45;&gt;s232 -->
<g id="edge2" class="edge">
<title>s231&#45;&gt;s232</title>
<path fill="none" stroke="#000000" d="M228.9664,-29.4156C237.3502,-29.4156 245.9933,-29.4156 254.5752,-29.4156"/>
<polygon fill="#000000" stroke="#000000" points="254.6022,-32.9157 264.6022,-29.4156 254.6022,-25.9157 254.6022,-32.9157"/>
</g>
<!-- s233 -->
<g id="node4" class="node">
<title>s233</title>
<ellipse fill="none" stroke="#000000" cx="516.5944" cy="-29.4156" rx="68.4585" ry="29.3315"/>
<text text-anchor="middle" x="516.5944" y="-33.6156" font-family="Times,serif" font-size="14.00" fill="#000000">s233 STRING</text>
<text text-anchor="middle" x="516.5944" y="-16.8156" font-family="Times,serif" font-size="14.00" fill="#000000">&quot;while&quot;</text>
</g>
<!-- s232&#45;&gt;s233 -->
<g id="edge3" class="edge">
<title>s232&#45;&gt;s233</title>
<path fill="none" stroke="#000000" d="M412.5583,-29.4156C420.9771,-29.4156 429.581,-29.4156 438.0567,-29.4156"/>
<polygon fill="#000000" stroke="#000000" points="438.3106,-32.9157 448.3106,-29.4156 438.3106,-25.9157 438.3106,-32.9157"/>
</g>
<!-- s234 -->
<g id="node5" class="node">
<title>s234</title>
<g id="a_node5"><a xlink:href="javascript-grammar.json.parenthesized_expression.dot.svg" xlink:title="s234 SYMBOL\nparenthesized_expression">
<ellipse fill="none" stroke="#000000" cx="733.8395" cy="-29.4156" rx="113.0323" ry="29.3315"/>
<text text-anchor="middle" x="733.8395" y="-33.6156" font-family="Times,serif" font-size="14.00" fill="#000000">s234 SYMBOL</text>
<text text-anchor="middle" x="733.8395" y="-16.8156" font-family="Times,serif" font-size="14.00" fill="#000000">parenthesized_expression</text>
</a>
</g>
</g>
<!-- s233&#45;&gt;s234 -->
<g id="edge4" class="edge">
<title>s233&#45;&gt;s234</title>
<path fill="none" stroke="#000000" d="M585.0339,-29.4156C593.2581,-29.4156 601.8399,-29.4156 610.55,-29.4156"/>
<polygon fill="#000000" stroke="#000000" points="610.82,-32.9157 620.82,-29.4156 610.8199,-25.9157 610.82,-32.9157"/>
</g>
<!-- s235 -->
<g id="node6" class="node">
<title>s235</title>
<g id="a_node6"><a xlink:href="javascript-grammar.json._semicolon.dot.svg" xlink:title="s235 SYMBOL\n_semicolon">
<ellipse fill="none" stroke="#000000" cx="956.5886" cy="-29.4156" rx="73.9667" ry="29.3315"/>
<text text-anchor="middle" x="956.5886" y="-33.6156" font-family="Times,serif" font-size="14.00" fill="#000000">s235 SYMBOL</text>
<text text-anchor="middle" x="956.5886" y="-16.8156" font-family="Times,serif" font-size="14.00" fill="#000000">_semicolon</text>
</a>
</g>
</g>
<!-- s234&#45;&gt;s235 -->
<g id="edge5" class="edge">
<title>s234&#45;&gt;s235</title>
<path fill="none" stroke="#000000" d="M847.1717,-29.4156C855.7294,-29.4156 864.2717,-29.4156 872.5963,-29.4156"/>
<polygon fill="#000000" stroke="#000000" points="872.6292,-32.9157 882.6291,-29.4156 872.6291,-25.9157 872.6292,-32.9157"/>
</g>
</g>
</svg>
