<?xml version="1.0" encoding="UTF-8" standalone="no"?>
<!DOCTYPE svg PUBLIC "-//W3C//DTD SVG 1.1//EN"
 "http://www.w3.org/Graphics/SVG/1.1/DTD/svg11.dtd">
<!-- Generated by graphviz version 2.40.1 (20161225.0304)
 -->
<!-- Title: class_body Pages: 1 -->
<svg width="2011pt" height="243pt"
 viewBox="0.00 0.00 2011.24 242.83" xmlns="http://www.w3.org/2000/svg" xmlns:xlink="http://www.w3.org/1999/xlink">
<g id="graph0" class="graph" transform="scale(1 1) rotate(0) translate(4 238.8313)">
<title>class_body</title>
<polygon fill="#ffffff" stroke="transparent" points="-4,4 -4,-238.8313 2007.2371,-238.8313 2007.2371,4 -4,4"/>
<!-- s831 -->
<g id="node1" class="node">
<title>s831</title>
<polygon fill="none" stroke="#000000" points="0,-32.6156 0,-74.2156 56.4418,-74.2156 56.4418,-32.6156 0,-32.6156"/>
<text text-anchor="middle" x="28.2209" y="-57.6156" font-family="Times,serif" font-size="14.00" fill="#000000">s831</text>
<text text-anchor="middle" x="28.2209" y="-40.8156" font-family="Times,serif" font-size="14.00" fill="#000000">→ SEQ</text>
</g>
<!-- s832 -->
<g id="node2" class="node">
<title>s832</title>
<ellipse fill="none" stroke="#000000" cx="161.6707" cy="-53.4156" rx="68.4585" ry="29.3315"/>
<text text-anchor="middle" x="161.6707" y="-57.6156" font-family="Times,serif" font-size="14.00" fill="#000000">s832 STRING</text>
<text text-anchor="middle" x="161.6707" y="-40.8156" font-family="Times,serif" font-size="14.00" fill="#000000">&quot;{&quot;</text>
</g>
<!-- s831&#45;&gt;s832 -->
<g id="edge1" class="edge">
<title>s831&#45;&gt;s832</title>
<path fill="none" stroke="#000000" d="M56.5222,-53.4156C64.5856,-53.4156 73.7846,-53.4156 83.3101,-53.4156"/>
<polygon fill="#000000" stroke="#000000" points="83.321,-56.9157 93.321,-53.4156 83.3209,-49.9157 83.321,-56.9157"/>
</g>
<!-- s833 -->
<g id="node3" class="node">
<title>s833</title>
<polygon fill="none" stroke="#000000" points="266.8995,-32.6156 266.8995,-74.2156 349.7831,-74.2156 349.7831,-32.6156 266.8995,-32.6156"/>
<text text-anchor="middle" x="308.3413" y="-57.6156" font-family="Times,serif" font-size="14.00" fill="#000000">s833</text>
<text text-anchor="middle" x="308.3413" y="-40.8156" font-family="Times,serif" font-size="14.00" fill="#000000">→ REPEAT</text>
</g>
<!-- s832&#45;&gt;s833 -->
<g id="edge20" class="edge">
<title>s832&#45;&gt;s833</title>
<path fill="none" stroke="#000000" d="M230.2822,-53.4156C239.081,-53.4156 247.9708,-53.4156 256.4422,-53.4156"/>
<polygon fill="#000000" stroke="#000000" points="256.5338,-56.9157 266.5338,-53.4156 256.5337,-49.9157 256.5338,-56.9157"/>
</g>
<!-- s834 -->
<g id="node4" class="node">
<title>s834</title>
<polygon fill="none" stroke="#000000" points="386.7831,-76.6156 386.7831,-118.2156 443.2249,-118.2156 443.2249,-76.6156 386.7831,-76.6156"/>
<text text-anchor="middle" x="415.004" y="-101.6156" font-family="Times,serif" font-size="14.00" fill="#000000">s834</text>
<text text-anchor="middle" x="415.004" y="-84.8156" font-family="Times,serif" font-size="14.00" fill="#000000">→ SEQ</text>
</g>
<!-- s833&#45;&gt;s834 -->
<g id="edge18" class="edge">
<title>s833&#45;&gt;s834</title>
<path fill="none" stroke="#000000" d="M349.8854,-70.5532C358.9063,-74.2745 368.4008,-78.1911 377.2653,-81.8478"/>
<polygon fill="#000000" stroke="#000000" points="376.0055,-85.1142 386.5846,-85.6922 378.675,-78.6432 376.0055,-85.1142"/>
</g>
<!-- s835 -->
<g id="node5" class="node">
<title>s835</title>
<polygon fill="none" stroke="#000000" points="480.2249,-83.6156 480.2249,-125.2156 563.1085,-125.2156 563.1085,-83.6156 480.2249,-83.6156"/>
<text text-anchor="middle" x="521.6667" y="-108.6156" font-family="Times,serif" font-size="14.00" fill="#000000">s835</text>
<text text-anchor="middle" x="521.6667" y="-91.8156" font-family="Times,serif" font-size="14.00" fill="#000000">→ REPEAT</text>
</g>
<!-- s834&#45;&gt;s835 -->
<g id="edge4" class="edge">
<title>s834&#45;&gt;s835</title>
<path fill="none" stroke="#000000" d="M443.3077,-99.2731C451.4688,-99.8087 460.6413,-100.4107 469.7582,-101.009"/>
<polygon fill="#000000" stroke="#000000" points="469.7633,-104.5168 479.9711,-101.6793 470.2218,-97.5318 469.7633,-104.5168"/>
</g>
<!-- s836 -->
<g id="node6" class="node">
<title>s836</title>
<g id="a_node6"><a xlink:href="javascript-grammar.json.decorator.dot.svg" xlink:title="s836 SYMBOL\ndecorator">
<ellipse fill="none" stroke="#000000" cx="673.8415" cy="-104.4156" rx="73.9667" ry="29.3315"/>
<text text-anchor="middle" x="673.8415" y="-108.6156" font-family="Times,serif" font-size="14.00" fill="#000000">s836 SYMBOL</text>
<text text-anchor="middle" x="673.8415" y="-91.8156" font-family="Times,serif" font-size="14.00" fill="#000000">decorator</text>
</a>
</g>
</g>
<!-- s835&#45;&gt;s836 -->
<g id="edge2" class="edge">
<title>s835&#45;&gt;s836</title>
<path fill="none" stroke="#000000" d="M563.2492,-98.3248C572.1317,-97.961 581.8102,-97.7477 591.6256,-97.6851"/>
<polygon fill="#000000" stroke="#000000" points="591.8799,-101.185 601.8762,-97.6745 591.8726,-94.185 591.8799,-101.185"/>
</g>
<!-- s836&#45;&gt;s835 -->
<g id="edge3" class="edge">
<title>s836&#45;&gt;s835</title>
<path fill="none" stroke="#000000" d="M601.8762,-111.1568C592.2522,-111.198 582.54,-111.0948 573.3579,-110.8473"/>
<polygon fill="#000000" stroke="#000000" points="573.3615,-107.3455 563.2492,-110.5065 573.1255,-114.3415 573.3615,-107.3455"/>
</g>
<!-- s837 -->
<g id="node7" class="node">
<title>s837</title>
<polygon fill="none" stroke="#000000" points="784.5745,-85.6156 784.5745,-135.2156 886.1741,-135.2156 886.1741,-85.6156 784.5745,-85.6156"/>
<text text-anchor="middle" x="825.6243" y="-114.6156" font-family="Times,serif" font-size="14.00" fill="#000000">s837</text>
<text text-anchor="middle" x="825.6243" y="-97.8156" font-family="Times,serif" font-size="14.00" fill="#000000">→ CHOICE</text>
<polyline fill="none" stroke="#000000" points="866.6741,-85.6156 866.6741,-135.2156 "/>
<text text-anchor="middle" x="876.4241" y="-118.6156" font-family="Times,serif" font-size="14.00" fill="#000000"> </text>
<polyline fill="none" stroke="#000000" points="866.6741,-110.4156 886.1741,-110.4156 "/>
<text text-anchor="middle" x="876.4241" y="-93.8156" font-family="Times,serif" font-size="14.00" fill="#000000"> </text>
</g>
<!-- s836&#45;&gt;s837 -->
<g id="edge7" class="edge">
<title>s836&#45;&gt;s837</title>
<path fill="none" stroke="#000000" d="M747.5175,-107.1523C756.4883,-107.4855 765.5768,-107.8231 774.3356,-108.1484"/>
<polygon fill="#000000" stroke="#000000" points="774.3163,-111.65 784.4393,-108.5237 774.5762,-104.6548 774.3163,-111.65"/>
</g>
<!-- s838 -->
<g id="node8" class="node">
<title>s838</title>
<ellipse fill="none" stroke="#000000" cx="1019.9486" cy="-175.4156" rx="68.4585" ry="29.3315"/>
<text text-anchor="middle" x="1019.9486" y="-179.6156" font-family="Times,serif" font-size="14.00" fill="#000000">s838 STRING</text>
<text text-anchor="middle" x="1019.9486" y="-162.8156" font-family="Times,serif" font-size="14.00" fill="#000000">&quot;static&quot;</text>
</g>
<!-- s837&#45;&gt;s838 -->
<g id="edge5" class="edge">
<title>s837:p0&#45;&gt;s838</title>
<path fill="none" stroke="#000000" d="M886.1741,-122.4156C916.0782,-122.4156 947.2661,-134.0044 971.9985,-146.3439"/>
<polygon fill="#000000" stroke="#000000" points="970.6567,-149.5906 981.1453,-151.0873 973.8793,-143.3765 970.6567,-149.5906"/>
<text text-anchor="middle" x="918.9469" y="-133.6156" font-family="Times,serif" font-size="14.00" fill="#000000">static</text>
</g>
<!-- s839 -->
<g id="node9" class="node">
<title>s839</title>
<ellipse fill="none" stroke="#000000" cx="1019.9486" cy="-98.4156" rx="45.3054" ry="29.3315"/>
<text text-anchor="middle" x="1019.9486" y="-102.6156" font-family="Times,serif" font-size="14.00" fill="#000000">s839 </text>
<text text-anchor="middle" x="1019.9486" y="-85.8156" font-family="Times,serif" font-size="14.00" fill="#000000">BLANK</text>
</g>
<!-- s837&#45;&gt;s839 -->
<g id="edge6" class="edge">
<title>s837:p1&#45;&gt;s839</title>
<path fill="none" stroke="#000000" d="M886.1741,-98.4156C911.881,-98.4156 940.3666,-98.4156 964.4223,-98.4156"/>
<polygon fill="#000000" stroke="#000000" points="964.4396,-101.9157 974.4396,-98.4156 964.4396,-94.9157 964.4396,-101.9157"/>
</g>
<!-- s840 -->
<g id="node10" class="node">
<title>s840</title>
<polygon fill="none" stroke="#000000" points="1125.1775,-73.6156 1125.1775,-123.2156 1226.7771,-123.2156 1226.7771,-73.6156 1125.1775,-73.6156"/>
<text text-anchor="middle" x="1166.2273" y="-102.6156" font-family="Times,serif" font-size="14.00" fill="#000000">s840</text>
<text text-anchor="middle" x="1166.2273" y="-85.8156" font-family="Times,serif" font-size="14.00" fill="#000000">→ CHOICE</text>
<polyline fill="none" stroke="#000000" points="1207.2771,-73.6156 1207.2771,-123.2156 "/>
<text text-anchor="middle" x="1217.0271" y="-106.6156" font-family="Times,serif" font-size="14.00" fill="#000000"> </text>
<polyline fill="none" stroke="#000000" points="1207.2771,-98.4156 1226.7771,-98.4156 "/>
<text text-anchor="middle" x="1217.0271" y="-81.8156" font-family="Times,serif" font-size="14.00" fill="#000000"> </text>
</g>
<!-- s838&#45;&gt;s840 -->
<g id="edge16" class="edge">
<title>s838&#45;&gt;s840</title>
<path fill="none" stroke="#000000" d="M1065.0786,-153.1441C1081.0259,-145.2741 1099.2171,-136.2967 1116.1892,-127.921"/>
<polygon fill="#000000" stroke="#000000" points="1118.0522,-130.9047 1125.4708,-123.3406 1114.9544,-124.6274 1118.0522,-130.9047"/>
</g>
<!-- s839&#45;&gt;s840 -->
<g id="edge17" class="edge">
<title>s839&#45;&gt;s840</title>
<path fill="none" stroke="#000000" d="M1065.498,-98.4156C1080.9918,-98.4156 1098.5648,-98.4156 1115.0645,-98.4156"/>
<polygon fill="#000000" stroke="#000000" points="1115.171,-101.9157 1125.171,-98.4156 1115.171,-94.9157 1115.171,-101.9157"/>
</g>
<!-- s840&#45;&gt;s833 -->
<g id="edge19" class="edge">
<title>s840&#45;&gt;s833</title>
<path fill="none" stroke="#000000" d="M1133.1143,-73.5804C1102.5899,-58.2201 1060.0352,-41.4156 1019.9486,-41.4156 415.004,-41.4156 415.004,-41.4156 415.004,-41.4156 397.0121,-41.4156 377.4195,-43.1226 359.9929,-45.2489"/>
<polygon fill="#000000" stroke="#000000" points="359.4797,-41.786 350.0111,-46.5395 360.3774,-48.7282 359.4797,-41.786"/>
</g>
<!-- s841 -->
<g id="node11" class="node">
<title>s841</title>
<polygon fill="none" stroke="#000000" points="1303.7851,-146.6156 1303.7851,-188.2156 1360.2269,-188.2156 1360.2269,-146.6156 1303.7851,-146.6156"/>
<text text-anchor="middle" x="1332.006" y="-171.6156" font-family="Times,serif" font-size="14.00" fill="#000000">s841</text>
<text text-anchor="middle" x="1332.006" y="-154.8156" font-family="Times,serif" font-size="14.00" fill="#000000">→ SEQ</text>
</g>
<!-- s840&#45;&gt;s841 -->
<g id="edge12" class="edge">
<title>s840:p0&#45;&gt;s841</title>
<path fill="none" stroke="#000000" d="M1216.9773,-123.4156C1216.9773,-156.9376 1260.1207,-165.903 1293.5632,-167.8171"/>
<polygon fill="#000000" stroke="#000000" points="1293.4441,-171.315 1303.5719,-168.2041 1293.7146,-164.3202 1293.4441,-171.315"/>
</g>
<!-- s846 -->
<g id="node16" class="node">
<title>s846</title>
<polygon fill="none" stroke="#000000" points="1303.7851,-8.6156 1303.7851,-50.2156 1360.2269,-50.2156 1360.2269,-8.6156 1303.7851,-8.6156"/>
<text text-anchor="middle" x="1332.006" y="-33.6156" font-family="Times,serif" font-size="14.00" fill="#000000">s846</text>
<text text-anchor="middle" x="1332.006" y="-16.8156" font-family="Times,serif" font-size="14.00" fill="#000000">→ SEQ</text>
</g>
<!-- s840&#45;&gt;s846 -->
<g id="edge15" class="edge">
<title>s840:p1&#45;&gt;s846</title>
<path fill="none" stroke="#000000" d="M1216.9773,-73.4156C1216.9773,-39.8936 1260.1207,-30.9282 1293.5632,-29.0142"/>
<polygon fill="#000000" stroke="#000000" points="1293.7146,-32.5111 1303.5719,-28.6272 1293.4441,-25.5163 1293.7146,-32.5111"/>
</g>
<!-- s849 -->
<g id="node19" class="node">
<title>s849</title>
<ellipse fill="none" stroke="#000000" cx="1332.006" cy="-98.4156" rx="68.4585" ry="29.3315"/>
<text text-anchor="middle" x="1332.006" y="-102.6156" font-family="Times,serif" font-size="14.00" fill="#000000">s849 STRING</text>
<text text-anchor="middle" x="1332.006" y="-85.8156" font-family="Times,serif" font-size="14.00" fill="#000000">&quot;}&quot;</text>
</g>
<!-- s840&#45;&gt;s849 -->
<g id="edge21" class="edge">
<title>s840&#45;&gt;s849</title>
<path fill="none" stroke="#000000" d="M1227.0669,-98.4156C1235.5261,-98.4156 1244.4667,-98.4156 1253.4174,-98.4156"/>
<polygon fill="#000000" stroke="#000000" points="1253.5021,-101.9157 1263.5021,-98.4156 1253.5021,-94.9157 1253.5021,-101.9157"/>
</g>
<!-- s842 -->
<g id="node12" class="node">
<title>s842</title>
<g id="a_node12"><a xlink:href="javascript-grammar.json.method_definition.dot.svg" xlink:title="s842 SYMBOL\nmethod_definition">
<ellipse fill="none" stroke="#000000" cx="1539.8288" cy="-167.4156" rx="84.4044" ry="29.3315"/>
<text text-anchor="middle" x="1539.8288" y="-171.6156" font-family="Times,serif" font-size="14.00" fill="#000000">s842 SYMBOL</text>
<text text-anchor="middle" x="1539.8288" y="-154.8156" font-family="Times,serif" font-size="14.00" fill="#000000">method_definition</text>
</a>
</g>
</g>
<!-- s841&#45;&gt;s842 -->
<g id="edge8" class="edge">
<title>s841&#45;&gt;s842</title>
<path fill="none" stroke="#000000" d="M1360.4671,-167.4156C1382.4399,-167.4156 1414.1784,-167.4156 1444.8678,-167.4156"/>
<polygon fill="#000000" stroke="#000000" points="1445.2197,-170.9157 1455.2197,-167.4156 1445.2197,-163.9157 1445.2197,-170.9157"/>
</g>
<!-- s843 -->
<g id="node13" class="node">
<title>s843</title>
<polygon fill="none" stroke="#000000" points="1702.356,-142.6156 1702.356,-192.2156 1803.9556,-192.2156 1803.9556,-142.6156 1702.356,-142.6156"/>
<text text-anchor="middle" x="1743.4058" y="-171.6156" font-family="Times,serif" font-size="14.00" fill="#000000">s843</text>
<text text-anchor="middle" x="1743.4058" y="-154.8156" font-family="Times,serif" font-size="14.00" fill="#000000">→ CHOICE</text>
<polyline fill="none" stroke="#000000" points="1784.4556,-142.6156 1784.4556,-192.2156 "/>
<text text-anchor="middle" x="1794.2056" y="-175.6156" font-family="Times,serif" font-size="14.00" fill="#000000"> </text>
<polyline fill="none" stroke="#000000" points="1784.4556,-167.4156 1803.9556,-167.4156 "/>
<text text-anchor="middle" x="1794.2056" y="-150.8156" font-family="Times,serif" font-size="14.00" fill="#000000"> </text>
</g>
<!-- s842&#45;&gt;s843 -->
<g id="edge11" class="edge">
<title>s842&#45;&gt;s843</title>
<path fill="none" stroke="#000000" d="M1624.4477,-167.4156C1647.0406,-167.4156 1671.0134,-167.4156 1692.0681,-167.4156"/>
<polygon fill="#000000" stroke="#000000" points="1692.1509,-170.9157 1702.1508,-167.4156 1692.1508,-163.9157 1692.1509,-170.9157"/>
</g>
<!-- s844 -->
<g id="node14" class="node">
<title>s844</title>
<ellipse fill="none" stroke="#000000" cx="1935.0083" cy="-205.4156" rx="68.4585" ry="29.3315"/>
<text text-anchor="middle" x="1935.0083" y="-209.6156" font-family="Times,serif" font-size="14.00" fill="#000000">s844 STRING</text>
<text text-anchor="middle" x="1935.0083" y="-192.8156" font-family="Times,serif" font-size="14.00" fill="#000000">&quot;;&quot;</text>
</g>
<!-- s843&#45;&gt;s844 -->
<g id="edge9" class="edge">
<title>s843:p0&#45;&gt;s844</title>
<path fill="none" stroke="#000000" d="M1804.1558,-179.4156C1825.2545,-179.4156 1847.9063,-182.7077 1868.3343,-186.949"/>
<polygon fill="#000000" stroke="#000000" points="1867.6508,-190.3822 1878.1674,-189.0971 1869.1448,-183.5434 1867.6508,-190.3822"/>
<text text-anchor="middle" x="1846.8341" y="-186.6156" font-family="Times,serif" font-size="14.00" fill="#000000">;</text>
</g>
<!-- s845 -->
<g id="node15" class="node">
<title>s845</title>
<ellipse fill="none" stroke="#000000" cx="1935.0083" cy="-128.4156" rx="45.3054" ry="29.3315"/>
<text text-anchor="middle" x="1935.0083" y="-132.6156" font-family="Times,serif" font-size="14.00" fill="#000000">s845 </text>
<text text-anchor="middle" x="1935.0083" y="-115.8156" font-family="Times,serif" font-size="14.00" fill="#000000">BLANK</text>
</g>
<!-- s843&#45;&gt;s845 -->
<g id="edge10" class="edge">
<title>s843:p1&#45;&gt;s845</title>
<path fill="none" stroke="#000000" d="M1804.1558,-155.4156C1830.8457,-155.4156 1859.9778,-149.9612 1883.9649,-143.9554"/>
<polygon fill="#000000" stroke="#000000" points="1885.115,-147.2726 1893.9079,-141.3621 1883.3483,-140.4992 1885.115,-147.2726"/>
</g>
<!-- s847 -->
<g id="node17" class="node">
<title>s847</title>
<g id="a_node17"><a xlink:href="javascript-grammar.json.public_field_definition.dot.svg" xlink:title="s847 SYMBOL\npublic_field_definition">
<ellipse fill="none" stroke="#000000" cx="1539.8288" cy="-29.4156" rx="102.688" ry="29.3315"/>
<text text-anchor="middle" x="1539.8288" y="-33.6156" font-family="Times,serif" font-size="14.00" fill="#000000">s847 SYMBOL</text>
<text text-anchor="middle" x="1539.8288" y="-16.8156" font-family="Times,serif" font-size="14.00" fill="#000000">public_field_definition</text>
</a>
</g>
</g>
<!-- s846&#45;&gt;s847 -->
<g id="edge13" class="edge">
<title>s846&#45;&gt;s847</title>
<path fill="none" stroke="#000000" d="M1360.4671,-29.4156C1378.1517,-29.4156 1402.1623,-29.4156 1426.8605,-29.4156"/>
<polygon fill="#000000" stroke="#000000" points="1427.0935,-32.9157 1437.0935,-29.4156 1427.0934,-25.9157 1427.0935,-32.9157"/>
</g>
<!-- s848 -->
<g id="node18" class="node">
<title>s848</title>
<g id="a_node18"><a xlink:href="javascript-grammar.json._semicolon.dot.svg" xlink:title="s848 SYMBOL\n_semicolon">
<ellipse fill="none" stroke="#000000" cx="1753.1558" cy="-29.4156" rx="73.9667" ry="29.3315"/>
<text text-anchor="middle" x="1753.1558" y="-33.6156" font-family="Times,serif" font-size="14.00" fill="#000000">s848 SYMBOL</text>
<text text-anchor="middle" x="1753.1558" y="-16.8156" font-family="Times,serif" font-size="14.00" fill="#000000">_semicolon</text>
</a>
</g>
</g>
<!-- s847&#45;&gt;s848 -->
<g id="edge14" class="edge">
<title>s847&#45;&gt;s848</title>
<path fill="none" stroke="#000000" d="M1642.4308,-29.4156C1651.3302,-29.4156 1660.2674,-29.4156 1668.994,-29.4156"/>
<polygon fill="#000000" stroke="#000000" points="1669.1267,-32.9157 1679.1267,-29.4156 1669.1267,-25.9157 1669.1267,-32.9157"/>
</g>
</g>
</svg>
