<?xml version="1.0" encoding="UTF-8" standalone="no"?>
<!DOCTYPE svg PUBLIC "-//W3C//DTD SVG 1.1//EN"
 "http://www.w3.org/Graphics/SVG/1.1/DTD/svg11.dtd">
<!-- Generated by graphviz version 2.40.1 (20161225.0304)
 -->
<!-- Title: assignment_pattern Pages: 1 -->
<svg width="1048pt" height="122pt"
 viewBox="0.00 0.00 1047.99 121.83" xmlns="http://www.w3.org/2000/svg" xmlns:xlink="http://www.w3.org/1999/xlink">
<g id="graph0" class="graph" transform="scale(1 1) rotate(0) translate(4 117.8313)">
<title>assignment_pattern</title>
<polygon fill="#ffffff" stroke="transparent" points="-4,4 -4,-117.8313 1043.9937,-117.8313 1043.9937,4 -4,4"/>
<!-- s367 -->
<g id="node1" class="node">
<title>s367</title>
<polygon fill="none" stroke="#000000" points="0,-32.6156 0,-74.2156 56.4418,-74.2156 56.4418,-32.6156 0,-32.6156"/>
<text text-anchor="middle" x="28.2209" y="-57.6156" font-family="Times,serif" font-size="14.00" fill="#000000">s367</text>
<text text-anchor="middle" x="28.2209" y="-40.8156" font-family="Times,serif" font-size="14.00" fill="#000000">→ SEQ</text>
</g>
<!-- s368 -->
<g id="node2" class="node">
<title>s368</title>
<polygon fill="none" stroke="#000000" points="93.4418,-28.6156 93.4418,-78.2156 195.0414,-78.2156 195.0414,-28.6156 93.4418,-28.6156"/>
<text text-anchor="middle" x="134.4916" y="-57.6156" font-family="Times,serif" font-size="14.00" fill="#000000">s368</text>
<text text-anchor="middle" x="134.4916" y="-40.8156" font-family="Times,serif" font-size="14.00" fill="#000000">→ CHOICE</text>
<polyline fill="none" stroke="#000000" points="175.5414,-28.6156 175.5414,-78.2156 "/>
<text text-anchor="middle" x="185.2914" y="-61.6156" font-family="Times,serif" font-size="14.00" fill="#000000"> </text>
<polyline fill="none" stroke="#000000" points="175.5414,-53.4156 195.0414,-53.4156 "/>
<text text-anchor="middle" x="185.2914" y="-36.8156" font-family="Times,serif" font-size="14.00" fill="#000000"> </text>
</g>
<!-- s367&#45;&gt;s368 -->
<g id="edge4" class="edge">
<title>s367&#45;&gt;s368</title>
<path fill="none" stroke="#000000" d="M56.6028,-53.4156C64.6824,-53.4156 73.8102,-53.4156 83.0459,-53.4156"/>
<polygon fill="#000000" stroke="#000000" points="83.0657,-56.9157 93.0657,-53.4156 83.0656,-49.9157 83.0657,-56.9157"/>
</g>
<!-- s369 -->
<g id="node3" class="node">
<title>s369</title>
<polygon fill="none" stroke="#000000" points="398.991,-62.6156 398.991,-104.2156 470.2,-104.2156 470.2,-62.6156 398.991,-62.6156"/>
<text text-anchor="middle" x="434.5955" y="-87.6156" font-family="Times,serif" font-size="14.00" fill="#000000">s369</text>
<text text-anchor="middle" x="434.5955" y="-70.8156" font-family="Times,serif" font-size="14.00" fill="#000000">→ ALIAS</text>
</g>
<!-- s368&#45;&gt;s369 -->
<g id="edge2" class="edge">
<title>s368:p0&#45;&gt;s369</title>
<path fill="none" stroke="#000000" d="M195.0414,-65.4156C262.6499,-65.4156 340.6905,-72.6332 388.8422,-77.9276"/>
<polygon fill="#000000" stroke="#000000" points="388.6156,-81.424 398.943,-79.0583 389.3945,-74.4674 388.6156,-81.424"/>
<text text-anchor="middle" x="297.0162" y="-80.6156" font-family="Times,serif" font-size="14.00" fill="#000000">shorthand_property_identifier</text>
</g>
<!-- s371 -->
<g id="node5" class="node">
<title>s371</title>
<g id="a_node5"><a xlink:href="javascript-grammar.json._destructuring_pattern.dot.svg" xlink:title="s371 SYMBOL\n_destructuring_pattern">
<ellipse fill="none" stroke="#000000" cx="589.1309" cy="-29.4156" rx="100.8618" ry="29.3315"/>
<text text-anchor="middle" x="589.1309" y="-33.6156" font-family="Times,serif" font-size="14.00" fill="#000000">s371 SYMBOL</text>
<text text-anchor="middle" x="589.1309" y="-16.8156" font-family="Times,serif" font-size="14.00" fill="#000000">_destructuring_pattern</text>
</a>
</g>
</g>
<!-- s368&#45;&gt;s371 -->
<g id="edge3" class="edge">
<title>s368:p1&#45;&gt;s371</title>
<path fill="none" stroke="#000000" d="M195.0414,-41.4156C290.848,-41.4156 399.6954,-37.8285 478.6846,-34.5767"/>
<polygon fill="#000000" stroke="#000000" points="479.2939,-38.0545 489.1395,-34.1411 479.0025,-31.0606 479.2939,-38.0545"/>
<text text-anchor="middle" x="297.0162" y="-45.6156" font-family="Times,serif" font-size="14.00" fill="#000000">_destructuring_pattern</text>
</g>
<!-- s370 -->
<g id="node4" class="node">
<title>s370</title>
<g id="a_node4"><a xlink:href="javascript-grammar.json.identifier.dot.svg" xlink:title="s370 SYMBOL\nidentifier">
<ellipse fill="none" stroke="#000000" cx="781.7947" cy="-84.4156" rx="73.9667" ry="29.3315"/>
<text text-anchor="middle" x="781.7947" y="-88.6156" font-family="Times,serif" font-size="14.00" fill="#000000">s370 SYMBOL</text>
<text text-anchor="middle" x="781.7947" y="-71.8156" font-family="Times,serif" font-size="14.00" fill="#000000">identifier</text>
</a>
</g>
</g>
<!-- s369&#45;&gt;s370 -->
<g id="edge1" class="edge">
<title>s369&#45;&gt;s370</title>
<path fill="none" stroke="#000000" d="M470.4442,-83.5189C523.7276,-83.6724 625.332,-83.965 697.9851,-84.1743"/>
<polygon fill="#000000" stroke="#000000" points="698.0265,-87.6743 708.0366,-84.2032 698.0468,-80.6743 698.0265,-87.6743"/>
</g>
<!-- s372 -->
<g id="node6" class="node">
<title>s372</title>
<g id="a_node6"><a xlink:href="javascript-grammar.json._initializer.dot.svg" xlink:title="s372 SYMBOL\n_initializer">
<ellipse fill="none" stroke="#000000" cx="966.2607" cy="-39.4156" rx="73.9667" ry="29.3315"/>
<text text-anchor="middle" x="966.2607" y="-43.6156" font-family="Times,serif" font-size="14.00" fill="#000000">s372 SYMBOL</text>
<text text-anchor="middle" x="966.2607" y="-26.8156" font-family="Times,serif" font-size="14.00" fill="#000000">_initializer</text>
</a>
</g>
</g>
<!-- s370&#45;&gt;s372 -->
<g id="edge5" class="edge">
<title>s370&#45;&gt;s372</title>
<path fill="none" stroke="#000000" d="M844.7615,-69.0551C860.4059,-65.2387 877.3035,-61.1165 893.3797,-57.1948"/>
<polygon fill="#000000" stroke="#000000" points="894.3791,-60.5537 903.2647,-54.7834 892.7201,-53.7531 894.3791,-60.5537"/>
</g>
<!-- s371&#45;&gt;s372 -->
<g id="edge6" class="edge">
<title>s371&#45;&gt;s372</title>
<path fill="none" stroke="#000000" d="M689.6993,-32.0823C749.9083,-33.6788 825.5466,-35.6845 882.4961,-37.1945"/>
<polygon fill="#000000" stroke="#000000" points="882.4552,-40.6946 892.5445,-37.461 882.6409,-33.697 882.4552,-40.6946"/>
</g>
</g>
</svg>
