<?xml version="1.0" encoding="UTF-8" standalone="no"?>
<!DOCTYPE svg PUBLIC "-//W3C//DTD SVG 1.1//EN"
 "http://www.w3.org/Graphics/SVG/1.1/DTD/svg11.dtd">
<!-- Generated by graphviz version 2.40.1 (20161225.0304)
 -->
<!-- Title: template_substitution Pages: 1 -->
<svg width="593pt" height="67pt"
 viewBox="0.00 0.00 592.82 66.83" xmlns="http://www.w3.org/2000/svg" xmlns:xlink="http://www.w3.org/1999/xlink">
<g id="graph0" class="graph" transform="scale(1 1) rotate(0) translate(4 62.8313)">
<title>template_substitution</title>
<polygon fill="#ffffff" stroke="transparent" points="-4,4 -4,-62.8313 588.8233,-62.8313 588.8233,4 -4,4"/>
<!-- s665 -->
<g id="node1" class="node">
<title>s665</title>
<polygon fill="none" stroke="#000000" points="0,-8.6156 0,-50.2156 56.4418,-50.2156 56.4418,-8.6156 0,-8.6156"/>
<text text-anchor="middle" x="28.2209" y="-33.6156" font-family="Times,serif" font-size="14.00" fill="#000000">s665</text>
<text text-anchor="middle" x="28.2209" y="-16.8156" font-family="Times,serif" font-size="14.00" fill="#000000">→ SEQ</text>
</g>
<!-- s666 -->
<g id="node2" class="node">
<title>s666</title>
<ellipse fill="none" stroke="#000000" cx="160.6707" cy="-29.4156" rx="68.4585" ry="29.3315"/>
<text text-anchor="middle" x="160.6707" y="-33.6156" font-family="Times,serif" font-size="14.00" fill="#000000">s666 STRING</text>
<text text-anchor="middle" x="160.6707" y="-16.8156" font-family="Times,serif" font-size="14.00" fill="#000000">&quot;${&quot;</text>
</g>
<!-- s665&#45;&gt;s666 -->
<g id="edge1" class="edge">
<title>s665&#45;&gt;s666</title>
<path fill="none" stroke="#000000" d="M56.6347,-29.4156C64.3113,-29.4156 73.0073,-29.4156 82.0218,-29.4156"/>
<polygon fill="#000000" stroke="#000000" points="82.2976,-32.9157 92.2975,-29.4156 82.2975,-25.9157 82.2976,-32.9157"/>
</g>
<!-- s667 -->
<g id="node3" class="node">
<title>s667</title>
<g id="a_node3"><a xlink:href="javascript-grammar.json._expressions.dot.svg" xlink:title="s667 SYMBOL\n_expressions">
<ellipse fill="none" stroke="#000000" cx="338.6325" cy="-29.4156" rx="73.9667" ry="29.3315"/>
<text text-anchor="middle" x="338.6325" y="-33.6156" font-family="Times,serif" font-size="14.00" fill="#000000">s667 SYMBOL</text>
<text text-anchor="middle" x="338.6325" y="-16.8156" font-family="Times,serif" font-size="14.00" fill="#000000">_expressions</text>
</a>
</g>
</g>
<!-- s666&#45;&gt;s667 -->
<g id="edge2" class="edge">
<title>s666&#45;&gt;s667</title>
<path fill="none" stroke="#000000" d="M228.9664,-29.4156C237.3502,-29.4156 245.9933,-29.4156 254.5752,-29.4156"/>
<polygon fill="#000000" stroke="#000000" points="254.6022,-32.9157 264.6022,-29.4156 254.6022,-25.9157 254.6022,-32.9157"/>
</g>
<!-- s668 -->
<g id="node4" class="node">
<title>s668</title>
<ellipse fill="none" stroke="#000000" cx="516.5944" cy="-29.4156" rx="68.4585" ry="29.3315"/>
<text text-anchor="middle" x="516.5944" y="-33.6156" font-family="Times,serif" font-size="14.00" fill="#000000">s668 STRING</text>
<text text-anchor="middle" x="516.5944" y="-16.8156" font-family="Times,serif" font-size="14.00" fill="#000000">&quot;}&quot;</text>
</g>
<!-- s667&#45;&gt;s668 -->
<g id="edge3" class="edge">
<title>s667&#45;&gt;s668</title>
<path fill="none" stroke="#000000" d="M412.5583,-29.4156C420.9771,-29.4156 429.581,-29.4156 438.0567,-29.4156"/>
<polygon fill="#000000" stroke="#000000" points="438.3106,-32.9157 448.3106,-29.4156 438.3106,-25.9157 438.3106,-32.9157"/>
</g>
</g>
</svg>
