<?xml version="1.0" encoding="UTF-8" standalone="no"?>
<!DOCTYPE svg PUBLIC "-//W3C//DTD SVG 1.1//EN"
 "http://www.w3.org/Graphics/SVG/1.1/DTD/svg11.dtd">
<!-- Generated by graphviz version 2.40.1 (20161225.0304)
 -->
<!-- Title: throw_statement Pages: 1 -->
<svg width="604pt" height="67pt"
 viewBox="0.00 0.00 603.83 66.83" xmlns="http://www.w3.org/2000/svg" xmlns:xlink="http://www.w3.org/1999/xlink">
<g id="graph0" class="graph" transform="scale(1 1) rotate(0) translate(4 62.8313)">
<title>throw_statement</title>
<polygon fill="#ffffff" stroke="transparent" points="-4,4 -4,-62.8313 599.8315,-62.8313 599.8315,4 -4,4"/>
<!-- s272 -->
<g id="node1" class="node">
<title>s272</title>
<polygon fill="none" stroke="#000000" points="0,-8.6156 0,-50.2156 56.4418,-50.2156 56.4418,-8.6156 0,-8.6156"/>
<text text-anchor="middle" x="28.2209" y="-33.6156" font-family="Times,serif" font-size="14.00" fill="#000000">s272</text>
<text text-anchor="middle" x="28.2209" y="-16.8156" font-family="Times,serif" font-size="14.00" fill="#000000">→ SEQ</text>
</g>
<!-- s273 -->
<g id="node2" class="node">
<title>s273</title>
<ellipse fill="none" stroke="#000000" cx="160.6707" cy="-29.4156" rx="68.4585" ry="29.3315"/>
<text text-anchor="middle" x="160.6707" y="-33.6156" font-family="Times,serif" font-size="14.00" fill="#000000">s273 STRING</text>
<text text-anchor="middle" x="160.6707" y="-16.8156" font-family="Times,serif" font-size="14.00" fill="#000000">&quot;throw&quot;</text>
</g>
<!-- s272&#45;&gt;s273 -->
<g id="edge1" class="edge">
<title>s272&#45;&gt;s273</title>
<path fill="none" stroke="#000000" d="M56.6347,-29.4156C64.3113,-29.4156 73.0073,-29.4156 82.0218,-29.4156"/>
<polygon fill="#000000" stroke="#000000" points="82.2976,-32.9157 92.2975,-29.4156 82.2975,-25.9157 82.2976,-32.9157"/>
</g>
<!-- s274 -->
<g id="node3" class="node">
<title>s274</title>
<g id="a_node3"><a xlink:href="javascript-grammar.json._expressions.dot.svg" xlink:title="s274 SYMBOL\n_expressions">
<ellipse fill="none" stroke="#000000" cx="338.6325" cy="-29.4156" rx="73.9667" ry="29.3315"/>
<text text-anchor="middle" x="338.6325" y="-33.6156" font-family="Times,serif" font-size="14.00" fill="#000000">s274 SYMBOL</text>
<text text-anchor="middle" x="338.6325" y="-16.8156" font-family="Times,serif" font-size="14.00" fill="#000000">_expressions</text>
</a>
</g>
</g>
<!-- s273&#45;&gt;s274 -->
<g id="edge2" class="edge">
<title>s273&#45;&gt;s274</title>
<path fill="none" stroke="#000000" d="M228.9664,-29.4156C237.3502,-29.4156 245.9933,-29.4156 254.5752,-29.4156"/>
<polygon fill="#000000" stroke="#000000" points="254.6022,-32.9157 264.6022,-29.4156 254.6022,-25.9157 254.6022,-32.9157"/>
</g>
<!-- s275 -->
<g id="node4" class="node">
<title>s275</title>
<g id="a_node4"><a xlink:href="javascript-grammar.json._semicolon.dot.svg" xlink:title="s275 SYMBOL\n_semicolon">
<ellipse fill="none" stroke="#000000" cx="522.0985" cy="-29.4156" rx="73.9667" ry="29.3315"/>
<text text-anchor="middle" x="522.0985" y="-33.6156" font-family="Times,serif" font-size="14.00" fill="#000000">s275 SYMBOL</text>
<text text-anchor="middle" x="522.0985" y="-16.8156" font-family="Times,serif" font-size="14.00" fill="#000000">_semicolon</text>
</a>
</g>
</g>
<!-- s274&#45;&gt;s275 -->
<g id="edge3" class="edge">
<title>s274&#45;&gt;s275</title>
<path fill="none" stroke="#000000" d="M412.4621,-29.4156C420.8152,-29.4156 429.3743,-29.4156 437.8478,-29.4156"/>
<polygon fill="#000000" stroke="#000000" points="438.1214,-32.9157 448.1214,-29.4156 438.1213,-25.9157 438.1214,-32.9157"/>
</g>
</g>
</svg>
