<?xml version="1.0" encoding="UTF-8" standalone="no"?>
<!DOCTYPE svg PUBLIC "-//W3C//DTD SVG 1.1//EN"
 "http://www.w3.org/Graphics/SVG/1.1/DTD/svg11.dtd">
<!-- Generated by graphviz version 2.40.1 (20161225.0304)
 -->
<!-- Title: continue_statement Pages: 1 -->
<svg width="1054pt" height="122pt"
 viewBox="0.00 0.00 1054.41 121.83" xmlns="http://www.w3.org/2000/svg" xmlns:xlink="http://www.w3.org/1999/xlink">
<g id="graph0" class="graph" transform="scale(1 1) rotate(0) translate(4 117.8313)">
<title>continue_statement</title>
<polygon fill="#ffffff" stroke="transparent" points="-4,4 -4,-117.8313 1050.409,-117.8313 1050.409,4 -4,4"/>
<!-- s256 -->
<g id="node1" class="node">
<title>s256</title>
<polygon fill="none" stroke="#000000" points="0,-32.6156 0,-74.2156 56.4418,-74.2156 56.4418,-32.6156 0,-32.6156"/>
<text text-anchor="middle" x="28.2209" y="-57.6156" font-family="Times,serif" font-size="14.00" fill="#000000">s256</text>
<text text-anchor="middle" x="28.2209" y="-40.8156" font-family="Times,serif" font-size="14.00" fill="#000000">→ SEQ</text>
</g>
<!-- s257 -->
<g id="node2" class="node">
<title>s257</title>
<ellipse fill="none" stroke="#000000" cx="161.6707" cy="-53.4156" rx="68.4585" ry="29.3315"/>
<text text-anchor="middle" x="161.6707" y="-57.6156" font-family="Times,serif" font-size="14.00" fill="#000000">s257 STRING</text>
<text text-anchor="middle" x="161.6707" y="-40.8156" font-family="Times,serif" font-size="14.00" fill="#000000">&quot;continue&quot;</text>
</g>
<!-- s256&#45;&gt;s257 -->
<g id="edge1" class="edge">
<title>s256&#45;&gt;s257</title>
<path fill="none" stroke="#000000" d="M56.5222,-53.4156C64.5856,-53.4156 73.7846,-53.4156 83.3101,-53.4156"/>
<polygon fill="#000000" stroke="#000000" points="83.321,-56.9157 93.321,-53.4156 83.3209,-49.9157 83.321,-56.9157"/>
</g>
<!-- s258 -->
<g id="node3" class="node">
<title>s258</title>
<polygon fill="none" stroke="#000000" points="266.8995,-28.6156 266.8995,-78.2156 368.4991,-78.2156 368.4991,-28.6156 266.8995,-28.6156"/>
<text text-anchor="middle" x="307.9493" y="-57.6156" font-family="Times,serif" font-size="14.00" fill="#000000">s258</text>
<text text-anchor="middle" x="307.9493" y="-40.8156" font-family="Times,serif" font-size="14.00" fill="#000000">→ CHOICE</text>
<polyline fill="none" stroke="#000000" points="348.9991,-28.6156 348.9991,-78.2156 "/>
<text text-anchor="middle" x="358.7491" y="-61.6156" font-family="Times,serif" font-size="14.00" fill="#000000"> </text>
<polyline fill="none" stroke="#000000" points="348.9991,-53.4156 368.4991,-53.4156 "/>
<text text-anchor="middle" x="358.7491" y="-36.8156" font-family="Times,serif" font-size="14.00" fill="#000000"> </text>
</g>
<!-- s257&#45;&gt;s258 -->
<g id="edge5" class="edge">
<title>s257&#45;&gt;s258</title>
<path fill="none" stroke="#000000" d="M230.1071,-53.4156C238.9349,-53.4156 247.9288,-53.4156 256.6274,-53.4156"/>
<polygon fill="#000000" stroke="#000000" points="256.6756,-56.9157 266.6755,-53.4156 256.6755,-49.9157 256.6756,-56.9157"/>
</g>
<!-- s259 -->
<g id="node4" class="node">
<title>s259</title>
<polygon fill="none" stroke="#000000" points="516.4627,-61.6156 516.4627,-103.2156 587.6717,-103.2156 587.6717,-61.6156 516.4627,-61.6156"/>
<text text-anchor="middle" x="552.0672" y="-86.6156" font-family="Times,serif" font-size="14.00" fill="#000000">s259</text>
<text text-anchor="middle" x="552.0672" y="-69.8156" font-family="Times,serif" font-size="14.00" fill="#000000">→ ALIAS</text>
</g>
<!-- s258&#45;&gt;s259 -->
<g id="edge3" class="edge">
<title>s258:p0&#45;&gt;s259</title>
<path fill="none" stroke="#000000" d="M368.4991,-65.4156C415.6002,-65.4156 469.2109,-71.0335 506.2817,-75.8103"/>
<polygon fill="#000000" stroke="#000000" points="505.9078,-79.2912 516.2798,-77.1299 506.8238,-72.3514 505.9078,-79.2912"/>
<text text-anchor="middle" x="442.4809" y="-78.6156" font-family="Times,serif" font-size="14.00" fill="#000000">statement_identifier</text>
</g>
<!-- s261 -->
<g id="node6" class="node">
<title>s261</title>
<ellipse fill="none" stroke="#000000" cx="651.0744" cy="-29.4156" rx="45.3054" ry="29.3315"/>
<text text-anchor="middle" x="651.0744" y="-33.6156" font-family="Times,serif" font-size="14.00" fill="#000000">s261 </text>
<text text-anchor="middle" x="651.0744" y="-16.8156" font-family="Times,serif" font-size="14.00" fill="#000000">BLANK</text>
</g>
<!-- s258&#45;&gt;s261 -->
<g id="edge4" class="edge">
<title>s258:p1&#45;&gt;s261</title>
<path fill="none" stroke="#000000" d="M368.4991,-41.4156C447.3133,-41.4156 538.3813,-36.6982 595.3538,-33.179"/>
<polygon fill="#000000" stroke="#000000" points="595.8231,-36.6565 605.5844,-32.5372 595.3848,-29.6702 595.8231,-36.6565"/>
</g>
<!-- s260 -->
<g id="node5" class="node">
<title>s260</title>
<g id="a_node5"><a xlink:href="javascript-grammar.json.identifier.dot.svg" xlink:title="s260 SYMBOL\nidentifier">
<ellipse fill="none" stroke="#000000" cx="788.21" cy="-84.4156" rx="73.9667" ry="29.3315"/>
<text text-anchor="middle" x="788.21" y="-88.6156" font-family="Times,serif" font-size="14.00" fill="#000000">s260 SYMBOL</text>
<text text-anchor="middle" x="788.21" y="-71.8156" font-family="Times,serif" font-size="14.00" fill="#000000">identifier</text>
</a>
</g>
</g>
<!-- s259&#45;&gt;s260 -->
<g id="edge2" class="edge">
<title>s259&#45;&gt;s260</title>
<path fill="none" stroke="#000000" d="M587.6759,-82.7172C618.4396,-82.9778 664.1213,-83.3647 704.117,-83.7034"/>
<polygon fill="#000000" stroke="#000000" points="704.121,-87.2035 714.1503,-83.7884 704.1804,-80.2037 704.121,-87.2035"/>
</g>
<!-- s262 -->
<g id="node7" class="node">
<title>s262</title>
<g id="a_node7"><a xlink:href="javascript-grammar.json._semicolon.dot.svg" xlink:title="s262 SYMBOL\n_semicolon">
<ellipse fill="none" stroke="#000000" cx="972.676" cy="-39.4156" rx="73.9667" ry="29.3315"/>
<text text-anchor="middle" x="972.676" y="-43.6156" font-family="Times,serif" font-size="14.00" fill="#000000">s262 SYMBOL</text>
<text text-anchor="middle" x="972.676" y="-26.8156" font-family="Times,serif" font-size="14.00" fill="#000000">_semicolon</text>
</a>
</g>
</g>
<!-- s260&#45;&gt;s262 -->
<g id="edge6" class="edge">
<title>s260&#45;&gt;s262</title>
<path fill="none" stroke="#000000" d="M851.1768,-69.0551C866.8211,-65.2387 883.7187,-61.1165 899.7949,-57.1948"/>
<polygon fill="#000000" stroke="#000000" points="900.7944,-60.5537 909.68,-54.7834 899.1354,-53.7531 900.7944,-60.5537"/>
</g>
<!-- s261&#45;&gt;s262 -->
<g id="edge7" class="edge">
<title>s261&#45;&gt;s262</title>
<path fill="none" stroke="#000000" d="M696.4699,-30.8272C746.33,-32.3776 827.4779,-34.9008 888.9461,-36.8121"/>
<polygon fill="#000000" stroke="#000000" points="888.9161,-40.3128 899.0201,-37.1254 889.1338,-33.3162 888.9161,-40.3128"/>
</g>
</g>
</svg>
