<?xml version="1.0" encoding="UTF-8" standalone="no"?>
<!DOCTYPE svg PUBLIC "-//W3C//DTD SVG 1.1//EN"
 "http://www.w3.org/Graphics/SVG/1.1/DTD/svg11.dtd">
<!-- Generated by graphviz version 2.40.1 (20161225.0304)
 -->
<!-- Title: array Pages: 1 -->
<svg width="2127pt" height="282pt"
 viewBox="0.00 0.00 2126.53 281.83" xmlns="http://www.w3.org/2000/svg" xmlns:xlink="http://www.w3.org/1999/xlink">
<g id="graph0" class="graph" transform="scale(1 1) rotate(0) translate(4 277.8313)">
<title>array</title>
<polygon fill="#ffffff" stroke="transparent" points="-4,4 -4,-277.8313 2122.5309,-277.8313 2122.5309,4 -4,4"/>
<!-- s373 -->
<g id="node1" class="node">
<title>s373</title>
<polygon fill="none" stroke="#000000" points="0,-23.6156 0,-65.2156 56.4418,-65.2156 56.4418,-23.6156 0,-23.6156"/>
<text text-anchor="middle" x="28.2209" y="-48.6156" font-family="Times,serif" font-size="14.00" fill="#000000">s373</text>
<text text-anchor="middle" x="28.2209" y="-31.8156" font-family="Times,serif" font-size="14.00" fill="#000000">→ SEQ</text>
</g>
<!-- s374 -->
<g id="node2" class="node">
<title>s374</title>
<ellipse fill="none" stroke="#000000" cx="161.6707" cy="-44.4156" rx="68.4585" ry="29.3315"/>
<text text-anchor="middle" x="161.6707" y="-48.6156" font-family="Times,serif" font-size="14.00" fill="#000000">s374 STRING</text>
<text text-anchor="middle" x="161.6707" y="-31.8156" font-family="Times,serif" font-size="14.00" fill="#000000">&quot;[&quot;</text>
</g>
<!-- s373&#45;&gt;s374 -->
<g id="edge1" class="edge">
<title>s373&#45;&gt;s374</title>
<path fill="none" stroke="#000000" d="M56.5222,-44.4156C64.5856,-44.4156 73.7846,-44.4156 83.3101,-44.4156"/>
<polygon fill="#000000" stroke="#000000" points="83.321,-47.9157 93.321,-44.4156 83.3209,-40.9157 83.321,-47.9157"/>
</g>
<!-- s375 -->
<g id="node3" class="node">
<title>s375</title>
<polygon fill="none" stroke="#000000" points="266.8995,-19.6156 266.8995,-69.2156 368.4991,-69.2156 368.4991,-19.6156 266.8995,-19.6156"/>
<text text-anchor="middle" x="307.9493" y="-48.6156" font-family="Times,serif" font-size="14.00" fill="#000000">s375</text>
<text text-anchor="middle" x="307.9493" y="-31.8156" font-family="Times,serif" font-size="14.00" fill="#000000">→ CHOICE</text>
<polyline fill="none" stroke="#000000" points="348.9991,-19.6156 348.9991,-69.2156 "/>
<text text-anchor="middle" x="358.7491" y="-52.6156" font-family="Times,serif" font-size="14.00" fill="#000000"> </text>
<polyline fill="none" stroke="#000000" points="348.9991,-44.4156 368.4991,-44.4156 "/>
<text text-anchor="middle" x="358.7491" y="-27.8156" font-family="Times,serif" font-size="14.00" fill="#000000"> </text>
</g>
<!-- s374&#45;&gt;s375 -->
<g id="edge20" class="edge">
<title>s374&#45;&gt;s375</title>
<path fill="none" stroke="#000000" d="M230.1071,-44.4156C238.9349,-44.4156 247.9288,-44.4156 256.6274,-44.4156"/>
<polygon fill="#000000" stroke="#000000" points="256.6756,-47.9157 266.6755,-44.4156 256.6755,-40.9157 256.6756,-47.9157"/>
</g>
<!-- s376 -->
<g id="node4" class="node">
<title>s376</title>
<polygon fill="none" stroke="#000000" points="405.4991,-61.6156 405.4991,-103.2156 461.9409,-103.2156 461.9409,-61.6156 405.4991,-61.6156"/>
<text text-anchor="middle" x="433.72" y="-86.6156" font-family="Times,serif" font-size="14.00" fill="#000000">s376</text>
<text text-anchor="middle" x="433.72" y="-69.8156" font-family="Times,serif" font-size="14.00" fill="#000000">→ SEQ</text>
</g>
<!-- s375&#45;&gt;s376 -->
<g id="edge18" class="edge">
<title>s375:p0&#45;&gt;s376</title>
<path fill="none" stroke="#000000" d="M368.4991,-56.4156C377.809,-56.4156 387.3689,-58.7298 396.2011,-61.9773"/>
<polygon fill="#000000" stroke="#000000" points="394.8744,-65.2161 405.453,-65.8022 397.5488,-58.7471 394.8744,-65.2161"/>
</g>
<!-- s390 -->
<g id="node18" class="node">
<title>s390</title>
<ellipse fill="none" stroke="#000000" cx="525.3436" cy="-29.4156" rx="45.3054" ry="29.3315"/>
<text text-anchor="middle" x="525.3436" y="-33.6156" font-family="Times,serif" font-size="14.00" fill="#000000">s390 </text>
<text text-anchor="middle" x="525.3436" y="-16.8156" font-family="Times,serif" font-size="14.00" fill="#000000">BLANK</text>
</g>
<!-- s375&#45;&gt;s390 -->
<g id="edge19" class="edge">
<title>s375:p1&#45;&gt;s390</title>
<path fill="none" stroke="#000000" d="M368.4991,-32.4156C401.9976,-32.4156 439.513,-31.7231 469.4526,-31.0035"/>
<polygon fill="#000000" stroke="#000000" points="469.7976,-34.4961 479.7076,-30.749 469.6238,-27.4983 469.7976,-34.4961"/>
</g>
<!-- s377 -->
<g id="node5" class="node">
<title>s377</title>
<polygon fill="none" stroke="#000000" points="588.7462,-58.6156 588.7462,-108.2156 690.3458,-108.2156 690.3458,-58.6156 588.7462,-58.6156"/>
<text text-anchor="middle" x="629.796" y="-87.6156" font-family="Times,serif" font-size="14.00" fill="#000000">s377</text>
<text text-anchor="middle" x="629.796" y="-70.8156" font-family="Times,serif" font-size="14.00" fill="#000000">→ CHOICE</text>
<polyline fill="none" stroke="#000000" points="670.8458,-58.6156 670.8458,-108.2156 "/>
<text text-anchor="middle" x="680.5958" y="-91.6156" font-family="Times,serif" font-size="14.00" fill="#000000"> </text>
<polyline fill="none" stroke="#000000" points="670.8458,-83.4156 690.3458,-83.4156 "/>
<text text-anchor="middle" x="680.5958" y="-66.8156" font-family="Times,serif" font-size="14.00" fill="#000000"> </text>
</g>
<!-- s376&#45;&gt;s377 -->
<g id="edge6" class="edge">
<title>s376&#45;&gt;s377</title>
<path fill="none" stroke="#000000" d="M462.3393,-82.5547C492.2518,-82.7 540.0948,-82.9325 578.5333,-83.1192"/>
<polygon fill="#000000" stroke="#000000" points="578.5764,-86.6194 588.5933,-83.1681 578.6105,-79.6194 578.5764,-86.6194"/>
</g>
<!-- s378 -->
<g id="node6" class="node">
<title>s378</title>
<polygon fill="none" stroke="#000000" points="727.3458,-110.6156 727.3458,-160.2156 828.9454,-160.2156 828.9454,-110.6156 727.3458,-110.6156"/>
<text text-anchor="middle" x="768.3956" y="-139.6156" font-family="Times,serif" font-size="14.00" fill="#000000">s378</text>
<text text-anchor="middle" x="768.3956" y="-122.8156" font-family="Times,serif" font-size="14.00" fill="#000000">→ CHOICE</text>
<polyline fill="none" stroke="#000000" points="809.4454,-110.6156 809.4454,-160.2156 "/>
<text text-anchor="middle" x="819.1954" y="-143.6156" font-family="Times,serif" font-size="14.00" fill="#000000"> </text>
<polyline fill="none" stroke="#000000" points="809.4454,-135.4156 828.9454,-135.4156 "/>
<text text-anchor="middle" x="819.1954" y="-118.8156" font-family="Times,serif" font-size="14.00" fill="#000000"> </text>
</g>
<!-- s377&#45;&gt;s378 -->
<g id="edge4" class="edge">
<title>s377:p0&#45;&gt;s378</title>
<path fill="none" stroke="#000000" d="M690.3458,-95.4156C704.7681,-95.4156 719.421,-99.9405 732.5178,-105.9464"/>
<polygon fill="#000000" stroke="#000000" points="731.2412,-109.2204 741.7538,-110.5379 734.3574,-102.9522 731.2412,-109.2204"/>
</g>
<!-- s381 -->
<g id="node9" class="node">
<title>s381</title>
<ellipse fill="none" stroke="#000000" cx="892.348" cy="-71.4156" rx="45.3054" ry="29.3315"/>
<text text-anchor="middle" x="892.348" y="-75.6156" font-family="Times,serif" font-size="14.00" fill="#000000">s381 </text>
<text text-anchor="middle" x="892.348" y="-58.8156" font-family="Times,serif" font-size="14.00" fill="#000000">BLANK</text>
</g>
<!-- s377&#45;&gt;s381 -->
<g id="edge5" class="edge">
<title>s377:p1&#45;&gt;s381</title>
<path fill="none" stroke="#000000" d="M690.3458,-71.4156C739.7059,-71.4156 795.8505,-71.4156 836.399,-71.4156"/>
<polygon fill="#000000" stroke="#000000" points="836.6188,-74.9157 846.6188,-71.4156 836.6188,-67.9157 836.6188,-74.9157"/>
</g>
<!-- s379 -->
<g id="node7" class="node">
<title>s379</title>
<g id="a_node7"><a xlink:href="javascript-grammar.json._expression.dot.svg" xlink:title="s379 SYMBOL\n_expression">
<ellipse fill="none" stroke="#000000" cx="1029.4836" cy="-199.4156" rx="73.9667" ry="29.3315"/>
<text text-anchor="middle" x="1029.4836" y="-203.6156" font-family="Times,serif" font-size="14.00" fill="#000000">s379 SYMBOL</text>
<text text-anchor="middle" x="1029.4836" y="-186.8156" font-family="Times,serif" font-size="14.00" fill="#000000">_expression</text>
</a>
</g>
</g>
<!-- s378&#45;&gt;s379 -->
<g id="edge2" class="edge">
<title>s378:p0&#45;&gt;s379</title>
<path fill="none" stroke="#000000" d="M828.9454,-147.4156C876.6917,-147.4156 928.8444,-161.3984 967.9946,-174.8622"/>
<polygon fill="#000000" stroke="#000000" points="967.0625,-178.2446 977.6573,-178.2653 969.3878,-171.6421 967.0625,-178.2446"/>
<text text-anchor="middle" x="892.348" y="-167.6156" font-family="Times,serif" font-size="14.00" fill="#000000">_expression</text>
</g>
<!-- s380 -->
<g id="node8" class="node">
<title>s380</title>
<g id="a_node8"><a xlink:href="javascript-grammar.json.spread_element.dot.svg" xlink:title="s380 SYMBOL\nspread_element">
<ellipse fill="none" stroke="#000000" cx="1029.4836" cy="-122.4156" rx="73.9667" ry="29.3315"/>
<text text-anchor="middle" x="1029.4836" y="-126.6156" font-family="Times,serif" font-size="14.00" fill="#000000">s380 SYMBOL</text>
<text text-anchor="middle" x="1029.4836" y="-109.8156" font-family="Times,serif" font-size="14.00" fill="#000000">spread_element</text>
</a>
</g>
</g>
<!-- s378&#45;&gt;s380 -->
<g id="edge3" class="edge">
<title>s378:p1&#45;&gt;s380</title>
<path fill="none" stroke="#000000" d="M828.9454,-123.4156C867.1295,-123.4156 909.4029,-123.2321 945.2534,-123.0223"/>
<polygon fill="#000000" stroke="#000000" points="945.6936,-126.5198 955.6723,-122.9595 945.6513,-119.5199 945.6936,-126.5198"/>
<text text-anchor="middle" x="892.348" y="-126.6156" font-family="Times,serif" font-size="14.00" fill="#000000">spread_element</text>
</g>
<!-- s382 -->
<g id="node10" class="node">
<title>s382</title>
<polygon fill="none" stroke="#000000" points="1140.2166,-97.6156 1140.2166,-139.2156 1223.1002,-139.2156 1223.1002,-97.6156 1140.2166,-97.6156"/>
<text text-anchor="middle" x="1181.6584" y="-122.6156" font-family="Times,serif" font-size="14.00" fill="#000000">s382</text>
<text text-anchor="middle" x="1181.6584" y="-105.8156" font-family="Times,serif" font-size="14.00" fill="#000000">→ REPEAT</text>
</g>
<!-- s379&#45;&gt;s382 -->
<g id="edge15" class="edge">
<title>s379&#45;&gt;s382</title>
<path fill="none" stroke="#000000" d="M1073.9516,-175.9415C1083.6049,-170.8326 1093.7567,-165.45 1103.2166,-160.4156 1113.0308,-155.1927 1123.5264,-149.5871 1133.5447,-144.2266"/>
<polygon fill="#000000" stroke="#000000" points="1135.4135,-147.1962 1142.5776,-139.3907 1132.1096,-141.0249 1135.4135,-147.1962"/>
</g>
<!-- s380&#45;&gt;s382 -->
<g id="edge16" class="edge">
<title>s380&#45;&gt;s382</title>
<path fill="none" stroke="#000000" d="M1103.3422,-120.4742C1112.2791,-120.2393 1121.257,-120.0033 1129.7823,-119.7792"/>
<polygon fill="#000000" stroke="#000000" points="1130.0189,-123.2743 1139.9235,-119.5127 1129.8349,-116.2767 1130.0189,-123.2743"/>
</g>
<!-- s381&#45;&gt;s382 -->
<g id="edge17" class="edge">
<title>s381&#45;&gt;s382</title>
<path fill="none" stroke="#000000" d="M937.8531,-69.7161C981.0186,-69.1551 1047.3961,-71.034 1103.2166,-84.4156 1112.5365,-86.6499 1122.1452,-89.92 1131.3043,-93.5615"/>
<polygon fill="#000000" stroke="#000000" points="1130.0785,-96.8424 1140.6552,-97.4627 1132.7739,-90.3821 1130.0785,-96.8424"/>
</g>
<!-- s383 -->
<g id="node11" class="node">
<title>s383</title>
<polygon fill="none" stroke="#000000" points="1300.1082,-94.6156 1300.1082,-136.2156 1356.55,-136.2156 1356.55,-94.6156 1300.1082,-94.6156"/>
<text text-anchor="middle" x="1328.3291" y="-119.6156" font-family="Times,serif" font-size="14.00" fill="#000000">s383</text>
<text text-anchor="middle" x="1328.3291" y="-102.8156" font-family="Times,serif" font-size="14.00" fill="#000000">→ SEQ</text>
</g>
<!-- s382&#45;&gt;s383 -->
<g id="edge13" class="edge">
<title>s382&#45;&gt;s383</title>
<path fill="none" stroke="#000000" d="M1223.296,-117.564C1244.211,-117.1362 1269.3852,-116.6213 1289.8443,-116.2028"/>
<polygon fill="#000000" stroke="#000000" points="1290.1395,-119.6976 1300.0658,-115.9937 1289.9963,-112.6991 1290.1395,-119.6976"/>
</g>
<!-- s391 -->
<g id="node19" class="node">
<title>s391</title>
<ellipse fill="none" stroke="#000000" cx="1328.3291" cy="-40.4156" rx="68.4585" ry="29.3315"/>
<text text-anchor="middle" x="1328.3291" y="-44.6156" font-family="Times,serif" font-size="14.00" fill="#000000">s391 STRING</text>
<text text-anchor="middle" x="1328.3291" y="-27.8156" font-family="Times,serif" font-size="14.00" fill="#000000">&quot;]&quot;</text>
</g>
<!-- s382&#45;&gt;s391 -->
<g id="edge21" class="edge">
<title>s382&#45;&gt;s391</title>
<path fill="none" stroke="#000000" d="M1220.9635,-97.5131C1237.8721,-88.521 1257.882,-77.8797 1276.018,-68.2349"/>
<polygon fill="#000000" stroke="#000000" points="1278.1191,-71.0817 1285.3048,-63.2961 1274.8323,-64.9013 1278.1191,-71.0817"/>
</g>
<!-- s384 -->
<g id="node12" class="node">
<title>s384</title>
<ellipse fill="none" stroke="#000000" cx="1501.7868" cy="-109.4156" rx="68.4585" ry="29.3315"/>
<text text-anchor="middle" x="1501.7868" y="-113.6156" font-family="Times,serif" font-size="14.00" fill="#000000">s384 STRING</text>
<text text-anchor="middle" x="1501.7868" y="-96.8156" font-family="Times,serif" font-size="14.00" fill="#000000">&quot;,&quot;</text>
</g>
<!-- s383&#45;&gt;s384 -->
<g id="edge7" class="edge">
<title>s383&#45;&gt;s384</title>
<path fill="none" stroke="#000000" d="M1356.5841,-114.4383C1374.8119,-113.8078 1399.4898,-112.9542 1423.3269,-112.1296"/>
<polygon fill="#000000" stroke="#000000" points="1423.597,-115.6225 1433.47,-111.7788 1423.355,-108.6266 1423.597,-115.6225"/>
</g>
<!-- s385 -->
<g id="node13" class="node">
<title>s385</title>
<polygon fill="none" stroke="#000000" points="1607.0157,-120.6156 1607.0157,-170.2156 1708.6153,-170.2156 1708.6153,-120.6156 1607.0157,-120.6156"/>
<text text-anchor="middle" x="1648.0655" y="-149.6156" font-family="Times,serif" font-size="14.00" fill="#000000">s385</text>
<text text-anchor="middle" x="1648.0655" y="-132.8156" font-family="Times,serif" font-size="14.00" fill="#000000">→ CHOICE</text>
<polyline fill="none" stroke="#000000" points="1689.1153,-120.6156 1689.1153,-170.2156 "/>
<text text-anchor="middle" x="1698.8653" y="-153.6156" font-family="Times,serif" font-size="14.00" fill="#000000"> </text>
<polyline fill="none" stroke="#000000" points="1689.1153,-145.4156 1708.6153,-145.4156 "/>
<text text-anchor="middle" x="1698.8653" y="-128.8156" font-family="Times,serif" font-size="14.00" fill="#000000"> </text>
</g>
<!-- s384&#45;&gt;s385 -->
<g id="edge12" class="edge">
<title>s384&#45;&gt;s385</title>
<path fill="none" stroke="#000000" d="M1562.1116,-123.3342C1573.5197,-125.9663 1585.4605,-128.7214 1596.887,-131.3578"/>
<polygon fill="#000000" stroke="#000000" points="1596.2389,-134.8001 1606.7698,-133.638 1597.8127,-127.9793 1596.2389,-134.8001"/>
</g>
<!-- s385&#45;&gt;s382 -->
<g id="edge14" class="edge">
<title>s385&#45;&gt;s382</title>
<path fill="none" stroke="#000000" d="M1606.8014,-150.9371C1530.661,-157.9383 1383.0729,-166.7167 1260.1002,-145.4156 1251.1376,-143.8632 1241.823,-141.4334 1232.8756,-138.6537"/>
<polygon fill="#000000" stroke="#000000" points="1233.9377,-135.3186 1223.3449,-135.525 1231.7544,-141.9694 1233.9377,-135.3186"/>
</g>
<!-- s386 -->
<g id="node14" class="node">
<title>s386</title>
<polygon fill="none" stroke="#000000" points="1745.6153,-181.6156 1745.6153,-231.2156 1847.2149,-231.2156 1847.2149,-181.6156 1745.6153,-181.6156"/>
<text text-anchor="middle" x="1786.6651" y="-210.6156" font-family="Times,serif" font-size="14.00" fill="#000000">s386</text>
<text text-anchor="middle" x="1786.6651" y="-193.8156" font-family="Times,serif" font-size="14.00" fill="#000000">→ CHOICE</text>
<polyline fill="none" stroke="#000000" points="1827.7149,-181.6156 1827.7149,-231.2156 "/>
<text text-anchor="middle" x="1837.4649" y="-214.6156" font-family="Times,serif" font-size="14.00" fill="#000000"> </text>
<polyline fill="none" stroke="#000000" points="1827.7149,-206.4156 1847.2149,-206.4156 "/>
<text text-anchor="middle" x="1837.4649" y="-189.8156" font-family="Times,serif" font-size="14.00" fill="#000000"> </text>
</g>
<!-- s385&#45;&gt;s386 -->
<g id="edge10" class="edge">
<title>s385:p0&#45;&gt;s386</title>
<path fill="none" stroke="#000000" d="M1698.8155,-170.4156C1698.8155,-189.7387 1715.8635,-199.1983 1735.7094,-203.6639"/>
<polygon fill="#000000" stroke="#000000" points="1735.1476,-207.1191 1745.6143,-205.4762 1736.4075,-200.2334 1735.1476,-207.1191"/>
</g>
<!-- s389 -->
<g id="node17" class="node">
<title>s389</title>
<ellipse fill="none" stroke="#000000" cx="1796.4151" cy="-133.4156" rx="45.3054" ry="29.3315"/>
<text text-anchor="middle" x="1796.4151" y="-137.6156" font-family="Times,serif" font-size="14.00" fill="#000000">s389 </text>
<text text-anchor="middle" x="1796.4151" y="-120.8156" font-family="Times,serif" font-size="14.00" fill="#000000">BLANK</text>
</g>
<!-- s385&#45;&gt;s389 -->
<g id="edge11" class="edge">
<title>s385:p1&#45;&gt;s389</title>
<path fill="none" stroke="#000000" d="M1708.6153,-133.4156C1719.0115,-133.4156 1730.1002,-133.4156 1740.7744,-133.4156"/>
<polygon fill="#000000" stroke="#000000" points="1740.8454,-136.9157 1750.8453,-133.4156 1740.8453,-129.9157 1740.8454,-136.9157"/>
</g>
<!-- s387 -->
<g id="node15" class="node">
<title>s387</title>
<g id="a_node15"><a xlink:href="javascript-grammar.json._expression.dot.svg" xlink:title="s387 SYMBOL\n_expression">
<ellipse fill="none" stroke="#000000" cx="2044.7979" cy="-244.4156" rx="73.9667" ry="29.3315"/>
<text text-anchor="middle" x="2044.7979" y="-248.6156" font-family="Times,serif" font-size="14.00" fill="#000000">s387 SYMBOL</text>
<text text-anchor="middle" x="2044.7979" y="-231.8156" font-family="Times,serif" font-size="14.00" fill="#000000">_expression</text>
</a>
</g>
</g>
<!-- s386&#45;&gt;s387 -->
<g id="edge8" class="edge">
<title>s386:p0&#45;&gt;s387</title>
<path fill="none" stroke="#000000" d="M1847.2149,-218.4156C1887.3787,-218.4156 1931.7454,-223.7619 1968.2446,-229.6059"/>
<polygon fill="#000000" stroke="#000000" points="1967.885,-233.0937 1978.3206,-231.2633 1969.0213,-226.1865 1967.885,-233.0937"/>
<text text-anchor="middle" x="1909.1399" y="-230.6156" font-family="Times,serif" font-size="14.00" fill="#000000">_expression</text>
</g>
<!-- s388 -->
<g id="node16" class="node">
<title>s388</title>
<g id="a_node16"><a xlink:href="javascript-grammar.json.spread_element.dot.svg" xlink:title="s388 SYMBOL\nspread_element">
<ellipse fill="none" stroke="#000000" cx="2044.7979" cy="-167.4156" rx="73.9667" ry="29.3315"/>
<text text-anchor="middle" x="2044.7979" y="-171.6156" font-family="Times,serif" font-size="14.00" fill="#000000">s388 SYMBOL</text>
<text text-anchor="middle" x="2044.7979" y="-154.8156" font-family="Times,serif" font-size="14.00" fill="#000000">spread_element</text>
</a>
</g>
</g>
<!-- s386&#45;&gt;s388 -->
<g id="edge9" class="edge">
<title>s386:p1&#45;&gt;s388</title>
<path fill="none" stroke="#000000" d="M1847.2149,-194.4156C1887.7219,-194.4156 1932.4737,-188.7759 1969.1292,-182.6516"/>
<polygon fill="#000000" stroke="#000000" points="1969.9792,-186.057 1979.243,-180.9156 1968.795,-179.1578 1969.9792,-186.057"/>
<text text-anchor="middle" x="1909.1399" y="-197.6156" font-family="Times,serif" font-size="14.00" fill="#000000">spread_element</text>
</g>
<!-- s390&#45;&gt;s391 -->
<g id="edge22" class="edge">
<title>s390&#45;&gt;s391</title>
<path fill="none" stroke="#000000" d="M570.966,-28.6424C608.0936,-28.0796 661.8524,-27.4156 708.8458,-27.4156 708.8458,-27.4156 708.8458,-27.4156 1181.6584,-27.4156 1204.8173,-27.4156 1229.9531,-29.0437 1252.7664,-31.1475"/>
<polygon fill="#000000" stroke="#000000" points="1252.4377,-34.6319 1262.7277,-32.1089 1253.1103,-27.6643 1252.4377,-34.6319"/>
</g>
</g>
</svg>
