<?xml version="1.0" encoding="UTF-8" standalone="no"?>
<!DOCTYPE svg PUBLIC "-//W3C//DTD SVG 1.1//EN"
 "http://www.w3.org/Graphics/SVG/1.1/DTD/svg11.dtd">
<!-- Generated by graphviz version 2.40.1 (20161225.0304)
 -->
<!-- Title: _constructable_expression Pages: 1 -->
<svg width="735pt" height="1746pt"
 viewBox="0.00 0.00 734.50 1746.22" xmlns="http://www.w3.org/2000/svg" xmlns:xlink="http://www.w3.org/1999/xlink">
<g id="graph0" class="graph" transform="scale(1 1) rotate(0) translate(4 1742.2156)">
<title>_constructable_expression</title>
<polygon fill="#ffffff" stroke="transparent" points="-4,4 -4,-1742.2156 730.5019,-1742.2156 730.5019,4 -4,4"/>
<!-- s535 -->
<g id="node1" class="node">
<title>s535</title>
<polygon fill="none" stroke="#000000" points="0,-591.2156 0,-1161.6156 101.5996,-1161.6156 101.5996,-591.2156 0,-591.2156"/>
<text text-anchor="middle" x="41.0498" y="-880.6156" font-family="Times,serif" font-size="14.00" fill="#000000">s535</text>
<text text-anchor="middle" x="41.0498" y="-863.8156" font-family="Times,serif" font-size="14.00" fill="#000000">→ CHOICE</text>
<polyline fill="none" stroke="#000000" points="82.0996,-591.2156 82.0996,-1161.6156 "/>
<text text-anchor="middle" x="91.8496" y="-1145.0156" font-family="Times,serif" font-size="14.00" fill="#000000"> </text>
<polyline fill="none" stroke="#000000" points="82.0996,-1136.8156 101.5996,-1136.8156 "/>
<text text-anchor="middle" x="91.8496" y="-1120.2156" font-family="Times,serif" font-size="14.00" fill="#000000"> </text>
<polyline fill="none" stroke="#000000" points="82.0996,-1112.0156 101.5996,-1112.0156 "/>
<text text-anchor="middle" x="91.8496" y="-1095.4156" font-family="Times,serif" font-size="14.00" fill="#000000"> </text>
<polyline fill="none" stroke="#000000" points="82.0996,-1087.2156 101.5996,-1087.2156 "/>
<text text-anchor="middle" x="91.8496" y="-1070.6156" font-family="Times,serif" font-size="14.00" fill="#000000"> </text>
<polyline fill="none" stroke="#000000" points="82.0996,-1062.4156 101.5996,-1062.4156 "/>
<text text-anchor="middle" x="91.8496" y="-1045.8156" font-family="Times,serif" font-size="14.00" fill="#000000"> </text>
<polyline fill="none" stroke="#000000" points="82.0996,-1037.6156 101.5996,-1037.6156 "/>
<text text-anchor="middle" x="91.8496" y="-1021.0156" font-family="Times,serif" font-size="14.00" fill="#000000"> </text>
<polyline fill="none" stroke="#000000" points="82.0996,-1012.8156 101.5996,-1012.8156 "/>
<text text-anchor="middle" x="91.8496" y="-996.2156" font-family="Times,serif" font-size="14.00" fill="#000000"> </text>
<polyline fill="none" stroke="#000000" points="82.0996,-988.0156 101.5996,-988.0156 "/>
<text text-anchor="middle" x="91.8496" y="-971.4156" font-family="Times,serif" font-size="14.00" fill="#000000"> </text>
<polyline fill="none" stroke="#000000" points="82.0996,-963.2156 101.5996,-963.2156 "/>
<text text-anchor="middle" x="91.8496" y="-946.6156" font-family="Times,serif" font-size="14.00" fill="#000000"> </text>
<polyline fill="none" stroke="#000000" points="82.0996,-938.4156 101.5996,-938.4156 "/>
<text text-anchor="middle" x="91.8496" y="-921.8156" font-family="Times,serif" font-size="14.00" fill="#000000"> </text>
<polyline fill="none" stroke="#000000" points="82.0996,-913.6156 101.5996,-913.6156 "/>
<text text-anchor="middle" x="91.8496" y="-897.0156" font-family="Times,serif" font-size="14.00" fill="#000000"> </text>
<polyline fill="none" stroke="#000000" points="82.0996,-888.8156 101.5996,-888.8156 "/>
<text text-anchor="middle" x="91.8496" y="-872.2156" font-family="Times,serif" font-size="14.00" fill="#000000"> </text>
<polyline fill="none" stroke="#000000" points="82.0996,-864.0156 101.5996,-864.0156 "/>
<text text-anchor="middle" x="91.8496" y="-847.4156" font-family="Times,serif" font-size="14.00" fill="#000000"> </text>
<polyline fill="none" stroke="#000000" points="82.0996,-839.2156 101.5996,-839.2156 "/>
<text text-anchor="middle" x="91.8496" y="-822.6156" font-family="Times,serif" font-size="14.00" fill="#000000"> </text>
<polyline fill="none" stroke="#000000" points="82.0996,-814.4156 101.5996,-814.4156 "/>
<text text-anchor="middle" x="91.8496" y="-797.8156" font-family="Times,serif" font-size="14.00" fill="#000000"> </text>
<polyline fill="none" stroke="#000000" points="82.0996,-789.6156 101.5996,-789.6156 "/>
<text text-anchor="middle" x="91.8496" y="-773.0156" font-family="Times,serif" font-size="14.00" fill="#000000"> </text>
<polyline fill="none" stroke="#000000" points="82.0996,-764.8156 101.5996,-764.8156 "/>
<text text-anchor="middle" x="91.8496" y="-748.2156" font-family="Times,serif" font-size="14.00" fill="#000000"> </text>
<polyline fill="none" stroke="#000000" points="82.0996,-740.0156 101.5996,-740.0156 "/>
<text text-anchor="middle" x="91.8496" y="-723.4156" font-family="Times,serif" font-size="14.00" fill="#000000"> </text>
<polyline fill="none" stroke="#000000" points="82.0996,-715.2156 101.5996,-715.2156 "/>
<text text-anchor="middle" x="91.8496" y="-698.6156" font-family="Times,serif" font-size="14.00" fill="#000000"> </text>
<polyline fill="none" stroke="#000000" points="82.0996,-690.4156 101.5996,-690.4156 "/>
<text text-anchor="middle" x="91.8496" y="-673.8156" font-family="Times,serif" font-size="14.00" fill="#000000"> </text>
<polyline fill="none" stroke="#000000" points="82.0996,-665.6156 101.5996,-665.6156 "/>
<text text-anchor="middle" x="91.8496" y="-649.0156" font-family="Times,serif" font-size="14.00" fill="#000000"> </text>
<polyline fill="none" stroke="#000000" points="82.0996,-640.8156 101.5996,-640.8156 "/>
<text text-anchor="middle" x="91.8496" y="-624.2156" font-family="Times,serif" font-size="14.00" fill="#000000"> </text>
<polyline fill="none" stroke="#000000" points="82.0996,-616.0156 101.5996,-616.0156 "/>
<text text-anchor="middle" x="91.8496" y="-599.4156" font-family="Times,serif" font-size="14.00" fill="#000000"> </text>
</g>
<!-- s536 -->
<g id="node2" class="node">
<title>s536</title>
<g id="a_node2"><a xlink:href="javascript-grammar.json.this.dot.svg" xlink:title="s536 SYMBOL\nthis">
<ellipse fill="none" stroke="#000000" cx="394.4448" cy="-1707.4156" rx="73.9667" ry="29.3315"/>
<text text-anchor="middle" x="394.4448" y="-1711.6156" font-family="Times,serif" font-size="14.00" fill="#000000">s536 SYMBOL</text>
<text text-anchor="middle" x="394.4448" y="-1694.8156" font-family="Times,serif" font-size="14.00" fill="#000000">this</text>
</a>
</g>
</g>
<!-- s535&#45;&gt;s536 -->
<g id="edge1" class="edge">
<title>s535:p0&#45;&gt;s536</title>
<path fill="none" stroke="#000000" d="M91.7998,-1161.4156C91.7998,-1189.6246 100.5306,-1647.6282 119.5996,-1668.4156 168.2825,-1721.4858 253.7777,-1725.8884 316.522,-1720.3573"/>
<polygon fill="#000000" stroke="#000000" points="317.1701,-1723.8105 326.7792,-1719.3478 316.4844,-1716.8441 317.1701,-1723.8105"/>
<text text-anchor="middle" x="191.5141" y="-1725.6156" font-family="Times,serif" font-size="14.00" fill="#000000">this</text>
</g>
<!-- s537 -->
<g id="node3" class="node">
<title>s537</title>
<g id="a_node3"><a xlink:href="javascript-grammar.json.identifier.dot.svg" xlink:title="s537 SYMBOL\nidentifier">
<ellipse fill="none" stroke="#000000" cx="394.4448" cy="-1630.4156" rx="73.9667" ry="29.3315"/>
<text text-anchor="middle" x="394.4448" y="-1634.6156" font-family="Times,serif" font-size="14.00" fill="#000000">s537 SYMBOL</text>
<text text-anchor="middle" x="394.4448" y="-1617.8156" font-family="Times,serif" font-size="14.00" fill="#000000">identifier</text>
</a>
</g>
</g>
<!-- s535&#45;&gt;s537 -->
<g id="edge2" class="edge">
<title>s535:p1&#45;&gt;s537</title>
<path fill="none" stroke="#000000" d="M101.5996,-1124.4156C127.8409,-1124.4156 101.849,-1577.089 119.5996,-1596.4156 168.6614,-1649.8335 255.3379,-1652.1027 318.2631,-1644.955"/>
<polygon fill="#000000" stroke="#000000" points="319.0475,-1648.3847 328.5409,-1643.681 318.1862,-1641.4379 319.0475,-1648.3847"/>
<text text-anchor="middle" x="191.5141" y="-1651.6156" font-family="Times,serif" font-size="14.00" fill="#000000">identifier</text>
</g>
<!-- s538 -->
<g id="node4" class="node">
<title>s538</title>
<polygon fill="none" stroke="#000000" points="358.8403,-1540.6156 358.8403,-1582.2156 430.0493,-1582.2156 430.0493,-1540.6156 358.8403,-1540.6156"/>
<text text-anchor="middle" x="394.4448" y="-1565.6156" font-family="Times,serif" font-size="14.00" fill="#000000">s538</text>
<text text-anchor="middle" x="394.4448" y="-1548.8156" font-family="Times,serif" font-size="14.00" fill="#000000">→ ALIAS</text>
</g>
<!-- s535&#45;&gt;s538 -->
<g id="edge4" class="edge">
<title>s535:p2&#45;&gt;s538</title>
<path fill="none" stroke="#000000" d="M101.5996,-1099.4156C125.1209,-1099.4156 103.8059,-1504.9855 119.5996,-1522.4156 176.9229,-1585.6783 286.5104,-1580.0649 348.5879,-1570.6031"/>
<polygon fill="#000000" stroke="#000000" points="349.1848,-1574.0521 358.4966,-1568.9983 348.0656,-1567.1422 349.1848,-1574.0521"/>
<text text-anchor="middle" x="191.5141" y="-1579.6156" font-family="Times,serif" font-size="14.00" fill="#000000">identifier</text>
</g>
<!-- s540 -->
<g id="node6" class="node">
<title>s540</title>
<g id="a_node6"><a xlink:href="javascript-grammar.json.number.dot.svg" xlink:title="s540 SYMBOL\nnumber">
<ellipse fill="none" stroke="#000000" cx="394.4448" cy="-1492.4156" rx="73.9667" ry="29.3315"/>
<text text-anchor="middle" x="394.4448" y="-1496.6156" font-family="Times,serif" font-size="14.00" fill="#000000">s540 SYMBOL</text>
<text text-anchor="middle" x="394.4448" y="-1479.8156" font-family="Times,serif" font-size="14.00" fill="#000000">number</text>
</a>
</g>
</g>
<!-- s535&#45;&gt;s540 -->
<g id="edge5" class="edge">
<title>s535:p3&#45;&gt;s540</title>
<path fill="none" stroke="#000000" d="M101.5996,-1074.4156C142.7593,-1074.4156 92.359,-1413.56 119.5996,-1444.4156 167.0485,-1498.1614 251.5046,-1505.8045 314.3144,-1502.689"/>
<polygon fill="#000000" stroke="#000000" points="314.8196,-1506.1651 324.5929,-1502.0747 314.4019,-1499.1776 314.8196,-1506.1651"/>
<text text-anchor="middle" x="191.5141" y="-1505.6156" font-family="Times,serif" font-size="14.00" fill="#000000">number</text>
</g>
<!-- s541 -->
<g id="node7" class="node">
<title>s541</title>
<g id="a_node7"><a xlink:href="javascript-grammar.json.string.dot.svg" xlink:title="s541 SYMBOL\nstring">
<ellipse fill="none" stroke="#000000" cx="394.4448" cy="-1415.4156" rx="73.9667" ry="29.3315"/>
<text text-anchor="middle" x="394.4448" y="-1419.6156" font-family="Times,serif" font-size="14.00" fill="#000000">s541 SYMBOL</text>
<text text-anchor="middle" x="394.4448" y="-1402.8156" font-family="Times,serif" font-size="14.00" fill="#000000">string</text>
</a>
</g>
</g>
<!-- s535&#45;&gt;s541 -->
<g id="edge6" class="edge">
<title>s535:p4&#45;&gt;s541</title>
<path fill="none" stroke="#000000" d="M101.5996,-1050.4156C136.6567,-1050.4156 96.3792,-1339.1513 119.5996,-1365.4156 166.9942,-1419.0232 251.0471,-1427.448 313.7633,-1424.9639"/>
<polygon fill="#000000" stroke="#000000" points="314.2153,-1428.4459 324.0292,-1424.4536 313.8677,-1421.4545 314.2153,-1428.4459"/>
<text text-anchor="middle" x="191.5141" y="-1427.6156" font-family="Times,serif" font-size="14.00" fill="#000000">string</text>
</g>
<!-- s542 -->
<g id="node8" class="node">
<title>s542</title>
<g id="a_node8"><a xlink:href="javascript-grammar.json.template_string.dot.svg" xlink:title="s542 SYMBOL\ntemplate_string">
<ellipse fill="none" stroke="#000000" cx="394.4448" cy="-1338.4156" rx="73.9667" ry="29.3315"/>
<text text-anchor="middle" x="394.4448" y="-1342.6156" font-family="Times,serif" font-size="14.00" fill="#000000">s542 SYMBOL</text>
<text text-anchor="middle" x="394.4448" y="-1325.8156" font-family="Times,serif" font-size="14.00" fill="#000000">template_string</text>
</a>
</g>
</g>
<!-- s535&#45;&gt;s542 -->
<g id="edge7" class="edge">
<title>s535:p5&#45;&gt;s542</title>
<path fill="none" stroke="#000000" d="M101.5996,-1025.4156C130.4468,-1025.4156 100.5113,-1262.787 119.5996,-1284.4156 166.8448,-1337.9483 250.3057,-1347.8379 312.8989,-1346.5371"/>
<polygon fill="#000000" stroke="#000000" points="313.2612,-1350.0277 323.1487,-1346.2214 313.0456,-1343.031 313.2612,-1350.0277"/>
<text text-anchor="middle" x="191.5141" y="-1348.6156" font-family="Times,serif" font-size="14.00" fill="#000000">template_string</text>
</g>
<!-- s543 -->
<g id="node9" class="node">
<title>s543</title>
<g id="a_node9"><a xlink:href="javascript-grammar.json.regex.dot.svg" xlink:title="s543 SYMBOL\nregex">
<ellipse fill="none" stroke="#000000" cx="394.4448" cy="-1261.4156" rx="73.9667" ry="29.3315"/>
<text text-anchor="middle" x="394.4448" y="-1265.6156" font-family="Times,serif" font-size="14.00" fill="#000000">s543 SYMBOL</text>
<text text-anchor="middle" x="394.4448" y="-1248.8156" font-family="Times,serif" font-size="14.00" fill="#000000">regex</text>
</a>
</g>
</g>
<!-- s535&#45;&gt;s543 -->
<g id="edge8" class="edge">
<title>s535:p6&#45;&gt;s543</title>
<path fill="none" stroke="#000000" d="M101.5996,-1000.4156C123.9116,-1000.4156 104.8693,-1183.6572 119.5996,-1200.4156 166.6724,-1253.97 249.3443,-1266.2973 311.7583,-1266.9932"/>
<polygon fill="#000000" stroke="#000000" points="311.9796,-1270.4934 321.9841,-1267.0064 311.9887,-1263.4934 311.9796,-1270.4934"/>
<text text-anchor="middle" x="191.5141" y="-1267.6156" font-family="Times,serif" font-size="14.00" fill="#000000">regex</text>
</g>
<!-- s544 -->
<g id="node10" class="node">
<title>s544</title>
<g id="a_node10"><a xlink:href="javascript-grammar.json.true.dot.svg" xlink:title="s544 SYMBOL\ntrue">
<ellipse fill="none" stroke="#000000" cx="394.4448" cy="-1184.4156" rx="73.9667" ry="29.3315"/>
<text text-anchor="middle" x="394.4448" y="-1188.6156" font-family="Times,serif" font-size="14.00" fill="#000000">s544 SYMBOL</text>
<text text-anchor="middle" x="394.4448" y="-1171.8156" font-family="Times,serif" font-size="14.00" fill="#000000">true</text>
</a>
</g>
</g>
<!-- s535&#45;&gt;s544 -->
<g id="edge9" class="edge">
<title>s535:p7&#45;&gt;s544</title>
<path fill="none" stroke="#000000" d="M101.5996,-975.4156C132.0854,-975.4156 99.466,-1088.5242 119.5996,-1111.4156 166.7783,-1165.0567 248.4288,-1181.3815 310.5112,-1185.4368"/>
<polygon fill="#000000" stroke="#000000" points="310.509,-1188.9421 320.6884,-1186.0044 310.8988,-1181.9529 310.509,-1188.9421"/>
<text text-anchor="middle" x="191.5141" y="-1183.6156" font-family="Times,serif" font-size="14.00" fill="#000000">true</text>
</g>
<!-- s545 -->
<g id="node11" class="node">
<title>s545</title>
<g id="a_node11"><a xlink:href="javascript-grammar.json.false.dot.svg" xlink:title="s545 SYMBOL\nfalse">
<ellipse fill="none" stroke="#000000" cx="394.4448" cy="-1107.4156" rx="73.9667" ry="29.3315"/>
<text text-anchor="middle" x="394.4448" y="-1111.6156" font-family="Times,serif" font-size="14.00" fill="#000000">s545 SYMBOL</text>
<text text-anchor="middle" x="394.4448" y="-1094.8156" font-family="Times,serif" font-size="14.00" fill="#000000">false</text>
</a>
</g>
</g>
<!-- s535&#45;&gt;s545 -->
<g id="edge10" class="edge">
<title>s535:p8&#45;&gt;s545</title>
<path fill="none" stroke="#000000" d="M101.5996,-950.4156C132.0043,-950.4156 98.6828,-994.3491 119.5996,-1016.4156 169.5513,-1069.113 250.6454,-1091.3137 311.8295,-1100.6556"/>
<polygon fill="#000000" stroke="#000000" points="311.4572,-1104.138 321.854,-1102.0992 312.455,-1097.2095 311.4572,-1104.138"/>
<text text-anchor="middle" x="191.5141" y="-1094.6156" font-family="Times,serif" font-size="14.00" fill="#000000">false</text>
</g>
<!-- s546 -->
<g id="node12" class="node">
<title>s546</title>
<g id="a_node12"><a xlink:href="javascript-grammar.json.null.dot.svg" xlink:title="s546 SYMBOL\nnull">
<ellipse fill="none" stroke="#000000" cx="394.4448" cy="-1030.4156" rx="73.9667" ry="29.3315"/>
<text text-anchor="middle" x="394.4448" y="-1034.6156" font-family="Times,serif" font-size="14.00" fill="#000000">s546 SYMBOL</text>
<text text-anchor="middle" x="394.4448" y="-1017.8156" font-family="Times,serif" font-size="14.00" fill="#000000">null</text>
</a>
</g>
</g>
<!-- s535&#45;&gt;s546 -->
<g id="edge11" class="edge">
<title>s535:p9&#45;&gt;s546</title>
<path fill="none" stroke="#000000" d="M101.5996,-926.4156C111.7345,-926.4156 110.6513,-935.6571 119.5996,-940.4156 183.6887,-974.497 263.0446,-998.7875 319.9851,-1013.4763"/>
<polygon fill="#000000" stroke="#000000" points="319.437,-1016.9482 329.9909,-1016.0184 321.1607,-1010.1637 319.437,-1016.9482"/>
<text text-anchor="middle" x="191.5141" y="-999.6156" font-family="Times,serif" font-size="14.00" fill="#000000">null</text>
</g>
<!-- s547 -->
<g id="node13" class="node">
<title>s547</title>
<g id="a_node13"><a xlink:href="javascript-grammar.json.undefined.dot.svg" xlink:title="s547 SYMBOL\nundefined">
<ellipse fill="none" stroke="#000000" cx="394.4448" cy="-953.4156" rx="73.9667" ry="29.3315"/>
<text text-anchor="middle" x="394.4448" y="-957.6156" font-family="Times,serif" font-size="14.00" fill="#000000">s547 SYMBOL</text>
<text text-anchor="middle" x="394.4448" y="-940.8156" font-family="Times,serif" font-size="14.00" fill="#000000">undefined</text>
</a>
</g>
</g>
<!-- s535&#45;&gt;s547 -->
<g id="edge12" class="edge">
<title>s535:p10&#45;&gt;s547</title>
<path fill="none" stroke="#000000" d="M101.5996,-901.4156C178.6015,-901.4156 265.2626,-919.0603 324.2014,-933.7931"/>
<polygon fill="#000000" stroke="#000000" points="323.5912,-937.2492 334.1449,-936.3169 325.3133,-930.4643 323.5912,-937.2492"/>
<text text-anchor="middle" x="191.5141" y="-923.6156" font-family="Times,serif" font-size="14.00" fill="#000000">undefined</text>
</g>
<!-- s548 -->
<g id="node14" class="node">
<title>s548</title>
<g id="a_node14"><a xlink:href="javascript-grammar.json.object.dot.svg" xlink:title="s548 SYMBOL\nobject">
<ellipse fill="none" stroke="#000000" cx="394.4448" cy="-876.4156" rx="73.9667" ry="29.3315"/>
<text text-anchor="middle" x="394.4448" y="-880.6156" font-family="Times,serif" font-size="14.00" fill="#000000">s548 SYMBOL</text>
<text text-anchor="middle" x="394.4448" y="-863.8156" font-family="Times,serif" font-size="14.00" fill="#000000">object</text>
</a>
</g>
</g>
<!-- s535&#45;&gt;s548 -->
<g id="edge13" class="edge">
<title>s535:p11&#45;&gt;s548</title>
<path fill="none" stroke="#000000" d="M101.5996,-876.4156C171.8632,-876.4156 251.6098,-876.4156 310.1229,-876.4156"/>
<polygon fill="#000000" stroke="#000000" points="310.4263,-879.9157 320.4262,-876.4156 310.4262,-872.9157 310.4263,-879.9157"/>
<text text-anchor="middle" x="191.5141" y="-880.6156" font-family="Times,serif" font-size="14.00" fill="#000000">object</text>
</g>
<!-- s549 -->
<g id="node15" class="node">
<title>s549</title>
<g id="a_node15"><a xlink:href="javascript-grammar.json.array.dot.svg" xlink:title="s549 SYMBOL\narray">
<ellipse fill="none" stroke="#000000" cx="394.4448" cy="-799.4156" rx="73.9667" ry="29.3315"/>
<text text-anchor="middle" x="394.4448" y="-803.6156" font-family="Times,serif" font-size="14.00" fill="#000000">s549 SYMBOL</text>
<text text-anchor="middle" x="394.4448" y="-786.8156" font-family="Times,serif" font-size="14.00" fill="#000000">array</text>
</a>
</g>
</g>
<!-- s535&#45;&gt;s549 -->
<g id="edge14" class="edge">
<title>s535:p12&#45;&gt;s549</title>
<path fill="none" stroke="#000000" d="M101.5996,-851.4156C178.6015,-851.4156 265.2626,-833.771 324.2014,-819.0381"/>
<polygon fill="#000000" stroke="#000000" points="325.3133,-822.367 334.1449,-816.5144 323.5912,-815.5821 325.3133,-822.367"/>
<text text-anchor="middle" x="191.5141" y="-854.6156" font-family="Times,serif" font-size="14.00" fill="#000000">array</text>
</g>
<!-- s550 -->
<g id="node16" class="node">
<title>s550</title>
<g id="a_node16"><a xlink:href="javascript-grammar.json.function.dot.svg" xlink:title="s550 SYMBOL\nfunction">
<ellipse fill="none" stroke="#000000" cx="394.4448" cy="-722.4156" rx="73.9667" ry="29.3315"/>
<text text-anchor="middle" x="394.4448" y="-726.6156" font-family="Times,serif" font-size="14.00" fill="#000000">s550 SYMBOL</text>
<text text-anchor="middle" x="394.4448" y="-709.8156" font-family="Times,serif" font-size="14.00" fill="#000000">function</text>
</a>
</g>
</g>
<!-- s535&#45;&gt;s550 -->
<g id="edge15" class="edge">
<title>s535:p13&#45;&gt;s550</title>
<path fill="none" stroke="#000000" d="M101.5996,-826.4156C111.9566,-826.4156 110.5154,-816.59 119.5996,-811.6156 183.0047,-776.8963 262.1118,-753.0009 319.1549,-738.7446"/>
<polygon fill="#000000" stroke="#000000" points="320.307,-742.0657 329.183,-736.2807 318.6367,-735.2679 320.307,-742.0657"/>
<text text-anchor="middle" x="191.5141" y="-815.6156" font-family="Times,serif" font-size="14.00" fill="#000000">function</text>
</g>
<!-- s551 -->
<g id="node17" class="node">
<title>s551</title>
<g id="a_node17"><a xlink:href="javascript-grammar.json.arrow_function.dot.svg" xlink:title="s551 SYMBOL\narrow_function">
<ellipse fill="none" stroke="#000000" cx="394.4448" cy="-645.4156" rx="73.9667" ry="29.3315"/>
<text text-anchor="middle" x="394.4448" y="-649.6156" font-family="Times,serif" font-size="14.00" fill="#000000">s551 SYMBOL</text>
<text text-anchor="middle" x="394.4448" y="-632.8156" font-family="Times,serif" font-size="14.00" fill="#000000">arrow_function</text>
</a>
</g>
</g>
<!-- s535&#45;&gt;s551 -->
<g id="edge16" class="edge">
<title>s535:p14&#45;&gt;s551</title>
<path fill="none" stroke="#000000" d="M101.5996,-802.4156C132.7768,-802.4156 98.1608,-757.2518 119.5996,-734.6156 169.3508,-682.0857 250.276,-660.4325 311.4606,-651.5383"/>
<polygon fill="#000000" stroke="#000000" points="312.0527,-654.99 321.4868,-650.1684 311.105,-648.0544 312.0527,-654.99"/>
<text text-anchor="middle" x="191.5141" y="-738.6156" font-family="Times,serif" font-size="14.00" fill="#000000">arrow_function</text>
</g>
<!-- s552 -->
<g id="node18" class="node">
<title>s552</title>
<g id="a_node18"><a xlink:href="javascript-grammar.json.generator_function.dot.svg" xlink:title="s552 SYMBOL\ngenerator_function">
<ellipse fill="none" stroke="#000000" cx="394.4448" cy="-568.4156" rx="86.7583" ry="29.3315"/>
<text text-anchor="middle" x="394.4448" y="-572.6156" font-family="Times,serif" font-size="14.00" fill="#000000">s552 SYMBOL</text>
<text text-anchor="middle" x="394.4448" y="-555.8156" font-family="Times,serif" font-size="14.00" fill="#000000">generator_function</text>
</a>
</g>
</g>
<!-- s535&#45;&gt;s552 -->
<g id="edge17" class="edge">
<title>s535:p15&#45;&gt;s552</title>
<path fill="none" stroke="#000000" d="M101.5996,-777.4156C132.482,-777.4156 99.1528,-662.7597 119.5996,-639.6156 163.5614,-589.8546 237.3586,-572.7478 297.42,-567.708"/>
<polygon fill="#000000" stroke="#000000" points="297.9819,-571.1762 307.6976,-566.9505 297.4673,-564.1951 297.9819,-571.1762"/>
<text text-anchor="middle" x="191.5141" y="-643.6156" font-family="Times,serif" font-size="14.00" fill="#000000">generator_function</text>
</g>
<!-- s553 -->
<g id="node19" class="node">
<title>s553</title>
<g id="a_node19"><a xlink:href="javascript-grammar.json.class.dot.svg" xlink:title="s553 SYMBOL\nclass">
<ellipse fill="none" stroke="#000000" cx="394.4448" cy="-491.4156" rx="73.9667" ry="29.3315"/>
<text text-anchor="middle" x="394.4448" y="-495.6156" font-family="Times,serif" font-size="14.00" fill="#000000">s553 SYMBOL</text>
<text text-anchor="middle" x="394.4448" y="-478.8156" font-family="Times,serif" font-size="14.00" fill="#000000">class</text>
</a>
</g>
</g>
<!-- s535&#45;&gt;s553 -->
<g id="edge18" class="edge">
<title>s535:p16&#45;&gt;s553</title>
<path fill="none" stroke="#000000" d="M101.5996,-752.4156C124.1108,-752.4156 104.6918,-567.4832 119.5996,-550.6156 166.7538,-497.2628 249.4143,-485.4918 311.8035,-485.2373"/>
<polygon fill="#000000" stroke="#000000" points="312.0048,-488.7384 322.025,-485.2967 312.0456,-481.7386 312.0048,-488.7384"/>
<text text-anchor="middle" x="191.5141" y="-554.6156" font-family="Times,serif" font-size="14.00" fill="#000000">class</text>
</g>
<!-- s554 -->
<g id="node20" class="node">
<title>s554</title>
<g id="a_node20"><a xlink:href="javascript-grammar.json.anonymous_class.dot.svg" xlink:title="s554 SYMBOL\nanonymous_class">
<ellipse fill="none" stroke="#000000" cx="394.4448" cy="-414.4156" rx="81.2937" ry="29.3315"/>
<text text-anchor="middle" x="394.4448" y="-418.6156" font-family="Times,serif" font-size="14.00" fill="#000000">s554 SYMBOL</text>
<text text-anchor="middle" x="394.4448" y="-401.8156" font-family="Times,serif" font-size="14.00" fill="#000000">anonymous_class</text>
</a>
</g>
</g>
<!-- s535&#45;&gt;s554 -->
<g id="edge19" class="edge">
<title>s535:p17&#45;&gt;s554</title>
<path fill="none" stroke="#000000" d="M101.5996,-727.4156C130.6463,-727.4156 100.3158,-488.3377 119.5996,-466.6156 165.3395,-415.0925 244.7781,-404.6411 306.5256,-405.5644"/>
<polygon fill="#000000" stroke="#000000" points="306.5799,-409.0668 316.6647,-405.8192 306.7558,-402.069 306.5799,-409.0668"/>
<text text-anchor="middle" x="191.5141" y="-470.6156" font-family="Times,serif" font-size="14.00" fill="#000000">anonymous_class</text>
</g>
<!-- s555 -->
<g id="node21" class="node">
<title>s555</title>
<g id="a_node21"><a xlink:href="javascript-grammar.json.parenthesized_expression.dot.svg" xlink:title="s555 SYMBOL\nparenthesized_expression">
<ellipse fill="none" stroke="#000000" cx="394.4448" cy="-337.4156" rx="113.0323" ry="29.3315"/>
<text text-anchor="middle" x="394.4448" y="-341.6156" font-family="Times,serif" font-size="14.00" fill="#000000">s555 SYMBOL</text>
<text text-anchor="middle" x="394.4448" y="-324.8156" font-family="Times,serif" font-size="14.00" fill="#000000">parenthesized_expression</text>
</a>
</g>
</g>
<!-- s535&#45;&gt;s555 -->
<g id="edge20" class="edge">
<title>s535:p18&#45;&gt;s555</title>
<path fill="none" stroke="#000000" d="M101.5996,-702.4156C136.8564,-702.4156 96.1675,-411.9591 119.5996,-385.6156 158.7049,-341.6515 222.5704,-328.5547 278.899,-326.9318"/>
<polygon fill="#000000" stroke="#000000" points="279.0181,-330.4304 288.9566,-326.7594 278.8981,-323.4314 279.0181,-330.4304"/>
<text text-anchor="middle" x="191.5141" y="-389.6156" font-family="Times,serif" font-size="14.00" fill="#000000">parenthesized_expression</text>
</g>
<!-- s556 -->
<g id="node22" class="node">
<title>s556</title>
<g id="a_node22"><a xlink:href="javascript-grammar.json.subscript_expression.dot.svg" xlink:title="s556 SYMBOL\nsubscript_expression">
<ellipse fill="none" stroke="#000000" cx="394.4448" cy="-260.4156" rx="94.1779" ry="29.3315"/>
<text text-anchor="middle" x="394.4448" y="-264.6156" font-family="Times,serif" font-size="14.00" fill="#000000">s556 SYMBOL</text>
<text text-anchor="middle" x="394.4448" y="-247.8156" font-family="Times,serif" font-size="14.00" fill="#000000">subscript_expression</text>
</a>
</g>
</g>
<!-- s535&#45;&gt;s556 -->
<g id="edge21" class="edge">
<title>s535:p19&#45;&gt;s556</title>
<path fill="none" stroke="#000000" d="M101.5996,-678.4156C142.9591,-678.4156 92.1319,-337.5371 119.5996,-306.6156 162.8103,-257.9718 236.4598,-247.6836 296.6481,-248.878"/>
<polygon fill="#000000" stroke="#000000" points="296.8473,-252.3857 306.9503,-249.1953 297.0629,-245.389 296.8473,-252.3857"/>
<text text-anchor="middle" x="191.5141" y="-310.6156" font-family="Times,serif" font-size="14.00" fill="#000000">subscript_expression</text>
</g>
<!-- s557 -->
<g id="node23" class="node">
<title>s557</title>
<g id="a_node23"><a xlink:href="javascript-grammar.json.member_expression.dot.svg" xlink:title="s557 SYMBOL\nmember_expression">
<ellipse fill="none" stroke="#000000" cx="394.4448" cy="-183.4156" rx="91.0667" ry="29.3315"/>
<text text-anchor="middle" x="394.4448" y="-187.6156" font-family="Times,serif" font-size="14.00" fill="#000000">s557 SYMBOL</text>
<text text-anchor="middle" x="394.4448" y="-170.8156" font-family="Times,serif" font-size="14.00" fill="#000000">member_expression</text>
</a>
</g>
</g>
<!-- s535&#45;&gt;s557 -->
<g id="edge22" class="edge">
<title>s535:p20&#45;&gt;s557</title>
<path fill="none" stroke="#000000" d="M101.5996,-653.4156C125.2208,-653.4156 103.9343,-246.2949 119.5996,-228.6156 163.6488,-178.9034 239.5502,-169.5242 300.4435,-171.5086"/>
<polygon fill="#000000" stroke="#000000" points="300.3242,-175.0066 310.4657,-171.9406 300.6258,-168.0131 300.3242,-175.0066"/>
<text text-anchor="middle" x="191.5141" y="-232.6156" font-family="Times,serif" font-size="14.00" fill="#000000">member_expression</text>
</g>
<!-- s558 -->
<g id="node24" class="node">
<title>s558</title>
<g id="a_node24"><a xlink:href="javascript-grammar.json.meta_property.dot.svg" xlink:title="s558 SYMBOL\nmeta_property">
<ellipse fill="none" stroke="#000000" cx="394.4448" cy="-106.4156" rx="73.9667" ry="29.3315"/>
<text text-anchor="middle" x="394.4448" y="-110.6156" font-family="Times,serif" font-size="14.00" fill="#000000">s558 SYMBOL</text>
<text text-anchor="middle" x="394.4448" y="-93.8156" font-family="Times,serif" font-size="14.00" fill="#000000">meta_property</text>
</a>
</g>
</g>
<!-- s535&#45;&gt;s558 -->
<g id="edge23" class="edge">
<title>s535:p21&#45;&gt;s558</title>
<path fill="none" stroke="#000000" d="M101.5996,-628.4156C128.1629,-628.4156 101.9945,-170.5071 119.5996,-150.6156 167.3118,-96.7072 252.5534,-90.569 315.4965,-94.861"/>
<polygon fill="#000000" stroke="#000000" points="315.548,-98.3757 325.791,-95.6683 316.0953,-91.3971 315.548,-98.3757"/>
<text text-anchor="middle" x="191.5141" y="-154.6156" font-family="Times,serif" font-size="14.00" fill="#000000">meta_property</text>
</g>
<!-- s559 -->
<g id="node25" class="node">
<title>s559</title>
<g id="a_node25"><a xlink:href="javascript-grammar.json.new_expression.dot.svg" xlink:title="s559 SYMBOL\nnew_expression">
<ellipse fill="none" stroke="#000000" cx="394.4448" cy="-29.4156" rx="75.1766" ry="29.3315"/>
<text text-anchor="middle" x="394.4448" y="-33.6156" font-family="Times,serif" font-size="14.00" fill="#000000">s559 SYMBOL</text>
<text text-anchor="middle" x="394.4448" y="-16.8156" font-family="Times,serif" font-size="14.00" fill="#000000">new_expression</text>
</a>
</g>
</g>
<!-- s535&#45;&gt;s559 -->
<g id="edge24" class="edge">
<title>s535:p22&#45;&gt;s559</title>
<path fill="none" stroke="#000000" d="M91.7998,-591.4156C91.7998,-562.6075 100.335,-95.0348 119.5996,-73.6156 167.3584,-20.5157 251.5606,-13.9909 314.2196,-17.9643"/>
<polygon fill="#000000" stroke="#000000" points="314.244,-21.4755 324.474,-18.7193 314.7581,-14.4944 314.244,-21.4755"/>
<text text-anchor="middle" x="191.5141" y="-77.6156" font-family="Times,serif" font-size="14.00" fill="#000000">new_expression</text>
</g>
<!-- s539 -->
<g id="node5" class="node">
<title>s539</title>
<g id="a_node5"><a xlink:href="javascript-grammar.json._reserved_identifier.dot.svg" xlink:title="s539 SYMBOL\n_reserved_identifier">
<ellipse fill="none" stroke="#000000" cx="635.4814" cy="-1561.4156" rx="91.041" ry="29.3315"/>
<text text-anchor="middle" x="635.4814" y="-1565.6156" font-family="Times,serif" font-size="14.00" fill="#000000">s539 SYMBOL</text>
<text text-anchor="middle" x="635.4814" y="-1548.8156" font-family="Times,serif" font-size="14.00" fill="#000000">_reserved_identifier</text>
</a>
</g>
</g>
<!-- s538&#45;&gt;s539 -->
<g id="edge3" class="edge">
<title>s538&#45;&gt;s539</title>
<path fill="none" stroke="#000000" d="M430.2701,-1561.4156C457.7211,-1561.4156 497.0258,-1561.4156 533.9037,-1561.4156"/>
<polygon fill="#000000" stroke="#000000" points="534.229,-1564.9157 544.229,-1561.4156 534.2289,-1557.9157 534.229,-1564.9157"/>
</g>
</g>
</svg>
