<?xml version="1.0" encoding="UTF-8" standalone="no"?>
<!DOCTYPE svg PUBLIC "-//W3C//DTD SVG 1.1//EN"
 "http://www.w3.org/Graphics/SVG/1.1/DTD/svg11.dtd">
<!-- Generated by graphviz version 2.40.1 (20161225.0304)
 -->
<!-- Title: formal_parameters Pages: 1 -->
<svg width="1510pt" height="335pt"
 viewBox="0.00 0.00 1510.31 334.83" xmlns="http://www.w3.org/2000/svg" xmlns:xlink="http://www.w3.org/1999/xlink">
<g id="graph0" class="graph" transform="scale(1 1) rotate(0) translate(4 330.8313)">
<title>formal_parameters</title>
<polygon fill="#ffffff" stroke="transparent" points="-4,4 -4,-330.8313 1506.3112,-330.8313 1506.3112,4 -4,4"/>
<!-- s855 -->
<g id="node1" class="node">
<title>s855</title>
<polygon fill="none" stroke="#000000" points="0,-27.6156 0,-69.2156 56.4418,-69.2156 56.4418,-27.6156 0,-27.6156"/>
<text text-anchor="middle" x="28.2209" y="-52.6156" font-family="Times,serif" font-size="14.00" fill="#000000">s855</text>
<text text-anchor="middle" x="28.2209" y="-35.8156" font-family="Times,serif" font-size="14.00" fill="#000000">→ SEQ</text>
</g>
<!-- s856 -->
<g id="node2" class="node">
<title>s856</title>
<ellipse fill="none" stroke="#000000" cx="161.6707" cy="-48.4156" rx="68.4585" ry="29.3315"/>
<text text-anchor="middle" x="161.6707" y="-52.6156" font-family="Times,serif" font-size="14.00" fill="#000000">s856 STRING</text>
<text text-anchor="middle" x="161.6707" y="-35.8156" font-family="Times,serif" font-size="14.00" fill="#000000">&quot;(&quot;</text>
</g>
<!-- s855&#45;&gt;s856 -->
<g id="edge1" class="edge">
<title>s855&#45;&gt;s856</title>
<path fill="none" stroke="#000000" d="M56.5222,-48.4156C64.5856,-48.4156 73.7846,-48.4156 83.3101,-48.4156"/>
<polygon fill="#000000" stroke="#000000" points="83.321,-51.9157 93.321,-48.4156 83.3209,-44.9157 83.321,-51.9157"/>
</g>
<!-- s857 -->
<g id="node3" class="node">
<title>s857</title>
<polygon fill="none" stroke="#000000" points="266.8995,-23.6156 266.8995,-73.2156 368.4991,-73.2156 368.4991,-23.6156 266.8995,-23.6156"/>
<text text-anchor="middle" x="307.9493" y="-52.6156" font-family="Times,serif" font-size="14.00" fill="#000000">s857</text>
<text text-anchor="middle" x="307.9493" y="-35.8156" font-family="Times,serif" font-size="14.00" fill="#000000">→ CHOICE</text>
<polyline fill="none" stroke="#000000" points="348.9991,-23.6156 348.9991,-73.2156 "/>
<text text-anchor="middle" x="358.7491" y="-56.6156" font-family="Times,serif" font-size="14.00" fill="#000000"> </text>
<polyline fill="none" stroke="#000000" points="348.9991,-48.4156 368.4991,-48.4156 "/>
<text text-anchor="middle" x="358.7491" y="-31.8156" font-family="Times,serif" font-size="14.00" fill="#000000"> </text>
</g>
<!-- s856&#45;&gt;s857 -->
<g id="edge14" class="edge">
<title>s856&#45;&gt;s857</title>
<path fill="none" stroke="#000000" d="M230.1071,-48.4156C238.9349,-48.4156 247.9288,-48.4156 256.6274,-48.4156"/>
<polygon fill="#000000" stroke="#000000" points="256.6756,-51.9157 266.6755,-48.4156 256.6755,-44.9157 256.6756,-51.9157"/>
</g>
<!-- s858 -->
<g id="node4" class="node">
<title>s858</title>
<polygon fill="none" stroke="#000000" points="405.4991,-78.6156 405.4991,-120.2156 461.9409,-120.2156 461.9409,-78.6156 405.4991,-78.6156"/>
<text text-anchor="middle" x="433.72" y="-103.6156" font-family="Times,serif" font-size="14.00" fill="#000000">s858</text>
<text text-anchor="middle" x="433.72" y="-86.8156" font-family="Times,serif" font-size="14.00" fill="#000000">→ SEQ</text>
</g>
<!-- s857&#45;&gt;s858 -->
<g id="edge12" class="edge">
<title>s857:p0&#45;&gt;s858</title>
<path fill="none" stroke="#000000" d="M368.4991,-60.4156C381.0738,-60.4156 393.3257,-65.8217 403.7523,-72.6084"/>
<polygon fill="#000000" stroke="#000000" points="401.8792,-75.5719 412.0482,-78.5456 405.9531,-69.8795 401.8792,-75.5719"/>
</g>
<!-- s868 -->
<g id="node14" class="node">
<title>s868</title>
<ellipse fill="none" stroke="#000000" cx="525.3436" cy="-36.4156" rx="45.3054" ry="29.3315"/>
<text text-anchor="middle" x="525.3436" y="-40.6156" font-family="Times,serif" font-size="14.00" fill="#000000">s868 </text>
<text text-anchor="middle" x="525.3436" y="-23.8156" font-family="Times,serif" font-size="14.00" fill="#000000">BLANK</text>
</g>
<!-- s857&#45;&gt;s868 -->
<g id="edge13" class="edge">
<title>s857:p1&#45;&gt;s868</title>
<path fill="none" stroke="#000000" d="M368.4991,-36.4156C401.9914,-36.4156 439.5067,-36.4156 469.4476,-36.4156"/>
<polygon fill="#000000" stroke="#000000" points="469.7033,-39.9157 479.7032,-36.4156 469.7032,-32.9157 469.7033,-39.9157"/>
</g>
<!-- s859 -->
<g id="node5" class="node">
<title>s859</title>
<polygon fill="none" stroke="#000000" points="588.7462,-92.6156 588.7462,-134.2156 645.188,-134.2156 645.188,-92.6156 588.7462,-92.6156"/>
<text text-anchor="middle" x="616.9671" y="-117.6156" font-family="Times,serif" font-size="14.00" fill="#000000">s859</text>
<text text-anchor="middle" x="616.9671" y="-100.8156" font-family="Times,serif" font-size="14.00" fill="#000000">→ SEQ</text>
</g>
<!-- s858&#45;&gt;s859 -->
<g id="edge8" class="edge">
<title>s858&#45;&gt;s859</title>
<path fill="none" stroke="#000000" d="M461.9508,-101.5725C493.158,-103.9567 543.6099,-107.8112 578.4363,-110.4719"/>
<polygon fill="#000000" stroke="#000000" points="578.4667,-113.9843 588.7042,-111.2564 579,-107.0047 578.4667,-113.9843"/>
</g>
<!-- s860 -->
<g id="node6" class="node">
<title>s860</title>
<g id="a_node6"><a xlink:href="javascript-grammar.json._formal_parameter.dot.svg" xlink:title="s860 SYMBOL\n_formal_parameter">
<ellipse fill="none" stroke="#000000" cx="769.3586" cy="-142.4156" rx="87.3415" ry="29.3315"/>
<text text-anchor="middle" x="769.3586" y="-146.6156" font-family="Times,serif" font-size="14.00" fill="#000000">s860 SYMBOL</text>
<text text-anchor="middle" x="769.3586" y="-129.8156" font-family="Times,serif" font-size="14.00" fill="#000000">_formal_parameter</text>
</a>
</g>
</g>
<!-- s859&#45;&gt;s860 -->
<g id="edge2" class="edge">
<title>s859&#45;&gt;s860</title>
<path fill="none" stroke="#000000" d="M645.2736,-118.8024C656.2865,-120.8981 669.544,-123.421 683.2366,-126.0267"/>
<polygon fill="#000000" stroke="#000000" points="682.7798,-129.5025 693.2579,-127.9337 684.0885,-122.6259 682.7798,-129.5025"/>
</g>
<!-- s861 -->
<g id="node7" class="node">
<title>s861</title>
<polygon fill="none" stroke="#000000" points="893.5291,-195.6156 893.5291,-237.2156 976.4127,-237.2156 976.4127,-195.6156 893.5291,-195.6156"/>
<text text-anchor="middle" x="934.9709" y="-220.6156" font-family="Times,serif" font-size="14.00" fill="#000000">s861</text>
<text text-anchor="middle" x="934.9709" y="-203.8156" font-family="Times,serif" font-size="14.00" fill="#000000">→ REPEAT</text>
</g>
<!-- s860&#45;&gt;s861 -->
<g id="edge7" class="edge">
<title>s860&#45;&gt;s861</title>
<path fill="none" stroke="#000000" d="M822.2147,-166.0332C841.983,-174.8662 864.3833,-184.8752 883.98,-193.6315"/>
<polygon fill="#000000" stroke="#000000" points="882.7932,-196.9347 893.3511,-197.8188 885.649,-190.5437 882.7932,-196.9347"/>
</g>
<!-- s862 -->
<g id="node8" class="node">
<title>s862</title>
<polygon fill="none" stroke="#000000" points="1035.9916,-272.6156 1035.9916,-314.2156 1092.4334,-314.2156 1092.4334,-272.6156 1035.9916,-272.6156"/>
<text text-anchor="middle" x="1064.2125" y="-297.6156" font-family="Times,serif" font-size="14.00" fill="#000000">s862</text>
<text text-anchor="middle" x="1064.2125" y="-280.8156" font-family="Times,serif" font-size="14.00" fill="#000000">→ SEQ</text>
</g>
<!-- s861&#45;&gt;s862 -->
<g id="edge5" class="edge">
<title>s861&#45;&gt;s862</title>
<path fill="none" stroke="#000000" d="M966.8368,-237.277C975.6993,-242.9445 985.3735,-249.0075 994.4127,-254.4156 1004.8237,-260.6445 1016.2615,-267.1659 1026.8116,-273.0541"/>
<polygon fill="#000000" stroke="#000000" points="1025.3635,-276.2532 1035.8062,-278.0423 1028.7585,-270.1315 1025.3635,-276.2532"/>
</g>
<!-- s865 -->
<g id="node11" class="node">
<title>s865</title>
<polygon fill="none" stroke="#000000" points="1013.4127,-120.6156 1013.4127,-170.2156 1115.0123,-170.2156 1115.0123,-120.6156 1013.4127,-120.6156"/>
<text text-anchor="middle" x="1054.4625" y="-149.6156" font-family="Times,serif" font-size="14.00" fill="#000000">s865</text>
<text text-anchor="middle" x="1054.4625" y="-132.8156" font-family="Times,serif" font-size="14.00" fill="#000000">→ CHOICE</text>
<polyline fill="none" stroke="#000000" points="1095.5123,-120.6156 1095.5123,-170.2156 "/>
<text text-anchor="middle" x="1105.2623" y="-153.6156" font-family="Times,serif" font-size="14.00" fill="#000000"> </text>
<polyline fill="none" stroke="#000000" points="1095.5123,-145.4156 1115.0123,-145.4156 "/>
<text text-anchor="middle" x="1105.2623" y="-128.8156" font-family="Times,serif" font-size="14.00" fill="#000000"> </text>
</g>
<!-- s861&#45;&gt;s865 -->
<g id="edge11" class="edge">
<title>s861&#45;&gt;s865</title>
<path fill="none" stroke="#000000" d="M973.0486,-195.4973C984.5526,-189.1775 997.4149,-182.1115 1009.7683,-175.3251"/>
<polygon fill="#000000" stroke="#000000" points="1011.5675,-178.3301 1018.6468,-170.4476 1008.197,-172.1949 1011.5675,-178.3301"/>
</g>
<!-- s863 -->
<g id="node9" class="node">
<title>s863</title>
<ellipse fill="none" stroke="#000000" cx="1222.7412" cy="-297.4156" rx="68.4585" ry="29.3315"/>
<text text-anchor="middle" x="1222.7412" y="-301.6156" font-family="Times,serif" font-size="14.00" fill="#000000">s863 STRING</text>
<text text-anchor="middle" x="1222.7412" y="-284.8156" font-family="Times,serif" font-size="14.00" fill="#000000">&quot;,&quot;</text>
</g>
<!-- s862&#45;&gt;s863 -->
<g id="edge3" class="edge">
<title>s862&#45;&gt;s863</title>
<path fill="none" stroke="#000000" d="M1092.5543,-294.1308C1107.1322,-294.4986 1125.6953,-294.967 1144.2054,-295.434"/>
<polygon fill="#000000" stroke="#000000" points="1144.3725,-298.9393 1154.4577,-295.6927 1144.5492,-291.9415 1144.3725,-298.9393"/>
</g>
<!-- s864 -->
<g id="node10" class="node">
<title>s864</title>
<g id="a_node10"><a xlink:href="javascript-grammar.json._formal_parameter.dot.svg" xlink:title="s864 SYMBOL\n_formal_parameter">
<ellipse fill="none" stroke="#000000" cx="1415.1406" cy="-252.4156" rx="87.3415" ry="29.3315"/>
<text text-anchor="middle" x="1415.1406" y="-256.6156" font-family="Times,serif" font-size="14.00" fill="#000000">s864 SYMBOL</text>
<text text-anchor="middle" x="1415.1406" y="-239.8156" font-family="Times,serif" font-size="14.00" fill="#000000">_formal_parameter</text>
</a>
</g>
</g>
<!-- s863&#45;&gt;s864 -->
<g id="edge4" class="edge">
<title>s863&#45;&gt;s864</title>
<path fill="none" stroke="#000000" d="M1282.8262,-283.3625C1298.8636,-279.6115 1316.4675,-275.4942 1333.4535,-271.5213"/>
<polygon fill="#000000" stroke="#000000" points="1334.4267,-274.8882 1343.3668,-269.2027 1332.8324,-268.0722 1334.4267,-274.8882"/>
</g>
<!-- s864&#45;&gt;s861 -->
<g id="edge6" class="edge">
<title>s864&#45;&gt;s861</title>
<path fill="none" stroke="#000000" d="M1329.8665,-246.0223C1230.4056,-238.5654 1069.1405,-226.4748 986.8563,-220.3057"/>
<polygon fill="#000000" stroke="#000000" points="986.9766,-216.805 976.7429,-219.5474 986.4532,-223.7854 986.9766,-216.805"/>
</g>
<!-- s866 -->
<g id="node12" class="node">
<title>s866</title>
<ellipse fill="none" stroke="#000000" cx="1222.7412" cy="-183.4156" rx="68.4585" ry="29.3315"/>
<text text-anchor="middle" x="1222.7412" y="-187.6156" font-family="Times,serif" font-size="14.00" fill="#000000">s866 STRING</text>
<text text-anchor="middle" x="1222.7412" y="-170.8156" font-family="Times,serif" font-size="14.00" fill="#000000">&quot;,&quot;</text>
</g>
<!-- s865&#45;&gt;s866 -->
<g id="edge9" class="edge">
<title>s865:p0&#45;&gt;s866</title>
<path fill="none" stroke="#000000" d="M1105.2125,-170.4156C1105.2125,-193.0694 1127.0509,-198.6085 1151.9004,-197.5784"/>
<polygon fill="#000000" stroke="#000000" points="1152.1935,-201.0664 1161.9113,-196.8456 1151.6824,-194.085 1152.1935,-201.0664"/>
<text text-anchor="middle" x="1134.7623" y="-200.6156" font-family="Times,serif" font-size="14.00" fill="#000000">,</text>
</g>
<!-- s867 -->
<g id="node13" class="node">
<title>s867</title>
<ellipse fill="none" stroke="#000000" cx="1222.7412" cy="-106.4156" rx="45.3054" ry="29.3315"/>
<text text-anchor="middle" x="1222.7412" y="-110.6156" font-family="Times,serif" font-size="14.00" fill="#000000">s867 </text>
<text text-anchor="middle" x="1222.7412" y="-93.8156" font-family="Times,serif" font-size="14.00" fill="#000000">BLANK</text>
</g>
<!-- s865&#45;&gt;s867 -->
<g id="edge10" class="edge">
<title>s865:p1&#45;&gt;s867</title>
<path fill="none" stroke="#000000" d="M1105.2125,-120.4156C1105.2125,-92.3247 1138.7271,-90.2429 1169.9623,-94.4027"/>
<polygon fill="#000000" stroke="#000000" points="1169.5615,-97.8822 1179.9782,-95.9475 1170.6286,-90.964 1169.5615,-97.8822"/>
</g>
<!-- s869 -->
<g id="node15" class="node">
<title>s869</title>
<ellipse fill="none" stroke="#000000" cx="1222.7412" cy="-29.4156" rx="68.4585" ry="29.3315"/>
<text text-anchor="middle" x="1222.7412" y="-33.6156" font-family="Times,serif" font-size="14.00" fill="#000000">s869 STRING</text>
<text text-anchor="middle" x="1222.7412" y="-16.8156" font-family="Times,serif" font-size="14.00" fill="#000000">&quot;)&quot;</text>
</g>
<!-- s865&#45;&gt;s869 -->
<g id="edge15" class="edge">
<title>s865&#45;&gt;s869</title>
<path fill="none" stroke="#000000" d="M1090.8013,-120.4376C1108.2438,-104.6445 1131.9261,-84.2917 1154.5123,-68.4156 1159.7132,-64.7599 1165.2811,-61.143 1170.9101,-57.6718"/>
<polygon fill="#000000" stroke="#000000" points="1172.9933,-60.5033 1179.762,-52.3525 1169.3878,-54.5033 1172.9933,-60.5033"/>
</g>
<!-- s868&#45;&gt;s869 -->
<g id="edge16" class="edge">
<title>s868&#45;&gt;s869</title>
<path fill="none" stroke="#000000" d="M570.8293,-36.4156C597.818,-36.4156 632.7046,-36.4156 663.688,-36.4156 663.688,-36.4156 663.688,-36.4156 1064.2125,-36.4156 1090.4789,-36.4156 1119.1695,-35.4447 1144.8353,-34.226"/>
<polygon fill="#000000" stroke="#000000" points="1145.0685,-37.7188 1154.8835,-33.7293 1144.7228,-30.7274 1145.0685,-37.7188"/>
</g>
</g>
</svg>
