<?xml version="1.0" encoding="UTF-8" standalone="no"?>
<!DOCTYPE svg PUBLIC "-//W3C//DTD SVG 1.1//EN"
 "http://www.w3.org/Graphics/SVG/1.1/DTD/svg11.dtd">
<!-- Generated by graphviz version 2.40.1 (20161225.0304)
 -->
<!-- Title: lexical_declaration Pages: 1 -->
<svg width="1401pt" height="173pt"
 viewBox="0.00 0.00 1401.15 172.72" xmlns="http://www.w3.org/2000/svg" xmlns:xlink="http://www.w3.org/1999/xlink">
<g id="graph0" class="graph" transform="scale(1 1) rotate(0) translate(4 168.7156)">
<title>lexical_declaration</title>
<polygon fill="#ffffff" stroke="transparent" points="-4,4 -4,-168.7156 1397.1543,-168.7156 1397.1543,4 -4,4"/>
<!-- s147 -->
<g id="node1" class="node">
<title>s147</title>
<polygon fill="none" stroke="#000000" points="0,-53.6156 0,-95.2156 56.4418,-95.2156 56.4418,-53.6156 0,-53.6156"/>
<text text-anchor="middle" x="28.2209" y="-78.6156" font-family="Times,serif" font-size="14.00" fill="#000000">s147</text>
<text text-anchor="middle" x="28.2209" y="-61.8156" font-family="Times,serif" font-size="14.00" fill="#000000">→ SEQ</text>
</g>
<!-- s148 -->
<g id="node2" class="node">
<title>s148</title>
<polygon fill="none" stroke="#000000" points="93.4418,-49.6156 93.4418,-99.2156 195.0414,-99.2156 195.0414,-49.6156 93.4418,-49.6156"/>
<text text-anchor="middle" x="134.4916" y="-78.6156" font-family="Times,serif" font-size="14.00" fill="#000000">s148</text>
<text text-anchor="middle" x="134.4916" y="-61.8156" font-family="Times,serif" font-size="14.00" fill="#000000">→ CHOICE</text>
<polyline fill="none" stroke="#000000" points="175.5414,-49.6156 175.5414,-99.2156 "/>
<text text-anchor="middle" x="185.2914" y="-82.6156" font-family="Times,serif" font-size="14.00" fill="#000000"> </text>
<polyline fill="none" stroke="#000000" points="175.5414,-74.4156 195.0414,-74.4156 "/>
<text text-anchor="middle" x="185.2914" y="-57.8156" font-family="Times,serif" font-size="14.00" fill="#000000"> </text>
</g>
<!-- s147&#45;&gt;s148 -->
<g id="edge3" class="edge">
<title>s147&#45;&gt;s148</title>
<path fill="none" stroke="#000000" d="M56.6028,-74.4156C64.6824,-74.4156 73.8102,-74.4156 83.0459,-74.4156"/>
<polygon fill="#000000" stroke="#000000" points="83.0657,-77.9157 93.0657,-74.4156 83.0656,-70.9157 83.0657,-77.9157"/>
</g>
<!-- s149 -->
<g id="node3" class="node">
<title>s149</title>
<ellipse fill="none" stroke="#000000" cx="328.8201" cy="-113.4156" rx="68.4585" ry="29.3315"/>
<text text-anchor="middle" x="328.8201" y="-117.6156" font-family="Times,serif" font-size="14.00" fill="#000000">s149 STRING</text>
<text text-anchor="middle" x="328.8201" y="-100.8156" font-family="Times,serif" font-size="14.00" fill="#000000">&quot;let&quot;</text>
</g>
<!-- s148&#45;&gt;s149 -->
<g id="edge1" class="edge">
<title>s148:p0&#45;&gt;s149</title>
<path fill="none" stroke="#000000" d="M195.0414,-86.4156C217.2344,-86.4156 241.0963,-90.0301 262.4349,-94.6142"/>
<polygon fill="#000000" stroke="#000000" points="261.8415,-98.0682 272.3666,-96.8545 263.3819,-91.2398 261.8415,-98.0682"/>
<text text-anchor="middle" x="227.8163" y="-93.6156" font-family="Times,serif" font-size="14.00" fill="#000000">let</text>
</g>
<!-- s150 -->
<g id="node4" class="node">
<title>s150</title>
<ellipse fill="none" stroke="#000000" cx="328.8201" cy="-36.4156" rx="68.4585" ry="29.3315"/>
<text text-anchor="middle" x="328.8201" y="-40.6156" font-family="Times,serif" font-size="14.00" fill="#000000">s150 STRING</text>
<text text-anchor="middle" x="328.8201" y="-23.8156" font-family="Times,serif" font-size="14.00" fill="#000000">&quot;const&quot;</text>
</g>
<!-- s148&#45;&gt;s150 -->
<g id="edge2" class="edge">
<title>s148:p1&#45;&gt;s150</title>
<path fill="none" stroke="#000000" d="M195.0414,-62.4156C216.9986,-62.4156 240.6167,-58.9989 261.8061,-54.6426"/>
<polygon fill="#000000" stroke="#000000" points="262.6383,-58.0436 271.6745,-52.512 261.161,-51.2013 262.6383,-58.0436"/>
<text text-anchor="middle" x="227.8163" y="-65.6156" font-family="Times,serif" font-size="14.00" fill="#000000">const</text>
</g>
<!-- s151 -->
<g id="node5" class="node">
<title>s151</title>
<polygon fill="none" stroke="#000000" points="434.0489,-53.6156 434.0489,-95.2156 490.4907,-95.2156 490.4907,-53.6156 434.0489,-53.6156"/>
<text text-anchor="middle" x="462.2698" y="-78.6156" font-family="Times,serif" font-size="14.00" fill="#000000">s151</text>
<text text-anchor="middle" x="462.2698" y="-61.8156" font-family="Times,serif" font-size="14.00" fill="#000000">→ SEQ</text>
</g>
<!-- s149&#45;&gt;s151 -->
<g id="edge10" class="edge">
<title>s149&#45;&gt;s151</title>
<path fill="none" stroke="#000000" d="M385.4148,-96.8761C398.5125,-93.0484 412.1434,-89.0648 424.225,-85.534"/>
<polygon fill="#000000" stroke="#000000" points="425.3468,-88.8527 433.9635,-82.688 423.3832,-82.1337 425.3468,-88.8527"/>
</g>
<!-- s150&#45;&gt;s151 -->
<g id="edge11" class="edge">
<title>s150&#45;&gt;s151</title>
<path fill="none" stroke="#000000" d="M385.8019,-52.6413C398.7527,-56.3291 412.204,-60.1593 424.1473,-63.5602"/>
<polygon fill="#000000" stroke="#000000" points="423.2047,-66.9309 433.7809,-66.3034 425.1218,-60.1985 423.2047,-66.9309"/>
</g>
<!-- s152 -->
<g id="node6" class="node">
<title>s152</title>
<g id="a_node6"><a xlink:href="javascript-grammar.json.variable_declarator.dot.svg" xlink:title="s152 SYMBOL\nvariable_declarator">
<ellipse fill="none" stroke="#000000" cx="615.2048" cy="-74.4156" rx="87.9286" ry="29.3315"/>
<text text-anchor="middle" x="615.2048" y="-78.6156" font-family="Times,serif" font-size="14.00" fill="#000000">s152 SYMBOL</text>
<text text-anchor="middle" x="615.2048" y="-61.8156" font-family="Times,serif" font-size="14.00" fill="#000000">variable_declarator</text>
</a>
</g>
</g>
<!-- s151&#45;&gt;s152 -->
<g id="edge4" class="edge">
<title>s151&#45;&gt;s152</title>
<path fill="none" stroke="#000000" d="M490.6773,-74.4156C498.5631,-74.4156 507.5956,-74.4156 517.1152,-74.4156"/>
<polygon fill="#000000" stroke="#000000" points="517.1844,-77.9157 527.1843,-74.4156 517.1843,-70.9157 517.1844,-77.9157"/>
</g>
<!-- s153 -->
<g id="node7" class="node">
<title>s153</title>
<polygon fill="none" stroke="#000000" points="739.9189,-53.6156 739.9189,-95.2156 822.8025,-95.2156 822.8025,-53.6156 739.9189,-53.6156"/>
<text text-anchor="middle" x="781.3607" y="-78.6156" font-family="Times,serif" font-size="14.00" fill="#000000">s153</text>
<text text-anchor="middle" x="781.3607" y="-61.8156" font-family="Times,serif" font-size="14.00" fill="#000000">→ REPEAT</text>
</g>
<!-- s152&#45;&gt;s153 -->
<g id="edge9" class="edge">
<title>s152&#45;&gt;s153</title>
<path fill="none" stroke="#000000" d="M703.1481,-74.4156C712.2241,-74.4156 721.2223,-74.4156 729.7076,-74.4156"/>
<polygon fill="#000000" stroke="#000000" points="729.7742,-77.9157 739.7742,-74.4156 729.7741,-70.9157 729.7742,-77.9157"/>
</g>
<!-- s154 -->
<g id="node8" class="node">
<title>s154</title>
<polygon fill="none" stroke="#000000" points="905.3145,-122.6156 905.3145,-164.2156 961.7563,-164.2156 961.7563,-122.6156 905.3145,-122.6156"/>
<text text-anchor="middle" x="933.5354" y="-147.6156" font-family="Times,serif" font-size="14.00" fill="#000000">s154</text>
<text text-anchor="middle" x="933.5354" y="-130.8156" font-family="Times,serif" font-size="14.00" fill="#000000">→ SEQ</text>
</g>
<!-- s153&#45;&gt;s154 -->
<g id="edge7" class="edge">
<title>s153&#45;&gt;s154</title>
<path fill="none" stroke="#000000" d="M823.0974,-95.1423C834.9041,-100.8669 847.8062,-106.9927 859.8025,-112.4156 871.3685,-117.6441 884.0752,-123.091 895.6335,-127.9338"/>
<polygon fill="#000000" stroke="#000000" points="894.4449,-131.2301 905.0221,-131.8416 897.1349,-124.7675 894.4449,-131.2301"/>
</g>
<!-- s157 -->
<g id="node11" class="node">
<title>s157</title>
<g id="a_node11"><a xlink:href="javascript-grammar.json._semicolon.dot.svg" xlink:title="s157 SYMBOL\n_semicolon">
<ellipse fill="none" stroke="#000000" cx="933.5354" cy="-74.4156" rx="73.9667" ry="29.3315"/>
<text text-anchor="middle" x="933.5354" y="-78.6156" font-family="Times,serif" font-size="14.00" fill="#000000">s157 SYMBOL</text>
<text text-anchor="middle" x="933.5354" y="-61.8156" font-family="Times,serif" font-size="14.00" fill="#000000">_semicolon</text>
</a>
</g>
</g>
<!-- s153&#45;&gt;s157 -->
<g id="edge12" class="edge">
<title>s153&#45;&gt;s157</title>
<path fill="none" stroke="#000000" d="M822.9431,-74.4156C831.2797,-74.4156 840.3175,-74.4156 849.5116,-74.4156"/>
<polygon fill="#000000" stroke="#000000" points="849.5237,-77.9157 859.5237,-74.4156 849.5237,-70.9157 849.5237,-77.9157"/>
</g>
<!-- s155 -->
<g id="node9" class="node">
<title>s155</title>
<ellipse fill="none" stroke="#000000" cx="1112.4973" cy="-108.4156" rx="68.4585" ry="29.3315"/>
<text text-anchor="middle" x="1112.4973" y="-112.6156" font-family="Times,serif" font-size="14.00" fill="#000000">s155 STRING</text>
<text text-anchor="middle" x="1112.4973" y="-95.8156" font-family="Times,serif" font-size="14.00" fill="#000000">&quot;,&quot;</text>
</g>
<!-- s154&#45;&gt;s155 -->
<g id="edge5" class="edge">
<title>s154&#45;&gt;s155</title>
<path fill="none" stroke="#000000" d="M961.8925,-137.8698C982.9595,-133.7497 1012.6853,-127.9361 1040.1684,-122.5612"/>
<polygon fill="#000000" stroke="#000000" points="1041.0298,-125.9591 1050.1721,-120.6047 1039.6862,-119.0893 1041.0298,-125.9591"/>
</g>
<!-- s156 -->
<g id="node10" class="node">
<title>s156</title>
<g id="a_node10"><a xlink:href="javascript-grammar.json.variable_declarator.dot.svg" xlink:title="s156 SYMBOL\nvariable_declarator">
<ellipse fill="none" stroke="#000000" cx="1305.4402" cy="-29.4156" rx="87.9286" ry="29.3315"/>
<text text-anchor="middle" x="1305.4402" y="-33.6156" font-family="Times,serif" font-size="14.00" fill="#000000">s156 SYMBOL</text>
<text text-anchor="middle" x="1305.4402" y="-16.8156" font-family="Times,serif" font-size="14.00" fill="#000000">variable_declarator</text>
</a>
</g>
</g>
<!-- s155&#45;&gt;s156 -->
<g id="edge6" class="edge">
<title>s155&#45;&gt;s156</title>
<path fill="none" stroke="#000000" d="M1162.1849,-88.0712C1186.0513,-78.2992 1214.9581,-66.4633 1240.5372,-55.99"/>
<polygon fill="#000000" stroke="#000000" points="1241.8669,-59.2277 1249.795,-52.1995 1239.2144,-52.7497 1241.8669,-59.2277"/>
</g>
<!-- s156&#45;&gt;s153 -->
<g id="edge8" class="edge">
<title>s156&#45;&gt;s153</title>
<path fill="none" stroke="#000000" d="M1221.9783,-20.1057C1131.4274,-12.4464 983.2599,-7.0641 859.8025,-36.4156 848.071,-39.2048 836.0424,-43.9395 825.0385,-49.1383"/>
<polygon fill="#000000" stroke="#000000" points="823.4733,-46.0077 816.0651,-53.582 826.5798,-52.2807 823.4733,-46.0077"/>
</g>
</g>
</svg>
