<?xml version="1.0" encoding="UTF-8" standalone="no"?>
<!DOCTYPE svg PUBLIC "-//W3C//DTD SVG 1.1//EN"
 "http://www.w3.org/Graphics/SVG/1.1/DTD/svg11.dtd">
<!-- Generated by graphviz version 2.40.1 (20161225.0304)
 -->
<!-- Title: arguments Pages: 1 -->
<svg width="2229pt" height="282pt"
 viewBox="0.00 0.00 2228.54 281.83" xmlns="http://www.w3.org/2000/svg" xmlns:xlink="http://www.w3.org/1999/xlink">
<g id="graph0" class="graph" transform="scale(1 1) rotate(0) translate(4 277.8313)">
<title>arguments</title>
<polygon fill="#ffffff" stroke="transparent" points="-4,4 -4,-277.8313 2224.5393,-277.8313 2224.5393,4 -4,4"/>
<!-- s782 -->
<g id="node1" class="node">
<title>s782</title>
<polygon fill="none" stroke="#000000" points="0,-23.6156 0,-65.2156 65.0084,-65.2156 65.0084,-23.6156 0,-23.6156"/>
<text text-anchor="middle" x="32.5042" y="-48.6156" font-family="Times,serif" font-size="14.00" fill="#000000">s782</text>
<text text-anchor="middle" x="32.5042" y="-31.8156" font-family="Times,serif" font-size="14.00" fill="#000000">→ PREC</text>
</g>
<!-- s783 -->
<g id="node2" class="node">
<title>s783</title>
<polygon fill="none" stroke="#000000" points="102.0084,-23.6156 102.0084,-65.2156 158.4502,-65.2156 158.4502,-23.6156 102.0084,-23.6156"/>
<text text-anchor="middle" x="130.2293" y="-48.6156" font-family="Times,serif" font-size="14.00" fill="#000000">s783</text>
<text text-anchor="middle" x="130.2293" y="-31.8156" font-family="Times,serif" font-size="14.00" fill="#000000">→ SEQ</text>
</g>
<!-- s782&#45;&gt;s783 -->
<g id="edge23" class="edge">
<title>s782&#45;&gt;s783</title>
<path fill="none" stroke="#000000" d="M65.0452,-44.4156C73.5855,-44.4156 82.8774,-44.4156 91.6984,-44.4156"/>
<polygon fill="#000000" stroke="#000000" points="91.7642,-47.9157 101.7641,-44.4156 91.7641,-40.9157 91.7642,-47.9157"/>
</g>
<!-- s784 -->
<g id="node3" class="node">
<title>s784</title>
<ellipse fill="none" stroke="#000000" cx="263.6791" cy="-44.4156" rx="68.4585" ry="29.3315"/>
<text text-anchor="middle" x="263.6791" y="-48.6156" font-family="Times,serif" font-size="14.00" fill="#000000">s784 STRING</text>
<text text-anchor="middle" x="263.6791" y="-31.8156" font-family="Times,serif" font-size="14.00" fill="#000000">&quot;(&quot;</text>
</g>
<!-- s783&#45;&gt;s784 -->
<g id="edge1" class="edge">
<title>s783&#45;&gt;s784</title>
<path fill="none" stroke="#000000" d="M158.5306,-44.4156C166.594,-44.4156 175.793,-44.4156 185.3185,-44.4156"/>
<polygon fill="#000000" stroke="#000000" points="185.3294,-47.9157 195.3294,-44.4156 185.3293,-40.9157 185.3294,-47.9157"/>
</g>
<!-- s785 -->
<g id="node4" class="node">
<title>s785</title>
<polygon fill="none" stroke="#000000" points="368.9079,-19.6156 368.9079,-69.2156 470.5075,-69.2156 470.5075,-19.6156 368.9079,-19.6156"/>
<text text-anchor="middle" x="409.9577" y="-48.6156" font-family="Times,serif" font-size="14.00" fill="#000000">s785</text>
<text text-anchor="middle" x="409.9577" y="-31.8156" font-family="Times,serif" font-size="14.00" fill="#000000">→ CHOICE</text>
<polyline fill="none" stroke="#000000" points="451.0075,-19.6156 451.0075,-69.2156 "/>
<text text-anchor="middle" x="460.7575" y="-52.6156" font-family="Times,serif" font-size="14.00" fill="#000000"> </text>
<polyline fill="none" stroke="#000000" points="451.0075,-44.4156 470.5075,-44.4156 "/>
<text text-anchor="middle" x="460.7575" y="-27.8156" font-family="Times,serif" font-size="14.00" fill="#000000"> </text>
</g>
<!-- s784&#45;&gt;s785 -->
<g id="edge20" class="edge">
<title>s784&#45;&gt;s785</title>
<path fill="none" stroke="#000000" d="M332.1155,-44.4156C340.9433,-44.4156 349.9372,-44.4156 358.6358,-44.4156"/>
<polygon fill="#000000" stroke="#000000" points="358.684,-47.9157 368.6839,-44.4156 358.6839,-40.9157 358.684,-47.9157"/>
</g>
<!-- s786 -->
<g id="node5" class="node">
<title>s786</title>
<polygon fill="none" stroke="#000000" points="507.5075,-61.6156 507.5075,-103.2156 563.9493,-103.2156 563.9493,-61.6156 507.5075,-61.6156"/>
<text text-anchor="middle" x="535.7284" y="-86.6156" font-family="Times,serif" font-size="14.00" fill="#000000">s786</text>
<text text-anchor="middle" x="535.7284" y="-69.8156" font-family="Times,serif" font-size="14.00" fill="#000000">→ SEQ</text>
</g>
<!-- s785&#45;&gt;s786 -->
<g id="edge18" class="edge">
<title>s785:p0&#45;&gt;s786</title>
<path fill="none" stroke="#000000" d="M470.5075,-56.4156C479.8174,-56.4156 489.3773,-58.7298 498.2095,-61.9773"/>
<polygon fill="#000000" stroke="#000000" points="496.8828,-65.2161 507.4614,-65.8022 499.5572,-58.7471 496.8828,-65.2161"/>
</g>
<!-- s800 -->
<g id="node19" class="node">
<title>s800</title>
<ellipse fill="none" stroke="#000000" cx="627.352" cy="-29.4156" rx="45.3054" ry="29.3315"/>
<text text-anchor="middle" x="627.352" y="-33.6156" font-family="Times,serif" font-size="14.00" fill="#000000">s800 </text>
<text text-anchor="middle" x="627.352" y="-16.8156" font-family="Times,serif" font-size="14.00" fill="#000000">BLANK</text>
</g>
<!-- s785&#45;&gt;s800 -->
<g id="edge19" class="edge">
<title>s785:p1&#45;&gt;s800</title>
<path fill="none" stroke="#000000" d="M470.5075,-32.4156C504.006,-32.4156 541.5214,-31.7231 571.461,-31.0035"/>
<polygon fill="#000000" stroke="#000000" points="571.806,-34.4961 581.716,-30.749 571.6322,-27.4983 571.806,-34.4961"/>
</g>
<!-- s787 -->
<g id="node6" class="node">
<title>s787</title>
<polygon fill="none" stroke="#000000" points="690.7546,-58.6156 690.7546,-108.2156 792.3542,-108.2156 792.3542,-58.6156 690.7546,-58.6156"/>
<text text-anchor="middle" x="731.8044" y="-87.6156" font-family="Times,serif" font-size="14.00" fill="#000000">s787</text>
<text text-anchor="middle" x="731.8044" y="-70.8156" font-family="Times,serif" font-size="14.00" fill="#000000">→ CHOICE</text>
<polyline fill="none" stroke="#000000" points="772.8542,-58.6156 772.8542,-108.2156 "/>
<text text-anchor="middle" x="782.6042" y="-91.6156" font-family="Times,serif" font-size="14.00" fill="#000000"> </text>
<polyline fill="none" stroke="#000000" points="772.8542,-83.4156 792.3542,-83.4156 "/>
<text text-anchor="middle" x="782.6042" y="-66.8156" font-family="Times,serif" font-size="14.00" fill="#000000"> </text>
</g>
<!-- s786&#45;&gt;s787 -->
<g id="edge6" class="edge">
<title>s786&#45;&gt;s787</title>
<path fill="none" stroke="#000000" d="M564.3477,-82.5547C594.2602,-82.7 642.1032,-82.9325 680.5417,-83.1192"/>
<polygon fill="#000000" stroke="#000000" points="680.5848,-86.6194 690.6017,-83.1681 680.6189,-79.6194 680.5848,-86.6194"/>
</g>
<!-- s788 -->
<g id="node7" class="node">
<title>s788</title>
<polygon fill="none" stroke="#000000" points="829.3542,-110.6156 829.3542,-160.2156 930.9538,-160.2156 930.9538,-110.6156 829.3542,-110.6156"/>
<text text-anchor="middle" x="870.404" y="-139.6156" font-family="Times,serif" font-size="14.00" fill="#000000">s788</text>
<text text-anchor="middle" x="870.404" y="-122.8156" font-family="Times,serif" font-size="14.00" fill="#000000">→ CHOICE</text>
<polyline fill="none" stroke="#000000" points="911.4538,-110.6156 911.4538,-160.2156 "/>
<text text-anchor="middle" x="921.2038" y="-143.6156" font-family="Times,serif" font-size="14.00" fill="#000000"> </text>
<polyline fill="none" stroke="#000000" points="911.4538,-135.4156 930.9538,-135.4156 "/>
<text text-anchor="middle" x="921.2038" y="-118.8156" font-family="Times,serif" font-size="14.00" fill="#000000"> </text>
</g>
<!-- s787&#45;&gt;s788 -->
<g id="edge4" class="edge">
<title>s787:p0&#45;&gt;s788</title>
<path fill="none" stroke="#000000" d="M792.3542,-95.4156C806.7765,-95.4156 821.4294,-99.9405 834.5262,-105.9464"/>
<polygon fill="#000000" stroke="#000000" points="833.2496,-109.2204 843.7622,-110.5379 836.3658,-102.9522 833.2496,-109.2204"/>
</g>
<!-- s791 -->
<g id="node10" class="node">
<title>s791</title>
<ellipse fill="none" stroke="#000000" cx="994.3564" cy="-71.4156" rx="45.3054" ry="29.3315"/>
<text text-anchor="middle" x="994.3564" y="-75.6156" font-family="Times,serif" font-size="14.00" fill="#000000">s791 </text>
<text text-anchor="middle" x="994.3564" y="-58.8156" font-family="Times,serif" font-size="14.00" fill="#000000">BLANK</text>
</g>
<!-- s787&#45;&gt;s791 -->
<g id="edge5" class="edge">
<title>s787:p1&#45;&gt;s791</title>
<path fill="none" stroke="#000000" d="M792.3542,-71.4156C841.7143,-71.4156 897.8589,-71.4156 938.4074,-71.4156"/>
<polygon fill="#000000" stroke="#000000" points="938.6272,-74.9157 948.6272,-71.4156 938.6272,-67.9157 938.6272,-74.9157"/>
</g>
<!-- s789 -->
<g id="node8" class="node">
<title>s789</title>
<g id="a_node8"><a xlink:href="javascript-grammar.json._expression.dot.svg" xlink:title="s789 SYMBOL\n_expression">
<ellipse fill="none" stroke="#000000" cx="1131.492" cy="-199.4156" rx="73.9667" ry="29.3315"/>
<text text-anchor="middle" x="1131.492" y="-203.6156" font-family="Times,serif" font-size="14.00" fill="#000000">s789 SYMBOL</text>
<text text-anchor="middle" x="1131.492" y="-186.8156" font-family="Times,serif" font-size="14.00" fill="#000000">_expression</text>
</a>
</g>
</g>
<!-- s788&#45;&gt;s789 -->
<g id="edge2" class="edge">
<title>s788:p0&#45;&gt;s789</title>
<path fill="none" stroke="#000000" d="M930.9538,-147.4156C978.7001,-147.4156 1030.8528,-161.3984 1070.003,-174.8622"/>
<polygon fill="#000000" stroke="#000000" points="1069.0709,-178.2446 1079.6657,-178.2653 1071.3962,-171.6421 1069.0709,-178.2446"/>
<text text-anchor="middle" x="994.3564" y="-167.6156" font-family="Times,serif" font-size="14.00" fill="#000000">_expression</text>
</g>
<!-- s790 -->
<g id="node9" class="node">
<title>s790</title>
<g id="a_node9"><a xlink:href="javascript-grammar.json.spread_element.dot.svg" xlink:title="s790 SYMBOL\nspread_element">
<ellipse fill="none" stroke="#000000" cx="1131.492" cy="-122.4156" rx="73.9667" ry="29.3315"/>
<text text-anchor="middle" x="1131.492" y="-126.6156" font-family="Times,serif" font-size="14.00" fill="#000000">s790 SYMBOL</text>
<text text-anchor="middle" x="1131.492" y="-109.8156" font-family="Times,serif" font-size="14.00" fill="#000000">spread_element</text>
</a>
</g>
</g>
<!-- s788&#45;&gt;s790 -->
<g id="edge3" class="edge">
<title>s788:p1&#45;&gt;s790</title>
<path fill="none" stroke="#000000" d="M930.9538,-123.4156C969.1379,-123.4156 1011.4113,-123.2321 1047.2618,-123.0223"/>
<polygon fill="#000000" stroke="#000000" points="1047.702,-126.5198 1057.6807,-122.9595 1047.6597,-119.5199 1047.702,-126.5198"/>
<text text-anchor="middle" x="994.3564" y="-126.6156" font-family="Times,serif" font-size="14.00" fill="#000000">spread_element</text>
</g>
<!-- s792 -->
<g id="node11" class="node">
<title>s792</title>
<polygon fill="none" stroke="#000000" points="1242.225,-97.6156 1242.225,-139.2156 1325.1086,-139.2156 1325.1086,-97.6156 1242.225,-97.6156"/>
<text text-anchor="middle" x="1283.6668" y="-122.6156" font-family="Times,serif" font-size="14.00" fill="#000000">s792</text>
<text text-anchor="middle" x="1283.6668" y="-105.8156" font-family="Times,serif" font-size="14.00" fill="#000000">→ REPEAT</text>
</g>
<!-- s789&#45;&gt;s792 -->
<g id="edge15" class="edge">
<title>s789&#45;&gt;s792</title>
<path fill="none" stroke="#000000" d="M1175.96,-175.9415C1185.6133,-170.8326 1195.7651,-165.45 1205.225,-160.4156 1215.0392,-155.1927 1225.5348,-149.5871 1235.5531,-144.2266"/>
<polygon fill="#000000" stroke="#000000" points="1237.4219,-147.1962 1244.586,-139.3907 1234.118,-141.0249 1237.4219,-147.1962"/>
</g>
<!-- s790&#45;&gt;s792 -->
<g id="edge16" class="edge">
<title>s790&#45;&gt;s792</title>
<path fill="none" stroke="#000000" d="M1205.3506,-120.4742C1214.2875,-120.2393 1223.2654,-120.0033 1231.7907,-119.7792"/>
<polygon fill="#000000" stroke="#000000" points="1232.0273,-123.2743 1241.9319,-119.5127 1231.8433,-116.2767 1232.0273,-123.2743"/>
</g>
<!-- s791&#45;&gt;s792 -->
<g id="edge17" class="edge">
<title>s791&#45;&gt;s792</title>
<path fill="none" stroke="#000000" d="M1039.8615,-69.7161C1083.027,-69.1551 1149.4045,-71.034 1205.225,-84.4156 1214.5449,-86.6499 1224.1536,-89.92 1233.3127,-93.5615"/>
<polygon fill="#000000" stroke="#000000" points="1232.0869,-96.8424 1242.6636,-97.4627 1234.7823,-90.3821 1232.0869,-96.8424"/>
</g>
<!-- s793 -->
<g id="node12" class="node">
<title>s793</title>
<polygon fill="none" stroke="#000000" points="1402.1166,-94.6156 1402.1166,-136.2156 1458.5584,-136.2156 1458.5584,-94.6156 1402.1166,-94.6156"/>
<text text-anchor="middle" x="1430.3375" y="-119.6156" font-family="Times,serif" font-size="14.00" fill="#000000">s793</text>
<text text-anchor="middle" x="1430.3375" y="-102.8156" font-family="Times,serif" font-size="14.00" fill="#000000">→ SEQ</text>
</g>
<!-- s792&#45;&gt;s793 -->
<g id="edge13" class="edge">
<title>s792&#45;&gt;s793</title>
<path fill="none" stroke="#000000" d="M1325.3044,-117.564C1346.2194,-117.1362 1371.3936,-116.6213 1391.8527,-116.2028"/>
<polygon fill="#000000" stroke="#000000" points="1392.1479,-119.6976 1402.0742,-115.9937 1392.0047,-112.6991 1392.1479,-119.6976"/>
</g>
<!-- s801 -->
<g id="node20" class="node">
<title>s801</title>
<ellipse fill="none" stroke="#000000" cx="1430.3375" cy="-40.4156" rx="68.4585" ry="29.3315"/>
<text text-anchor="middle" x="1430.3375" y="-44.6156" font-family="Times,serif" font-size="14.00" fill="#000000">s801 STRING</text>
<text text-anchor="middle" x="1430.3375" y="-27.8156" font-family="Times,serif" font-size="14.00" fill="#000000">&quot;)&quot;</text>
</g>
<!-- s792&#45;&gt;s801 -->
<g id="edge21" class="edge">
<title>s792&#45;&gt;s801</title>
<path fill="none" stroke="#000000" d="M1322.9719,-97.5131C1339.8805,-88.521 1359.8904,-77.8797 1378.0264,-68.2349"/>
<polygon fill="#000000" stroke="#000000" points="1380.1275,-71.0817 1387.3132,-63.2961 1376.8407,-64.9013 1380.1275,-71.0817"/>
</g>
<!-- s794 -->
<g id="node13" class="node">
<title>s794</title>
<ellipse fill="none" stroke="#000000" cx="1603.7952" cy="-109.4156" rx="68.4585" ry="29.3315"/>
<text text-anchor="middle" x="1603.7952" y="-113.6156" font-family="Times,serif" font-size="14.00" fill="#000000">s794 STRING</text>
<text text-anchor="middle" x="1603.7952" y="-96.8156" font-family="Times,serif" font-size="14.00" fill="#000000">&quot;,&quot;</text>
</g>
<!-- s793&#45;&gt;s794 -->
<g id="edge7" class="edge">
<title>s793&#45;&gt;s794</title>
<path fill="none" stroke="#000000" d="M1458.5925,-114.4383C1476.8203,-113.8078 1501.4982,-112.9542 1525.3353,-112.1296"/>
<polygon fill="#000000" stroke="#000000" points="1525.6054,-115.6225 1535.4784,-111.7788 1525.3634,-108.6266 1525.6054,-115.6225"/>
</g>
<!-- s795 -->
<g id="node14" class="node">
<title>s795</title>
<polygon fill="none" stroke="#000000" points="1709.0241,-120.6156 1709.0241,-170.2156 1810.6237,-170.2156 1810.6237,-120.6156 1709.0241,-120.6156"/>
<text text-anchor="middle" x="1750.0739" y="-149.6156" font-family="Times,serif" font-size="14.00" fill="#000000">s795</text>
<text text-anchor="middle" x="1750.0739" y="-132.8156" font-family="Times,serif" font-size="14.00" fill="#000000">→ CHOICE</text>
<polyline fill="none" stroke="#000000" points="1791.1237,-120.6156 1791.1237,-170.2156 "/>
<text text-anchor="middle" x="1800.8737" y="-153.6156" font-family="Times,serif" font-size="14.00" fill="#000000"> </text>
<polyline fill="none" stroke="#000000" points="1791.1237,-145.4156 1810.6237,-145.4156 "/>
<text text-anchor="middle" x="1800.8737" y="-128.8156" font-family="Times,serif" font-size="14.00" fill="#000000"> </text>
</g>
<!-- s794&#45;&gt;s795 -->
<g id="edge12" class="edge">
<title>s794&#45;&gt;s795</title>
<path fill="none" stroke="#000000" d="M1664.12,-123.3342C1675.5281,-125.9663 1687.4689,-128.7214 1698.8954,-131.3578"/>
<polygon fill="#000000" stroke="#000000" points="1698.2473,-134.8001 1708.7782,-133.638 1699.8211,-127.9793 1698.2473,-134.8001"/>
</g>
<!-- s795&#45;&gt;s792 -->
<g id="edge14" class="edge">
<title>s795&#45;&gt;s792</title>
<path fill="none" stroke="#000000" d="M1708.8098,-150.9371C1632.6694,-157.9383 1485.0813,-166.7167 1362.1086,-145.4156 1353.146,-143.8632 1343.8314,-141.4334 1334.884,-138.6537"/>
<polygon fill="#000000" stroke="#000000" points="1335.9461,-135.3186 1325.3533,-135.525 1333.7628,-141.9694 1335.9461,-135.3186"/>
</g>
<!-- s796 -->
<g id="node15" class="node">
<title>s796</title>
<polygon fill="none" stroke="#000000" points="1847.6237,-181.6156 1847.6237,-231.2156 1949.2233,-231.2156 1949.2233,-181.6156 1847.6237,-181.6156"/>
<text text-anchor="middle" x="1888.6735" y="-210.6156" font-family="Times,serif" font-size="14.00" fill="#000000">s796</text>
<text text-anchor="middle" x="1888.6735" y="-193.8156" font-family="Times,serif" font-size="14.00" fill="#000000">→ CHOICE</text>
<polyline fill="none" stroke="#000000" points="1929.7233,-181.6156 1929.7233,-231.2156 "/>
<text text-anchor="middle" x="1939.4733" y="-214.6156" font-family="Times,serif" font-size="14.00" fill="#000000"> </text>
<polyline fill="none" stroke="#000000" points="1929.7233,-206.4156 1949.2233,-206.4156 "/>
<text text-anchor="middle" x="1939.4733" y="-189.8156" font-family="Times,serif" font-size="14.00" fill="#000000"> </text>
</g>
<!-- s795&#45;&gt;s796 -->
<g id="edge10" class="edge">
<title>s795:p0&#45;&gt;s796</title>
<path fill="none" stroke="#000000" d="M1800.8239,-170.4156C1800.8239,-189.7387 1817.8719,-199.1983 1837.7178,-203.6639"/>
<polygon fill="#000000" stroke="#000000" points="1837.156,-207.1191 1847.6227,-205.4762 1838.4159,-200.2334 1837.156,-207.1191"/>
</g>
<!-- s799 -->
<g id="node18" class="node">
<title>s799</title>
<ellipse fill="none" stroke="#000000" cx="1898.4235" cy="-133.4156" rx="45.3054" ry="29.3315"/>
<text text-anchor="middle" x="1898.4235" y="-137.6156" font-family="Times,serif" font-size="14.00" fill="#000000">s799 </text>
<text text-anchor="middle" x="1898.4235" y="-120.8156" font-family="Times,serif" font-size="14.00" fill="#000000">BLANK</text>
</g>
<!-- s795&#45;&gt;s799 -->
<g id="edge11" class="edge">
<title>s795:p1&#45;&gt;s799</title>
<path fill="none" stroke="#000000" d="M1810.6237,-133.4156C1821.0199,-133.4156 1832.1086,-133.4156 1842.7828,-133.4156"/>
<polygon fill="#000000" stroke="#000000" points="1842.8538,-136.9157 1852.8537,-133.4156 1842.8537,-129.9157 1842.8538,-136.9157"/>
</g>
<!-- s797 -->
<g id="node16" class="node">
<title>s797</title>
<g id="a_node16"><a xlink:href="javascript-grammar.json._expression.dot.svg" xlink:title="s797 SYMBOL\n_expression">
<ellipse fill="none" stroke="#000000" cx="2146.8063" cy="-244.4156" rx="73.9667" ry="29.3315"/>
<text text-anchor="middle" x="2146.8063" y="-248.6156" font-family="Times,serif" font-size="14.00" fill="#000000">s797 SYMBOL</text>
<text text-anchor="middle" x="2146.8063" y="-231.8156" font-family="Times,serif" font-size="14.00" fill="#000000">_expression</text>
</a>
</g>
</g>
<!-- s796&#45;&gt;s797 -->
<g id="edge8" class="edge">
<title>s796:p0&#45;&gt;s797</title>
<path fill="none" stroke="#000000" d="M1949.2233,-218.4156C1989.3871,-218.4156 2033.7538,-223.7619 2070.253,-229.6059"/>
<polygon fill="#000000" stroke="#000000" points="2069.8934,-233.0937 2080.329,-231.2633 2071.0297,-226.1865 2069.8934,-233.0937"/>
<text text-anchor="middle" x="2011.1483" y="-230.6156" font-family="Times,serif" font-size="14.00" fill="#000000">_expression</text>
</g>
<!-- s798 -->
<g id="node17" class="node">
<title>s798</title>
<g id="a_node17"><a xlink:href="javascript-grammar.json.spread_element.dot.svg" xlink:title="s798 SYMBOL\nspread_element">
<ellipse fill="none" stroke="#000000" cx="2146.8063" cy="-167.4156" rx="73.9667" ry="29.3315"/>
<text text-anchor="middle" x="2146.8063" y="-171.6156" font-family="Times,serif" font-size="14.00" fill="#000000">s798 SYMBOL</text>
<text text-anchor="middle" x="2146.8063" y="-154.8156" font-family="Times,serif" font-size="14.00" fill="#000000">spread_element</text>
</a>
</g>
</g>
<!-- s796&#45;&gt;s798 -->
<g id="edge9" class="edge">
<title>s796:p1&#45;&gt;s798</title>
<path fill="none" stroke="#000000" d="M1949.2233,-194.4156C1989.7303,-194.4156 2034.4821,-188.7759 2071.1376,-182.6516"/>
<polygon fill="#000000" stroke="#000000" points="2071.9876,-186.057 2081.2514,-180.9156 2070.8034,-179.1578 2071.9876,-186.057"/>
<text text-anchor="middle" x="2011.1483" y="-197.6156" font-family="Times,serif" font-size="14.00" fill="#000000">spread_element</text>
</g>
<!-- s800&#45;&gt;s801 -->
<g id="edge22" class="edge">
<title>s800&#45;&gt;s801</title>
<path fill="none" stroke="#000000" d="M672.9744,-28.6424C710.102,-28.0796 763.8608,-27.4156 810.8542,-27.4156 810.8542,-27.4156 810.8542,-27.4156 1283.6668,-27.4156 1306.8257,-27.4156 1331.9615,-29.0437 1354.7748,-31.1475"/>
<polygon fill="#000000" stroke="#000000" points="1354.4461,-34.6319 1364.7361,-32.1089 1355.1187,-27.6643 1354.4461,-34.6319"/>
</g>
</g>
</svg>
