<?xml version="1.0" encoding="UTF-8" standalone="no"?>
<!DOCTYPE svg PUBLIC "-//W3C//DTD SVG 1.1//EN"
 "http://www.w3.org/Graphics/SVG/1.1/DTD/svg11.dtd">
<!-- Generated by graphviz version 2.40.1 (20161225.0304)
 -->
<!-- Title: unary_expression Pages: 1 -->
<svg width="331pt" height="529pt"
 viewBox="0.00 0.00 331.28 528.83" xmlns="http://www.w3.org/2000/svg" xmlns:xlink="http://www.w3.org/1999/xlink">
<g id="graph0" class="graph" transform="scale(1 1) rotate(0) translate(4 524.8313)">
<title>unary_expression</title>
<polygon fill="#ffffff" stroke="transparent" points="-4,4 -4,-524.8313 327.2758,-524.8313 327.2758,4 -4,4"/>
<!-- s615 -->
<g id="node1" class="node">
<title>s615</title>
<polygon fill="none" stroke="#000000" points="0,-173.6156 0,-347.2156 101.5996,-347.2156 101.5996,-173.6156 0,-173.6156"/>
<text text-anchor="middle" x="41.0498" y="-264.6156" font-family="Times,serif" font-size="14.00" fill="#000000">s615</text>
<text text-anchor="middle" x="41.0498" y="-247.8156" font-family="Times,serif" font-size="14.00" fill="#000000">→ CHOICE</text>
<polyline fill="none" stroke="#000000" points="82.0996,-173.6156 82.0996,-347.2156 "/>
<text text-anchor="middle" x="91.8496" y="-330.6156" font-family="Times,serif" font-size="14.00" fill="#000000"> </text>
<polyline fill="none" stroke="#000000" points="82.0996,-322.4156 101.5996,-322.4156 "/>
<text text-anchor="middle" x="91.8496" y="-305.8156" font-family="Times,serif" font-size="14.00" fill="#000000"> </text>
<polyline fill="none" stroke="#000000" points="82.0996,-297.6156 101.5996,-297.6156 "/>
<text text-anchor="middle" x="91.8496" y="-281.0156" font-family="Times,serif" font-size="14.00" fill="#000000"> </text>
<polyline fill="none" stroke="#000000" points="82.0996,-272.8156 101.5996,-272.8156 "/>
<text text-anchor="middle" x="91.8496" y="-256.2156" font-family="Times,serif" font-size="14.00" fill="#000000"> </text>
<polyline fill="none" stroke="#000000" points="82.0996,-248.0156 101.5996,-248.0156 "/>
<text text-anchor="middle" x="91.8496" y="-231.4156" font-family="Times,serif" font-size="14.00" fill="#000000"> </text>
<polyline fill="none" stroke="#000000" points="82.0996,-223.2156 101.5996,-223.2156 "/>
<text text-anchor="middle" x="91.8496" y="-206.6156" font-family="Times,serif" font-size="14.00" fill="#000000"> </text>
<polyline fill="none" stroke="#000000" points="82.0996,-198.4156 101.5996,-198.4156 "/>
<text text-anchor="middle" x="91.8496" y="-181.8156" font-family="Times,serif" font-size="14.00" fill="#000000"> </text>
</g>
<!-- s616 -->
<g id="node2" class="node">
<title>s616</title>
<ellipse fill="none" stroke="#000000" cx="237.4377" cy="-491.4156" rx="85.6765" ry="29.3315"/>
<text text-anchor="middle" x="237.4377" y="-495.6156" font-family="Times,serif" font-size="14.00" fill="#000000">s616 PREC_LEFT</text>
<text text-anchor="middle" x="237.4377" y="-478.8156" font-family="Times,serif" font-size="14.00" fill="#000000">(not&#45;implemented)</text>
</g>
<!-- s615&#45;&gt;s616 -->
<g id="edge1" class="edge">
<title>s615:p0&#45;&gt;s616</title>
<path fill="none" stroke="#000000" d="M91.7998,-347.4156C91.7998,-401.1199 111.9325,-416.2124 151.5996,-452.4156 156.7171,-457.0863 162.489,-461.2786 168.559,-465.0231"/>
<polygon fill="#000000" stroke="#000000" points="167.2034,-468.2791 177.6241,-470.1923 170.671,-462.1983 167.2034,-468.2791"/>
<text text-anchor="middle" x="126.5996" y="-438.6156" font-family="Times,serif" font-size="14.00" fill="#000000">9</text>
</g>
<!-- s617 -->
<g id="node3" class="node">
<title>s617</title>
<ellipse fill="none" stroke="#000000" cx="237.4377" cy="-414.4156" rx="85.6765" ry="29.3315"/>
<text text-anchor="middle" x="237.4377" y="-418.6156" font-family="Times,serif" font-size="14.00" fill="#000000">s617 PREC_LEFT</text>
<text text-anchor="middle" x="237.4377" y="-401.8156" font-family="Times,serif" font-size="14.00" fill="#000000">(not&#45;implemented)</text>
</g>
<!-- s615&#45;&gt;s617 -->
<g id="edge2" class="edge">
<title>s615:p1&#45;&gt;s617</title>
<path fill="none" stroke="#000000" d="M101.5996,-310.4156C138.0468,-310.4156 123.0492,-352.7602 151.5996,-375.4156 157.3294,-379.9624 163.6745,-384.1102 170.2453,-387.8597"/>
<polygon fill="#000000" stroke="#000000" points="168.8429,-391.0793 179.309,-392.726 172.1542,-384.912 168.8429,-391.0793"/>
<text text-anchor="middle" x="126.5996" y="-349.6156" font-family="Times,serif" font-size="14.00" fill="#000000">9</text>
</g>
<!-- s618 -->
<g id="node4" class="node">
<title>s618</title>
<ellipse fill="none" stroke="#000000" cx="237.4377" cy="-337.4156" rx="85.6765" ry="29.3315"/>
<text text-anchor="middle" x="237.4377" y="-341.6156" font-family="Times,serif" font-size="14.00" fill="#000000">s618 PREC_LEFT</text>
<text text-anchor="middle" x="237.4377" y="-324.8156" font-family="Times,serif" font-size="14.00" fill="#000000">(not&#45;implemented)</text>
</g>
<!-- s615&#45;&gt;s618 -->
<g id="edge3" class="edge">
<title>s615:p2&#45;&gt;s618</title>
<path fill="none" stroke="#000000" d="M101.5996,-285.4156C116.9801,-285.4156 148.4808,-297.1899 177.2776,-309.533"/>
<polygon fill="#000000" stroke="#000000" points="175.9421,-312.7688 186.5084,-313.5463 178.7332,-306.3493 175.9421,-312.7688"/>
<text text-anchor="middle" x="126.5996" y="-295.6156" font-family="Times,serif" font-size="14.00" fill="#000000">10</text>
</g>
<!-- s619 -->
<g id="node5" class="node">
<title>s619</title>
<ellipse fill="none" stroke="#000000" cx="237.4377" cy="-260.4156" rx="85.6765" ry="29.3315"/>
<text text-anchor="middle" x="237.4377" y="-264.6156" font-family="Times,serif" font-size="14.00" fill="#000000">s619 PREC_LEFT</text>
<text text-anchor="middle" x="237.4377" y="-247.8156" font-family="Times,serif" font-size="14.00" fill="#000000">(not&#45;implemented)</text>
</g>
<!-- s615&#45;&gt;s619 -->
<g id="edge4" class="edge">
<title>s615:p3&#45;&gt;s619</title>
<path fill="none" stroke="#000000" d="M101.5996,-260.4156C114.4726,-260.4156 128.0318,-260.4156 141.3993,-260.4156"/>
<polygon fill="#000000" stroke="#000000" points="141.5697,-263.9157 151.5697,-260.4156 141.5696,-256.9157 141.5697,-263.9157"/>
<text text-anchor="middle" x="126.5996" y="-264.6156" font-family="Times,serif" font-size="14.00" fill="#000000">10</text>
</g>
<!-- s620 -->
<g id="node6" class="node">
<title>s620</title>
<ellipse fill="none" stroke="#000000" cx="237.4377" cy="-183.4156" rx="85.6765" ry="29.3315"/>
<text text-anchor="middle" x="237.4377" y="-187.6156" font-family="Times,serif" font-size="14.00" fill="#000000">s620 PREC_LEFT</text>
<text text-anchor="middle" x="237.4377" y="-170.8156" font-family="Times,serif" font-size="14.00" fill="#000000">(not&#45;implemented)</text>
</g>
<!-- s615&#45;&gt;s620 -->
<g id="edge5" class="edge">
<title>s615:p4&#45;&gt;s620</title>
<path fill="none" stroke="#000000" d="M101.5996,-235.4156C116.9801,-235.4156 148.4808,-223.6413 177.2776,-211.2982"/>
<polygon fill="#000000" stroke="#000000" points="178.7332,-214.482 186.5084,-207.285 175.9421,-208.0624 178.7332,-214.482"/>
<text text-anchor="middle" x="126.5996" y="-235.6156" font-family="Times,serif" font-size="14.00" fill="#000000">8</text>
</g>
<!-- s621 -->
<g id="node7" class="node">
<title>s621</title>
<ellipse fill="none" stroke="#000000" cx="237.4377" cy="-106.4156" rx="85.6765" ry="29.3315"/>
<text text-anchor="middle" x="237.4377" y="-110.6156" font-family="Times,serif" font-size="14.00" fill="#000000">s621 PREC_LEFT</text>
<text text-anchor="middle" x="237.4377" y="-93.8156" font-family="Times,serif" font-size="14.00" fill="#000000">(not&#45;implemented)</text>
</g>
<!-- s615&#45;&gt;s621 -->
<g id="edge6" class="edge">
<title>s615:p5&#45;&gt;s621</title>
<path fill="none" stroke="#000000" d="M101.5996,-210.4156C138.0468,-210.4156 123.0492,-168.0711 151.5996,-145.4156 157.3294,-140.8689 163.6745,-136.7211 170.2453,-132.9715"/>
<polygon fill="#000000" stroke="#000000" points="172.1542,-135.9193 179.309,-128.1053 168.8429,-129.752 172.1542,-135.9193"/>
<text text-anchor="middle" x="126.5996" y="-207.6156" font-family="Times,serif" font-size="14.00" fill="#000000">8</text>
</g>
<!-- s622 -->
<g id="node8" class="node">
<title>s622</title>
<ellipse fill="none" stroke="#000000" cx="237.4377" cy="-29.4156" rx="85.6765" ry="29.3315"/>
<text text-anchor="middle" x="237.4377" y="-33.6156" font-family="Times,serif" font-size="14.00" fill="#000000">s622 PREC_LEFT</text>
<text text-anchor="middle" x="237.4377" y="-16.8156" font-family="Times,serif" font-size="14.00" fill="#000000">(not&#45;implemented)</text>
</g>
<!-- s615&#45;&gt;s622 -->
<g id="edge7" class="edge">
<title>s615:p6&#45;&gt;s622</title>
<path fill="none" stroke="#000000" d="M91.7998,-173.4156C91.7998,-119.7113 111.9325,-104.6189 151.5996,-68.4156 156.7171,-63.745 162.489,-59.5527 168.559,-55.8082"/>
<polygon fill="#000000" stroke="#000000" points="170.671,-58.633 177.6241,-50.639 167.2034,-52.5522 170.671,-58.633"/>
<text text-anchor="middle" x="126.5996" y="-100.6156" font-family="Times,serif" font-size="14.00" fill="#000000">8</text>
</g>
</g>
</svg>
