<?xml version="1.0" encoding="UTF-8" standalone="no"?>
<!DOCTYPE svg PUBLIC "-//W3C//DTD SVG 1.1//EN"
 "http://www.w3.org/Graphics/SVG/1.1/DTD/svg11.dtd">
<!-- Generated by graphviz version 2.40.1 (20161225.0304)
 -->
<!-- Title: import_clause Pages: 1 -->
<svg width="1481pt" height="225pt"
 viewBox="0.00 0.00 1480.54 224.83" xmlns="http://www.w3.org/2000/svg" xmlns:xlink="http://www.w3.org/1999/xlink">
<g id="graph0" class="graph" transform="scale(1 1) rotate(0) translate(4 220.8313)">
<title>import_clause</title>
<polygon fill="#ffffff" stroke="transparent" points="-4,4 -4,-220.8313 1476.5444,-220.8313 1476.5444,4 -4,4"/>
<!-- s78 -->
<g id="node1" class="node">
<title>s78</title>
<polygon fill="none" stroke="#000000" points="0,-73.2156 0,-147.6156 101.5996,-147.6156 101.5996,-73.2156 0,-73.2156"/>
<text text-anchor="middle" x="41.0498" y="-114.6156" font-family="Times,serif" font-size="14.00" fill="#000000">s78</text>
<text text-anchor="middle" x="41.0498" y="-97.8156" font-family="Times,serif" font-size="14.00" fill="#000000">→ CHOICE</text>
<polyline fill="none" stroke="#000000" points="82.0996,-73.2156 82.0996,-147.6156 "/>
<text text-anchor="middle" x="91.8496" y="-131.0156" font-family="Times,serif" font-size="14.00" fill="#000000"> </text>
<polyline fill="none" stroke="#000000" points="82.0996,-122.8156 101.5996,-122.8156 "/>
<text text-anchor="middle" x="91.8496" y="-106.2156" font-family="Times,serif" font-size="14.00" fill="#000000"> </text>
<polyline fill="none" stroke="#000000" points="82.0996,-98.0156 101.5996,-98.0156 "/>
<text text-anchor="middle" x="91.8496" y="-81.4156" font-family="Times,serif" font-size="14.00" fill="#000000"> </text>
</g>
<!-- s79 -->
<g id="node2" class="node">
<title>s79</title>
<g id="a_node2"><a xlink:href="javascript-grammar.json.namespace_import.dot.svg" xlink:title="s79 SYMBOL\nnamespace_import">
<ellipse fill="none" stroke="#000000" cx="329.4238" cy="-187.4156" rx="86.1673" ry="29.3315"/>
<text text-anchor="middle" x="329.4238" y="-191.6156" font-family="Times,serif" font-size="14.00" fill="#000000">s79 SYMBOL</text>
<text text-anchor="middle" x="329.4238" y="-174.8156" font-family="Times,serif" font-size="14.00" fill="#000000">namespace_import</text>
</a>
</g>
</g>
<!-- s78&#45;&gt;s79 -->
<g id="edge1" class="edge">
<title>s78:p0&#45;&gt;s79</title>
<path fill="none" stroke="#000000" d="M101.5996,-135.4156C155.8378,-135.4156 215.5593,-149.5972 260.2451,-163.1483"/>
<polygon fill="#000000" stroke="#000000" points="259.2428,-166.5018 269.8306,-166.1152 261.3127,-159.8148 259.2428,-166.5018"/>
<text text-anchor="middle" x="172.4699" y="-155.6156" font-family="Times,serif" font-size="14.00" fill="#000000">namespace_import</text>
</g>
<!-- s80 -->
<g id="node3" class="node">
<title>s80</title>
<g id="a_node3"><a xlink:href="javascript-grammar.json.named_imports.dot.svg" xlink:title="s80 SYMBOL\nnamed_imports">
<ellipse fill="none" stroke="#000000" cx="329.4238" cy="-110.4156" rx="72.801" ry="29.3315"/>
<text text-anchor="middle" x="329.4238" y="-114.6156" font-family="Times,serif" font-size="14.00" fill="#000000">s80 SYMBOL</text>
<text text-anchor="middle" x="329.4238" y="-97.8156" font-family="Times,serif" font-size="14.00" fill="#000000">named_imports</text>
</a>
</g>
</g>
<!-- s78&#45;&gt;s80 -->
<g id="edge2" class="edge">
<title>s78:p1&#45;&gt;s80</title>
<path fill="none" stroke="#000000" d="M101.5996,-110.4156C149.4767,-110.4156 203.0132,-110.4156 246.1532,-110.4156"/>
<polygon fill="#000000" stroke="#000000" points="246.3199,-113.9157 256.3199,-110.4156 246.3199,-106.9157 246.3199,-113.9157"/>
<text text-anchor="middle" x="172.4699" y="-114.6156" font-family="Times,serif" font-size="14.00" fill="#000000">named_imports</text>
</g>
<!-- s81 -->
<g id="node4" class="node">
<title>s81</title>
<polygon fill="none" stroke="#000000" points="301.2029,-20.6156 301.2029,-62.2156 357.6447,-62.2156 357.6447,-20.6156 301.2029,-20.6156"/>
<text text-anchor="middle" x="329.4238" y="-45.6156" font-family="Times,serif" font-size="14.00" fill="#000000">s81</text>
<text text-anchor="middle" x="329.4238" y="-28.8156" font-family="Times,serif" font-size="14.00" fill="#000000">→ SEQ</text>
</g>
<!-- s78&#45;&gt;s81 -->
<g id="edge11" class="edge">
<title>s78:p2&#45;&gt;s81</title>
<path fill="none" stroke="#000000" d="M101.5996,-85.4156C169.3864,-85.4156 246.4936,-66.4047 291.3797,-53.3753"/>
<polygon fill="#000000" stroke="#000000" points="292.3962,-56.7246 300.9931,-50.5325 290.4111,-50.012 292.3962,-56.7246"/>
</g>
<!-- s82 -->
<g id="node5" class="node">
<title>s82</title>
<g id="a_node5"><a xlink:href="javascript-grammar.json.identifier.dot.svg" xlink:title="s82 SYMBOL\nidentifier">
<ellipse fill="none" stroke="#000000" cx="521.2907" cy="-41.4156" rx="68.5672" ry="29.3315"/>
<text text-anchor="middle" x="521.2907" y="-45.6156" font-family="Times,serif" font-size="14.00" fill="#000000">s82 SYMBOL</text>
<text text-anchor="middle" x="521.2907" y="-28.8156" font-family="Times,serif" font-size="14.00" fill="#000000">identifier</text>
</a>
</g>
</g>
<!-- s81&#45;&gt;s82 -->
<g id="edge3" class="edge">
<title>s81&#45;&gt;s82</title>
<path fill="none" stroke="#000000" d="M357.7344,-41.4156C380.0239,-41.4156 412.2228,-41.4156 442.1664,-41.4156"/>
<polygon fill="#000000" stroke="#000000" points="442.2172,-44.9157 452.2172,-41.4156 442.2171,-37.9157 442.2172,-44.9157"/>
</g>
<!-- s83 -->
<g id="node6" class="node">
<title>s83</title>
<polygon fill="none" stroke="#000000" points="627.0739,-16.6156 627.0739,-66.2156 728.6735,-66.2156 728.6735,-16.6156 627.0739,-16.6156"/>
<text text-anchor="middle" x="668.1237" y="-45.6156" font-family="Times,serif" font-size="14.00" fill="#000000">s83</text>
<text text-anchor="middle" x="668.1237" y="-28.8156" font-family="Times,serif" font-size="14.00" fill="#000000">→ CHOICE</text>
<polyline fill="none" stroke="#000000" points="709.1735,-16.6156 709.1735,-66.2156 "/>
<text text-anchor="middle" x="718.9235" y="-49.6156" font-family="Times,serif" font-size="14.00" fill="#000000"> </text>
<polyline fill="none" stroke="#000000" points="709.1735,-41.4156 728.6735,-41.4156 "/>
<text text-anchor="middle" x="718.9235" y="-24.8156" font-family="Times,serif" font-size="14.00" fill="#000000"> </text>
</g>
<!-- s82&#45;&gt;s83 -->
<g id="edge10" class="edge">
<title>s82&#45;&gt;s83</title>
<path fill="none" stroke="#000000" d="M590.4261,-41.4156C599.2588,-41.4156 608.2491,-41.4156 616.939,-41.4156"/>
<polygon fill="#000000" stroke="#000000" points="616.9749,-44.9157 626.9748,-41.4156 616.9748,-37.9157 616.9749,-44.9157"/>
</g>
<!-- s84 -->
<g id="node7" class="node">
<title>s84</title>
<polygon fill="none" stroke="#000000" points="782.8552,-77.6156 782.8552,-119.2156 839.297,-119.2156 839.297,-77.6156 782.8552,-77.6156"/>
<text text-anchor="middle" x="811.0761" y="-102.6156" font-family="Times,serif" font-size="14.00" fill="#000000">s84</text>
<text text-anchor="middle" x="811.0761" y="-85.8156" font-family="Times,serif" font-size="14.00" fill="#000000">→ SEQ</text>
</g>
<!-- s83&#45;&gt;s84 -->
<g id="edge8" class="edge">
<title>s83:p0&#45;&gt;s84</title>
<path fill="none" stroke="#000000" d="M728.6735,-53.4156C738.39,-53.4156 756.9276,-63.175 773.9631,-73.6039"/>
<polygon fill="#000000" stroke="#000000" points="772.3486,-76.7227 782.68,-79.0704 776.0677,-70.7923 772.3486,-76.7227"/>
</g>
<!-- s89 -->
<g id="node12" class="node">
<title>s89</title>
<ellipse fill="none" stroke="#000000" cx="811.0761" cy="-29.4156" rx="45.3054" ry="29.3315"/>
<text text-anchor="middle" x="811.0761" y="-33.6156" font-family="Times,serif" font-size="14.00" fill="#000000">s89 </text>
<text text-anchor="middle" x="811.0761" y="-16.8156" font-family="Times,serif" font-size="14.00" fill="#000000">BLANK</text>
</g>
<!-- s83&#45;&gt;s89 -->
<g id="edge9" class="edge">
<title>s83:p1&#45;&gt;s89</title>
<path fill="none" stroke="#000000" d="M728.6735,-29.4156C737.2079,-29.4156 746.2396,-29.4156 755.0732,-29.4156"/>
<polygon fill="#000000" stroke="#000000" points="755.3106,-32.9157 765.3105,-29.4156 755.3105,-25.9157 755.3106,-32.9157"/>
</g>
<!-- s85 -->
<g id="node8" class="node">
<title>s85</title>
<ellipse fill="none" stroke="#000000" cx="956.7579" cy="-98.4156" rx="63.059" ry="29.3315"/>
<text text-anchor="middle" x="956.7579" y="-102.6156" font-family="Times,serif" font-size="14.00" fill="#000000">s85 STRING</text>
<text text-anchor="middle" x="956.7579" y="-85.8156" font-family="Times,serif" font-size="14.00" fill="#000000">&quot;,&quot;</text>
</g>
<!-- s84&#45;&gt;s85 -->
<g id="edge4" class="edge">
<title>s84&#45;&gt;s85</title>
<path fill="none" stroke="#000000" d="M839.5109,-98.4156C852.1451,-98.4156 867.6615,-98.4156 883.2203,-98.4156"/>
<polygon fill="#000000" stroke="#000000" points="883.4209,-101.9157 893.4209,-98.4156 883.4208,-94.9157 883.4209,-101.9157"/>
</g>
<!-- s86 -->
<g id="node9" class="node">
<title>s86</title>
<polygon fill="none" stroke="#000000" points="1057.037,-73.6156 1057.037,-123.2156 1158.6366,-123.2156 1158.6366,-73.6156 1057.037,-73.6156"/>
<text text-anchor="middle" x="1098.0868" y="-102.6156" font-family="Times,serif" font-size="14.00" fill="#000000">s86</text>
<text text-anchor="middle" x="1098.0868" y="-85.8156" font-family="Times,serif" font-size="14.00" fill="#000000">→ CHOICE</text>
<polyline fill="none" stroke="#000000" points="1139.1366,-73.6156 1139.1366,-123.2156 "/>
<text text-anchor="middle" x="1148.8866" y="-106.6156" font-family="Times,serif" font-size="14.00" fill="#000000"> </text>
<polyline fill="none" stroke="#000000" points="1139.1366,-98.4156 1158.6366,-98.4156 "/>
<text text-anchor="middle" x="1148.8866" y="-81.8156" font-family="Times,serif" font-size="14.00" fill="#000000"> </text>
</g>
<!-- s85&#45;&gt;s86 -->
<g id="edge7" class="edge">
<title>s85&#45;&gt;s86</title>
<path fill="none" stroke="#000000" d="M1020.3911,-98.4156C1029.0853,-98.4156 1037.9954,-98.4156 1046.6449,-98.4156"/>
<polygon fill="#000000" stroke="#000000" points="1046.6505,-101.9157 1056.6505,-98.4156 1046.6505,-94.9157 1046.6505,-101.9157"/>
</g>
<!-- s87 -->
<g id="node10" class="node">
<title>s87</title>
<g id="a_node10"><a xlink:href="javascript-grammar.json.namespace_import.dot.svg" xlink:title="s87 SYMBOL\nnamespace_import">
<ellipse fill="none" stroke="#000000" cx="1386.4608" cy="-137.4156" rx="86.1673" ry="29.3315"/>
<text text-anchor="middle" x="1386.4608" y="-141.6156" font-family="Times,serif" font-size="14.00" fill="#000000">s87 SYMBOL</text>
<text text-anchor="middle" x="1386.4608" y="-124.8156" font-family="Times,serif" font-size="14.00" fill="#000000">namespace_import</text>
</a>
</g>
</g>
<!-- s86&#45;&gt;s87 -->
<g id="edge5" class="edge">
<title>s86:p0&#45;&gt;s87</title>
<path fill="none" stroke="#000000" d="M1158.6366,-110.4156C1205.5581,-110.4156 1257.5401,-116.1333 1299.9888,-122.3063"/>
<polygon fill="#000000" stroke="#000000" points="1299.6004,-125.7869 1310.0067,-123.797 1300.6308,-118.8632 1299.6004,-125.7869"/>
<text text-anchor="middle" x="1229.5069" y="-122.6156" font-family="Times,serif" font-size="14.00" fill="#000000">namespace_import</text>
</g>
<!-- s88 -->
<g id="node11" class="node">
<title>s88</title>
<g id="a_node11"><a xlink:href="javascript-grammar.json.named_imports.dot.svg" xlink:title="s88 SYMBOL\nnamed_imports">
<ellipse fill="none" stroke="#000000" cx="1386.4608" cy="-60.4156" rx="72.801" ry="29.3315"/>
<text text-anchor="middle" x="1386.4608" y="-64.6156" font-family="Times,serif" font-size="14.00" fill="#000000">s88 SYMBOL</text>
<text text-anchor="middle" x="1386.4608" y="-47.8156" font-family="Times,serif" font-size="14.00" fill="#000000">named_imports</text>
</a>
</g>
</g>
<!-- s86&#45;&gt;s88 -->
<g id="edge6" class="edge">
<title>s86:p1&#45;&gt;s88</title>
<path fill="none" stroke="#000000" d="M1158.6366,-86.4156C1209.0497,-86.4156 1265.3354,-80.0535 1309.3477,-73.6235"/>
<polygon fill="#000000" stroke="#000000" points="1310.0271,-77.0609 1319.4007,-72.1226 1308.9935,-70.1376 1310.0271,-77.0609"/>
<text text-anchor="middle" x="1229.5069" y="-89.6156" font-family="Times,serif" font-size="14.00" fill="#000000">named_imports</text>
</g>
</g>
</svg>
