<?xml version="1.0" encoding="UTF-8" standalone="no"?>
<!DOCTYPE svg PUBLIC "-//W3C//DTD SVG 1.1//EN"
 "http://www.w3.org/Graphics/SVG/1.1/DTD/svg11.dtd">
<!-- Generated by graphviz version 2.40.1 (20161225.0304)
 -->
<!-- Title: sequence_expression Pages: 1 -->
<svg width="1007pt" height="144pt"
 viewBox="0.00 0.00 1006.89 143.83" xmlns="http://www.w3.org/2000/svg" xmlns:xlink="http://www.w3.org/1999/xlink">
<g id="graph0" class="graph" transform="scale(1 1) rotate(0) translate(4 139.8313)">
<title>sequence_expression</title>
<polygon fill="#ffffff" stroke="transparent" points="-4,4 -4,-139.8313 1002.8948,-139.8313 1002.8948,4 -4,4"/>
<!-- s624 -->
<g id="node1" class="node">
<title>s624</title>
<polygon fill="none" stroke="#000000" points="0,-46.6156 0,-88.2156 65.0084,-88.2156 65.0084,-46.6156 0,-46.6156"/>
<text text-anchor="middle" x="32.5042" y="-71.6156" font-family="Times,serif" font-size="14.00" fill="#000000">s624</text>
<text text-anchor="middle" x="32.5042" y="-54.8156" font-family="Times,serif" font-size="14.00" fill="#000000">→ PREC</text>
</g>
<!-- s625 -->
<g id="node2" class="node">
<title>s625</title>
<polygon fill="none" stroke="#000000" points="102.0084,-46.6156 102.0084,-88.2156 158.4502,-88.2156 158.4502,-46.6156 102.0084,-46.6156"/>
<text text-anchor="middle" x="130.2293" y="-71.6156" font-family="Times,serif" font-size="14.00" fill="#000000">s625</text>
<text text-anchor="middle" x="130.2293" y="-54.8156" font-family="Times,serif" font-size="14.00" fill="#000000">→ SEQ</text>
</g>
<!-- s624&#45;&gt;s625 -->
<g id="edge6" class="edge">
<title>s624&#45;&gt;s625</title>
<path fill="none" stroke="#000000" d="M65.0452,-67.4156C73.5855,-67.4156 82.8774,-67.4156 91.6984,-67.4156"/>
<polygon fill="#000000" stroke="#000000" points="91.7642,-70.9157 101.7641,-67.4156 91.7641,-63.9157 91.7642,-70.9157"/>
</g>
<!-- s626 -->
<g id="node3" class="node">
<title>s626</title>
<g id="a_node3"><a xlink:href="javascript-grammar.json._expression.dot.svg" xlink:title="s626 SYMBOL\n_expression">
<ellipse fill="none" stroke="#000000" cx="269.1832" cy="-67.4156" rx="73.9667" ry="29.3315"/>
<text text-anchor="middle" x="269.1832" y="-71.6156" font-family="Times,serif" font-size="14.00" fill="#000000">s626 SYMBOL</text>
<text text-anchor="middle" x="269.1832" y="-54.8156" font-family="Times,serif" font-size="14.00" fill="#000000">_expression</text>
</a>
</g>
</g>
<!-- s625&#45;&gt;s626 -->
<g id="edge1" class="edge">
<title>s625&#45;&gt;s626</title>
<path fill="none" stroke="#000000" d="M158.684,-67.4156C166.6984,-67.4156 175.8475,-67.4156 185.3723,-67.4156"/>
<polygon fill="#000000" stroke="#000000" points="185.4025,-70.9157 195.4024,-67.4156 185.4024,-63.9157 185.4025,-70.9157"/>
</g>
<!-- s627 -->
<g id="node4" class="node">
<title>s627</title>
<ellipse fill="none" stroke="#000000" cx="448.1451" cy="-67.4156" rx="68.4585" ry="29.3315"/>
<text text-anchor="middle" x="448.1451" y="-71.6156" font-family="Times,serif" font-size="14.00" fill="#000000">s627 STRING</text>
<text text-anchor="middle" x="448.1451" y="-54.8156" font-family="Times,serif" font-size="14.00" fill="#000000">&quot;,&quot;</text>
</g>
<!-- s626&#45;&gt;s627 -->
<g id="edge2" class="edge">
<title>s626&#45;&gt;s627</title>
<path fill="none" stroke="#000000" d="M343.0071,-67.4156C351.7267,-67.4156 360.6511,-67.4156 369.435,-67.4156"/>
<polygon fill="#000000" stroke="#000000" points="369.6613,-70.9157 379.6613,-67.4156 369.6613,-63.9157 369.6613,-70.9157"/>
</g>
<!-- s628 -->
<g id="node5" class="node">
<title>s628</title>
<polygon fill="none" stroke="#000000" points="553.3739,-42.6156 553.3739,-92.2156 654.9735,-92.2156 654.9735,-42.6156 553.3739,-42.6156"/>
<text text-anchor="middle" x="594.4237" y="-71.6156" font-family="Times,serif" font-size="14.00" fill="#000000">s628</text>
<text text-anchor="middle" x="594.4237" y="-54.8156" font-family="Times,serif" font-size="14.00" fill="#000000">→ CHOICE</text>
<polyline fill="none" stroke="#000000" points="635.4735,-42.6156 635.4735,-92.2156 "/>
<text text-anchor="middle" x="645.2235" y="-75.6156" font-family="Times,serif" font-size="14.00" fill="#000000"> </text>
<polyline fill="none" stroke="#000000" points="635.4735,-67.4156 654.9735,-67.4156 "/>
<text text-anchor="middle" x="645.2235" y="-50.8156" font-family="Times,serif" font-size="14.00" fill="#000000"> </text>
</g>
<!-- s627&#45;&gt;s628 -->
<g id="edge5" class="edge">
<title>s627&#45;&gt;s628</title>
<path fill="none" stroke="#000000" d="M516.5815,-67.4156C525.4093,-67.4156 534.4032,-67.4156 543.1018,-67.4156"/>
<polygon fill="#000000" stroke="#000000" points="543.15,-70.9157 553.1499,-67.4156 543.1499,-63.9157 543.15,-70.9157"/>
</g>
<!-- s629 -->
<g id="node6" class="node">
<title>s629</title>
<g id="a_node6"><a xlink:href="javascript-grammar.json.sequence_expression.dot.svg" xlink:title="s629 SYMBOL\nsequence_expression">
<ellipse fill="none" stroke="#000000" cx="904.0205" cy="-106.4156" rx="94.7489" ry="29.3315"/>
<text text-anchor="middle" x="904.0205" y="-110.6156" font-family="Times,serif" font-size="14.00" fill="#000000">s629 SYMBOL</text>
<text text-anchor="middle" x="904.0205" y="-93.8156" font-family="Times,serif" font-size="14.00" fill="#000000">sequence_expression</text>
</a>
</g>
</g>
<!-- s628&#45;&gt;s629 -->
<g id="edge3" class="edge">
<title>s628:p0&#45;&gt;s629</title>
<path fill="none" stroke="#000000" d="M654.9735,-79.4156C706.3297,-79.4156 763.2976,-85.1605 809.7731,-91.3503"/>
<polygon fill="#000000" stroke="#000000" points="809.4472,-94.8381 819.8277,-92.7179 810.3907,-87.902 809.4472,-94.8381"/>
<text text-anchor="middle" x="732.0598" y="-92.6156" font-family="Times,serif" font-size="14.00" fill="#000000">sequence_expression</text>
</g>
<!-- s630 -->
<g id="node7" class="node">
<title>s630</title>
<g id="a_node7"><a xlink:href="javascript-grammar.json._expression.dot.svg" xlink:title="s630 SYMBOL\n_expression">
<ellipse fill="none" stroke="#000000" cx="904.0205" cy="-29.4156" rx="73.9667" ry="29.3315"/>
<text text-anchor="middle" x="904.0205" y="-33.6156" font-family="Times,serif" font-size="14.00" fill="#000000">s630 SYMBOL</text>
<text text-anchor="middle" x="904.0205" y="-16.8156" font-family="Times,serif" font-size="14.00" fill="#000000">_expression</text>
</a>
</g>
</g>
<!-- s628&#45;&gt;s630 -->
<g id="edge4" class="edge">
<title>s628:p1&#45;&gt;s630</title>
<path fill="none" stroke="#000000" d="M654.9735,-55.4156C712.199,-55.4156 776.4231,-48.541 825.3175,-41.8618"/>
<polygon fill="#000000" stroke="#000000" points="826.0888,-45.2882 835.5103,-40.442 825.123,-38.3551 826.0888,-45.2882"/>
<text text-anchor="middle" x="732.0598" y="-59.6156" font-family="Times,serif" font-size="14.00" fill="#000000">_expression</text>
</g>
</g>
</svg>
