<?xml version="1.0" encoding="UTF-8" standalone="no"?>
<!DOCTYPE svg PUBLIC "-//W3C//DTD SVG 1.1//EN"
 "http://www.w3.org/Graphics/SVG/1.1/DTD/svg11.dtd">
<!-- Generated by graphviz version 2.40.1 (20161225.0304)
 -->
<!-- Title: binary_expression Pages: 1 -->
<svg width="324pt" height="1915pt"
 viewBox="0.00 0.00 324.28 1914.83" xmlns="http://www.w3.org/2000/svg" xmlns:xlink="http://www.w3.org/1999/xlink">
<g id="graph0" class="graph" transform="scale(1 1) rotate(0) translate(4 1910.8313)">
<title>binary_expression</title>
<polygon fill="#ffffff" stroke="transparent" points="-4,4 -4,-1910.8313 320.2758,-1910.8313 320.2758,4 -4,4"/>
<!-- s589 -->
<g id="node1" class="node">
<title>s589</title>
<polygon fill="none" stroke="#000000" points="0,-643.4156 0,-1263.4156 101.5996,-1263.4156 101.5996,-643.4156 0,-643.4156"/>
<text text-anchor="middle" x="41.0498" y="-957.6156" font-family="Times,serif" font-size="14.00" fill="#000000">s589</text>
<text text-anchor="middle" x="41.0498" y="-940.8156" font-family="Times,serif" font-size="14.00" fill="#000000">→ CHOICE</text>
<polyline fill="none" stroke="#000000" points="82.0996,-643.4156 82.0996,-1263.4156 "/>
<text text-anchor="middle" x="91.8496" y="-1246.8156" font-family="Times,serif" font-size="14.00" fill="#000000"> </text>
<polyline fill="none" stroke="#000000" points="82.0996,-1238.6156 101.5996,-1238.6156 "/>
<text text-anchor="middle" x="91.8496" y="-1222.0156" font-family="Times,serif" font-size="14.00" fill="#000000"> </text>
<polyline fill="none" stroke="#000000" points="82.0996,-1213.8156 101.5996,-1213.8156 "/>
<text text-anchor="middle" x="91.8496" y="-1197.2156" font-family="Times,serif" font-size="14.00" fill="#000000"> </text>
<polyline fill="none" stroke="#000000" points="82.0996,-1189.0156 101.5996,-1189.0156 "/>
<text text-anchor="middle" x="91.8496" y="-1172.4156" font-family="Times,serif" font-size="14.00" fill="#000000"> </text>
<polyline fill="none" stroke="#000000" points="82.0996,-1164.2156 101.5996,-1164.2156 "/>
<text text-anchor="middle" x="91.8496" y="-1147.6156" font-family="Times,serif" font-size="14.00" fill="#000000"> </text>
<polyline fill="none" stroke="#000000" points="82.0996,-1139.4156 101.5996,-1139.4156 "/>
<text text-anchor="middle" x="91.8496" y="-1122.8156" font-family="Times,serif" font-size="14.00" fill="#000000"> </text>
<polyline fill="none" stroke="#000000" points="82.0996,-1114.6156 101.5996,-1114.6156 "/>
<text text-anchor="middle" x="91.8496" y="-1098.0156" font-family="Times,serif" font-size="14.00" fill="#000000"> </text>
<polyline fill="none" stroke="#000000" points="82.0996,-1089.8156 101.5996,-1089.8156 "/>
<text text-anchor="middle" x="91.8496" y="-1073.2156" font-family="Times,serif" font-size="14.00" fill="#000000"> </text>
<polyline fill="none" stroke="#000000" points="82.0996,-1065.0156 101.5996,-1065.0156 "/>
<text text-anchor="middle" x="91.8496" y="-1048.4156" font-family="Times,serif" font-size="14.00" fill="#000000"> </text>
<polyline fill="none" stroke="#000000" points="82.0996,-1040.2156 101.5996,-1040.2156 "/>
<text text-anchor="middle" x="91.8496" y="-1023.6156" font-family="Times,serif" font-size="14.00" fill="#000000"> </text>
<polyline fill="none" stroke="#000000" points="82.0996,-1015.4156 101.5996,-1015.4156 "/>
<text text-anchor="middle" x="91.8496" y="-998.8156" font-family="Times,serif" font-size="14.00" fill="#000000"> </text>
<polyline fill="none" stroke="#000000" points="82.0996,-990.6156 101.5996,-990.6156 "/>
<text text-anchor="middle" x="91.8496" y="-974.0156" font-family="Times,serif" font-size="14.00" fill="#000000"> </text>
<polyline fill="none" stroke="#000000" points="82.0996,-965.8156 101.5996,-965.8156 "/>
<text text-anchor="middle" x="91.8496" y="-949.2156" font-family="Times,serif" font-size="14.00" fill="#000000"> </text>
<polyline fill="none" stroke="#000000" points="82.0996,-941.0156 101.5996,-941.0156 "/>
<text text-anchor="middle" x="91.8496" y="-924.4156" font-family="Times,serif" font-size="14.00" fill="#000000"> </text>
<polyline fill="none" stroke="#000000" points="82.0996,-916.2156 101.5996,-916.2156 "/>
<text text-anchor="middle" x="91.8496" y="-899.6156" font-family="Times,serif" font-size="14.00" fill="#000000"> </text>
<polyline fill="none" stroke="#000000" points="82.0996,-891.4156 101.5996,-891.4156 "/>
<text text-anchor="middle" x="91.8496" y="-874.8156" font-family="Times,serif" font-size="14.00" fill="#000000"> </text>
<polyline fill="none" stroke="#000000" points="82.0996,-866.6156 101.5996,-866.6156 "/>
<text text-anchor="middle" x="91.8496" y="-850.0156" font-family="Times,serif" font-size="14.00" fill="#000000"> </text>
<polyline fill="none" stroke="#000000" points="82.0996,-841.8156 101.5996,-841.8156 "/>
<text text-anchor="middle" x="91.8496" y="-825.2156" font-family="Times,serif" font-size="14.00" fill="#000000"> </text>
<polyline fill="none" stroke="#000000" points="82.0996,-817.0156 101.5996,-817.0156 "/>
<text text-anchor="middle" x="91.8496" y="-800.4156" font-family="Times,serif" font-size="14.00" fill="#000000"> </text>
<polyline fill="none" stroke="#000000" points="82.0996,-792.2156 101.5996,-792.2156 "/>
<text text-anchor="middle" x="91.8496" y="-775.6156" font-family="Times,serif" font-size="14.00" fill="#000000"> </text>
<polyline fill="none" stroke="#000000" points="82.0996,-767.4156 101.5996,-767.4156 "/>
<text text-anchor="middle" x="91.8496" y="-750.8156" font-family="Times,serif" font-size="14.00" fill="#000000"> </text>
<polyline fill="none" stroke="#000000" points="82.0996,-742.6156 101.5996,-742.6156 "/>
<text text-anchor="middle" x="91.8496" y="-726.0156" font-family="Times,serif" font-size="14.00" fill="#000000"> </text>
<polyline fill="none" stroke="#000000" points="82.0996,-717.8156 101.5996,-717.8156 "/>
<text text-anchor="middle" x="91.8496" y="-701.2156" font-family="Times,serif" font-size="14.00" fill="#000000"> </text>
<polyline fill="none" stroke="#000000" points="82.0996,-693.0156 101.5996,-693.0156 "/>
<text text-anchor="middle" x="91.8496" y="-676.4156" font-family="Times,serif" font-size="14.00" fill="#000000"> </text>
<polyline fill="none" stroke="#000000" points="82.0996,-668.2156 101.5996,-668.2156 "/>
<text text-anchor="middle" x="91.8496" y="-651.6156" font-family="Times,serif" font-size="14.00" fill="#000000"> </text>
</g>
<!-- s590 -->
<g id="node2" class="node">
<title>s590</title>
<ellipse fill="none" stroke="#000000" cx="230.4377" cy="-1877.4156" rx="85.6765" ry="29.3315"/>
<text text-anchor="middle" x="230.4377" y="-1881.6156" font-family="Times,serif" font-size="14.00" fill="#000000">s590 PREC_LEFT</text>
<text text-anchor="middle" x="230.4377" y="-1864.8156" font-family="Times,serif" font-size="14.00" fill="#000000">(not&#45;implemented)</text>
</g>
<!-- s589&#45;&gt;s590 -->
<g id="edge1" class="edge">
<title>s589:p0&#45;&gt;s590</title>
<path fill="none" stroke="#000000" d="M91.7998,-1263.4156C91.7998,-1371.5922 101.779,-1642.717 119.5996,-1749.4156 126.368,-1789.9408 117.8464,-1807.2328 144.5996,-1838.4156 148.7963,-1843.3072 153.7327,-1847.6166 159.0819,-1851.4073"/>
<polygon fill="#000000" stroke="#000000" points="157.4657,-1854.5275 167.7808,-1856.9462 161.2255,-1848.6228 157.4657,-1854.5275"/>
<text text-anchor="middle" x="123.0996" y="-1808.6156" font-family="Times,serif" font-size="14.00" fill="#000000">4</text>
</g>
<!-- s591 -->
<g id="node3" class="node">
<title>s591</title>
<ellipse fill="none" stroke="#000000" cx="230.4377" cy="-1800.4156" rx="85.6765" ry="29.3315"/>
<text text-anchor="middle" x="230.4377" y="-1804.6156" font-family="Times,serif" font-size="14.00" fill="#000000">s591 PREC_LEFT</text>
<text text-anchor="middle" x="230.4377" y="-1787.8156" font-family="Times,serif" font-size="14.00" fill="#000000">(not&#45;implemented)</text>
</g>
<!-- s589&#45;&gt;s591 -->
<g id="edge2" class="edge">
<title>s589:p1&#45;&gt;s591</title>
<path fill="none" stroke="#000000" d="M101.5996,-1226.4156C126.4531,-1226.4156 115.6762,-1648.8738 119.5996,-1673.4156 126.018,-1713.5646 118.0794,-1730.5966 144.5996,-1761.4156 148.8035,-1766.301 153.7449,-1770.6061 159.0974,-1774.394"/>
<polygon fill="#000000" stroke="#000000" points="157.484,-1777.5157 167.8002,-1779.9296 161.2409,-1771.6093 157.484,-1777.5157"/>
<text text-anchor="middle" x="123.0996" y="-1732.6156" font-family="Times,serif" font-size="14.00" fill="#000000">3</text>
</g>
<!-- s592 -->
<g id="node4" class="node">
<title>s592</title>
<ellipse fill="none" stroke="#000000" cx="230.4377" cy="-1723.4156" rx="85.6765" ry="29.3315"/>
<text text-anchor="middle" x="230.4377" y="-1727.6156" font-family="Times,serif" font-size="14.00" fill="#000000">s592 PREC_LEFT</text>
<text text-anchor="middle" x="230.4377" y="-1710.8156" font-family="Times,serif" font-size="14.00" fill="#000000">(not&#45;implemented)</text>
</g>
<!-- s589&#45;&gt;s592 -->
<g id="edge3" class="edge">
<title>s589:p2&#45;&gt;s592</title>
<path fill="none" stroke="#000000" d="M101.5996,-1201.4156C123.5113,-1201.4156 116.1141,-1573.7829 119.5996,-1595.4156 126.1352,-1635.979 117.8464,-1653.2328 144.5996,-1684.4156 148.7963,-1689.3072 153.7327,-1693.6166 159.0819,-1697.4073"/>
<polygon fill="#000000" stroke="#000000" points="157.4657,-1700.5275 167.7808,-1702.9462 161.2255,-1694.6228 157.4657,-1700.5275"/>
<text text-anchor="middle" x="123.0996" y="-1656.6156" font-family="Times,serif" font-size="14.00" fill="#000000">2</text>
</g>
<!-- s593 -->
<g id="node5" class="node">
<title>s593</title>
<ellipse fill="none" stroke="#000000" cx="230.4377" cy="-1646.4156" rx="85.6765" ry="29.3315"/>
<text text-anchor="middle" x="230.4377" y="-1650.6156" font-family="Times,serif" font-size="14.00" fill="#000000">s593 PREC_LEFT</text>
<text text-anchor="middle" x="230.4377" y="-1633.8156" font-family="Times,serif" font-size="14.00" fill="#000000">(not&#45;implemented)</text>
</g>
<!-- s589&#45;&gt;s593 -->
<g id="edge4" class="edge">
<title>s589:p3&#45;&gt;s593</title>
<path fill="none" stroke="#000000" d="M101.5996,-1176.4156C120.6814,-1176.4156 116.4726,-1500.5918 119.5996,-1519.4156 126.2624,-1559.5248 118.0794,-1576.5966 144.5996,-1607.4156 148.8035,-1612.301 153.7449,-1616.6061 159.0974,-1620.394"/>
<polygon fill="#000000" stroke="#000000" points="157.484,-1623.5157 167.8002,-1625.9296 161.2409,-1617.6093 157.484,-1623.5157"/>
<text text-anchor="middle" x="123.0996" y="-1578.6156" font-family="Times,serif" font-size="14.00" fill="#000000">6</text>
</g>
<!-- s594 -->
<g id="node6" class="node">
<title>s594</title>
<ellipse fill="none" stroke="#000000" cx="230.4377" cy="-1569.4156" rx="85.6765" ry="29.3315"/>
<text text-anchor="middle" x="230.4377" y="-1573.6156" font-family="Times,serif" font-size="14.00" fill="#000000">s594 PREC_LEFT</text>
<text text-anchor="middle" x="230.4377" y="-1556.8156" font-family="Times,serif" font-size="14.00" fill="#000000">(not&#45;implemented)</text>
</g>
<!-- s589&#45;&gt;s594 -->
<g id="edge5" class="edge">
<title>s589:p4&#45;&gt;s594</title>
<path fill="none" stroke="#000000" d="M101.5996,-1151.4156C117.6863,-1151.4156 116.9323,-1424.5516 119.5996,-1440.4156 126.483,-1481.3556 117.6134,-1498.8689 144.5996,-1530.4156 148.7892,-1535.3132 153.7207,-1539.6269 159.0667,-1543.4203"/>
<polygon fill="#000000" stroke="#000000" points="157.4479,-1546.539 167.7618,-1548.9625 161.2103,-1540.6361 157.4479,-1546.539"/>
<text text-anchor="middle" x="123.0996" y="-1502.6156" font-family="Times,serif" font-size="14.00" fill="#000000">6</text>
</g>
<!-- s595 -->
<g id="node7" class="node">
<title>s595</title>
<ellipse fill="none" stroke="#000000" cx="230.4377" cy="-1492.4156" rx="85.6765" ry="29.3315"/>
<text text-anchor="middle" x="230.4377" y="-1496.6156" font-family="Times,serif" font-size="14.00" fill="#000000">s595 PREC_LEFT</text>
<text text-anchor="middle" x="230.4377" y="-1479.8156" font-family="Times,serif" font-size="14.00" fill="#000000">(not&#45;implemented)</text>
</g>
<!-- s589&#45;&gt;s595 -->
<g id="edge6" class="edge">
<title>s589:p5&#45;&gt;s595</title>
<path fill="none" stroke="#000000" d="M101.5996,-1127.4156C127.898,-1127.4156 115.0588,-1337.5122 119.5996,-1363.4156 126.7677,-1404.3067 117.6134,-1421.8689 144.5996,-1453.4156 148.7892,-1458.3132 153.7207,-1462.6269 159.0667,-1466.4203"/>
<polygon fill="#000000" stroke="#000000" points="157.4479,-1469.539 167.7618,-1471.9625 161.2103,-1463.6361 157.4479,-1469.539"/>
<text text-anchor="middle" x="123.0996" y="-1423.6156" font-family="Times,serif" font-size="14.00" fill="#000000">6</text>
</g>
<!-- s596 -->
<g id="node8" class="node">
<title>s596</title>
<ellipse fill="none" stroke="#000000" cx="230.4377" cy="-1415.4156" rx="85.6765" ry="29.3315"/>
<text text-anchor="middle" x="230.4377" y="-1419.6156" font-family="Times,serif" font-size="14.00" fill="#000000">s596 PREC_LEFT</text>
<text text-anchor="middle" x="230.4377" y="-1402.8156" font-family="Times,serif" font-size="14.00" fill="#000000">(not&#45;implemented)</text>
</g>
<!-- s589&#45;&gt;s596 -->
<g id="edge7" class="edge">
<title>s589:p6&#45;&gt;s596</title>
<path fill="none" stroke="#000000" d="M101.5996,-1102.4156C128.3449,-1102.4156 115.4702,-1194.9911 119.5996,-1221.4156 130.3733,-1290.3581 102.2523,-1320.9554 144.5996,-1376.4156 148.511,-1381.5382 153.2498,-1386.0076 158.4691,-1389.9035"/>
<polygon fill="#000000" stroke="#000000" points="156.7465,-1392.9607 167.0163,-1395.5652 160.6122,-1387.1249 156.7465,-1392.9607"/>
<text text-anchor="middle" x="123.0996" y="-1346.6156" font-family="Times,serif" font-size="14.00" fill="#000000">3</text>
</g>
<!-- s597 -->
<g id="node9" class="node">
<title>s597</title>
<ellipse fill="none" stroke="#000000" cx="230.4377" cy="-1338.4156" rx="85.6765" ry="29.3315"/>
<text text-anchor="middle" x="230.4377" y="-1342.6156" font-family="Times,serif" font-size="14.00" fill="#000000">s597 PREC_LEFT</text>
<text text-anchor="middle" x="230.4377" y="-1325.8156" font-family="Times,serif" font-size="14.00" fill="#000000">(not&#45;implemented)</text>
</g>
<!-- s589&#45;&gt;s597 -->
<g id="edge8" class="edge">
<title>s589:p7&#45;&gt;s597</title>
<path fill="none" stroke="#000000" d="M101.5996,-1077.4156C104.7402,-1077.4156 142.6547,-1296.9497 144.5996,-1299.4156 148.5909,-1304.4761 153.3852,-1308.9025 158.6408,-1312.7702"/>
<polygon fill="#000000" stroke="#000000" points="156.948,-1315.8454 167.2306,-1318.3989 160.7847,-1309.9905 156.948,-1315.8454"/>
<text text-anchor="middle" x="123.0996" y="-1204.6156" font-family="Times,serif" font-size="14.00" fill="#000000">2</text>
</g>
<!-- s598 -->
<g id="node10" class="node">
<title>s598</title>
<ellipse fill="none" stroke="#000000" cx="230.4377" cy="-1261.4156" rx="85.6765" ry="29.3315"/>
<text text-anchor="middle" x="230.4377" y="-1265.6156" font-family="Times,serif" font-size="14.00" fill="#000000">s598 PREC_LEFT</text>
<text text-anchor="middle" x="230.4377" y="-1248.8156" font-family="Times,serif" font-size="14.00" fill="#000000">(not&#45;implemented)</text>
</g>
<!-- s589&#45;&gt;s598 -->
<g id="edge9" class="edge">
<title>s589:p8&#45;&gt;s598</title>
<path fill="none" stroke="#000000" d="M101.5996,-1052.4156C111.3415,-1052.4156 138.3533,-1214.9398 144.5996,-1222.4156 148.7321,-1227.3615 153.624,-1231.7086 158.944,-1235.524"/>
<polygon fill="#000000" stroke="#000000" points="157.3038,-1238.6304 167.6088,-1241.0918 161.088,-1232.7414 157.3038,-1238.6304"/>
<text text-anchor="middle" x="123.0996" y="-1148.6156" font-family="Times,serif" font-size="14.00" fill="#000000">2</text>
</g>
<!-- s599 -->
<g id="node11" class="node">
<title>s599</title>
<ellipse fill="none" stroke="#000000" cx="230.4377" cy="-1184.4156" rx="85.6765" ry="29.3315"/>
<text text-anchor="middle" x="230.4377" y="-1188.6156" font-family="Times,serif" font-size="14.00" fill="#000000">s599 PREC_LEFT</text>
<text text-anchor="middle" x="230.4377" y="-1171.8156" font-family="Times,serif" font-size="14.00" fill="#000000">(not&#45;implemented)</text>
</g>
<!-- s589&#45;&gt;s599 -->
<g id="edge10" class="edge">
<title>s589:p9&#45;&gt;s599</title>
<path fill="none" stroke="#000000" d="M101.5996,-1027.4156C115.5541,-1027.4156 135.1194,-1135.1758 144.5996,-1145.4156 149.1571,-1150.3384 154.4554,-1154.6845 160.1405,-1158.5124"/>
<polygon fill="#000000" stroke="#000000" points="158.3494,-1161.5197 168.7054,-1163.7569 162.0049,-1155.5499 158.3494,-1161.5197"/>
<text text-anchor="middle" x="123.0996" y="-1089.6156" font-family="Times,serif" font-size="14.00" fill="#000000">5</text>
</g>
<!-- s600 -->
<g id="node12" class="node">
<title>s600</title>
<ellipse fill="none" stroke="#000000" cx="230.4377" cy="-1107.4156" rx="85.6765" ry="29.3315"/>
<text text-anchor="middle" x="230.4377" y="-1111.6156" font-family="Times,serif" font-size="14.00" fill="#000000">s600 PREC_LEFT</text>
<text text-anchor="middle" x="230.4377" y="-1094.8156" font-family="Times,serif" font-size="14.00" fill="#000000">(not&#45;implemented)</text>
</g>
<!-- s589&#45;&gt;s600 -->
<g id="edge11" class="edge">
<title>s589:p10&#45;&gt;s600</title>
<path fill="none" stroke="#000000" d="M101.5996,-1003.4156C136.2378,-1003.4156 118.2504,-1045.9319 144.5996,-1068.4156 150.0783,-1073.0906 156.2094,-1077.3106 162.6068,-1081.094"/>
<polygon fill="#000000" stroke="#000000" points="161.0138,-1084.2125 171.4594,-1085.9842 164.3985,-1078.0852 161.0138,-1084.2125"/>
<text text-anchor="middle" x="123.0996" y="-1032.6156" font-family="Times,serif" font-size="14.00" fill="#000000">5</text>
</g>
<!-- s601 -->
<g id="node13" class="node">
<title>s601</title>
<ellipse fill="none" stroke="#000000" cx="230.4377" cy="-1030.4156" rx="85.6765" ry="29.3315"/>
<text text-anchor="middle" x="230.4377" y="-1034.6156" font-family="Times,serif" font-size="14.00" fill="#000000">s601 PREC_LEFT</text>
<text text-anchor="middle" x="230.4377" y="-1017.8156" font-family="Times,serif" font-size="14.00" fill="#000000">(not&#45;implemented)</text>
</g>
<!-- s589&#45;&gt;s601 -->
<g id="edge12" class="edge">
<title>s589:p11&#45;&gt;s601</title>
<path fill="none" stroke="#000000" d="M101.5996,-978.4156C109.027,-978.4156 139.1318,-990.453 168.373,-1002.9447"/>
<polygon fill="#000000" stroke="#000000" points="167.2374,-1006.2662 177.8067,-1007.0017 170.0029,-999.8356 167.2374,-1006.2662"/>
<text text-anchor="middle" x="123.0996" y="-988.6156" font-family="Times,serif" font-size="14.00" fill="#000000">6</text>
</g>
<!-- s602 -->
<g id="node14" class="node">
<title>s602</title>
<ellipse fill="none" stroke="#000000" cx="230.4377" cy="-953.4156" rx="85.6765" ry="29.3315"/>
<text text-anchor="middle" x="230.4377" y="-957.6156" font-family="Times,serif" font-size="14.00" fill="#000000">s602 PREC_LEFT</text>
<text text-anchor="middle" x="230.4377" y="-940.8156" font-family="Times,serif" font-size="14.00" fill="#000000">(not&#45;implemented)</text>
</g>
<!-- s589&#45;&gt;s602 -->
<g id="edge13" class="edge">
<title>s589:p12&#45;&gt;s602</title>
<path fill="none" stroke="#000000" d="M101.5996,-953.4156C112.2173,-953.4156 123.3272,-953.4156 134.3816,-953.4156"/>
<polygon fill="#000000" stroke="#000000" points="134.5025,-956.9157 144.5024,-953.4156 134.5024,-949.9157 134.5025,-956.9157"/>
<text text-anchor="middle" x="123.0996" y="-957.6156" font-family="Times,serif" font-size="14.00" fill="#000000">6</text>
</g>
<!-- s603 -->
<g id="node15" class="node">
<title>s603</title>
<ellipse fill="none" stroke="#000000" cx="230.4377" cy="-876.4156" rx="85.6765" ry="29.3315"/>
<text text-anchor="middle" x="230.4377" y="-880.6156" font-family="Times,serif" font-size="14.00" fill="#000000">s603 PREC_LEFT</text>
<text text-anchor="middle" x="230.4377" y="-863.8156" font-family="Times,serif" font-size="14.00" fill="#000000">(not&#45;implemented)</text>
</g>
<!-- s589&#45;&gt;s603 -->
<g id="edge14" class="edge">
<title>s589:p13&#45;&gt;s603</title>
<path fill="none" stroke="#000000" d="M101.5996,-928.4156C109.027,-928.4156 139.1318,-916.3782 168.373,-903.8866"/>
<polygon fill="#000000" stroke="#000000" points="170.0029,-906.9956 177.8067,-899.8296 167.2374,-900.5651 170.0029,-906.9956"/>
<text text-anchor="middle" x="123.0996" y="-926.6156" font-family="Times,serif" font-size="14.00" fill="#000000">6</text>
</g>
<!-- s604 -->
<g id="node16" class="node">
<title>s604</title>
<ellipse fill="none" stroke="#000000" cx="230.4377" cy="-799.4156" rx="85.6765" ry="29.3315"/>
<text text-anchor="middle" x="230.4377" y="-803.6156" font-family="Times,serif" font-size="14.00" fill="#000000">s604 PREC_LEFT</text>
<text text-anchor="middle" x="230.4377" y="-786.8156" font-family="Times,serif" font-size="14.00" fill="#000000">(not&#45;implemented)</text>
</g>
<!-- s589&#45;&gt;s604 -->
<g id="edge15" class="edge">
<title>s589:p14&#45;&gt;s604</title>
<path fill="none" stroke="#000000" d="M101.5996,-903.4156C136.2378,-903.4156 118.2504,-860.8994 144.5996,-838.4156 150.0783,-833.7407 156.2094,-829.5207 162.6068,-825.7373"/>
<polygon fill="#000000" stroke="#000000" points="164.3985,-828.7461 171.4594,-820.8471 161.0138,-822.6188 164.3985,-828.7461"/>
<text text-anchor="middle" x="123.0996" y="-899.6156" font-family="Times,serif" font-size="14.00" fill="#000000">7</text>
</g>
<!-- s605 -->
<g id="node17" class="node">
<title>s605</title>
<ellipse fill="none" stroke="#000000" cx="230.4377" cy="-722.4156" rx="85.6765" ry="29.3315"/>
<text text-anchor="middle" x="230.4377" y="-726.6156" font-family="Times,serif" font-size="14.00" fill="#000000">s605 PREC_LEFT</text>
<text text-anchor="middle" x="230.4377" y="-709.8156" font-family="Times,serif" font-size="14.00" fill="#000000">(not&#45;implemented)</text>
</g>
<!-- s589&#45;&gt;s605 -->
<g id="edge16" class="edge">
<title>s589:p15&#45;&gt;s605</title>
<path fill="none" stroke="#000000" d="M101.5996,-879.4156C115.5541,-879.4156 135.1194,-771.6555 144.5996,-761.4156 149.1571,-756.4929 154.4554,-752.1468 160.1405,-748.3189"/>
<polygon fill="#000000" stroke="#000000" points="162.0049,-751.2814 168.7054,-743.0744 158.3494,-745.3116 162.0049,-751.2814"/>
<text text-anchor="middle" x="123.0996" y="-844.6156" font-family="Times,serif" font-size="14.00" fill="#000000">4</text>
</g>
<!-- s606 -->
<g id="node18" class="node">
<title>s606</title>
<ellipse fill="none" stroke="#000000" cx="230.4377" cy="-645.4156" rx="85.6765" ry="29.3315"/>
<text text-anchor="middle" x="230.4377" y="-649.6156" font-family="Times,serif" font-size="14.00" fill="#000000">s606 PREC_LEFT</text>
<text text-anchor="middle" x="230.4377" y="-632.8156" font-family="Times,serif" font-size="14.00" fill="#000000">(not&#45;implemented)</text>
</g>
<!-- s589&#45;&gt;s606 -->
<g id="edge17" class="edge">
<title>s589:p16&#45;&gt;s606</title>
<path fill="none" stroke="#000000" d="M101.5996,-854.4156C111.3415,-854.4156 138.3533,-691.8914 144.5996,-684.4156 148.7321,-679.4698 153.624,-675.1227 158.944,-671.3072"/>
<polygon fill="#000000" stroke="#000000" points="161.088,-674.0899 167.6088,-665.7395 157.3038,-668.2009 161.088,-674.0899"/>
<text text-anchor="middle" x="123.0996" y="-795.6156" font-family="Times,serif" font-size="14.00" fill="#000000">4</text>
</g>
<!-- s607 -->
<g id="node19" class="node">
<title>s607</title>
<ellipse fill="none" stroke="#000000" cx="230.4377" cy="-568.4156" rx="85.6765" ry="29.3315"/>
<text text-anchor="middle" x="230.4377" y="-572.6156" font-family="Times,serif" font-size="14.00" fill="#000000">s607 PREC_LEFT</text>
<text text-anchor="middle" x="230.4377" y="-555.8156" font-family="Times,serif" font-size="14.00" fill="#000000">(not&#45;implemented)</text>
</g>
<!-- s589&#45;&gt;s607 -->
<g id="edge18" class="edge">
<title>s589:p17&#45;&gt;s607</title>
<path fill="none" stroke="#000000" d="M101.5996,-829.4156C103.1699,-829.4156 143.6271,-608.6486 144.5996,-607.4156 148.5909,-602.3552 153.3852,-597.9288 158.6408,-594.0611"/>
<polygon fill="#000000" stroke="#000000" points="160.7847,-596.8408 167.2306,-588.4324 156.948,-590.9859 160.7847,-596.8408"/>
<text text-anchor="middle" x="123.0996" y="-735.6156" font-family="Times,serif" font-size="14.00" fill="#000000">4</text>
</g>
<!-- s608 -->
<g id="node20" class="node">
<title>s608</title>
<ellipse fill="none" stroke="#000000" cx="230.4377" cy="-491.4156" rx="85.6765" ry="29.3315"/>
<text text-anchor="middle" x="230.4377" y="-495.6156" font-family="Times,serif" font-size="14.00" fill="#000000">s608 PREC_LEFT</text>
<text text-anchor="middle" x="230.4377" y="-478.8156" font-family="Times,serif" font-size="14.00" fill="#000000">(not&#45;implemented)</text>
</g>
<!-- s589&#45;&gt;s608 -->
<g id="edge19" class="edge">
<title>s589:p18&#45;&gt;s608</title>
<path fill="none" stroke="#000000" d="M101.5996,-804.4156C128.5206,-804.4156 115.4453,-711.2142 119.5996,-684.6156 130.3132,-616.0191 102.4428,-585.5797 144.5996,-530.4156 148.5131,-525.2947 153.2534,-520.8264 158.4735,-516.9312"/>
<polygon fill="#000000" stroke="#000000" points="160.6167,-519.7098 167.0219,-511.2703 156.7518,-513.8735 160.6167,-519.7098"/>
<text text-anchor="middle" x="123.0996" y="-688.6156" font-family="Times,serif" font-size="14.00" fill="#000000">4</text>
</g>
<!-- s609 -->
<g id="node21" class="node">
<title>s609</title>
<ellipse fill="none" stroke="#000000" cx="230.4377" cy="-414.4156" rx="85.6765" ry="29.3315"/>
<text text-anchor="middle" x="230.4377" y="-418.6156" font-family="Times,serif" font-size="14.00" fill="#000000">s609 PREC_LEFT</text>
<text text-anchor="middle" x="230.4377" y="-401.8156" font-family="Times,serif" font-size="14.00" fill="#000000">(not&#45;implemented)</text>
</g>
<!-- s589&#45;&gt;s609 -->
<g id="edge20" class="edge">
<title>s589:p19&#45;&gt;s609</title>
<path fill="none" stroke="#000000" d="M101.5996,-779.4156C127.9866,-779.4156 115.0168,-568.6016 119.5996,-542.6156 126.7503,-502.0693 117.7998,-484.6712 144.5996,-453.4156 148.7948,-448.5229 153.7302,-444.2126 159.0789,-440.4213"/>
<polygon fill="#000000" stroke="#000000" points="161.2224,-443.2058 167.777,-434.8818 157.4621,-437.3015 161.2224,-443.2058"/>
<text text-anchor="middle" x="123.0996" y="-546.6156" font-family="Times,serif" font-size="14.00" fill="#000000">4</text>
</g>
<!-- s610 -->
<g id="node22" class="node">
<title>s610</title>
<ellipse fill="none" stroke="#000000" cx="230.4377" cy="-337.4156" rx="85.6765" ry="29.3315"/>
<text text-anchor="middle" x="230.4377" y="-341.6156" font-family="Times,serif" font-size="14.00" fill="#000000">s610 PREC_LEFT</text>
<text text-anchor="middle" x="230.4377" y="-324.8156" font-family="Times,serif" font-size="14.00" fill="#000000">(not&#45;implemented)</text>
</g>
<!-- s589&#45;&gt;s610 -->
<g id="edge21" class="edge">
<title>s589:p20&#45;&gt;s610</title>
<path fill="none" stroke="#000000" d="M101.5996,-755.4156C117.7306,-755.4156 116.908,-481.5205 119.5996,-465.6156 126.4696,-425.0208 117.7998,-407.6712 144.5996,-376.4156 148.7948,-371.5229 153.7302,-367.2126 159.0789,-363.4213"/>
<polygon fill="#000000" stroke="#000000" points="161.2224,-366.2058 167.777,-357.8818 157.4621,-360.3015 161.2224,-366.2058"/>
<text text-anchor="middle" x="123.0996" y="-469.6156" font-family="Times,serif" font-size="14.00" fill="#000000">4</text>
</g>
<!-- s611 -->
<g id="node23" class="node">
<title>s611</title>
<ellipse fill="none" stroke="#000000" cx="230.4377" cy="-260.4156" rx="85.6765" ry="29.3315"/>
<text text-anchor="middle" x="230.4377" y="-264.6156" font-family="Times,serif" font-size="14.00" fill="#000000">s611 PREC_LEFT</text>
<text text-anchor="middle" x="230.4377" y="-247.8156" font-family="Times,serif" font-size="14.00" fill="#000000">(not&#45;implemented)</text>
</g>
<!-- s589&#45;&gt;s611 -->
<g id="edge22" class="edge">
<title>s589:p21&#45;&gt;s611</title>
<path fill="none" stroke="#000000" d="M101.5996,-730.4156C120.6148,-730.4156 116.515,-407.379 119.5996,-388.6156 126.2784,-347.9889 117.7998,-330.6712 144.5996,-299.4156 148.7948,-294.5229 153.7302,-290.2126 159.0789,-286.4213"/>
<polygon fill="#000000" stroke="#000000" points="161.2224,-289.2058 167.777,-280.8818 157.4621,-283.3015 161.2224,-289.2058"/>
<text text-anchor="middle" x="123.0996" y="-392.6156" font-family="Times,serif" font-size="14.00" fill="#000000">4</text>
</g>
<!-- s612 -->
<g id="node24" class="node">
<title>s612</title>
<ellipse fill="none" stroke="#000000" cx="230.4377" cy="-183.4156" rx="85.6765" ry="29.3315"/>
<text text-anchor="middle" x="230.4377" y="-187.6156" font-family="Times,serif" font-size="14.00" fill="#000000">s612 PREC_LEFT</text>
<text text-anchor="middle" x="230.4377" y="-170.8156" font-family="Times,serif" font-size="14.00" fill="#000000">(not&#45;implemented)</text>
</g>
<!-- s589&#45;&gt;s612 -->
<g id="edge23" class="edge">
<title>s589:p22&#45;&gt;s612</title>
<path fill="none" stroke="#000000" d="M101.5996,-705.4156C123.6112,-705.4156 116.0422,-331.3379 119.5996,-309.6156 126.1154,-269.8288 118.2656,-252.9438 144.5996,-222.4156 148.8094,-217.5354 153.7548,-213.2338 159.1101,-209.4482"/>
<polygon fill="#000000" stroke="#000000" points="161.2535,-212.2331 167.8159,-203.9153 157.4988,-206.3252 161.2535,-212.2331"/>
<text text-anchor="middle" x="123.0996" y="-313.6156" font-family="Times,serif" font-size="14.00" fill="#000000">4</text>
</g>
<!-- s613 -->
<g id="node25" class="node">
<title>s613</title>
<ellipse fill="none" stroke="#000000" cx="230.4377" cy="-106.4156" rx="85.6765" ry="29.3315"/>
<text text-anchor="middle" x="230.4377" y="-110.6156" font-family="Times,serif" font-size="14.00" fill="#000000">s613 PREC_LEFT</text>
<text text-anchor="middle" x="230.4377" y="-93.8156" font-family="Times,serif" font-size="14.00" fill="#000000">(not&#45;implemented)</text>
</g>
<!-- s589&#45;&gt;s613 -->
<g id="edge24" class="edge">
<title>s589:p23&#45;&gt;s613</title>
<path fill="none" stroke="#000000" d="M101.5996,-680.4156C126.442,-680.4156 115.6851,-258.1476 119.5996,-233.6156 126.0198,-193.3804 118.0328,-176.3074 144.5996,-145.4156 148.802,-140.5291 153.7424,-136.2231 159.0943,-132.4346"/>
<polygon fill="#000000" stroke="#000000" points="161.2378,-135.2193 167.7962,-126.8984 157.4803,-129.3132 161.2378,-135.2193"/>
<text text-anchor="middle" x="123.0996" y="-237.6156" font-family="Times,serif" font-size="14.00" fill="#000000">4</text>
</g>
<!-- s614 -->
<g id="node26" class="node">
<title>s614</title>
<ellipse fill="none" stroke="#000000" cx="230.4377" cy="-29.4156" rx="85.6765" ry="29.3315"/>
<text text-anchor="middle" x="230.4377" y="-33.6156" font-family="Times,serif" font-size="14.00" fill="#000000">s614 PREC_LEFT</text>
<text text-anchor="middle" x="230.4377" y="-16.8156" font-family="Times,serif" font-size="14.00" fill="#000000">(not&#45;implemented)</text>
</g>
<!-- s589&#45;&gt;s614 -->
<g id="edge25" class="edge">
<title>s589:p24&#45;&gt;s614</title>
<path fill="none" stroke="#000000" d="M91.7998,-643.4156C91.7998,-534.8397 101.4372,-262.6617 119.5996,-155.6156 126.3437,-115.8668 118.2656,-98.9438 144.5996,-68.4156 148.8094,-63.5354 153.7548,-59.2338 159.1101,-55.4482"/>
<polygon fill="#000000" stroke="#000000" points="161.2535,-58.2331 167.8159,-49.9153 157.4988,-52.3252 161.2535,-58.2331"/>
<text text-anchor="middle" x="123.0996" y="-159.6156" font-family="Times,serif" font-size="14.00" fill="#000000">4</text>
</g>
</g>
</svg>
