<?xml version="1.0" encoding="UTF-8" standalone="no"?>
<!DOCTYPE svg PUBLIC "-//W3C//DTD SVG 1.1//EN"
 "http://www.w3.org/Graphics/SVG/1.1/DTD/svg11.dtd">
<!-- Generated by graphviz version 2.40.1 (20161225.0304)
 -->
<!-- Title: import_statement Pages: 1 -->
<svg width="1151pt" height="122pt"
 viewBox="0.00 0.00 1151.19 121.83" xmlns="http://www.w3.org/2000/svg" xmlns:xlink="http://www.w3.org/1999/xlink">
<g id="graph0" class="graph" transform="scale(1 1) rotate(0) translate(4 117.8313)">
<title>import_statement</title>
<polygon fill="#ffffff" stroke="transparent" points="-4,4 -4,-117.8313 1147.1938,-117.8313 1147.1938,4 -4,4"/>
<!-- s70 -->
<g id="node1" class="node">
<title>s70</title>
<polygon fill="none" stroke="#000000" points="0,-28.6156 0,-70.2156 56.4418,-70.2156 56.4418,-28.6156 0,-28.6156"/>
<text text-anchor="middle" x="28.2209" y="-53.6156" font-family="Times,serif" font-size="14.00" fill="#000000">s70</text>
<text text-anchor="middle" x="28.2209" y="-36.8156" font-family="Times,serif" font-size="14.00" fill="#000000">→ SEQ</text>
</g>
<!-- s71 -->
<g id="node2" class="node">
<title>s71</title>
<ellipse fill="none" stroke="#000000" cx="156.7209" cy="-49.4156" rx="63.059" ry="29.3315"/>
<text text-anchor="middle" x="156.7209" y="-53.6156" font-family="Times,serif" font-size="14.00" fill="#000000">s71 STRING</text>
<text text-anchor="middle" x="156.7209" y="-36.8156" font-family="Times,serif" font-size="14.00" fill="#000000">&quot;import&quot;</text>
</g>
<!-- s70&#45;&gt;s71 -->
<g id="edge1" class="edge">
<title>s70&#45;&gt;s71</title>
<path fill="none" stroke="#000000" d="M56.7392,-49.4156C64.7212,-49.4156 73.7821,-49.4156 83.112,-49.4156"/>
<polygon fill="#000000" stroke="#000000" points="83.3033,-52.9157 93.3032,-49.4156 83.3032,-45.9157 83.3033,-52.9157"/>
</g>
<!-- s72 -->
<g id="node3" class="node">
<title>s72</title>
<polygon fill="none" stroke="#000000" points="257.0001,-24.6156 257.0001,-74.2156 358.5997,-74.2156 358.5997,-24.6156 257.0001,-24.6156"/>
<text text-anchor="middle" x="298.0499" y="-53.6156" font-family="Times,serif" font-size="14.00" fill="#000000">s72</text>
<text text-anchor="middle" x="298.0499" y="-36.8156" font-family="Times,serif" font-size="14.00" fill="#000000">→ CHOICE</text>
<polyline fill="none" stroke="#000000" points="339.0997,-24.6156 339.0997,-74.2156 "/>
<text text-anchor="middle" x="348.8497" y="-57.6156" font-family="Times,serif" font-size="14.00" fill="#000000"> </text>
<polyline fill="none" stroke="#000000" points="339.0997,-49.4156 358.5997,-49.4156 "/>
<text text-anchor="middle" x="348.8497" y="-32.8156" font-family="Times,serif" font-size="14.00" fill="#000000"> </text>
</g>
<!-- s71&#45;&gt;s72 -->
<g id="edge6" class="edge">
<title>s71&#45;&gt;s72</title>
<path fill="none" stroke="#000000" d="M220.3541,-49.4156C229.0484,-49.4156 237.9585,-49.4156 246.608,-49.4156"/>
<polygon fill="#000000" stroke="#000000" points="246.6136,-52.9157 256.6136,-49.4156 246.6135,-45.9157 246.6136,-52.9157"/>
</g>
<!-- s73 -->
<g id="node4" class="node">
<title>s73</title>
<polygon fill="none" stroke="#000000" points="426.4861,-62.6156 426.4861,-104.2156 482.9279,-104.2156 482.9279,-62.6156 426.4861,-62.6156"/>
<text text-anchor="middle" x="454.707" y="-87.6156" font-family="Times,serif" font-size="14.00" fill="#000000">s73</text>
<text text-anchor="middle" x="454.707" y="-70.8156" font-family="Times,serif" font-size="14.00" fill="#000000">→ SEQ</text>
</g>
<!-- s72&#45;&gt;s73 -->
<g id="edge4" class="edge">
<title>s72:p0&#45;&gt;s73</title>
<path fill="none" stroke="#000000" d="M358.5997,-61.4156C377.9163,-61.4156 398.8787,-65.6909 416.2821,-70.472"/>
<polygon fill="#000000" stroke="#000000" points="415.499,-73.8891 426.0784,-73.3171 417.4513,-67.1669 415.499,-73.8891"/>
</g>
<!-- s76 -->
<g id="node7" class="node">
<title>s76</title>
<g id="a_node7"><a xlink:href="javascript-grammar.json.string.dot.svg" xlink:title="s76 SYMBOL\nstring">
<ellipse fill="none" stroke="#000000" cx="569.7111" cy="-29.4156" rx="68.5672" ry="29.3315"/>
<text text-anchor="middle" x="569.7111" y="-33.6156" font-family="Times,serif" font-size="14.00" fill="#000000">s76 SYMBOL</text>
<text text-anchor="middle" x="569.7111" y="-16.8156" font-family="Times,serif" font-size="14.00" fill="#000000">string</text>
</a>
</g>
</g>
<!-- s72&#45;&gt;s76 -->
<g id="edge5" class="edge">
<title>s72:p1&#45;&gt;s76</title>
<path fill="none" stroke="#000000" d="M358.5997,-37.4156C402.4623,-37.4156 451.4145,-35.6698 491.1291,-33.8093"/>
<polygon fill="#000000" stroke="#000000" points="491.4604,-37.2975 501.281,-33.3219 491.1246,-30.3056 491.4604,-37.2975"/>
<text text-anchor="middle" x="392.5429" y="-41.6156" font-family="Times,serif" font-size="14.00" fill="#000000">string</text>
</g>
<!-- s74 -->
<g id="node5" class="node">
<title>s74</title>
<g id="a_node5"><a xlink:href="javascript-grammar.json.import_clause.dot.svg" xlink:title="s74 SYMBOL\nimport_clause">
<ellipse fill="none" stroke="#000000" cx="725.2776" cy="-84.4156" rx="68.5672" ry="29.3315"/>
<text text-anchor="middle" x="725.2776" y="-88.6156" font-family="Times,serif" font-size="14.00" fill="#000000">s74 SYMBOL</text>
<text text-anchor="middle" x="725.2776" y="-71.8156" font-family="Times,serif" font-size="14.00" fill="#000000">import_clause</text>
</a>
</g>
</g>
<!-- s73&#45;&gt;s74 -->
<g id="edge2" class="edge">
<title>s73&#45;&gt;s74</title>
<path fill="none" stroke="#000000" d="M483.1514,-83.5208C521.5341,-83.6626 591.4192,-83.9209 646.2773,-84.1237"/>
<polygon fill="#000000" stroke="#000000" points="646.3218,-87.6238 656.3347,-84.1608 646.3477,-80.6238 646.3218,-87.6238"/>
</g>
<!-- s75 -->
<g id="node6" class="node">
<title>s75</title>
<g id="a_node6"><a xlink:href="javascript-grammar.json._from_clause.dot.svg" xlink:title="s75 SYMBOL\n_from_clause">
<ellipse fill="none" stroke="#000000" cx="899.8441" cy="-84.4156" rx="68.5672" ry="29.3315"/>
<text text-anchor="middle" x="899.8441" y="-88.6156" font-family="Times,serif" font-size="14.00" fill="#000000">s75 SYMBOL</text>
<text text-anchor="middle" x="899.8441" y="-71.8156" font-family="Times,serif" font-size="14.00" fill="#000000">_from_clause</text>
</a>
</g>
</g>
<!-- s74&#45;&gt;s75 -->
<g id="edge3" class="edge">
<title>s74&#45;&gt;s75</title>
<path fill="none" stroke="#000000" d="M794.2709,-84.4156C802.9016,-84.4156 811.7822,-84.4156 820.5541,-84.4156"/>
<polygon fill="#000000" stroke="#000000" points="820.7803,-87.9157 830.7803,-84.4156 820.7802,-80.9157 820.7803,-87.9157"/>
</g>
<!-- s77 -->
<g id="node8" class="node">
<title>s77</title>
<g id="a_node8"><a xlink:href="javascript-grammar.json._semicolon.dot.svg" xlink:title="s77 SYMBOL\n_semicolon">
<ellipse fill="none" stroke="#000000" cx="1074.4106" cy="-39.4156" rx="68.5672" ry="29.3315"/>
<text text-anchor="middle" x="1074.4106" y="-43.6156" font-family="Times,serif" font-size="14.00" fill="#000000">s77 SYMBOL</text>
<text text-anchor="middle" x="1074.4106" y="-26.8156" font-family="Times,serif" font-size="14.00" fill="#000000">_semicolon</text>
</a>
</g>
</g>
<!-- s75&#45;&gt;s77 -->
<g id="edge7" class="edge">
<title>s75&#45;&gt;s77</title>
<path fill="none" stroke="#000000" d="M958.9443,-69.1807C973.8739,-65.3321 990.0358,-61.1659 1005.406,-57.2037"/>
<polygon fill="#000000" stroke="#000000" points="1006.5615,-60.5204 1015.3712,-54.6349 1004.8141,-53.742 1006.5615,-60.5204"/>
</g>
<!-- s76&#45;&gt;s77 -->
<g id="edge8" class="edge">
<title>s76&#45;&gt;s77</title>
<path fill="none" stroke="#000000" d="M638.5656,-30.7799C731.7035,-32.6253 897.4365,-35.9091 995.4942,-37.852"/>
<polygon fill="#000000" stroke="#000000" points="995.5769,-41.3542 1005.6443,-38.0531 995.7156,-34.3556 995.5769,-41.3542"/>
</g>
</g>
</svg>
