<?xml version="1.0" encoding="UTF-8" standalone="no"?>
<!DOCTYPE svg PUBLIC "-//W3C//DTD SVG 1.1//EN"
 "http://www.w3.org/Graphics/SVG/1.1/DTD/svg11.dtd">
<!-- Generated by graphviz version 2.40.1 (20161225.0304)
 -->
<!-- Title: _jsx_attribute_value Pages: 1 -->
<svg width="376pt" height="298pt"
 viewBox="0.00 0.00 376.27 297.83" xmlns="http://www.w3.org/2000/svg" xmlns:xlink="http://www.w3.org/1999/xlink">
<g id="graph0" class="graph" transform="scale(1 1) rotate(0) translate(4 293.8313)">
<title>_jsx_attribute_value</title>
<polygon fill="#ffffff" stroke="transparent" points="-4,4 -4,-293.8313 372.2704,-293.8313 372.2704,4 -4,4"/>
<!-- s469 -->
<g id="node1" class="node">
<title>s469</title>
<polygon fill="none" stroke="#000000" points="0,-94.8156 0,-194.0156 101.5996,-194.0156 101.5996,-94.8156 0,-94.8156"/>
<text text-anchor="middle" x="41.0498" y="-148.6156" font-family="Times,serif" font-size="14.00" fill="#000000">s469</text>
<text text-anchor="middle" x="41.0498" y="-131.8156" font-family="Times,serif" font-size="14.00" fill="#000000">→ CHOICE</text>
<polyline fill="none" stroke="#000000" points="82.0996,-94.8156 82.0996,-194.0156 "/>
<text text-anchor="middle" x="91.8496" y="-177.4156" font-family="Times,serif" font-size="14.00" fill="#000000"> </text>
<polyline fill="none" stroke="#000000" points="82.0996,-169.2156 101.5996,-169.2156 "/>
<text text-anchor="middle" x="91.8496" y="-152.6156" font-family="Times,serif" font-size="14.00" fill="#000000"> </text>
<polyline fill="none" stroke="#000000" points="82.0996,-144.4156 101.5996,-144.4156 "/>
<text text-anchor="middle" x="91.8496" y="-127.8156" font-family="Times,serif" font-size="14.00" fill="#000000"> </text>
<polyline fill="none" stroke="#000000" points="82.0996,-119.6156 101.5996,-119.6156 "/>
<text text-anchor="middle" x="91.8496" y="-103.0156" font-family="Times,serif" font-size="14.00" fill="#000000"> </text>
</g>
<!-- s470 -->
<g id="node2" class="node">
<title>s470</title>
<g id="a_node2"><a xlink:href="javascript-grammar.json.string.dot.svg" xlink:title="s470 SYMBOL\nstring">
<ellipse fill="none" stroke="#000000" cx="294.5374" cy="-260.4156" rx="73.9667" ry="29.3315"/>
<text text-anchor="middle" x="294.5374" y="-264.6156" font-family="Times,serif" font-size="14.00" fill="#000000">s470 SYMBOL</text>
<text text-anchor="middle" x="294.5374" y="-247.8156" font-family="Times,serif" font-size="14.00" fill="#000000">string</text>
</a>
</g>
</g>
<!-- s469&#45;&gt;s470 -->
<g id="edge1" class="edge">
<title>s469:p0&#45;&gt;s470</title>
<path fill="none" stroke="#000000" d="M91.7998,-194.4156C91.7998,-247.3827 155.1424,-261.7576 211.0156,-264.1345"/>
<polygon fill="#000000" stroke="#000000" points="211.2437,-267.6429 221.3445,-264.4453 211.4543,-260.646 211.2437,-267.6429"/>
<text text-anchor="middle" x="161.202" y="-267.6156" font-family="Times,serif" font-size="14.00" fill="#000000">string</text>
</g>
<!-- s471 -->
<g id="node3" class="node">
<title>s471</title>
<g id="a_node3"><a xlink:href="javascript-grammar.json.jsx_expression.dot.svg" xlink:title="s471 SYMBOL\njsx_expression">
<ellipse fill="none" stroke="#000000" cx="294.5374" cy="-183.4156" rx="73.9667" ry="29.3315"/>
<text text-anchor="middle" x="294.5374" y="-187.6156" font-family="Times,serif" font-size="14.00" fill="#000000">s471 SYMBOL</text>
<text text-anchor="middle" x="294.5374" y="-170.8156" font-family="Times,serif" font-size="14.00" fill="#000000">jsx_expression</text>
</a>
</g>
</g>
<!-- s469&#45;&gt;s471 -->
<g id="edge2" class="edge">
<title>s469:p1&#45;&gt;s471</title>
<path fill="none" stroke="#000000" d="M101.5996,-156.4156C140.5411,-156.4156 183.4808,-161.877 218.9456,-167.8872"/>
<polygon fill="#000000" stroke="#000000" points="218.7659,-171.4086 229.2185,-169.6783 219.9683,-164.5126 218.7659,-171.4086"/>
<text text-anchor="middle" x="161.202" y="-168.6156" font-family="Times,serif" font-size="14.00" fill="#000000">jsx_expression</text>
</g>
<!-- s472 -->
<g id="node4" class="node">
<title>s472</title>
<g id="a_node4"><a xlink:href="javascript-grammar.json._jsx_element.dot.svg" xlink:title="s472 SYMBOL\n_jsx_element">
<ellipse fill="none" stroke="#000000" cx="294.5374" cy="-106.4156" rx="73.9667" ry="29.3315"/>
<text text-anchor="middle" x="294.5374" y="-110.6156" font-family="Times,serif" font-size="14.00" fill="#000000">s472 SYMBOL</text>
<text text-anchor="middle" x="294.5374" y="-93.8156" font-family="Times,serif" font-size="14.00" fill="#000000">_jsx_element</text>
</a>
</g>
</g>
<!-- s469&#45;&gt;s472 -->
<g id="edge3" class="edge">
<title>s469:p2&#45;&gt;s472</title>
<path fill="none" stroke="#000000" d="M101.5996,-132.4156C140.3601,-132.4156 183.1115,-127.1981 218.4999,-121.4376"/>
<polygon fill="#000000" stroke="#000000" points="219.4691,-124.8241 228.7536,-119.7203 218.3128,-117.9202 219.4691,-124.8241"/>
<text text-anchor="middle" x="161.202" y="-135.6156" font-family="Times,serif" font-size="14.00" fill="#000000">_jsx_element</text>
</g>
<!-- s473 -->
<g id="node5" class="node">
<title>s473</title>
<g id="a_node5"><a xlink:href="javascript-grammar.json.jsx_fragment.dot.svg" xlink:title="s473 SYMBOL\njsx_fragment">
<ellipse fill="none" stroke="#000000" cx="294.5374" cy="-29.4156" rx="73.9667" ry="29.3315"/>
<text text-anchor="middle" x="294.5374" y="-33.6156" font-family="Times,serif" font-size="14.00" fill="#000000">s473 SYMBOL</text>
<text text-anchor="middle" x="294.5374" y="-16.8156" font-family="Times,serif" font-size="14.00" fill="#000000">jsx_fragment</text>
</a>
</g>
</g>
<!-- s469&#45;&gt;s473 -->
<g id="edge4" class="edge">
<title>s469:p3&#45;&gt;s473</title>
<path fill="none" stroke="#000000" d="M91.7998,-94.4156C91.7998,-41.525 155.1424,-27.4535 211.0156,-25.3294"/>
<polygon fill="#000000" stroke="#000000" points="211.4373,-28.8198 221.3445,-25.0651 211.2582,-21.8221 211.4373,-28.8198"/>
<text text-anchor="middle" x="161.202" y="-50.6156" font-family="Times,serif" font-size="14.00" fill="#000000">jsx_fragment</text>
</g>
</g>
</svg>
