<?xml version="1.0" encoding="UTF-8" standalone="no"?>
<!DOCTYPE svg PUBLIC "-//W3C//DTD SVG 1.1//EN"
 "http://www.w3.org/Graphics/SVG/1.1/DTD/svg11.dtd">
<!-- Generated by graphviz version 2.40.1 (20161225.0304)
 -->
<!-- Title: _destructuring_pattern Pages: 1 -->
<svg width="481pt" height="144pt"
 viewBox="0.00 0.00 481.36 143.83" xmlns="http://www.w3.org/2000/svg" xmlns:xlink="http://www.w3.org/1999/xlink">
<g id="graph0" class="graph" transform="scale(1 1) rotate(0) translate(4 139.8313)">
<title>_destructuring_pattern</title>
<polygon fill="#ffffff" stroke="transparent" points="-4,4 -4,-139.8313 477.356,-139.8313 477.356,4 -4,4"/>
<!-- s580 -->
<g id="node1" class="node">
<title>s580</title>
<polygon fill="none" stroke="#000000" points="0,-38.6156 0,-88.2156 101.5996,-88.2156 101.5996,-38.6156 0,-38.6156"/>
<text text-anchor="middle" x="41.0498" y="-67.6156" font-family="Times,serif" font-size="14.00" fill="#000000">s580</text>
<text text-anchor="middle" x="41.0498" y="-50.8156" font-family="Times,serif" font-size="14.00" fill="#000000">→ CHOICE</text>
<polyline fill="none" stroke="#000000" points="82.0996,-38.6156 82.0996,-88.2156 "/>
<text text-anchor="middle" x="91.8496" y="-71.6156" font-family="Times,serif" font-size="14.00" fill="#000000"> </text>
<polyline fill="none" stroke="#000000" points="82.0996,-63.4156 101.5996,-63.4156 "/>
<text text-anchor="middle" x="91.8496" y="-46.8156" font-family="Times,serif" font-size="14.00" fill="#000000"> </text>
</g>
<!-- s581 -->
<g id="node2" class="node">
<title>s581</title>
<polygon fill="none" stroke="#000000" points="217.681,-81.6156 217.681,-123.2156 288.89,-123.2156 288.89,-81.6156 217.681,-81.6156"/>
<text text-anchor="middle" x="253.2855" y="-106.6156" font-family="Times,serif" font-size="14.00" fill="#000000">s581</text>
<text text-anchor="middle" x="253.2855" y="-89.8156" font-family="Times,serif" font-size="14.00" fill="#000000">→ ALIAS</text>
</g>
<!-- s580&#45;&gt;s581 -->
<g id="edge2" class="edge">
<title>s580:p0&#45;&gt;s581</title>
<path fill="none" stroke="#000000" d="M101.5996,-75.4156C137.6471,-75.4156 177.778,-82.8981 207.7033,-89.985"/>
<polygon fill="#000000" stroke="#000000" points="206.8952,-93.3904 217.44,-92.3618 208.5553,-86.5901 206.8952,-93.3904"/>
<text text-anchor="middle" x="159.6403" y="-91.6156" font-family="Times,serif" font-size="14.00" fill="#000000">object_pattern</text>
</g>
<!-- s583 -->
<g id="node4" class="node">
<title>s583</title>
<polygon fill="none" stroke="#000000" points="217.681,-12.6156 217.681,-54.2156 288.89,-54.2156 288.89,-12.6156 217.681,-12.6156"/>
<text text-anchor="middle" x="253.2855" y="-37.6156" font-family="Times,serif" font-size="14.00" fill="#000000">s583</text>
<text text-anchor="middle" x="253.2855" y="-20.8156" font-family="Times,serif" font-size="14.00" fill="#000000">→ ALIAS</text>
</g>
<!-- s580&#45;&gt;s583 -->
<g id="edge4" class="edge">
<title>s580:p1&#45;&gt;s583</title>
<path fill="none" stroke="#000000" d="M101.5996,-51.4156C104.2695,-51.4156 163.6387,-44.2886 207.2949,-39.0038"/>
<polygon fill="#000000" stroke="#000000" points="207.9479,-42.4504 217.4543,-37.7729 207.1058,-35.5012 207.9479,-42.4504"/>
<text text-anchor="middle" x="159.6403" y="-53.6156" font-family="Times,serif" font-size="14.00" fill="#000000">array_pattern</text>
</g>
<!-- s582 -->
<g id="node3" class="node">
<title>s582</title>
<g id="a_node3"><a xlink:href="javascript-grammar.json.object.dot.svg" xlink:title="s582 SYMBOL\nobject">
<ellipse fill="none" stroke="#000000" cx="399.623" cy="-106.4156" rx="73.9667" ry="29.3315"/>
<text text-anchor="middle" x="399.623" y="-110.6156" font-family="Times,serif" font-size="14.00" fill="#000000">s582 SYMBOL</text>
<text text-anchor="middle" x="399.623" y="-93.8156" font-family="Times,serif" font-size="14.00" fill="#000000">object</text>
</a>
</g>
</g>
<!-- s581&#45;&gt;s582 -->
<g id="edge1" class="edge">
<title>s581&#45;&gt;s582</title>
<path fill="none" stroke="#000000" d="M289.0837,-103.3942C297.2861,-103.6184 306.3449,-103.866 315.642,-104.1201"/>
<polygon fill="#000000" stroke="#000000" points="315.7025,-107.623 325.7944,-104.3976 315.8938,-100.6256 315.7025,-107.623"/>
</g>
<!-- s584 -->
<g id="node5" class="node">
<title>s584</title>
<g id="a_node5"><a xlink:href="javascript-grammar.json.array.dot.svg" xlink:title="s584 SYMBOL\narray">
<ellipse fill="none" stroke="#000000" cx="399.623" cy="-29.4156" rx="73.9667" ry="29.3315"/>
<text text-anchor="middle" x="399.623" y="-33.6156" font-family="Times,serif" font-size="14.00" fill="#000000">s584 SYMBOL</text>
<text text-anchor="middle" x="399.623" y="-16.8156" font-family="Times,serif" font-size="14.00" fill="#000000">array</text>
</a>
</g>
</g>
<!-- s583&#45;&gt;s584 -->
<g id="edge3" class="edge">
<title>s583&#45;&gt;s584</title>
<path fill="none" stroke="#000000" d="M289.0837,-32.4371C297.2861,-32.2129 306.3449,-31.9653 315.642,-31.7112"/>
<polygon fill="#000000" stroke="#000000" points="315.8938,-35.2057 325.7944,-31.4337 315.7025,-28.2083 315.8938,-35.2057"/>
</g>
</g>
</svg>
