<?xml version="1.0" encoding="UTF-8" standalone="no"?>
<!DOCTYPE svg PUBLIC "-//W3C//DTD SVG 1.1//EN"
 "http://www.w3.org/Graphics/SVG/1.1/DTD/svg11.dtd">
<!-- Generated by graphviz version 2.40.1 (20161225.0304)
 -->
<!-- Title: _jsx_element_name Pages: 1 -->
<svg width="463pt" height="221pt"
 viewBox="0.00 0.00 462.91 220.83" xmlns="http://www.w3.org/2000/svg" xmlns:xlink="http://www.w3.org/1999/xlink">
<g id="graph0" class="graph" transform="scale(1 1) rotate(0) translate(4 216.8313)">
<title>_jsx_element_name</title>
<polygon fill="#ffffff" stroke="transparent" points="-4,4 -4,-216.8313 458.9136,-216.8313 458.9136,4 -4,4"/>
<!-- s439 -->
<g id="node1" class="node">
<title>s439</title>
<polygon fill="none" stroke="#000000" points="0,-69.2156 0,-143.6156 101.5996,-143.6156 101.5996,-69.2156 0,-69.2156"/>
<text text-anchor="middle" x="41.0498" y="-110.6156" font-family="Times,serif" font-size="14.00" fill="#000000">s439</text>
<text text-anchor="middle" x="41.0498" y="-93.8156" font-family="Times,serif" font-size="14.00" fill="#000000">→ CHOICE</text>
<polyline fill="none" stroke="#000000" points="82.0996,-69.2156 82.0996,-143.6156 "/>
<text text-anchor="middle" x="91.8496" y="-127.0156" font-family="Times,serif" font-size="14.00" fill="#000000"> </text>
<polyline fill="none" stroke="#000000" points="82.0996,-118.8156 101.5996,-118.8156 "/>
<text text-anchor="middle" x="91.8496" y="-102.2156" font-family="Times,serif" font-size="14.00" fill="#000000"> </text>
<polyline fill="none" stroke="#000000" points="82.0996,-94.0156 101.5996,-94.0156 "/>
<text text-anchor="middle" x="91.8496" y="-77.4156" font-family="Times,serif" font-size="14.00" fill="#000000"> </text>
</g>
<!-- s440 -->
<g id="node2" class="node">
<title>s440</title>
<g id="a_node2"><a xlink:href="javascript-grammar.json._jsx_identifier.dot.svg" xlink:title="s440 SYMBOL\n_jsx_identifier">
<ellipse fill="none" stroke="#000000" cx="357.2882" cy="-183.4156" rx="73.9667" ry="29.3315"/>
<text text-anchor="middle" x="357.2882" y="-187.6156" font-family="Times,serif" font-size="14.00" fill="#000000">s440 SYMBOL</text>
<text text-anchor="middle" x="357.2882" y="-170.8156" font-family="Times,serif" font-size="14.00" fill="#000000">_jsx_identifier</text>
</a>
</g>
</g>
<!-- s439&#45;&gt;s440 -->
<g id="edge1" class="edge">
<title>s439:p0&#45;&gt;s440</title>
<path fill="none" stroke="#000000" d="M101.5996,-131.4156C166.4693,-131.4156 238.773,-147.6872 289.8951,-162.0261"/>
<polygon fill="#000000" stroke="#000000" points="289.2519,-165.4822 299.8286,-164.8627 291.174,-158.7513 289.2519,-165.4822"/>
<text text-anchor="middle" x="180.6312" y="-151.6156" font-family="Times,serif" font-size="14.00" fill="#000000">_jsx_identifier</text>
</g>
<!-- s441 -->
<g id="node3" class="node">
<title>s441</title>
<g id="a_node3"><a xlink:href="javascript-grammar.json.nested_identifier.dot.svg" xlink:title="s441 SYMBOL\nnested_identifier">
<ellipse fill="none" stroke="#000000" cx="357.2882" cy="-106.4156" rx="77.673" ry="29.3315"/>
<text text-anchor="middle" x="357.2882" y="-110.6156" font-family="Times,serif" font-size="14.00" fill="#000000">s441 SYMBOL</text>
<text text-anchor="middle" x="357.2882" y="-93.8156" font-family="Times,serif" font-size="14.00" fill="#000000">nested_identifier</text>
</a>
</g>
</g>
<!-- s439&#45;&gt;s441 -->
<g id="edge2" class="edge">
<title>s439:p1&#45;&gt;s441</title>
<path fill="none" stroke="#000000" d="M101.5996,-106.4156C157.2363,-106.4156 219.6827,-106.4156 268.935,-106.4156"/>
<polygon fill="#000000" stroke="#000000" points="269.2374,-109.9157 279.2374,-106.4156 269.2374,-102.9157 269.2374,-109.9157"/>
<text text-anchor="middle" x="180.6312" y="-110.6156" font-family="Times,serif" font-size="14.00" fill="#000000">nested_identifier</text>
</g>
<!-- s442 -->
<g id="node4" class="node">
<title>s442</title>
<g id="a_node4"><a xlink:href="javascript-grammar.json.jsx_namespace_name.dot.svg" xlink:title="s442 SYMBOL\njsx_namespace_name">
<ellipse fill="none" stroke="#000000" cx="357.2882" cy="-29.4156" rx="97.751" ry="29.3315"/>
<text text-anchor="middle" x="357.2882" y="-33.6156" font-family="Times,serif" font-size="14.00" fill="#000000">s442 SYMBOL</text>
<text text-anchor="middle" x="357.2882" y="-16.8156" font-family="Times,serif" font-size="14.00" fill="#000000">jsx_namespace_name</text>
</a>
</g>
</g>
<!-- s439&#45;&gt;s442 -->
<g id="edge3" class="edge">
<title>s439:p2&#45;&gt;s442</title>
<path fill="none" stroke="#000000" d="M101.5996,-81.4156C162.4349,-81.4156 229.8082,-67.1051 280.1179,-53.4986"/>
<polygon fill="#000000" stroke="#000000" points="281.2341,-56.8216 289.9453,-50.7911 279.3748,-50.073 281.2341,-56.8216"/>
<text text-anchor="middle" x="180.6312" y="-84.6156" font-family="Times,serif" font-size="14.00" fill="#000000">jsx_namespace_name</text>
</g>
</g>
</svg>
