<?xml version="1.0" encoding="UTF-8" standalone="no"?>
<!DOCTYPE svg PUBLIC "-//W3C//DTD SVG 1.1//EN"
 "http://www.w3.org/Graphics/SVG/1.1/DTD/svg11.dtd">
<!-- Generated by graphviz version 2.40.1 (20161225.0304)
 -->
<!-- Title: _from_clause Pages: 1 -->
<svg width="401pt" height="67pt"
 viewBox="0.00 0.00 400.57 66.83" xmlns="http://www.w3.org/2000/svg" xmlns:xlink="http://www.w3.org/1999/xlink">
<g id="graph0" class="graph" transform="scale(1 1) rotate(0) translate(4 62.8313)">
<title>_from_clause</title>
<polygon fill="#ffffff" stroke="transparent" points="-4,4 -4,-62.8313 396.5665,-62.8313 396.5665,4 -4,4"/>
<!-- s90 -->
<g id="node1" class="node">
<title>s90</title>
<polygon fill="none" stroke="#000000" points="0,-8.6156 0,-50.2156 56.4418,-50.2156 56.4418,-8.6156 0,-8.6156"/>
<text text-anchor="middle" x="28.2209" y="-33.6156" font-family="Times,serif" font-size="14.00" fill="#000000">s90</text>
<text text-anchor="middle" x="28.2209" y="-16.8156" font-family="Times,serif" font-size="14.00" fill="#000000">→ SEQ</text>
</g>
<!-- s91 -->
<g id="node2" class="node">
<title>s91</title>
<ellipse fill="none" stroke="#000000" cx="155.7209" cy="-29.4156" rx="63.059" ry="29.3315"/>
<text text-anchor="middle" x="155.7209" y="-33.6156" font-family="Times,serif" font-size="14.00" fill="#000000">s91 STRING</text>
<text text-anchor="middle" x="155.7209" y="-16.8156" font-family="Times,serif" font-size="14.00" fill="#000000">&quot;from&quot;</text>
</g>
<!-- s90&#45;&gt;s91 -->
<g id="edge1" class="edge">
<title>s90&#45;&gt;s91</title>
<path fill="none" stroke="#000000" d="M56.5173,-29.4156C64.2463,-29.4156 72.9948,-29.4156 82.016,-29.4156"/>
<polygon fill="#000000" stroke="#000000" points="82.2774,-32.9157 92.2773,-29.4156 82.2773,-25.9157 82.2774,-32.9157"/>
</g>
<!-- s92 -->
<g id="node3" class="node">
<title>s92</title>
<g id="a_node3"><a xlink:href="javascript-grammar.json.string.dot.svg" xlink:title="s92 SYMBOL\nstring">
<ellipse fill="none" stroke="#000000" cx="323.7833" cy="-29.4156" rx="68.5672" ry="29.3315"/>
<text text-anchor="middle" x="323.7833" y="-33.6156" font-family="Times,serif" font-size="14.00" fill="#000000">s92 SYMBOL</text>
<text text-anchor="middle" x="323.7833" y="-16.8156" font-family="Times,serif" font-size="14.00" fill="#000000">string</text>
</a>
</g>
</g>
<!-- s91&#45;&gt;s92 -->
<g id="edge2" class="edge">
<title>s91&#45;&gt;s92</title>
<path fill="none" stroke="#000000" d="M219.2581,-29.4156C227.6094,-29.4156 236.2483,-29.4156 244.8168,-29.4156"/>
<polygon fill="#000000" stroke="#000000" points="244.8216,-32.9157 254.8216,-29.4156 244.8215,-25.9157 244.8216,-32.9157"/>
</g>
</g>
</svg>
