<?xml version="1.0" encoding="UTF-8" standalone="no"?>
<!DOCTYPE svg PUBLIC "-//W3C//DTD SVG 1.1//EN"
 "http://www.w3.org/Graphics/SVG/1.1/DTD/svg11.dtd">
<!-- Generated by graphviz version 2.40.1 (20161225.0304)
 -->
<!-- Title: return_statement Pages: 1 -->
<svg width="817pt" height="144pt"
 viewBox="0.00 0.00 816.75 143.83" xmlns="http://www.w3.org/2000/svg" xmlns:xlink="http://www.w3.org/1999/xlink">
<g id="graph0" class="graph" transform="scale(1 1) rotate(0) translate(4 139.8313)">
<title>return_statement</title>
<polygon fill="#ffffff" stroke="transparent" points="-4,4 -4,-139.8313 812.7453,-139.8313 812.7453,4 -4,4"/>
<!-- s266 -->
<g id="node1" class="node">
<title>s266</title>
<polygon fill="none" stroke="#000000" points="0,-46.6156 0,-88.2156 56.4418,-88.2156 56.4418,-46.6156 0,-46.6156"/>
<text text-anchor="middle" x="28.2209" y="-71.6156" font-family="Times,serif" font-size="14.00" fill="#000000">s266</text>
<text text-anchor="middle" x="28.2209" y="-54.8156" font-family="Times,serif" font-size="14.00" fill="#000000">→ SEQ</text>
</g>
<!-- s267 -->
<g id="node2" class="node">
<title>s267</title>
<ellipse fill="none" stroke="#000000" cx="161.6707" cy="-67.4156" rx="68.4585" ry="29.3315"/>
<text text-anchor="middle" x="161.6707" y="-71.6156" font-family="Times,serif" font-size="14.00" fill="#000000">s267 STRING</text>
<text text-anchor="middle" x="161.6707" y="-54.8156" font-family="Times,serif" font-size="14.00" fill="#000000">&quot;return&quot;</text>
</g>
<!-- s266&#45;&gt;s267 -->
<g id="edge1" class="edge">
<title>s266&#45;&gt;s267</title>
<path fill="none" stroke="#000000" d="M56.5222,-67.4156C64.5856,-67.4156 73.7846,-67.4156 83.3101,-67.4156"/>
<polygon fill="#000000" stroke="#000000" points="83.321,-70.9157 93.321,-67.4156 83.3209,-63.9157 83.321,-70.9157"/>
</g>
<!-- s268 -->
<g id="node3" class="node">
<title>s268</title>
<polygon fill="none" stroke="#000000" points="266.8995,-42.6156 266.8995,-92.2156 368.4991,-92.2156 368.4991,-42.6156 266.8995,-42.6156"/>
<text text-anchor="middle" x="307.9493" y="-71.6156" font-family="Times,serif" font-size="14.00" fill="#000000">s268</text>
<text text-anchor="middle" x="307.9493" y="-54.8156" font-family="Times,serif" font-size="14.00" fill="#000000">→ CHOICE</text>
<polyline fill="none" stroke="#000000" points="348.9991,-42.6156 348.9991,-92.2156 "/>
<text text-anchor="middle" x="358.7491" y="-75.6156" font-family="Times,serif" font-size="14.00" fill="#000000"> </text>
<polyline fill="none" stroke="#000000" points="348.9991,-67.4156 368.4991,-67.4156 "/>
<text text-anchor="middle" x="358.7491" y="-50.8156" font-family="Times,serif" font-size="14.00" fill="#000000"> </text>
</g>
<!-- s267&#45;&gt;s268 -->
<g id="edge4" class="edge">
<title>s267&#45;&gt;s268</title>
<path fill="none" stroke="#000000" d="M230.1071,-67.4156C238.9349,-67.4156 247.9288,-67.4156 256.6274,-67.4156"/>
<polygon fill="#000000" stroke="#000000" points="256.6756,-70.9157 266.6755,-67.4156 256.6755,-63.9157 256.6756,-70.9157"/>
</g>
<!-- s269 -->
<g id="node4" class="node">
<title>s269</title>
<g id="a_node4"><a xlink:href="javascript-grammar.json._expressions.dot.svg" xlink:title="s269 SYMBOL\n_expressions">
<ellipse fill="none" stroke="#000000" cx="550.5463" cy="-106.4156" rx="73.9667" ry="29.3315"/>
<text text-anchor="middle" x="550.5463" y="-110.6156" font-family="Times,serif" font-size="14.00" fill="#000000">s269 SYMBOL</text>
<text text-anchor="middle" x="550.5463" y="-93.8156" font-family="Times,serif" font-size="14.00" fill="#000000">_expressions</text>
</a>
</g>
</g>
<!-- s268&#45;&gt;s269 -->
<g id="edge2" class="edge">
<title>s268:p0&#45;&gt;s269</title>
<path fill="none" stroke="#000000" d="M368.4991,-79.4156C404.1147,-79.4156 443.2296,-84.5347 476.044,-90.3149"/>
<polygon fill="#000000" stroke="#000000" points="475.5503,-93.7824 486.0147,-92.125 476.8007,-86.895 475.5503,-93.7824"/>
<text text-anchor="middle" x="422.6562" y="-90.6156" font-family="Times,serif" font-size="14.00" fill="#000000">_expressions</text>
</g>
<!-- s270 -->
<g id="node5" class="node">
<title>s270</title>
<ellipse fill="none" stroke="#000000" cx="550.5463" cy="-29.4156" rx="45.3054" ry="29.3315"/>
<text text-anchor="middle" x="550.5463" y="-33.6156" font-family="Times,serif" font-size="14.00" fill="#000000">s270 </text>
<text text-anchor="middle" x="550.5463" y="-16.8156" font-family="Times,serif" font-size="14.00" fill="#000000">BLANK</text>
</g>
<!-- s268&#45;&gt;s270 -->
<g id="edge3" class="edge">
<title>s268:p1&#45;&gt;s270</title>
<path fill="none" stroke="#000000" d="M368.4991,-55.4156C412.2729,-55.4156 461.3778,-47.9576 497.5469,-41.0302"/>
<polygon fill="#000000" stroke="#000000" points="498.2521,-44.4587 507.3902,-39.0971 496.9031,-37.5899 498.2521,-44.4587"/>
</g>
<!-- s271 -->
<g id="node6" class="node">
<title>s271</title>
<g id="a_node6"><a xlink:href="javascript-grammar.json._semicolon.dot.svg" xlink:title="s271 SYMBOL\n_semicolon">
<ellipse fill="none" stroke="#000000" cx="735.0123" cy="-67.4156" rx="73.9667" ry="29.3315"/>
<text text-anchor="middle" x="735.0123" y="-71.6156" font-family="Times,serif" font-size="14.00" fill="#000000">s271 SYMBOL</text>
<text text-anchor="middle" x="735.0123" y="-54.8156" font-family="Times,serif" font-size="14.00" fill="#000000">_semicolon</text>
</a>
</g>
</g>
<!-- s269&#45;&gt;s271 -->
<g id="edge5" class="edge">
<title>s269&#45;&gt;s271</title>
<path fill="none" stroke="#000000" d="M615.8417,-92.6108C630.0732,-89.602 645.2426,-86.3949 659.8232,-83.3122"/>
<polygon fill="#000000" stroke="#000000" points="660.7449,-86.6948 669.8047,-81.2019 659.2969,-79.8462 660.7449,-86.6948"/>
</g>
<!-- s270&#45;&gt;s271 -->
<g id="edge6" class="edge">
<title>s270&#45;&gt;s271</title>
<path fill="none" stroke="#000000" d="M594.2622,-38.4211C613.6644,-42.418 637.0708,-47.2397 659.1784,-51.7939"/>
<polygon fill="#000000" stroke="#000000" points="658.725,-55.2739 669.2256,-53.8636 660.1374,-48.4178 658.725,-55.2739"/>
</g>
</g>
</svg>
