<?xml version="1.0" encoding="UTF-8" standalone="no"?>
<!DOCTYPE svg PUBLIC "-//W3C//DTD SVG 1.1//EN"
 "http://www.w3.org/Graphics/SVG/1.1/DTD/svg11.dtd">
<!-- Generated by graphviz version 2.40.1 (20161225.0304)
 -->
<!-- Title: public_field_definition Pages: 1 -->
<svg width="637pt" height="144pt"
 viewBox="0.00 0.00 636.53 143.83" xmlns="http://www.w3.org/2000/svg" xmlns:xlink="http://www.w3.org/1999/xlink">
<g id="graph0" class="graph" transform="scale(1 1) rotate(0) translate(4 139.8313)">
<title>public_field_definition</title>
<polygon fill="#ffffff" stroke="transparent" points="-4,4 -4,-139.8313 632.5315,-139.8313 632.5315,4 -4,4"/>
<!-- s850 -->
<g id="node1" class="node">
<title>s850</title>
<polygon fill="none" stroke="#000000" points="0,-46.6156 0,-88.2156 56.4418,-88.2156 56.4418,-46.6156 0,-46.6156"/>
<text text-anchor="middle" x="28.2209" y="-71.6156" font-family="Times,serif" font-size="14.00" fill="#000000">s850</text>
<text text-anchor="middle" x="28.2209" y="-54.8156" font-family="Times,serif" font-size="14.00" fill="#000000">→ SEQ</text>
</g>
<!-- s851 -->
<g id="node2" class="node">
<title>s851</title>
<g id="a_node2"><a xlink:href="javascript-grammar.json._property_name.dot.svg" xlink:title="s851 SYMBOL\n_property_name">
<ellipse fill="none" stroke="#000000" cx="169.6299" cy="-67.4156" rx="76.3766" ry="29.3315"/>
<text text-anchor="middle" x="169.6299" y="-71.6156" font-family="Times,serif" font-size="14.00" fill="#000000">s851 SYMBOL</text>
<text text-anchor="middle" x="169.6299" y="-54.8156" font-family="Times,serif" font-size="14.00" fill="#000000">_property_name</text>
</a>
</g>
</g>
<!-- s850&#45;&gt;s851 -->
<g id="edge1" class="edge">
<title>s850&#45;&gt;s851</title>
<path fill="none" stroke="#000000" d="M56.4972,-67.4156C64.5131,-67.4156 73.6834,-67.4156 83.2574,-67.4156"/>
<polygon fill="#000000" stroke="#000000" points="83.3491,-70.9157 93.349,-67.4156 83.349,-63.9157 83.3491,-70.9157"/>
</g>
<!-- s852 -->
<g id="node3" class="node">
<title>s852</title>
<polygon fill="none" stroke="#000000" points="282.8179,-42.6156 282.8179,-92.2156 384.4175,-92.2156 384.4175,-42.6156 282.8179,-42.6156"/>
<text text-anchor="middle" x="323.8677" y="-71.6156" font-family="Times,serif" font-size="14.00" fill="#000000">s852</text>
<text text-anchor="middle" x="323.8677" y="-54.8156" font-family="Times,serif" font-size="14.00" fill="#000000">→ CHOICE</text>
<polyline fill="none" stroke="#000000" points="364.9175,-42.6156 364.9175,-92.2156 "/>
<text text-anchor="middle" x="374.6675" y="-75.6156" font-family="Times,serif" font-size="14.00" fill="#000000"> </text>
<polyline fill="none" stroke="#000000" points="364.9175,-67.4156 384.4175,-67.4156 "/>
<text text-anchor="middle" x="374.6675" y="-50.8156" font-family="Times,serif" font-size="14.00" fill="#000000"> </text>
</g>
<!-- s851&#45;&gt;s852 -->
<g id="edge4" class="edge">
<title>s851&#45;&gt;s852</title>
<path fill="none" stroke="#000000" d="M245.8628,-67.4156C254.6635,-67.4156 263.5531,-67.4156 272.1234,-67.4156"/>
<polygon fill="#000000" stroke="#000000" points="272.3915,-70.9157 282.3915,-67.4156 272.3914,-63.9157 272.3915,-70.9157"/>
</g>
<!-- s853 -->
<g id="node4" class="node">
<title>s853</title>
<g id="a_node4"><a xlink:href="javascript-grammar.json._initializer.dot.svg" xlink:title="s853 SYMBOL\n_initializer">
<ellipse fill="none" stroke="#000000" cx="554.7985" cy="-106.4156" rx="73.9667" ry="29.3315"/>
<text text-anchor="middle" x="554.7985" y="-110.6156" font-family="Times,serif" font-size="14.00" fill="#000000">s853 SYMBOL</text>
<text text-anchor="middle" x="554.7985" y="-93.8156" font-family="Times,serif" font-size="14.00" fill="#000000">_initializer</text>
</a>
</g>
</g>
<!-- s852&#45;&gt;s853 -->
<g id="edge2" class="edge">
<title>s852:p0&#45;&gt;s853</title>
<path fill="none" stroke="#000000" d="M384.4175,-79.4156C416.3028,-79.4156 451.1355,-84.0854 480.9494,-89.5409"/>
<polygon fill="#000000" stroke="#000000" points="480.3799,-92.9951 490.8563,-91.4155 481.6814,-86.1172 480.3799,-92.9951"/>
<text text-anchor="middle" x="432.7415" y="-89.6156" font-family="Times,serif" font-size="14.00" fill="#000000">_initializer</text>
</g>
<!-- s854 -->
<g id="node5" class="node">
<title>s854</title>
<ellipse fill="none" stroke="#000000" cx="554.7985" cy="-29.4156" rx="45.3054" ry="29.3315"/>
<text text-anchor="middle" x="554.7985" y="-33.6156" font-family="Times,serif" font-size="14.00" fill="#000000">s854 </text>
<text text-anchor="middle" x="554.7985" y="-16.8156" font-family="Times,serif" font-size="14.00" fill="#000000">BLANK</text>
</g>
<!-- s852&#45;&gt;s854 -->
<g id="edge3" class="edge">
<title>s852:p1&#45;&gt;s854</title>
<path fill="none" stroke="#000000" d="M384.4175,-55.4156C424.1443,-55.4156 468.4913,-48.4226 501.9812,-41.69"/>
<polygon fill="#000000" stroke="#000000" points="502.9246,-45.069 512.009,-39.6169 501.5074,-38.214 502.9246,-45.069"/>
</g>
</g>
</svg>
