<?xml version="1.0" encoding="UTF-8" standalone="no"?>
<!DOCTYPE svg PUBLIC "-//W3C//DTD SVG 1.1//EN"
 "http://www.w3.org/Graphics/SVG/1.1/DTD/svg11.dtd">
<!-- Generated by graphviz version 2.40.1 (20161225.0304)
 -->
<!-- Title: function Pages: 1 -->
<svg width="1353pt" height="144pt"
 viewBox="0.00 0.00 1352.74 143.83" xmlns="http://www.w3.org/2000/svg" xmlns:xlink="http://www.w3.org/1999/xlink">
<g id="graph0" class="graph" transform="scale(1 1) rotate(0) translate(4 139.8313)">
<title>function</title>
<polygon fill="#ffffff" stroke="transparent" points="-4,4 -4,-139.8313 1348.7406,-139.8313 1348.7406,4 -4,4"/>
<!-- s494 -->
<g id="node1" class="node">
<title>s494</title>
<polygon fill="none" stroke="#000000" points="0,-46.6156 0,-88.2156 56.4418,-88.2156 56.4418,-46.6156 0,-46.6156"/>
<text text-anchor="middle" x="28.2209" y="-71.6156" font-family="Times,serif" font-size="14.00" fill="#000000">s494</text>
<text text-anchor="middle" x="28.2209" y="-54.8156" font-family="Times,serif" font-size="14.00" fill="#000000">→ SEQ</text>
</g>
<!-- s495 -->
<g id="node2" class="node">
<title>s495</title>
<polygon fill="none" stroke="#000000" points="93.4418,-42.6156 93.4418,-92.2156 195.0414,-92.2156 195.0414,-42.6156 93.4418,-42.6156"/>
<text text-anchor="middle" x="134.4916" y="-71.6156" font-family="Times,serif" font-size="14.00" fill="#000000">s495</text>
<text text-anchor="middle" x="134.4916" y="-54.8156" font-family="Times,serif" font-size="14.00" fill="#000000">→ CHOICE</text>
<polyline fill="none" stroke="#000000" points="175.5414,-42.6156 175.5414,-92.2156 "/>
<text text-anchor="middle" x="185.2914" y="-75.6156" font-family="Times,serif" font-size="14.00" fill="#000000"> </text>
<polyline fill="none" stroke="#000000" points="175.5414,-67.4156 195.0414,-67.4156 "/>
<text text-anchor="middle" x="185.2914" y="-50.8156" font-family="Times,serif" font-size="14.00" fill="#000000"> </text>
</g>
<!-- s494&#45;&gt;s495 -->
<g id="edge3" class="edge">
<title>s494&#45;&gt;s495</title>
<path fill="none" stroke="#000000" d="M56.6028,-67.4156C64.6824,-67.4156 73.8102,-67.4156 83.0459,-67.4156"/>
<polygon fill="#000000" stroke="#000000" points="83.0657,-70.9157 93.0657,-67.4156 83.0656,-63.9157 83.0657,-70.9157"/>
</g>
<!-- s496 -->
<g id="node3" class="node">
<title>s496</title>
<ellipse fill="none" stroke="#000000" cx="331.1441" cy="-106.4156" rx="68.4585" ry="29.3315"/>
<text text-anchor="middle" x="331.1441" y="-110.6156" font-family="Times,serif" font-size="14.00" fill="#000000">s496 STRING</text>
<text text-anchor="middle" x="331.1441" y="-93.8156" font-family="Times,serif" font-size="14.00" fill="#000000">&quot;async&quot;</text>
</g>
<!-- s495&#45;&gt;s496 -->
<g id="edge1" class="edge">
<title>s495:p0&#45;&gt;s496</title>
<path fill="none" stroke="#000000" d="M195.0414,-79.4156C217.916,-79.4156 242.5468,-83.1305 264.4839,-87.8043"/>
<polygon fill="#000000" stroke="#000000" points="263.835,-91.2455 274.3575,-90.0093 265.3607,-84.4138 263.835,-91.2455"/>
<text text-anchor="middle" x="228.9783" y="-87.6156" font-family="Times,serif" font-size="14.00" fill="#000000">async</text>
</g>
<!-- s497 -->
<g id="node4" class="node">
<title>s497</title>
<ellipse fill="none" stroke="#000000" cx="331.1441" cy="-29.4156" rx="45.3054" ry="29.3315"/>
<text text-anchor="middle" x="331.1441" y="-33.6156" font-family="Times,serif" font-size="14.00" fill="#000000">s497 </text>
<text text-anchor="middle" x="331.1441" y="-16.8156" font-family="Times,serif" font-size="14.00" fill="#000000">BLANK</text>
</g>
<!-- s495&#45;&gt;s497 -->
<g id="edge2" class="edge">
<title>s495:p1&#45;&gt;s497</title>
<path fill="none" stroke="#000000" d="M195.0414,-55.4156C223.393,-55.4156 254.486,-49.9051 279.7874,-43.9579"/>
<polygon fill="#000000" stroke="#000000" points="280.6521,-47.3496 289.537,-41.5783 278.9923,-40.5492 280.6521,-47.3496"/>
</g>
<!-- s498 -->
<g id="node5" class="node">
<title>s498</title>
<ellipse fill="none" stroke="#000000" cx="504.6018" cy="-67.4156" rx="68.4585" ry="29.3315"/>
<text text-anchor="middle" x="504.6018" y="-71.6156" font-family="Times,serif" font-size="14.00" fill="#000000">s498 STRING</text>
<text text-anchor="middle" x="504.6018" y="-54.8156" font-family="Times,serif" font-size="14.00" fill="#000000">&quot;function&quot;</text>
</g>
<!-- s496&#45;&gt;s498 -->
<g id="edge4" class="edge">
<title>s496&#45;&gt;s498</title>
<path fill="none" stroke="#000000" d="M391.8112,-92.7753C405.4115,-89.7175 419.9544,-86.4477 433.9219,-83.3072"/>
<polygon fill="#000000" stroke="#000000" points="434.9803,-86.6567 443.969,-81.0482 433.4447,-79.8272 434.9803,-86.6567"/>
</g>
<!-- s497&#45;&gt;s498 -->
<g id="edge5" class="edge">
<title>s497&#45;&gt;s498</title>
<path fill="none" stroke="#000000" d="M374.4673,-38.9066C392.3226,-42.8182 413.4849,-47.4543 433.499,-51.8389"/>
<polygon fill="#000000" stroke="#000000" points="433.006,-55.3138 443.5234,-54.035 434.504,-48.476 433.006,-55.3138"/>
</g>
<!-- s499 -->
<g id="node6" class="node">
<title>s499</title>
<polygon fill="none" stroke="#000000" points="609.8307,-42.6156 609.8307,-92.2156 711.4303,-92.2156 711.4303,-42.6156 609.8307,-42.6156"/>
<text text-anchor="middle" x="650.8805" y="-71.6156" font-family="Times,serif" font-size="14.00" fill="#000000">s499</text>
<text text-anchor="middle" x="650.8805" y="-54.8156" font-family="Times,serif" font-size="14.00" fill="#000000">→ CHOICE</text>
<polyline fill="none" stroke="#000000" points="691.9303,-42.6156 691.9303,-92.2156 "/>
<text text-anchor="middle" x="701.6803" y="-75.6156" font-family="Times,serif" font-size="14.00" fill="#000000"> </text>
<polyline fill="none" stroke="#000000" points="691.9303,-67.4156 711.4303,-67.4156 "/>
<text text-anchor="middle" x="701.6803" y="-50.8156" font-family="Times,serif" font-size="14.00" fill="#000000"> </text>
</g>
<!-- s498&#45;&gt;s499 -->
<g id="edge8" class="edge">
<title>s498&#45;&gt;s499</title>
<path fill="none" stroke="#000000" d="M573.0383,-67.4156C581.866,-67.4156 590.8599,-67.4156 599.5585,-67.4156"/>
<polygon fill="#000000" stroke="#000000" points="599.6067,-70.9157 609.6067,-67.4156 599.6066,-63.9157 599.6067,-70.9157"/>
</g>
<!-- s500 -->
<g id="node7" class="node">
<title>s500</title>
<g id="a_node7"><a xlink:href="javascript-grammar.json.identifier.dot.svg" xlink:title="s500 SYMBOL\nidentifier">
<ellipse fill="none" stroke="#000000" cx="872.4761" cy="-106.4156" rx="73.9667" ry="29.3315"/>
<text text-anchor="middle" x="872.4761" y="-110.6156" font-family="Times,serif" font-size="14.00" fill="#000000">s500 SYMBOL</text>
<text text-anchor="middle" x="872.4761" y="-93.8156" font-family="Times,serif" font-size="14.00" fill="#000000">identifier</text>
</a>
</g>
</g>
<!-- s499&#45;&gt;s500 -->
<g id="edge6" class="edge">
<title>s499:p0&#45;&gt;s500</title>
<path fill="none" stroke="#000000" d="M711.4303,-79.4156C740.4664,-79.4156 772.047,-83.7375 799.4883,-88.923"/>
<polygon fill="#000000" stroke="#000000" points="798.912,-92.3765 809.3986,-90.8661 800.2589,-85.5073 798.912,-92.3765"/>
<text text-anchor="middle" x="755.0867" y="-88.6156" font-family="Times,serif" font-size="14.00" fill="#000000">identifier</text>
</g>
<!-- s501 -->
<g id="node8" class="node">
<title>s501</title>
<ellipse fill="none" stroke="#000000" cx="872.4761" cy="-29.4156" rx="45.3054" ry="29.3315"/>
<text text-anchor="middle" x="872.4761" y="-33.6156" font-family="Times,serif" font-size="14.00" fill="#000000">s501 </text>
<text text-anchor="middle" x="872.4761" y="-16.8156" font-family="Times,serif" font-size="14.00" fill="#000000">BLANK</text>
</g>
<!-- s499&#45;&gt;s501 -->
<g id="edge7" class="edge">
<title>s499:p1&#45;&gt;s501</title>
<path fill="none" stroke="#000000" d="M711.4303,-55.4156C748.1026,-55.4156 788.8787,-48.7638 820.2249,-42.1892"/>
<polygon fill="#000000" stroke="#000000" points="821.0183,-45.5986 830.0537,-40.0659 819.5401,-38.7565 821.0183,-45.5986"/>
</g>
<!-- s502 -->
<g id="node9" class="node">
<title>s502</title>
<g id="a_node9"><a xlink:href="javascript-grammar.json.formal_parameters.dot.svg" xlink:title="s502 SYMBOL\nformal_parameters">
<ellipse fill="none" stroke="#000000" cx="1069.2798" cy="-67.4156" rx="86.1415" ry="29.3315"/>
<text text-anchor="middle" x="1069.2798" y="-71.6156" font-family="Times,serif" font-size="14.00" fill="#000000">s502 SYMBOL</text>
<text text-anchor="middle" x="1069.2798" y="-54.8156" font-family="Times,serif" font-size="14.00" fill="#000000">formal_parameters</text>
</a>
</g>
</g>
<!-- s500&#45;&gt;s502 -->
<g id="edge9" class="edge">
<title>s500&#45;&gt;s502</title>
<path fill="none" stroke="#000000" d="M938.5564,-93.3207C953.3043,-90.3982 969.1418,-87.2597 984.5256,-84.2111"/>
<polygon fill="#000000" stroke="#000000" points="985.4245,-87.6011 994.5534,-82.224 984.0638,-80.7347 985.4245,-87.6011"/>
</g>
<!-- s501&#45;&gt;s502 -->
<g id="edge10" class="edge">
<title>s501&#45;&gt;s502</title>
<path fill="none" stroke="#000000" d="M916.1532,-37.8491C936.1688,-41.7138 960.6136,-46.4337 984.0443,-50.9579"/>
<polygon fill="#000000" stroke="#000000" points="983.5258,-54.4223 994.008,-52.8817 984.8529,-47.5493 983.5258,-54.4223"/>
</g>
<!-- s503 -->
<g id="node10" class="node">
<title>s503</title>
<g id="a_node10"><a xlink:href="javascript-grammar.json.statement_block.dot.svg" xlink:title="s503 SYMBOL\nstatement_block">
<ellipse fill="none" stroke="#000000" cx="1268.5456" cy="-67.4156" rx="76.3905" ry="29.3315"/>
<text text-anchor="middle" x="1268.5456" y="-71.6156" font-family="Times,serif" font-size="14.00" fill="#000000">s503 SYMBOL</text>
<text text-anchor="middle" x="1268.5456" y="-54.8156" font-family="Times,serif" font-size="14.00" fill="#000000">statement_block</text>
</a>
</g>
</g>
<!-- s502&#45;&gt;s503 -->
<g id="edge11" class="edge">
<title>s502&#45;&gt;s503</title>
<path fill="none" stroke="#000000" d="M1155.5217,-67.4156C1164.2914,-67.4156 1173.202,-67.4156 1181.9752,-67.4156"/>
<polygon fill="#000000" stroke="#000000" points="1182.1943,-70.9157 1192.1942,-67.4156 1182.1942,-63.9157 1182.1943,-70.9157"/>
</g>
</g>
</svg>
