<?xml version="1.0" encoding="UTF-8" standalone="no"?>
<!DOCTYPE svg PUBLIC "-//W3C//DTD SVG 1.1//EN"
 "http://www.w3.org/Graphics/SVG/1.1/DTD/svg11.dtd">
<!-- Generated by graphviz version 2.40.1 (20161225.0304)
 -->
<!-- Title: decorator_call_expression Pages: 1 -->
<svg width="1205pt" height="123pt"
 viewBox="0.00 0.00 1205.42 122.83" xmlns="http://www.w3.org/2000/svg" xmlns:xlink="http://www.w3.org/1999/xlink">
<g id="graph0" class="graph" transform="scale(1 1) rotate(0) translate(4 118.8313)">
<title>decorator_call_expression</title>
<polygon fill="#ffffff" stroke="transparent" points="-4,4 -4,-118.8313 1201.418,-118.8313 1201.418,4 -4,4"/>
<!-- s824 -->
<g id="node1" class="node">
<title>s824</title>
<polygon fill="none" stroke="#000000" points="0,-40.6156 0,-82.2156 65.0084,-82.2156 65.0084,-40.6156 0,-40.6156"/>
<text text-anchor="middle" x="32.5042" y="-65.6156" font-family="Times,serif" font-size="14.00" fill="#000000">s824</text>
<text text-anchor="middle" x="32.5042" y="-48.8156" font-family="Times,serif" font-size="14.00" fill="#000000">→ PREC</text>
</g>
<!-- s825 -->
<g id="node2" class="node">
<title>s825</title>
<polygon fill="none" stroke="#000000" points="102.0084,-40.6156 102.0084,-82.2156 158.4502,-82.2156 158.4502,-40.6156 102.0084,-40.6156"/>
<text text-anchor="middle" x="130.2293" y="-65.6156" font-family="Times,serif" font-size="14.00" fill="#000000">s825</text>
<text text-anchor="middle" x="130.2293" y="-48.8156" font-family="Times,serif" font-size="14.00" fill="#000000">→ SEQ</text>
</g>
<!-- s824&#45;&gt;s825 -->
<g id="edge7" class="edge">
<title>s824&#45;&gt;s825</title>
<path fill="none" stroke="#000000" d="M65.0452,-61.4156C73.5855,-61.4156 82.8774,-61.4156 91.6984,-61.4156"/>
<polygon fill="#000000" stroke="#000000" points="91.7642,-64.9157 101.7641,-61.4156 91.7641,-57.9157 91.7642,-64.9157"/>
</g>
<!-- s826 -->
<g id="node3" class="node">
<title>s826</title>
<polygon fill="none" stroke="#000000" points="195.4502,-36.6156 195.4502,-86.2156 297.0498,-86.2156 297.0498,-36.6156 195.4502,-36.6156"/>
<text text-anchor="middle" x="236.5" y="-65.6156" font-family="Times,serif" font-size="14.00" fill="#000000">s826</text>
<text text-anchor="middle" x="236.5" y="-48.8156" font-family="Times,serif" font-size="14.00" fill="#000000">→ CHOICE</text>
<polyline fill="none" stroke="#000000" points="277.5498,-36.6156 277.5498,-86.2156 "/>
<text text-anchor="middle" x="287.2998" y="-69.6156" font-family="Times,serif" font-size="14.00" fill="#000000"> </text>
<polyline fill="none" stroke="#000000" points="277.5498,-61.4156 297.0498,-61.4156 "/>
<text text-anchor="middle" x="287.2998" y="-44.8156" font-family="Times,serif" font-size="14.00" fill="#000000"> </text>
</g>
<!-- s825&#45;&gt;s826 -->
<g id="edge4" class="edge">
<title>s825&#45;&gt;s826</title>
<path fill="none" stroke="#000000" d="M158.6112,-61.4156C166.6908,-61.4156 175.8186,-61.4156 185.0543,-61.4156"/>
<polygon fill="#000000" stroke="#000000" points="185.0741,-64.9157 195.0741,-61.4156 185.074,-57.9157 185.0741,-64.9157"/>
</g>
<!-- s827 -->
<g id="node4" class="node">
<title>s827</title>
<g id="a_node4"><a xlink:href="javascript-grammar.json._identifier_reference.dot.svg" xlink:title="s827 SYMBOL\n_identifier_reference">
<ellipse fill="none" stroke="#000000" cx="633.9315" cy="-85.4156" rx="94.1107" ry="29.3315"/>
<text text-anchor="middle" x="633.9315" y="-89.6156" font-family="Times,serif" font-size="14.00" fill="#000000">s827 SYMBOL</text>
<text text-anchor="middle" x="633.9315" y="-72.8156" font-family="Times,serif" font-size="14.00" fill="#000000">_identifier_reference</text>
</a>
</g>
</g>
<!-- s826&#45;&gt;s827 -->
<g id="edge1" class="edge">
<title>s826:p0&#45;&gt;s827</title>
<path fill="none" stroke="#000000" d="M297.0498,-73.4156C375.5387,-73.4156 464.2489,-76.7091 530.9288,-79.8453"/>
<polygon fill="#000000" stroke="#000000" points="530.8638,-83.3461 541.0192,-80.3266 531.1973,-76.354 530.8638,-83.3461"/>
<text text-anchor="middle" x="373.7336" y="-79.6156" font-family="Times,serif" font-size="14.00" fill="#000000">_identifier_reference</text>
</g>
<!-- s828 -->
<g id="node5" class="node">
<title>s828</title>
<polygon fill="none" stroke="#000000" points="450.4174,-14.6156 450.4174,-56.2156 521.6264,-56.2156 521.6264,-14.6156 450.4174,-14.6156"/>
<text text-anchor="middle" x="486.0219" y="-39.6156" font-family="Times,serif" font-size="14.00" fill="#000000">s828</text>
<text text-anchor="middle" x="486.0219" y="-22.8156" font-family="Times,serif" font-size="14.00" fill="#000000">→ ALIAS</text>
</g>
<!-- s826&#45;&gt;s828 -->
<g id="edge3" class="edge">
<title>s826:p1&#45;&gt;s828</title>
<path fill="none" stroke="#000000" d="M297.0498,-49.4156C305.146,-49.4156 307.0024,-47.5034 315.0498,-46.6156 357.252,-41.9603 405.5439,-39.0144 440.0155,-37.319"/>
<polygon fill="#000000" stroke="#000000" points="440.4253,-40.8036 450.2478,-36.8325 440.0928,-33.8115 440.4253,-40.8036"/>
<text text-anchor="middle" x="373.7336" y="-51.6156" font-family="Times,serif" font-size="14.00" fill="#000000">member_expression</text>
</g>
<!-- s830 -->
<g id="node7" class="node">
<title>s830</title>
<g id="a_node7"><a xlink:href="javascript-grammar.json.arguments.dot.svg" xlink:title="s830 SYMBOL\narguments">
<ellipse fill="none" stroke="#000000" cx="1123.685" cy="-57.4156" rx="73.9667" ry="29.3315"/>
<text text-anchor="middle" x="1123.685" y="-61.6156" font-family="Times,serif" font-size="14.00" fill="#000000">s830 SYMBOL</text>
<text text-anchor="middle" x="1123.685" y="-44.8156" font-family="Times,serif" font-size="14.00" fill="#000000">arguments</text>
</a>
</g>
</g>
<!-- s827&#45;&gt;s830 -->
<g id="edge5" class="edge">
<title>s827&#45;&gt;s830</title>
<path fill="none" stroke="#000000" d="M727.8419,-82.0692C804.5804,-79.0668 915.8497,-74.1028 1012.952,-67.4156 1022.3135,-66.7709 1032.1126,-66.0105 1041.8457,-65.2015"/>
<polygon fill="#000000" stroke="#000000" points="1042.2756,-68.6777 1051.9434,-64.3437 1041.683,-61.7028 1042.2756,-68.6777"/>
</g>
<!-- s829 -->
<g id="node6" class="node">
<title>s829</title>
<g id="a_node6"><a xlink:href="javascript-grammar.json.decorator_member_expression.dot.svg" xlink:title="s829 SYMBOL\ndecorator_member_expression">
<ellipse fill="none" stroke="#000000" cx="879.5943" cy="-29.4156" rx="133.2155" ry="29.3315"/>
<text text-anchor="middle" x="879.5943" y="-33.6156" font-family="Times,serif" font-size="14.00" fill="#000000">s829 SYMBOL</text>
<text text-anchor="middle" x="879.5943" y="-16.8156" font-family="Times,serif" font-size="14.00" fill="#000000">decorator_member_expression</text>
</a>
</g>
</g>
<!-- s828&#45;&gt;s829 -->
<g id="edge2" class="edge">
<title>s828&#45;&gt;s829</title>
<path fill="none" stroke="#000000" d="M521.643,-34.8726C569.9037,-34.1369 658.9071,-32.78 736.0862,-31.6034"/>
<polygon fill="#000000" stroke="#000000" points="736.46,-35.0982 746.4055,-31.4461 736.3533,-28.099 736.46,-35.0982"/>
</g>
<!-- s829&#45;&gt;s830 -->
<g id="edge6" class="edge">
<title>s829&#45;&gt;s830</title>
<path fill="none" stroke="#000000" d="M998.0646,-43.0055C1013.1169,-44.7322 1028.2418,-46.4672 1042.5224,-48.1054"/>
<polygon fill="#000000" stroke="#000000" points="1042.4248,-51.617 1052.7585,-49.2796 1043.2226,-44.6626 1042.4248,-51.617"/>
</g>
</g>
</svg>
