<?xml version="1.0" encoding="UTF-8" standalone="no"?>
<!DOCTYPE svg PUBLIC "-//W3C//DTD SVG 1.1//EN"
 "http://www.w3.org/Graphics/SVG/1.1/DTD/svg11.dtd">
<!-- Generated by graphviz version 2.40.1 (20161225.0304)
 -->
<!-- Title: expression_statement Pages: 1 -->
<svg width="431pt" height="67pt"
 viewBox="0.00 0.00 431.37 66.83" xmlns="http://www.w3.org/2000/svg" xmlns:xlink="http://www.w3.org/1999/xlink">
<g id="graph0" class="graph" transform="scale(1 1) rotate(0) translate(4 62.8313)">
<title>expression_statement</title>
<polygon fill="#ffffff" stroke="transparent" points="-4,4 -4,-62.8313 427.3738,-62.8313 427.3738,4 -4,4"/>
<!-- s135 -->
<g id="node1" class="node">
<title>s135</title>
<polygon fill="none" stroke="#000000" points="0,-8.6156 0,-50.2156 56.4418,-50.2156 56.4418,-8.6156 0,-8.6156"/>
<text text-anchor="middle" x="28.2209" y="-33.6156" font-family="Times,serif" font-size="14.00" fill="#000000">s135</text>
<text text-anchor="middle" x="28.2209" y="-16.8156" font-family="Times,serif" font-size="14.00" fill="#000000">→ SEQ</text>
</g>
<!-- s136 -->
<g id="node2" class="node">
<title>s136</title>
<g id="a_node2"><a xlink:href="javascript-grammar.json._expressions.dot.svg" xlink:title="s136 SYMBOL\n_expressions">
<ellipse fill="none" stroke="#000000" cx="166.1748" cy="-29.4156" rx="73.9667" ry="29.3315"/>
<text text-anchor="middle" x="166.1748" y="-33.6156" font-family="Times,serif" font-size="14.00" fill="#000000">s136 SYMBOL</text>
<text text-anchor="middle" x="166.1748" y="-16.8156" font-family="Times,serif" font-size="14.00" fill="#000000">_expressions</text>
</a>
</g>
</g>
<!-- s135&#45;&gt;s136 -->
<g id="edge1" class="edge">
<title>s135&#45;&gt;s136</title>
<path fill="none" stroke="#000000" d="M56.4708,-29.4156C64.228,-29.4156 73.0559,-29.4156 82.2564,-29.4156"/>
<polygon fill="#000000" stroke="#000000" points="82.3531,-32.9157 92.353,-29.4156 82.353,-25.9157 82.3531,-32.9157"/>
</g>
<!-- s137 -->
<g id="node3" class="node">
<title>s137</title>
<g id="a_node3"><a xlink:href="javascript-grammar.json._semicolon.dot.svg" xlink:title="s137 SYMBOL\n_semicolon">
<ellipse fill="none" stroke="#000000" cx="349.6408" cy="-29.4156" rx="73.9667" ry="29.3315"/>
<text text-anchor="middle" x="349.6408" y="-33.6156" font-family="Times,serif" font-size="14.00" fill="#000000">s137 SYMBOL</text>
<text text-anchor="middle" x="349.6408" y="-16.8156" font-family="Times,serif" font-size="14.00" fill="#000000">_semicolon</text>
</a>
</g>
</g>
<!-- s136&#45;&gt;s137 -->
<g id="edge2" class="edge">
<title>s136&#45;&gt;s137</title>
<path fill="none" stroke="#000000" d="M240.0044,-29.4156C248.3575,-29.4156 256.9166,-29.4156 265.39,-29.4156"/>
<polygon fill="#000000" stroke="#000000" points="265.6637,-32.9157 275.6636,-29.4156 265.6636,-25.9157 265.6637,-32.9157"/>
</g>
</g>
</svg>
