<?xml version="1.0" encoding="UTF-8" standalone="no"?>
<!DOCTYPE svg PUBLIC "-//W3C//DTD SVG 1.1//EN"
 "http://www.w3.org/Graphics/SVG/1.1/DTD/svg11.dtd">
<!-- Generated by graphviz version 2.40.1 (20161225.0304)
 -->
<!-- Title: try_statement Pages: 1 -->
<svg width="1221pt" height="151pt"
 viewBox="0.00 0.00 1221.46 150.83" xmlns="http://www.w3.org/2000/svg" xmlns:xlink="http://www.w3.org/1999/xlink">
<g id="graph0" class="graph" transform="scale(1 1) rotate(0) translate(4 146.8313)">
<title>try_statement</title>
<polygon fill="#ffffff" stroke="transparent" points="-4,4 -4,-146.8313 1217.4601,-146.8313 1217.4601,4 -4,4"/>
<!-- s236 -->
<g id="node1" class="node">
<title>s236</title>
<polygon fill="none" stroke="#000000" points="0,-46.6156 0,-88.2156 56.4418,-88.2156 56.4418,-46.6156 0,-46.6156"/>
<text text-anchor="middle" x="28.2209" y="-71.6156" font-family="Times,serif" font-size="14.00" fill="#000000">s236</text>
<text text-anchor="middle" x="28.2209" y="-54.8156" font-family="Times,serif" font-size="14.00" fill="#000000">→ SEQ</text>
</g>
<!-- s237 -->
<g id="node2" class="node">
<title>s237</title>
<ellipse fill="none" stroke="#000000" cx="161.6707" cy="-67.4156" rx="68.4585" ry="29.3315"/>
<text text-anchor="middle" x="161.6707" y="-71.6156" font-family="Times,serif" font-size="14.00" fill="#000000">s237 STRING</text>
<text text-anchor="middle" x="161.6707" y="-54.8156" font-family="Times,serif" font-size="14.00" fill="#000000">&quot;try&quot;</text>
</g>
<!-- s236&#45;&gt;s237 -->
<g id="edge1" class="edge">
<title>s236&#45;&gt;s237</title>
<path fill="none" stroke="#000000" d="M56.5222,-67.4156C64.5856,-67.4156 73.7846,-67.4156 83.3101,-67.4156"/>
<polygon fill="#000000" stroke="#000000" points="83.321,-70.9157 93.321,-67.4156 83.3209,-63.9157 83.321,-70.9157"/>
</g>
<!-- s238 -->
<g id="node3" class="node">
<title>s238</title>
<g id="a_node3"><a xlink:href="javascript-grammar.json.statement_block.dot.svg" xlink:title="s238 SYMBOL\nstatement_block">
<ellipse fill="none" stroke="#000000" cx="343.0945" cy="-67.4156" rx="76.3905" ry="29.3315"/>
<text text-anchor="middle" x="343.0945" y="-71.6156" font-family="Times,serif" font-size="14.00" fill="#000000">s238 SYMBOL</text>
<text text-anchor="middle" x="343.0945" y="-54.8156" font-family="Times,serif" font-size="14.00" fill="#000000">statement_block</text>
</a>
</g>
</g>
<!-- s237&#45;&gt;s238 -->
<g id="edge2" class="edge">
<title>s237&#45;&gt;s238</title>
<path fill="none" stroke="#000000" d="M230.0007,-67.4156C238.6854,-67.4156 247.6619,-67.4156 256.5842,-67.4156"/>
<polygon fill="#000000" stroke="#000000" points="256.6162,-70.9157 266.6161,-67.4156 256.6161,-63.9157 256.6162,-70.9157"/>
</g>
<!-- s239 -->
<g id="node4" class="node">
<title>s239</title>
<polygon fill="none" stroke="#000000" points="456.2895,-42.6156 456.2895,-92.2156 557.8891,-92.2156 557.8891,-42.6156 456.2895,-42.6156"/>
<text text-anchor="middle" x="497.3393" y="-71.6156" font-family="Times,serif" font-size="14.00" fill="#000000">s239</text>
<text text-anchor="middle" x="497.3393" y="-54.8156" font-family="Times,serif" font-size="14.00" fill="#000000">→ CHOICE</text>
<polyline fill="none" stroke="#000000" points="538.3891,-42.6156 538.3891,-92.2156 "/>
<text text-anchor="middle" x="548.1391" y="-75.6156" font-family="Times,serif" font-size="14.00" fill="#000000"> </text>
<polyline fill="none" stroke="#000000" points="538.3891,-67.4156 557.8891,-67.4156 "/>
<text text-anchor="middle" x="548.1391" y="-50.8156" font-family="Times,serif" font-size="14.00" fill="#000000"> </text>
</g>
<!-- s238&#45;&gt;s239 -->
<g id="edge5" class="edge">
<title>s238&#45;&gt;s239</title>
<path fill="none" stroke="#000000" d="M419.3307,-67.4156C428.1317,-67.4156 437.0217,-67.4156 445.5924,-67.4156"/>
<polygon fill="#000000" stroke="#000000" points="445.8609,-70.9157 455.8609,-67.4156 445.8609,-63.9157 445.8609,-70.9157"/>
</g>
<!-- s240 -->
<g id="node5" class="node">
<title>s240</title>
<g id="a_node5"><a xlink:href="javascript-grammar.json.catch_clause.dot.svg" xlink:title="s240 SYMBOL\ncatch_clause">
<ellipse fill="none" stroke="#000000" cx="739.1355" cy="-106.4156" rx="73.9667" ry="29.3315"/>
<text text-anchor="middle" x="739.1355" y="-110.6156" font-family="Times,serif" font-size="14.00" fill="#000000">s240 SYMBOL</text>
<text text-anchor="middle" x="739.1355" y="-93.8156" font-family="Times,serif" font-size="14.00" fill="#000000">catch_clause</text>
</a>
</g>
</g>
<!-- s239&#45;&gt;s240 -->
<g id="edge3" class="edge">
<title>s239:p0&#45;&gt;s240</title>
<path fill="none" stroke="#000000" d="M557.8891,-79.4156C593.2072,-79.4156 631.9782,-84.4932 664.5655,-90.2444"/>
<polygon fill="#000000" stroke="#000000" points="664.0046,-93.6998 674.4696,-92.0461 665.2574,-86.8128 664.0046,-93.6998"/>
<text text-anchor="middle" x="611.6458" y="-90.6156" font-family="Times,serif" font-size="14.00" fill="#000000">catch_clause</text>
</g>
<!-- s241 -->
<g id="node6" class="node">
<title>s241</title>
<ellipse fill="none" stroke="#000000" cx="739.1355" cy="-29.4156" rx="45.3054" ry="29.3315"/>
<text text-anchor="middle" x="739.1355" y="-33.6156" font-family="Times,serif" font-size="14.00" fill="#000000">s241 </text>
<text text-anchor="middle" x="739.1355" y="-16.8156" font-family="Times,serif" font-size="14.00" fill="#000000">BLANK</text>
</g>
<!-- s239&#45;&gt;s241 -->
<g id="edge4" class="edge">
<title>s239:p1&#45;&gt;s241</title>
<path fill="none" stroke="#000000" d="M557.8891,-55.4156C601.2879,-55.4156 649.9451,-48.0212 685.9093,-41.1191"/>
<polygon fill="#000000" stroke="#000000" points="687.0367,-44.4643 696.1714,-39.0971 685.6834,-37.5964 687.0367,-44.4643"/>
</g>
<!-- s242 -->
<g id="node7" class="node">
<title>s242</title>
<polygon fill="none" stroke="#000000" points="849.8685,-49.6156 849.8685,-99.2156 951.4681,-99.2156 951.4681,-49.6156 849.8685,-49.6156"/>
<text text-anchor="middle" x="890.9183" y="-78.6156" font-family="Times,serif" font-size="14.00" fill="#000000">s242</text>
<text text-anchor="middle" x="890.9183" y="-61.8156" font-family="Times,serif" font-size="14.00" fill="#000000">→ CHOICE</text>
<polyline fill="none" stroke="#000000" points="931.9681,-49.6156 931.9681,-99.2156 "/>
<text text-anchor="middle" x="941.7181" y="-82.6156" font-family="Times,serif" font-size="14.00" fill="#000000"> </text>
<polyline fill="none" stroke="#000000" points="931.9681,-74.4156 951.4681,-74.4156 "/>
<text text-anchor="middle" x="941.7181" y="-57.8156" font-family="Times,serif" font-size="14.00" fill="#000000"> </text>
</g>
<!-- s240&#45;&gt;s242 -->
<g id="edge8" class="edge">
<title>s240&#45;&gt;s242</title>
<path fill="none" stroke="#000000" d="M805.3032,-93.3077C816.6434,-91.0612 828.3809,-88.736 839.5807,-86.5172"/>
<polygon fill="#000000" stroke="#000000" points="840.5591,-89.8915 849.6883,-84.5149 839.1987,-83.025 840.5591,-89.8915"/>
</g>
<!-- s241&#45;&gt;s242 -->
<g id="edge9" class="edge">
<title>s241&#45;&gt;s242</title>
<path fill="none" stroke="#000000" d="M781.1547,-41.1214C799.0677,-46.1116 820.3132,-52.0302 839.8875,-57.4832"/>
<polygon fill="#000000" stroke="#000000" points="839.069,-60.8884 849.6415,-60.2005 840.9476,-54.1452 839.069,-60.8884"/>
</g>
<!-- s243 -->
<g id="node8" class="node">
<title>s243</title>
<g id="a_node8"><a xlink:href="javascript-grammar.json.finally_clause.dot.svg" xlink:title="s243 SYMBOL\nfinally_clause">
<ellipse fill="none" stroke="#000000" cx="1139.7271" cy="-113.4156" rx="73.9667" ry="29.3315"/>
<text text-anchor="middle" x="1139.7271" y="-117.6156" font-family="Times,serif" font-size="14.00" fill="#000000">s243 SYMBOL</text>
<text text-anchor="middle" x="1139.7271" y="-100.8156" font-family="Times,serif" font-size="14.00" fill="#000000">finally_clause</text>
</a>
</g>
</g>
<!-- s242&#45;&gt;s243 -->
<g id="edge6" class="edge">
<title>s242:p0&#45;&gt;s243</title>
<path fill="none" stroke="#000000" d="M951.4681,-86.4156C989.0329,-86.4156 1030.3907,-91.7482 1064.7512,-97.6736"/>
<polygon fill="#000000" stroke="#000000" points="1064.2539,-101.14 1074.7116,-99.4411 1065.477,-94.2477 1064.2539,-101.14"/>
<text text-anchor="middle" x="1008.7311" y="-97.6156" font-family="Times,serif" font-size="14.00" fill="#000000">finally_clause</text>
</g>
<!-- s244 -->
<g id="node9" class="node">
<title>s244</title>
<ellipse fill="none" stroke="#000000" cx="1139.7271" cy="-36.4156" rx="45.3054" ry="29.3315"/>
<text text-anchor="middle" x="1139.7271" y="-40.6156" font-family="Times,serif" font-size="14.00" fill="#000000">s244 </text>
<text text-anchor="middle" x="1139.7271" y="-23.8156" font-family="Times,serif" font-size="14.00" fill="#000000">BLANK</text>
</g>
<!-- s242&#45;&gt;s244 -->
<g id="edge7" class="edge">
<title>s242:p1&#45;&gt;s244</title>
<path fill="none" stroke="#000000" d="M951.4681,-62.4156C997.3093,-62.4156 1048.8439,-54.7573 1086.3895,-47.7534"/>
<polygon fill="#000000" stroke="#000000" points="1087.4274,-51.1184 1096.5919,-45.8022 1086.1125,-44.2431 1087.4274,-51.1184"/>
</g>
</g>
</svg>
