<?xml version="1.0" encoding="UTF-8" standalone="no"?>
<!DOCTYPE svg PUBLIC "-//W3C//DTD SVG 1.1//EN"
 "http://www.w3.org/Graphics/SVG/1.1/DTD/svg11.dtd">
<!-- Generated by graphviz version 2.40.1 (20161225.0304)
 -->
<!-- Title: for_of_statement Pages: 1 -->
<svg width="2512pt" height="269pt"
 viewBox="0.00 0.00 2512.24 268.83" xmlns="http://www.w3.org/2000/svg" xmlns:xlink="http://www.w3.org/1999/xlink">
<g id="graph0" class="graph" transform="scale(1 1) rotate(0) translate(4 264.8313)">
<title>for_of_statement</title>
<polygon fill="#ffffff" stroke="transparent" points="-4,4 -4,-264.8313 2508.2404,-264.8313 2508.2404,4 -4,4"/>
<!-- s207 -->
<g id="node1" class="node">
<title>s207</title>
<polygon fill="none" stroke="#000000" points="0,-46.6156 0,-88.2156 56.4418,-88.2156 56.4418,-46.6156 0,-46.6156"/>
<text text-anchor="middle" x="28.2209" y="-71.6156" font-family="Times,serif" font-size="14.00" fill="#000000">s207</text>
<text text-anchor="middle" x="28.2209" y="-54.8156" font-family="Times,serif" font-size="14.00" fill="#000000">→ SEQ</text>
</g>
<!-- s208 -->
<g id="node2" class="node">
<title>s208</title>
<ellipse fill="none" stroke="#000000" cx="161.6707" cy="-67.4156" rx="68.4585" ry="29.3315"/>
<text text-anchor="middle" x="161.6707" y="-71.6156" font-family="Times,serif" font-size="14.00" fill="#000000">s208 STRING</text>
<text text-anchor="middle" x="161.6707" y="-54.8156" font-family="Times,serif" font-size="14.00" fill="#000000">&quot;for&quot;</text>
</g>
<!-- s207&#45;&gt;s208 -->
<g id="edge1" class="edge">
<title>s207&#45;&gt;s208</title>
<path fill="none" stroke="#000000" d="M56.5222,-67.4156C64.5856,-67.4156 73.7846,-67.4156 83.3101,-67.4156"/>
<polygon fill="#000000" stroke="#000000" points="83.321,-70.9157 93.321,-67.4156 83.3209,-63.9157 83.321,-70.9157"/>
</g>
<!-- s209 -->
<g id="node3" class="node">
<title>s209</title>
<polygon fill="none" stroke="#000000" points="266.8995,-42.6156 266.8995,-92.2156 368.4991,-92.2156 368.4991,-42.6156 266.8995,-42.6156"/>
<text text-anchor="middle" x="307.9493" y="-71.6156" font-family="Times,serif" font-size="14.00" fill="#000000">s209</text>
<text text-anchor="middle" x="307.9493" y="-54.8156" font-family="Times,serif" font-size="14.00" fill="#000000">→ CHOICE</text>
<polyline fill="none" stroke="#000000" points="348.9991,-42.6156 348.9991,-92.2156 "/>
<text text-anchor="middle" x="358.7491" y="-75.6156" font-family="Times,serif" font-size="14.00" fill="#000000"> </text>
<polyline fill="none" stroke="#000000" points="348.9991,-67.4156 368.4991,-67.4156 "/>
<text text-anchor="middle" x="358.7491" y="-50.8156" font-family="Times,serif" font-size="14.00" fill="#000000"> </text>
</g>
<!-- s208&#45;&gt;s209 -->
<g id="edge4" class="edge">
<title>s208&#45;&gt;s209</title>
<path fill="none" stroke="#000000" d="M230.1071,-67.4156C238.9349,-67.4156 247.9288,-67.4156 256.6274,-67.4156"/>
<polygon fill="#000000" stroke="#000000" points="256.6756,-70.9157 266.6755,-67.4156 256.6755,-63.9157 256.6756,-70.9157"/>
</g>
<!-- s210 -->
<g id="node4" class="node">
<title>s210</title>
<ellipse fill="none" stroke="#000000" cx="503.045" cy="-106.4156" rx="68.4585" ry="29.3315"/>
<text text-anchor="middle" x="503.045" y="-110.6156" font-family="Times,serif" font-size="14.00" fill="#000000">s210 STRING</text>
<text text-anchor="middle" x="503.045" y="-93.8156" font-family="Times,serif" font-size="14.00" fill="#000000">&quot;await&quot;</text>
</g>
<!-- s209&#45;&gt;s210 -->
<g id="edge2" class="edge">
<title>s209:p0&#45;&gt;s210</title>
<path fill="none" stroke="#000000" d="M368.4991,-79.4156C390.8145,-79.4156 414.8119,-83.0301 436.2732,-87.6142"/>
<polygon fill="#000000" stroke="#000000" points="435.7385,-91.0811 446.2621,-89.8545 437.2705,-84.2508 435.7385,-91.0811"/>
<text text-anchor="middle" x="401.6576" y="-86.6156" font-family="Times,serif" font-size="14.00" fill="#000000">await</text>
</g>
<!-- s211 -->
<g id="node5" class="node">
<title>s211</title>
<ellipse fill="none" stroke="#000000" cx="503.045" cy="-29.4156" rx="45.3054" ry="29.3315"/>
<text text-anchor="middle" x="503.045" y="-33.6156" font-family="Times,serif" font-size="14.00" fill="#000000">s211 </text>
<text text-anchor="middle" x="503.045" y="-16.8156" font-family="Times,serif" font-size="14.00" fill="#000000">BLANK</text>
</g>
<!-- s209&#45;&gt;s211 -->
<g id="edge3" class="edge">
<title>s209:p1&#45;&gt;s211</title>
<path fill="none" stroke="#000000" d="M368.4991,-55.4156C396.3093,-55.4156 426.7751,-49.9946 451.6729,-44.1032"/>
<polygon fill="#000000" stroke="#000000" points="452.7513,-47.4424 461.6254,-41.6543 451.0787,-40.6451 452.7513,-47.4424"/>
</g>
<!-- s212 -->
<g id="node6" class="node">
<title>s212</title>
<ellipse fill="none" stroke="#000000" cx="676.5028" cy="-67.4156" rx="68.4585" ry="29.3315"/>
<text text-anchor="middle" x="676.5028" y="-71.6156" font-family="Times,serif" font-size="14.00" fill="#000000">s212 STRING</text>
<text text-anchor="middle" x="676.5028" y="-54.8156" font-family="Times,serif" font-size="14.00" fill="#000000">&quot;(&quot;</text>
</g>
<!-- s210&#45;&gt;s212 -->
<g id="edge5" class="edge">
<title>s210&#45;&gt;s212</title>
<path fill="none" stroke="#000000" d="M563.7121,-92.7753C577.3124,-89.7175 591.8553,-86.4477 605.8228,-83.3072"/>
<polygon fill="#000000" stroke="#000000" points="606.8813,-86.6567 615.8699,-81.0482 605.3457,-79.8272 606.8813,-86.6567"/>
</g>
<!-- s211&#45;&gt;s212 -->
<g id="edge6" class="edge">
<title>s211&#45;&gt;s212</title>
<path fill="none" stroke="#000000" d="M546.3683,-38.9066C564.2235,-42.8182 585.3858,-47.4543 605.4,-51.8389"/>
<polygon fill="#000000" stroke="#000000" points="604.9069,-55.3138 615.4243,-54.035 606.405,-48.476 604.9069,-55.3138"/>
</g>
<!-- s213 -->
<g id="node7" class="node">
<title>s213</title>
<polygon fill="none" stroke="#000000" points="781.7316,-42.6156 781.7316,-92.2156 883.3312,-92.2156 883.3312,-42.6156 781.7316,-42.6156"/>
<text text-anchor="middle" x="822.7814" y="-71.6156" font-family="Times,serif" font-size="14.00" fill="#000000">s213</text>
<text text-anchor="middle" x="822.7814" y="-54.8156" font-family="Times,serif" font-size="14.00" fill="#000000">→ CHOICE</text>
<polyline fill="none" stroke="#000000" points="863.8312,-42.6156 863.8312,-92.2156 "/>
<text text-anchor="middle" x="873.5812" y="-75.6156" font-family="Times,serif" font-size="14.00" fill="#000000"> </text>
<polyline fill="none" stroke="#000000" points="863.8312,-67.4156 883.3312,-67.4156 "/>
<text text-anchor="middle" x="873.5812" y="-50.8156" font-family="Times,serif" font-size="14.00" fill="#000000"> </text>
</g>
<!-- s212&#45;&gt;s213 -->
<g id="edge12" class="edge">
<title>s212&#45;&gt;s213</title>
<path fill="none" stroke="#000000" d="M744.9392,-67.4156C753.767,-67.4156 762.7609,-67.4156 771.4595,-67.4156"/>
<polygon fill="#000000" stroke="#000000" points="771.5077,-70.9157 781.5076,-67.4156 771.5076,-63.9157 771.5077,-70.9157"/>
</g>
<!-- s214 -->
<g id="node8" class="node">
<title>s214</title>
<polygon fill="none" stroke="#000000" points="920.3312,-90.2156 920.3312,-164.6156 1021.9308,-164.6156 1021.9308,-90.2156 920.3312,-90.2156"/>
<text text-anchor="middle" x="961.381" y="-131.6156" font-family="Times,serif" font-size="14.00" fill="#000000">s214</text>
<text text-anchor="middle" x="961.381" y="-114.8156" font-family="Times,serif" font-size="14.00" fill="#000000">→ CHOICE</text>
<polyline fill="none" stroke="#000000" points="1002.4308,-90.2156 1002.4308,-164.6156 "/>
<text text-anchor="middle" x="1012.1808" y="-148.0156" font-family="Times,serif" font-size="14.00" fill="#000000"> </text>
<polyline fill="none" stroke="#000000" points="1002.4308,-139.8156 1021.9308,-139.8156 "/>
<text text-anchor="middle" x="1012.1808" y="-123.2156" font-family="Times,serif" font-size="14.00" fill="#000000"> </text>
<polyline fill="none" stroke="#000000" points="1002.4308,-115.0156 1021.9308,-115.0156 "/>
<text text-anchor="middle" x="1012.1808" y="-98.4156" font-family="Times,serif" font-size="14.00" fill="#000000"> </text>
</g>
<!-- s213&#45;&gt;s214 -->
<g id="edge10" class="edge">
<title>s213:p0&#45;&gt;s214</title>
<path fill="none" stroke="#000000" d="M883.3312,-79.4156C893.494,-79.4156 903.5969,-81.9222 913.1366,-85.7897"/>
<polygon fill="#000000" stroke="#000000" points="911.9211,-89.0826 922.47,-90.0684 914.8382,-82.7194 911.9211,-89.0826"/>
</g>
<!-- s218 -->
<g id="node12" class="node">
<title>s218</title>
<ellipse fill="none" stroke="#000000" cx="1085.3335" cy="-32.4156" rx="45.3054" ry="29.3315"/>
<text text-anchor="middle" x="1085.3335" y="-36.6156" font-family="Times,serif" font-size="14.00" fill="#000000">s218 </text>
<text text-anchor="middle" x="1085.3335" y="-19.8156" font-family="Times,serif" font-size="14.00" fill="#000000">BLANK</text>
</g>
<!-- s213&#45;&gt;s218 -->
<g id="edge11" class="edge">
<title>s213:p1&#45;&gt;s218</title>
<path fill="none" stroke="#000000" d="M883.3312,-55.4156C933.7665,-55.4156 990.833,-48.25 1031.4149,-41.918"/>
<polygon fill="#000000" stroke="#000000" points="1032.0394,-45.3627 1041.3631,-40.3309 1030.9366,-38.4501 1032.0394,-45.3627"/>
</g>
<!-- s215 -->
<g id="node9" class="node">
<title>s215</title>
<ellipse fill="none" stroke="#000000" cx="1216.965" cy="-231.4156" rx="68.4585" ry="29.3315"/>
<text text-anchor="middle" x="1216.965" y="-235.6156" font-family="Times,serif" font-size="14.00" fill="#000000">s215 STRING</text>
<text text-anchor="middle" x="1216.965" y="-218.8156" font-family="Times,serif" font-size="14.00" fill="#000000">&quot;var&quot;</text>
</g>
<!-- s214&#45;&gt;s215 -->
<g id="edge7" class="edge">
<title>s214:p0&#45;&gt;s215</title>
<path fill="none" stroke="#000000" d="M1012.131,-164.4156C1012.131,-220.0072 1081.1292,-233.6384 1139.0342,-235.2898"/>
<polygon fill="#000000" stroke="#000000" points="1139.2691,-238.7942 1149.327,-235.4642 1139.3878,-231.7952 1139.2691,-238.7942"/>
<text text-anchor="middle" x="1085.3335" y="-238.6156" font-family="Times,serif" font-size="14.00" fill="#000000">var</text>
</g>
<!-- s216 -->
<g id="node10" class="node">
<title>s216</title>
<ellipse fill="none" stroke="#000000" cx="1216.965" cy="-154.4156" rx="68.4585" ry="29.3315"/>
<text text-anchor="middle" x="1216.965" y="-158.6156" font-family="Times,serif" font-size="14.00" fill="#000000">s216 STRING</text>
<text text-anchor="middle" x="1216.965" y="-141.8156" font-family="Times,serif" font-size="14.00" fill="#000000">&quot;let&quot;</text>
</g>
<!-- s214&#45;&gt;s216 -->
<g id="edge8" class="edge">
<title>s214:p1&#45;&gt;s216</title>
<path fill="none" stroke="#000000" d="M1021.9308,-127.4156C1063.0186,-127.4156 1108.5192,-133.368 1145.2307,-139.6831"/>
<polygon fill="#000000" stroke="#000000" points="1144.8847,-143.1761 1155.3412,-141.4692 1146.1026,-136.2828 1144.8847,-143.1761"/>
<text text-anchor="middle" x="1085.3335" y="-140.6156" font-family="Times,serif" font-size="14.00" fill="#000000">let</text>
</g>
<!-- s217 -->
<g id="node11" class="node">
<title>s217</title>
<ellipse fill="none" stroke="#000000" cx="1216.965" cy="-77.4156" rx="68.4585" ry="29.3315"/>
<text text-anchor="middle" x="1216.965" y="-81.6156" font-family="Times,serif" font-size="14.00" fill="#000000">s217 STRING</text>
<text text-anchor="middle" x="1216.965" y="-64.8156" font-family="Times,serif" font-size="14.00" fill="#000000">&quot;const&quot;</text>
</g>
<!-- s214&#45;&gt;s217 -->
<g id="edge9" class="edge">
<title>s214:p2&#45;&gt;s217</title>
<path fill="none" stroke="#000000" d="M1021.9308,-102.4156C1062.6514,-102.4156 1107.769,-96.9877 1144.3448,-91.1903"/>
<polygon fill="#000000" stroke="#000000" points="1145.1161,-94.6109 1154.4238,-89.5495 1143.9913,-87.7018 1145.1161,-94.6109"/>
<text text-anchor="middle" x="1085.3335" y="-105.6156" font-family="Times,serif" font-size="14.00" fill="#000000">const</text>
</g>
<!-- s219 -->
<g id="node13" class="node">
<title>s219</title>
<polygon fill="none" stroke="#000000" points="1322.1938,-90.6156 1322.1938,-140.2156 1423.7934,-140.2156 1423.7934,-90.6156 1322.1938,-90.6156"/>
<text text-anchor="middle" x="1363.2436" y="-119.6156" font-family="Times,serif" font-size="14.00" fill="#000000">s219</text>
<text text-anchor="middle" x="1363.2436" y="-102.8156" font-family="Times,serif" font-size="14.00" fill="#000000">→ CHOICE</text>
<polyline fill="none" stroke="#000000" points="1404.2934,-90.6156 1404.2934,-140.2156 "/>
<text text-anchor="middle" x="1414.0434" y="-123.6156" font-family="Times,serif" font-size="14.00" fill="#000000"> </text>
<polyline fill="none" stroke="#000000" points="1404.2934,-115.4156 1423.7934,-115.4156 "/>
<text text-anchor="middle" x="1414.0434" y="-98.8156" font-family="Times,serif" font-size="14.00" fill="#000000"> </text>
</g>
<!-- s215&#45;&gt;s219 -->
<g id="edge15" class="edge">
<title>s215&#45;&gt;s219</title>
<path fill="none" stroke="#000000" d="M1260.0051,-208.5648C1268.5475,-203.5462 1277.3075,-198.0412 1285.1938,-192.4156 1304.2009,-178.8573 1323.8741,-161.9161 1339.768,-147.3791"/>
<polygon fill="#000000" stroke="#000000" points="1342.2827,-149.8207 1347.2475,-140.4611 1337.5296,-144.6818 1342.2827,-149.8207"/>
</g>
<!-- s216&#45;&gt;s219 -->
<g id="edge16" class="edge">
<title>s216&#45;&gt;s219</title>
<path fill="none" stroke="#000000" d="M1276.3978,-139.5602C1288.1721,-136.6171 1300.5459,-133.5242 1312.3596,-130.5714"/>
<polygon fill="#000000" stroke="#000000" points="1313.273,-133.9508 1322.1258,-128.1303 1311.5755,-127.1597 1313.273,-133.9508"/>
</g>
<!-- s217&#45;&gt;s219 -->
<g id="edge17" class="edge">
<title>s217&#45;&gt;s219</title>
<path fill="none" stroke="#000000" d="M1276.3978,-91.8902C1288.1721,-94.7578 1300.5459,-97.7714 1312.3596,-100.6485"/>
<polygon fill="#000000" stroke="#000000" points="1311.5816,-104.0613 1322.1258,-103.027 1313.238,-97.2601 1311.5816,-104.0613"/>
</g>
<!-- s218&#45;&gt;s219 -->
<g id="edge18" class="edge">
<title>s218&#45;&gt;s219</title>
<path fill="none" stroke="#000000" d="M1129.9198,-25.7217C1171.5929,-21.3474 1234.7807,-19.6155 1285.1938,-39.4156 1308.6266,-48.619 1330.09,-66.9273 1345.9296,-83.268"/>
<polygon fill="#000000" stroke="#000000" points="1343.4065,-85.6942 1352.7984,-90.5977 1348.5143,-80.9076 1343.4065,-85.6942"/>
</g>
<!-- s220 -->
<g id="node14" class="node">
<title>s220</title>
<g id="a_node14"><a xlink:href="javascript-grammar.json.identifier.dot.svg" xlink:title="s220 SYMBOL\nidentifier">
<ellipse fill="none" stroke="#000000" cx="1687.4621" cy="-154.4156" rx="73.9667" ry="29.3315"/>
<text text-anchor="middle" x="1687.4621" y="-158.6156" font-family="Times,serif" font-size="14.00" fill="#000000">s220 SYMBOL</text>
<text text-anchor="middle" x="1687.4621" y="-141.8156" font-family="Times,serif" font-size="14.00" fill="#000000">identifier</text>
</a>
</g>
</g>
<!-- s219&#45;&gt;s220 -->
<g id="edge13" class="edge">
<title>s219:p0&#45;&gt;s220</title>
<path fill="none" stroke="#000000" d="M1423.7934,-127.4156C1486.1296,-127.4156 1556.3264,-134.9763 1608.6088,-142.0959"/>
<polygon fill="#000000" stroke="#000000" points="1608.4328,-145.6049 1618.8188,-143.5115 1609.3942,-138.6712 1608.4328,-145.6049"/>
<text text-anchor="middle" x="1505.1623" y="-140.6156" font-family="Times,serif" font-size="14.00" fill="#000000">identifier</text>
</g>
<!-- s221 -->
<g id="node15" class="node">
<title>s221</title>
<g id="a_node15"><a xlink:href="javascript-grammar.json._destructuring_pattern.dot.svg" xlink:title="s221 SYMBOL\n_destructuring_pattern">
<ellipse fill="none" stroke="#000000" cx="1687.4621" cy="-77.4156" rx="100.8618" ry="29.3315"/>
<text text-anchor="middle" x="1687.4621" y="-81.6156" font-family="Times,serif" font-size="14.00" fill="#000000">s221 SYMBOL</text>
<text text-anchor="middle" x="1687.4621" y="-64.8156" font-family="Times,serif" font-size="14.00" fill="#000000">_destructuring_pattern</text>
</a>
</g>
</g>
<!-- s219&#45;&gt;s221 -->
<g id="edge14" class="edge">
<title>s219:p1&#45;&gt;s221</title>
<path fill="none" stroke="#000000" d="M1423.7934,-103.4156C1478.0152,-103.4156 1538.2076,-97.9029 1587.3755,-91.9543"/>
<polygon fill="#000000" stroke="#000000" points="1587.8791,-95.4188 1597.3751,-90.7203 1587.0217,-88.4715 1587.8791,-95.4188"/>
<text text-anchor="middle" x="1505.1623" y="-106.6156" font-family="Times,serif" font-size="14.00" fill="#000000">_destructuring_pattern</text>
</g>
<!-- s222 -->
<g id="node16" class="node">
<title>s222</title>
<ellipse fill="none" stroke="#000000" cx="1893.6218" cy="-115.4156" rx="68.4585" ry="29.3315"/>
<text text-anchor="middle" x="1893.6218" y="-119.6156" font-family="Times,serif" font-size="14.00" fill="#000000">s222 STRING</text>
<text text-anchor="middle" x="1893.6218" y="-102.8156" font-family="Times,serif" font-size="14.00" fill="#000000">&quot;of&quot;</text>
</g>
<!-- s220&#45;&gt;s222 -->
<g id="edge19" class="edge">
<title>s220&#45;&gt;s222</title>
<path fill="none" stroke="#000000" d="M1754.1116,-141.8073C1775.5352,-137.7545 1799.3683,-133.2459 1821.1865,-129.1185"/>
<polygon fill="#000000" stroke="#000000" points="1821.8782,-132.5498 1831.0534,-127.252 1820.577,-125.6718 1821.8782,-132.5498"/>
</g>
<!-- s221&#45;&gt;s222 -->
<g id="edge20" class="edge">
<title>s221&#45;&gt;s222</title>
<path fill="none" stroke="#000000" d="M1772.8033,-93.146C1788.7053,-96.0771 1805.188,-99.1152 1820.6757,-101.97"/>
<polygon fill="#000000" stroke="#000000" points="1820.2247,-105.4457 1830.6935,-103.8165 1821.4936,-98.5617 1820.2247,-105.4457"/>
</g>
<!-- s223 -->
<g id="node17" class="node">
<title>s223</title>
<g id="a_node17"><a xlink:href="javascript-grammar.json._expression.dot.svg" xlink:title="s223 SYMBOL\n_expression">
<ellipse fill="none" stroke="#000000" cx="2072.5837" cy="-115.4156" rx="73.9667" ry="29.3315"/>
<text text-anchor="middle" x="2072.5837" y="-119.6156" font-family="Times,serif" font-size="14.00" fill="#000000">s223 SYMBOL</text>
<text text-anchor="middle" x="2072.5837" y="-102.8156" font-family="Times,serif" font-size="14.00" fill="#000000">_expression</text>
</a>
</g>
</g>
<!-- s222&#45;&gt;s223 -->
<g id="edge21" class="edge">
<title>s222&#45;&gt;s223</title>
<path fill="none" stroke="#000000" d="M1962.0457,-115.4156C1970.7923,-115.4156 1979.8235,-115.4156 1988.7786,-115.4156"/>
<polygon fill="#000000" stroke="#000000" points="1988.8376,-118.9157 1998.8376,-115.4156 1988.8376,-111.9157 1988.8376,-118.9157"/>
</g>
<!-- s224 -->
<g id="node18" class="node">
<title>s224</title>
<ellipse fill="none" stroke="#000000" cx="2251.5456" cy="-115.4156" rx="68.4585" ry="29.3315"/>
<text text-anchor="middle" x="2251.5456" y="-119.6156" font-family="Times,serif" font-size="14.00" fill="#000000">s224 STRING</text>
<text text-anchor="middle" x="2251.5456" y="-102.8156" font-family="Times,serif" font-size="14.00" fill="#000000">&quot;)&quot;</text>
</g>
<!-- s223&#45;&gt;s224 -->
<g id="edge22" class="edge">
<title>s223&#45;&gt;s224</title>
<path fill="none" stroke="#000000" d="M2146.4076,-115.4156C2155.1272,-115.4156 2164.0516,-115.4156 2172.8355,-115.4156"/>
<polygon fill="#000000" stroke="#000000" points="2173.0619,-118.9157 2183.0618,-115.4156 2173.0618,-111.9157 2173.0619,-118.9157"/>
</g>
<!-- s225 -->
<g id="node19" class="node">
<title>s225</title>
<g id="a_node19"><a xlink:href="javascript-grammar.json._statement.dot.svg" xlink:title="s225 SYMBOL\n_statement">
<ellipse fill="none" stroke="#000000" cx="2430.5074" cy="-115.4156" rx="73.9667" ry="29.3315"/>
<text text-anchor="middle" x="2430.5074" y="-119.6156" font-family="Times,serif" font-size="14.00" fill="#000000">s225 SYMBOL</text>
<text text-anchor="middle" x="2430.5074" y="-102.8156" font-family="Times,serif" font-size="14.00" fill="#000000">_statement</text>
</a>
</g>
</g>
<!-- s224&#45;&gt;s225 -->
<g id="edge23" class="edge">
<title>s224&#45;&gt;s225</title>
<path fill="none" stroke="#000000" d="M2319.9694,-115.4156C2328.716,-115.4156 2337.7472,-115.4156 2346.7023,-115.4156"/>
<polygon fill="#000000" stroke="#000000" points="2346.7614,-118.9157 2356.7613,-115.4156 2346.7613,-111.9157 2346.7614,-118.9157"/>
</g>
</g>
</svg>
