<?xml version="1.0" encoding="UTF-8" standalone="no"?>
<!DOCTYPE svg PUBLIC "-//W3C//DTD SVG 1.1//EN"
 "http://www.w3.org/Graphics/SVG/1.1/DTD/svg11.dtd">
<!-- Generated by graphviz version 2.40.1 (20161225.0304)
 -->
<!-- Title: _semicolon Pages: 1 -->
<svg width="474pt" height="144pt"
 viewBox="0.00 0.00 474.23 143.83" xmlns="http://www.w3.org/2000/svg" xmlns:xlink="http://www.w3.org/1999/xlink">
<g id="graph0" class="graph" transform="scale(1 1) rotate(0) translate(4 139.8313)">
<title>_semicolon</title>
<polygon fill="#ffffff" stroke="transparent" points="-4,4 -4,-139.8313 470.2329,-139.8313 470.2329,4 -4,4"/>
<!-- s913 -->
<g id="node1" class="node">
<title>s913</title>
<polygon fill="none" stroke="#000000" points="0,-42.6156 0,-92.2156 101.5996,-92.2156 101.5996,-42.6156 0,-42.6156"/>
<text text-anchor="middle" x="41.0498" y="-71.6156" font-family="Times,serif" font-size="14.00" fill="#000000">s913</text>
<text text-anchor="middle" x="41.0498" y="-54.8156" font-family="Times,serif" font-size="14.00" fill="#000000">→ CHOICE</text>
<polyline fill="none" stroke="#000000" points="82.0996,-42.6156 82.0996,-92.2156 "/>
<text text-anchor="middle" x="91.8496" y="-75.6156" font-family="Times,serif" font-size="14.00" fill="#000000"> </text>
<polyline fill="none" stroke="#000000" points="82.0996,-67.4156 101.5996,-67.4156 "/>
<text text-anchor="middle" x="91.8496" y="-50.8156" font-family="Times,serif" font-size="14.00" fill="#000000"> </text>
</g>
<!-- s914 -->
<g id="node2" class="node">
<title>s914</title>
<g id="a_node2"><a xlink:href="javascript-grammar.json._automatic_semicolon.dot.svg" xlink:title="s914 SYMBOL\n_automatic_semicolon">
<ellipse fill="none" stroke="#000000" cx="365.2922" cy="-106.4156" rx="100.8816" ry="29.3315"/>
<text text-anchor="middle" x="365.2922" y="-110.6156" font-family="Times,serif" font-size="14.00" fill="#000000">s914 SYMBOL</text>
<text text-anchor="middle" x="365.2922" y="-93.8156" font-family="Times,serif" font-size="14.00" fill="#000000">_automatic_semicolon</text>
</a>
</g>
</g>
<!-- s913&#45;&gt;s914 -->
<g id="edge1" class="edge">
<title>s913:p0&#45;&gt;s914</title>
<path fill="none" stroke="#000000" d="M101.5996,-79.4156C156.0619,-79.4156 216.524,-85.1859 265.7992,-91.3914"/>
<polygon fill="#000000" stroke="#000000" points="265.454,-94.8757 275.8185,-92.6783 266.3459,-87.9327 265.454,-94.8757"/>
<text text-anchor="middle" x="182.9755" y="-92.6156" font-family="Times,serif" font-size="14.00" fill="#000000">_automatic_semicolon</text>
</g>
<!-- s915 -->
<g id="node3" class="node">
<title>s915</title>
<ellipse fill="none" stroke="#000000" cx="365.2922" cy="-29.4156" rx="68.4585" ry="29.3315"/>
<text text-anchor="middle" x="365.2922" y="-33.6156" font-family="Times,serif" font-size="14.00" fill="#000000">s915 STRING</text>
<text text-anchor="middle" x="365.2922" y="-16.8156" font-family="Times,serif" font-size="14.00" fill="#000000">&quot;;&quot;</text>
</g>
<!-- s913&#45;&gt;s915 -->
<g id="edge2" class="edge">
<title>s913:p1&#45;&gt;s915</title>
<path fill="none" stroke="#000000" d="M101.5996,-55.4156C165.7764,-55.4156 238.3168,-47.6942 291.0462,-40.6671"/>
<polygon fill="#000000" stroke="#000000" points="291.5477,-44.1312 300.9868,-39.3193 290.6072,-37.1946 291.5477,-44.1312"/>
<text text-anchor="middle" x="182.9755" y="-59.6156" font-family="Times,serif" font-size="14.00" fill="#000000">;</text>
</g>
</g>
</svg>
