<?xml version="1.0" encoding="UTF-8" standalone="no"?>
<!DOCTYPE svg PUBLIC "-//W3C//DTD SVG 1.1//EN"
 "http://www.w3.org/Graphics/SVG/1.1/DTD/svg11.dtd">
<!-- Generated by graphviz version 2.40.1 (20161225.0304)
 -->
<!-- Title: _import_export_specifier Pages: 1 -->
<svg width="839pt" height="136pt"
 viewBox="0.00 0.00 838.54 135.83" xmlns="http://www.w3.org/2000/svg" xmlns:xlink="http://www.w3.org/1999/xlink">
<g id="graph0" class="graph" transform="scale(1 1) rotate(0) translate(4 131.8313)">
<title>_import_export_specifier</title>
<polygon fill="#ffffff" stroke="transparent" points="-4,4 -4,-131.8313 834.5379,-131.8313 834.5379,4 -4,4"/>
<!-- s51 -->
<g id="node1" class="node">
<title>s51</title>
<polygon fill="none" stroke="#000000" points="0,-42.6156 0,-84.2156 56.4418,-84.2156 56.4418,-42.6156 0,-42.6156"/>
<text text-anchor="middle" x="28.2209" y="-67.6156" font-family="Times,serif" font-size="14.00" fill="#000000">s51</text>
<text text-anchor="middle" x="28.2209" y="-50.8156" font-family="Times,serif" font-size="14.00" fill="#000000">→ SEQ</text>
</g>
<!-- s52 -->
<g id="node2" class="node">
<title>s52</title>
<g id="a_node2"><a xlink:href="javascript-grammar.json.identifier.dot.svg" xlink:title="s52 SYMBOL\nidentifier">
<ellipse fill="none" stroke="#000000" cx="161.225" cy="-63.4156" rx="68.5672" ry="29.3315"/>
<text text-anchor="middle" x="161.225" y="-67.6156" font-family="Times,serif" font-size="14.00" fill="#000000">s52 SYMBOL</text>
<text text-anchor="middle" x="161.225" y="-50.8156" font-family="Times,serif" font-size="14.00" fill="#000000">identifier</text>
</a>
</g>
</g>
<!-- s51&#45;&gt;s52 -->
<g id="edge1" class="edge">
<title>s51&#45;&gt;s52</title>
<path fill="none" stroke="#000000" d="M56.7536,-63.4156C64.4069,-63.4156 73.0692,-63.4156 82.0517,-63.4156"/>
<polygon fill="#000000" stroke="#000000" points="82.2927,-66.9157 92.2926,-63.4156 82.2926,-59.9157 82.2927,-66.9157"/>
</g>
<!-- s53 -->
<g id="node3" class="node">
<title>s53</title>
<polygon fill="none" stroke="#000000" points="266.0083,-38.6156 266.0083,-88.2156 367.6079,-88.2156 367.6079,-38.6156 266.0083,-38.6156"/>
<text text-anchor="middle" x="307.0581" y="-67.6156" font-family="Times,serif" font-size="14.00" fill="#000000">s53</text>
<text text-anchor="middle" x="307.0581" y="-50.8156" font-family="Times,serif" font-size="14.00" fill="#000000">→ CHOICE</text>
<polyline fill="none" stroke="#000000" points="348.1079,-38.6156 348.1079,-88.2156 "/>
<text text-anchor="middle" x="357.8579" y="-71.6156" font-family="Times,serif" font-size="14.00" fill="#000000"> </text>
<polyline fill="none" stroke="#000000" points="348.1079,-63.4156 367.6079,-63.4156 "/>
<text text-anchor="middle" x="357.8579" y="-46.8156" font-family="Times,serif" font-size="14.00" fill="#000000"> </text>
</g>
<!-- s52&#45;&gt;s53 -->
<g id="edge6" class="edge">
<title>s52&#45;&gt;s53</title>
<path fill="none" stroke="#000000" d="M230.3721,-63.4156C238.7034,-63.4156 247.1686,-63.4156 255.379,-63.4156"/>
<polygon fill="#000000" stroke="#000000" points="255.6136,-66.9157 265.6135,-63.4156 255.6135,-59.9157 255.6136,-66.9157"/>
</g>
<!-- s54 -->
<g id="node4" class="node">
<title>s54</title>
<polygon fill="none" stroke="#000000" points="420.7896,-77.6156 420.7896,-119.2156 477.2314,-119.2156 477.2314,-77.6156 420.7896,-77.6156"/>
<text text-anchor="middle" x="449.0105" y="-102.6156" font-family="Times,serif" font-size="14.00" fill="#000000">s54</text>
<text text-anchor="middle" x="449.0105" y="-85.8156" font-family="Times,serif" font-size="14.00" fill="#000000">→ SEQ</text>
</g>
<!-- s53&#45;&gt;s54 -->
<g id="edge4" class="edge">
<title>s53:p0&#45;&gt;s54</title>
<path fill="none" stroke="#000000" d="M367.6079,-75.4156C382.0022,-75.4156 397.307,-78.7873 410.7151,-82.9487"/>
<polygon fill="#000000" stroke="#000000" points="409.9583,-86.3862 420.5522,-86.2422 412.1807,-79.7484 409.9583,-86.3862"/>
</g>
<!-- s57 -->
<g id="node7" class="node">
<title>s57</title>
<ellipse fill="none" stroke="#000000" cx="449.0105" cy="-29.4156" rx="45.3054" ry="29.3315"/>
<text text-anchor="middle" x="449.0105" y="-33.6156" font-family="Times,serif" font-size="14.00" fill="#000000">s57 </text>
<text text-anchor="middle" x="449.0105" y="-16.8156" font-family="Times,serif" font-size="14.00" fill="#000000">BLANK</text>
</g>
<!-- s53&#45;&gt;s57 -->
<g id="edge5" class="edge">
<title>s53:p1&#45;&gt;s57</title>
<path fill="none" stroke="#000000" d="M367.6079,-51.4156C378.2581,-51.4156 389.429,-49.639 399.9647,-47.0954"/>
<polygon fill="#000000" stroke="#000000" points="401.0781,-50.4207 409.8335,-44.4547 399.2687,-43.6586 401.0781,-50.4207"/>
</g>
<!-- s55 -->
<g id="node5" class="node">
<title>s55</title>
<ellipse fill="none" stroke="#000000" cx="593.6923" cy="-98.4156" rx="63.059" ry="29.3315"/>
<text text-anchor="middle" x="593.6923" y="-102.6156" font-family="Times,serif" font-size="14.00" fill="#000000">s55 STRING</text>
<text text-anchor="middle" x="593.6923" y="-85.8156" font-family="Times,serif" font-size="14.00" fill="#000000">&quot;as&quot;</text>
</g>
<!-- s54&#45;&gt;s55 -->
<g id="edge2" class="edge">
<title>s54&#45;&gt;s55</title>
<path fill="none" stroke="#000000" d="M477.2501,-98.4156C489.6626,-98.4156 504.8764,-98.4156 520.161,-98.4156"/>
<polygon fill="#000000" stroke="#000000" points="520.1867,-101.9157 530.1867,-98.4156 520.1867,-94.9157 520.1867,-101.9157"/>
</g>
<!-- s56 -->
<g id="node6" class="node">
<title>s56</title>
<g id="a_node6"><a xlink:href="javascript-grammar.json.identifier.dot.svg" xlink:title="s56 SYMBOL\nidentifier">
<ellipse fill="none" stroke="#000000" cx="761.7546" cy="-98.4156" rx="68.5672" ry="29.3315"/>
<text text-anchor="middle" x="761.7546" y="-102.6156" font-family="Times,serif" font-size="14.00" fill="#000000">s56 SYMBOL</text>
<text text-anchor="middle" x="761.7546" y="-85.8156" font-family="Times,serif" font-size="14.00" fill="#000000">identifier</text>
</a>
</g>
</g>
<!-- s55&#45;&gt;s56 -->
<g id="edge3" class="edge">
<title>s55&#45;&gt;s56</title>
<path fill="none" stroke="#000000" d="M657.2294,-98.4156C665.5808,-98.4156 674.2197,-98.4156 682.7881,-98.4156"/>
<polygon fill="#000000" stroke="#000000" points="682.7929,-101.9157 692.7929,-98.4156 682.7929,-94.9157 682.7929,-101.9157"/>
</g>
</g>
</svg>
