<?xml version="1.0" encoding="UTF-8" standalone="no"?>
<!DOCTYPE svg PUBLIC "-//W3C//DTD SVG 1.1//EN"
 "http://www.w3.org/Graphics/SVG/1.1/DTD/svg11.dtd">
<!-- Generated by graphviz version 2.40.1 (20161225.0304)
 -->
<!-- Title: _property_name Pages: 1 -->
<svg width="992pt" height="329pt"
 viewBox="0.00 0.00 992.37 328.83" xmlns="http://www.w3.org/2000/svg" xmlns:xlink="http://www.w3.org/1999/xlink">
<g id="graph0" class="graph" transform="scale(1 1) rotate(0) translate(4 324.8313)">
<title>_property_name</title>
<polygon fill="#ffffff" stroke="transparent" points="-4,4 -4,-324.8313 988.3746,-324.8313 988.3746,4 -4,4"/>
<!-- s897 -->
<g id="node1" class="node">
<title>s897</title>
<polygon fill="none" stroke="#000000" points="0,-94.8156 0,-194.0156 101.5996,-194.0156 101.5996,-94.8156 0,-94.8156"/>
<text text-anchor="middle" x="41.0498" y="-148.6156" font-family="Times,serif" font-size="14.00" fill="#000000">s897</text>
<text text-anchor="middle" x="41.0498" y="-131.8156" font-family="Times,serif" font-size="14.00" fill="#000000">→ CHOICE</text>
<polyline fill="none" stroke="#000000" points="82.0996,-94.8156 82.0996,-194.0156 "/>
<text text-anchor="middle" x="91.8496" y="-177.4156" font-family="Times,serif" font-size="14.00" fill="#000000"> </text>
<polyline fill="none" stroke="#000000" points="82.0996,-169.2156 101.5996,-169.2156 "/>
<text text-anchor="middle" x="91.8496" y="-152.6156" font-family="Times,serif" font-size="14.00" fill="#000000"> </text>
<polyline fill="none" stroke="#000000" points="82.0996,-144.4156 101.5996,-144.4156 "/>
<text text-anchor="middle" x="91.8496" y="-127.8156" font-family="Times,serif" font-size="14.00" fill="#000000"> </text>
<polyline fill="none" stroke="#000000" points="82.0996,-119.6156 101.5996,-119.6156 "/>
<text text-anchor="middle" x="91.8496" y="-103.0156" font-family="Times,serif" font-size="14.00" fill="#000000"> </text>
</g>
<!-- s898 -->
<g id="node2" class="node">
<title>s898</title>
<polygon fill="none" stroke="#000000" points="364.1794,-231.6156 364.1794,-273.2156 435.3884,-273.2156 435.3884,-231.6156 364.1794,-231.6156"/>
<text text-anchor="middle" x="399.7839" y="-256.6156" font-family="Times,serif" font-size="14.00" fill="#000000">s898</text>
<text text-anchor="middle" x="399.7839" y="-239.8156" font-family="Times,serif" font-size="14.00" fill="#000000">→ ALIAS</text>
</g>
<!-- s897&#45;&gt;s898 -->
<g id="edge4" class="edge">
<title>s897:p0&#45;&gt;s898</title>
<path fill="none" stroke="#000000" d="M101.5996,-181.4156C110.0323,-181.4156 111.4834,-185.1269 119.5996,-187.4156 201.4923,-210.5086 298.4984,-231.6569 354.218,-243.2184"/>
<polygon fill="#000000" stroke="#000000" points="353.6276,-246.6703 364.1287,-245.264 355.0426,-239.8148 353.6276,-246.6703"/>
<text text-anchor="middle" x="193.0779" y="-228.6156" font-family="Times,serif" font-size="14.00" fill="#000000">property_identifier</text>
</g>
<!-- s902 -->
<g id="node6" class="node">
<title>s902</title>
<g id="a_node6"><a xlink:href="javascript-grammar.json.string.dot.svg" xlink:title="s902 SYMBOL\nstring">
<ellipse fill="none" stroke="#000000" cx="399.7839" cy="-183.4156" rx="73.9667" ry="29.3315"/>
<text text-anchor="middle" x="399.7839" y="-187.6156" font-family="Times,serif" font-size="14.00" fill="#000000">s902 SYMBOL</text>
<text text-anchor="middle" x="399.7839" y="-170.8156" font-family="Times,serif" font-size="14.00" fill="#000000">string</text>
</a>
</g>
</g>
<!-- s897&#45;&gt;s902 -->
<g id="edge5" class="edge">
<title>s897:p1&#45;&gt;s902</title>
<path fill="none" stroke="#000000" d="M101.5996,-156.4156C175.7968,-156.4156 259.9577,-164.81 319.9028,-172.2376"/>
<polygon fill="#000000" stroke="#000000" points="319.698,-175.7393 330.0568,-173.5152 320.5719,-168.7941 319.698,-175.7393"/>
<text text-anchor="middle" x="193.0779" y="-170.6156" font-family="Times,serif" font-size="14.00" fill="#000000">string</text>
</g>
<!-- s903 -->
<g id="node7" class="node">
<title>s903</title>
<g id="a_node7"><a xlink:href="javascript-grammar.json.number.dot.svg" xlink:title="s903 SYMBOL\nnumber">
<ellipse fill="none" stroke="#000000" cx="399.7839" cy="-106.4156" rx="73.9667" ry="29.3315"/>
<text text-anchor="middle" x="399.7839" y="-110.6156" font-family="Times,serif" font-size="14.00" fill="#000000">s903 SYMBOL</text>
<text text-anchor="middle" x="399.7839" y="-93.8156" font-family="Times,serif" font-size="14.00" fill="#000000">number</text>
</a>
</g>
</g>
<!-- s897&#45;&gt;s903 -->
<g id="edge6" class="edge">
<title>s897:p2&#45;&gt;s903</title>
<path fill="none" stroke="#000000" d="M101.5996,-132.4156C175.6521,-132.4156 259.6596,-124.3589 319.592,-117.2152"/>
<polygon fill="#000000" stroke="#000000" points="320.2382,-120.6626 329.7451,-115.9863 319.397,-113.7134 320.2382,-120.6626"/>
<text text-anchor="middle" x="193.0779" y="-136.6156" font-family="Times,serif" font-size="14.00" fill="#000000">number</text>
</g>
<!-- s904 -->
<g id="node8" class="node">
<title>s904</title>
<g id="a_node8"><a xlink:href="javascript-grammar.json.computed_property_name.dot.svg" xlink:title="s904 SYMBOL\ncomputed_property_name">
<ellipse fill="none" stroke="#000000" cx="399.7839" cy="-29.4156" rx="115.4559" ry="29.3315"/>
<text text-anchor="middle" x="399.7839" y="-33.6156" font-family="Times,serif" font-size="14.00" fill="#000000">s904 SYMBOL</text>
<text text-anchor="middle" x="399.7839" y="-16.8156" font-family="Times,serif" font-size="14.00" fill="#000000">computed_property_name</text>
</a>
</g>
</g>
<!-- s897&#45;&gt;s904 -->
<g id="edge7" class="edge">
<title>s897:p3&#45;&gt;s904</title>
<path fill="none" stroke="#000000" d="M101.5996,-107.4156C109.8792,-107.4156 111.5942,-104.7287 119.5996,-102.6156 182.8829,-85.9114 254.2597,-67.2667 309.1332,-52.9748"/>
<polygon fill="#000000" stroke="#000000" points="310.0381,-56.3559 318.8334,-50.4489 308.2741,-49.5818 310.0381,-56.3559"/>
<text text-anchor="middle" x="193.0779" y="-107.6156" font-family="Times,serif" font-size="14.00" fill="#000000">computed_property_name</text>
</g>
<!-- s899 -->
<g id="node3" class="node">
<title>s899</title>
<polygon fill="none" stroke="#000000" points="552.0116,-227.6156 552.0116,-277.2156 653.6112,-277.2156 653.6112,-227.6156 552.0116,-227.6156"/>
<text text-anchor="middle" x="593.0614" y="-256.6156" font-family="Times,serif" font-size="14.00" fill="#000000">s899</text>
<text text-anchor="middle" x="593.0614" y="-239.8156" font-family="Times,serif" font-size="14.00" fill="#000000">→ CHOICE</text>
<polyline fill="none" stroke="#000000" points="634.1112,-227.6156 634.1112,-277.2156 "/>
<text text-anchor="middle" x="643.8612" y="-260.6156" font-family="Times,serif" font-size="14.00" fill="#000000"> </text>
<polyline fill="none" stroke="#000000" points="634.1112,-252.4156 653.6112,-252.4156 "/>
<text text-anchor="middle" x="643.8612" y="-235.8156" font-family="Times,serif" font-size="14.00" fill="#000000"> </text>
</g>
<!-- s898&#45;&gt;s899 -->
<g id="edge3" class="edge">
<title>s898&#45;&gt;s899</title>
<path fill="none" stroke="#000000" d="M435.6138,-252.4156C464.9356,-252.4156 507.0704,-252.4156 541.7054,-252.4156"/>
<polygon fill="#000000" stroke="#000000" points="541.7234,-255.9157 551.7234,-252.4156 541.7234,-248.9157 541.7234,-255.9157"/>
</g>
<!-- s900 -->
<g id="node4" class="node">
<title>s900</title>
<g id="a_node4"><a xlink:href="javascript-grammar.json.identifier.dot.svg" xlink:title="s900 SYMBOL\nidentifier">
<ellipse fill="none" stroke="#000000" cx="893.3541" cy="-291.4156" rx="73.9667" ry="29.3315"/>
<text text-anchor="middle" x="893.3541" y="-295.6156" font-family="Times,serif" font-size="14.00" fill="#000000">s900 SYMBOL</text>
<text text-anchor="middle" x="893.3541" y="-278.8156" font-family="Times,serif" font-size="14.00" fill="#000000">identifier</text>
</a>
</g>
</g>
<!-- s899&#45;&gt;s900 -->
<g id="edge1" class="edge">
<title>s899:p0&#45;&gt;s900</title>
<path fill="none" stroke="#000000" d="M653.6112,-264.4156C707.9492,-264.4156 768.7821,-271.3494 815.5728,-278.1895"/>
<polygon fill="#000000" stroke="#000000" points="815.2307,-281.6771 825.6377,-279.6908 816.2636,-274.7537 815.2307,-281.6771"/>
<text text-anchor="middle" x="727.9724" y="-278.6156" font-family="Times,serif" font-size="14.00" fill="#000000">identifier</text>
</g>
<!-- s901 -->
<g id="node5" class="node">
<title>s901</title>
<g id="a_node5"><a xlink:href="javascript-grammar.json._reserved_identifier.dot.svg" xlink:title="s901 SYMBOL\n_reserved_identifier">
<ellipse fill="none" stroke="#000000" cx="893.3541" cy="-214.4156" rx="91.041" ry="29.3315"/>
<text text-anchor="middle" x="893.3541" y="-218.6156" font-family="Times,serif" font-size="14.00" fill="#000000">s901 SYMBOL</text>
<text text-anchor="middle" x="893.3541" y="-201.8156" font-family="Times,serif" font-size="14.00" fill="#000000">_reserved_identifier</text>
</a>
</g>
</g>
<!-- s899&#45;&gt;s901 -->
<g id="edge2" class="edge">
<title>s899:p1&#45;&gt;s901</title>
<path fill="none" stroke="#000000" d="M653.6112,-240.4156C702.848,-240.4156 757.443,-234.9285 802.0818,-228.9957"/>
<polygon fill="#000000" stroke="#000000" points="802.5946,-232.4583 812.0325,-227.6441 801.6524,-225.522 802.5946,-232.4583"/>
<text text-anchor="middle" x="727.9724" y="-244.6156" font-family="Times,serif" font-size="14.00" fill="#000000">_reserved_identifier</text>
</g>
</g>
</svg>
