<?xml version="1.0" encoding="UTF-8" standalone="no"?>
<!DOCTYPE svg PUBLIC "-//W3C//DTD SVG 1.1//EN"
 "http://www.w3.org/Graphics/SVG/1.1/DTD/svg11.dtd">
<!-- Generated by graphviz version 2.40.1 (20161225.0304)
 -->
<!-- Title: _formal_parameter Pages: 1 -->
<svg width="693pt" height="359pt"
 viewBox="0.00 0.00 693.24 358.83" xmlns="http://www.w3.org/2000/svg" xmlns:xlink="http://www.w3.org/1999/xlink">
<g id="graph0" class="graph" transform="scale(1 1) rotate(0) translate(4 354.8313)">
<title>_formal_parameter</title>
<polygon fill="#ffffff" stroke="transparent" points="-4,4 -4,-354.8313 689.2401,-354.8313 689.2401,4 -4,4"/>
<!-- s870 -->
<g id="node1" class="node">
<title>s870</title>
<polygon fill="none" stroke="#000000" points="0,-121.4156 0,-245.4156 101.5996,-245.4156 101.5996,-121.4156 0,-121.4156"/>
<text text-anchor="middle" x="41.0498" y="-187.6156" font-family="Times,serif" font-size="14.00" fill="#000000">s870</text>
<text text-anchor="middle" x="41.0498" y="-170.8156" font-family="Times,serif" font-size="14.00" fill="#000000">→ CHOICE</text>
<polyline fill="none" stroke="#000000" points="82.0996,-121.4156 82.0996,-245.4156 "/>
<text text-anchor="middle" x="91.8496" y="-228.8156" font-family="Times,serif" font-size="14.00" fill="#000000"> </text>
<polyline fill="none" stroke="#000000" points="82.0996,-220.6156 101.5996,-220.6156 "/>
<text text-anchor="middle" x="91.8496" y="-204.0156" font-family="Times,serif" font-size="14.00" fill="#000000"> </text>
<polyline fill="none" stroke="#000000" points="82.0996,-195.8156 101.5996,-195.8156 "/>
<text text-anchor="middle" x="91.8496" y="-179.2156" font-family="Times,serif" font-size="14.00" fill="#000000"> </text>
<polyline fill="none" stroke="#000000" points="82.0996,-171.0156 101.5996,-171.0156 "/>
<text text-anchor="middle" x="91.8496" y="-154.4156" font-family="Times,serif" font-size="14.00" fill="#000000"> </text>
<polyline fill="none" stroke="#000000" points="82.0996,-146.2156 101.5996,-146.2156 "/>
<text text-anchor="middle" x="91.8496" y="-129.6156" font-family="Times,serif" font-size="14.00" fill="#000000"> </text>
</g>
<!-- s871 -->
<g id="node2" class="node">
<title>s871</title>
<g id="a_node2"><a xlink:href="javascript-grammar.json.identifier.dot.svg" xlink:title="s871 SYMBOL\nidentifier">
<ellipse fill="none" stroke="#000000" cx="365.2683" cy="-321.4156" rx="73.9667" ry="29.3315"/>
<text text-anchor="middle" x="365.2683" y="-325.6156" font-family="Times,serif" font-size="14.00" fill="#000000">s871 SYMBOL</text>
<text text-anchor="middle" x="365.2683" y="-308.8156" font-family="Times,serif" font-size="14.00" fill="#000000">identifier</text>
</a>
</g>
</g>
<!-- s870&#45;&gt;s871 -->
<g id="edge1" class="edge">
<title>s870:p0&#45;&gt;s871</title>
<path fill="none" stroke="#000000" d="M91.7998,-245.4156C91.7998,-326.1042 203.6848,-334.6644 284.3236,-330.3556"/>
<polygon fill="#000000" stroke="#000000" points="284.7189,-333.8381 294.4877,-329.7367 284.2934,-326.851 284.7189,-333.8381"/>
<text text-anchor="middle" x="182.9685" y="-334.6156" font-family="Times,serif" font-size="14.00" fill="#000000">identifier</text>
</g>
<!-- s872 -->
<g id="node3" class="node">
<title>s872</title>
<polygon fill="none" stroke="#000000" points="329.6638,-231.6156 329.6638,-273.2156 400.8728,-273.2156 400.8728,-231.6156 329.6638,-231.6156"/>
<text text-anchor="middle" x="365.2683" y="-256.6156" font-family="Times,serif" font-size="14.00" fill="#000000">s872</text>
<text text-anchor="middle" x="365.2683" y="-239.8156" font-family="Times,serif" font-size="14.00" fill="#000000">→ ALIAS</text>
</g>
<!-- s870&#45;&gt;s872 -->
<g id="edge3" class="edge">
<title>s870:p1&#45;&gt;s872</title>
<path fill="none" stroke="#000000" d="M101.5996,-208.4156C178.8268,-208.4156 267.0632,-227.007 319.3654,-240.0201"/>
<polygon fill="#000000" stroke="#000000" points="318.7799,-243.4822 329.3328,-242.5412 320.4964,-236.6959 318.7799,-243.4822"/>
<text text-anchor="middle" x="182.9685" y="-227.6156" font-family="Times,serif" font-size="14.00" fill="#000000">identifier</text>
</g>
<!-- s874 -->
<g id="node5" class="node">
<title>s874</title>
<g id="a_node5"><a xlink:href="javascript-grammar.json._destructuring_pattern.dot.svg" xlink:title="s874 SYMBOL\n_destructuring_pattern">
<ellipse fill="none" stroke="#000000" cx="365.2683" cy="-183.4156" rx="100.8618" ry="29.3315"/>
<text text-anchor="middle" x="365.2683" y="-187.6156" font-family="Times,serif" font-size="14.00" fill="#000000">s874 SYMBOL</text>
<text text-anchor="middle" x="365.2683" y="-170.8156" font-family="Times,serif" font-size="14.00" fill="#000000">_destructuring_pattern</text>
</a>
</g>
</g>
<!-- s870&#45;&gt;s874 -->
<g id="edge4" class="edge">
<title>s870:p2&#45;&gt;s874</title>
<path fill="none" stroke="#000000" d="M101.5996,-183.4156C151.6027,-183.4156 206.94,-183.4156 253.955,-183.4156"/>
<polygon fill="#000000" stroke="#000000" points="254.1644,-186.9157 264.1644,-183.4156 254.1644,-179.9157 254.1644,-186.9157"/>
<text text-anchor="middle" x="182.9685" y="-187.6156" font-family="Times,serif" font-size="14.00" fill="#000000">_destructuring_pattern</text>
</g>
<!-- s875 -->
<g id="node6" class="node">
<title>s875</title>
<g id="a_node6"><a xlink:href="javascript-grammar.json.assignment_pattern.dot.svg" xlink:title="s875 SYMBOL\nassignment_pattern">
<ellipse fill="none" stroke="#000000" cx="365.2683" cy="-106.4156" rx="88.0809" ry="29.3315"/>
<text text-anchor="middle" x="365.2683" y="-110.6156" font-family="Times,serif" font-size="14.00" fill="#000000">s875 SYMBOL</text>
<text text-anchor="middle" x="365.2683" y="-93.8156" font-family="Times,serif" font-size="14.00" fill="#000000">assignment_pattern</text>
</a>
</g>
</g>
<!-- s870&#45;&gt;s875 -->
<g id="edge5" class="edge">
<title>s870:p3&#45;&gt;s875</title>
<path fill="none" stroke="#000000" d="M101.5996,-158.4156C166.2526,-158.4156 238.1666,-143.1801 290.5383,-129.2026"/>
<polygon fill="#000000" stroke="#000000" points="291.6806,-132.5192 300.4135,-126.5202 289.8457,-125.764 291.6806,-132.5192"/>
<text text-anchor="middle" x="182.9685" y="-161.6156" font-family="Times,serif" font-size="14.00" fill="#000000">assignment_pattern</text>
</g>
<!-- s876 -->
<g id="node7" class="node">
<title>s876</title>
<g id="a_node7"><a xlink:href="javascript-grammar.json.rest_parameter.dot.svg" xlink:title="s876 SYMBOL\nrest_parameter">
<ellipse fill="none" stroke="#000000" cx="365.2683" cy="-29.4156" rx="73.9667" ry="29.3315"/>
<text text-anchor="middle" x="365.2683" y="-33.6156" font-family="Times,serif" font-size="14.00" fill="#000000">s876 SYMBOL</text>
<text text-anchor="middle" x="365.2683" y="-16.8156" font-family="Times,serif" font-size="14.00" fill="#000000">rest_parameter</text>
</a>
</g>
</g>
<!-- s870&#45;&gt;s876 -->
<g id="edge6" class="edge">
<title>s870:p4&#45;&gt;s876</title>
<path fill="none" stroke="#000000" d="M91.7998,-121.4156C91.7998,-40.1125 201.7277,-24.9225 282.1913,-24.694"/>
<polygon fill="#000000" stroke="#000000" points="282.3262,-28.1946 292.343,-24.7428 282.3599,-21.1947 282.3262,-28.1946"/>
<text text-anchor="middle" x="182.9685" y="-67.6156" font-family="Times,serif" font-size="14.00" fill="#000000">rest_parameter</text>
</g>
<!-- s873 -->
<g id="node4" class="node">
<title>s873</title>
<g id="a_node4"><a xlink:href="javascript-grammar.json._reserved_identifier.dot.svg" xlink:title="s873 SYMBOL\n_reserved_identifier">
<ellipse fill="none" stroke="#000000" cx="594.2196" cy="-252.4156" rx="91.041" ry="29.3315"/>
<text text-anchor="middle" x="594.2196" y="-256.6156" font-family="Times,serif" font-size="14.00" fill="#000000">s873 SYMBOL</text>
<text text-anchor="middle" x="594.2196" y="-239.8156" font-family="Times,serif" font-size="14.00" fill="#000000">_reserved_identifier</text>
</a>
</g>
</g>
<!-- s872&#45;&gt;s873 -->
<g id="edge2" class="edge">
<title>s872&#45;&gt;s873</title>
<path fill="none" stroke="#000000" d="M401.0419,-252.4156C425.7747,-252.4156 460.0073,-252.4156 492.7932,-252.4156"/>
<polygon fill="#000000" stroke="#000000" points="492.9096,-255.9157 502.9095,-252.4156 492.9095,-248.9157 492.9096,-255.9157"/>
</g>
</g>
</svg>
