<?xml version="1.0" encoding="UTF-8" standalone="no"?>
<!DOCTYPE svg PUBLIC "-//W3C//DTD SVG 1.1//EN"
 "http://www.w3.org/Graphics/SVG/1.1/DTD/svg11.dtd">
<!-- Generated by graphviz version 2.40.1 (20161225.0304)
 -->
<!-- Title: switch_case Pages: 1 -->
<svg width="895pt" height="67pt"
 viewBox="0.00 0.00 895.17 66.83" xmlns="http://www.w3.org/2000/svg" xmlns:xlink="http://www.w3.org/1999/xlink">
<g id="graph0" class="graph" transform="scale(1 1) rotate(0) translate(4 62.8313)">
<title>switch_case</title>
<polygon fill="#ffffff" stroke="transparent" points="-4,4 -4,-62.8313 891.1729,-62.8313 891.1729,4 -4,4"/>
<!-- s285 -->
<g id="node1" class="node">
<title>s285</title>
<polygon fill="none" stroke="#000000" points="0,-8.6156 0,-50.2156 56.4418,-50.2156 56.4418,-8.6156 0,-8.6156"/>
<text text-anchor="middle" x="28.2209" y="-33.6156" font-family="Times,serif" font-size="14.00" fill="#000000">s285</text>
<text text-anchor="middle" x="28.2209" y="-16.8156" font-family="Times,serif" font-size="14.00" fill="#000000">→ SEQ</text>
</g>
<!-- s286 -->
<g id="node2" class="node">
<title>s286</title>
<ellipse fill="none" stroke="#000000" cx="160.6707" cy="-29.4156" rx="68.4585" ry="29.3315"/>
<text text-anchor="middle" x="160.6707" y="-33.6156" font-family="Times,serif" font-size="14.00" fill="#000000">s286 STRING</text>
<text text-anchor="middle" x="160.6707" y="-16.8156" font-family="Times,serif" font-size="14.00" fill="#000000">&quot;case&quot;</text>
</g>
<!-- s285&#45;&gt;s286 -->
<g id="edge1" class="edge">
<title>s285&#45;&gt;s286</title>
<path fill="none" stroke="#000000" d="M56.6347,-29.4156C64.3113,-29.4156 73.0073,-29.4156 82.0218,-29.4156"/>
<polygon fill="#000000" stroke="#000000" points="82.2976,-32.9157 92.2975,-29.4156 82.2975,-25.9157 82.2976,-32.9157"/>
</g>
<!-- s287 -->
<g id="node3" class="node">
<title>s287</title>
<g id="a_node3"><a xlink:href="javascript-grammar.json._expressions.dot.svg" xlink:title="s287 SYMBOL\n_expressions">
<ellipse fill="none" stroke="#000000" cx="338.6325" cy="-29.4156" rx="73.9667" ry="29.3315"/>
<text text-anchor="middle" x="338.6325" y="-33.6156" font-family="Times,serif" font-size="14.00" fill="#000000">s287 SYMBOL</text>
<text text-anchor="middle" x="338.6325" y="-16.8156" font-family="Times,serif" font-size="14.00" fill="#000000">_expressions</text>
</a>
</g>
</g>
<!-- s286&#45;&gt;s287 -->
<g id="edge2" class="edge">
<title>s286&#45;&gt;s287</title>
<path fill="none" stroke="#000000" d="M228.9664,-29.4156C237.3502,-29.4156 245.9933,-29.4156 254.5752,-29.4156"/>
<polygon fill="#000000" stroke="#000000" points="254.6022,-32.9157 264.6022,-29.4156 254.6022,-25.9157 254.6022,-32.9157"/>
</g>
<!-- s288 -->
<g id="node4" class="node">
<title>s288</title>
<ellipse fill="none" stroke="#000000" cx="516.5944" cy="-29.4156" rx="68.4585" ry="29.3315"/>
<text text-anchor="middle" x="516.5944" y="-33.6156" font-family="Times,serif" font-size="14.00" fill="#000000">s288 STRING</text>
<text text-anchor="middle" x="516.5944" y="-16.8156" font-family="Times,serif" font-size="14.00" fill="#000000">&quot;:&quot;</text>
</g>
<!-- s287&#45;&gt;s288 -->
<g id="edge3" class="edge">
<title>s287&#45;&gt;s288</title>
<path fill="none" stroke="#000000" d="M412.5583,-29.4156C420.9771,-29.4156 429.581,-29.4156 438.0567,-29.4156"/>
<polygon fill="#000000" stroke="#000000" points="438.3106,-32.9157 448.3106,-29.4156 438.3106,-25.9157 438.3106,-32.9157"/>
</g>
<!-- s289 -->
<g id="node5" class="node">
<title>s289</title>
<polygon fill="none" stroke="#000000" points="620.8233,-8.6156 620.8233,-50.2156 703.7069,-50.2156 703.7069,-8.6156 620.8233,-8.6156"/>
<text text-anchor="middle" x="662.2651" y="-33.6156" font-family="Times,serif" font-size="14.00" fill="#000000">s289</text>
<text text-anchor="middle" x="662.2651" y="-16.8156" font-family="Times,serif" font-size="14.00" fill="#000000">→ REPEAT</text>
</g>
<!-- s288&#45;&gt;s289 -->
<g id="edge6" class="edge">
<title>s288&#45;&gt;s289</title>
<path fill="none" stroke="#000000" d="M585.1642,-29.4156C593.6736,-29.4156 602.2609,-29.4156 610.4593,-29.4156"/>
<polygon fill="#000000" stroke="#000000" points="610.601,-32.9157 620.6009,-29.4156 610.6009,-25.9157 610.601,-32.9157"/>
</g>
<!-- s290 -->
<g id="node6" class="node">
<title>s290</title>
<g id="a_node6"><a xlink:href="javascript-grammar.json._statement.dot.svg" xlink:title="s290 SYMBOL\n_statement">
<ellipse fill="none" stroke="#000000" cx="813.4399" cy="-29.4156" rx="73.9667" ry="29.3315"/>
<text text-anchor="middle" x="813.4399" y="-33.6156" font-family="Times,serif" font-size="14.00" fill="#000000">s290 SYMBOL</text>
<text text-anchor="middle" x="813.4399" y="-16.8156" font-family="Times,serif" font-size="14.00" fill="#000000">_statement</text>
</a>
</g>
</g>
<!-- s289&#45;&gt;s290 -->
<g id="edge4" class="edge">
<title>s289&#45;&gt;s290</title>
<path fill="none" stroke="#000000" d="M703.9744,-23.3084C712.5106,-22.9618 721.7735,-22.7553 731.1754,-22.6891"/>
<polygon fill="#000000" stroke="#000000" points="731.4098,-26.1888 741.404,-22.6723 731.3982,-19.1888 731.4098,-26.1888"/>
</g>
<!-- s290&#45;&gt;s289 -->
<g id="edge5" class="edge">
<title>s290&#45;&gt;s289</title>
<path fill="none" stroke="#000000" d="M741.404,-36.159C732.1792,-36.1935 722.8837,-36.0936 714.0687,-35.8594"/>
<polygon fill="#000000" stroke="#000000" points="714.0856,-32.3581 703.9744,-35.5228 713.8522,-39.3543 714.0856,-32.3581"/>
</g>
</g>
</svg>
