<?xml version="1.0" encoding="UTF-8" standalone="no"?>
<!DOCTYPE svg PUBLIC "-//W3C//DTD SVG 1.1//EN"
 "http://www.w3.org/Graphics/SVG/1.1/DTD/svg11.dtd">
<!-- Generated by graphviz version 2.40.1 (20161225.0304)
 -->
<!-- Title: program Pages: 1 -->
<svg width="758pt" height="144pt"
 viewBox="0.00 0.00 758.36 143.83" xmlns="http://www.w3.org/2000/svg" xmlns:xlink="http://www.w3.org/1999/xlink">
<g id="graph0" class="graph" transform="scale(1 1) rotate(0) translate(4 139.8313)">
<title>program</title>
<polygon fill="#ffffff" stroke="transparent" points="-4,4 -4,-139.8313 754.3554,-139.8313 754.3554,4 -4,4"/>
<!-- s1 -->
<g id="node1" class="node">
<title>s1</title>
<polygon fill="none" stroke="#000000" points="0,-46.6156 0,-88.2156 56.4418,-88.2156 56.4418,-46.6156 0,-46.6156"/>
<text text-anchor="middle" x="28.2209" y="-71.6156" font-family="Times,serif" font-size="14.00" fill="#000000">s1</text>
<text text-anchor="middle" x="28.2209" y="-54.8156" font-family="Times,serif" font-size="14.00" fill="#000000">→ SEQ</text>
</g>
<!-- s2 -->
<g id="node2" class="node">
<title>s2</title>
<polygon fill="none" stroke="#000000" points="93.4418,-42.6156 93.4418,-92.2156 195.0414,-92.2156 195.0414,-42.6156 93.4418,-42.6156"/>
<text text-anchor="middle" x="134.4916" y="-71.6156" font-family="Times,serif" font-size="14.00" fill="#000000">s2</text>
<text text-anchor="middle" x="134.4916" y="-54.8156" font-family="Times,serif" font-size="14.00" fill="#000000">→ CHOICE</text>
<polyline fill="none" stroke="#000000" points="175.5414,-42.6156 175.5414,-92.2156 "/>
<text text-anchor="middle" x="185.2914" y="-75.6156" font-family="Times,serif" font-size="14.00" fill="#000000"> </text>
<polyline fill="none" stroke="#000000" points="175.5414,-67.4156 195.0414,-67.4156 "/>
<text text-anchor="middle" x="185.2914" y="-50.8156" font-family="Times,serif" font-size="14.00" fill="#000000"> </text>
</g>
<!-- s1&#45;&gt;s2 -->
<g id="edge3" class="edge">
<title>s1&#45;&gt;s2</title>
<path fill="none" stroke="#000000" d="M56.6028,-67.4156C64.6824,-67.4156 73.8102,-67.4156 83.0459,-67.4156"/>
<polygon fill="#000000" stroke="#000000" points="83.0657,-70.9157 93.0657,-67.4156 83.0656,-63.9157 83.0657,-70.9157"/>
</g>
<!-- s3 -->
<g id="node3" class="node">
<title>s3</title>
<g id="a_node3"><a xlink:href="javascript-grammar.json.hash_bang_line.dot.svg" xlink:title="s3 SYMBOL\nhash_bang_line">
<ellipse fill="none" stroke="#000000" cx="392.3579" cy="-106.4156" rx="73.3938" ry="29.3315"/>
<text text-anchor="middle" x="392.3579" y="-110.6156" font-family="Times,serif" font-size="14.00" fill="#000000">s3 SYMBOL</text>
<text text-anchor="middle" x="392.3579" y="-93.8156" font-family="Times,serif" font-size="14.00" fill="#000000">hash_bang_line</text>
</a>
</g>
</g>
<!-- s2&#45;&gt;s3 -->
<g id="edge1" class="edge">
<title>s2:p0&#45;&gt;s3</title>
<path fill="none" stroke="#000000" d="M195.0414,-79.4156C235.4948,-79.4156 280.1863,-85.0553 316.7921,-91.1797"/>
<polygon fill="#000000" stroke="#000000" points="316.4438,-94.6711 326.8922,-92.9156 317.6296,-87.7722 316.4438,-94.6711"/>
<text text-anchor="middle" x="256.9762" y="-91.6156" font-family="Times,serif" font-size="14.00" fill="#000000">hash_bang_line</text>
</g>
<!-- s4 -->
<g id="node4" class="node">
<title>s4</title>
<ellipse fill="none" stroke="#000000" cx="392.3579" cy="-29.4156" rx="45.3054" ry="29.3315"/>
<text text-anchor="middle" x="392.3579" y="-33.6156" font-family="Times,serif" font-size="14.00" fill="#000000">s4 </text>
<text text-anchor="middle" x="392.3579" y="-16.8156" font-family="Times,serif" font-size="14.00" fill="#000000">BLANK</text>
</g>
<!-- s2&#45;&gt;s4 -->
<g id="edge2" class="edge">
<title>s2:p1&#45;&gt;s4</title>
<path fill="none" stroke="#000000" d="M195.0414,-55.4156C244.1501,-55.4156 299.5492,-47.4016 339.117,-40.2721"/>
<polygon fill="#000000" stroke="#000000" points="339.8759,-43.6913 349.0756,-38.4362 338.6067,-36.8073 339.8759,-43.6913"/>
</g>
<!-- s5 -->
<g id="node5" class="node">
<title>s5</title>
<polygon fill="none" stroke="#000000" points="502.8048,-46.6156 502.8048,-88.2156 585.6884,-88.2156 585.6884,-46.6156 502.8048,-46.6156"/>
<text text-anchor="middle" x="544.2466" y="-71.6156" font-family="Times,serif" font-size="14.00" fill="#000000">s5</text>
<text text-anchor="middle" x="544.2466" y="-54.8156" font-family="Times,serif" font-size="14.00" fill="#000000">→ REPEAT</text>
</g>
<!-- s3&#45;&gt;s5 -->
<g id="edge6" class="edge">
<title>s3&#45;&gt;s5</title>
<path fill="none" stroke="#000000" d="M454.5751,-90.4403C467.248,-87.1863 480.4485,-83.7969 492.7009,-80.6509"/>
<polygon fill="#000000" stroke="#000000" points="493.9223,-83.9509 502.7376,-78.0738 492.1814,-77.1708 493.9223,-83.9509"/>
</g>
<!-- s4&#45;&gt;s5 -->
<g id="edge7" class="edge">
<title>s4&#45;&gt;s5</title>
<path fill="none" stroke="#000000" d="M435.0716,-40.1019C452.9964,-44.5864 473.9977,-49.8405 492.7669,-54.5363"/>
<polygon fill="#000000" stroke="#000000" points="492.0891,-57.9745 502.6396,-57.0063 493.788,-51.1838 492.0891,-57.9745"/>
</g>
<!-- s6 -->
<g id="node6" class="node">
<title>s6</title>
<g id="a_node6"><a xlink:href="javascript-grammar.json._statement.dot.svg" xlink:title="s6 SYMBOL\n_statement">
<ellipse fill="none" stroke="#000000" cx="686.5219" cy="-67.4156" rx="63.6674" ry="29.3315"/>
<text text-anchor="middle" x="686.5219" y="-71.6156" font-family="Times,serif" font-size="14.00" fill="#000000">s6 SYMBOL</text>
<text text-anchor="middle" x="686.5219" y="-54.8156" font-family="Times,serif" font-size="14.00" fill="#000000">_statement</text>
</a>
</g>
</g>
<!-- s5&#45;&gt;s6 -->
<g id="edge4" class="edge">
<title>s5&#45;&gt;s6</title>
<path fill="none" stroke="#000000" d="M585.781,-61.2145C594.7295,-60.8631 604.4388,-60.6804 614.1781,-60.6665"/>
<polygon fill="#000000" stroke="#000000" points="614.2919,-64.167 624.3079,-60.7131 614.3241,-57.167 614.2919,-64.167"/>
</g>
<!-- s6&#45;&gt;s5 -->
<g id="edge5" class="edge">
<title>s6&#45;&gt;s5</title>
<path fill="none" stroke="#000000" d="M624.3079,-74.1182C614.8393,-74.2193 605.1565,-74.1588 595.9447,-73.9365"/>
<polygon fill="#000000" stroke="#000000" points="595.8861,-70.433 585.781,-73.6168 595.666,-77.4295 595.8861,-70.433"/>
</g>
</g>
</svg>
