<?xml version="1.0" encoding="UTF-8" standalone="no"?>
<!DOCTYPE svg PUBLIC "-//W3C//DTD SVG 1.1//EN"
 "http://www.w3.org/Graphics/SVG/1.1/DTD/svg11.dtd">
<!-- Generated by graphviz version 2.40.1 (20161225.0304)
 -->
<!-- Title: export_statement Pages: 1 -->
<svg width="1232pt" height="375pt"
 viewBox="0.00 0.00 1232.43 374.83" xmlns="http://www.w3.org/2000/svg" xmlns:xlink="http://www.w3.org/1999/xlink">
<g id="graph0" class="graph" transform="scale(1 1) rotate(0) translate(4 370.8313)">
<title>export_statement</title>
<polygon fill="#ffffff" stroke="transparent" points="-4,4 -4,-370.8313 1228.4321,-370.8313 1228.4321,4 -4,4"/>
<!-- s8 -->
<g id="node1" class="node">
<title>s8</title>
<polygon fill="none" stroke="#000000" points="0,-121.4156 0,-245.4156 101.5996,-245.4156 101.5996,-121.4156 0,-121.4156"/>
<text text-anchor="middle" x="41.0498" y="-187.6156" font-family="Times,serif" font-size="14.00" fill="#000000">s8</text>
<text text-anchor="middle" x="41.0498" y="-170.8156" font-family="Times,serif" font-size="14.00" fill="#000000">→ CHOICE</text>
<polyline fill="none" stroke="#000000" points="82.0996,-121.4156 82.0996,-245.4156 "/>
<text text-anchor="middle" x="91.8496" y="-228.8156" font-family="Times,serif" font-size="14.00" fill="#000000"> </text>
<polyline fill="none" stroke="#000000" points="82.0996,-220.6156 101.5996,-220.6156 "/>
<text text-anchor="middle" x="91.8496" y="-204.0156" font-family="Times,serif" font-size="14.00" fill="#000000"> </text>
<polyline fill="none" stroke="#000000" points="82.0996,-195.8156 101.5996,-195.8156 "/>
<text text-anchor="middle" x="91.8496" y="-179.2156" font-family="Times,serif" font-size="14.00" fill="#000000"> </text>
<polyline fill="none" stroke="#000000" points="82.0996,-171.0156 101.5996,-171.0156 "/>
<text text-anchor="middle" x="91.8496" y="-154.4156" font-family="Times,serif" font-size="14.00" fill="#000000"> </text>
<polyline fill="none" stroke="#000000" points="82.0996,-146.2156 101.5996,-146.2156 "/>
<text text-anchor="middle" x="91.8496" y="-129.6156" font-family="Times,serif" font-size="14.00" fill="#000000"> </text>
</g>
<!-- s9 -->
<g id="node2" class="node">
<title>s9</title>
<polygon fill="none" stroke="#000000" points="137.5996,-304.6156 137.5996,-346.2156 194.0414,-346.2156 194.0414,-304.6156 137.5996,-304.6156"/>
<text text-anchor="middle" x="165.8205" y="-329.6156" font-family="Times,serif" font-size="14.00" fill="#000000">s9</text>
<text text-anchor="middle" x="165.8205" y="-312.8156" font-family="Times,serif" font-size="14.00" fill="#000000">→ SEQ</text>
</g>
<!-- s8&#45;&gt;s9 -->
<g id="edge5" class="edge">
<title>s8:p0&#45;&gt;s9</title>
<path fill="none" stroke="#000000" d="M91.7998,-245.4156C91.7998,-269.8103 110.5725,-289.9238 129.21,-303.8812"/>
<polygon fill="#000000" stroke="#000000" points="127.2245,-306.7638 137.4139,-309.667 131.259,-301.0433 127.2245,-306.7638"/>
</g>
<!-- s14 -->
<g id="node7" class="node">
<title>s14</title>
<polygon fill="none" stroke="#000000" points="137.5996,-231.6156 137.5996,-273.2156 194.0414,-273.2156 194.0414,-231.6156 137.5996,-231.6156"/>
<text text-anchor="middle" x="165.8205" y="-256.6156" font-family="Times,serif" font-size="14.00" fill="#000000">s14</text>
<text text-anchor="middle" x="165.8205" y="-239.8156" font-family="Times,serif" font-size="14.00" fill="#000000">→ SEQ</text>
</g>
<!-- s8&#45;&gt;s14 -->
<g id="edge10" class="edge">
<title>s8:p1&#45;&gt;s14</title>
<path fill="none" stroke="#000000" d="M101.5996,-208.4156C115.816,-208.4156 129.1921,-215.8441 140.0182,-224.5966"/>
<polygon fill="#000000" stroke="#000000" points="137.9601,-227.4486 147.7717,-231.4466 142.5948,-222.2026 137.9601,-227.4486"/>
</g>
<!-- s19 -->
<g id="node12" class="node">
<title>s19</title>
<polygon fill="none" stroke="#000000" points="137.5996,-162.6156 137.5996,-204.2156 194.0414,-204.2156 194.0414,-162.6156 137.5996,-162.6156"/>
<text text-anchor="middle" x="165.8205" y="-187.6156" font-family="Times,serif" font-size="14.00" fill="#000000">s19</text>
<text text-anchor="middle" x="165.8205" y="-170.8156" font-family="Times,serif" font-size="14.00" fill="#000000">→ SEQ</text>
</g>
<!-- s8&#45;&gt;s19 -->
<g id="edge14" class="edge">
<title>s8:p2&#45;&gt;s19</title>
<path fill="none" stroke="#000000" d="M101.5996,-183.4156C109.9225,-183.4156 118.8521,-183.4156 127.327,-183.4156"/>
<polygon fill="#000000" stroke="#000000" points="127.3675,-186.9157 137.3675,-183.4156 127.3675,-179.9157 127.3675,-186.9157"/>
</g>
<!-- s23 -->
<g id="node16" class="node">
<title>s23</title>
<polygon fill="none" stroke="#000000" points="137.5996,-93.6156 137.5996,-135.2156 194.0414,-135.2156 194.0414,-93.6156 137.5996,-93.6156"/>
<text text-anchor="middle" x="165.8205" y="-118.6156" font-family="Times,serif" font-size="14.00" fill="#000000">s23</text>
<text text-anchor="middle" x="165.8205" y="-101.8156" font-family="Times,serif" font-size="14.00" fill="#000000">→ SEQ</text>
</g>
<!-- s8&#45;&gt;s23 -->
<g id="edge20" class="edge">
<title>s8:p3&#45;&gt;s23</title>
<path fill="none" stroke="#000000" d="M101.5996,-158.4156C115.816,-158.4156 129.1921,-150.9871 140.0182,-142.2347"/>
<polygon fill="#000000" stroke="#000000" points="142.5948,-144.6287 147.7717,-135.3847 137.9601,-139.3827 142.5948,-144.6287"/>
</g>
<!-- s28 -->
<g id="node21" class="node">
<title>s28</title>
<polygon fill="none" stroke="#000000" points="137.5996,-24.6156 137.5996,-66.2156 194.0414,-66.2156 194.0414,-24.6156 137.5996,-24.6156"/>
<text text-anchor="middle" x="165.8205" y="-49.6156" font-family="Times,serif" font-size="14.00" fill="#000000">s28</text>
<text text-anchor="middle" x="165.8205" y="-32.8156" font-family="Times,serif" font-size="14.00" fill="#000000">→ SEQ</text>
</g>
<!-- s8&#45;&gt;s28 -->
<g id="edge28" class="edge">
<title>s8:p4&#45;&gt;s28</title>
<path fill="none" stroke="#000000" d="M91.7998,-121.4156C91.7998,-97.7768 110.4045,-78.7381 128.9592,-65.6285"/>
<polygon fill="#000000" stroke="#000000" points="131.0105,-68.468 137.4139,-60.0272 127.1443,-62.6325 131.0105,-68.468"/>
</g>
<!-- s10 -->
<g id="node3" class="node">
<title>s10</title>
<ellipse fill="none" stroke="#000000" cx="293.3205" cy="-337.4156" rx="63.059" ry="29.3315"/>
<text text-anchor="middle" x="293.3205" y="-341.6156" font-family="Times,serif" font-size="14.00" fill="#000000">s10 STRING</text>
<text text-anchor="middle" x="293.3205" y="-324.8156" font-family="Times,serif" font-size="14.00" fill="#000000">&quot;export&quot;</text>
</g>
<!-- s9&#45;&gt;s10 -->
<g id="edge1" class="edge">
<title>s9&#45;&gt;s10</title>
<path fill="none" stroke="#000000" d="M194.1169,-328.0788C202.2844,-328.8475 211.5903,-329.7234 221.1535,-330.6234"/>
<polygon fill="#000000" stroke="#000000" points="220.8914,-334.1142 231.1754,-331.5667 221.5474,-327.145 220.8914,-334.1142"/>
</g>
<!-- s11 -->
<g id="node4" class="node">
<title>s11</title>
<ellipse fill="none" stroke="#000000" cx="461.3829" cy="-337.4156" rx="63.059" ry="29.3315"/>
<text text-anchor="middle" x="461.3829" y="-341.6156" font-family="Times,serif" font-size="14.00" fill="#000000">s11 STRING</text>
<text text-anchor="middle" x="461.3829" y="-324.8156" font-family="Times,serif" font-size="14.00" fill="#000000">&quot;*&quot;</text>
</g>
<!-- s10&#45;&gt;s11 -->
<g id="edge2" class="edge">
<title>s10&#45;&gt;s11</title>
<path fill="none" stroke="#000000" d="M356.8577,-337.4156C366.9664,-337.4156 377.4965,-337.4156 387.813,-337.4156"/>
<polygon fill="#000000" stroke="#000000" points="388.0347,-340.9157 398.0347,-337.4156 388.0347,-333.9157 388.0347,-340.9157"/>
</g>
<!-- s12 -->
<g id="node5" class="node">
<title>s12</title>
<g id="a_node5"><a xlink:href="javascript-grammar.json._from_clause.dot.svg" xlink:title="s12 SYMBOL\n_from_clause">
<ellipse fill="none" stroke="#000000" cx="634.9494" cy="-337.4156" rx="68.5672" ry="29.3315"/>
<text text-anchor="middle" x="634.9494" y="-341.6156" font-family="Times,serif" font-size="14.00" fill="#000000">s12 SYMBOL</text>
<text text-anchor="middle" x="634.9494" y="-324.8156" font-family="Times,serif" font-size="14.00" fill="#000000">_from_clause</text>
</a>
</g>
</g>
<!-- s11&#45;&gt;s12 -->
<g id="edge3" class="edge">
<title>s11&#45;&gt;s12</title>
<path fill="none" stroke="#000000" d="M525.0271,-337.4156C535.0407,-337.4156 545.4977,-337.4156 555.8096,-337.4156"/>
<polygon fill="#000000" stroke="#000000" points="556.0514,-340.9157 566.0514,-337.4156 556.0513,-333.9157 556.0514,-340.9157"/>
</g>
<!-- s13 -->
<g id="node6" class="node">
<title>s13</title>
<g id="a_node6"><a xlink:href="javascript-grammar.json._semicolon.dot.svg" xlink:title="s13 SYMBOL\n_semicolon">
<ellipse fill="none" stroke="#000000" cx="808.5159" cy="-337.4156" rx="68.5672" ry="29.3315"/>
<text text-anchor="middle" x="808.5159" y="-341.6156" font-family="Times,serif" font-size="14.00" fill="#000000">s13 SYMBOL</text>
<text text-anchor="middle" x="808.5159" y="-324.8156" font-family="Times,serif" font-size="14.00" fill="#000000">_semicolon</text>
</a>
</g>
</g>
<!-- s12&#45;&gt;s13 -->
<g id="edge4" class="edge">
<title>s12&#45;&gt;s13</title>
<path fill="none" stroke="#000000" d="M704.0462,-337.4156C712.3801,-337.4156 720.9412,-337.4156 729.4043,-337.4156"/>
<polygon fill="#000000" stroke="#000000" points="729.6569,-340.9157 739.6568,-337.4156 729.6568,-333.9157 729.6569,-340.9157"/>
</g>
<!-- s15 -->
<g id="node8" class="node">
<title>s15</title>
<ellipse fill="none" stroke="#000000" cx="293.3205" cy="-260.4156" rx="63.059" ry="29.3315"/>
<text text-anchor="middle" x="293.3205" y="-264.6156" font-family="Times,serif" font-size="14.00" fill="#000000">s15 STRING</text>
<text text-anchor="middle" x="293.3205" y="-247.8156" font-family="Times,serif" font-size="14.00" fill="#000000">&quot;export&quot;</text>
</g>
<!-- s14&#45;&gt;s15 -->
<g id="edge6" class="edge">
<title>s14&#45;&gt;s15</title>
<path fill="none" stroke="#000000" d="M194.1169,-254.1911C202.0368,-254.688 211.0271,-255.2521 220.2844,-255.833"/>
<polygon fill="#000000" stroke="#000000" points="220.1968,-259.3343 230.3964,-256.4675 220.6352,-252.348 220.1968,-259.3343"/>
</g>
<!-- s16 -->
<g id="node9" class="node">
<title>s16</title>
<g id="a_node9"><a xlink:href="javascript-grammar.json.export_clause.dot.svg" xlink:title="s16 SYMBOL\nexport_clause">
<ellipse fill="none" stroke="#000000" cx="461.3829" cy="-260.4156" rx="68.5672" ry="29.3315"/>
<text text-anchor="middle" x="461.3829" y="-264.6156" font-family="Times,serif" font-size="14.00" fill="#000000">s16 SYMBOL</text>
<text text-anchor="middle" x="461.3829" y="-247.8156" font-family="Times,serif" font-size="14.00" fill="#000000">export_clause</text>
</a>
</g>
</g>
<!-- s15&#45;&gt;s16 -->
<g id="edge7" class="edge">
<title>s15&#45;&gt;s16</title>
<path fill="none" stroke="#000000" d="M356.8577,-260.4156C365.209,-260.4156 373.8479,-260.4156 382.4164,-260.4156"/>
<polygon fill="#000000" stroke="#000000" points="382.4212,-263.9157 392.4212,-260.4156 382.4211,-256.9157 382.4212,-263.9157"/>
</g>
<!-- s17 -->
<g id="node10" class="node">
<title>s17</title>
<g id="a_node10"><a xlink:href="javascript-grammar.json._from_clause.dot.svg" xlink:title="s17 SYMBOL\n_from_clause">
<ellipse fill="none" stroke="#000000" cx="634.9494" cy="-260.4156" rx="68.5672" ry="29.3315"/>
<text text-anchor="middle" x="634.9494" y="-264.6156" font-family="Times,serif" font-size="14.00" fill="#000000">s17 SYMBOL</text>
<text text-anchor="middle" x="634.9494" y="-247.8156" font-family="Times,serif" font-size="14.00" fill="#000000">_from_clause</text>
</a>
</g>
</g>
<!-- s16&#45;&gt;s17 -->
<g id="edge8" class="edge">
<title>s16&#45;&gt;s17</title>
<path fill="none" stroke="#000000" d="M530.4797,-260.4156C538.8136,-260.4156 547.3747,-260.4156 555.8378,-260.4156"/>
<polygon fill="#000000" stroke="#000000" points="556.0904,-263.9157 566.0903,-260.4156 556.0903,-256.9157 556.0904,-263.9157"/>
</g>
<!-- s18 -->
<g id="node11" class="node">
<title>s18</title>
<g id="a_node11"><a xlink:href="javascript-grammar.json._semicolon.dot.svg" xlink:title="s18 SYMBOL\n_semicolon">
<ellipse fill="none" stroke="#000000" cx="808.5159" cy="-260.4156" rx="68.5672" ry="29.3315"/>
<text text-anchor="middle" x="808.5159" y="-264.6156" font-family="Times,serif" font-size="14.00" fill="#000000">s18 SYMBOL</text>
<text text-anchor="middle" x="808.5159" y="-247.8156" font-family="Times,serif" font-size="14.00" fill="#000000">_semicolon</text>
</a>
</g>
</g>
<!-- s17&#45;&gt;s18 -->
<g id="edge9" class="edge">
<title>s17&#45;&gt;s18</title>
<path fill="none" stroke="#000000" d="M704.0462,-260.4156C712.3801,-260.4156 720.9412,-260.4156 729.4043,-260.4156"/>
<polygon fill="#000000" stroke="#000000" points="729.6569,-263.9157 739.6568,-260.4156 729.6568,-256.9157 729.6569,-263.9157"/>
</g>
<!-- s20 -->
<g id="node13" class="node">
<title>s20</title>
<ellipse fill="none" stroke="#000000" cx="293.3205" cy="-183.4156" rx="63.059" ry="29.3315"/>
<text text-anchor="middle" x="293.3205" y="-187.6156" font-family="Times,serif" font-size="14.00" fill="#000000">s20 STRING</text>
<text text-anchor="middle" x="293.3205" y="-170.8156" font-family="Times,serif" font-size="14.00" fill="#000000">&quot;export&quot;</text>
</g>
<!-- s19&#45;&gt;s20 -->
<g id="edge11" class="edge">
<title>s19&#45;&gt;s20</title>
<path fill="none" stroke="#000000" d="M194.1169,-183.4156C201.8459,-183.4156 210.5944,-183.4156 219.6156,-183.4156"/>
<polygon fill="#000000" stroke="#000000" points="219.877,-186.9157 229.8769,-183.4156 219.8769,-179.9157 219.877,-186.9157"/>
</g>
<!-- s21 -->
<g id="node14" class="node">
<title>s21</title>
<g id="a_node14"><a xlink:href="javascript-grammar.json.export_clause.dot.svg" xlink:title="s21 SYMBOL\nexport_clause">
<ellipse fill="none" stroke="#000000" cx="461.3829" cy="-183.4156" rx="68.5672" ry="29.3315"/>
<text text-anchor="middle" x="461.3829" y="-187.6156" font-family="Times,serif" font-size="14.00" fill="#000000">s21 SYMBOL</text>
<text text-anchor="middle" x="461.3829" y="-170.8156" font-family="Times,serif" font-size="14.00" fill="#000000">export_clause</text>
</a>
</g>
</g>
<!-- s20&#45;&gt;s21 -->
<g id="edge12" class="edge">
<title>s20&#45;&gt;s21</title>
<path fill="none" stroke="#000000" d="M356.8577,-183.4156C365.209,-183.4156 373.8479,-183.4156 382.4164,-183.4156"/>
<polygon fill="#000000" stroke="#000000" points="382.4212,-186.9157 392.4212,-183.4156 382.4211,-179.9157 382.4212,-186.9157"/>
</g>
<!-- s22 -->
<g id="node15" class="node">
<title>s22</title>
<g id="a_node15"><a xlink:href="javascript-grammar.json._semicolon.dot.svg" xlink:title="s22 SYMBOL\n_semicolon">
<ellipse fill="none" stroke="#000000" cx="634.9494" cy="-183.4156" rx="68.5672" ry="29.3315"/>
<text text-anchor="middle" x="634.9494" y="-187.6156" font-family="Times,serif" font-size="14.00" fill="#000000">s22 SYMBOL</text>
<text text-anchor="middle" x="634.9494" y="-170.8156" font-family="Times,serif" font-size="14.00" fill="#000000">_semicolon</text>
</a>
</g>
</g>
<!-- s21&#45;&gt;s22 -->
<g id="edge13" class="edge">
<title>s21&#45;&gt;s22</title>
<path fill="none" stroke="#000000" d="M530.4797,-183.4156C538.8136,-183.4156 547.3747,-183.4156 555.8378,-183.4156"/>
<polygon fill="#000000" stroke="#000000" points="556.0904,-186.9157 566.0903,-183.4156 556.0903,-179.9157 556.0904,-186.9157"/>
</g>
<!-- s24 -->
<g id="node17" class="node">
<title>s24</title>
<polygon fill="none" stroke="#000000" points="251.8787,-85.6156 251.8787,-127.2156 334.7623,-127.2156 334.7623,-85.6156 251.8787,-85.6156"/>
<text text-anchor="middle" x="293.3205" y="-110.6156" font-family="Times,serif" font-size="14.00" fill="#000000">s24</text>
<text text-anchor="middle" x="293.3205" y="-93.8156" font-family="Times,serif" font-size="14.00" fill="#000000">→ REPEAT</text>
</g>
<!-- s23&#45;&gt;s24 -->
<g id="edge17" class="edge">
<title>s23&#45;&gt;s24</title>
<path fill="none" stroke="#000000" d="M194.1169,-112.6402C207.9587,-111.7717 225.0701,-110.698 241.1619,-109.6883"/>
<polygon fill="#000000" stroke="#000000" points="241.7835,-113.1563 251.5447,-109.0369 241.3451,-106.1701 241.7835,-113.1563"/>
</g>
<!-- s25 -->
<g id="node18" class="node">
<title>s25</title>
<g id="a_node18"><a xlink:href="javascript-grammar.json.decorator.dot.svg" xlink:title="s25 SYMBOL\ndecorator">
<ellipse fill="none" stroke="#000000" cx="461.3829" cy="-106.4156" rx="68.5672" ry="29.3315"/>
<text text-anchor="middle" x="461.3829" y="-110.6156" font-family="Times,serif" font-size="14.00" fill="#000000">s25 SYMBOL</text>
<text text-anchor="middle" x="461.3829" y="-93.8156" font-family="Times,serif" font-size="14.00" fill="#000000">decorator</text>
</a>
</g>
</g>
<!-- s24&#45;&gt;s25 -->
<g id="edge15" class="edge">
<title>s24&#45;&gt;s25</title>
<path fill="none" stroke="#000000" d="M334.864,-100.4999C349.6754,-99.8636 366.8766,-99.5913 383.7334,-99.683"/>
<polygon fill="#000000" stroke="#000000" points="384.1256,-103.187 394.1601,-99.7871 384.1956,-96.1873 384.1256,-103.187"/>
</g>
<!-- s25&#45;&gt;s24 -->
<g id="edge16" class="edge">
<title>s25&#45;&gt;s24</title>
<path fill="none" stroke="#000000" d="M394.1601,-113.0442C377.8773,-113.2824 360.7165,-113.1702 345.2604,-112.7076"/>
<polygon fill="#000000" stroke="#000000" points="344.9841,-109.1954 334.864,-112.3314 344.7309,-116.1908 344.9841,-109.1954"/>
</g>
<!-- s26 -->
<g id="node19" class="node">
<title>s26</title>
<ellipse fill="none" stroke="#000000" cx="634.9494" cy="-106.4156" rx="63.059" ry="29.3315"/>
<text text-anchor="middle" x="634.9494" y="-110.6156" font-family="Times,serif" font-size="14.00" fill="#000000">s26 STRING</text>
<text text-anchor="middle" x="634.9494" y="-93.8156" font-family="Times,serif" font-size="14.00" fill="#000000">&quot;export&quot;</text>
</g>
<!-- s25&#45;&gt;s26 -->
<g id="edge18" class="edge">
<title>s25&#45;&gt;s26</title>
<path fill="none" stroke="#000000" d="M530.4797,-106.4156C540.6186,-106.4156 551.0939,-106.4156 561.3197,-106.4156"/>
<polygon fill="#000000" stroke="#000000" points="561.4407,-109.9157 571.4407,-106.4156 561.4407,-102.9157 561.4407,-109.9157"/>
</g>
<!-- s27 -->
<g id="node20" class="node">
<title>s27</title>
<g id="a_node20"><a xlink:href="javascript-grammar.json._declaration.dot.svg" xlink:title="s27 SYMBOL\n_declaration">
<ellipse fill="none" stroke="#000000" cx="808.5159" cy="-106.4156" rx="68.5672" ry="29.3315"/>
<text text-anchor="middle" x="808.5159" y="-110.6156" font-family="Times,serif" font-size="14.00" fill="#000000">s27 SYMBOL</text>
<text text-anchor="middle" x="808.5159" y="-93.8156" font-family="Times,serif" font-size="14.00" fill="#000000">_declaration</text>
</a>
</g>
</g>
<!-- s26&#45;&gt;s27 -->
<g id="edge19" class="edge">
<title>s26&#45;&gt;s27</title>
<path fill="none" stroke="#000000" d="M698.5936,-106.4156C708.6072,-106.4156 719.0642,-106.4156 729.3761,-106.4156"/>
<polygon fill="#000000" stroke="#000000" points="729.6179,-109.9157 739.6179,-106.4156 729.6178,-102.9157 729.6179,-109.9157"/>
</g>
<!-- s29 -->
<g id="node22" class="node">
<title>s29</title>
<polygon fill="none" stroke="#000000" points="251.8787,-8.6156 251.8787,-50.2156 334.7623,-50.2156 334.7623,-8.6156 251.8787,-8.6156"/>
<text text-anchor="middle" x="293.3205" y="-33.6156" font-family="Times,serif" font-size="14.00" fill="#000000">s29</text>
<text text-anchor="middle" x="293.3205" y="-16.8156" font-family="Times,serif" font-size="14.00" fill="#000000">→ REPEAT</text>
</g>
<!-- s28&#45;&gt;s29 -->
<g id="edge23" class="edge">
<title>s28&#45;&gt;s29</title>
<path fill="none" stroke="#000000" d="M194.1169,-41.8647C208.0905,-40.1112 225.3964,-37.9395 241.6214,-35.9034"/>
<polygon fill="#000000" stroke="#000000" points="242.0583,-39.3761 251.5447,-34.6581 241.1867,-32.4306 242.0583,-39.3761"/>
</g>
<!-- s30 -->
<g id="node23" class="node">
<title>s30</title>
<g id="a_node23"><a xlink:href="javascript-grammar.json.decorator.dot.svg" xlink:title="s30 SYMBOL\ndecorator">
<ellipse fill="none" stroke="#000000" cx="461.3829" cy="-29.4156" rx="68.5672" ry="29.3315"/>
<text text-anchor="middle" x="461.3829" y="-33.6156" font-family="Times,serif" font-size="14.00" fill="#000000">s30 SYMBOL</text>
<text text-anchor="middle" x="461.3829" y="-16.8156" font-family="Times,serif" font-size="14.00" fill="#000000">decorator</text>
</a>
</g>
</g>
<!-- s29&#45;&gt;s30 -->
<g id="edge21" class="edge">
<title>s29&#45;&gt;s30</title>
<path fill="none" stroke="#000000" d="M334.864,-23.4999C349.6754,-22.8636 366.8766,-22.5913 383.7334,-22.683"/>
<polygon fill="#000000" stroke="#000000" points="384.1256,-26.187 394.1601,-22.7871 384.1956,-19.1873 384.1256,-26.187"/>
</g>
<!-- s30&#45;&gt;s29 -->
<g id="edge22" class="edge">
<title>s30&#45;&gt;s29</title>
<path fill="none" stroke="#000000" d="M394.1601,-36.0442C377.8773,-36.2824 360.7165,-36.1702 345.2604,-35.7076"/>
<polygon fill="#000000" stroke="#000000" points="344.9841,-32.1954 334.864,-35.3314 344.7309,-39.1908 344.9841,-32.1954"/>
</g>
<!-- s31 -->
<g id="node24" class="node">
<title>s31</title>
<ellipse fill="none" stroke="#000000" cx="634.9494" cy="-29.4156" rx="63.059" ry="29.3315"/>
<text text-anchor="middle" x="634.9494" y="-33.6156" font-family="Times,serif" font-size="14.00" fill="#000000">s31 STRING</text>
<text text-anchor="middle" x="634.9494" y="-16.8156" font-family="Times,serif" font-size="14.00" fill="#000000">&quot;export&quot;</text>
</g>
<!-- s30&#45;&gt;s31 -->
<g id="edge24" class="edge">
<title>s30&#45;&gt;s31</title>
<path fill="none" stroke="#000000" d="M530.4797,-29.4156C540.6186,-29.4156 551.0939,-29.4156 561.3197,-29.4156"/>
<polygon fill="#000000" stroke="#000000" points="561.4407,-32.9157 571.4407,-29.4156 561.4407,-25.9157 561.4407,-32.9157"/>
</g>
<!-- s32 -->
<g id="node25" class="node">
<title>s32</title>
<ellipse fill="none" stroke="#000000" cx="808.5159" cy="-29.4156" rx="63.059" ry="29.3315"/>
<text text-anchor="middle" x="808.5159" y="-33.6156" font-family="Times,serif" font-size="14.00" fill="#000000">s32 STRING</text>
<text text-anchor="middle" x="808.5159" y="-16.8156" font-family="Times,serif" font-size="14.00" fill="#000000">&quot;default&quot;</text>
</g>
<!-- s31&#45;&gt;s32 -->
<g id="edge25" class="edge">
<title>s31&#45;&gt;s32</title>
<path fill="none" stroke="#000000" d="M698.5936,-29.4156C710.4605,-29.4156 722.9502,-29.4156 735.0832,-29.4156"/>
<polygon fill="#000000" stroke="#000000" points="735.1695,-32.9157 745.1695,-29.4156 735.1695,-25.9157 735.1695,-32.9157"/>
</g>
<!-- s33 -->
<g id="node26" class="node">
<title>s33</title>
<g id="a_node26"><a xlink:href="javascript-grammar.json._expression.dot.svg" xlink:title="s33 SYMBOL\n_expression">
<ellipse fill="none" stroke="#000000" cx="982.0824" cy="-29.4156" rx="68.5672" ry="29.3315"/>
<text text-anchor="middle" x="982.0824" y="-33.6156" font-family="Times,serif" font-size="14.00" fill="#000000">s33 SYMBOL</text>
<text text-anchor="middle" x="982.0824" y="-16.8156" font-family="Times,serif" font-size="14.00" fill="#000000">_expression</text>
</a>
</g>
</g>
<!-- s32&#45;&gt;s33 -->
<g id="edge26" class="edge">
<title>s32&#45;&gt;s33</title>
<path fill="none" stroke="#000000" d="M872.1601,-29.4156C882.1737,-29.4156 892.6307,-29.4156 902.9426,-29.4156"/>
<polygon fill="#000000" stroke="#000000" points="903.1844,-32.9157 913.1844,-29.4156 903.1843,-25.9157 903.1844,-32.9157"/>
</g>
<!-- s34 -->
<g id="node27" class="node">
<title>s34</title>
<g id="a_node27"><a xlink:href="javascript-grammar.json._semicolon.dot.svg" xlink:title="s34 SYMBOL\n_semicolon">
<ellipse fill="none" stroke="#000000" cx="1155.6489" cy="-29.4156" rx="68.5672" ry="29.3315"/>
<text text-anchor="middle" x="1155.6489" y="-33.6156" font-family="Times,serif" font-size="14.00" fill="#000000">s34 SYMBOL</text>
<text text-anchor="middle" x="1155.6489" y="-16.8156" font-family="Times,serif" font-size="14.00" fill="#000000">_semicolon</text>
</a>
</g>
</g>
<!-- s33&#45;&gt;s34 -->
<g id="edge27" class="edge">
<title>s33&#45;&gt;s34</title>
<path fill="none" stroke="#000000" d="M1051.1792,-29.4156C1059.5131,-29.4156 1068.0742,-29.4156 1076.5373,-29.4156"/>
<polygon fill="#000000" stroke="#000000" points="1076.7899,-32.9157 1086.7898,-29.4156 1076.7898,-25.9157 1076.7899,-32.9157"/>
</g>
</g>
</svg>
