<?xml version="1.0" encoding="UTF-8" standalone="no"?>
<!DOCTYPE svg PUBLIC "-//W3C//DTD SVG 1.1//EN"
 "http://www.w3.org/Graphics/SVG/1.1/DTD/svg11.dtd">
<!-- Generated by graphviz version 2.40.1 (20161225.0304)
 -->
<!-- Title: jsx_fragment Pages: 1 -->
<svg width="1229pt" height="67pt"
 viewBox="0.00 0.00 1229.08 66.83" xmlns="http://www.w3.org/2000/svg" xmlns:xlink="http://www.w3.org/1999/xlink">
<g id="graph0" class="graph" transform="scale(1 1) rotate(0) translate(4 62.8313)">
<title>jsx_fragment</title>
<polygon fill="#ffffff" stroke="transparent" points="-4,4 -4,-62.8313 1225.0801,-62.8313 1225.0801,4 -4,4"/>
<!-- s400 -->
<g id="node1" class="node">
<title>s400</title>
<polygon fill="none" stroke="#000000" points="0,-8.6156 0,-50.2156 56.4418,-50.2156 56.4418,-8.6156 0,-8.6156"/>
<text text-anchor="middle" x="28.2209" y="-33.6156" font-family="Times,serif" font-size="14.00" fill="#000000">s400</text>
<text text-anchor="middle" x="28.2209" y="-16.8156" font-family="Times,serif" font-size="14.00" fill="#000000">→ SEQ</text>
</g>
<!-- s401 -->
<g id="node2" class="node">
<title>s401</title>
<ellipse fill="none" stroke="#000000" cx="160.6707" cy="-29.4156" rx="68.4585" ry="29.3315"/>
<text text-anchor="middle" x="160.6707" y="-33.6156" font-family="Times,serif" font-size="14.00" fill="#000000">s401 STRING</text>
<text text-anchor="middle" x="160.6707" y="-16.8156" font-family="Times,serif" font-size="14.00" fill="#000000">&quot;&lt;&quot;</text>
</g>
<!-- s400&#45;&gt;s401 -->
<g id="edge1" class="edge">
<title>s400&#45;&gt;s401</title>
<path fill="none" stroke="#000000" d="M56.6347,-29.4156C64.3113,-29.4156 73.0073,-29.4156 82.0218,-29.4156"/>
<polygon fill="#000000" stroke="#000000" points="82.2976,-32.9157 92.2975,-29.4156 82.2975,-25.9157 82.2976,-32.9157"/>
</g>
<!-- s402 -->
<g id="node3" class="node">
<title>s402</title>
<ellipse fill="none" stroke="#000000" cx="333.1284" cy="-29.4156" rx="68.4585" ry="29.3315"/>
<text text-anchor="middle" x="333.1284" y="-33.6156" font-family="Times,serif" font-size="14.00" fill="#000000">s402 STRING</text>
<text text-anchor="middle" x="333.1284" y="-16.8156" font-family="Times,serif" font-size="14.00" fill="#000000">&quot;&gt;&quot;</text>
</g>
<!-- s401&#45;&gt;s402 -->
<g id="edge2" class="edge">
<title>s401&#45;&gt;s402</title>
<path fill="none" stroke="#000000" d="M229.3261,-29.4156C237.6067,-29.4156 246.1132,-29.4156 254.5222,-29.4156"/>
<polygon fill="#000000" stroke="#000000" points="254.7093,-32.9157 264.7092,-29.4156 254.7092,-25.9157 254.7093,-32.9157"/>
</g>
<!-- s403 -->
<g id="node4" class="node">
<title>s403</title>
<polygon fill="none" stroke="#000000" points="437.3573,-8.6156 437.3573,-50.2156 520.2409,-50.2156 520.2409,-8.6156 437.3573,-8.6156"/>
<text text-anchor="middle" x="478.7991" y="-33.6156" font-family="Times,serif" font-size="14.00" fill="#000000">s403</text>
<text text-anchor="middle" x="478.7991" y="-16.8156" font-family="Times,serif" font-size="14.00" fill="#000000">→ REPEAT</text>
</g>
<!-- s402&#45;&gt;s403 -->
<g id="edge5" class="edge">
<title>s402&#45;&gt;s403</title>
<path fill="none" stroke="#000000" d="M401.6982,-29.4156C410.2076,-29.4156 418.7949,-29.4156 426.9933,-29.4156"/>
<polygon fill="#000000" stroke="#000000" points="427.135,-32.9157 437.135,-29.4156 427.1349,-25.9157 427.135,-32.9157"/>
</g>
<!-- s404 -->
<g id="node5" class="node">
<title>s404</title>
<g id="a_node5"><a xlink:href="javascript-grammar.json._jsx_child.dot.svg" xlink:title="s404 SYMBOL\n_jsx_child">
<ellipse fill="none" stroke="#000000" cx="629.9739" cy="-29.4156" rx="73.9667" ry="29.3315"/>
<text text-anchor="middle" x="629.9739" y="-33.6156" font-family="Times,serif" font-size="14.00" fill="#000000">s404 SYMBOL</text>
<text text-anchor="middle" x="629.9739" y="-16.8156" font-family="Times,serif" font-size="14.00" fill="#000000">_jsx_child</text>
</a>
</g>
</g>
<!-- s403&#45;&gt;s404 -->
<g id="edge3" class="edge">
<title>s403&#45;&gt;s404</title>
<path fill="none" stroke="#000000" d="M520.5085,-23.3084C529.0446,-22.9618 538.3076,-22.7553 547.7094,-22.6891"/>
<polygon fill="#000000" stroke="#000000" points="547.9438,-26.1888 557.938,-22.6723 547.9322,-19.1888 547.9438,-26.1888"/>
</g>
<!-- s404&#45;&gt;s403 -->
<g id="edge4" class="edge">
<title>s404&#45;&gt;s403</title>
<path fill="none" stroke="#000000" d="M557.938,-36.159C548.7132,-36.1935 539.4177,-36.0936 530.6027,-35.8594"/>
<polygon fill="#000000" stroke="#000000" points="530.6196,-32.3581 520.5085,-35.5228 530.3862,-39.3543 530.6196,-32.3581"/>
</g>
<!-- s405 -->
<g id="node6" class="node">
<title>s405</title>
<ellipse fill="none" stroke="#000000" cx="807.9358" cy="-29.4156" rx="68.4585" ry="29.3315"/>
<text text-anchor="middle" x="807.9358" y="-33.6156" font-family="Times,serif" font-size="14.00" fill="#000000">s405 STRING</text>
<text text-anchor="middle" x="807.9358" y="-16.8156" font-family="Times,serif" font-size="14.00" fill="#000000">&quot;&lt;&quot;</text>
</g>
<!-- s404&#45;&gt;s405 -->
<g id="edge6" class="edge">
<title>s404&#45;&gt;s405</title>
<path fill="none" stroke="#000000" d="M703.8997,-29.4156C712.3184,-29.4156 720.9223,-29.4156 729.398,-29.4156"/>
<polygon fill="#000000" stroke="#000000" points="729.652,-32.9157 739.6519,-29.4156 729.6519,-25.9157 729.652,-32.9157"/>
</g>
<!-- s406 -->
<g id="node7" class="node">
<title>s406</title>
<ellipse fill="none" stroke="#000000" cx="980.3935" cy="-29.4156" rx="68.4585" ry="29.3315"/>
<text text-anchor="middle" x="980.3935" y="-33.6156" font-family="Times,serif" font-size="14.00" fill="#000000">s406 STRING</text>
<text text-anchor="middle" x="980.3935" y="-16.8156" font-family="Times,serif" font-size="14.00" fill="#000000">&quot;/&quot;</text>
</g>
<!-- s405&#45;&gt;s406 -->
<g id="edge7" class="edge">
<title>s405&#45;&gt;s406</title>
<path fill="none" stroke="#000000" d="M876.5912,-29.4156C884.8718,-29.4156 893.3783,-29.4156 901.7873,-29.4156"/>
<polygon fill="#000000" stroke="#000000" points="901.9744,-32.9157 911.9743,-29.4156 901.9743,-25.9157 901.9744,-32.9157"/>
</g>
<!-- s407 -->
<g id="node8" class="node">
<title>s407</title>
<ellipse fill="none" stroke="#000000" cx="1152.8513" cy="-29.4156" rx="68.4585" ry="29.3315"/>
<text text-anchor="middle" x="1152.8513" y="-33.6156" font-family="Times,serif" font-size="14.00" fill="#000000">s407 STRING</text>
<text text-anchor="middle" x="1152.8513" y="-16.8156" font-family="Times,serif" font-size="14.00" fill="#000000">&quot;&gt;&quot;</text>
</g>
<!-- s406&#45;&gt;s407 -->
<g id="edge8" class="edge">
<title>s406&#45;&gt;s407</title>
<path fill="none" stroke="#000000" d="M1049.0489,-29.4156C1057.3296,-29.4156 1065.836,-29.4156 1074.245,-29.4156"/>
<polygon fill="#000000" stroke="#000000" points="1074.4321,-32.9157 1084.4321,-29.4156 1074.432,-25.9157 1074.4321,-32.9157"/>
</g>
</g>
</svg>
