<?xml version="1.0" encoding="UTF-8" standalone="no"?>
<!DOCTYPE svg PUBLIC "-//W3C//DTD SVG 1.1//EN"
 "http://www.w3.org/Graphics/SVG/1.1/DTD/svg11.dtd">
<!-- Generated by graphviz version 2.40.1 (20161225.0304)
 -->
<!-- Title: jsx_attribute Pages: 1 -->
<svg width="942pt" height="136pt"
 viewBox="0.00 0.00 941.87 135.83" xmlns="http://www.w3.org/2000/svg" xmlns:xlink="http://www.w3.org/1999/xlink">
<g id="graph0" class="graph" transform="scale(1 1) rotate(0) translate(4 131.8313)">
<title>jsx_attribute</title>
<polygon fill="#ffffff" stroke="transparent" points="-4,4 -4,-131.8313 937.8688,-131.8313 937.8688,4 -4,4"/>
<!-- s462 -->
<g id="node1" class="node">
<title>s462</title>
<polygon fill="none" stroke="#000000" points="0,-42.6156 0,-84.2156 56.4418,-84.2156 56.4418,-42.6156 0,-42.6156"/>
<text text-anchor="middle" x="28.2209" y="-67.6156" font-family="Times,serif" font-size="14.00" fill="#000000">s462</text>
<text text-anchor="middle" x="28.2209" y="-50.8156" font-family="Times,serif" font-size="14.00" fill="#000000">→ SEQ</text>
</g>
<!-- s463 -->
<g id="node2" class="node">
<title>s463</title>
<g id="a_node2"><a xlink:href="javascript-grammar.json._jsx_attribute_name.dot.svg" xlink:title="s463 SYMBOL\n_jsx_attribute_name">
<ellipse fill="none" stroke="#000000" cx="184.5829" cy="-63.4156" rx="92.2824" ry="29.3315"/>
<text text-anchor="middle" x="184.5829" y="-67.6156" font-family="Times,serif" font-size="14.00" fill="#000000">s463 SYMBOL</text>
<text text-anchor="middle" x="184.5829" y="-50.8156" font-family="Times,serif" font-size="14.00" fill="#000000">_jsx_attribute_name</text>
</a>
</g>
</g>
<!-- s462&#45;&gt;s463 -->
<g id="edge1" class="edge">
<title>s462&#45;&gt;s463</title>
<path fill="none" stroke="#000000" d="M56.5369,-63.4156C64.1632,-63.4156 72.8759,-63.4156 82.0889,-63.4156"/>
<polygon fill="#000000" stroke="#000000" points="82.2546,-66.9157 92.2546,-63.4156 82.2546,-59.9157 82.2546,-66.9157"/>
</g>
<!-- s464 -->
<g id="node3" class="node">
<title>s464</title>
<polygon fill="none" stroke="#000000" points="312.724,-38.6156 312.724,-88.2156 414.3236,-88.2156 414.3236,-38.6156 312.724,-38.6156"/>
<text text-anchor="middle" x="353.7738" y="-67.6156" font-family="Times,serif" font-size="14.00" fill="#000000">s464</text>
<text text-anchor="middle" x="353.7738" y="-50.8156" font-family="Times,serif" font-size="14.00" fill="#000000">→ CHOICE</text>
<polyline fill="none" stroke="#000000" points="394.8236,-38.6156 394.8236,-88.2156 "/>
<text text-anchor="middle" x="404.5736" y="-71.6156" font-family="Times,serif" font-size="14.00" fill="#000000"> </text>
<polyline fill="none" stroke="#000000" points="394.8236,-63.4156 414.3236,-63.4156 "/>
<text text-anchor="middle" x="404.5736" y="-46.8156" font-family="Times,serif" font-size="14.00" fill="#000000"> </text>
</g>
<!-- s463&#45;&gt;s464 -->
<g id="edge6" class="edge">
<title>s463&#45;&gt;s464</title>
<path fill="none" stroke="#000000" d="M276.9362,-63.4156C285.5887,-63.4156 294.2053,-63.4156 302.4617,-63.4156"/>
<polygon fill="#000000" stroke="#000000" points="302.7028,-66.9157 312.7028,-63.4156 302.7027,-59.9157 302.7028,-66.9157"/>
</g>
<!-- s465 -->
<g id="node4" class="node">
<title>s465</title>
<polygon fill="none" stroke="#000000" points="467.5053,-77.6156 467.5053,-119.2156 523.9471,-119.2156 523.9471,-77.6156 467.5053,-77.6156"/>
<text text-anchor="middle" x="495.7262" y="-102.6156" font-family="Times,serif" font-size="14.00" fill="#000000">s465</text>
<text text-anchor="middle" x="495.7262" y="-85.8156" font-family="Times,serif" font-size="14.00" fill="#000000">→ SEQ</text>
</g>
<!-- s464&#45;&gt;s465 -->
<g id="edge4" class="edge">
<title>s464:p0&#45;&gt;s465</title>
<path fill="none" stroke="#000000" d="M414.3236,-75.4156C428.7179,-75.4156 444.0228,-78.7873 457.4309,-82.9487"/>
<polygon fill="#000000" stroke="#000000" points="456.674,-86.3862 467.2679,-86.2422 458.8965,-79.7484 456.674,-86.3862"/>
</g>
<!-- s468 -->
<g id="node7" class="node">
<title>s468</title>
<ellipse fill="none" stroke="#000000" cx="495.7262" cy="-29.4156" rx="45.3054" ry="29.3315"/>
<text text-anchor="middle" x="495.7262" y="-33.6156" font-family="Times,serif" font-size="14.00" fill="#000000">s468 </text>
<text text-anchor="middle" x="495.7262" y="-16.8156" font-family="Times,serif" font-size="14.00" fill="#000000">BLANK</text>
</g>
<!-- s464&#45;&gt;s468 -->
<g id="edge5" class="edge">
<title>s464:p1&#45;&gt;s468</title>
<path fill="none" stroke="#000000" d="M414.3236,-51.4156C424.9738,-51.4156 436.1448,-49.639 446.6804,-47.0954"/>
<polygon fill="#000000" stroke="#000000" points="447.7938,-50.4207 456.5493,-44.4547 445.9844,-43.6586 447.7938,-50.4207"/>
</g>
<!-- s466 -->
<g id="node5" class="node">
<title>s466</title>
<ellipse fill="none" stroke="#000000" cx="645.3577" cy="-98.4156" rx="68.4585" ry="29.3315"/>
<text text-anchor="middle" x="645.3577" y="-102.6156" font-family="Times,serif" font-size="14.00" fill="#000000">s466 STRING</text>
<text text-anchor="middle" x="645.3577" y="-85.8156" font-family="Times,serif" font-size="14.00" fill="#000000">&quot;=&quot;</text>
</g>
<!-- s465&#45;&gt;s466 -->
<g id="edge2" class="edge">
<title>s465&#45;&gt;s466</title>
<path fill="none" stroke="#000000" d="M524.223,-98.4156C536.5346,-98.4156 551.6051,-98.4156 566.8797,-98.4156"/>
<polygon fill="#000000" stroke="#000000" points="566.9198,-101.9157 576.9198,-98.4156 566.9197,-94.9157 566.9198,-101.9157"/>
</g>
<!-- s467 -->
<g id="node6" class="node">
<title>s467</title>
<g id="a_node6"><a xlink:href="javascript-grammar.json._jsx_attribute_value.dot.svg" xlink:title="s467 SYMBOL\n_jsx_attribute_value">
<ellipse fill="none" stroke="#000000" cx="841.7277" cy="-98.4156" rx="92.2824" ry="29.3315"/>
<text text-anchor="middle" x="841.7277" y="-102.6156" font-family="Times,serif" font-size="14.00" fill="#000000">s467 SYMBOL</text>
<text text-anchor="middle" x="841.7277" y="-85.8156" font-family="Times,serif" font-size="14.00" fill="#000000">_jsx_attribute_value</text>
</a>
</g>
</g>
<!-- s466&#45;&gt;s467 -->
<g id="edge3" class="edge">
<title>s466&#45;&gt;s467</title>
<path fill="none" stroke="#000000" d="M713.7627,-98.4156C722.0367,-98.4156 730.6222,-98.4156 739.2521,-98.4156"/>
<polygon fill="#000000" stroke="#000000" points="739.3871,-101.9157 749.3871,-98.4156 739.387,-94.9157 739.3871,-101.9157"/>
</g>
</g>
</svg>
