<?xml version="1.0" encoding="UTF-8" standalone="no"?>
<!DOCTYPE svg PUBLIC "-//W3C//DTD SVG 1.1//EN"
 "http://www.w3.org/Graphics/SVG/1.1/DTD/svg11.dtd">
<!-- Generated by graphviz version 2.40.1 (20161225.0304)
 -->
<!-- Title: variable_declaration Pages: 1 -->
<svg width="1227pt" height="157pt"
 viewBox="0.00 0.00 1227.00 156.72" xmlns="http://www.w3.org/2000/svg" xmlns:xlink="http://www.w3.org/1999/xlink">
<g id="graph0" class="graph" transform="scale(1 1) rotate(0) translate(4 152.7156)">
<title>variable_declaration</title>
<polygon fill="#ffffff" stroke="transparent" points="-4,4 -4,-152.7156 1223.0049,-152.7156 1223.0049,4 -4,4"/>
<!-- s138 -->
<g id="node1" class="node">
<title>s138</title>
<polygon fill="none" stroke="#000000" points="0,-37.6156 0,-79.2156 56.4418,-79.2156 56.4418,-37.6156 0,-37.6156"/>
<text text-anchor="middle" x="28.2209" y="-62.6156" font-family="Times,serif" font-size="14.00" fill="#000000">s138</text>
<text text-anchor="middle" x="28.2209" y="-45.8156" font-family="Times,serif" font-size="14.00" fill="#000000">→ SEQ</text>
</g>
<!-- s139 -->
<g id="node2" class="node">
<title>s139</title>
<ellipse fill="none" stroke="#000000" cx="160.6707" cy="-58.4156" rx="68.4585" ry="29.3315"/>
<text text-anchor="middle" x="160.6707" y="-62.6156" font-family="Times,serif" font-size="14.00" fill="#000000">s139 STRING</text>
<text text-anchor="middle" x="160.6707" y="-45.8156" font-family="Times,serif" font-size="14.00" fill="#000000">&quot;var&quot;</text>
</g>
<!-- s138&#45;&gt;s139 -->
<g id="edge1" class="edge">
<title>s138&#45;&gt;s139</title>
<path fill="none" stroke="#000000" d="M56.6347,-58.4156C64.3113,-58.4156 73.0073,-58.4156 82.0218,-58.4156"/>
<polygon fill="#000000" stroke="#000000" points="82.2976,-61.9157 92.2975,-58.4156 82.2975,-54.9157 82.2976,-61.9157"/>
</g>
<!-- s140 -->
<g id="node3" class="node">
<title>s140</title>
<polygon fill="none" stroke="#000000" points="264.8995,-37.6156 264.8995,-79.2156 321.3413,-79.2156 321.3413,-37.6156 264.8995,-37.6156"/>
<text text-anchor="middle" x="293.1204" y="-62.6156" font-family="Times,serif" font-size="14.00" fill="#000000">s140</text>
<text text-anchor="middle" x="293.1204" y="-45.8156" font-family="Times,serif" font-size="14.00" fill="#000000">→ SEQ</text>
</g>
<!-- s139&#45;&gt;s140 -->
<g id="edge8" class="edge">
<title>s139&#45;&gt;s140</title>
<path fill="none" stroke="#000000" d="M229.2234,-58.4156C237.9135,-58.4156 246.5502,-58.4156 254.5338,-58.4156"/>
<polygon fill="#000000" stroke="#000000" points="254.6024,-61.9157 264.6024,-58.4156 254.6024,-54.9157 254.6024,-61.9157"/>
</g>
<!-- s141 -->
<g id="node4" class="node">
<title>s141</title>
<g id="a_node4"><a xlink:href="javascript-grammar.json.variable_declarator.dot.svg" xlink:title="s141 SYMBOL\nvariable_declarator">
<ellipse fill="none" stroke="#000000" cx="445.0554" cy="-58.4156" rx="87.9286" ry="29.3315"/>
<text text-anchor="middle" x="445.0554" y="-62.6156" font-family="Times,serif" font-size="14.00" fill="#000000">s141 SYMBOL</text>
<text text-anchor="middle" x="445.0554" y="-45.8156" font-family="Times,serif" font-size="14.00" fill="#000000">variable_declarator</text>
</a>
</g>
</g>
<!-- s140&#45;&gt;s141 -->
<g id="edge2" class="edge">
<title>s140&#45;&gt;s141</title>
<path fill="none" stroke="#000000" d="M321.3422,-58.4156C329.0309,-58.4156 337.8169,-58.4156 347.0808,-58.4156"/>
<polygon fill="#000000" stroke="#000000" points="347.2914,-61.9157 357.2913,-58.4156 347.2913,-54.9157 347.2914,-61.9157"/>
</g>
<!-- s142 -->
<g id="node5" class="node">
<title>s142</title>
<polygon fill="none" stroke="#000000" points="568.7695,-37.6156 568.7695,-79.2156 651.6531,-79.2156 651.6531,-37.6156 568.7695,-37.6156"/>
<text text-anchor="middle" x="610.2113" y="-62.6156" font-family="Times,serif" font-size="14.00" fill="#000000">s142</text>
<text text-anchor="middle" x="610.2113" y="-45.8156" font-family="Times,serif" font-size="14.00" fill="#000000">→ REPEAT</text>
</g>
<!-- s141&#45;&gt;s142 -->
<g id="edge7" class="edge">
<title>s141&#45;&gt;s142</title>
<path fill="none" stroke="#000000" d="M532.9525,-58.4156C541.7272,-58.4156 550.4215,-58.4156 558.6369,-58.4156"/>
<polygon fill="#000000" stroke="#000000" points="558.757,-61.9157 568.757,-58.4156 558.7569,-54.9157 558.757,-61.9157"/>
</g>
<!-- s143 -->
<g id="node6" class="node">
<title>s143</title>
<polygon fill="none" stroke="#000000" points="733.1651,-106.6156 733.1651,-148.2156 789.6069,-148.2156 789.6069,-106.6156 733.1651,-106.6156"/>
<text text-anchor="middle" x="761.386" y="-131.6156" font-family="Times,serif" font-size="14.00" fill="#000000">s143</text>
<text text-anchor="middle" x="761.386" y="-114.8156" font-family="Times,serif" font-size="14.00" fill="#000000">→ SEQ</text>
</g>
<!-- s142&#45;&gt;s143 -->
<g id="edge5" class="edge">
<title>s142&#45;&gt;s143</title>
<path fill="none" stroke="#000000" d="M651.7979,-79.3738C663.3443,-85.0417 675.9304,-91.0807 687.6531,-96.4156 699.2058,-101.6733 711.9088,-107.1285 723.4677,-111.97"/>
<polygon fill="#000000" stroke="#000000" points="722.2803,-115.2668 732.8577,-115.8746 724.968,-108.8033 722.2803,-115.2668"/>
</g>
<!-- s146 -->
<g id="node9" class="node">
<title>s146</title>
<g id="a_node9"><a xlink:href="javascript-grammar.json._semicolon.dot.svg" xlink:title="s146 SYMBOL\n_semicolon">
<ellipse fill="none" stroke="#000000" cx="761.386" cy="-58.4156" rx="73.9667" ry="29.3315"/>
<text text-anchor="middle" x="761.386" y="-62.6156" font-family="Times,serif" font-size="14.00" fill="#000000">s146 SYMBOL</text>
<text text-anchor="middle" x="761.386" y="-45.8156" font-family="Times,serif" font-size="14.00" fill="#000000">_semicolon</text>
</a>
</g>
</g>
<!-- s142&#45;&gt;s146 -->
<g id="edge9" class="edge">
<title>s142&#45;&gt;s146</title>
<path fill="none" stroke="#000000" d="M651.9206,-58.4156C659.985,-58.4156 668.698,-58.4156 677.5639,-58.4156"/>
<polygon fill="#000000" stroke="#000000" points="677.6125,-61.9157 687.6125,-58.4156 677.6124,-54.9157 677.6125,-61.9157"/>
</g>
<!-- s144 -->
<g id="node7" class="node">
<title>s144</title>
<ellipse fill="none" stroke="#000000" cx="939.3479" cy="-92.4156" rx="68.4585" ry="29.3315"/>
<text text-anchor="middle" x="939.3479" y="-96.6156" font-family="Times,serif" font-size="14.00" fill="#000000">s144 STRING</text>
<text text-anchor="middle" x="939.3479" y="-79.8156" font-family="Times,serif" font-size="14.00" fill="#000000">&quot;,&quot;</text>
</g>
<!-- s143&#45;&gt;s144 -->
<g id="edge3" class="edge">
<title>s143&#45;&gt;s144</title>
<path fill="none" stroke="#000000" d="M789.9787,-121.7923C810.8928,-117.6791 840.2343,-111.9084 867.3811,-106.5694"/>
<polygon fill="#000000" stroke="#000000" points="868.127,-109.9899 877.2636,-104.6258 866.7761,-103.1215 868.127,-109.9899"/>
</g>
<!-- s145 -->
<g id="node8" class="node">
<title>s145</title>
<g id="a_node8"><a xlink:href="javascript-grammar.json.variable_declarator.dot.svg" xlink:title="s145 SYMBOL\nvariable_declarator">
<ellipse fill="none" stroke="#000000" cx="1131.2908" cy="-29.4156" rx="87.9286" ry="29.3315"/>
<text text-anchor="middle" x="1131.2908" y="-33.6156" font-family="Times,serif" font-size="14.00" fill="#000000">s145 SYMBOL</text>
<text text-anchor="middle" x="1131.2908" y="-16.8156" font-family="Times,serif" font-size="14.00" fill="#000000">variable_declarator</text>
</a>
</g>
</g>
<!-- s144&#45;&gt;s145 -->
<g id="edge4" class="edge">
<title>s144&#45;&gt;s145</title>
<path fill="none" stroke="#000000" d="M993.8376,-74.5309C1014.0214,-67.9061 1037.2364,-60.2864 1058.7728,-53.2177"/>
<polygon fill="#000000" stroke="#000000" points="1060.1231,-56.4583 1068.5329,-50.0142 1057.9401,-49.8074 1060.1231,-56.4583"/>
</g>
<!-- s145&#45;&gt;s142 -->
<g id="edge6" class="edge">
<title>s145&#45;&gt;s142</title>
<path fill="none" stroke="#000000" d="M1052.7502,-16.3054C963.1289,-3.9813 812.7841,8.6305 687.6531,-20.4156 676.1443,-23.0871 664.3743,-27.7208 653.5972,-32.8536"/>
<polygon fill="#000000" stroke="#000000" points="651.7855,-29.8466 644.4134,-37.456 654.9217,-36.1047 651.7855,-29.8466"/>
</g>
</g>
</svg>
