<?xml version="1.0" encoding="UTF-8" standalone="no"?>
<!DOCTYPE svg PUBLIC "-//W3C//DTD SVG 1.1//EN"
 "http://www.w3.org/Graphics/SVG/1.1/DTD/svg11.dtd">
<!-- Generated by graphviz version 2.40.1 (20161225.0304)
 -->
<!-- Title: nested_identifier Pages: 1 -->
<svg width="949pt" height="144pt"
 viewBox="0.00 0.00 948.72 143.83" xmlns="http://www.w3.org/2000/svg" xmlns:xlink="http://www.w3.org/1999/xlink">
<g id="graph0" class="graph" transform="scale(1 1) rotate(0) translate(4 139.8313)">
<title>nested_identifier</title>
<polygon fill="#ffffff" stroke="transparent" points="-4,4 -4,-139.8313 944.7234,-139.8313 944.7234,4 -4,4"/>
<!-- s428 -->
<g id="node1" class="node">
<title>s428</title>
<polygon fill="none" stroke="#000000" points="0,-46.6156 0,-88.2156 65.0084,-88.2156 65.0084,-46.6156 0,-46.6156"/>
<text text-anchor="middle" x="32.5042" y="-71.6156" font-family="Times,serif" font-size="14.00" fill="#000000">s428</text>
<text text-anchor="middle" x="32.5042" y="-54.8156" font-family="Times,serif" font-size="14.00" fill="#000000">→ PREC</text>
</g>
<!-- s429 -->
<g id="node2" class="node">
<title>s429</title>
<polygon fill="none" stroke="#000000" points="102.0084,-46.6156 102.0084,-88.2156 158.4502,-88.2156 158.4502,-46.6156 102.0084,-46.6156"/>
<text text-anchor="middle" x="130.2293" y="-71.6156" font-family="Times,serif" font-size="14.00" fill="#000000">s429</text>
<text text-anchor="middle" x="130.2293" y="-54.8156" font-family="Times,serif" font-size="14.00" fill="#000000">→ SEQ</text>
</g>
<!-- s428&#45;&gt;s429 -->
<g id="edge7" class="edge">
<title>s428&#45;&gt;s429</title>
<path fill="none" stroke="#000000" d="M65.0452,-67.4156C73.5855,-67.4156 82.8774,-67.4156 91.6984,-67.4156"/>
<polygon fill="#000000" stroke="#000000" points="91.7642,-70.9157 101.7641,-67.4156 91.7641,-63.9157 91.7642,-70.9157"/>
</g>
<!-- s430 -->
<g id="node3" class="node">
<title>s430</title>
<polygon fill="none" stroke="#000000" points="195.4502,-42.6156 195.4502,-92.2156 297.0498,-92.2156 297.0498,-42.6156 195.4502,-42.6156"/>
<text text-anchor="middle" x="236.5" y="-71.6156" font-family="Times,serif" font-size="14.00" fill="#000000">s430</text>
<text text-anchor="middle" x="236.5" y="-54.8156" font-family="Times,serif" font-size="14.00" fill="#000000">→ CHOICE</text>
<polyline fill="none" stroke="#000000" points="277.5498,-42.6156 277.5498,-92.2156 "/>
<text text-anchor="middle" x="287.2998" y="-75.6156" font-family="Times,serif" font-size="14.00" fill="#000000"> </text>
<polyline fill="none" stroke="#000000" points="277.5498,-67.4156 297.0498,-67.4156 "/>
<text text-anchor="middle" x="287.2998" y="-50.8156" font-family="Times,serif" font-size="14.00" fill="#000000"> </text>
</g>
<!-- s429&#45;&gt;s430 -->
<g id="edge3" class="edge">
<title>s429&#45;&gt;s430</title>
<path fill="none" stroke="#000000" d="M158.6112,-67.4156C166.6908,-67.4156 175.8186,-67.4156 185.0543,-67.4156"/>
<polygon fill="#000000" stroke="#000000" points="185.0741,-70.9157 195.0741,-67.4156 185.074,-63.9157 185.0741,-70.9157"/>
</g>
<!-- s431 -->
<g id="node4" class="node">
<title>s431</title>
<g id="a_node4"><a xlink:href="javascript-grammar.json.identifier.dot.svg" xlink:title="s431 SYMBOL\nidentifier">
<ellipse fill="none" stroke="#000000" cx="504.9633" cy="-106.4156" rx="73.9667" ry="29.3315"/>
<text text-anchor="middle" x="504.9633" y="-110.6156" font-family="Times,serif" font-size="14.00" fill="#000000">s431 SYMBOL</text>
<text text-anchor="middle" x="504.9633" y="-93.8156" font-family="Times,serif" font-size="14.00" fill="#000000">identifier</text>
</a>
</g>
</g>
<!-- s430&#45;&gt;s431 -->
<g id="edge1" class="edge">
<title>s430:p0&#45;&gt;s431</title>
<path fill="none" stroke="#000000" d="M297.0498,-79.4156C340.9144,-79.4156 389.5543,-85.3988 428.7534,-91.732"/>
<polygon fill="#000000" stroke="#000000" points="428.3286,-95.2093 438.7661,-93.3902 429.4723,-88.3033 428.3286,-95.2093"/>
<text text-anchor="middle" x="362.0884" y="-91.6156" font-family="Times,serif" font-size="14.00" fill="#000000">identifier</text>
</g>
<!-- s432 -->
<g id="node5" class="node">
<title>s432</title>
<g id="a_node5"><a xlink:href="javascript-grammar.json.nested_identifier.dot.svg" xlink:title="s432 SYMBOL\nnested_identifier">
<ellipse fill="none" stroke="#000000" cx="504.9633" cy="-29.4156" rx="77.673" ry="29.3315"/>
<text text-anchor="middle" x="504.9633" y="-33.6156" font-family="Times,serif" font-size="14.00" fill="#000000">s432 SYMBOL</text>
<text text-anchor="middle" x="504.9633" y="-16.8156" font-family="Times,serif" font-size="14.00" fill="#000000">nested_identifier</text>
</a>
</g>
</g>
<!-- s430&#45;&gt;s432 -->
<g id="edge2" class="edge">
<title>s430:p1&#45;&gt;s432</title>
<path fill="none" stroke="#000000" d="M297.0498,-55.4156C339.4591,-55.4156 386.3609,-50.0236 424.8682,-44.1505"/>
<polygon fill="#000000" stroke="#000000" points="425.6425,-47.572 434.9812,-42.568 424.5603,-40.6562 425.6425,-47.572"/>
<text text-anchor="middle" x="362.0884" y="-58.6156" font-family="Times,serif" font-size="14.00" fill="#000000">nested_identifier</text>
</g>
<!-- s433 -->
<g id="node6" class="node">
<title>s433</title>
<ellipse fill="none" stroke="#000000" cx="688.0285" cy="-67.4156" rx="68.4585" ry="29.3315"/>
<text text-anchor="middle" x="688.0285" y="-71.6156" font-family="Times,serif" font-size="14.00" fill="#000000">s433 STRING</text>
<text text-anchor="middle" x="688.0285" y="-54.8156" font-family="Times,serif" font-size="14.00" fill="#000000">&quot;.&quot;</text>
</g>
<!-- s431&#45;&gt;s433 -->
<g id="edge4" class="edge">
<title>s431&#45;&gt;s433</title>
<path fill="none" stroke="#000000" d="M570.0207,-92.5559C585.1954,-89.3231 601.4322,-85.864 616.8565,-82.5781"/>
<polygon fill="#000000" stroke="#000000" points="617.8045,-85.9547 626.8557,-80.4478 616.3459,-79.1083 617.8045,-85.9547"/>
</g>
<!-- s432&#45;&gt;s433 -->
<g id="edge5" class="edge">
<title>s432&#45;&gt;s433</title>
<path fill="none" stroke="#000000" d="M573.3904,-43.6195C587.3648,-46.5202 602.1079,-49.5806 616.1973,-52.5052"/>
<polygon fill="#000000" stroke="#000000" points="615.818,-56.001 626.3207,-54.6066 617.2408,-49.1471 615.818,-56.001"/>
</g>
<!-- s434 -->
<g id="node7" class="node">
<title>s434</title>
<g id="a_node7"><a xlink:href="javascript-grammar.json.identifier.dot.svg" xlink:title="s434 SYMBOL\nidentifier">
<ellipse fill="none" stroke="#000000" cx="866.9904" cy="-67.4156" rx="73.9667" ry="29.3315"/>
<text text-anchor="middle" x="866.9904" y="-71.6156" font-family="Times,serif" font-size="14.00" fill="#000000">s434 SYMBOL</text>
<text text-anchor="middle" x="866.9904" y="-54.8156" font-family="Times,serif" font-size="14.00" fill="#000000">identifier</text>
</a>
</g>
</g>
<!-- s433&#45;&gt;s434 -->
<g id="edge6" class="edge">
<title>s433&#45;&gt;s434</title>
<path fill="none" stroke="#000000" d="M756.4524,-67.4156C765.199,-67.4156 774.2302,-67.4156 783.1853,-67.4156"/>
<polygon fill="#000000" stroke="#000000" points="783.2443,-70.9157 793.2443,-67.4156 783.2443,-63.9157 783.2443,-70.9157"/>
</g>
</g>
</svg>
