<?xml version="1.0" encoding="UTF-8" standalone="no"?>
<!DOCTYPE svg PUBLIC "-//W3C//DTD SVG 1.1//EN"
 "http://www.w3.org/Graphics/SVG/1.1/DTD/svg11.dtd">
<!-- Generated by graphviz version 2.40.1 (20161225.0304)
 -->
<!-- Title: template_string Pages: 1 -->
<svg width="1019pt" height="221pt"
 viewBox="0.00 0.00 1019.50 220.83" xmlns="http://www.w3.org/2000/svg" xmlns:xlink="http://www.w3.org/1999/xlink">
<g id="graph0" class="graph" transform="scale(1 1) rotate(0) translate(4 216.8313)">
<title>template_string</title>
<polygon fill="#ffffff" stroke="transparent" points="-4,4 -4,-216.8313 1015.4975,-216.8313 1015.4975,4 -4,4"/>
<!-- s657 -->
<g id="node1" class="node">
<title>s657</title>
<polygon fill="none" stroke="#000000" points="0,-68.6156 0,-110.2156 56.4418,-110.2156 56.4418,-68.6156 0,-68.6156"/>
<text text-anchor="middle" x="28.2209" y="-93.6156" font-family="Times,serif" font-size="14.00" fill="#000000">s657</text>
<text text-anchor="middle" x="28.2209" y="-76.8156" font-family="Times,serif" font-size="14.00" fill="#000000">→ SEQ</text>
</g>
<!-- s658 -->
<g id="node2" class="node">
<title>s658</title>
<ellipse fill="none" stroke="#000000" cx="161.6707" cy="-89.4156" rx="68.4585" ry="29.3315"/>
<text text-anchor="middle" x="161.6707" y="-93.6156" font-family="Times,serif" font-size="14.00" fill="#000000">s658 STRING</text>
<text text-anchor="middle" x="161.6707" y="-76.8156" font-family="Times,serif" font-size="14.00" fill="#000000">&quot;`&quot;</text>
</g>
<!-- s657&#45;&gt;s658 -->
<g id="edge1" class="edge">
<title>s657&#45;&gt;s658</title>
<path fill="none" stroke="#000000" d="M56.5222,-89.4156C64.5856,-89.4156 73.7846,-89.4156 83.3101,-89.4156"/>
<polygon fill="#000000" stroke="#000000" points="83.321,-92.9157 93.321,-89.4156 83.3209,-85.9157 83.321,-92.9157"/>
</g>
<!-- s659 -->
<g id="node3" class="node">
<title>s659</title>
<polygon fill="none" stroke="#000000" points="266.8995,-68.6156 266.8995,-110.2156 349.7831,-110.2156 349.7831,-68.6156 266.8995,-68.6156"/>
<text text-anchor="middle" x="308.3413" y="-93.6156" font-family="Times,serif" font-size="14.00" fill="#000000">s659</text>
<text text-anchor="middle" x="308.3413" y="-76.8156" font-family="Times,serif" font-size="14.00" fill="#000000">→ REPEAT</text>
</g>
<!-- s658&#45;&gt;s659 -->
<g id="edge9" class="edge">
<title>s658&#45;&gt;s659</title>
<path fill="none" stroke="#000000" d="M230.2822,-89.4156C239.081,-89.4156 247.9708,-89.4156 256.4422,-89.4156"/>
<polygon fill="#000000" stroke="#000000" points="256.5338,-92.9157 266.5338,-89.4156 256.5337,-85.9157 256.5338,-92.9157"/>
</g>
<!-- s660 -->
<g id="node4" class="node">
<title>s660</title>
<polygon fill="none" stroke="#000000" points="386.7831,-86.2156 386.7831,-160.6156 488.3827,-160.6156 488.3827,-86.2156 386.7831,-86.2156"/>
<text text-anchor="middle" x="427.8329" y="-127.6156" font-family="Times,serif" font-size="14.00" fill="#000000">s660</text>
<text text-anchor="middle" x="427.8329" y="-110.8156" font-family="Times,serif" font-size="14.00" fill="#000000">→ CHOICE</text>
<polyline fill="none" stroke="#000000" points="468.8827,-86.2156 468.8827,-160.6156 "/>
<text text-anchor="middle" x="478.6327" y="-144.0156" font-family="Times,serif" font-size="14.00" fill="#000000"> </text>
<polyline fill="none" stroke="#000000" points="468.8827,-135.8156 488.3827,-135.8156 "/>
<text text-anchor="middle" x="478.6327" y="-119.2156" font-family="Times,serif" font-size="14.00" fill="#000000"> </text>
<polyline fill="none" stroke="#000000" points="468.8827,-111.0156 488.3827,-111.0156 "/>
<text text-anchor="middle" x="478.6327" y="-94.4156" font-family="Times,serif" font-size="14.00" fill="#000000"> </text>
</g>
<!-- s659&#45;&gt;s660 -->
<g id="edge5" class="edge">
<title>s659&#45;&gt;s660</title>
<path fill="none" stroke="#000000" d="M349.9456,-100.3606C358.5078,-102.6131 367.6901,-105.0287 376.7717,-107.4178"/>
<polygon fill="#000000" stroke="#000000" points="375.9911,-110.8315 386.5525,-109.9909 377.7721,-104.0618 375.9911,-110.8315"/>
</g>
<!-- s661 -->
<g id="node5" class="node">
<title>s661</title>
<g id="a_node5"><a xlink:href="javascript-grammar.json._template_chars.dot.svg" xlink:title="s661 SYMBOL\n_template_chars">
<ellipse fill="none" stroke="#000000" cx="741.4854" cy="-183.4156" rx="76.3687" ry="29.3315"/>
<text text-anchor="middle" x="741.4854" y="-187.6156" font-family="Times,serif" font-size="14.00" fill="#000000">s661 SYMBOL</text>
<text text-anchor="middle" x="741.4854" y="-170.8156" font-family="Times,serif" font-size="14.00" fill="#000000">_template_chars</text>
</a>
</g>
</g>
<!-- s660&#45;&gt;s661 -->
<g id="edge2" class="edge">
<title>s660:p0&#45;&gt;s661</title>
<path fill="none" stroke="#000000" d="M488.3827,-148.4156C547.9359,-148.4156 614.6344,-158.0411 664.606,-167.1966"/>
<polygon fill="#000000" stroke="#000000" points="664.2157,-170.6841 674.6882,-169.0788 665.5004,-163.803 664.2157,-170.6841"/>
<text text-anchor="middle" x="566.6569" y="-165.6156" font-family="Times,serif" font-size="14.00" fill="#000000">_template_chars</text>
</g>
<!-- s662 -->
<g id="node6" class="node">
<title>s662</title>
<g id="a_node6"><a xlink:href="javascript-grammar.json.escape_sequence.dot.svg" xlink:title="s662 SYMBOL\nescape_sequence">
<ellipse fill="none" stroke="#000000" cx="741.4854" cy="-106.4156" rx="78.8348" ry="29.3315"/>
<text text-anchor="middle" x="741.4854" y="-110.6156" font-family="Times,serif" font-size="14.00" fill="#000000">s662 SYMBOL</text>
<text text-anchor="middle" x="741.4854" y="-93.8156" font-family="Times,serif" font-size="14.00" fill="#000000">escape_sequence</text>
</a>
</g>
</g>
<!-- s660&#45;&gt;s662 -->
<g id="edge3" class="edge">
<title>s660:p1&#45;&gt;s662</title>
<path fill="none" stroke="#000000" d="M488.3827,-123.4156C543.8892,-123.4156 606.0892,-119.2951 654.9381,-115.1113"/>
<polygon fill="#000000" stroke="#000000" points="655.4947,-118.5761 665.1521,-114.2191 654.8854,-111.6027 655.4947,-118.5761"/>
<text text-anchor="middle" x="566.6569" y="-127.6156" font-family="Times,serif" font-size="14.00" fill="#000000">escape_sequence</text>
</g>
<!-- s663 -->
<g id="node7" class="node">
<title>s663</title>
<g id="a_node7"><a xlink:href="javascript-grammar.json.template_substitution.dot.svg" xlink:title="s663 SYMBOL\ntemplate_substitution">
<ellipse fill="none" stroke="#000000" cx="741.4854" cy="-29.4156" rx="96.6086" ry="29.3315"/>
<text text-anchor="middle" x="741.4854" y="-33.6156" font-family="Times,serif" font-size="14.00" fill="#000000">s663 SYMBOL</text>
<text text-anchor="middle" x="741.4854" y="-16.8156" font-family="Times,serif" font-size="14.00" fill="#000000">template_substitution</text>
</a>
</g>
</g>
<!-- s660&#45;&gt;s663 -->
<g id="edge4" class="edge">
<title>s660:p2&#45;&gt;s663</title>
<path fill="none" stroke="#000000" d="M488.3827,-98.4156C522.9685,-98.4156 605.5993,-74.1304 667.0959,-54.375"/>
<polygon fill="#000000" stroke="#000000" points="668.3343,-57.6531 676.7736,-51.2477 666.1819,-50.9922 668.3343,-57.6531"/>
<text text-anchor="middle" x="566.6569" y="-101.6156" font-family="Times,serif" font-size="14.00" fill="#000000">template_substitution</text>
</g>
<!-- s661&#45;&gt;s659 -->
<g id="edge6" class="edge">
<title>s661&#45;&gt;s659</title>
<path fill="none" stroke="#000000" d="M673.2459,-196.4946C598.8337,-207.3268 478.1661,-214.6399 386.7831,-170.4156 362.7926,-158.8056 342.1331,-136.6344 328.0471,-118.4193"/>
<polygon fill="#000000" stroke="#000000" points="330.8348,-116.3027 322.0494,-110.3808 325.2243,-120.4888 330.8348,-116.3027"/>
</g>
<!-- s664 -->
<g id="node8" class="node">
<title>s664</title>
<ellipse fill="none" stroke="#000000" cx="943.2686" cy="-106.4156" rx="68.4585" ry="29.3315"/>
<text text-anchor="middle" x="943.2686" y="-110.6156" font-family="Times,serif" font-size="14.00" fill="#000000">s664 STRING</text>
<text text-anchor="middle" x="943.2686" y="-93.8156" font-family="Times,serif" font-size="14.00" fill="#000000">&quot;`&quot;</text>
</g>
<!-- s661&#45;&gt;s664 -->
<g id="edge10" class="edge">
<title>s661&#45;&gt;s664</title>
<path fill="none" stroke="#000000" d="M795.8251,-162.6798C822.556,-152.4793 854.8708,-140.148 882.4272,-129.6326"/>
<polygon fill="#000000" stroke="#000000" points="883.8638,-132.8306 891.9588,-125.9954 881.3681,-126.2906 883.8638,-132.8306"/>
</g>
<!-- s662&#45;&gt;s659 -->
<g id="edge7" class="edge">
<title>s662&#45;&gt;s659</title>
<path fill="none" stroke="#000000" d="M688.8039,-84.442C669.6715,-77.5487 647.6579,-70.8471 626.9311,-67.4156 533.667,-51.9749 423.3073,-66.8622 359.9985,-78.5276"/>
<polygon fill="#000000" stroke="#000000" points="359.0504,-75.1448 349.8738,-80.4401 360.3497,-82.0231 359.0504,-75.1448"/>
</g>
<!-- s662&#45;&gt;s664 -->
<g id="edge11" class="edge">
<title>s662&#45;&gt;s664</title>
<path fill="none" stroke="#000000" d="M820.6564,-106.4156C835.0495,-106.4156 850.0619,-106.4156 864.445,-106.4156"/>
<polygon fill="#000000" stroke="#000000" points="864.7891,-109.9157 874.7891,-106.4156 864.7891,-102.9157 864.7891,-109.9157"/>
</g>
<!-- s663&#45;&gt;s659 -->
<g id="edge8" class="edge">
<title>s663&#45;&gt;s659</title>
<path fill="none" stroke="#000000" d="M644.7665,-30.2998C572.8109,-32.7109 472.6319,-39.7822 386.7831,-59.4156 377.8065,-61.4686 368.4848,-64.3345 359.5347,-67.4872"/>
<polygon fill="#000000" stroke="#000000" points="358.1779,-64.257 350.0025,-70.996 360.596,-70.8261 358.1779,-64.257"/>
</g>
<!-- s663&#45;&gt;s664 -->
<g id="edge12" class="edge">
<title>s663&#45;&gt;s664</title>
<path fill="none" stroke="#000000" d="M801.7537,-52.4139C827.2915,-62.159 856.9979,-73.4949 882.581,-83.2574"/>
<polygon fill="#000000" stroke="#000000" points="881.5761,-86.62 892.1668,-86.9153 884.0718,-80.08 881.5761,-86.62"/>
</g>
</g>
</svg>
