<?xml version="1.0" encoding="UTF-8" standalone="no"?>
<!DOCTYPE svg PUBLIC "-//W3C//DTD SVG 1.1//EN"
 "http://www.w3.org/Graphics/SVG/1.1/DTD/svg11.dtd">
<!-- Generated by graphviz version 2.40.1 (20161225.0304)
 -->
<!-- Title: switch_body Pages: 1 -->
<svg width="936pt" height="144pt"
 viewBox="0.00 0.00 935.72 143.83" xmlns="http://www.w3.org/2000/svg" xmlns:xlink="http://www.w3.org/1999/xlink">
<g id="graph0" class="graph" transform="scale(1 1) rotate(0) translate(4 139.8313)">
<title>switch_body</title>
<polygon fill="#ffffff" stroke="transparent" points="-4,4 -4,-139.8313 931.7245,-139.8313 931.7245,4 -4,4"/>
<!-- s278 -->
<g id="node1" class="node">
<title>s278</title>
<polygon fill="none" stroke="#000000" points="0,-47.6156 0,-89.2156 56.4418,-89.2156 56.4418,-47.6156 0,-47.6156"/>
<text text-anchor="middle" x="28.2209" y="-72.6156" font-family="Times,serif" font-size="14.00" fill="#000000">s278</text>
<text text-anchor="middle" x="28.2209" y="-55.8156" font-family="Times,serif" font-size="14.00" fill="#000000">→ SEQ</text>
</g>
<!-- s279 -->
<g id="node2" class="node">
<title>s279</title>
<ellipse fill="none" stroke="#000000" cx="161.6707" cy="-68.4156" rx="68.4585" ry="29.3315"/>
<text text-anchor="middle" x="161.6707" y="-72.6156" font-family="Times,serif" font-size="14.00" fill="#000000">s279 STRING</text>
<text text-anchor="middle" x="161.6707" y="-55.8156" font-family="Times,serif" font-size="14.00" fill="#000000">&quot;{&quot;</text>
</g>
<!-- s278&#45;&gt;s279 -->
<g id="edge1" class="edge">
<title>s278&#45;&gt;s279</title>
<path fill="none" stroke="#000000" d="M56.5222,-68.4156C64.5856,-68.4156 73.7846,-68.4156 83.3101,-68.4156"/>
<polygon fill="#000000" stroke="#000000" points="83.321,-71.9157 93.321,-68.4156 83.3209,-64.9157 83.321,-71.9157"/>
</g>
<!-- s280 -->
<g id="node3" class="node">
<title>s280</title>
<polygon fill="none" stroke="#000000" points="266.8995,-47.6156 266.8995,-89.2156 349.7831,-89.2156 349.7831,-47.6156 266.8995,-47.6156"/>
<text text-anchor="middle" x="308.3413" y="-72.6156" font-family="Times,serif" font-size="14.00" fill="#000000">s280</text>
<text text-anchor="middle" x="308.3413" y="-55.8156" font-family="Times,serif" font-size="14.00" fill="#000000">→ REPEAT</text>
</g>
<!-- s279&#45;&gt;s280 -->
<g id="edge7" class="edge">
<title>s279&#45;&gt;s280</title>
<path fill="none" stroke="#000000" d="M230.2822,-68.4156C239.081,-68.4156 247.9708,-68.4156 256.4422,-68.4156"/>
<polygon fill="#000000" stroke="#000000" points="256.5338,-71.9157 266.5338,-68.4156 256.5337,-64.9157 256.5338,-71.9157"/>
</g>
<!-- s281 -->
<g id="node4" class="node">
<title>s281</title>
<polygon fill="none" stroke="#000000" points="386.7831,-43.6156 386.7831,-93.2156 488.3827,-93.2156 488.3827,-43.6156 386.7831,-43.6156"/>
<text text-anchor="middle" x="427.8329" y="-72.6156" font-family="Times,serif" font-size="14.00" fill="#000000">s281</text>
<text text-anchor="middle" x="427.8329" y="-55.8156" font-family="Times,serif" font-size="14.00" fill="#000000">→ CHOICE</text>
<polyline fill="none" stroke="#000000" points="468.8827,-43.6156 468.8827,-93.2156 "/>
<text text-anchor="middle" x="478.6327" y="-76.6156" font-family="Times,serif" font-size="14.00" fill="#000000"> </text>
<polyline fill="none" stroke="#000000" points="468.8827,-68.4156 488.3827,-68.4156 "/>
<text text-anchor="middle" x="478.6327" y="-51.8156" font-family="Times,serif" font-size="14.00" fill="#000000"> </text>
</g>
<!-- s280&#45;&gt;s281 -->
<g id="edge4" class="edge">
<title>s280&#45;&gt;s281</title>
<path fill="none" stroke="#000000" d="M349.9456,-68.4156C358.4167,-68.4156 367.4948,-68.4156 376.4818,-68.4156"/>
<polygon fill="#000000" stroke="#000000" points="376.5526,-71.9157 386.5525,-68.4156 376.5525,-64.9157 376.5526,-71.9157"/>
</g>
<!-- s282 -->
<g id="node5" class="node">
<title>s282</title>
<g id="a_node5"><a xlink:href="javascript-grammar.json.switch_case.dot.svg" xlink:title="s282 SYMBOL\nswitch_case">
<ellipse fill="none" stroke="#000000" cx="680.5337" cy="-106.4156" rx="73.9667" ry="29.3315"/>
<text text-anchor="middle" x="680.5337" y="-110.6156" font-family="Times,serif" font-size="14.00" fill="#000000">s282 SYMBOL</text>
<text text-anchor="middle" x="680.5337" y="-93.8156" font-family="Times,serif" font-size="14.00" fill="#000000">switch_case</text>
</a>
</g>
</g>
<!-- s281&#45;&gt;s282 -->
<g id="edge2" class="edge">
<title>s281:p0&#45;&gt;s282</title>
<path fill="none" stroke="#000000" d="M488.3827,-80.4156C526.8348,-80.4156 569.2275,-85.5919 604.389,-91.3251"/>
<polygon fill="#000000" stroke="#000000" points="604.1382,-94.8319 614.5795,-93.0348 605.2965,-87.9284 604.1382,-94.8319"/>
<text text-anchor="middle" x="547.5917" y="-93.6156" font-family="Times,serif" font-size="14.00" fill="#000000">switch_case</text>
</g>
<!-- s283 -->
<g id="node6" class="node">
<title>s283</title>
<g id="a_node6"><a xlink:href="javascript-grammar.json.switch_default.dot.svg" xlink:title="s283 SYMBOL\nswitch_default">
<ellipse fill="none" stroke="#000000" cx="680.5337" cy="-29.4156" rx="73.9667" ry="29.3315"/>
<text text-anchor="middle" x="680.5337" y="-33.6156" font-family="Times,serif" font-size="14.00" fill="#000000">s283 SYMBOL</text>
<text text-anchor="middle" x="680.5337" y="-16.8156" font-family="Times,serif" font-size="14.00" fill="#000000">switch_default</text>
</a>
</g>
</g>
<!-- s281&#45;&gt;s283 -->
<g id="edge3" class="edge">
<title>s281:p1&#45;&gt;s283</title>
<path fill="none" stroke="#000000" d="M488.3827,-56.4156C527.0152,-56.4156 569.5954,-50.9974 604.8338,-45.0154"/>
<polygon fill="#000000" stroke="#000000" points="605.7951,-48.4005 615.0437,-43.232 604.5906,-41.5049 605.7951,-48.4005"/>
<text text-anchor="middle" x="547.5917" y="-60.6156" font-family="Times,serif" font-size="14.00" fill="#000000">switch_default</text>
</g>
<!-- s282&#45;&gt;s280 -->
<g id="edge5" class="edge">
<title>s282&#45;&gt;s280</title>
<path fill="none" stroke="#000000" d="M608.9041,-113.7625C548.8006,-117.9583 461.1042,-119.4565 386.7831,-102.4156 377.3343,-100.2491 367.601,-96.9751 358.3434,-93.2995"/>
<polygon fill="#000000" stroke="#000000" points="359.4764,-89.9798 348.9001,-89.3536 356.7775,-96.4386 359.4764,-89.9798"/>
</g>
<!-- s284 -->
<g id="node7" class="node">
<title>s284</title>
<ellipse fill="none" stroke="#000000" cx="859.4956" cy="-67.4156" rx="68.4585" ry="29.3315"/>
<text text-anchor="middle" x="859.4956" y="-71.6156" font-family="Times,serif" font-size="14.00" fill="#000000">s284 STRING</text>
<text text-anchor="middle" x="859.4956" y="-54.8156" font-family="Times,serif" font-size="14.00" fill="#000000">&quot;}&quot;</text>
</g>
<!-- s282&#45;&gt;s284 -->
<g id="edge8" class="edge">
<title>s282&#45;&gt;s284</title>
<path fill="none" stroke="#000000" d="M745.3961,-92.2806C759.3215,-89.2459 774.1095,-86.0233 788.2615,-82.9392"/>
<polygon fill="#000000" stroke="#000000" points="789.4071,-86.2718 798.4325,-80.7227 787.9166,-79.4323 789.4071,-86.2718"/>
</g>
<!-- s283&#45;&gt;s280 -->
<g id="edge6" class="edge">
<title>s283&#45;&gt;s280</title>
<path fill="none" stroke="#000000" d="M608.4094,-22.8857C548.3884,-19.2914 461.0641,-18.3494 386.7831,-34.4156 377.0996,-36.5101 367.1329,-39.8239 357.6891,-43.5787"/>
<polygon fill="#000000" stroke="#000000" points="356.3188,-40.358 348.4494,-47.4517 359.025,-46.8137 356.3188,-40.358"/>
</g>
<!-- s283&#45;&gt;s284 -->
<g id="edge9" class="edge">
<title>s283&#45;&gt;s284</title>
<path fill="none" stroke="#000000" d="M745.6493,-43.242C759.4013,-46.162 773.9845,-49.2586 787.9587,-52.2258"/>
<polygon fill="#000000" stroke="#000000" points="787.497,-55.7057 798.0059,-54.3592 788.951,-48.8584 787.497,-55.7057"/>
</g>
</g>
</svg>
