<?xml version="1.0" encoding="UTF-8" standalone="no"?>
<!DOCTYPE svg PUBLIC "-//W3C//DTD SVG 1.1//EN"
 "http://www.w3.org/Graphics/SVG/1.1/DTD/svg11.dtd">
<!-- Generated by graphviz version 2.40.1 (20161225.0304)
 -->
<!-- Title: _reserved_identifier Pages: 1 -->
<svg width="314pt" height="221pt"
 viewBox="0.00 0.00 313.93 220.83" xmlns="http://www.w3.org/2000/svg" xmlns:xlink="http://www.w3.org/1999/xlink">
<g id="graph0" class="graph" transform="scale(1 1) rotate(0) translate(4 216.8313)">
<title>_reserved_identifier</title>
<polygon fill="#ffffff" stroke="transparent" points="-4,4 -4,-216.8313 309.9311,-216.8313 309.9311,4 -4,4"/>
<!-- s909 -->
<g id="node1" class="node">
<title>s909</title>
<polygon fill="none" stroke="#000000" points="0,-69.2156 0,-143.6156 101.5996,-143.6156 101.5996,-69.2156 0,-69.2156"/>
<text text-anchor="middle" x="41.0498" y="-110.6156" font-family="Times,serif" font-size="14.00" fill="#000000">s909</text>
<text text-anchor="middle" x="41.0498" y="-93.8156" font-family="Times,serif" font-size="14.00" fill="#000000">→ CHOICE</text>
<polyline fill="none" stroke="#000000" points="82.0996,-69.2156 82.0996,-143.6156 "/>
<text text-anchor="middle" x="91.8496" y="-127.0156" font-family="Times,serif" font-size="14.00" fill="#000000"> </text>
<polyline fill="none" stroke="#000000" points="82.0996,-118.8156 101.5996,-118.8156 "/>
<text text-anchor="middle" x="91.8496" y="-102.2156" font-family="Times,serif" font-size="14.00" fill="#000000"> </text>
<polyline fill="none" stroke="#000000" points="82.0996,-94.0156 101.5996,-94.0156 "/>
<text text-anchor="middle" x="91.8496" y="-77.4156" font-family="Times,serif" font-size="14.00" fill="#000000"> </text>
</g>
<!-- s910 -->
<g id="node2" class="node">
<title>s910</title>
<ellipse fill="none" stroke="#000000" cx="237.7023" cy="-183.4156" rx="68.4585" ry="29.3315"/>
<text text-anchor="middle" x="237.7023" y="-187.6156" font-family="Times,serif" font-size="14.00" fill="#000000">s910 STRING</text>
<text text-anchor="middle" x="237.7023" y="-170.8156" font-family="Times,serif" font-size="14.00" fill="#000000">&quot;get&quot;</text>
</g>
<!-- s909&#45;&gt;s910 -->
<g id="edge1" class="edge">
<title>s909:p0&#45;&gt;s910</title>
<path fill="none" stroke="#000000" d="M91.7998,-143.4156C91.7998,-175.5682 125.1623,-186.1174 159.9803,-188.372"/>
<polygon fill="#000000" stroke="#000000" points="160.1637,-191.8828 170.3031,-188.81 160.4605,-184.8891 160.1637,-191.8828"/>
<text text-anchor="middle" x="135.5365" y="-190.6156" font-family="Times,serif" font-size="14.00" fill="#000000">get</text>
</g>
<!-- s911 -->
<g id="node3" class="node">
<title>s911</title>
<ellipse fill="none" stroke="#000000" cx="237.7023" cy="-106.4156" rx="68.4585" ry="29.3315"/>
<text text-anchor="middle" x="237.7023" y="-110.6156" font-family="Times,serif" font-size="14.00" fill="#000000">s911 STRING</text>
<text text-anchor="middle" x="237.7023" y="-93.8156" font-family="Times,serif" font-size="14.00" fill="#000000">&quot;set&quot;</text>
</g>
<!-- s909&#45;&gt;s911 -->
<g id="edge2" class="edge">
<title>s909:p1&#45;&gt;s911</title>
<path fill="none" stroke="#000000" d="M101.5996,-106.4156C120.2268,-106.4156 140.2879,-106.4156 159.1336,-106.4156"/>
<polygon fill="#000000" stroke="#000000" points="159.1615,-109.9157 169.1615,-106.4156 159.1615,-102.9157 159.1615,-109.9157"/>
<text text-anchor="middle" x="135.5365" y="-110.6156" font-family="Times,serif" font-size="14.00" fill="#000000">set</text>
</g>
<!-- s912 -->
<g id="node4" class="node">
<title>s912</title>
<ellipse fill="none" stroke="#000000" cx="237.7023" cy="-29.4156" rx="68.4585" ry="29.3315"/>
<text text-anchor="middle" x="237.7023" y="-33.6156" font-family="Times,serif" font-size="14.00" fill="#000000">s912 STRING</text>
<text text-anchor="middle" x="237.7023" y="-16.8156" font-family="Times,serif" font-size="14.00" fill="#000000">&quot;async&quot;</text>
</g>
<!-- s909&#45;&gt;s912 -->
<g id="edge3" class="edge">
<title>s909:p2&#45;&gt;s912</title>
<path fill="none" stroke="#000000" d="M91.7998,-69.4156C91.7998,-37.2631 125.1623,-26.7139 159.9803,-24.4593"/>
<polygon fill="#000000" stroke="#000000" points="160.4605,-27.9422 170.3031,-24.0213 160.1637,-20.9484 160.4605,-27.9422"/>
<text text-anchor="middle" x="135.5365" y="-37.6156" font-family="Times,serif" font-size="14.00" fill="#000000">async</text>
</g>
</g>
</svg>
