<?xml version="1.0" encoding="UTF-8" standalone="no"?>
<!DOCTYPE svg PUBLIC "-//W3C//DTD SVG 1.1//EN"
 "http://www.w3.org/Graphics/SVG/1.1/DTD/svg11.dtd">
<!-- Generated by graphviz version 2.40.1 (20161225.0304)
 -->
<!-- Title: comment Pages: 1 -->
<svg width="1024pt" height="144pt"
 viewBox="0.00 0.00 1023.78 143.83" xmlns="http://www.w3.org/2000/svg" xmlns:xlink="http://www.w3.org/1999/xlink">
<g id="graph0" class="graph" transform="scale(1 1) rotate(0) translate(4 139.8313)">
<title>comment</title>
<polygon fill="#ffffff" stroke="transparent" points="-4,4 -4,-139.8313 1019.777,-139.8313 1019.777,4 -4,4"/>
<!-- s647 -->
<g id="node1" class="node">
<title>s647</title>
<polygon fill="none" stroke="#000000" points="0,-46.6156 0,-88.2156 77.425,-88.2156 77.425,-46.6156 0,-46.6156"/>
<text text-anchor="middle" x="38.7125" y="-71.6156" font-family="Times,serif" font-size="14.00" fill="#000000">s647</text>
<text text-anchor="middle" x="38.7125" y="-54.8156" font-family="Times,serif" font-size="14.00" fill="#000000">→ TOKEN</text>
</g>
<!-- s648 -->
<g id="node2" class="node">
<title>s648</title>
<polygon fill="none" stroke="#000000" points="113.425,-46.6156 113.425,-88.2156 178.4334,-88.2156 178.4334,-46.6156 113.425,-46.6156"/>
<text text-anchor="middle" x="145.9292" y="-71.6156" font-family="Times,serif" font-size="14.00" fill="#000000">s648</text>
<text text-anchor="middle" x="145.9292" y="-54.8156" font-family="Times,serif" font-size="14.00" fill="#000000">→ PREC</text>
</g>
<!-- s647&#45;&gt;s648 -->
<g id="edge9" class="edge">
<title>s647&#45;&gt;s648</title>
<path fill="none" stroke="#000000" d="M77.7235,-67.4156C85.8908,-67.4156 94.5474,-67.4156 102.8529,-67.4156"/>
<polygon fill="#000000" stroke="#000000" points="103.1222,-70.9157 113.1222,-67.4156 103.1221,-63.9157 103.1222,-70.9157"/>
</g>
<!-- s649 -->
<g id="node3" class="node">
<title>s649</title>
<polygon fill="none" stroke="#000000" points="214.4334,-42.6156 214.4334,-92.2156 316.033,-92.2156 316.033,-42.6156 214.4334,-42.6156"/>
<text text-anchor="middle" x="255.4832" y="-71.6156" font-family="Times,serif" font-size="14.00" fill="#000000">s649</text>
<text text-anchor="middle" x="255.4832" y="-54.8156" font-family="Times,serif" font-size="14.00" fill="#000000">→ CHOICE</text>
<polyline fill="none" stroke="#000000" points="296.533,-42.6156 296.533,-92.2156 "/>
<text text-anchor="middle" x="306.283" y="-75.6156" font-family="Times,serif" font-size="14.00" fill="#000000"> </text>
<polyline fill="none" stroke="#000000" points="296.533,-67.4156 316.033,-67.4156 "/>
<text text-anchor="middle" x="306.283" y="-50.8156" font-family="Times,serif" font-size="14.00" fill="#000000"> </text>
</g>
<!-- s648&#45;&gt;s649 -->
<g id="edge8" class="edge">
<title>s648&#45;&gt;s649</title>
<path fill="none" stroke="#000000" d="M178.5295,-67.4156C186.5498,-67.4156 195.3978,-67.4156 204.2842,-67.4156"/>
<polygon fill="#000000" stroke="#000000" points="204.2915,-70.9157 214.2915,-67.4156 204.2915,-63.9157 204.2915,-70.9157"/>
</g>
<!-- s650 -->
<g id="node4" class="node">
<title>s650</title>
<polygon fill="none" stroke="#000000" points="352.033,-81.6156 352.033,-123.2156 408.4748,-123.2156 408.4748,-81.6156 352.033,-81.6156"/>
<text text-anchor="middle" x="380.2539" y="-106.6156" font-family="Times,serif" font-size="14.00" fill="#000000">s650</text>
<text text-anchor="middle" x="380.2539" y="-89.8156" font-family="Times,serif" font-size="14.00" fill="#000000">→ SEQ</text>
</g>
<!-- s649&#45;&gt;s650 -->
<g id="edge3" class="edge">
<title>s649:p0&#45;&gt;s650</title>
<path fill="none" stroke="#000000" d="M316.033,-79.4156C324.8005,-79.4156 333.8678,-81.3391 342.3282,-84.0735"/>
<polygon fill="#000000" stroke="#000000" points="341.3333,-87.4364 351.9271,-87.5893 343.7409,-80.8635 341.3333,-87.4364"/>
</g>
<!-- s653 -->
<g id="node7" class="node">
<title>s653</title>
<polygon fill="none" stroke="#000000" points="352.033,-16.6156 352.033,-58.2156 408.4748,-58.2156 408.4748,-16.6156 352.033,-16.6156"/>
<text text-anchor="middle" x="380.2539" y="-41.6156" font-family="Times,serif" font-size="14.00" fill="#000000">s653</text>
<text text-anchor="middle" x="380.2539" y="-24.8156" font-family="Times,serif" font-size="14.00" fill="#000000">→ SEQ</text>
</g>
<!-- s649&#45;&gt;s653 -->
<g id="edge7" class="edge">
<title>s649:p1&#45;&gt;s653</title>
<path fill="none" stroke="#000000" d="M316.033,-55.4156C324.6884,-55.4156 333.7646,-53.881 342.2779,-51.7079"/>
<polygon fill="#000000" stroke="#000000" points="343.3158,-55.0513 351.9544,-48.9172 341.3761,-48.3254 343.3158,-55.0513"/>
</g>
<!-- s651 -->
<g id="node5" class="node">
<title>s651</title>
<ellipse fill="none" stroke="#000000" cx="512.7037" cy="-106.4156" rx="68.4585" ry="29.3315"/>
<text text-anchor="middle" x="512.7037" y="-110.6156" font-family="Times,serif" font-size="14.00" fill="#000000">s651 STRING</text>
<text text-anchor="middle" x="512.7037" y="-93.8156" font-family="Times,serif" font-size="14.00" fill="#000000">&quot;//&quot;</text>
</g>
<!-- s650&#45;&gt;s651 -->
<g id="edge1" class="edge">
<title>s650&#45;&gt;s651</title>
<path fill="none" stroke="#000000" d="M408.6677,-103.2737C416.4827,-103.5098 425.3541,-103.7777 434.5426,-104.0552"/>
<polygon fill="#000000" stroke="#000000" points="434.5014,-107.5554 444.6025,-104.359 434.7127,-100.5586 434.5014,-107.5554"/>
</g>
<!-- s652 -->
<g id="node6" class="node">
<title>s652</title>
<ellipse fill="none" stroke="#000000" cx="730.1259" cy="-106.4156" rx="77.0571" ry="29.3315"/>
<text text-anchor="middle" x="730.1259" y="-110.6156" font-family="Times,serif" font-size="14.00" fill="#000000">s652 PATTERN</text>
<text text-anchor="middle" x="730.1259" y="-93.8156" font-family="Times,serif" font-size="14.00" fill="#000000">&quot;.*&quot;</text>
</g>
<!-- s651&#45;&gt;s652 -->
<g id="edge2" class="edge">
<title>s651&#45;&gt;s652</title>
<path fill="none" stroke="#000000" d="M581.199,-106.4156C600.6855,-106.4156 622.1789,-106.4156 642.63,-106.4156"/>
<polygon fill="#000000" stroke="#000000" points="642.8917,-109.9157 652.8917,-106.4156 642.8917,-102.9157 642.8917,-109.9157"/>
</g>
<!-- s654 -->
<g id="node8" class="node">
<title>s654</title>
<ellipse fill="none" stroke="#000000" cx="512.7037" cy="-29.4156" rx="68.4585" ry="29.3315"/>
<text text-anchor="middle" x="512.7037" y="-33.6156" font-family="Times,serif" font-size="14.00" fill="#000000">s654 STRING</text>
<text text-anchor="middle" x="512.7037" y="-16.8156" font-family="Times,serif" font-size="14.00" fill="#000000">&quot;/*&quot;</text>
</g>
<!-- s653&#45;&gt;s654 -->
<g id="edge4" class="edge">
<title>s653&#45;&gt;s654</title>
<path fill="none" stroke="#000000" d="M408.6677,-35.6994C416.5385,-35.224 425.4809,-34.6839 434.7395,-34.1247"/>
<polygon fill="#000000" stroke="#000000" points="435.1037,-37.6092 444.8745,-33.5125 434.6816,-30.6219 435.1037,-37.6092"/>
</g>
<!-- s655 -->
<g id="node9" class="node">
<title>s655</title>
<ellipse fill="none" stroke="#000000" cx="730.1259" cy="-29.4156" rx="113.3871" ry="29.3315"/>
<text text-anchor="middle" x="730.1259" y="-33.6156" font-family="Times,serif" font-size="14.00" fill="#000000">s655 PATTERN</text>
<text text-anchor="middle" x="730.1259" y="-16.8156" font-family="Times,serif" font-size="14.00" fill="#000000">&quot;[^*]**+([^/*][^*]**+)*&quot;</text>
</g>
<!-- s654&#45;&gt;s655 -->
<g id="edge5" class="edge">
<title>s654&#45;&gt;s655</title>
<path fill="none" stroke="#000000" d="M581.199,-29.4156C589.3404,-29.4156 597.8321,-29.4156 606.4517,-29.4156"/>
<polygon fill="#000000" stroke="#000000" points="606.6159,-32.9157 616.6158,-29.4156 606.6158,-25.9157 606.6159,-32.9157"/>
</g>
<!-- s656 -->
<g id="node10" class="node">
<title>s656</title>
<ellipse fill="none" stroke="#000000" cx="947.5482" cy="-29.4156" rx="68.4585" ry="29.3315"/>
<text text-anchor="middle" x="947.5482" y="-33.6156" font-family="Times,serif" font-size="14.00" fill="#000000">s656 STRING</text>
<text text-anchor="middle" x="947.5482" y="-16.8156" font-family="Times,serif" font-size="14.00" fill="#000000">&quot;/&quot;</text>
</g>
<!-- s655&#45;&gt;s656 -->
<g id="edge6" class="edge">
<title>s655&#45;&gt;s656</title>
<path fill="none" stroke="#000000" d="M843.613,-29.4156C852.2508,-29.4156 860.8483,-29.4156 869.1867,-29.4156"/>
<polygon fill="#000000" stroke="#000000" points="869.2148,-32.9157 879.2147,-29.4156 869.2147,-25.9157 869.2148,-32.9157"/>
</g>
</g>
</svg>
