<?xml version="1.0" encoding="UTF-8" standalone="no"?>
<!DOCTYPE svg PUBLIC "-//W3C//DTD SVG 1.1//EN"
 "http://www.w3.org/Graphics/SVG/1.1/DTD/svg11.dtd">
<!-- Generated by graphviz version 2.40.1 (20161225.0304)
 -->
<!-- Title: namespace_import Pages: 1 -->
<svg width="563pt" height="67pt"
 viewBox="0.00 0.00 563.12 66.83" xmlns="http://www.w3.org/2000/svg" xmlns:xlink="http://www.w3.org/1999/xlink">
<g id="graph0" class="graph" transform="scale(1 1) rotate(0) translate(4 62.8313)">
<title>namespace_import</title>
<polygon fill="#ffffff" stroke="transparent" points="-4,4 -4,-62.8313 559.1248,-62.8313 559.1248,4 -4,4"/>
<!-- s93 -->
<g id="node1" class="node">
<title>s93</title>
<polygon fill="none" stroke="#000000" points="0,-8.6156 0,-50.2156 56.4418,-50.2156 56.4418,-8.6156 0,-8.6156"/>
<text text-anchor="middle" x="28.2209" y="-33.6156" font-family="Times,serif" font-size="14.00" fill="#000000">s93</text>
<text text-anchor="middle" x="28.2209" y="-16.8156" font-family="Times,serif" font-size="14.00" fill="#000000">→ SEQ</text>
</g>
<!-- s94 -->
<g id="node2" class="node">
<title>s94</title>
<ellipse fill="none" stroke="#000000" cx="155.7209" cy="-29.4156" rx="63.059" ry="29.3315"/>
<text text-anchor="middle" x="155.7209" y="-33.6156" font-family="Times,serif" font-size="14.00" fill="#000000">s94 STRING</text>
<text text-anchor="middle" x="155.7209" y="-16.8156" font-family="Times,serif" font-size="14.00" fill="#000000">&quot;*&quot;</text>
</g>
<!-- s93&#45;&gt;s94 -->
<g id="edge1" class="edge">
<title>s93&#45;&gt;s94</title>
<path fill="none" stroke="#000000" d="M56.5173,-29.4156C64.2463,-29.4156 72.9948,-29.4156 82.016,-29.4156"/>
<polygon fill="#000000" stroke="#000000" points="82.2774,-32.9157 92.2773,-29.4156 82.2773,-25.9157 82.2774,-32.9157"/>
</g>
<!-- s95 -->
<g id="node3" class="node">
<title>s95</title>
<ellipse fill="none" stroke="#000000" cx="318.2792" cy="-29.4156" rx="63.059" ry="29.3315"/>
<text text-anchor="middle" x="318.2792" y="-33.6156" font-family="Times,serif" font-size="14.00" fill="#000000">s95 STRING</text>
<text text-anchor="middle" x="318.2792" y="-16.8156" font-family="Times,serif" font-size="14.00" fill="#000000">&quot;as&quot;</text>
</g>
<!-- s94&#45;&gt;s95 -->
<g id="edge2" class="edge">
<title>s94&#45;&gt;s95</title>
<path fill="none" stroke="#000000" d="M219.0357,-29.4156C227.4936,-29.4156 236.2246,-29.4156 244.8373,-29.4156"/>
<polygon fill="#000000" stroke="#000000" points="244.8699,-32.9157 254.8698,-29.4156 244.8698,-25.9157 244.8699,-32.9157"/>
</g>
<!-- s96 -->
<g id="node4" class="node">
<title>s96</title>
<g id="a_node4"><a xlink:href="javascript-grammar.json.identifier.dot.svg" xlink:title="s96 SYMBOL\nidentifier">
<ellipse fill="none" stroke="#000000" cx="486.3416" cy="-29.4156" rx="68.5672" ry="29.3315"/>
<text text-anchor="middle" x="486.3416" y="-33.6156" font-family="Times,serif" font-size="14.00" fill="#000000">s96 SYMBOL</text>
<text text-anchor="middle" x="486.3416" y="-16.8156" font-family="Times,serif" font-size="14.00" fill="#000000">identifier</text>
</a>
</g>
</g>
<!-- s95&#45;&gt;s96 -->
<g id="edge3" class="edge">
<title>s95&#45;&gt;s96</title>
<path fill="none" stroke="#000000" d="M381.8164,-29.4156C390.1677,-29.4156 398.8066,-29.4156 407.375,-29.4156"/>
<polygon fill="#000000" stroke="#000000" points="407.3799,-32.9157 417.3798,-29.4156 407.3798,-25.9157 407.3799,-32.9157"/>
</g>
</g>
</svg>
