<?xml version="1.0" encoding="UTF-8" standalone="no"?>
<!DOCTYPE svg PUBLIC "-//W3C//DTD SVG 1.1//EN"
 "http://www.w3.org/Graphics/SVG/1.1/DTD/svg11.dtd">
<!-- Generated by graphviz version 2.40.1 (20161225.0304)
 -->
<!-- Title: switch_statement Pages: 1 -->
<svg width="682pt" height="67pt"
 viewBox="0.00 0.00 682.40 66.83" xmlns="http://www.w3.org/2000/svg" xmlns:xlink="http://www.w3.org/1999/xlink">
<g id="graph0" class="graph" transform="scale(1 1) rotate(0) translate(4 62.8313)">
<title>switch_statement</title>
<polygon fill="#ffffff" stroke="transparent" points="-4,4 -4,-62.8313 678.3979,-62.8313 678.3979,4 -4,4"/>
<!-- s171 -->
<g id="node1" class="node">
<title>s171</title>
<polygon fill="none" stroke="#000000" points="0,-8.6156 0,-50.2156 56.4418,-50.2156 56.4418,-8.6156 0,-8.6156"/>
<text text-anchor="middle" x="28.2209" y="-33.6156" font-family="Times,serif" font-size="14.00" fill="#000000">s171</text>
<text text-anchor="middle" x="28.2209" y="-16.8156" font-family="Times,serif" font-size="14.00" fill="#000000">→ SEQ</text>
</g>
<!-- s172 -->
<g id="node2" class="node">
<title>s172</title>
<ellipse fill="none" stroke="#000000" cx="160.6707" cy="-29.4156" rx="68.4585" ry="29.3315"/>
<text text-anchor="middle" x="160.6707" y="-33.6156" font-family="Times,serif" font-size="14.00" fill="#000000">s172 STRING</text>
<text text-anchor="middle" x="160.6707" y="-16.8156" font-family="Times,serif" font-size="14.00" fill="#000000">&quot;switch&quot;</text>
</g>
<!-- s171&#45;&gt;s172 -->
<g id="edge1" class="edge">
<title>s171&#45;&gt;s172</title>
<path fill="none" stroke="#000000" d="M56.6347,-29.4156C64.3113,-29.4156 73.0073,-29.4156 82.0218,-29.4156"/>
<polygon fill="#000000" stroke="#000000" points="82.2976,-32.9157 92.2975,-29.4156 82.2975,-25.9157 82.2976,-32.9157"/>
</g>
<!-- s173 -->
<g id="node3" class="node">
<title>s173</title>
<g id="a_node3"><a xlink:href="javascript-grammar.json.parenthesized_expression.dot.svg" xlink:title="s173 SYMBOL\nparenthesized_expression">
<ellipse fill="none" stroke="#000000" cx="377.9157" cy="-29.4156" rx="113.0323" ry="29.3315"/>
<text text-anchor="middle" x="377.9157" y="-33.6156" font-family="Times,serif" font-size="14.00" fill="#000000">s173 SYMBOL</text>
<text text-anchor="middle" x="377.9157" y="-16.8156" font-family="Times,serif" font-size="14.00" fill="#000000">parenthesized_expression</text>
</a>
</g>
</g>
<!-- s172&#45;&gt;s173 -->
<g id="edge2" class="edge">
<title>s172&#45;&gt;s173</title>
<path fill="none" stroke="#000000" d="M229.1102,-29.4156C237.3343,-29.4156 245.9162,-29.4156 254.6263,-29.4156"/>
<polygon fill="#000000" stroke="#000000" points="254.8963,-32.9157 264.8962,-29.4156 254.8962,-25.9157 254.8963,-32.9157"/>
</g>
<!-- s174 -->
<g id="node4" class="node">
<title>s174</title>
<g id="a_node4"><a xlink:href="javascript-grammar.json.switch_body.dot.svg" xlink:title="s174 SYMBOL\nswitch_body">
<ellipse fill="none" stroke="#000000" cx="600.6649" cy="-29.4156" rx="73.9667" ry="29.3315"/>
<text text-anchor="middle" x="600.6649" y="-33.6156" font-family="Times,serif" font-size="14.00" fill="#000000">s174 SYMBOL</text>
<text text-anchor="middle" x="600.6649" y="-16.8156" font-family="Times,serif" font-size="14.00" fill="#000000">switch_body</text>
</a>
</g>
</g>
<!-- s173&#45;&gt;s174 -->
<g id="edge3" class="edge">
<title>s173&#45;&gt;s174</title>
<path fill="none" stroke="#000000" d="M491.248,-29.4156C499.8057,-29.4156 508.3479,-29.4156 516.6726,-29.4156"/>
<polygon fill="#000000" stroke="#000000" points="516.7054,-32.9157 526.7054,-29.4156 516.7053,-25.9157 516.7054,-32.9157"/>
</g>
</g>
</svg>
