<?xml version="1.0" encoding="UTF-8" standalone="no"?>
<!DOCTYPE svg PUBLIC "-//W3C//DTD SVG 1.1//EN"
 "http://www.w3.org/Graphics/SVG/1.1/DTD/svg11.dtd">
<!-- Generated by graphviz version 2.40.1 (20161225.0304)
 -->
<!-- Title: decorator_member_expression Pages: 1 -->
<svg width="1581pt" height="123pt"
 viewBox="0.00 0.00 1580.53 122.83" xmlns="http://www.w3.org/2000/svg" xmlns:xlink="http://www.w3.org/1999/xlink">
<g id="graph0" class="graph" transform="scale(1 1) rotate(0) translate(4 118.8313)">
<title>decorator_member_expression</title>
<polygon fill="#ffffff" stroke="transparent" points="-4,4 -4,-118.8313 1576.5265,-118.8313 1576.5265,4 -4,4"/>
<!-- s814 -->
<g id="node1" class="node">
<title>s814</title>
<polygon fill="none" stroke="#000000" points="0,-40.6156 0,-82.2156 65.0084,-82.2156 65.0084,-40.6156 0,-40.6156"/>
<text text-anchor="middle" x="32.5042" y="-65.6156" font-family="Times,serif" font-size="14.00" fill="#000000">s814</text>
<text text-anchor="middle" x="32.5042" y="-48.8156" font-family="Times,serif" font-size="14.00" fill="#000000">→ PREC</text>
</g>
<!-- s815 -->
<g id="node2" class="node">
<title>s815</title>
<polygon fill="none" stroke="#000000" points="102.0084,-40.6156 102.0084,-82.2156 158.4502,-82.2156 158.4502,-40.6156 102.0084,-40.6156"/>
<text text-anchor="middle" x="130.2293" y="-65.6156" font-family="Times,serif" font-size="14.00" fill="#000000">s815</text>
<text text-anchor="middle" x="130.2293" y="-48.8156" font-family="Times,serif" font-size="14.00" fill="#000000">→ SEQ</text>
</g>
<!-- s814&#45;&gt;s815 -->
<g id="edge10" class="edge">
<title>s814&#45;&gt;s815</title>
<path fill="none" stroke="#000000" d="M65.0452,-61.4156C73.5855,-61.4156 82.8774,-61.4156 91.6984,-61.4156"/>
<polygon fill="#000000" stroke="#000000" points="91.7642,-64.9157 101.7641,-61.4156 91.7641,-57.9157 91.7642,-64.9157"/>
</g>
<!-- s816 -->
<g id="node3" class="node">
<title>s816</title>
<polygon fill="none" stroke="#000000" points="195.4502,-40.6156 195.4502,-82.2156 251.892,-82.2156 251.892,-40.6156 195.4502,-40.6156"/>
<text text-anchor="middle" x="223.6711" y="-65.6156" font-family="Times,serif" font-size="14.00" fill="#000000">s816</text>
<text text-anchor="middle" x="223.6711" y="-48.8156" font-family="Times,serif" font-size="14.00" fill="#000000">→ SEQ</text>
</g>
<!-- s815&#45;&gt;s816 -->
<g id="edge9" class="edge">
<title>s815&#45;&gt;s816</title>
<path fill="none" stroke="#000000" d="M158.5185,-61.4156C166.8578,-61.4156 176.1302,-61.4156 185.003,-61.4156"/>
<polygon fill="#000000" stroke="#000000" points="185.1556,-64.9157 195.1556,-61.4156 185.1555,-57.9157 185.1556,-64.9157"/>
</g>
<!-- s817 -->
<g id="node4" class="node">
<title>s817</title>
<polygon fill="none" stroke="#000000" points="288.892,-36.6156 288.892,-86.2156 390.4916,-86.2156 390.4916,-36.6156 288.892,-36.6156"/>
<text text-anchor="middle" x="329.9418" y="-65.6156" font-family="Times,serif" font-size="14.00" fill="#000000">s817</text>
<text text-anchor="middle" x="329.9418" y="-48.8156" font-family="Times,serif" font-size="14.00" fill="#000000">→ CHOICE</text>
<polyline fill="none" stroke="#000000" points="370.9916,-36.6156 370.9916,-86.2156 "/>
<text text-anchor="middle" x="380.7416" y="-69.6156" font-family="Times,serif" font-size="14.00" fill="#000000"> </text>
<polyline fill="none" stroke="#000000" points="370.9916,-61.4156 390.4916,-61.4156 "/>
<text text-anchor="middle" x="380.7416" y="-44.8156" font-family="Times,serif" font-size="14.00" fill="#000000"> </text>
</g>
<!-- s816&#45;&gt;s817 -->
<g id="edge4" class="edge">
<title>s816&#45;&gt;s817</title>
<path fill="none" stroke="#000000" d="M252.053,-61.4156C260.1326,-61.4156 269.2604,-61.4156 278.4961,-61.4156"/>
<polygon fill="#000000" stroke="#000000" points="278.5159,-64.9157 288.5159,-61.4156 278.5158,-57.9157 278.5159,-64.9157"/>
</g>
<!-- s818 -->
<g id="node5" class="node">
<title>s818</title>
<g id="a_node5"><a xlink:href="javascript-grammar.json._identifier_reference.dot.svg" xlink:title="s818 SYMBOL\n_identifier_reference">
<ellipse fill="none" stroke="#000000" cx="727.3733" cy="-85.4156" rx="94.1107" ry="29.3315"/>
<text text-anchor="middle" x="727.3733" y="-89.6156" font-family="Times,serif" font-size="14.00" fill="#000000">s818 SYMBOL</text>
<text text-anchor="middle" x="727.3733" y="-72.8156" font-family="Times,serif" font-size="14.00" fill="#000000">_identifier_reference</text>
</a>
</g>
</g>
<!-- s817&#45;&gt;s818 -->
<g id="edge1" class="edge">
<title>s817:p0&#45;&gt;s818</title>
<path fill="none" stroke="#000000" d="M390.4916,-73.4156C468.9805,-73.4156 557.6907,-76.7091 624.3706,-79.8453"/>
<polygon fill="#000000" stroke="#000000" points="624.3056,-83.3461 634.461,-80.3266 624.6391,-76.354 624.3056,-83.3461"/>
<text text-anchor="middle" x="467.1754" y="-79.6156" font-family="Times,serif" font-size="14.00" fill="#000000">_identifier_reference</text>
</g>
<!-- s819 -->
<g id="node6" class="node">
<title>s819</title>
<polygon fill="none" stroke="#000000" points="543.8592,-14.6156 543.8592,-56.2156 615.0682,-56.2156 615.0682,-14.6156 543.8592,-14.6156"/>
<text text-anchor="middle" x="579.4637" y="-39.6156" font-family="Times,serif" font-size="14.00" fill="#000000">s819</text>
<text text-anchor="middle" x="579.4637" y="-22.8156" font-family="Times,serif" font-size="14.00" fill="#000000">→ ALIAS</text>
</g>
<!-- s817&#45;&gt;s819 -->
<g id="edge3" class="edge">
<title>s817:p1&#45;&gt;s819</title>
<path fill="none" stroke="#000000" d="M390.4916,-49.4156C398.5878,-49.4156 400.4442,-47.5034 408.4916,-46.6156 450.6938,-41.9603 498.9857,-39.0144 533.4573,-37.319"/>
<polygon fill="#000000" stroke="#000000" points="533.8671,-40.8036 543.6896,-36.8325 533.5346,-33.8115 533.8671,-40.8036"/>
<text text-anchor="middle" x="467.1754" y="-51.6156" font-family="Times,serif" font-size="14.00" fill="#000000">member_expression</text>
</g>
<!-- s821 -->
<g id="node8" class="node">
<title>s821</title>
<ellipse fill="none" stroke="#000000" cx="1211.6226" cy="-57.4156" rx="68.4585" ry="29.3315"/>
<text text-anchor="middle" x="1211.6226" y="-61.6156" font-family="Times,serif" font-size="14.00" fill="#000000">s821 STRING</text>
<text text-anchor="middle" x="1211.6226" y="-44.8156" font-family="Times,serif" font-size="14.00" fill="#000000">&quot;.&quot;</text>
</g>
<!-- s818&#45;&gt;s821 -->
<g id="edge5" class="edge">
<title>s818&#45;&gt;s821</title>
<path fill="none" stroke="#000000" d="M821.2923,-82.1912C898.0357,-79.2591 1009.3074,-74.3302 1106.3938,-67.4156 1115.6999,-66.7528 1125.4599,-65.9589 1135.1265,-65.1121"/>
<polygon fill="#000000" stroke="#000000" points="1135.496,-68.5931 1145.1434,-64.2137 1134.8707,-61.6211 1135.496,-68.5931"/>
</g>
<!-- s820 -->
<g id="node7" class="node">
<title>s820</title>
<g id="a_node7"><a xlink:href="javascript-grammar.json.decorator_member_expression.dot.svg" xlink:title="s820 SYMBOL\ndecorator_member_expression">
<ellipse fill="none" stroke="#000000" cx="973.0361" cy="-29.4156" rx="133.2155" ry="29.3315"/>
<text text-anchor="middle" x="973.0361" y="-33.6156" font-family="Times,serif" font-size="14.00" fill="#000000">s820 SYMBOL</text>
<text text-anchor="middle" x="973.0361" y="-16.8156" font-family="Times,serif" font-size="14.00" fill="#000000">decorator_member_expression</text>
</a>
</g>
</g>
<!-- s819&#45;&gt;s820 -->
<g id="edge2" class="edge">
<title>s819&#45;&gt;s820</title>
<path fill="none" stroke="#000000" d="M615.0848,-34.8726C663.3455,-34.1369 752.3489,-32.78 829.528,-31.6034"/>
<polygon fill="#000000" stroke="#000000" points="829.9018,-35.0982 839.8473,-31.4461 829.7951,-28.099 829.9018,-35.0982"/>
</g>
<!-- s820&#45;&gt;s821 -->
<g id="edge6" class="edge">
<title>s820&#45;&gt;s821</title>
<path fill="none" stroke="#000000" d="M1090.9314,-43.2516C1106.0467,-45.0255 1121.1919,-46.8029 1135.3962,-48.4699"/>
<polygon fill="#000000" stroke="#000000" points="1135.2192,-51.973 1145.559,-49.6626 1136.0351,-45.0207 1135.2192,-51.973"/>
</g>
<!-- s822 -->
<g id="node9" class="node">
<title>s822</title>
<polygon fill="none" stroke="#000000" points="1316.8515,-36.6156 1316.8515,-78.2156 1388.0605,-78.2156 1388.0605,-36.6156 1316.8515,-36.6156"/>
<text text-anchor="middle" x="1352.456" y="-61.6156" font-family="Times,serif" font-size="14.00" fill="#000000">s822</text>
<text text-anchor="middle" x="1352.456" y="-44.8156" font-family="Times,serif" font-size="14.00" fill="#000000">→ ALIAS</text>
</g>
<!-- s821&#45;&gt;s822 -->
<g id="edge8" class="edge">
<title>s821&#45;&gt;s822</title>
<path fill="none" stroke="#000000" d="M1279.9766,-57.4156C1289.0446,-57.4156 1298.1583,-57.4156 1306.7155,-57.4156"/>
<polygon fill="#000000" stroke="#000000" points="1306.8368,-60.9157 1316.8368,-57.4156 1306.8367,-53.9157 1306.8368,-60.9157"/>
</g>
<!-- s823 -->
<g id="node10" class="node">
<title>s823</title>
<g id="a_node10"><a xlink:href="javascript-grammar.json.identifier.dot.svg" xlink:title="s823 SYMBOL\nidentifier">
<ellipse fill="none" stroke="#000000" cx="1498.7935" cy="-57.4156" rx="73.9667" ry="29.3315"/>
<text text-anchor="middle" x="1498.7935" y="-61.6156" font-family="Times,serif" font-size="14.00" fill="#000000">s823 SYMBOL</text>
<text text-anchor="middle" x="1498.7935" y="-44.8156" font-family="Times,serif" font-size="14.00" fill="#000000">identifier</text>
</a>
</g>
</g>
<!-- s822&#45;&gt;s823 -->
<g id="edge7" class="edge">
<title>s822&#45;&gt;s823</title>
<path fill="none" stroke="#000000" d="M1388.2542,-57.4156C1396.4566,-57.4156 1405.5155,-57.4156 1414.8125,-57.4156"/>
<polygon fill="#000000" stroke="#000000" points="1414.965,-60.9157 1424.9649,-57.4156 1414.9649,-53.9157 1414.965,-60.9157"/>
</g>
</g>
</svg>
