<?xml version="1.0" encoding="UTF-8" standalone="no"?>
<!DOCTYPE svg PUBLIC "-//W3C//DTD SVG 1.1//EN"
 "http://www.w3.org/Graphics/SVG/1.1/DTD/svg11.dtd">
<!-- Generated by graphviz version 2.40.1 (20161225.0304)
 -->
<!-- Title: jsx_expression Pages: 1 -->
<svg width="1032pt" height="266pt"
 viewBox="0.00 0.00 1032.48 265.83" xmlns="http://www.w3.org/2000/svg" xmlns:xlink="http://www.w3.org/1999/xlink">
<g id="graph0" class="graph" transform="scale(1 1) rotate(0) translate(4 261.8313)">
<title>jsx_expression</title>
<polygon fill="#ffffff" stroke="transparent" points="-4,4 -4,-261.8313 1028.4778,-261.8313 1028.4778,4 -4,4"/>
<!-- s409 -->
<g id="node1" class="node">
<title>s409</title>
<polygon fill="none" stroke="#000000" points="0,-43.6156 0,-85.2156 56.4418,-85.2156 56.4418,-43.6156 0,-43.6156"/>
<text text-anchor="middle" x="28.2209" y="-68.6156" font-family="Times,serif" font-size="14.00" fill="#000000">s409</text>
<text text-anchor="middle" x="28.2209" y="-51.8156" font-family="Times,serif" font-size="14.00" fill="#000000">→ SEQ</text>
</g>
<!-- s410 -->
<g id="node2" class="node">
<title>s410</title>
<ellipse fill="none" stroke="#000000" cx="161.6707" cy="-64.4156" rx="68.4585" ry="29.3315"/>
<text text-anchor="middle" x="161.6707" y="-68.6156" font-family="Times,serif" font-size="14.00" fill="#000000">s410 STRING</text>
<text text-anchor="middle" x="161.6707" y="-51.8156" font-family="Times,serif" font-size="14.00" fill="#000000">&quot;{&quot;</text>
</g>
<!-- s409&#45;&gt;s410 -->
<g id="edge1" class="edge">
<title>s409&#45;&gt;s410</title>
<path fill="none" stroke="#000000" d="M56.5222,-64.4156C64.5856,-64.4156 73.7846,-64.4156 83.3101,-64.4156"/>
<polygon fill="#000000" stroke="#000000" points="83.321,-67.9157 93.321,-64.4156 83.3209,-60.9157 83.321,-67.9157"/>
</g>
<!-- s411 -->
<g id="node3" class="node">
<title>s411</title>
<polygon fill="none" stroke="#000000" points="266.8995,-39.6156 266.8995,-89.2156 368.4991,-89.2156 368.4991,-39.6156 266.8995,-39.6156"/>
<text text-anchor="middle" x="307.9493" y="-68.6156" font-family="Times,serif" font-size="14.00" fill="#000000">s411</text>
<text text-anchor="middle" x="307.9493" y="-51.8156" font-family="Times,serif" font-size="14.00" fill="#000000">→ CHOICE</text>
<polyline fill="none" stroke="#000000" points="348.9991,-39.6156 348.9991,-89.2156 "/>
<text text-anchor="middle" x="358.7491" y="-72.6156" font-family="Times,serif" font-size="14.00" fill="#000000"> </text>
<polyline fill="none" stroke="#000000" points="348.9991,-64.4156 368.4991,-64.4156 "/>
<text text-anchor="middle" x="358.7491" y="-47.8156" font-family="Times,serif" font-size="14.00" fill="#000000"> </text>
</g>
<!-- s410&#45;&gt;s411 -->
<g id="edge7" class="edge">
<title>s410&#45;&gt;s411</title>
<path fill="none" stroke="#000000" d="M230.1071,-64.4156C238.9349,-64.4156 247.9288,-64.4156 256.6274,-64.4156"/>
<polygon fill="#000000" stroke="#000000" points="256.6756,-67.9157 266.6755,-64.4156 256.6755,-60.9157 256.6756,-67.9157"/>
</g>
<!-- s412 -->
<g id="node4" class="node">
<title>s412</title>
<polygon fill="none" stroke="#000000" points="405.4991,-87.2156 405.4991,-161.6156 507.0987,-161.6156 507.0987,-87.2156 405.4991,-87.2156"/>
<text text-anchor="middle" x="446.5489" y="-128.6156" font-family="Times,serif" font-size="14.00" fill="#000000">s412</text>
<text text-anchor="middle" x="446.5489" y="-111.8156" font-family="Times,serif" font-size="14.00" fill="#000000">→ CHOICE</text>
<polyline fill="none" stroke="#000000" points="487.5987,-87.2156 487.5987,-161.6156 "/>
<text text-anchor="middle" x="497.3487" y="-145.0156" font-family="Times,serif" font-size="14.00" fill="#000000"> </text>
<polyline fill="none" stroke="#000000" points="487.5987,-136.8156 507.0987,-136.8156 "/>
<text text-anchor="middle" x="497.3487" y="-120.2156" font-family="Times,serif" font-size="14.00" fill="#000000"> </text>
<polyline fill="none" stroke="#000000" points="487.5987,-112.0156 507.0987,-112.0156 "/>
<text text-anchor="middle" x="497.3487" y="-95.4156" font-family="Times,serif" font-size="14.00" fill="#000000"> </text>
</g>
<!-- s411&#45;&gt;s412 -->
<g id="edge5" class="edge">
<title>s411:p0&#45;&gt;s412</title>
<path fill="none" stroke="#000000" d="M368.4991,-76.4156C378.6619,-76.4156 388.7648,-78.9222 398.3045,-82.7897"/>
<polygon fill="#000000" stroke="#000000" points="397.089,-86.0826 407.6379,-87.0684 400.0061,-79.7194 397.089,-86.0826"/>
</g>
<!-- s416 -->
<g id="node8" class="node">
<title>s416</title>
<ellipse fill="none" stroke="#000000" cx="584.185" cy="-29.4156" rx="45.3054" ry="29.3315"/>
<text text-anchor="middle" x="584.185" y="-33.6156" font-family="Times,serif" font-size="14.00" fill="#000000">s416 </text>
<text text-anchor="middle" x="584.185" y="-16.8156" font-family="Times,serif" font-size="14.00" fill="#000000">BLANK</text>
</g>
<!-- s411&#45;&gt;s416 -->
<g id="edge6" class="edge">
<title>s411:p1&#45;&gt;s416</title>
<path fill="none" stroke="#000000" d="M368.4991,-52.4156C423.7568,-52.4156 486.5309,-44.8591 530.0502,-38.4087"/>
<polygon fill="#000000" stroke="#000000" points="530.768,-41.84 540.1318,-36.8831 529.7206,-34.9188 530.768,-41.84"/>
</g>
<!-- s413 -->
<g id="node5" class="node">
<title>s413</title>
<g id="a_node5"><a xlink:href="javascript-grammar.json._expression.dot.svg" xlink:title="s413 SYMBOL\n_expression">
<ellipse fill="none" stroke="#000000" cx="756.1457" cy="-228.4156" rx="73.9667" ry="29.3315"/>
<text text-anchor="middle" x="756.1457" y="-232.6156" font-family="Times,serif" font-size="14.00" fill="#000000">s413 SYMBOL</text>
<text text-anchor="middle" x="756.1457" y="-215.8156" font-family="Times,serif" font-size="14.00" fill="#000000">_expression</text>
</a>
</g>
</g>
<!-- s412&#45;&gt;s413 -->
<g id="edge2" class="edge">
<title>s412:p0&#45;&gt;s413</title>
<path fill="none" stroke="#000000" d="M507.0987,-149.4156C509.4796,-149.4156 615.9396,-183.4215 688.8833,-206.8114"/>
<polygon fill="#000000" stroke="#000000" points="687.9021,-210.1723 698.4932,-209.8937 690.04,-203.5067 687.9021,-210.1723"/>
<text text-anchor="middle" x="584.185" y="-194.6156" font-family="Times,serif" font-size="14.00" fill="#000000">_expression</text>
</g>
<!-- s414 -->
<g id="node6" class="node">
<title>s414</title>
<g id="a_node6"><a xlink:href="javascript-grammar.json.sequence_expression.dot.svg" xlink:title="s414 SYMBOL\nsequence_expression">
<ellipse fill="none" stroke="#000000" cx="756.1457" cy="-151.4156" rx="94.7489" ry="29.3315"/>
<text text-anchor="middle" x="756.1457" y="-155.6156" font-family="Times,serif" font-size="14.00" fill="#000000">s414 SYMBOL</text>
<text text-anchor="middle" x="756.1457" y="-138.8156" font-family="Times,serif" font-size="14.00" fill="#000000">sequence_expression</text>
</a>
</g>
</g>
<!-- s412&#45;&gt;s414 -->
<g id="edge3" class="edge">
<title>s412:p1&#45;&gt;s414</title>
<path fill="none" stroke="#000000" d="M507.0987,-124.4156C558.4549,-124.4156 615.4228,-130.1605 661.8983,-136.3503"/>
<polygon fill="#000000" stroke="#000000" points="661.5724,-139.8381 671.953,-137.7179 662.516,-132.902 661.5724,-139.8381"/>
<text text-anchor="middle" x="584.185" y="-137.6156" font-family="Times,serif" font-size="14.00" fill="#000000">sequence_expression</text>
</g>
<!-- s415 -->
<g id="node7" class="node">
<title>s415</title>
<g id="a_node7"><a xlink:href="javascript-grammar.json.spread_element.dot.svg" xlink:title="s415 SYMBOL\nspread_element">
<ellipse fill="none" stroke="#000000" cx="756.1457" cy="-74.4156" rx="73.9667" ry="29.3315"/>
<text text-anchor="middle" x="756.1457" y="-78.6156" font-family="Times,serif" font-size="14.00" fill="#000000">s415 SYMBOL</text>
<text text-anchor="middle" x="756.1457" y="-61.8156" font-family="Times,serif" font-size="14.00" fill="#000000">spread_element</text>
</a>
</g>
</g>
<!-- s412&#45;&gt;s415 -->
<g id="edge4" class="edge">
<title>s412:p2&#45;&gt;s415</title>
<path fill="none" stroke="#000000" d="M507.0987,-99.4156C564.1996,-99.4156 628.298,-92.8289 677.1659,-86.4172"/>
<polygon fill="#000000" stroke="#000000" points="677.9071,-89.8493 687.3547,-85.0541 676.9788,-82.9112 677.9071,-89.8493"/>
<text text-anchor="middle" x="584.185" y="-103.6156" font-family="Times,serif" font-size="14.00" fill="#000000">spread_element</text>
</g>
<!-- s417 -->
<g id="node9" class="node">
<title>s417</title>
<ellipse fill="none" stroke="#000000" cx="956.2489" cy="-99.4156" rx="68.4585" ry="29.3315"/>
<text text-anchor="middle" x="956.2489" y="-103.6156" font-family="Times,serif" font-size="14.00" fill="#000000">s417 STRING</text>
<text text-anchor="middle" x="956.2489" y="-86.8156" font-family="Times,serif" font-size="14.00" fill="#000000">&quot;}&quot;</text>
</g>
<!-- s413&#45;&gt;s417 -->
<g id="edge8" class="edge">
<title>s413&#45;&gt;s417</title>
<path fill="none" stroke="#000000" d="M811.7803,-208.9992C825.042,-203.443 838.8652,-196.8475 851.0201,-189.4156 876.5496,-173.8061 902.1311,-152.0981 921.6783,-133.9127"/>
<polygon fill="#000000" stroke="#000000" points="924.2598,-136.289 929.1294,-126.8795 919.4549,-131.1985 924.2598,-136.289"/>
</g>
<!-- s414&#45;&gt;s417 -->
<g id="edge9" class="edge">
<title>s414&#45;&gt;s417</title>
<path fill="none" stroke="#000000" d="M828.9536,-132.4954C848.1758,-127.5001 868.8504,-122.1275 887.8316,-117.195"/>
<polygon fill="#000000" stroke="#000000" points="888.7884,-120.5627 897.5866,-114.66 887.0277,-113.7877 888.7884,-120.5627"/>
</g>
<!-- s415&#45;&gt;s417 -->
<g id="edge10" class="edge">
<title>s415&#45;&gt;s417</title>
<path fill="none" stroke="#000000" d="M826.6946,-83.2297C844.0959,-85.4037 862.8047,-87.7411 880.4437,-89.9449"/>
<polygon fill="#000000" stroke="#000000" points="880.3308,-93.4579 890.6876,-91.2247 881.1987,-86.5119 880.3308,-93.4579"/>
</g>
<!-- s416&#45;&gt;s417 -->
<g id="edge11" class="edge">
<title>s416&#45;&gt;s417</title>
<path fill="none" stroke="#000000" d="M629.1566,-23.7646C683.0699,-18.5325 775.5924,-14.4937 851.0201,-36.4156 873.6137,-42.9821 896.3082,-55.6177 914.8071,-67.8595"/>
<polygon fill="#000000" stroke="#000000" points="913.0283,-70.8827 923.2633,-73.6205 916.9695,-65.0976 913.0283,-70.8827"/>
</g>
</g>
</svg>
