<?xml version="1.0" encoding="UTF-8" standalone="no"?>
<!DOCTYPE svg PUBLIC "-//W3C//DTD SVG 1.1//EN"
 "http://www.w3.org/Graphics/SVG/1.1/DTD/svg11.dtd">
<!-- Generated by graphviz version 2.40.1 (20161225.0304)
 -->
<!-- Title: statement_block Pages: 1 -->
<svg width="712pt" height="67pt"
 viewBox="0.00 0.00 711.71 66.83" xmlns="http://www.w3.org/2000/svg" xmlns:xlink="http://www.w3.org/1999/xlink">
<g id="graph0" class="graph" transform="scale(1 1) rotate(0) translate(4 62.8313)">
<title>statement_block</title>
<polygon fill="#ffffff" stroke="transparent" points="-4,4 -4,-62.8313 707.7069,-62.8313 707.7069,4 -4,4"/>
<!-- s165 -->
<g id="node1" class="node">
<title>s165</title>
<polygon fill="none" stroke="#000000" points="0,-8.6156 0,-50.2156 56.4418,-50.2156 56.4418,-8.6156 0,-8.6156"/>
<text text-anchor="middle" x="28.2209" y="-33.6156" font-family="Times,serif" font-size="14.00" fill="#000000">s165</text>
<text text-anchor="middle" x="28.2209" y="-16.8156" font-family="Times,serif" font-size="14.00" fill="#000000">→ SEQ</text>
</g>
<!-- s166 -->
<g id="node2" class="node">
<title>s166</title>
<ellipse fill="none" stroke="#000000" cx="160.6707" cy="-29.4156" rx="68.4585" ry="29.3315"/>
<text text-anchor="middle" x="160.6707" y="-33.6156" font-family="Times,serif" font-size="14.00" fill="#000000">s166 STRING</text>
<text text-anchor="middle" x="160.6707" y="-16.8156" font-family="Times,serif" font-size="14.00" fill="#000000">&quot;{&quot;</text>
</g>
<!-- s165&#45;&gt;s166 -->
<g id="edge1" class="edge">
<title>s165&#45;&gt;s166</title>
<path fill="none" stroke="#000000" d="M56.6347,-29.4156C64.3113,-29.4156 73.0073,-29.4156 82.0218,-29.4156"/>
<polygon fill="#000000" stroke="#000000" points="82.2976,-32.9157 92.2975,-29.4156 82.2975,-25.9157 82.2976,-32.9157"/>
</g>
<!-- s167 -->
<g id="node3" class="node">
<title>s167</title>
<polygon fill="none" stroke="#000000" points="264.8995,-8.6156 264.8995,-50.2156 347.7831,-50.2156 347.7831,-8.6156 264.8995,-8.6156"/>
<text text-anchor="middle" x="306.3413" y="-33.6156" font-family="Times,serif" font-size="14.00" fill="#000000">s167</text>
<text text-anchor="middle" x="306.3413" y="-16.8156" font-family="Times,serif" font-size="14.00" fill="#000000">→ REPEAT</text>
</g>
<!-- s166&#45;&gt;s167 -->
<g id="edge4" class="edge">
<title>s166&#45;&gt;s167</title>
<path fill="none" stroke="#000000" d="M229.2405,-29.4156C237.7499,-29.4156 246.3371,-29.4156 254.5356,-29.4156"/>
<polygon fill="#000000" stroke="#000000" points="254.6772,-32.9157 264.6772,-29.4156 254.6772,-25.9157 254.6772,-32.9157"/>
</g>
<!-- s168 -->
<g id="node4" class="node">
<title>s168</title>
<g id="a_node4"><a xlink:href="javascript-grammar.json._statement.dot.svg" xlink:title="s168 SYMBOL\n_statement">
<ellipse fill="none" stroke="#000000" cx="457.5161" cy="-29.4156" rx="73.9667" ry="29.3315"/>
<text text-anchor="middle" x="457.5161" y="-33.6156" font-family="Times,serif" font-size="14.00" fill="#000000">s168 SYMBOL</text>
<text text-anchor="middle" x="457.5161" y="-16.8156" font-family="Times,serif" font-size="14.00" fill="#000000">_statement</text>
</a>
</g>
</g>
<!-- s167&#45;&gt;s168 -->
<g id="edge2" class="edge">
<title>s167&#45;&gt;s168</title>
<path fill="none" stroke="#000000" d="M348.0507,-23.3084C356.5869,-22.9618 365.8498,-22.7553 375.2516,-22.6891"/>
<polygon fill="#000000" stroke="#000000" points="375.4861,-26.1888 385.4803,-22.6723 375.4745,-19.1888 375.4861,-26.1888"/>
</g>
<!-- s168&#45;&gt;s167 -->
<g id="edge3" class="edge">
<title>s168&#45;&gt;s167</title>
<path fill="none" stroke="#000000" d="M385.4803,-36.159C376.2555,-36.1935 366.96,-36.0936 358.145,-35.8594"/>
<polygon fill="#000000" stroke="#000000" points="358.1618,-32.3581 348.0507,-35.5228 357.9285,-39.3543 358.1618,-32.3581"/>
</g>
<!-- s169 -->
<g id="node5" class="node">
<title>s169</title>
<ellipse fill="none" stroke="#000000" cx="635.478" cy="-29.4156" rx="68.4585" ry="29.3315"/>
<text text-anchor="middle" x="635.478" y="-33.6156" font-family="Times,serif" font-size="14.00" fill="#000000">s169 STRING</text>
<text text-anchor="middle" x="635.478" y="-16.8156" font-family="Times,serif" font-size="14.00" fill="#000000">&quot;}&quot;</text>
</g>
<!-- s168&#45;&gt;s169 -->
<g id="edge5" class="edge">
<title>s168&#45;&gt;s169</title>
<path fill="none" stroke="#000000" d="M531.4419,-29.4156C539.8607,-29.4156 548.4646,-29.4156 556.9403,-29.4156"/>
<polygon fill="#000000" stroke="#000000" points="557.1942,-32.9157 567.1942,-29.4156 557.1942,-25.9157 557.1942,-32.9157"/>
</g>
</g>
</svg>
