<?xml version="1.0" encoding="UTF-8" standalone="no"?>
<!DOCTYPE svg PUBLIC "-//W3C//DTD SVG 1.1//EN"
 "http://www.w3.org/Graphics/SVG/1.1/DTD/svg11.dtd">
<!-- Generated by graphviz version 2.40.1 (20161225.0304)
 -->
<!-- Title: pair Pages: 1 -->
<svg width="609pt" height="67pt"
 viewBox="0.00 0.00 608.74 66.83" xmlns="http://www.w3.org/2000/svg" xmlns:xlink="http://www.w3.org/1999/xlink">
<g id="graph0" class="graph" transform="scale(1 1) rotate(0) translate(4 62.8313)">
<title>pair</title>
<polygon fill="#ffffff" stroke="transparent" points="-4,4 -4,-62.8313 604.7417,-62.8313 604.7417,4 -4,4"/>
<!-- s893 -->
<g id="node1" class="node">
<title>s893</title>
<polygon fill="none" stroke="#000000" points="0,-8.6156 0,-50.2156 56.4418,-50.2156 56.4418,-8.6156 0,-8.6156"/>
<text text-anchor="middle" x="28.2209" y="-33.6156" font-family="Times,serif" font-size="14.00" fill="#000000">s893</text>
<text text-anchor="middle" x="28.2209" y="-16.8156" font-family="Times,serif" font-size="14.00" fill="#000000">→ SEQ</text>
</g>
<!-- s894 -->
<g id="node2" class="node">
<title>s894</title>
<g id="a_node2"><a xlink:href="javascript-grammar.json._property_name.dot.svg" xlink:title="s894 SYMBOL\n_property_name">
<ellipse fill="none" stroke="#000000" cx="168.6299" cy="-29.4156" rx="76.3766" ry="29.3315"/>
<text text-anchor="middle" x="168.6299" y="-33.6156" font-family="Times,serif" font-size="14.00" fill="#000000">s894 SYMBOL</text>
<text text-anchor="middle" x="168.6299" y="-16.8156" font-family="Times,serif" font-size="14.00" fill="#000000">_property_name</text>
</a>
</g>
</g>
<!-- s893&#45;&gt;s894 -->
<g id="edge1" class="edge">
<title>s893&#45;&gt;s894</title>
<path fill="none" stroke="#000000" d="M56.6347,-29.4156C64.3438,-29.4156 73.1098,-29.4156 82.2634,-29.4156"/>
<polygon fill="#000000" stroke="#000000" points="82.3166,-32.9157 92.3166,-29.4156 82.3165,-25.9157 82.3166,-32.9157"/>
</g>
<!-- s895 -->
<g id="node3" class="node">
<title>s895</title>
<ellipse fill="none" stroke="#000000" cx="349.0468" cy="-29.4156" rx="68.4585" ry="29.3315"/>
<text text-anchor="middle" x="349.0468" y="-33.6156" font-family="Times,serif" font-size="14.00" fill="#000000">s895 STRING</text>
<text text-anchor="middle" x="349.0468" y="-16.8156" font-family="Times,serif" font-size="14.00" fill="#000000">&quot;:&quot;</text>
</g>
<!-- s894&#45;&gt;s895 -->
<g id="edge2" class="edge">
<title>s894&#45;&gt;s895</title>
<path fill="none" stroke="#000000" d="M244.8814,-29.4156C253.4527,-29.4156 262.1963,-29.4156 270.7924,-29.4156"/>
<polygon fill="#000000" stroke="#000000" points="270.7967,-32.9157 280.7967,-29.4156 270.7967,-25.9157 270.7967,-32.9157"/>
</g>
<!-- s896 -->
<g id="node4" class="node">
<title>s896</title>
<g id="a_node4"><a xlink:href="javascript-grammar.json._expression.dot.svg" xlink:title="s896 SYMBOL\n_expression">
<ellipse fill="none" stroke="#000000" cx="527.0087" cy="-29.4156" rx="73.9667" ry="29.3315"/>
<text text-anchor="middle" x="527.0087" y="-33.6156" font-family="Times,serif" font-size="14.00" fill="#000000">s896 SYMBOL</text>
<text text-anchor="middle" x="527.0087" y="-16.8156" font-family="Times,serif" font-size="14.00" fill="#000000">_expression</text>
</a>
</g>
</g>
<!-- s895&#45;&gt;s896 -->
<g id="edge3" class="edge">
<title>s895&#45;&gt;s896</title>
<path fill="none" stroke="#000000" d="M417.3426,-29.4156C425.7263,-29.4156 434.3694,-29.4156 442.9513,-29.4156"/>
<polygon fill="#000000" stroke="#000000" points="442.9784,-32.9157 452.9783,-29.4156 442.9783,-25.9157 442.9784,-32.9157"/>
</g>
</g>
</svg>
