<?xml version="1.0" encoding="UTF-8" standalone="no"?>
<!DOCTYPE svg PUBLIC "-//W3C//DTD SVG 1.1//EN"
 "http://www.w3.org/Graphics/SVG/1.1/DTD/svg11.dtd">
<!-- Generated by graphviz version 2.40.1 (20161225.0304)
 -->
<!-- Title: object Pages: 1 -->
<svg width="4022pt" height="517pt"
 viewBox="0.00 0.00 4022.45 516.83" xmlns="http://www.w3.org/2000/svg" xmlns:xlink="http://www.w3.org/1999/xlink">
<g id="graph0" class="graph" transform="scale(1 1) rotate(0) translate(4 512.8313)">
<title>object</title>
<polygon fill="#ffffff" stroke="transparent" points="-4,4 -4,-512.8313 4018.4519,-512.8313 4018.4519,4 -4,4"/>
<!-- s329 -->
<g id="node1" class="node">
<title>s329</title>
<polygon fill="none" stroke="#000000" points="0,-23.6156 0,-65.2156 65.0084,-65.2156 65.0084,-23.6156 0,-23.6156"/>
<text text-anchor="middle" x="32.5042" y="-48.6156" font-family="Times,serif" font-size="14.00" fill="#000000">s329</text>
<text text-anchor="middle" x="32.5042" y="-31.8156" font-family="Times,serif" font-size="14.00" fill="#000000">→ PREC</text>
</g>
<!-- s330 -->
<g id="node2" class="node">
<title>s330</title>
<polygon fill="none" stroke="#000000" points="102.0084,-23.6156 102.0084,-65.2156 158.4502,-65.2156 158.4502,-23.6156 102.0084,-23.6156"/>
<text text-anchor="middle" x="130.2293" y="-48.6156" font-family="Times,serif" font-size="14.00" fill="#000000">s330</text>
<text text-anchor="middle" x="130.2293" y="-31.8156" font-family="Times,serif" font-size="14.00" fill="#000000">→ SEQ</text>
</g>
<!-- s329&#45;&gt;s330 -->
<g id="edge47" class="edge">
<title>s329&#45;&gt;s330</title>
<path fill="none" stroke="#000000" d="M65.0452,-44.4156C73.5855,-44.4156 82.8774,-44.4156 91.6984,-44.4156"/>
<polygon fill="#000000" stroke="#000000" points="91.7642,-47.9157 101.7641,-44.4156 91.7641,-40.9157 91.7642,-47.9157"/>
</g>
<!-- s331 -->
<g id="node3" class="node">
<title>s331</title>
<ellipse fill="none" stroke="#000000" cx="263.6791" cy="-44.4156" rx="68.4585" ry="29.3315"/>
<text text-anchor="middle" x="263.6791" y="-48.6156" font-family="Times,serif" font-size="14.00" fill="#000000">s331 STRING</text>
<text text-anchor="middle" x="263.6791" y="-31.8156" font-family="Times,serif" font-size="14.00" fill="#000000">&quot;{&quot;</text>
</g>
<!-- s330&#45;&gt;s331 -->
<g id="edge1" class="edge">
<title>s330&#45;&gt;s331</title>
<path fill="none" stroke="#000000" d="M158.5306,-44.4156C166.594,-44.4156 175.793,-44.4156 185.3185,-44.4156"/>
<polygon fill="#000000" stroke="#000000" points="185.3294,-47.9157 195.3294,-44.4156 185.3293,-40.9157 185.3294,-47.9157"/>
</g>
<!-- s332 -->
<g id="node4" class="node">
<title>s332</title>
<polygon fill="none" stroke="#000000" points="368.9079,-19.6156 368.9079,-69.2156 470.5075,-69.2156 470.5075,-19.6156 368.9079,-19.6156"/>
<text text-anchor="middle" x="409.9577" y="-48.6156" font-family="Times,serif" font-size="14.00" fill="#000000">s332</text>
<text text-anchor="middle" x="409.9577" y="-31.8156" font-family="Times,serif" font-size="14.00" fill="#000000">→ CHOICE</text>
<polyline fill="none" stroke="#000000" points="451.0075,-19.6156 451.0075,-69.2156 "/>
<text text-anchor="middle" x="460.7575" y="-52.6156" font-family="Times,serif" font-size="14.00" fill="#000000"> </text>
<polyline fill="none" stroke="#000000" points="451.0075,-44.4156 470.5075,-44.4156 "/>
<text text-anchor="middle" x="460.7575" y="-27.8156" font-family="Times,serif" font-size="14.00" fill="#000000"> </text>
</g>
<!-- s331&#45;&gt;s332 -->
<g id="edge44" class="edge">
<title>s331&#45;&gt;s332</title>
<path fill="none" stroke="#000000" d="M332.1155,-44.4156C340.9433,-44.4156 349.9372,-44.4156 358.6358,-44.4156"/>
<polygon fill="#000000" stroke="#000000" points="358.684,-47.9157 368.6839,-44.4156 358.6839,-40.9157 358.684,-47.9157"/>
</g>
<!-- s333 -->
<g id="node5" class="node">
<title>s333</title>
<polygon fill="none" stroke="#000000" points="507.5075,-61.6156 507.5075,-103.2156 563.9493,-103.2156 563.9493,-61.6156 507.5075,-61.6156"/>
<text text-anchor="middle" x="535.7284" y="-86.6156" font-family="Times,serif" font-size="14.00" fill="#000000">s333</text>
<text text-anchor="middle" x="535.7284" y="-69.8156" font-family="Times,serif" font-size="14.00" fill="#000000">→ SEQ</text>
</g>
<!-- s332&#45;&gt;s333 -->
<g id="edge42" class="edge">
<title>s332:p0&#45;&gt;s333</title>
<path fill="none" stroke="#000000" d="M470.5075,-56.4156C479.8174,-56.4156 489.3773,-58.7298 498.2095,-61.9773"/>
<polygon fill="#000000" stroke="#000000" points="496.8828,-65.2161 507.4614,-65.8022 499.5572,-58.7471 496.8828,-65.2161"/>
</g>
<!-- s365 -->
<g id="node37" class="node">
<title>s365</title>
<ellipse fill="none" stroke="#000000" cx="627.352" cy="-29.4156" rx="45.3054" ry="29.3315"/>
<text text-anchor="middle" x="627.352" y="-33.6156" font-family="Times,serif" font-size="14.00" fill="#000000">s365 </text>
<text text-anchor="middle" x="627.352" y="-16.8156" font-family="Times,serif" font-size="14.00" fill="#000000">BLANK</text>
</g>
<!-- s332&#45;&gt;s365 -->
<g id="edge43" class="edge">
<title>s332:p1&#45;&gt;s365</title>
<path fill="none" stroke="#000000" d="M470.5075,-32.4156C504.006,-32.4156 541.5214,-31.7231 571.461,-31.0035"/>
<polygon fill="#000000" stroke="#000000" points="571.806,-34.4961 581.716,-30.749 571.6322,-27.4983 571.806,-34.4961"/>
</g>
<!-- s334 -->
<g id="node6" class="node">
<title>s334</title>
<polygon fill="none" stroke="#000000" points="690.7546,-58.6156 690.7546,-108.2156 792.3542,-108.2156 792.3542,-58.6156 690.7546,-58.6156"/>
<text text-anchor="middle" x="731.8044" y="-87.6156" font-family="Times,serif" font-size="14.00" fill="#000000">s334</text>
<text text-anchor="middle" x="731.8044" y="-70.8156" font-family="Times,serif" font-size="14.00" fill="#000000">→ CHOICE</text>
<polyline fill="none" stroke="#000000" points="772.8542,-58.6156 772.8542,-108.2156 "/>
<text text-anchor="middle" x="782.6042" y="-91.6156" font-family="Times,serif" font-size="14.00" fill="#000000"> </text>
<polyline fill="none" stroke="#000000" points="772.8542,-83.4156 792.3542,-83.4156 "/>
<text text-anchor="middle" x="782.6042" y="-66.8156" font-family="Times,serif" font-size="14.00" fill="#000000"> </text>
</g>
<!-- s333&#45;&gt;s334 -->
<g id="edge16" class="edge">
<title>s333&#45;&gt;s334</title>
<path fill="none" stroke="#000000" d="M564.3477,-82.5547C594.2602,-82.7 642.1032,-82.9325 680.5417,-83.1192"/>
<polygon fill="#000000" stroke="#000000" points="680.5848,-86.6194 690.6017,-83.1681 680.6189,-79.6194 680.5848,-86.6194"/>
</g>
<!-- s335 -->
<g id="node7" class="node">
<title>s335</title>
<polygon fill="none" stroke="#000000" points="829.3542,-231.4156 829.3542,-355.4156 930.9538,-355.4156 930.9538,-231.4156 829.3542,-231.4156"/>
<text text-anchor="middle" x="870.404" y="-297.6156" font-family="Times,serif" font-size="14.00" fill="#000000">s335</text>
<text text-anchor="middle" x="870.404" y="-280.8156" font-family="Times,serif" font-size="14.00" fill="#000000">→ CHOICE</text>
<polyline fill="none" stroke="#000000" points="911.4538,-231.4156 911.4538,-355.4156 "/>
<text text-anchor="middle" x="921.2038" y="-338.8156" font-family="Times,serif" font-size="14.00" fill="#000000"> </text>
<polyline fill="none" stroke="#000000" points="911.4538,-330.6156 930.9538,-330.6156 "/>
<text text-anchor="middle" x="921.2038" y="-314.0156" font-family="Times,serif" font-size="14.00" fill="#000000"> </text>
<polyline fill="none" stroke="#000000" points="911.4538,-305.8156 930.9538,-305.8156 "/>
<text text-anchor="middle" x="921.2038" y="-289.2156" font-family="Times,serif" font-size="14.00" fill="#000000"> </text>
<polyline fill="none" stroke="#000000" points="911.4538,-281.0156 930.9538,-281.0156 "/>
<text text-anchor="middle" x="921.2038" y="-264.4156" font-family="Times,serif" font-size="14.00" fill="#000000"> </text>
<polyline fill="none" stroke="#000000" points="911.4538,-256.2156 930.9538,-256.2156 "/>
<text text-anchor="middle" x="921.2038" y="-239.6156" font-family="Times,serif" font-size="14.00" fill="#000000"> </text>
</g>
<!-- s334&#45;&gt;s335 -->
<g id="edge14" class="edge">
<title>s334:p0&#45;&gt;s335</title>
<path fill="none" stroke="#000000" d="M782.5544,-108.4156C782.5544,-149.9175 802.0063,-191.2348 823.5422,-224.2608"/>
<polygon fill="#000000" stroke="#000000" points="820.8712,-226.5614 829.3531,-232.9102 826.6816,-222.6577 820.8712,-226.5614"/>
</g>
<!-- s347 -->
<g id="node19" class="node">
<title>s347</title>
<ellipse fill="none" stroke="#000000" cx="1032.9286" cy="-71.4156" rx="45.3054" ry="29.3315"/>
<text text-anchor="middle" x="1032.9286" y="-75.6156" font-family="Times,serif" font-size="14.00" fill="#000000">s347 </text>
<text text-anchor="middle" x="1032.9286" y="-58.8156" font-family="Times,serif" font-size="14.00" fill="#000000">BLANK</text>
</g>
<!-- s334&#45;&gt;s347 -->
<g id="edge15" class="edge">
<title>s334:p1&#45;&gt;s347</title>
<path fill="none" stroke="#000000" d="M792.3542,-71.4156C855.7176,-71.4156 928.4684,-71.4156 977.2278,-71.4156"/>
<polygon fill="#000000" stroke="#000000" points="977.2565,-74.9157 987.2564,-71.4156 977.2564,-67.9157 977.2565,-74.9157"/>
</g>
<!-- s336 -->
<g id="node8" class="node">
<title>s336</title>
<g id="a_node8"><a xlink:href="javascript-grammar.json.pair.dot.svg" xlink:title="s336 SYMBOL\npair">
<ellipse fill="none" stroke="#000000" cx="1314.4864" cy="-407.4156" rx="73.9667" ry="29.3315"/>
<text text-anchor="middle" x="1314.4864" y="-411.6156" font-family="Times,serif" font-size="14.00" fill="#000000">s336 SYMBOL</text>
<text text-anchor="middle" x="1314.4864" y="-394.8156" font-family="Times,serif" font-size="14.00" fill="#000000">pair</text>
</a>
</g>
</g>
<!-- s335&#45;&gt;s336 -->
<g id="edge2" class="edge">
<title>s335:p0&#45;&gt;s336</title>
<path fill="none" stroke="#000000" d="M930.9538,-343.4156C947.6604,-343.4156 934.9613,-367.2876 948.9538,-376.4156 1034.9724,-432.5301 1157.6646,-430.25 1236.6953,-420.8771"/>
<polygon fill="#000000" stroke="#000000" points="1237.5821,-424.2934 1247.069,-419.5763 1236.7112,-417.3478 1237.5821,-424.2934"/>
<text text-anchor="middle" x="1032.9286" y="-428.6156" font-family="Times,serif" font-size="14.00" fill="#000000">pair</text>
</g>
<!-- s337 -->
<g id="node9" class="node">
<title>s337</title>
<g id="a_node9"><a xlink:href="javascript-grammar.json.spread_element.dot.svg" xlink:title="s337 SYMBOL\nspread_element">
<ellipse fill="none" stroke="#000000" cx="1580.836" cy="-364.4156" rx="73.9667" ry="29.3315"/>
<text text-anchor="middle" x="1580.836" y="-368.6156" font-family="Times,serif" font-size="14.00" fill="#000000">s337 SYMBOL</text>
<text text-anchor="middle" x="1580.836" y="-351.8156" font-family="Times,serif" font-size="14.00" fill="#000000">spread_element</text>
</a>
</g>
</g>
<!-- s335&#45;&gt;s337 -->
<g id="edge3" class="edge">
<title>s335:p1&#45;&gt;s337</title>
<path fill="none" stroke="#000000" d="M930.9538,-318.4156C1021.9124,-318.4156 1044.194,-328.6862 1134.9034,-335.4156 1261.3648,-344.7974 1408.1272,-354.0211 1497.7144,-359.464"/>
<polygon fill="#000000" stroke="#000000" points="1497.6196,-362.9646 1507.8131,-360.0762 1498.0433,-355.9774 1497.6196,-362.9646"/>
<text text-anchor="middle" x="1178.8284" y="-344.6156" font-family="Times,serif" font-size="14.00" fill="#000000">spread_element</text>
</g>
<!-- s338 -->
<g id="node10" class="node">
<title>s338</title>
<polygon fill="none" stroke="#000000" points="1150.6075,-284.6156 1150.6075,-326.2156 1207.0493,-326.2156 1207.0493,-284.6156 1150.6075,-284.6156"/>
<text text-anchor="middle" x="1178.8284" y="-309.6156" font-family="Times,serif" font-size="14.00" fill="#000000">s338</text>
<text text-anchor="middle" x="1178.8284" y="-292.8156" font-family="Times,serif" font-size="14.00" fill="#000000">→ SEQ</text>
</g>
<!-- s335&#45;&gt;s338 -->
<g id="edge8" class="edge">
<title>s335:p2&#45;&gt;s338</title>
<path fill="none" stroke="#000000" d="M930.9538,-293.4156C1005.2109,-293.4156 1091.8349,-298.8549 1140.5149,-302.4094"/>
<polygon fill="#000000" stroke="#000000" points="1140.366,-305.9079 1150.5979,-303.1585 1140.8847,-298.9272 1140.366,-305.9079"/>
</g>
<!-- s342 -->
<g id="node14" class="node">
<title>s342</title>
<g id="a_node14"><a xlink:href="javascript-grammar.json.assignment_pattern.dot.svg" xlink:title="s342 SYMBOL\nassignment_pattern">
<ellipse fill="none" stroke="#000000" cx="1926.3252" cy="-256.4156" rx="88.0809" ry="29.3315"/>
<text text-anchor="middle" x="1926.3252" y="-260.6156" font-family="Times,serif" font-size="14.00" fill="#000000">s342 SYMBOL</text>
<text text-anchor="middle" x="1926.3252" y="-243.8156" font-family="Times,serif" font-size="14.00" fill="#000000">assignment_pattern</text>
</a>
</g>
</g>
<!-- s335&#45;&gt;s342 -->
<g id="edge9" class="edge">
<title>s335:p3&#45;&gt;s342</title>
<path fill="none" stroke="#000000" d="M930.9538,-268.4156C1041.2493,-268.4156 1068.5329,-256.4156 1178.8284,-256.4156 1178.8284,-256.4156 1178.8284,-256.4156 1580.836,-256.4156 1664.16,-256.4156 1758.788,-256.4156 1827.9156,-256.4156"/>
<polygon fill="#000000" stroke="#000000" points="1827.9254,-259.9157 1837.9253,-256.4156 1827.9253,-252.9157 1827.9254,-259.9157"/>
<text text-anchor="middle" x="1314.4864" y="-260.6156" font-family="Times,serif" font-size="14.00" fill="#000000">assignment_pattern</text>
</g>
<!-- s343 -->
<g id="node15" class="node">
<title>s343</title>
<polygon fill="none" stroke="#000000" points="1143.2239,-180.6156 1143.2239,-222.2156 1214.4329,-222.2156 1214.4329,-180.6156 1143.2239,-180.6156"/>
<text text-anchor="middle" x="1178.8284" y="-205.6156" font-family="Times,serif" font-size="14.00" fill="#000000">s343</text>
<text text-anchor="middle" x="1178.8284" y="-188.8156" font-family="Times,serif" font-size="14.00" fill="#000000">→ ALIAS</text>
</g>
<!-- s335&#45;&gt;s343 -->
<g id="edge13" class="edge">
<title>s335:p4&#45;&gt;s343</title>
<path fill="none" stroke="#000000" d="M930.9538,-243.4156C942.2048,-243.4156 938.7857,-230.4318 948.9538,-225.6156 1007.9132,-197.6892 1084.693,-195.4724 1132.8825,-197.574"/>
<polygon fill="#000000" stroke="#000000" points="1132.8427,-201.0765 1143.0102,-198.0979 1133.2044,-194.0858 1132.8427,-201.0765"/>
<text text-anchor="middle" x="1032.9286" y="-229.6156" font-family="Times,serif" font-size="14.00" fill="#000000">shorthand_property_identifier</text>
</g>
<!-- s348 -->
<g id="node20" class="node">
<title>s348</title>
<polygon fill="none" stroke="#000000" points="2251.6563,-214.6156 2251.6563,-256.2156 2334.5399,-256.2156 2334.5399,-214.6156 2251.6563,-214.6156"/>
<text text-anchor="middle" x="2293.0981" y="-239.6156" font-family="Times,serif" font-size="14.00" fill="#000000">s348</text>
<text text-anchor="middle" x="2293.0981" y="-222.8156" font-family="Times,serif" font-size="14.00" fill="#000000">→ REPEAT</text>
</g>
<!-- s336&#45;&gt;s348 -->
<g id="edge35" class="edge">
<title>s336&#45;&gt;s348</title>
<path fill="none" stroke="#000000" d="M1388.2553,-407.8412C1441.7205,-408.1134 1515.751,-408.4156 1580.836,-408.4156 1580.836,-408.4156 1580.836,-408.4156 2123.6358,-408.4156 2165.9602,-408.4156 2180.6203,-405.5732 2214.6563,-380.4156 2252.8274,-352.2017 2274.4624,-299.6897 2284.9668,-266.2023"/>
<polygon fill="#000000" stroke="#000000" points="2288.3657,-267.0519 2287.8754,-256.4684 2281.6588,-265.0477 2288.3657,-267.0519"/>
</g>
<!-- s337&#45;&gt;s348 -->
<g id="edge36" class="edge">
<title>s337&#45;&gt;s348</title>
<path fill="none" stroke="#000000" d="M1652.7978,-371.0579C1797.8929,-383.152 2119.7945,-403.0368 2214.6563,-351.4156 2248.2758,-333.1208 2270.2117,-293.4556 2282.1193,-265.6244"/>
<polygon fill="#000000" stroke="#000000" points="2285.3751,-266.9092 2285.9156,-256.3282 2278.8947,-264.2628 2285.3751,-266.9092"/>
</g>
<!-- s339 -->
<g id="node11" class="node">
<title>s339</title>
<polygon fill="none" stroke="#000000" points="1406.2194,-290.6156 1406.2194,-332.2156 1489.103,-332.2156 1489.103,-290.6156 1406.2194,-290.6156"/>
<text text-anchor="middle" x="1447.6612" y="-315.6156" font-family="Times,serif" font-size="14.00" fill="#000000">s339</text>
<text text-anchor="middle" x="1447.6612" y="-298.8156" font-family="Times,serif" font-size="14.00" fill="#000000">→ REPEAT</text>
</g>
<!-- s338&#45;&gt;s339 -->
<g id="edge6" class="edge">
<title>s338&#45;&gt;s339</title>
<path fill="none" stroke="#000000" d="M1207.0901,-306.0464C1251.7622,-307.0434 1339.3819,-308.999 1395.6438,-310.2547"/>
<polygon fill="#000000" stroke="#000000" points="1395.6911,-313.7565 1405.7668,-310.4806 1395.8474,-306.7583 1395.6911,-313.7565"/>
</g>
<!-- s340 -->
<g id="node12" class="node">
<title>s340</title>
<g id="a_node12"><a xlink:href="javascript-grammar.json.decorator.dot.svg" xlink:title="s340 SYMBOL\ndecorator">
<ellipse fill="none" stroke="#000000" cx="1746.302" cy="-313.4156" rx="73.9667" ry="29.3315"/>
<text text-anchor="middle" x="1746.302" y="-317.6156" font-family="Times,serif" font-size="14.00" fill="#000000">s340 SYMBOL</text>
<text text-anchor="middle" x="1746.302" y="-300.8156" font-family="Times,serif" font-size="14.00" fill="#000000">decorator</text>
</a>
</g>
</g>
<!-- s339&#45;&gt;s340 -->
<g id="edge4" class="edge">
<title>s339&#45;&gt;s340</title>
<path fill="none" stroke="#000000" d="M1489.1859,-306.8488C1534.2412,-305.1406 1607.3333,-305.2106 1664.0912,-306.7617"/>
<polygon fill="#000000" stroke="#000000" points="1664.0297,-310.2613 1674.1284,-307.057 1664.2357,-303.2643 1664.0297,-310.2613"/>
</g>
<!-- s340&#45;&gt;s339 -->
<g id="edge5" class="edge">
<title>s340&#45;&gt;s339</title>
<path fill="none" stroke="#000000" d="M1673.5446,-318.8181C1619.6354,-319.7865 1547.4741,-319.0918 1499.3697,-317.0175"/>
<polygon fill="#000000" stroke="#000000" points="1499.3393,-313.5123 1489.1859,-316.5387 1499.0105,-320.5046 1499.3393,-313.5123"/>
</g>
<!-- s341 -->
<g id="node13" class="node">
<title>s341</title>
<g id="a_node13"><a xlink:href="javascript-grammar.json.method_definition.dot.svg" xlink:title="s341 SYMBOL\nmethod_definition">
<ellipse fill="none" stroke="#000000" cx="2123.6358" cy="-313.4156" rx="84.4044" ry="29.3315"/>
<text text-anchor="middle" x="2123.6358" y="-317.6156" font-family="Times,serif" font-size="14.00" fill="#000000">s341 SYMBOL</text>
<text text-anchor="middle" x="2123.6358" y="-300.8156" font-family="Times,serif" font-size="14.00" fill="#000000">method_definition</text>
</a>
</g>
</g>
<!-- s340&#45;&gt;s341 -->
<g id="edge7" class="edge">
<title>s340&#45;&gt;s341</title>
<path fill="none" stroke="#000000" d="M1820.4008,-313.4156C1880.0934,-313.4156 1964.4115,-313.4156 2028.9881,-313.4156"/>
<polygon fill="#000000" stroke="#000000" points="2029.176,-316.9157 2039.1759,-313.4156 2029.1759,-309.9157 2029.176,-316.9157"/>
</g>
<!-- s341&#45;&gt;s348 -->
<g id="edge37" class="edge">
<title>s341&#45;&gt;s348</title>
<path fill="none" stroke="#000000" d="M2182.6216,-292.3571C2199.3518,-285.85 2217.4247,-278.3038 2233.6563,-270.4156 2239.3112,-267.6675 2245.1467,-264.5745 2250.8508,-261.3937"/>
<polygon fill="#000000" stroke="#000000" points="2252.7149,-264.3597 2259.6615,-256.36 2249.2424,-258.2817 2252.7149,-264.3597"/>
</g>
<!-- s342&#45;&gt;s348 -->
<g id="edge38" class="edge">
<title>s342&#45;&gt;s348</title>
<path fill="none" stroke="#000000" d="M2013.7104,-251.4123C2084.6683,-247.3495 2182.3313,-241.7577 2241.4066,-238.3753"/>
<polygon fill="#000000" stroke="#000000" points="2241.8325,-241.8567 2251.6161,-237.7907 2241.4323,-234.8682 2241.8325,-241.8567"/>
</g>
<!-- s344 -->
<g id="node16" class="node">
<title>s344</title>
<polygon fill="none" stroke="#000000" points="1695.5022,-162.6156 1695.5022,-212.2156 1797.1018,-212.2156 1797.1018,-162.6156 1695.5022,-162.6156"/>
<text text-anchor="middle" x="1736.552" y="-191.6156" font-family="Times,serif" font-size="14.00" fill="#000000">s344</text>
<text text-anchor="middle" x="1736.552" y="-174.8156" font-family="Times,serif" font-size="14.00" fill="#000000">→ CHOICE</text>
<polyline fill="none" stroke="#000000" points="1777.6018,-162.6156 1777.6018,-212.2156 "/>
<text text-anchor="middle" x="1787.3518" y="-195.6156" font-family="Times,serif" font-size="14.00" fill="#000000"> </text>
<polyline fill="none" stroke="#000000" points="1777.6018,-187.4156 1797.1018,-187.4156 "/>
<text text-anchor="middle" x="1787.3518" y="-170.8156" font-family="Times,serif" font-size="14.00" fill="#000000"> </text>
</g>
<!-- s343&#45;&gt;s344 -->
<g id="edge12" class="edge">
<title>s343&#45;&gt;s344</title>
<path fill="none" stroke="#000000" d="M1214.7569,-200.5293C1309.3567,-198.1954 1566.173,-191.8596 1684.7627,-188.9339"/>
<polygon fill="#000000" stroke="#000000" points="1685.2036,-192.4241 1695.1142,-188.6785 1685.0309,-185.4263 1685.2036,-192.4241"/>
</g>
<!-- s345 -->
<g id="node17" class="node">
<title>s345</title>
<g id="a_node17"><a xlink:href="javascript-grammar.json.identifier.dot.svg" xlink:title="s345 SYMBOL\nidentifier">
<ellipse fill="none" stroke="#000000" cx="2123.6358" cy="-199.4156" rx="73.9667" ry="29.3315"/>
<text text-anchor="middle" x="2123.6358" y="-203.6156" font-family="Times,serif" font-size="14.00" fill="#000000">s345 SYMBOL</text>
<text text-anchor="middle" x="2123.6358" y="-186.8156" font-family="Times,serif" font-size="14.00" fill="#000000">identifier</text>
</a>
</g>
</g>
<!-- s344&#45;&gt;s345 -->
<g id="edge10" class="edge">
<title>s344:p0&#45;&gt;s345</title>
<path fill="none" stroke="#000000" d="M1797.302,-199.4156C1879.5826,-199.4156 1973.5327,-199.4156 2039.4311,-199.4156"/>
<polygon fill="#000000" stroke="#000000" points="2039.7605,-202.9157 2049.7605,-199.4156 2039.7604,-195.9157 2039.7605,-202.9157"/>
<text text-anchor="middle" x="1926.3252" y="-203.6156" font-family="Times,serif" font-size="14.00" fill="#000000">identifier</text>
</g>
<!-- s346 -->
<g id="node18" class="node">
<title>s346</title>
<g id="a_node18"><a xlink:href="javascript-grammar.json._reserved_identifier.dot.svg" xlink:title="s346 SYMBOL\n_reserved_identifier">
<ellipse fill="none" stroke="#000000" cx="2123.6358" cy="-122.4156" rx="91.041" ry="29.3315"/>
<text text-anchor="middle" x="2123.6358" y="-126.6156" font-family="Times,serif" font-size="14.00" fill="#000000">s346 SYMBOL</text>
<text text-anchor="middle" x="2123.6358" y="-109.8156" font-family="Times,serif" font-size="14.00" fill="#000000">_reserved_identifier</text>
</a>
</g>
</g>
<!-- s344&#45;&gt;s346 -->
<g id="edge11" class="edge">
<title>s344:p1&#45;&gt;s346</title>
<path fill="none" stroke="#000000" d="M1797.302,-175.4156C1881.6511,-175.4156 1976.6963,-157.9505 2042.3619,-143.0719"/>
<polygon fill="#000000" stroke="#000000" points="2043.2743,-146.4536 2052.237,-140.8037 2041.7072,-139.6312 2043.2743,-146.4536"/>
<text text-anchor="middle" x="1926.3252" y="-177.6156" font-family="Times,serif" font-size="14.00" fill="#000000">_reserved_identifier</text>
</g>
<!-- s345&#45;&gt;s348 -->
<g id="edge39" class="edge">
<title>s345&#45;&gt;s348</title>
<path fill="none" stroke="#000000" d="M2189.1544,-213.3342C2206.4315,-217.0045 2224.8336,-220.9138 2241.2776,-224.4071"/>
<polygon fill="#000000" stroke="#000000" points="2240.7267,-227.8681 2251.2357,-226.5225 2242.1814,-221.0209 2240.7267,-227.8681"/>
</g>
<!-- s346&#45;&gt;s348 -->
<g id="edge40" class="edge">
<title>s346&#45;&gt;s348</title>
<path fill="none" stroke="#000000" d="M2183.9477,-144.6915C2194.5233,-149.5858 2205.1688,-155.1924 2214.6563,-161.4156 2234.1195,-174.1823 2253.1793,-192.0024 2267.6369,-206.9562"/>
<polygon fill="#000000" stroke="#000000" points="2265.338,-209.6188 2274.7555,-214.4729 2270.4205,-204.8055 2265.338,-209.6188"/>
</g>
<!-- s347&#45;&gt;s348 -->
<g id="edge41" class="edge">
<title>s347&#45;&gt;s348</title>
<path fill="none" stroke="#000000" d="M1078.2736,-69.8549C1133.9107,-68.0771 1231.1244,-65.4156 1314.4864,-65.4156 1314.4864,-65.4156 1314.4864,-65.4156 2123.6358,-65.4156 2164.9614,-65.4156 2181.7262,-59.4476 2214.6563,-84.4156 2254.0161,-114.2587 2275.4235,-169.5334 2285.5389,-204.2883"/>
<polygon fill="#000000" stroke="#000000" points="2282.2861,-205.6579 2288.323,-214.3646 2289.0333,-203.7936 2282.2861,-205.6579"/>
</g>
<!-- s349 -->
<g id="node21" class="node">
<title>s349</title>
<polygon fill="none" stroke="#000000" points="2411.5479,-184.6156 2411.5479,-226.2156 2467.9897,-226.2156 2467.9897,-184.6156 2411.5479,-184.6156"/>
<text text-anchor="middle" x="2439.7688" y="-209.6156" font-family="Times,serif" font-size="14.00" fill="#000000">s349</text>
<text text-anchor="middle" x="2439.7688" y="-192.8156" font-family="Times,serif" font-size="14.00" fill="#000000">→ SEQ</text>
</g>
<!-- s348&#45;&gt;s349 -->
<g id="edge33" class="edge">
<title>s348&#45;&gt;s349</title>
<path fill="none" stroke="#000000" d="M2334.7357,-226.8991C2355.7466,-222.6015 2381.056,-217.4248 2401.5653,-213.2298"/>
<polygon fill="#000000" stroke="#000000" points="2402.4097,-216.6296 2411.5055,-211.1966 2401.0069,-209.7716 2402.4097,-216.6296"/>
</g>
<!-- s366 -->
<g id="node38" class="node">
<title>s366</title>
<ellipse fill="none" stroke="#000000" cx="2439.7688" cy="-78.4156" rx="68.4585" ry="29.3315"/>
<text text-anchor="middle" x="2439.7688" y="-82.6156" font-family="Times,serif" font-size="14.00" fill="#000000">s366 STRING</text>
<text text-anchor="middle" x="2439.7688" y="-65.8156" font-family="Times,serif" font-size="14.00" fill="#000000">&quot;}&quot;</text>
</g>
<!-- s348&#45;&gt;s366 -->
<g id="edge45" class="edge">
<title>s348&#45;&gt;s366</title>
<path fill="none" stroke="#000000" d="M2312.5749,-214.5673C2336.6401,-188.8072 2377.9505,-144.5875 2406.9466,-113.5494"/>
<polygon fill="#000000" stroke="#000000" points="2409.7661,-115.6583 2414.0351,-105.9616 2404.6509,-110.8797 2409.7661,-115.6583"/>
</g>
<!-- s350 -->
<g id="node22" class="node">
<title>s350</title>
<ellipse fill="none" stroke="#000000" cx="2613.2265" cy="-199.4156" rx="68.4585" ry="29.3315"/>
<text text-anchor="middle" x="2613.2265" y="-203.6156" font-family="Times,serif" font-size="14.00" fill="#000000">s350 STRING</text>
<text text-anchor="middle" x="2613.2265" y="-186.8156" font-family="Times,serif" font-size="14.00" fill="#000000">&quot;,&quot;</text>
</g>
<!-- s349&#45;&gt;s350 -->
<g id="edge17" class="edge">
<title>s349&#45;&gt;s350</title>
<path fill="none" stroke="#000000" d="M2468.0238,-204.4383C2486.2516,-203.8078 2510.9295,-202.9542 2534.7666,-202.1296"/>
<polygon fill="#000000" stroke="#000000" points="2535.0367,-205.6225 2544.9097,-201.7788 2534.7947,-198.6266 2535.0367,-205.6225"/>
</g>
<!-- s351 -->
<g id="node23" class="node">
<title>s351</title>
<polygon fill="none" stroke="#000000" points="2718.4554,-210.6156 2718.4554,-260.2156 2820.055,-260.2156 2820.055,-210.6156 2718.4554,-210.6156"/>
<text text-anchor="middle" x="2759.5052" y="-239.6156" font-family="Times,serif" font-size="14.00" fill="#000000">s351</text>
<text text-anchor="middle" x="2759.5052" y="-222.8156" font-family="Times,serif" font-size="14.00" fill="#000000">→ CHOICE</text>
<polyline fill="none" stroke="#000000" points="2800.555,-210.6156 2800.555,-260.2156 "/>
<text text-anchor="middle" x="2810.305" y="-243.6156" font-family="Times,serif" font-size="14.00" fill="#000000"> </text>
<polyline fill="none" stroke="#000000" points="2800.555,-235.4156 2820.055,-235.4156 "/>
<text text-anchor="middle" x="2810.305" y="-218.8156" font-family="Times,serif" font-size="14.00" fill="#000000"> </text>
</g>
<!-- s350&#45;&gt;s351 -->
<g id="edge32" class="edge">
<title>s350&#45;&gt;s351</title>
<path fill="none" stroke="#000000" d="M2673.5513,-213.3342C2684.9594,-215.9663 2696.9002,-218.7214 2708.3267,-221.3578"/>
<polygon fill="#000000" stroke="#000000" points="2707.6786,-224.8001 2718.2095,-223.638 2709.2524,-217.9793 2707.6786,-224.8001"/>
</g>
<!-- s351&#45;&gt;s348 -->
<g id="edge34" class="edge">
<title>s351&#45;&gt;s348</title>
<path fill="none" stroke="#000000" d="M2718.1887,-236.7754C2706.1434,-237.0416 2693.3473,-237.2802 2681.4554,-237.4156 2535.2796,-239.0803 2498.7164,-238.0249 2352.5399,-236.4156 2350.0114,-236.3878 2347.4224,-236.3561 2344.8077,-236.3216"/>
<polygon fill="#000000" stroke="#000000" points="2344.7176,-232.8201 2334.6685,-236.1765 2344.6174,-239.8194 2344.7176,-232.8201"/>
</g>
<!-- s352 -->
<g id="node24" class="node">
<title>s352</title>
<polygon fill="none" stroke="#000000" points="2857.055,-271.4156 2857.055,-395.4156 2958.6546,-395.4156 2958.6546,-271.4156 2857.055,-271.4156"/>
<text text-anchor="middle" x="2898.1048" y="-337.6156" font-family="Times,serif" font-size="14.00" fill="#000000">s352</text>
<text text-anchor="middle" x="2898.1048" y="-320.8156" font-family="Times,serif" font-size="14.00" fill="#000000">→ CHOICE</text>
<polyline fill="none" stroke="#000000" points="2939.1546,-271.4156 2939.1546,-395.4156 "/>
<text text-anchor="middle" x="2948.9046" y="-378.8156" font-family="Times,serif" font-size="14.00" fill="#000000"> </text>
<polyline fill="none" stroke="#000000" points="2939.1546,-370.6156 2958.6546,-370.6156 "/>
<text text-anchor="middle" x="2948.9046" y="-354.0156" font-family="Times,serif" font-size="14.00" fill="#000000"> </text>
<polyline fill="none" stroke="#000000" points="2939.1546,-345.8156 2958.6546,-345.8156 "/>
<text text-anchor="middle" x="2948.9046" y="-329.2156" font-family="Times,serif" font-size="14.00" fill="#000000"> </text>
<polyline fill="none" stroke="#000000" points="2939.1546,-321.0156 2958.6546,-321.0156 "/>
<text text-anchor="middle" x="2948.9046" y="-304.4156" font-family="Times,serif" font-size="14.00" fill="#000000"> </text>
<polyline fill="none" stroke="#000000" points="2939.1546,-296.2156 2958.6546,-296.2156 "/>
<text text-anchor="middle" x="2948.9046" y="-279.6156" font-family="Times,serif" font-size="14.00" fill="#000000"> </text>
</g>
<!-- s351&#45;&gt;s352 -->
<g id="edge30" class="edge">
<title>s351:p0&#45;&gt;s352</title>
<path fill="none" stroke="#000000" d="M2810.2552,-260.4156C2810.2552,-283.3636 2827.7713,-299.9695 2847.9625,-311.4884"/>
<polygon fill="#000000" stroke="#000000" points="2846.5745,-314.713 2857.054,-316.2721 2849.834,-308.5182 2846.5745,-314.713"/>
</g>
<!-- s364 -->
<g id="node36" class="node">
<title>s364</title>
<ellipse fill="none" stroke="#000000" cx="2907.8548" cy="-223.4156" rx="45.3054" ry="29.3315"/>
<text text-anchor="middle" x="2907.8548" y="-227.6156" font-family="Times,serif" font-size="14.00" fill="#000000">s364 </text>
<text text-anchor="middle" x="2907.8548" y="-210.8156" font-family="Times,serif" font-size="14.00" fill="#000000">BLANK</text>
</g>
<!-- s351&#45;&gt;s364 -->
<g id="edge31" class="edge">
<title>s351:p1&#45;&gt;s364</title>
<path fill="none" stroke="#000000" d="M2820.055,-223.4156C2830.4512,-223.4156 2841.5399,-223.4156 2852.2141,-223.4156"/>
<polygon fill="#000000" stroke="#000000" points="2852.2851,-226.9157 2862.285,-223.4156 2852.285,-219.9157 2852.2851,-226.9157"/>
</g>
<!-- s353 -->
<g id="node25" class="node">
<title>s353</title>
<g id="a_node25"><a xlink:href="javascript-grammar.json.pair.dot.svg" xlink:title="s353 SYMBOL\npair">
<ellipse fill="none" stroke="#000000" cx="3250.8944" cy="-479.4156" rx="73.9667" ry="29.3315"/>
<text text-anchor="middle" x="3250.8944" y="-483.6156" font-family="Times,serif" font-size="14.00" fill="#000000">s353 SYMBOL</text>
<text text-anchor="middle" x="3250.8944" y="-466.8156" font-family="Times,serif" font-size="14.00" fill="#000000">pair</text>
</a>
</g>
</g>
<!-- s352&#45;&gt;s353 -->
<g id="edge18" class="edge">
<title>s352:p0&#45;&gt;s353</title>
<path fill="none" stroke="#000000" d="M2948.8548,-395.4156C2948.8548,-487.3913 3080.4658,-494.5417 3169.9332,-488.7767"/>
<polygon fill="#000000" stroke="#000000" points="3170.3524,-492.2559 3180.0796,-488.0567 3169.8569,-485.2734 3170.3524,-492.2559"/>
<text text-anchor="middle" x="3060.6294" y="-493.6156" font-family="Times,serif" font-size="14.00" fill="#000000">pair</text>
</g>
<!-- s354 -->
<g id="node26" class="node">
<title>s354</title>
<g id="a_node26"><a xlink:href="javascript-grammar.json.spread_element.dot.svg" xlink:title="s354 SYMBOL\nspread_element">
<ellipse fill="none" stroke="#000000" cx="3250.8944" cy="-402.4156" rx="73.9667" ry="29.3315"/>
<text text-anchor="middle" x="3250.8944" y="-406.6156" font-family="Times,serif" font-size="14.00" fill="#000000">s354 SYMBOL</text>
<text text-anchor="middle" x="3250.8944" y="-389.8156" font-family="Times,serif" font-size="14.00" fill="#000000">spread_element</text>
</a>
</g>
</g>
<!-- s352&#45;&gt;s354 -->
<g id="edge19" class="edge">
<title>s352:p1&#45;&gt;s354</title>
<path fill="none" stroke="#000000" d="M2958.6546,-358.4156C3033.8327,-358.4156 3118.689,-372.8297 3177.5169,-385.1579"/>
<polygon fill="#000000" stroke="#000000" points="3176.949,-388.6153 3187.4585,-387.2733 3178.406,-381.7686 3176.949,-388.6153"/>
<text text-anchor="middle" x="3060.6294" y="-381.6156" font-family="Times,serif" font-size="14.00" fill="#000000">spread_element</text>
</g>
<!-- s355 -->
<g id="node27" class="node">
<title>s355</title>
<polygon fill="none" stroke="#000000" points="3222.6735,-312.6156 3222.6735,-354.2156 3279.1153,-354.2156 3279.1153,-312.6156 3222.6735,-312.6156"/>
<text text-anchor="middle" x="3250.8944" y="-337.6156" font-family="Times,serif" font-size="14.00" fill="#000000">s355</text>
<text text-anchor="middle" x="3250.8944" y="-320.8156" font-family="Times,serif" font-size="14.00" fill="#000000">→ SEQ</text>
</g>
<!-- s352&#45;&gt;s355 -->
<g id="edge24" class="edge">
<title>s352:p2&#45;&gt;s355</title>
<path fill="none" stroke="#000000" d="M2958.6546,-333.4156C3049.4549,-333.4156 3156.1244,-333.4156 3212.0993,-333.4156"/>
<polygon fill="#000000" stroke="#000000" points="3212.2724,-336.9157 3222.2724,-333.4156 3212.2723,-329.9157 3212.2724,-336.9157"/>
</g>
<!-- s359 -->
<g id="node31" class="node">
<title>s359</title>
<g id="a_node31"><a xlink:href="javascript-grammar.json.assignment_pattern.dot.svg" xlink:title="s359 SYMBOL\nassignment_pattern">
<ellipse fill="none" stroke="#000000" cx="3250.8944" cy="-264.4156" rx="88.0809" ry="29.3315"/>
<text text-anchor="middle" x="3250.8944" y="-268.6156" font-family="Times,serif" font-size="14.00" fill="#000000">s359 SYMBOL</text>
<text text-anchor="middle" x="3250.8944" y="-251.8156" font-family="Times,serif" font-size="14.00" fill="#000000">assignment_pattern</text>
</a>
</g>
</g>
<!-- s352&#45;&gt;s359 -->
<g id="edge25" class="edge">
<title>s352:p3&#45;&gt;s359</title>
<path fill="none" stroke="#000000" d="M2958.6546,-308.4156C3030.1951,-308.4156 3110.4998,-295.3627 3168.7986,-283.4758"/>
<polygon fill="#000000" stroke="#000000" points="3169.6074,-286.8826 3178.6897,-281.4272 3168.1877,-280.0281 3169.6074,-286.8826"/>
<text text-anchor="middle" x="3060.6294" y="-311.6156" font-family="Times,serif" font-size="14.00" fill="#000000">assignment_pattern</text>
</g>
<!-- s360 -->
<g id="node32" class="node">
<title>s360</title>
<polygon fill="none" stroke="#000000" points="3215.2899,-174.6156 3215.2899,-216.2156 3286.4989,-216.2156 3286.4989,-174.6156 3215.2899,-174.6156"/>
<text text-anchor="middle" x="3250.8944" y="-199.6156" font-family="Times,serif" font-size="14.00" fill="#000000">s360</text>
<text text-anchor="middle" x="3250.8944" y="-182.8156" font-family="Times,serif" font-size="14.00" fill="#000000">→ ALIAS</text>
</g>
<!-- s352&#45;&gt;s360 -->
<g id="edge29" class="edge">
<title>s352:p4&#45;&gt;s360</title>
<path fill="none" stroke="#000000" d="M2958.6546,-283.4156C2969.2994,-283.4156 2967.2569,-272.6152 2976.6546,-267.6156 3051.1264,-227.9969 3148.7553,-209.0692 3205.1853,-200.8831"/>
<polygon fill="#000000" stroke="#000000" points="3205.8097,-204.3299 3215.2278,-199.477 3204.839,-197.3975 3205.8097,-204.3299"/>
<text text-anchor="middle" x="3060.6294" y="-271.6156" font-family="Times,serif" font-size="14.00" fill="#000000">shorthand_property_identifier</text>
</g>
<!-- s356 -->
<g id="node28" class="node">
<title>s356</title>
<polygon fill="none" stroke="#000000" points="3385.5426,-312.6156 3385.5426,-354.2156 3468.4262,-354.2156 3468.4262,-312.6156 3385.5426,-312.6156"/>
<text text-anchor="middle" x="3426.9844" y="-337.6156" font-family="Times,serif" font-size="14.00" fill="#000000">s356</text>
<text text-anchor="middle" x="3426.9844" y="-320.8156" font-family="Times,serif" font-size="14.00" fill="#000000">→ REPEAT</text>
</g>
<!-- s355&#45;&gt;s356 -->
<g id="edge22" class="edge">
<title>s355&#45;&gt;s356</title>
<path fill="none" stroke="#000000" d="M3279.1863,-333.4156C3304.9534,-333.4156 3343.6485,-333.4156 3374.9824,-333.4156"/>
<polygon fill="#000000" stroke="#000000" points="3375.2972,-336.9157 3385.2971,-333.4156 3375.2971,-329.9157 3375.2972,-336.9157"/>
</g>
<!-- s357 -->
<g id="node29" class="node">
<title>s357</title>
<g id="a_node29"><a xlink:href="javascript-grammar.json.decorator.dot.svg" xlink:title="s357 SYMBOL\ndecorator">
<ellipse fill="none" stroke="#000000" cx="3717.5271" cy="-333.4156" rx="73.9667" ry="29.3315"/>
<text text-anchor="middle" x="3717.5271" y="-337.6156" font-family="Times,serif" font-size="14.00" fill="#000000">s357 SYMBOL</text>
<text text-anchor="middle" x="3717.5271" y="-320.8156" font-family="Times,serif" font-size="14.00" fill="#000000">decorator</text>
</a>
</g>
</g>
<!-- s356&#45;&gt;s357 -->
<g id="edge20" class="edge">
<title>s356&#45;&gt;s357</title>
<path fill="none" stroke="#000000" d="M3468.6121,-328.5151C3511.803,-326.5859 3580.4979,-326.166 3634.7906,-327.2554"/>
<polygon fill="#000000" stroke="#000000" points="3635.0223,-330.7613 3645.0977,-327.4848 3635.1781,-323.7631 3635.0223,-330.7613"/>
</g>
<!-- s357&#45;&gt;s356 -->
<g id="edge21" class="edge">
<title>s357&#45;&gt;s356</title>
<path fill="none" stroke="#000000" d="M3645.0977,-339.3464C3593.3706,-340.6171 3525.0204,-340.4096 3478.7217,-338.724"/>
<polygon fill="#000000" stroke="#000000" points="3478.7451,-335.2222 3468.6121,-338.3162 3478.4629,-342.2165 3478.7451,-335.2222"/>
</g>
<!-- s358 -->
<g id="node30" class="node">
<title>s358</title>
<g id="a_node30"><a xlink:href="javascript-grammar.json.method_definition.dot.svg" xlink:title="s358 SYMBOL\nmethod_definition">
<ellipse fill="none" stroke="#000000" cx="3929.9998" cy="-333.4156" rx="84.4044" ry="29.3315"/>
<text text-anchor="middle" x="3929.9998" y="-337.6156" font-family="Times,serif" font-size="14.00" fill="#000000">s358 SYMBOL</text>
<text text-anchor="middle" x="3929.9998" y="-320.8156" font-family="Times,serif" font-size="14.00" fill="#000000">method_definition</text>
</a>
</g>
</g>
<!-- s357&#45;&gt;s358 -->
<g id="edge23" class="edge">
<title>s357&#45;&gt;s358</title>
<path fill="none" stroke="#000000" d="M3791.5414,-333.4156C3805.6512,-333.4156 3820.5985,-333.4156 3835.251,-333.4156"/>
<polygon fill="#000000" stroke="#000000" points="3835.3339,-336.9157 3845.3339,-333.4156 3835.3339,-329.9157 3835.3339,-336.9157"/>
</g>
<!-- s361 -->
<g id="node33" class="node">
<title>s361</title>
<polygon fill="none" stroke="#000000" points="3376.1846,-170.6156 3376.1846,-220.2156 3477.7842,-220.2156 3477.7842,-170.6156 3376.1846,-170.6156"/>
<text text-anchor="middle" x="3417.2344" y="-199.6156" font-family="Times,serif" font-size="14.00" fill="#000000">s361</text>
<text text-anchor="middle" x="3417.2344" y="-182.8156" font-family="Times,serif" font-size="14.00" fill="#000000">→ CHOICE</text>
<polyline fill="none" stroke="#000000" points="3458.2842,-170.6156 3458.2842,-220.2156 "/>
<text text-anchor="middle" x="3468.0342" y="-203.6156" font-family="Times,serif" font-size="14.00" fill="#000000"> </text>
<polyline fill="none" stroke="#000000" points="3458.2842,-195.4156 3477.7842,-195.4156 "/>
<text text-anchor="middle" x="3468.0342" y="-178.8156" font-family="Times,serif" font-size="14.00" fill="#000000"> </text>
</g>
<!-- s360&#45;&gt;s361 -->
<g id="edge28" class="edge">
<title>s360&#45;&gt;s361</title>
<path fill="none" stroke="#000000" d="M3286.5289,-195.4156C3309.241,-195.4156 3339.2688,-195.4156 3365.7288,-195.4156"/>
<polygon fill="#000000" stroke="#000000" points="3366.0519,-198.9157 3376.0519,-195.4156 3366.0519,-191.9157 3366.0519,-198.9157"/>
</g>
<!-- s362 -->
<g id="node34" class="node">
<title>s362</title>
<g id="a_node34"><a xlink:href="javascript-grammar.json.identifier.dot.svg" xlink:title="s362 SYMBOL\nidentifier">
<ellipse fill="none" stroke="#000000" cx="3717.5271" cy="-232.4156" rx="73.9667" ry="29.3315"/>
<text text-anchor="middle" x="3717.5271" y="-236.6156" font-family="Times,serif" font-size="14.00" fill="#000000">s362 SYMBOL</text>
<text text-anchor="middle" x="3717.5271" y="-219.8156" font-family="Times,serif" font-size="14.00" fill="#000000">identifier</text>
</a>
</g>
</g>
<!-- s361&#45;&gt;s362 -->
<g id="edge26" class="edge">
<title>s361:p0&#45;&gt;s362</title>
<path fill="none" stroke="#000000" d="M3477.7842,-207.4156C3531.7813,-207.4156 3592.2521,-213.7669 3638.9529,-220.0668"/>
<polygon fill="#000000" stroke="#000000" points="3638.6186,-223.5538 3649.0025,-221.4503 3639.5733,-216.6192 3638.6186,-223.5538"/>
<text text-anchor="middle" x="3552.1454" y="-219.6156" font-family="Times,serif" font-size="14.00" fill="#000000">identifier</text>
</g>
<!-- s363 -->
<g id="node35" class="node">
<title>s363</title>
<g id="a_node35"><a xlink:href="javascript-grammar.json._reserved_identifier.dot.svg" xlink:title="s363 SYMBOL\n_reserved_identifier">
<ellipse fill="none" stroke="#000000" cx="3717.5271" cy="-155.4156" rx="91.041" ry="29.3315"/>
<text text-anchor="middle" x="3717.5271" y="-159.6156" font-family="Times,serif" font-size="14.00" fill="#000000">s363 SYMBOL</text>
<text text-anchor="middle" x="3717.5271" y="-142.8156" font-family="Times,serif" font-size="14.00" fill="#000000">_reserved_identifier</text>
</a>
</g>
</g>
<!-- s361&#45;&gt;s363 -->
<g id="edge27" class="edge">
<title>s361:p1&#45;&gt;s363</title>
<path fill="none" stroke="#000000" d="M3477.7842,-183.4156C3527.4563,-183.4156 3582.5289,-177.4126 3627.3514,-170.9656"/>
<polygon fill="#000000" stroke="#000000" points="3627.9539,-174.4148 3637.3386,-169.4977 3626.9359,-167.4892 3627.9539,-174.4148"/>
<text text-anchor="middle" x="3552.1454" y="-186.6156" font-family="Times,serif" font-size="14.00" fill="#000000">_reserved_identifier</text>
</g>
<!-- s365&#45;&gt;s366 -->
<g id="edge46" class="edge">
<title>s365&#45;&gt;s366</title>
<path fill="none" stroke="#000000" d="M672.9744,-28.6424C710.102,-28.0796 763.8608,-27.4156 810.8542,-27.4156 810.8542,-27.4156 810.8542,-27.4156 2293.0981,-27.4156 2325.8956,-27.4156 2360.6442,-38.9332 2388.0828,-51.0215"/>
<polygon fill="#000000" stroke="#000000" points="2386.9174,-54.3368 2397.4681,-55.3032 2389.8229,-47.9683 2386.9174,-54.3368"/>
</g>
</g>
</svg>
