<?xml version="1.0" encoding="UTF-8" standalone="no"?>
<!DOCTYPE svg PUBLIC "-//W3C//DTD SVG 1.1//EN"
 "http://www.w3.org/Graphics/SVG/1.1/DTD/svg11.dtd">
<!-- Generated by graphviz version 2.40.1 (20161225.0304)
 -->
<!-- Title: switch_default Pages: 1 -->
<svg width="712pt" height="67pt"
 viewBox="0.00 0.00 711.71 66.83" xmlns="http://www.w3.org/2000/svg" xmlns:xlink="http://www.w3.org/1999/xlink">
<g id="graph0" class="graph" transform="scale(1 1) rotate(0) translate(4 62.8313)">
<title>switch_default</title>
<polygon fill="#ffffff" stroke="transparent" points="-4,4 -4,-62.8313 707.7069,-62.8313 707.7069,4 -4,4"/>
<!-- s291 -->
<g id="node1" class="node">
<title>s291</title>
<polygon fill="none" stroke="#000000" points="0,-8.6156 0,-50.2156 56.4418,-50.2156 56.4418,-8.6156 0,-8.6156"/>
<text text-anchor="middle" x="28.2209" y="-33.6156" font-family="Times,serif" font-size="14.00" fill="#000000">s291</text>
<text text-anchor="middle" x="28.2209" y="-16.8156" font-family="Times,serif" font-size="14.00" fill="#000000">→ SEQ</text>
</g>
<!-- s292 -->
<g id="node2" class="node">
<title>s292</title>
<ellipse fill="none" stroke="#000000" cx="160.6707" cy="-29.4156" rx="68.4585" ry="29.3315"/>
<text text-anchor="middle" x="160.6707" y="-33.6156" font-family="Times,serif" font-size="14.00" fill="#000000">s292 STRING</text>
<text text-anchor="middle" x="160.6707" y="-16.8156" font-family="Times,serif" font-size="14.00" fill="#000000">&quot;default&quot;</text>
</g>
<!-- s291&#45;&gt;s292 -->
<g id="edge1" class="edge">
<title>s291&#45;&gt;s292</title>
<path fill="none" stroke="#000000" d="M56.6347,-29.4156C64.3113,-29.4156 73.0073,-29.4156 82.0218,-29.4156"/>
<polygon fill="#000000" stroke="#000000" points="82.2976,-32.9157 92.2975,-29.4156 82.2975,-25.9157 82.2976,-32.9157"/>
</g>
<!-- s293 -->
<g id="node3" class="node">
<title>s293</title>
<ellipse fill="none" stroke="#000000" cx="333.1284" cy="-29.4156" rx="68.4585" ry="29.3315"/>
<text text-anchor="middle" x="333.1284" y="-33.6156" font-family="Times,serif" font-size="14.00" fill="#000000">s293 STRING</text>
<text text-anchor="middle" x="333.1284" y="-16.8156" font-family="Times,serif" font-size="14.00" fill="#000000">&quot;:&quot;</text>
</g>
<!-- s292&#45;&gt;s293 -->
<g id="edge2" class="edge">
<title>s292&#45;&gt;s293</title>
<path fill="none" stroke="#000000" d="M229.3261,-29.4156C237.6067,-29.4156 246.1132,-29.4156 254.5222,-29.4156"/>
<polygon fill="#000000" stroke="#000000" points="254.7093,-32.9157 264.7092,-29.4156 254.7092,-25.9157 254.7093,-32.9157"/>
</g>
<!-- s294 -->
<g id="node4" class="node">
<title>s294</title>
<polygon fill="none" stroke="#000000" points="437.3573,-8.6156 437.3573,-50.2156 520.2409,-50.2156 520.2409,-8.6156 437.3573,-8.6156"/>
<text text-anchor="middle" x="478.7991" y="-33.6156" font-family="Times,serif" font-size="14.00" fill="#000000">s294</text>
<text text-anchor="middle" x="478.7991" y="-16.8156" font-family="Times,serif" font-size="14.00" fill="#000000">→ REPEAT</text>
</g>
<!-- s293&#45;&gt;s294 -->
<g id="edge5" class="edge">
<title>s293&#45;&gt;s294</title>
<path fill="none" stroke="#000000" d="M401.6982,-29.4156C410.2076,-29.4156 418.7949,-29.4156 426.9933,-29.4156"/>
<polygon fill="#000000" stroke="#000000" points="427.135,-32.9157 437.135,-29.4156 427.1349,-25.9157 427.135,-32.9157"/>
</g>
<!-- s295 -->
<g id="node5" class="node">
<title>s295</title>
<g id="a_node5"><a xlink:href="javascript-grammar.json._statement.dot.svg" xlink:title="s295 SYMBOL\n_statement">
<ellipse fill="none" stroke="#000000" cx="629.9739" cy="-29.4156" rx="73.9667" ry="29.3315"/>
<text text-anchor="middle" x="629.9739" y="-33.6156" font-family="Times,serif" font-size="14.00" fill="#000000">s295 SYMBOL</text>
<text text-anchor="middle" x="629.9739" y="-16.8156" font-family="Times,serif" font-size="14.00" fill="#000000">_statement</text>
</a>
</g>
</g>
<!-- s294&#45;&gt;s295 -->
<g id="edge3" class="edge">
<title>s294&#45;&gt;s295</title>
<path fill="none" stroke="#000000" d="M520.5085,-23.3084C529.0446,-22.9618 538.3076,-22.7553 547.7094,-22.6891"/>
<polygon fill="#000000" stroke="#000000" points="547.9438,-26.1888 557.938,-22.6723 547.9322,-19.1888 547.9438,-26.1888"/>
</g>
<!-- s295&#45;&gt;s294 -->
<g id="edge4" class="edge">
<title>s295&#45;&gt;s294</title>
<path fill="none" stroke="#000000" d="M557.938,-36.159C548.7132,-36.1935 539.4177,-36.0936 530.6027,-35.8594"/>
<polygon fill="#000000" stroke="#000000" points="530.6196,-32.3581 520.5085,-35.5228 530.3862,-39.3543 530.6196,-32.3581"/>
</g>
</g>
</svg>
