<?xml version="1.0" encoding="UTF-8" standalone="no"?>
<!DOCTYPE svg PUBLIC "-//W3C//DTD SVG 1.1//EN"
 "http://www.w3.org/Graphics/SVG/1.1/DTD/svg11.dtd">
<!-- Generated by graphviz version 2.40.1 (20161225.0304)
 -->
<!-- Title: jsx_self_closing_element Pages: 1 -->
<svg width="1101pt" height="67pt"
 viewBox="0.00 0.00 1101.14 66.83" xmlns="http://www.w3.org/2000/svg" xmlns:xlink="http://www.w3.org/1999/xlink">
<g id="graph0" class="graph" transform="scale(1 1) rotate(0) translate(4 62.8313)">
<title>jsx_self_closing_element</title>
<polygon fill="#ffffff" stroke="transparent" points="-4,4 -4,-62.8313 1097.1424,-62.8313 1097.1424,4 -4,4"/>
<!-- s448 -->
<g id="node1" class="node">
<title>s448</title>
<polygon fill="none" stroke="#000000" points="0,-8.6156 0,-50.2156 56.4418,-50.2156 56.4418,-8.6156 0,-8.6156"/>
<text text-anchor="middle" x="28.2209" y="-33.6156" font-family="Times,serif" font-size="14.00" fill="#000000">s448</text>
<text text-anchor="middle" x="28.2209" y="-16.8156" font-family="Times,serif" font-size="14.00" fill="#000000">→ SEQ</text>
</g>
<!-- s449 -->
<g id="node2" class="node">
<title>s449</title>
<ellipse fill="none" stroke="#000000" cx="160.6707" cy="-29.4156" rx="68.4585" ry="29.3315"/>
<text text-anchor="middle" x="160.6707" y="-33.6156" font-family="Times,serif" font-size="14.00" fill="#000000">s449 STRING</text>
<text text-anchor="middle" x="160.6707" y="-16.8156" font-family="Times,serif" font-size="14.00" fill="#000000">&quot;&lt;&quot;</text>
</g>
<!-- s448&#45;&gt;s449 -->
<g id="edge1" class="edge">
<title>s448&#45;&gt;s449</title>
<path fill="none" stroke="#000000" d="M56.6347,-29.4156C64.3113,-29.4156 73.0073,-29.4156 82.0218,-29.4156"/>
<polygon fill="#000000" stroke="#000000" points="82.2976,-32.9157 92.2975,-29.4156 82.2975,-25.9157 82.2976,-32.9157"/>
</g>
<!-- s450 -->
<g id="node3" class="node">
<title>s450</title>
<g id="a_node3"><a xlink:href="javascript-grammar.json._jsx_element_name.dot.svg" xlink:title="s450 SYMBOL\n_jsx_element_name">
<ellipse fill="none" stroke="#000000" cx="355.3884" cy="-29.4156" rx="90.4778" ry="29.3315"/>
<text text-anchor="middle" x="355.3884" y="-33.6156" font-family="Times,serif" font-size="14.00" fill="#000000">s450 SYMBOL</text>
<text text-anchor="middle" x="355.3884" y="-16.8156" font-family="Times,serif" font-size="14.00" fill="#000000">_jsx_element_name</text>
</a>
</g>
</g>
<!-- s449&#45;&gt;s450 -->
<g id="edge2" class="edge">
<title>s449&#45;&gt;s450</title>
<path fill="none" stroke="#000000" d="M229.0471,-29.4156C237.3171,-29.4156 245.8941,-29.4156 254.5079,-29.4156"/>
<polygon fill="#000000" stroke="#000000" points="254.6205,-32.9157 264.6205,-29.4156 254.6204,-25.9157 254.6205,-32.9157"/>
</g>
<!-- s451 -->
<g id="node4" class="node">
<title>s451</title>
<polygon fill="none" stroke="#000000" points="481.8773,-8.6156 481.8773,-50.2156 564.7609,-50.2156 564.7609,-8.6156 481.8773,-8.6156"/>
<text text-anchor="middle" x="523.3191" y="-33.6156" font-family="Times,serif" font-size="14.00" fill="#000000">s451</text>
<text text-anchor="middle" x="523.3191" y="-16.8156" font-family="Times,serif" font-size="14.00" fill="#000000">→ REPEAT</text>
</g>
<!-- s450&#45;&gt;s451 -->
<g id="edge5" class="edge">
<title>s450&#45;&gt;s451</title>
<path fill="none" stroke="#000000" d="M446.2347,-29.4156C454.9288,-29.4156 463.5239,-29.4156 471.6438,-29.4156"/>
<polygon fill="#000000" stroke="#000000" points="471.6464,-32.9157 481.6464,-29.4156 471.6463,-25.9157 471.6464,-32.9157"/>
</g>
<!-- s452 -->
<g id="node5" class="node">
<title>s452</title>
<g id="a_node5"><a xlink:href="javascript-grammar.json._jsx_attribute.dot.svg" xlink:title="s452 SYMBOL\n_jsx_attribute">
<ellipse fill="none" stroke="#000000" cx="674.4939" cy="-29.4156" rx="73.9667" ry="29.3315"/>
<text text-anchor="middle" x="674.4939" y="-33.6156" font-family="Times,serif" font-size="14.00" fill="#000000">s452 SYMBOL</text>
<text text-anchor="middle" x="674.4939" y="-16.8156" font-family="Times,serif" font-size="14.00" fill="#000000">_jsx_attribute</text>
</a>
</g>
</g>
<!-- s451&#45;&gt;s452 -->
<g id="edge3" class="edge">
<title>s451&#45;&gt;s452</title>
<path fill="none" stroke="#000000" d="M565.0285,-23.3084C573.5646,-22.9618 582.8276,-22.7553 592.2294,-22.6891"/>
<polygon fill="#000000" stroke="#000000" points="592.4638,-26.1888 602.458,-22.6723 592.4522,-19.1888 592.4638,-26.1888"/>
</g>
<!-- s452&#45;&gt;s451 -->
<g id="edge4" class="edge">
<title>s452&#45;&gt;s451</title>
<path fill="none" stroke="#000000" d="M602.458,-36.159C593.2332,-36.1935 583.9377,-36.0936 575.1227,-35.8594"/>
<polygon fill="#000000" stroke="#000000" points="575.1396,-32.3581 565.0285,-35.5228 574.9062,-39.3543 575.1396,-32.3581"/>
</g>
<!-- s453 -->
<g id="node6" class="node">
<title>s453</title>
<ellipse fill="none" stroke="#000000" cx="852.4558" cy="-29.4156" rx="68.4585" ry="29.3315"/>
<text text-anchor="middle" x="852.4558" y="-33.6156" font-family="Times,serif" font-size="14.00" fill="#000000">s453 STRING</text>
<text text-anchor="middle" x="852.4558" y="-16.8156" font-family="Times,serif" font-size="14.00" fill="#000000">&quot;/&quot;</text>
</g>
<!-- s452&#45;&gt;s453 -->
<g id="edge6" class="edge">
<title>s452&#45;&gt;s453</title>
<path fill="none" stroke="#000000" d="M748.4197,-29.4156C756.8384,-29.4156 765.4423,-29.4156 773.918,-29.4156"/>
<polygon fill="#000000" stroke="#000000" points="774.172,-32.9157 784.1719,-29.4156 774.1719,-25.9157 774.172,-32.9157"/>
</g>
<!-- s454 -->
<g id="node7" class="node">
<title>s454</title>
<ellipse fill="none" stroke="#000000" cx="1024.9135" cy="-29.4156" rx="68.4585" ry="29.3315"/>
<text text-anchor="middle" x="1024.9135" y="-33.6156" font-family="Times,serif" font-size="14.00" fill="#000000">s454 STRING</text>
<text text-anchor="middle" x="1024.9135" y="-16.8156" font-family="Times,serif" font-size="14.00" fill="#000000">&quot;&gt;&quot;</text>
</g>
<!-- s453&#45;&gt;s454 -->
<g id="edge7" class="edge">
<title>s453&#45;&gt;s454</title>
<path fill="none" stroke="#000000" d="M921.1112,-29.4156C929.3918,-29.4156 937.8983,-29.4156 946.3073,-29.4156"/>
<polygon fill="#000000" stroke="#000000" points="946.4944,-32.9157 956.4943,-29.4156 946.4943,-25.9157 946.4944,-32.9157"/>
</g>
</g>
</svg>
