<?xml version="1.0" encoding="UTF-8" standalone="no"?>
<!DOCTYPE svg PUBLIC "-//W3C//DTD SVG 1.1//EN"
 "http://www.w3.org/Graphics/SVG/1.1/DTD/svg11.dtd">
<!-- Generated by graphviz version 2.40.1 (20161225.0304)
 -->
<!-- Title: _expression Pages: 1 -->
<svg width="647pt" height="928pt"
 viewBox="0.00 0.00 646.93 928.22" xmlns="http://www.w3.org/2000/svg" xmlns:xlink="http://www.w3.org/1999/xlink">
<g id="graph0" class="graph" transform="scale(1 1) rotate(0) translate(4 924.2156)">
<title>_expression</title>
<polygon fill="#ffffff" stroke="transparent" points="-4,4 -4,-924.2156 642.9289,-924.2156 642.9289,4 -4,4"/>
<!-- s315 -->
<g id="node1" class="node">
<title>s315</title>
<polygon fill="none" stroke="#000000" points="0,-303.6156 0,-601.2156 101.5996,-601.2156 101.5996,-303.6156 0,-303.6156"/>
<text text-anchor="middle" x="41.0498" y="-456.6156" font-family="Times,serif" font-size="14.00" fill="#000000">s315</text>
<text text-anchor="middle" x="41.0498" y="-439.8156" font-family="Times,serif" font-size="14.00" fill="#000000">→ CHOICE</text>
<polyline fill="none" stroke="#000000" points="82.0996,-303.6156 82.0996,-601.2156 "/>
<text text-anchor="middle" x="91.8496" y="-584.6156" font-family="Times,serif" font-size="14.00" fill="#000000"> </text>
<polyline fill="none" stroke="#000000" points="82.0996,-576.4156 101.5996,-576.4156 "/>
<text text-anchor="middle" x="91.8496" y="-559.8156" font-family="Times,serif" font-size="14.00" fill="#000000"> </text>
<polyline fill="none" stroke="#000000" points="82.0996,-551.6156 101.5996,-551.6156 "/>
<text text-anchor="middle" x="91.8496" y="-535.0156" font-family="Times,serif" font-size="14.00" fill="#000000"> </text>
<polyline fill="none" stroke="#000000" points="82.0996,-526.8156 101.5996,-526.8156 "/>
<text text-anchor="middle" x="91.8496" y="-510.2156" font-family="Times,serif" font-size="14.00" fill="#000000"> </text>
<polyline fill="none" stroke="#000000" points="82.0996,-502.0156 101.5996,-502.0156 "/>
<text text-anchor="middle" x="91.8496" y="-485.4156" font-family="Times,serif" font-size="14.00" fill="#000000"> </text>
<polyline fill="none" stroke="#000000" points="82.0996,-477.2156 101.5996,-477.2156 "/>
<text text-anchor="middle" x="91.8496" y="-460.6156" font-family="Times,serif" font-size="14.00" fill="#000000"> </text>
<polyline fill="none" stroke="#000000" points="82.0996,-452.4156 101.5996,-452.4156 "/>
<text text-anchor="middle" x="91.8496" y="-435.8156" font-family="Times,serif" font-size="14.00" fill="#000000"> </text>
<polyline fill="none" stroke="#000000" points="82.0996,-427.6156 101.5996,-427.6156 "/>
<text text-anchor="middle" x="91.8496" y="-411.0156" font-family="Times,serif" font-size="14.00" fill="#000000"> </text>
<polyline fill="none" stroke="#000000" points="82.0996,-402.8156 101.5996,-402.8156 "/>
<text text-anchor="middle" x="91.8496" y="-386.2156" font-family="Times,serif" font-size="14.00" fill="#000000"> </text>
<polyline fill="none" stroke="#000000" points="82.0996,-378.0156 101.5996,-378.0156 "/>
<text text-anchor="middle" x="91.8496" y="-361.4156" font-family="Times,serif" font-size="14.00" fill="#000000"> </text>
<polyline fill="none" stroke="#000000" points="82.0996,-353.2156 101.5996,-353.2156 "/>
<text text-anchor="middle" x="91.8496" y="-336.6156" font-family="Times,serif" font-size="14.00" fill="#000000"> </text>
<polyline fill="none" stroke="#000000" points="82.0996,-328.4156 101.5996,-328.4156 "/>
<text text-anchor="middle" x="91.8496" y="-311.8156" font-family="Times,serif" font-size="14.00" fill="#000000"> </text>
</g>
<!-- s316 -->
<g id="node2" class="node">
<title>s316</title>
<g id="a_node2"><a xlink:href="javascript-grammar.json._constructable_expression.dot.svg" xlink:title="s316 SYMBOL\n_constructable_expression">
<ellipse fill="none" stroke="#000000" cx="487.4066" cy="-876.4156" rx="116.1455" ry="29.3315"/>
<text text-anchor="middle" x="487.4066" y="-880.6156" font-family="Times,serif" font-size="14.00" fill="#000000">s316 SYMBOL</text>
<text text-anchor="middle" x="487.4066" y="-863.8156" font-family="Times,serif" font-size="14.00" fill="#000000">_constructable_expression</text>
</a>
</g>
</g>
<!-- s315&#45;&gt;s316 -->
<g id="edge1" class="edge">
<title>s315:p0&#45;&gt;s316</title>
<path fill="none" stroke="#000000" d="M91.7998,-601.4156C91.7998,-628.2606 100.4243,-822.6284 119.5996,-841.4156 189.4942,-909.8956 306.6937,-909.1901 390.0018,-897.437"/>
<polygon fill="#000000" stroke="#000000" points="390.6111,-900.885 399.9879,-895.9529 389.582,-893.9611 390.6111,-900.885"/>
<text text-anchor="middle" x="218.742" y="-907.6156" font-family="Times,serif" font-size="14.00" fill="#000000">_constructable_expression</text>
</g>
<!-- s317 -->
<g id="node3" class="node">
<title>s317</title>
<g id="a_node3"><a xlink:href="javascript-grammar.json._jsx_element.dot.svg" xlink:title="s317 SYMBOL\n_jsx_element">
<ellipse fill="none" stroke="#000000" cx="487.4066" cy="-799.4156" rx="73.9667" ry="29.3315"/>
<text text-anchor="middle" x="487.4066" y="-803.6156" font-family="Times,serif" font-size="14.00" fill="#000000">s317 SYMBOL</text>
<text text-anchor="middle" x="487.4066" y="-786.8156" font-family="Times,serif" font-size="14.00" fill="#000000">_jsx_element</text>
</a>
</g>
</g>
<!-- s315&#45;&gt;s317 -->
<g id="edge2" class="edge">
<title>s315:p1&#45;&gt;s317</title>
<path fill="none" stroke="#000000" d="M101.5996,-564.4156C143.5684,-564.4156 90.3964,-722.2734 119.5996,-752.4156 194.2812,-829.4985 327.6902,-826.1139 411.6574,-814.3785"/>
<polygon fill="#000000" stroke="#000000" points="412.2601,-817.8276 421.645,-812.9108 411.2423,-810.902 412.2601,-817.8276"/>
<text text-anchor="middle" x="218.742" y="-824.6156" font-family="Times,serif" font-size="14.00" fill="#000000">_jsx_element</text>
</g>
<!-- s318 -->
<g id="node4" class="node">
<title>s318</title>
<g id="a_node4"><a xlink:href="javascript-grammar.json.jsx_fragment.dot.svg" xlink:title="s318 SYMBOL\njsx_fragment">
<ellipse fill="none" stroke="#000000" cx="487.4066" cy="-722.4156" rx="73.9667" ry="29.3315"/>
<text text-anchor="middle" x="487.4066" y="-726.6156" font-family="Times,serif" font-size="14.00" fill="#000000">s318 SYMBOL</text>
<text text-anchor="middle" x="487.4066" y="-709.8156" font-family="Times,serif" font-size="14.00" fill="#000000">jsx_fragment</text>
</a>
</g>
</g>
<!-- s315&#45;&gt;s318 -->
<g id="edge3" class="edge">
<title>s315:p2&#45;&gt;s318</title>
<path fill="none" stroke="#000000" d="M101.5996,-539.4156C127.9055,-539.4156 101.2316,-637.5844 119.5996,-656.4156 193.7086,-732.3936 323.3093,-738.2168 407.2104,-732.5222"/>
<polygon fill="#000000" stroke="#000000" points="407.4978,-736.0106 417.2089,-731.7746 406.9758,-729.0301 407.4978,-736.0106"/>
<text text-anchor="middle" x="218.742" y="-735.6156" font-family="Times,serif" font-size="14.00" fill="#000000">jsx_fragment</text>
</g>
<!-- s319 -->
<g id="node5" class="node">
<title>s319</title>
<g id="a_node5"><a xlink:href="javascript-grammar.json.assignment_expression.dot.svg" xlink:title="s319 SYMBOL\nassignment_expression">
<ellipse fill="none" stroke="#000000" cx="487.4066" cy="-645.4156" rx="103.2771" ry="29.3315"/>
<text text-anchor="middle" x="487.4066" y="-649.6156" font-family="Times,serif" font-size="14.00" fill="#000000">s319 SYMBOL</text>
<text text-anchor="middle" x="487.4066" y="-632.8156" font-family="Times,serif" font-size="14.00" fill="#000000">assignment_expression</text>
</a>
</g>
</g>
<!-- s315&#45;&gt;s319 -->
<g id="edge4" class="edge">
<title>s315:p3&#45;&gt;s319</title>
<path fill="none" stroke="#000000" d="M101.5996,-514.4156C121.5006,-514.4156 104.3598,-542.6173 119.5996,-555.4156 190.4461,-614.9126 294.5522,-636.1933 373.9403,-643.2948"/>
<polygon fill="#000000" stroke="#000000" points="373.7307,-646.7894 383.9863,-644.1301 374.3107,-639.8135 373.7307,-646.7894"/>
<text text-anchor="middle" x="218.742" y="-639.6156" font-family="Times,serif" font-size="14.00" fill="#000000">assignment_expression</text>
</g>
<!-- s320 -->
<g id="node6" class="node">
<title>s320</title>
<g id="a_node6"><a xlink:href="javascript-grammar.json.augmented_assignment_expression.dot.svg" xlink:title="s320 SYMBOL\naugmented_assignment_expression">
<ellipse fill="none" stroke="#000000" cx="487.4066" cy="-568.4156" rx="151.5445" ry="29.3315"/>
<text text-anchor="middle" x="487.4066" y="-572.6156" font-family="Times,serif" font-size="14.00" fill="#000000">s320 SYMBOL</text>
<text text-anchor="middle" x="487.4066" y="-555.8156" font-family="Times,serif" font-size="14.00" fill="#000000">augmented_assignment_expression</text>
</a>
</g>
</g>
<!-- s315&#45;&gt;s320 -->
<g id="edge5" class="edge">
<title>s315:p4&#45;&gt;s320</title>
<path fill="none" stroke="#000000" d="M101.5996,-489.4156C109.9025,-489.4156 111.5244,-492.4844 119.5996,-494.4156 201.5809,-514.0218 294.6691,-532.716 366.6843,-546.41"/>
<polygon fill="#000000" stroke="#000000" points="366.2259,-549.8854 376.7027,-548.3087 367.5293,-543.0078 366.2259,-549.8854"/>
<text text-anchor="middle" x="218.742" y="-538.6156" font-family="Times,serif" font-size="14.00" fill="#000000">augmented_assignment_expression</text>
</g>
<!-- s321 -->
<g id="node7" class="node">
<title>s321</title>
<g id="a_node7"><a xlink:href="javascript-grammar.json.await_expression.dot.svg" xlink:title="s321 SYMBOL\nawait_expression">
<ellipse fill="none" stroke="#000000" cx="487.4066" cy="-491.4156" rx="80.07" ry="29.3315"/>
<text text-anchor="middle" x="487.4066" y="-495.6156" font-family="Times,serif" font-size="14.00" fill="#000000">s321 SYMBOL</text>
<text text-anchor="middle" x="487.4066" y="-478.8156" font-family="Times,serif" font-size="14.00" fill="#000000">await_expression</text>
</a>
</g>
</g>
<!-- s315&#45;&gt;s321 -->
<g id="edge6" class="edge">
<title>s315:p5&#45;&gt;s321</title>
<path fill="none" stroke="#000000" d="M101.5996,-464.4156C204.4142,-464.4156 322.2656,-474.0756 400.3808,-481.8394"/>
<polygon fill="#000000" stroke="#000000" points="400.3572,-485.3546 410.6572,-482.8727 401.0576,-478.3897 400.3572,-485.3546"/>
<text text-anchor="middle" x="218.742" y="-477.6156" font-family="Times,serif" font-size="14.00" fill="#000000">await_expression</text>
</g>
<!-- s322 -->
<g id="node8" class="node">
<title>s322</title>
<g id="a_node8"><a xlink:href="javascript-grammar.json.unary_expression.dot.svg" xlink:title="s322 SYMBOL\nunary_expression">
<ellipse fill="none" stroke="#000000" cx="487.4066" cy="-414.4156" rx="81.2739" ry="29.3315"/>
<text text-anchor="middle" x="487.4066" y="-418.6156" font-family="Times,serif" font-size="14.00" fill="#000000">s322 SYMBOL</text>
<text text-anchor="middle" x="487.4066" y="-401.8156" font-family="Times,serif" font-size="14.00" fill="#000000">unary_expression</text>
</a>
</g>
</g>
<!-- s315&#45;&gt;s322 -->
<g id="edge7" class="edge">
<title>s315:p6&#45;&gt;s322</title>
<path fill="none" stroke="#000000" d="M101.5996,-440.4156C203.9141,-440.4156 321.1464,-431.2004 399.2708,-423.7424"/>
<polygon fill="#000000" stroke="#000000" points="399.9351,-427.1946 409.5523,-422.7495 399.2621,-420.2271 399.9351,-427.1946"/>
<text text-anchor="middle" x="218.742" y="-443.6156" font-family="Times,serif" font-size="14.00" fill="#000000">unary_expression</text>
</g>
<!-- s323 -->
<g id="node9" class="node">
<title>s323</title>
<g id="a_node9"><a xlink:href="javascript-grammar.json.binary_expression.dot.svg" xlink:title="s323 SYMBOL\nbinary_expression">
<ellipse fill="none" stroke="#000000" cx="487.4066" cy="-337.4156" rx="83.7759" ry="29.3315"/>
<text text-anchor="middle" x="487.4066" y="-341.6156" font-family="Times,serif" font-size="14.00" fill="#000000">s323 SYMBOL</text>
<text text-anchor="middle" x="487.4066" y="-324.8156" font-family="Times,serif" font-size="14.00" fill="#000000">binary_expression</text>
</a>
</g>
</g>
<!-- s315&#45;&gt;s323 -->
<g id="edge8" class="edge">
<title>s315:p7&#45;&gt;s323</title>
<path fill="none" stroke="#000000" d="M101.5996,-415.4156C110.0047,-415.4156 111.4616,-411.7177 119.5996,-409.6156 215.0225,-384.9678 326.2706,-364.2139 401.222,-351.3732"/>
<polygon fill="#000000" stroke="#000000" points="401.823,-354.8213 411.0933,-349.6918 400.6476,-347.9207 401.823,-354.8213"/>
<text text-anchor="middle" x="218.742" y="-413.6156" font-family="Times,serif" font-size="14.00" fill="#000000">binary_expression</text>
</g>
<!-- s324 -->
<g id="node10" class="node">
<title>s324</title>
<g id="a_node10"><a xlink:href="javascript-grammar.json.ternary_expression.dot.svg" xlink:title="s324 SYMBOL\nternary_expression">
<ellipse fill="none" stroke="#000000" cx="487.4066" cy="-260.4156" rx="86.7563" ry="29.3315"/>
<text text-anchor="middle" x="487.4066" y="-264.6156" font-family="Times,serif" font-size="14.00" fill="#000000">s324 SYMBOL</text>
<text text-anchor="middle" x="487.4066" y="-247.8156" font-family="Times,serif" font-size="14.00" fill="#000000">ternary_expression</text>
</a>
</g>
</g>
<!-- s315&#45;&gt;s324 -->
<g id="edge9" class="edge">
<title>s315:p8&#45;&gt;s324</title>
<path fill="none" stroke="#000000" d="M101.5996,-390.4156C122.646,-390.4156 103.5778,-360.2631 119.5996,-346.6156 194.8907,-282.4821 309.1068,-263.995 390.2637,-259.6311"/>
<polygon fill="#000000" stroke="#000000" points="390.6669,-263.116 400.4898,-259.1462 390.3352,-256.1238 390.6669,-263.116"/>
<text text-anchor="middle" x="218.742" y="-350.6156" font-family="Times,serif" font-size="14.00" fill="#000000">ternary_expression</text>
</g>
<!-- s325 -->
<g id="node11" class="node">
<title>s325</title>
<g id="a_node11"><a xlink:href="javascript-grammar.json.update_expression.dot.svg" xlink:title="s325 SYMBOL\nupdate_expression">
<ellipse fill="none" stroke="#000000" cx="487.4066" cy="-183.4156" rx="84.9735" ry="29.3315"/>
<text text-anchor="middle" x="487.4066" y="-187.6156" font-family="Times,serif" font-size="14.00" fill="#000000">s325 SYMBOL</text>
<text text-anchor="middle" x="487.4066" y="-170.8156" font-family="Times,serif" font-size="14.00" fill="#000000">update_expression</text>
</a>
</g>
</g>
<!-- s315&#45;&gt;s325 -->
<g id="edge10" class="edge">
<title>s315:p9&#45;&gt;s325</title>
<path fill="none" stroke="#000000" d="M101.5996,-365.4156C128.3009,-365.4156 100.9067,-265.6823 119.5996,-246.6156 191.1909,-173.5929 314.3155,-166.5893 398.2155,-171.9555"/>
<polygon fill="#000000" stroke="#000000" points="398.0238,-175.4506 408.2466,-172.6676 398.5196,-168.4682 398.0238,-175.4506"/>
<text text-anchor="middle" x="218.742" y="-250.6156" font-family="Times,serif" font-size="14.00" fill="#000000">update_expression</text>
</g>
<!-- s326 -->
<g id="node12" class="node">
<title>s326</title>
<g id="a_node12"><a xlink:href="javascript-grammar.json.call_expression.dot.svg" xlink:title="s326 SYMBOL\ncall_expression">
<ellipse fill="none" stroke="#000000" cx="487.4066" cy="-106.4156" rx="73.9667" ry="29.3315"/>
<text text-anchor="middle" x="487.4066" y="-110.6156" font-family="Times,serif" font-size="14.00" fill="#000000">s326 SYMBOL</text>
<text text-anchor="middle" x="487.4066" y="-93.8156" font-family="Times,serif" font-size="14.00" fill="#000000">call_expression</text>
</a>
</g>
</g>
<!-- s315&#45;&gt;s326 -->
<g id="edge11" class="edge">
<title>s315:p10&#45;&gt;s326</title>
<path fill="none" stroke="#000000" d="M101.5996,-340.4156C143.9666,-340.4156 90.0191,-180.9464 119.5996,-150.6156 194.6812,-73.6297 328.5878,-78.3534 412.4488,-90.8927"/>
<polygon fill="#000000" stroke="#000000" points="411.999,-94.3649 422.4204,-92.4557 413.083,-87.4493 411.999,-94.3649"/>
<text text-anchor="middle" x="218.742" y="-154.6156" font-family="Times,serif" font-size="14.00" fill="#000000">call_expression</text>
</g>
<!-- s327 -->
<g id="node13" class="node">
<title>s327</title>
<g id="a_node13"><a xlink:href="javascript-grammar.json.yield_expression.dot.svg" xlink:title="s327 SYMBOL\nyield_expression">
<ellipse fill="none" stroke="#000000" cx="487.4066" cy="-29.4156" rx="78.2875" ry="29.3315"/>
<text text-anchor="middle" x="487.4066" y="-33.6156" font-family="Times,serif" font-size="14.00" fill="#000000">s327 SYMBOL</text>
<text text-anchor="middle" x="487.4066" y="-16.8156" font-family="Times,serif" font-size="14.00" fill="#000000">yield_expression</text>
</a>
</g>
</g>
<!-- s315&#45;&gt;s327 -->
<g id="edge12" class="edge">
<title>s315:p11&#45;&gt;s327</title>
<path fill="none" stroke="#000000" d="M91.7998,-303.4156C91.7998,-276.4824 100.3191,-81.4216 119.5996,-62.6156 195.9005,11.8073 328.2082,3.5726 411.6068,-11.3508"/>
<polygon fill="#000000" stroke="#000000" points="411.056,-14.8083 421.5279,-13.1988 412.3379,-7.9267 411.056,-14.8083"/>
<text text-anchor="middle" x="218.742" y="-67.6156" font-family="Times,serif" font-size="14.00" fill="#000000">yield_expression</text>
</g>
</g>
</svg>
