<?xml version="1.0" encoding="UTF-8" standalone="no"?>
<!DOCTYPE svg PUBLIC "-//W3C//DTD SVG 1.1//EN"
 "http://www.w3.org/Graphics/SVG/1.1/DTD/svg11.dtd">
<!-- Generated by graphviz version 2.40.1 (20161225.0304)
 -->
<!-- Title: _expressions Pages: 1 -->
<svg width="454pt" height="144pt"
 viewBox="0.00 0.00 453.52 143.83" xmlns="http://www.w3.org/2000/svg" xmlns:xlink="http://www.w3.org/1999/xlink">
<g id="graph0" class="graph" transform="scale(1 1) rotate(0) translate(4 139.8313)">
<title>_expressions</title>
<polygon fill="#ffffff" stroke="transparent" points="-4,4 -4,-139.8313 449.5209,-139.8313 449.5209,4 -4,4"/>
<!-- s312 -->
<g id="node1" class="node">
<title>s312</title>
<polygon fill="none" stroke="#000000" points="0,-42.6156 0,-92.2156 101.5996,-92.2156 101.5996,-42.6156 0,-42.6156"/>
<text text-anchor="middle" x="41.0498" y="-71.6156" font-family="Times,serif" font-size="14.00" fill="#000000">s312</text>
<text text-anchor="middle" x="41.0498" y="-54.8156" font-family="Times,serif" font-size="14.00" fill="#000000">→ CHOICE</text>
<polyline fill="none" stroke="#000000" points="82.0996,-42.6156 82.0996,-92.2156 "/>
<text text-anchor="middle" x="91.8496" y="-75.6156" font-family="Times,serif" font-size="14.00" fill="#000000"> </text>
<polyline fill="none" stroke="#000000" points="82.0996,-67.4156 101.5996,-67.4156 "/>
<text text-anchor="middle" x="91.8496" y="-50.8156" font-family="Times,serif" font-size="14.00" fill="#000000"> </text>
</g>
<!-- s313 -->
<g id="node2" class="node">
<title>s313</title>
<g id="a_node2"><a xlink:href="javascript-grammar.json._expression.dot.svg" xlink:title="s313 SYMBOL\n_expression">
<ellipse fill="none" stroke="#000000" cx="350.6466" cy="-106.4156" rx="73.9667" ry="29.3315"/>
<text text-anchor="middle" x="350.6466" y="-110.6156" font-family="Times,serif" font-size="14.00" fill="#000000">s313 SYMBOL</text>
<text text-anchor="middle" x="350.6466" y="-93.8156" font-family="Times,serif" font-size="14.00" fill="#000000">_expression</text>
</a>
</g>
</g>
<!-- s312&#45;&gt;s313 -->
<g id="edge1" class="edge">
<title>s312:p0&#45;&gt;s313</title>
<path fill="none" stroke="#000000" d="M101.5996,-79.4156C158.9508,-79.4156 223.3004,-86.58 272.2205,-93.5277"/>
<polygon fill="#000000" stroke="#000000" points="272.0189,-97.0349 282.4173,-95.0043 273.0222,-90.1072 272.0189,-97.0349"/>
<text text-anchor="middle" x="178.6859" y="-92.6156" font-family="Times,serif" font-size="14.00" fill="#000000">_expression</text>
</g>
<!-- s314 -->
<g id="node3" class="node">
<title>s314</title>
<g id="a_node3"><a xlink:href="javascript-grammar.json.sequence_expression.dot.svg" xlink:title="s314 SYMBOL\nsequence_expression">
<ellipse fill="none" stroke="#000000" cx="350.6466" cy="-29.4156" rx="94.7489" ry="29.3315"/>
<text text-anchor="middle" x="350.6466" y="-33.6156" font-family="Times,serif" font-size="14.00" fill="#000000">s314 SYMBOL</text>
<text text-anchor="middle" x="350.6466" y="-16.8156" font-family="Times,serif" font-size="14.00" fill="#000000">sequence_expression</text>
</a>
</g>
</g>
<!-- s312&#45;&gt;s314 -->
<g id="edge2" class="edge">
<title>s312:p1&#45;&gt;s314</title>
<path fill="none" stroke="#000000" d="M101.5996,-55.4156C152.7316,-55.4156 209.451,-49.9272 255.8298,-43.9936"/>
<polygon fill="#000000" stroke="#000000" points="256.4034,-47.4484 265.8656,-42.6822 255.4964,-40.5074 256.4034,-47.4484"/>
<text text-anchor="middle" x="178.6859" y="-59.6156" font-family="Times,serif" font-size="14.00" fill="#000000">sequence_expression</text>
</g>
</g>
</svg>
