<?xml version="1.0" encoding="UTF-8" standalone="no"?>
<!DOCTYPE svg PUBLIC "-//W3C//DTD SVG 1.1//EN"
 "http://www.w3.org/Graphics/SVG/1.1/DTD/svg11.dtd">
<!-- Generated by graphviz version 2.40.1 (20161225.0304)
 -->
<!-- Title: _jsx_child Pages: 1 -->
<svg width="376pt" height="222pt"
 viewBox="0.00 0.00 376.27 222.22" xmlns="http://www.w3.org/2000/svg" xmlns:xlink="http://www.w3.org/1999/xlink">
<g id="graph0" class="graph" transform="scale(1 1) rotate(0) translate(4 218.2156)">
<title>_jsx_child</title>
<polygon fill="#ffffff" stroke="transparent" points="-4,4 -4,-218.2156 372.2704,-218.2156 372.2704,4 -4,4"/>
<!-- s418 -->
<g id="node1" class="node">
<title>s418</title>
<polygon fill="none" stroke="#000000" points="0,-69.2156 0,-143.6156 101.5996,-143.6156 101.5996,-69.2156 0,-69.2156"/>
<text text-anchor="middle" x="41.0498" y="-110.6156" font-family="Times,serif" font-size="14.00" fill="#000000">s418</text>
<text text-anchor="middle" x="41.0498" y="-93.8156" font-family="Times,serif" font-size="14.00" fill="#000000">→ CHOICE</text>
<polyline fill="none" stroke="#000000" points="82.0996,-69.2156 82.0996,-143.6156 "/>
<text text-anchor="middle" x="91.8496" y="-127.0156" font-family="Times,serif" font-size="14.00" fill="#000000"> </text>
<polyline fill="none" stroke="#000000" points="82.0996,-118.8156 101.5996,-118.8156 "/>
<text text-anchor="middle" x="91.8496" y="-102.2156" font-family="Times,serif" font-size="14.00" fill="#000000"> </text>
<polyline fill="none" stroke="#000000" points="82.0996,-94.0156 101.5996,-94.0156 "/>
<text text-anchor="middle" x="91.8496" y="-77.4156" font-family="Times,serif" font-size="14.00" fill="#000000"> </text>
</g>
<!-- s419 -->
<g id="node2" class="node">
<title>s419</title>
<g id="a_node2"><a xlink:href="javascript-grammar.json.jsx_text.dot.svg" xlink:title="s419 SYMBOL\njsx_text">
<ellipse fill="none" stroke="#000000" cx="294.5374" cy="-183.4156" rx="73.9667" ry="29.3315"/>
<text text-anchor="middle" x="294.5374" y="-187.6156" font-family="Times,serif" font-size="14.00" fill="#000000">s419 SYMBOL</text>
<text text-anchor="middle" x="294.5374" y="-170.8156" font-family="Times,serif" font-size="14.00" fill="#000000">jsx_text</text>
</a>
</g>
</g>
<!-- s418&#45;&gt;s419 -->
<g id="edge1" class="edge">
<title>s418:p0&#45;&gt;s419</title>
<path fill="none" stroke="#000000" d="M91.7998,-143.4156C91.7998,-196.5507 159.6589,-201.5923 216.858,-196.4038"/>
<polygon fill="#000000" stroke="#000000" points="217.4353,-199.8632 227.0287,-195.3668 216.7252,-192.8993 217.4353,-199.8632"/>
<text text-anchor="middle" x="161.202" y="-201.6156" font-family="Times,serif" font-size="14.00" fill="#000000">jsx_text</text>
</g>
<!-- s420 -->
<g id="node3" class="node">
<title>s420</title>
<g id="a_node3"><a xlink:href="javascript-grammar.json._jsx_element.dot.svg" xlink:title="s420 SYMBOL\n_jsx_element">
<ellipse fill="none" stroke="#000000" cx="294.5374" cy="-106.4156" rx="73.9667" ry="29.3315"/>
<text text-anchor="middle" x="294.5374" y="-110.6156" font-family="Times,serif" font-size="14.00" fill="#000000">s420 SYMBOL</text>
<text text-anchor="middle" x="294.5374" y="-93.8156" font-family="Times,serif" font-size="14.00" fill="#000000">_jsx_element</text>
</a>
</g>
</g>
<!-- s418&#45;&gt;s420 -->
<g id="edge2" class="edge">
<title>s418:p1&#45;&gt;s420</title>
<path fill="none" stroke="#000000" d="M101.5996,-106.4156C137.2678,-106.4156 176.645,-106.4156 210.4745,-106.4156"/>
<polygon fill="#000000" stroke="#000000" points="210.7849,-109.9157 220.7849,-106.4156 210.7849,-102.9157 210.7849,-109.9157"/>
<text text-anchor="middle" x="161.202" y="-110.6156" font-family="Times,serif" font-size="14.00" fill="#000000">_jsx_element</text>
</g>
<!-- s421 -->
<g id="node4" class="node">
<title>s421</title>
<g id="a_node4"><a xlink:href="javascript-grammar.json.jsx_expression.dot.svg" xlink:title="s421 SYMBOL\njsx_expression">
<ellipse fill="none" stroke="#000000" cx="294.5374" cy="-29.4156" rx="73.9667" ry="29.3315"/>
<text text-anchor="middle" x="294.5374" y="-33.6156" font-family="Times,serif" font-size="14.00" fill="#000000">s421 SYMBOL</text>
<text text-anchor="middle" x="294.5374" y="-16.8156" font-family="Times,serif" font-size="14.00" fill="#000000">jsx_expression</text>
</a>
</g>
</g>
<!-- s418&#45;&gt;s421 -->
<g id="edge3" class="edge">
<title>s418:p2&#45;&gt;s421</title>
<path fill="none" stroke="#000000" d="M91.7998,-69.4156C91.7998,-16.2806 159.6589,-11.239 216.858,-16.4274"/>
<polygon fill="#000000" stroke="#000000" points="216.7252,-19.932 227.0287,-17.4645 217.4353,-12.9681 216.7252,-19.932"/>
<text text-anchor="middle" x="161.202" y="-29.6156" font-family="Times,serif" font-size="14.00" fill="#000000">jsx_expression</text>
</g>
</g>
</svg>
