<?xml version="1.0" encoding="UTF-8" standalone="no"?>
<!DOCTYPE svg PUBLIC "-//W3C//DTD SVG 1.1//EN"
 "http://www.w3.org/Graphics/SVG/1.1/DTD/svg11.dtd">
<!-- Generated by graphviz version 2.40.1 (20161225.0304)
 -->
<!-- Title: _declaration Pages: 1 -->
<svg width="1504pt" height="290pt"
 viewBox="0.00 0.00 1503.73 289.83" xmlns="http://www.w3.org/2000/svg" xmlns:xlink="http://www.w3.org/1999/xlink">
<g id="graph0" class="graph" transform="scale(1 1) rotate(0) translate(4 285.8313)">
<title>_declaration</title>
<polygon fill="#ffffff" stroke="transparent" points="-4,4 -4,-285.8313 1499.7257,-285.8313 1499.7257,4 -4,4"/>
<!-- s58 -->
<g id="node1" class="node">
<title>s58</title>
<polygon fill="none" stroke="#000000" points="0,-85.6156 0,-127.2156 65.0084,-127.2156 65.0084,-85.6156 0,-85.6156"/>
<text text-anchor="middle" x="32.5042" y="-110.6156" font-family="Times,serif" font-size="14.00" fill="#000000">s58</text>
<text text-anchor="middle" x="32.5042" y="-93.8156" font-family="Times,serif" font-size="14.00" fill="#000000">→ PREC</text>
</g>
<!-- s59 -->
<g id="node2" class="node">
<title>s59</title>
<polygon fill="none" stroke="#000000" points="102.0084,-69.2156 102.0084,-143.6156 203.608,-143.6156 203.608,-69.2156 102.0084,-69.2156"/>
<text text-anchor="middle" x="143.0582" y="-110.6156" font-family="Times,serif" font-size="14.00" fill="#000000">s59</text>
<text text-anchor="middle" x="143.0582" y="-93.8156" font-family="Times,serif" font-size="14.00" fill="#000000">→ CHOICE</text>
<polyline fill="none" stroke="#000000" points="184.108,-69.2156 184.108,-143.6156 "/>
<text text-anchor="middle" x="193.858" y="-127.0156" font-family="Times,serif" font-size="14.00" fill="#000000"> </text>
<polyline fill="none" stroke="#000000" points="184.108,-118.8156 203.608,-118.8156 "/>
<text text-anchor="middle" x="193.858" y="-102.2156" font-family="Times,serif" font-size="14.00" fill="#000000"> </text>
<polyline fill="none" stroke="#000000" points="184.108,-94.0156 203.608,-94.0156 "/>
<text text-anchor="middle" x="193.858" y="-77.4156" font-family="Times,serif" font-size="14.00" fill="#000000"> </text>
</g>
<!-- s58&#45;&gt;s59 -->
<g id="edge13" class="edge">
<title>s58&#45;&gt;s59</title>
<path fill="none" stroke="#000000" d="M65.0602,-106.4156C73.2508,-106.4156 82.3129,-106.4156 91.413,-106.4156"/>
<polygon fill="#000000" stroke="#000000" points="91.659,-109.9157 101.659,-106.4156 91.659,-102.9157 91.659,-109.9157"/>
</g>
<!-- s60 -->
<g id="node3" class="node">
<title>s60</title>
<polygon fill="none" stroke="#000000" points="417.7828,-154.6156 417.7828,-196.2156 474.2246,-196.2156 474.2246,-154.6156 417.7828,-154.6156"/>
<text text-anchor="middle" x="446.0037" y="-179.6156" font-family="Times,serif" font-size="14.00" fill="#000000">s60</text>
<text text-anchor="middle" x="446.0037" y="-162.8156" font-family="Times,serif" font-size="14.00" fill="#000000">→ SEQ</text>
</g>
<!-- s59&#45;&gt;s60 -->
<g id="edge10" class="edge">
<title>s59:p0&#45;&gt;s60</title>
<path fill="none" stroke="#000000" d="M203.608,-131.4156C276.7264,-131.4156 360.2854,-151.0376 407.7332,-164.0745"/>
<polygon fill="#000000" stroke="#000000" points="407.0028,-167.5045 417.576,-166.8275 408.8884,-160.7632 407.0028,-167.5045"/>
</g>
<!-- s68 -->
<g id="node11" class="node">
<title>s68</title>
<g id="a_node11"><a xlink:href="javascript-grammar.json.lexical_declaration.dot.svg" xlink:title="s68 SYMBOL\nlexical_declaration">
<ellipse fill="none" stroke="#000000" cx="446.0037" cy="-106.4156" rx="86.7504" ry="29.3315"/>
<text text-anchor="middle" x="446.0037" y="-110.6156" font-family="Times,serif" font-size="14.00" fill="#000000">s68 SYMBOL</text>
<text text-anchor="middle" x="446.0037" y="-93.8156" font-family="Times,serif" font-size="14.00" fill="#000000">lexical_declaration</text>
</a>
</g>
</g>
<!-- s59&#45;&gt;s68 -->
<g id="edge11" class="edge">
<title>s59:p1&#45;&gt;s68</title>
<path fill="none" stroke="#000000" d="M203.608,-106.4156C251.5314,-106.4156 304.7844,-106.4156 349.142,-106.4156"/>
<polygon fill="#000000" stroke="#000000" points="349.3391,-109.9157 359.3391,-106.4156 349.339,-102.9157 349.3391,-109.9157"/>
<text text-anchor="middle" x="278.7462" y="-110.6156" font-family="Times,serif" font-size="14.00" fill="#000000">lexical_declaration</text>
</g>
<!-- s69 -->
<g id="node12" class="node">
<title>s69</title>
<g id="a_node12"><a xlink:href="javascript-grammar.json.variable_declaration.dot.svg" xlink:title="s69 SYMBOL\nvariable_declaration">
<ellipse fill="none" stroke="#000000" cx="446.0037" cy="-29.4156" rx="92.2388" ry="29.3315"/>
<text text-anchor="middle" x="446.0037" y="-33.6156" font-family="Times,serif" font-size="14.00" fill="#000000">s69 SYMBOL</text>
<text text-anchor="middle" x="446.0037" y="-16.8156" font-family="Times,serif" font-size="14.00" fill="#000000">variable_declaration</text>
</a>
</g>
</g>
<!-- s59&#45;&gt;s69 -->
<g id="edge12" class="edge">
<title>s59:p2&#45;&gt;s69</title>
<path fill="none" stroke="#000000" d="M203.608,-81.4156C261.289,-81.4156 325.0077,-67.1647 372.6347,-53.5837"/>
<polygon fill="#000000" stroke="#000000" points="373.6162,-56.9433 382.2419,-50.7911 371.6624,-50.2215 373.6162,-56.9433"/>
<text text-anchor="middle" x="278.7462" y="-84.6156" font-family="Times,serif" font-size="14.00" fill="#000000">variable_declaration</text>
</g>
<!-- s61 -->
<g id="node4" class="node">
<title>s61</title>
<polygon fill="none" stroke="#000000" points="575.1231,-138.2156 575.1231,-212.6156 676.7227,-212.6156 676.7227,-138.2156 575.1231,-138.2156"/>
<text text-anchor="middle" x="616.1729" y="-179.6156" font-family="Times,serif" font-size="14.00" fill="#000000">s61</text>
<text text-anchor="middle" x="616.1729" y="-162.8156" font-family="Times,serif" font-size="14.00" fill="#000000">→ CHOICE</text>
<polyline fill="none" stroke="#000000" points="657.2227,-138.2156 657.2227,-212.6156 "/>
<text text-anchor="middle" x="666.9727" y="-196.0156" font-family="Times,serif" font-size="14.00" fill="#000000"> </text>
<polyline fill="none" stroke="#000000" points="657.2227,-187.8156 676.7227,-187.8156 "/>
<text text-anchor="middle" x="666.9727" y="-171.2156" font-family="Times,serif" font-size="14.00" fill="#000000"> </text>
<polyline fill="none" stroke="#000000" points="657.2227,-163.0156 676.7227,-163.0156 "/>
<text text-anchor="middle" x="666.9727" y="-146.4156" font-family="Times,serif" font-size="14.00" fill="#000000"> </text>
</g>
<!-- s60&#45;&gt;s61 -->
<g id="edge4" class="edge">
<title>s60&#45;&gt;s61</title>
<path fill="none" stroke="#000000" d="M474.5124,-175.4156C498.7267,-175.4156 534.3192,-175.4156 564.912,-175.4156"/>
<polygon fill="#000000" stroke="#000000" points="565.0717,-178.9157 575.0717,-175.4156 565.0716,-171.9157 565.0717,-178.9157"/>
</g>
<!-- s62 -->
<g id="node5" class="node">
<title>s62</title>
<g id="a_node5"><a xlink:href="javascript-grammar.json.function.dot.svg" xlink:title="s62 SYMBOL\nfunction">
<ellipse fill="none" stroke="#000000" cx="905.8637" cy="-252.4156" rx="68.5672" ry="29.3315"/>
<text text-anchor="middle" x="905.8637" y="-256.6156" font-family="Times,serif" font-size="14.00" fill="#000000">s62 SYMBOL</text>
<text text-anchor="middle" x="905.8637" y="-239.8156" font-family="Times,serif" font-size="14.00" fill="#000000">function</text>
</a>
</g>
</g>
<!-- s61&#45;&gt;s62 -->
<g id="edge1" class="edge">
<title>s61:p0&#45;&gt;s62</title>
<path fill="none" stroke="#000000" d="M676.7227,-200.4156C734.1092,-200.4156 797.6202,-216.1183 843.1953,-230.2658"/>
<polygon fill="#000000" stroke="#000000" points="842.3383,-233.6656 852.9284,-233.348 844.4517,-226.9922 842.3383,-233.6656"/>
<text text-anchor="middle" x="747.9787" y="-220.6156" font-family="Times,serif" font-size="14.00" fill="#000000">function</text>
</g>
<!-- s63 -->
<g id="node6" class="node">
<title>s63</title>
<g id="a_node6"><a xlink:href="javascript-grammar.json.generator_function.dot.svg" xlink:title="s63 SYMBOL\ngenerator_function">
<ellipse fill="none" stroke="#000000" cx="905.8637" cy="-175.4156" rx="86.7583" ry="29.3315"/>
<text text-anchor="middle" x="905.8637" y="-179.6156" font-family="Times,serif" font-size="14.00" fill="#000000">s63 SYMBOL</text>
<text text-anchor="middle" x="905.8637" y="-162.8156" font-family="Times,serif" font-size="14.00" fill="#000000">generator_function</text>
</a>
</g>
</g>
<!-- s61&#45;&gt;s63 -->
<g id="edge2" class="edge">
<title>s61:p1&#45;&gt;s63</title>
<path fill="none" stroke="#000000" d="M676.7227,-175.4156C720.0891,-175.4156 768.0722,-175.4156 808.8765,-175.4156"/>
<polygon fill="#000000" stroke="#000000" points="809.0887,-178.9157 819.0887,-175.4156 809.0886,-171.9157 809.0887,-178.9157"/>
<text text-anchor="middle" x="747.9787" y="-179.6156" font-family="Times,serif" font-size="14.00" fill="#000000">generator_function</text>
</g>
<!-- s64 -->
<g id="node7" class="node">
<title>s64</title>
<g id="a_node7"><a xlink:href="javascript-grammar.json.class.dot.svg" xlink:title="s64 SYMBOL\nclass">
<ellipse fill="none" stroke="#000000" cx="905.8637" cy="-98.4156" rx="68.5672" ry="29.3315"/>
<text text-anchor="middle" x="905.8637" y="-102.6156" font-family="Times,serif" font-size="14.00" fill="#000000">s64 SYMBOL</text>
<text text-anchor="middle" x="905.8637" y="-85.8156" font-family="Times,serif" font-size="14.00" fill="#000000">class</text>
</a>
</g>
</g>
<!-- s61&#45;&gt;s64 -->
<g id="edge3" class="edge">
<title>s61:p2&#45;&gt;s64</title>
<path fill="none" stroke="#000000" d="M676.7227,-150.4156C734.1092,-150.4156 797.6202,-134.7129 843.1953,-120.5655"/>
<polygon fill="#000000" stroke="#000000" points="844.4517,-123.839 852.9284,-117.4833 842.3383,-117.1657 844.4517,-123.839"/>
<text text-anchor="middle" x="747.9787" y="-153.6156" font-family="Times,serif" font-size="14.00" fill="#000000">class</text>
</g>
<!-- s65 -->
<g id="node8" class="node">
<title>s65</title>
<polygon fill="none" stroke="#000000" points="1029.4928,-150.6156 1029.4928,-200.2156 1131.0924,-200.2156 1131.0924,-150.6156 1029.4928,-150.6156"/>
<text text-anchor="middle" x="1070.5426" y="-179.6156" font-family="Times,serif" font-size="14.00" fill="#000000">s65</text>
<text text-anchor="middle" x="1070.5426" y="-162.8156" font-family="Times,serif" font-size="14.00" fill="#000000">→ CHOICE</text>
<polyline fill="none" stroke="#000000" points="1111.5924,-150.6156 1111.5924,-200.2156 "/>
<text text-anchor="middle" x="1121.3424" y="-183.6156" font-family="Times,serif" font-size="14.00" fill="#000000"> </text>
<polyline fill="none" stroke="#000000" points="1111.5924,-175.4156 1131.0924,-175.4156 "/>
<text text-anchor="middle" x="1121.3424" y="-158.8156" font-family="Times,serif" font-size="14.00" fill="#000000"> </text>
</g>
<!-- s62&#45;&gt;s65 -->
<g id="edge7" class="edge">
<title>s62&#45;&gt;s65</title>
<path fill="none" stroke="#000000" d="M953.9889,-231.1712C974.368,-222.1751 998.3373,-211.5941 1019.8875,-202.0809"/>
<polygon fill="#000000" stroke="#000000" points="1021.5414,-205.1767 1029.2762,-197.9363 1018.7145,-198.7729 1021.5414,-205.1767"/>
</g>
<!-- s63&#45;&gt;s65 -->
<g id="edge8" class="edge">
<title>s63&#45;&gt;s65</title>
<path fill="none" stroke="#000000" d="M992.5671,-175.4156C1001.4419,-175.4156 1010.3238,-175.4156 1018.8451,-175.4156"/>
<polygon fill="#000000" stroke="#000000" points="1019.0358,-178.9157 1029.0357,-175.4156 1019.0357,-171.9157 1019.0358,-178.9157"/>
</g>
<!-- s64&#45;&gt;s65 -->
<g id="edge9" class="edge">
<title>s64&#45;&gt;s65</title>
<path fill="none" stroke="#000000" d="M953.9889,-119.6601C974.368,-128.6562 998.3373,-139.2372 1019.8875,-148.7504"/>
<polygon fill="#000000" stroke="#000000" points="1018.7145,-152.0584 1029.2762,-152.895 1021.5414,-145.6546 1018.7145,-152.0584"/>
</g>
<!-- s66 -->
<g id="node9" class="node">
<title>s66</title>
<g id="a_node9"><a xlink:href="javascript-grammar.json._automatic_semicolon.dot.svg" xlink:title="s66 SYMBOL\n_automatic_semicolon">
<ellipse fill="none" stroke="#000000" cx="1394.7849" cy="-214.4156" rx="100.8816" ry="29.3315"/>
<text text-anchor="middle" x="1394.7849" y="-218.6156" font-family="Times,serif" font-size="14.00" fill="#000000">s66 SYMBOL</text>
<text text-anchor="middle" x="1394.7849" y="-201.8156" font-family="Times,serif" font-size="14.00" fill="#000000">_automatic_semicolon</text>
</a>
</g>
</g>
<!-- s65&#45;&gt;s66 -->
<g id="edge5" class="edge">
<title>s65:p0&#45;&gt;s66</title>
<path fill="none" stroke="#000000" d="M1131.0924,-187.4156C1185.5547,-187.4156 1246.0168,-193.1859 1295.292,-199.3914"/>
<polygon fill="#000000" stroke="#000000" points="1294.9468,-202.8757 1305.3113,-200.6783 1295.8387,-195.9327 1294.9468,-202.8757"/>
<text text-anchor="middle" x="1212.4683" y="-200.6156" font-family="Times,serif" font-size="14.00" fill="#000000">_automatic_semicolon</text>
</g>
<!-- s67 -->
<g id="node10" class="node">
<title>s67</title>
<ellipse fill="none" stroke="#000000" cx="1394.7849" cy="-137.4156" rx="45.3054" ry="29.3315"/>
<text text-anchor="middle" x="1394.7849" y="-141.6156" font-family="Times,serif" font-size="14.00" fill="#000000">s67 </text>
<text text-anchor="middle" x="1394.7849" y="-124.8156" font-family="Times,serif" font-size="14.00" fill="#000000">BLANK</text>
</g>
<!-- s65&#45;&gt;s67 -->
<g id="edge6" class="edge">
<title>s65:p1&#45;&gt;s67</title>
<path fill="none" stroke="#000000" d="M1131.0924,-163.4156C1203.7611,-163.4156 1287.1533,-153.5156 1340.3647,-145.9335"/>
<polygon fill="#000000" stroke="#000000" points="1341.1977,-149.3495 1350.5924,-144.4516 1340.1939,-142.4218 1341.1977,-149.3495"/>
</g>
</g>
</svg>
