<?xml version="1.0" encoding="UTF-8" standalone="no"?>
<!DOCTYPE svg PUBLIC "-//W3C//DTD SVG 1.1//EN"
 "http://www.w3.org/Graphics/SVG/1.1/DTD/svg11.dtd">
<!-- Generated by graphviz version 2.40.1 (20161225.0304)
 -->
<!-- Title: member_expression Pages: 1 -->
<svg width="1311pt" height="248pt"
 viewBox="0.00 0.00 1310.77 247.83" xmlns="http://www.w3.org/2000/svg" xmlns:xlink="http://www.w3.org/1999/xlink">
<g id="graph0" class="graph" transform="scale(1 1) rotate(0) translate(4 243.8313)">
<title>member_expression</title>
<polygon fill="#ffffff" stroke="transparent" points="-4,4 -4,-243.8313 1306.7681,-243.8313 1306.7681,4 -4,4"/>
<!-- s563 -->
<g id="node1" class="node">
<title>s563</title>
<polygon fill="none" stroke="#000000" points="0,-103.6156 0,-145.2156 65.0084,-145.2156 65.0084,-103.6156 0,-103.6156"/>
<text text-anchor="middle" x="32.5042" y="-128.6156" font-family="Times,serif" font-size="14.00" fill="#000000">s563</text>
<text text-anchor="middle" x="32.5042" y="-111.8156" font-family="Times,serif" font-size="14.00" fill="#000000">→ PREC</text>
</g>
<!-- s564 -->
<g id="node2" class="node">
<title>s564</title>
<polygon fill="none" stroke="#000000" points="102.0084,-103.6156 102.0084,-145.2156 158.4502,-145.2156 158.4502,-103.6156 102.0084,-103.6156"/>
<text text-anchor="middle" x="130.2293" y="-128.6156" font-family="Times,serif" font-size="14.00" fill="#000000">s564</text>
<text text-anchor="middle" x="130.2293" y="-111.8156" font-family="Times,serif" font-size="14.00" fill="#000000">→ SEQ</text>
</g>
<!-- s563&#45;&gt;s564 -->
<g id="edge13" class="edge">
<title>s563&#45;&gt;s564</title>
<path fill="none" stroke="#000000" d="M65.0452,-124.4156C73.5855,-124.4156 82.8774,-124.4156 91.6984,-124.4156"/>
<polygon fill="#000000" stroke="#000000" points="91.7642,-127.9157 101.7641,-124.4156 91.7641,-120.9157 91.7642,-127.9157"/>
</g>
<!-- s565 -->
<g id="node3" class="node">
<title>s565</title>
<polygon fill="none" stroke="#000000" points="195.4502,-74.8156 195.4502,-174.0156 297.0498,-174.0156 297.0498,-74.8156 195.4502,-74.8156"/>
<text text-anchor="middle" x="236.5" y="-128.6156" font-family="Times,serif" font-size="14.00" fill="#000000">s565</text>
<text text-anchor="middle" x="236.5" y="-111.8156" font-family="Times,serif" font-size="14.00" fill="#000000">→ CHOICE</text>
<polyline fill="none" stroke="#000000" points="277.5498,-74.8156 277.5498,-174.0156 "/>
<text text-anchor="middle" x="287.2998" y="-157.4156" font-family="Times,serif" font-size="14.00" fill="#000000"> </text>
<polyline fill="none" stroke="#000000" points="277.5498,-149.2156 297.0498,-149.2156 "/>
<text text-anchor="middle" x="287.2998" y="-132.6156" font-family="Times,serif" font-size="14.00" fill="#000000"> </text>
<polyline fill="none" stroke="#000000" points="277.5498,-124.4156 297.0498,-124.4156 "/>
<text text-anchor="middle" x="287.2998" y="-107.8156" font-family="Times,serif" font-size="14.00" fill="#000000"> </text>
<polyline fill="none" stroke="#000000" points="277.5498,-99.6156 297.0498,-99.6156 "/>
<text text-anchor="middle" x="287.2998" y="-83.0156" font-family="Times,serif" font-size="14.00" fill="#000000"> </text>
</g>
<!-- s564&#45;&gt;s565 -->
<g id="edge6" class="edge">
<title>s564&#45;&gt;s565</title>
<path fill="none" stroke="#000000" d="M158.6112,-124.4156C166.6908,-124.4156 175.8186,-124.4156 185.0543,-124.4156"/>
<polygon fill="#000000" stroke="#000000" points="185.0741,-127.9157 195.0741,-124.4156 185.074,-120.9157 185.0741,-127.9157"/>
</g>
<!-- s566 -->
<g id="node4" class="node">
<title>s566</title>
<g id="a_node4"><a xlink:href="javascript-grammar.json._expression.dot.svg" xlink:title="s566 SYMBOL\n_expression">
<ellipse fill="none" stroke="#000000" cx="562.8614" cy="-210.4156" rx="73.9667" ry="29.3315"/>
<text text-anchor="middle" x="562.8614" y="-214.6156" font-family="Times,serif" font-size="14.00" fill="#000000">s566 SYMBOL</text>
<text text-anchor="middle" x="562.8614" y="-197.8156" font-family="Times,serif" font-size="14.00" fill="#000000">_expression</text>
</a>
</g>
</g>
<!-- s565&#45;&gt;s566 -->
<g id="edge1" class="edge">
<title>s565:p0&#45;&gt;s566</title>
<path fill="none" stroke="#000000" d="M297.0498,-161.4156C364.4986,-161.4156 440.0032,-176.8628 493.2542,-190.4109"/>
<polygon fill="#000000" stroke="#000000" points="492.7067,-193.8845 503.2648,-193.0021 494.4609,-187.1078 492.7067,-193.8845"/>
<text text-anchor="middle" x="348.4846" y="-171.6156" font-family="Times,serif" font-size="14.00" fill="#000000">_expression</text>
</g>
<!-- s567 -->
<g id="node5" class="node">
<title>s567</title>
<g id="a_node5"><a xlink:href="javascript-grammar.json.identifier.dot.svg" xlink:title="s567 SYMBOL\nidentifier">
<ellipse fill="none" stroke="#000000" cx="562.8614" cy="-146.4156" rx="73.9667" ry="29.3315"/>
<text text-anchor="middle" x="562.8614" y="-150.6156" font-family="Times,serif" font-size="14.00" fill="#000000">s567 SYMBOL</text>
<text text-anchor="middle" x="562.8614" y="-133.8156" font-family="Times,serif" font-size="14.00" fill="#000000">identifier</text>
</a>
</g>
</g>
<!-- s565&#45;&gt;s567 -->
<g id="edge2" class="edge">
<title>s565:p1&#45;&gt;s567</title>
<path fill="none" stroke="#000000" d="M297.0498,-136.4156C358.2029,-136.4156 427.2138,-139.0914 479.5905,-141.6746"/>
<polygon fill="#000000" stroke="#000000" points="479.6738,-145.1831 489.8368,-142.1892 480.025,-138.1919 479.6738,-145.1831"/>
<text text-anchor="middle" x="348.4846" y="-141.6156" font-family="Times,serif" font-size="14.00" fill="#000000">identifier</text>
</g>
<!-- s568 -->
<g id="node6" class="node">
<title>s568</title>
<g id="a_node6"><a xlink:href="javascript-grammar.json.super.dot.svg" xlink:title="s568 SYMBOL\nsuper">
<ellipse fill="none" stroke="#000000" cx="745.6149" cy="-106.4156" rx="73.9667" ry="29.3315"/>
<text text-anchor="middle" x="745.6149" y="-110.6156" font-family="Times,serif" font-size="14.00" fill="#000000">s568 SYMBOL</text>
<text text-anchor="middle" x="745.6149" y="-93.8156" font-family="Times,serif" font-size="14.00" fill="#000000">super</text>
</a>
</g>
</g>
<!-- s565&#45;&gt;s568 -->
<g id="edge3" class="edge">
<title>s565:p2&#45;&gt;s568</title>
<path fill="none" stroke="#000000" d="M297.0498,-112.4156C424.1624,-112.4156 571.5184,-109.9769 661.6403,-108.209"/>
<polygon fill="#000000" stroke="#000000" points="661.8719,-111.7052 671.8006,-108.0078 661.7332,-104.7066 661.8719,-111.7052"/>
<text text-anchor="middle" x="435.5239" y="-115.6156" font-family="Times,serif" font-size="14.00" fill="#000000">super</text>
</g>
<!-- s569 -->
<g id="node7" class="node">
<title>s569</title>
<polygon fill="none" stroke="#000000" points="399.9194,-19.6156 399.9194,-61.2156 471.1284,-61.2156 471.1284,-19.6156 399.9194,-19.6156"/>
<text text-anchor="middle" x="435.5239" y="-44.6156" font-family="Times,serif" font-size="14.00" fill="#000000">s569</text>
<text text-anchor="middle" x="435.5239" y="-27.8156" font-family="Times,serif" font-size="14.00" fill="#000000">→ ALIAS</text>
</g>
<!-- s565&#45;&gt;s569 -->
<g id="edge5" class="edge">
<title>s565:p3&#45;&gt;s569</title>
<path fill="none" stroke="#000000" d="M297.0498,-87.4156C307.6946,-87.4156 305.6421,-76.5963 315.0498,-71.6156 338.1701,-59.3753 366.3706,-51.7341 389.6734,-47.0797"/>
<polygon fill="#000000" stroke="#000000" points="390.4819,-50.4892 399.6646,-45.2044 389.1905,-43.6093 390.4819,-50.4892"/>
<text text-anchor="middle" x="348.4846" y="-75.6156" font-family="Times,serif" font-size="14.00" fill="#000000">identifier</text>
</g>
<!-- s571 -->
<g id="node9" class="node">
<title>s571</title>
<ellipse fill="none" stroke="#000000" cx="941.8642" cy="-148.4156" rx="68.4585" ry="29.3315"/>
<text text-anchor="middle" x="941.8642" y="-152.6156" font-family="Times,serif" font-size="14.00" fill="#000000">s571 STRING</text>
<text text-anchor="middle" x="941.8642" y="-135.8156" font-family="Times,serif" font-size="14.00" fill="#000000">&quot;.&quot;</text>
</g>
<!-- s566&#45;&gt;s571 -->
<g id="edge7" class="edge">
<title>s566&#45;&gt;s571</title>
<path fill="none" stroke="#000000" d="M631.4959,-199.1879C698.1489,-188.2843 799.0404,-171.7798 867.5569,-160.5714"/>
<polygon fill="#000000" stroke="#000000" points="868.54,-163.9572 877.8437,-158.8886 867.4098,-157.049 868.54,-163.9572"/>
</g>
<!-- s567&#45;&gt;s571 -->
<g id="edge8" class="edge">
<title>s567&#45;&gt;s571</title>
<path fill="none" stroke="#000000" d="M636.8367,-146.806C702.0988,-147.1504 796.9216,-147.6508 863.4747,-148.002"/>
<polygon fill="#000000" stroke="#000000" points="863.4745,-151.5019 873.4929,-148.0548 863.5115,-144.502 863.4745,-151.5019"/>
</g>
<!-- s568&#45;&gt;s571 -->
<g id="edge9" class="edge">
<title>s568&#45;&gt;s571</title>
<path fill="none" stroke="#000000" d="M810.6905,-120.3427C829.9712,-124.469 851.1793,-129.0079 870.8176,-133.2107"/>
<polygon fill="#000000" stroke="#000000" points="870.1089,-136.6382 880.62,-135.3085 871.5739,-129.7932 870.1089,-136.6382"/>
</g>
<!-- s570 -->
<g id="node8" class="node">
<title>s570</title>
<g id="a_node8"><a xlink:href="javascript-grammar.json._reserved_identifier.dot.svg" xlink:title="s570 SYMBOL\n_reserved_identifier">
<ellipse fill="none" stroke="#000000" cx="745.6149" cy="-29.4156" rx="91.041" ry="29.3315"/>
<text text-anchor="middle" x="745.6149" y="-33.6156" font-family="Times,serif" font-size="14.00" fill="#000000">s570 SYMBOL</text>
<text text-anchor="middle" x="745.6149" y="-16.8156" font-family="Times,serif" font-size="14.00" fill="#000000">_reserved_identifier</text>
</a>
</g>
</g>
<!-- s569&#45;&gt;s570 -->
<g id="edge4" class="edge">
<title>s569&#45;&gt;s570</title>
<path fill="none" stroke="#000000" d="M471.3982,-39.1431C513.5206,-37.6488 585.1934,-35.1063 644.7007,-32.9954"/>
<polygon fill="#000000" stroke="#000000" points="645.0285,-36.4861 654.8981,-32.6337 644.7803,-29.4905 645.0285,-36.4861"/>
</g>
<!-- s570&#45;&gt;s571 -->
<g id="edge10" class="edge">
<title>s570&#45;&gt;s571</title>
<path fill="none" stroke="#000000" d="M804.437,-52.1029C815.3764,-57.0221 826.5336,-62.5319 836.6354,-68.4156 859.8865,-81.9584 883.9132,-99.8775 903.1276,-115.3232"/>
<polygon fill="#000000" stroke="#000000" points="901.086,-118.1742 911.0515,-121.7714 905.5043,-112.7448 901.086,-118.1742"/>
</g>
<!-- s572 -->
<g id="node10" class="node">
<title>s572</title>
<polygon fill="none" stroke="#000000" points="1047.0931,-127.6156 1047.0931,-169.2156 1118.3021,-169.2156 1118.3021,-127.6156 1047.0931,-127.6156"/>
<text text-anchor="middle" x="1082.6976" y="-152.6156" font-family="Times,serif" font-size="14.00" fill="#000000">s572</text>
<text text-anchor="middle" x="1082.6976" y="-135.8156" font-family="Times,serif" font-size="14.00" fill="#000000">→ ALIAS</text>
</g>
<!-- s571&#45;&gt;s572 -->
<g id="edge12" class="edge">
<title>s571&#45;&gt;s572</title>
<path fill="none" stroke="#000000" d="M1010.2182,-148.4156C1019.2862,-148.4156 1028.3999,-148.4156 1036.957,-148.4156"/>
<polygon fill="#000000" stroke="#000000" points="1037.0784,-151.9157 1047.0784,-148.4156 1037.0783,-144.9157 1037.0784,-151.9157"/>
</g>
<!-- s573 -->
<g id="node11" class="node">
<title>s573</title>
<g id="a_node11"><a xlink:href="javascript-grammar.json.identifier.dot.svg" xlink:title="s573 SYMBOL\nidentifier">
<ellipse fill="none" stroke="#000000" cx="1229.0351" cy="-148.4156" rx="73.9667" ry="29.3315"/>
<text text-anchor="middle" x="1229.0351" y="-152.6156" font-family="Times,serif" font-size="14.00" fill="#000000">s573 SYMBOL</text>
<text text-anchor="middle" x="1229.0351" y="-135.8156" font-family="Times,serif" font-size="14.00" fill="#000000">identifier</text>
</a>
</g>
</g>
<!-- s572&#45;&gt;s573 -->
<g id="edge11" class="edge">
<title>s572&#45;&gt;s573</title>
<path fill="none" stroke="#000000" d="M1118.4958,-148.4156C1126.6982,-148.4156 1135.757,-148.4156 1145.0541,-148.4156"/>
<polygon fill="#000000" stroke="#000000" points="1145.2066,-151.9157 1155.2065,-148.4156 1145.2065,-144.9157 1145.2066,-151.9157"/>
</g>
</g>
</svg>
