<?xml version="1.0" encoding="UTF-8" standalone="no"?>
<!DOCTYPE svg PUBLIC "-//W3C//DTD SVG 1.1//EN"
 "http://www.w3.org/Graphics/SVG/1.1/DTD/svg11.dtd">
<!-- Generated by graphviz version 2.40.1 (20161225.0304)
 -->
<!-- Title: generator_function Pages: 1 -->
<svg width="1183pt" height="144pt"
 viewBox="0.00 0.00 1183.27 143.83" xmlns="http://www.w3.org/2000/svg" xmlns:xlink="http://www.w3.org/1999/xlink">
<g id="graph0" class="graph" transform="scale(1 1) rotate(0) translate(4 139.8313)">
<title>generator_function</title>
<polygon fill="#ffffff" stroke="transparent" points="-4,4 -4,-139.8313 1179.2672,-139.8313 1179.2672,4 -4,4"/>
<!-- s517 -->
<g id="node1" class="node">
<title>s517</title>
<polygon fill="none" stroke="#000000" points="0,-46.6156 0,-88.2156 56.4418,-88.2156 56.4418,-46.6156 0,-46.6156"/>
<text text-anchor="middle" x="28.2209" y="-71.6156" font-family="Times,serif" font-size="14.00" fill="#000000">s517</text>
<text text-anchor="middle" x="28.2209" y="-54.8156" font-family="Times,serif" font-size="14.00" fill="#000000">→ SEQ</text>
</g>
<!-- s518 -->
<g id="node2" class="node">
<title>s518</title>
<ellipse fill="none" stroke="#000000" cx="161.6707" cy="-67.4156" rx="68.4585" ry="29.3315"/>
<text text-anchor="middle" x="161.6707" y="-71.6156" font-family="Times,serif" font-size="14.00" fill="#000000">s518 STRING</text>
<text text-anchor="middle" x="161.6707" y="-54.8156" font-family="Times,serif" font-size="14.00" fill="#000000">&quot;function&quot;</text>
</g>
<!-- s517&#45;&gt;s518 -->
<g id="edge1" class="edge">
<title>s517&#45;&gt;s518</title>
<path fill="none" stroke="#000000" d="M56.5222,-67.4156C64.5856,-67.4156 73.7846,-67.4156 83.3101,-67.4156"/>
<polygon fill="#000000" stroke="#000000" points="83.321,-70.9157 93.321,-67.4156 83.3209,-63.9157 83.321,-70.9157"/>
</g>
<!-- s519 -->
<g id="node3" class="node">
<title>s519</title>
<ellipse fill="none" stroke="#000000" cx="335.1284" cy="-67.4156" rx="68.4585" ry="29.3315"/>
<text text-anchor="middle" x="335.1284" y="-71.6156" font-family="Times,serif" font-size="14.00" fill="#000000">s519 STRING</text>
<text text-anchor="middle" x="335.1284" y="-54.8156" font-family="Times,serif" font-size="14.00" fill="#000000">&quot;*&quot;</text>
</g>
<!-- s518&#45;&gt;s519 -->
<g id="edge2" class="edge">
<title>s518&#45;&gt;s519</title>
<path fill="none" stroke="#000000" d="M230.2258,-67.4156C238.8698,-67.4156 247.7659,-67.4156 256.5496,-67.4156"/>
<polygon fill="#000000" stroke="#000000" points="256.7874,-70.9157 266.7873,-67.4156 256.7873,-63.9157 256.7874,-70.9157"/>
</g>
<!-- s520 -->
<g id="node4" class="node">
<title>s520</title>
<polygon fill="none" stroke="#000000" points="440.3573,-42.6156 440.3573,-92.2156 541.9569,-92.2156 541.9569,-42.6156 440.3573,-42.6156"/>
<text text-anchor="middle" x="481.4071" y="-71.6156" font-family="Times,serif" font-size="14.00" fill="#000000">s520</text>
<text text-anchor="middle" x="481.4071" y="-54.8156" font-family="Times,serif" font-size="14.00" fill="#000000">→ CHOICE</text>
<polyline fill="none" stroke="#000000" points="522.4569,-42.6156 522.4569,-92.2156 "/>
<text text-anchor="middle" x="532.2069" y="-75.6156" font-family="Times,serif" font-size="14.00" fill="#000000"> </text>
<polyline fill="none" stroke="#000000" points="522.4569,-67.4156 541.9569,-67.4156 "/>
<text text-anchor="middle" x="532.2069" y="-50.8156" font-family="Times,serif" font-size="14.00" fill="#000000"> </text>
</g>
<!-- s519&#45;&gt;s520 -->
<g id="edge5" class="edge">
<title>s519&#45;&gt;s520</title>
<path fill="none" stroke="#000000" d="M403.5649,-67.4156C412.3926,-67.4156 421.3865,-67.4156 430.0851,-67.4156"/>
<polygon fill="#000000" stroke="#000000" points="430.1333,-70.9157 440.1333,-67.4156 430.1332,-63.9157 430.1333,-70.9157"/>
</g>
<!-- s521 -->
<g id="node5" class="node">
<title>s521</title>
<g id="a_node5"><a xlink:href="javascript-grammar.json.identifier.dot.svg" xlink:title="s521 SYMBOL\nidentifier">
<ellipse fill="none" stroke="#000000" cx="703.0027" cy="-106.4156" rx="73.9667" ry="29.3315"/>
<text text-anchor="middle" x="703.0027" y="-110.6156" font-family="Times,serif" font-size="14.00" fill="#000000">s521 SYMBOL</text>
<text text-anchor="middle" x="703.0027" y="-93.8156" font-family="Times,serif" font-size="14.00" fill="#000000">identifier</text>
</a>
</g>
</g>
<!-- s520&#45;&gt;s521 -->
<g id="edge3" class="edge">
<title>s520:p0&#45;&gt;s521</title>
<path fill="none" stroke="#000000" d="M541.9569,-79.4156C570.993,-79.4156 602.5736,-83.7375 630.0149,-88.923"/>
<polygon fill="#000000" stroke="#000000" points="629.4386,-92.3765 639.9252,-90.8661 630.7855,-85.5073 629.4386,-92.3765"/>
<text text-anchor="middle" x="585.6133" y="-88.6156" font-family="Times,serif" font-size="14.00" fill="#000000">identifier</text>
</g>
<!-- s522 -->
<g id="node6" class="node">
<title>s522</title>
<ellipse fill="none" stroke="#000000" cx="703.0027" cy="-29.4156" rx="45.3054" ry="29.3315"/>
<text text-anchor="middle" x="703.0027" y="-33.6156" font-family="Times,serif" font-size="14.00" fill="#000000">s522 </text>
<text text-anchor="middle" x="703.0027" y="-16.8156" font-family="Times,serif" font-size="14.00" fill="#000000">BLANK</text>
</g>
<!-- s520&#45;&gt;s522 -->
<g id="edge4" class="edge">
<title>s520:p1&#45;&gt;s522</title>
<path fill="none" stroke="#000000" d="M541.9569,-55.4156C578.6292,-55.4156 619.4053,-48.7638 650.7515,-42.1892"/>
<polygon fill="#000000" stroke="#000000" points="651.5449,-45.5986 660.5803,-40.0659 650.0667,-38.7565 651.5449,-45.5986"/>
</g>
<!-- s523 -->
<g id="node7" class="node">
<title>s523</title>
<g id="a_node7"><a xlink:href="javascript-grammar.json.formal_parameters.dot.svg" xlink:title="s523 SYMBOL\nformal_parameters">
<ellipse fill="none" stroke="#000000" cx="899.8064" cy="-67.4156" rx="86.1415" ry="29.3315"/>
<text text-anchor="middle" x="899.8064" y="-71.6156" font-family="Times,serif" font-size="14.00" fill="#000000">s523 SYMBOL</text>
<text text-anchor="middle" x="899.8064" y="-54.8156" font-family="Times,serif" font-size="14.00" fill="#000000">formal_parameters</text>
</a>
</g>
</g>
<!-- s521&#45;&gt;s523 -->
<g id="edge6" class="edge">
<title>s521&#45;&gt;s523</title>
<path fill="none" stroke="#000000" d="M769.083,-93.3207C783.8309,-90.3982 799.6684,-87.2597 815.0522,-84.2111"/>
<polygon fill="#000000" stroke="#000000" points="815.9511,-87.6011 825.08,-82.224 814.5904,-80.7347 815.9511,-87.6011"/>
</g>
<!-- s522&#45;&gt;s523 -->
<g id="edge7" class="edge">
<title>s522&#45;&gt;s523</title>
<path fill="none" stroke="#000000" d="M746.6798,-37.8491C766.6954,-41.7138 791.1402,-46.4337 814.5709,-50.9579"/>
<polygon fill="#000000" stroke="#000000" points="814.0524,-54.4223 824.5346,-52.8817 815.3795,-47.5493 814.0524,-54.4223"/>
</g>
<!-- s524 -->
<g id="node8" class="node">
<title>s524</title>
<g id="a_node8"><a xlink:href="javascript-grammar.json.statement_block.dot.svg" xlink:title="s524 SYMBOL\nstatement_block">
<ellipse fill="none" stroke="#000000" cx="1099.0722" cy="-67.4156" rx="76.3905" ry="29.3315"/>
<text text-anchor="middle" x="1099.0722" y="-71.6156" font-family="Times,serif" font-size="14.00" fill="#000000">s524 SYMBOL</text>
<text text-anchor="middle" x="1099.0722" y="-54.8156" font-family="Times,serif" font-size="14.00" fill="#000000">statement_block</text>
</a>
</g>
</g>
<!-- s523&#45;&gt;s524 -->
<g id="edge8" class="edge">
<title>s523&#45;&gt;s524</title>
<path fill="none" stroke="#000000" d="M986.0483,-67.4156C994.818,-67.4156 1003.7286,-67.4156 1012.5018,-67.4156"/>
<polygon fill="#000000" stroke="#000000" points="1012.7209,-70.9157 1022.7208,-67.4156 1012.7208,-63.9157 1012.7209,-70.9157"/>
</g>
</g>
</svg>
