<?xml version="1.0" encoding="UTF-8" standalone="no"?>
<!DOCTYPE svg PUBLIC "-//W3C//DTD SVG 1.1//EN"
 "http://www.w3.org/Graphics/SVG/1.1/DTD/svg11.dtd">
<!-- Generated by graphviz version 2.40.1 (20161225.0304)
 -->
<!-- Title: regex Pages: 1 -->
<svg width="1102pt" height="144pt"
 viewBox="0.00 0.00 1101.93 143.83" xmlns="http://www.w3.org/2000/svg" xmlns:xlink="http://www.w3.org/1999/xlink">
<g id="graph0" class="graph" transform="scale(1 1) rotate(0) translate(4 139.8313)">
<title>regex</title>
<polygon fill="#ffffff" stroke="transparent" points="-4,4 -4,-139.8313 1097.9276,-139.8313 1097.9276,4 -4,4"/>
<!-- s669 -->
<g id="node1" class="node">
<title>s669</title>
<polygon fill="none" stroke="#000000" points="0,-46.6156 0,-88.2156 56.4418,-88.2156 56.4418,-46.6156 0,-46.6156"/>
<text text-anchor="middle" x="28.2209" y="-71.6156" font-family="Times,serif" font-size="14.00" fill="#000000">s669</text>
<text text-anchor="middle" x="28.2209" y="-54.8156" font-family="Times,serif" font-size="14.00" fill="#000000">→ SEQ</text>
</g>
<!-- s670 -->
<g id="node2" class="node">
<title>s670</title>
<ellipse fill="none" stroke="#000000" cx="161.6707" cy="-67.4156" rx="68.4585" ry="29.3315"/>
<text text-anchor="middle" x="161.6707" y="-71.6156" font-family="Times,serif" font-size="14.00" fill="#000000">s670 STRING</text>
<text text-anchor="middle" x="161.6707" y="-54.8156" font-family="Times,serif" font-size="14.00" fill="#000000">&quot;/&quot;</text>
</g>
<!-- s669&#45;&gt;s670 -->
<g id="edge1" class="edge">
<title>s669&#45;&gt;s670</title>
<path fill="none" stroke="#000000" d="M56.5222,-67.4156C64.5856,-67.4156 73.7846,-67.4156 83.3101,-67.4156"/>
<polygon fill="#000000" stroke="#000000" points="83.321,-70.9157 93.321,-67.4156 83.3209,-63.9157 83.321,-70.9157"/>
</g>
<!-- s671 -->
<g id="node3" class="node">
<title>s671</title>
<g id="a_node3"><a xlink:href="javascript-grammar.json.regex_pattern.dot.svg" xlink:title="s671 SYMBOL\nregex_pattern">
<ellipse fill="none" stroke="#000000" cx="340.6325" cy="-67.4156" rx="73.9667" ry="29.3315"/>
<text text-anchor="middle" x="340.6325" y="-71.6156" font-family="Times,serif" font-size="14.00" fill="#000000">s671 SYMBOL</text>
<text text-anchor="middle" x="340.6325" y="-54.8156" font-family="Times,serif" font-size="14.00" fill="#000000">regex_pattern</text>
</a>
</g>
</g>
<!-- s670&#45;&gt;s671 -->
<g id="edge2" class="edge">
<title>s670&#45;&gt;s671</title>
<path fill="none" stroke="#000000" d="M230.0945,-67.4156C238.8411,-67.4156 247.8723,-67.4156 256.8274,-67.4156"/>
<polygon fill="#000000" stroke="#000000" points="256.8865,-70.9157 266.8864,-67.4156 256.8864,-63.9157 256.8865,-70.9157"/>
</g>
<!-- s672 -->
<g id="node4" class="node">
<title>s672</title>
<ellipse fill="none" stroke="#000000" cx="578.9637" cy="-67.4156" rx="127.6963" ry="29.3315"/>
<text text-anchor="middle" x="578.9637" y="-71.6156" font-family="Times,serif" font-size="14.00" fill="#000000">s672 IMMEDIATE_TOKEN</text>
<text text-anchor="middle" x="578.9637" y="-54.8156" font-family="Times,serif" font-size="14.00" fill="#000000">(not&#45;implemented)</text>
</g>
<!-- s671&#45;&gt;s672 -->
<g id="edge3" class="edge">
<title>s671&#45;&gt;s672</title>
<path fill="none" stroke="#000000" d="M414.4098,-67.4156C422.9521,-67.4156 431.8601,-67.4156 440.9175,-67.4156"/>
<polygon fill="#000000" stroke="#000000" points="441.1955,-70.9157 451.1955,-67.4156 441.1954,-63.9157 441.1955,-70.9157"/>
</g>
<!-- s673 -->
<g id="node5" class="node">
<title>s673</title>
<polygon fill="none" stroke="#000000" points="743.5618,-42.6156 743.5618,-92.2156 845.1614,-92.2156 845.1614,-42.6156 743.5618,-42.6156"/>
<text text-anchor="middle" x="784.6116" y="-71.6156" font-family="Times,serif" font-size="14.00" fill="#000000">s673</text>
<text text-anchor="middle" x="784.6116" y="-54.8156" font-family="Times,serif" font-size="14.00" fill="#000000">→ CHOICE</text>
<polyline fill="none" stroke="#000000" points="825.6614,-42.6156 825.6614,-92.2156 "/>
<text text-anchor="middle" x="835.4114" y="-75.6156" font-family="Times,serif" font-size="14.00" fill="#000000"> </text>
<polyline fill="none" stroke="#000000" points="825.6614,-67.4156 845.1614,-67.4156 "/>
<text text-anchor="middle" x="835.4114" y="-50.8156" font-family="Times,serif" font-size="14.00" fill="#000000"> </text>
</g>
<!-- s672&#45;&gt;s673 -->
<g id="edge6" class="edge">
<title>s672&#45;&gt;s673</title>
<path fill="none" stroke="#000000" d="M706.751,-67.4156C715.8963,-67.4156 724.8413,-67.4156 733.3094,-67.4156"/>
<polygon fill="#000000" stroke="#000000" points="733.3836,-70.9157 743.3835,-67.4156 733.3835,-63.9157 733.3836,-70.9157"/>
</g>
<!-- s674 -->
<g id="node6" class="node">
<title>s674</title>
<g id="a_node6"><a xlink:href="javascript-grammar.json.regex_flags.dot.svg" xlink:title="s674 SYMBOL\nregex_flags">
<ellipse fill="none" stroke="#000000" cx="1020.1946" cy="-106.4156" rx="73.9667" ry="29.3315"/>
<text text-anchor="middle" x="1020.1946" y="-110.6156" font-family="Times,serif" font-size="14.00" fill="#000000">s674 SYMBOL</text>
<text text-anchor="middle" x="1020.1946" y="-93.8156" font-family="Times,serif" font-size="14.00" fill="#000000">regex_flags</text>
</a>
</g>
</g>
<!-- s673&#45;&gt;s674 -->
<g id="edge4" class="edge">
<title>s673:p0&#45;&gt;s674</title>
<path fill="none" stroke="#000000" d="M845.1614,-79.4156C878.5935,-79.4156 915.2021,-84.2865 946.2576,-89.8905"/>
<polygon fill="#000000" stroke="#000000" points="945.6625,-93.3397 956.1344,-91.7305 946.9446,-86.4581 945.6625,-93.3397"/>
<text text-anchor="middle" x="895.8115" y="-90.6156" font-family="Times,serif" font-size="14.00" fill="#000000">regex_flags</text>
</g>
<!-- s675 -->
<g id="node7" class="node">
<title>s675</title>
<ellipse fill="none" stroke="#000000" cx="1020.1946" cy="-29.4156" rx="45.3054" ry="29.3315"/>
<text text-anchor="middle" x="1020.1946" y="-33.6156" font-family="Times,serif" font-size="14.00" fill="#000000">s675 </text>
<text text-anchor="middle" x="1020.1946" y="-16.8156" font-family="Times,serif" font-size="14.00" fill="#000000">BLANK</text>
</g>
<!-- s673&#45;&gt;s675 -->
<g id="edge5" class="edge">
<title>s673:p1&#45;&gt;s675</title>
<path fill="none" stroke="#000000" d="M845.1614,-55.4156C886.5437,-55.4156 932.838,-48.217 967.4175,-41.3954"/>
<polygon fill="#000000" stroke="#000000" points="968.1934,-44.8094 977.2994,-39.3936 966.8035,-37.9488 968.1934,-44.8094"/>
</g>
</g>
</svg>
