<?xml version="1.0" encoding="UTF-8" standalone="no"?>
<!DOCTYPE svg PUBLIC "-//W3C//DTD SVG 1.1//EN"
 "http://www.w3.org/Graphics/SVG/1.1/DTD/svg11.dtd">
<!-- Generated by graphviz version 2.40.1 (20161225.0304)
 -->
<!-- Title: decorator Pages: 1 -->
<svg width="1022pt" height="209pt"
 viewBox="0.00 0.00 1022.19 208.83" xmlns="http://www.w3.org/2000/svg" xmlns:xlink="http://www.w3.org/1999/xlink">
<g id="graph0" class="graph" transform="scale(1 1) rotate(0) translate(4 204.8313)">
<title>decorator</title>
<polygon fill="#ffffff" stroke="transparent" points="-4,4 -4,-204.8313 1018.1923,-204.8313 1018.1923,4 -4,4"/>
<!-- s802 -->
<g id="node1" class="node">
<title>s802</title>
<polygon fill="none" stroke="#000000" points="0,-81.6156 0,-123.2156 56.4418,-123.2156 56.4418,-81.6156 0,-81.6156"/>
<text text-anchor="middle" x="28.2209" y="-106.6156" font-family="Times,serif" font-size="14.00" fill="#000000">s802</text>
<text text-anchor="middle" x="28.2209" y="-89.8156" font-family="Times,serif" font-size="14.00" fill="#000000">→ SEQ</text>
</g>
<!-- s803 -->
<g id="node2" class="node">
<title>s803</title>
<ellipse fill="none" stroke="#000000" cx="161.6707" cy="-102.4156" rx="68.4585" ry="29.3315"/>
<text text-anchor="middle" x="161.6707" y="-106.6156" font-family="Times,serif" font-size="14.00" fill="#000000">s803 STRING</text>
<text text-anchor="middle" x="161.6707" y="-89.8156" font-family="Times,serif" font-size="14.00" fill="#000000">&quot;@&quot;</text>
</g>
<!-- s802&#45;&gt;s803 -->
<g id="edge1" class="edge">
<title>s802&#45;&gt;s803</title>
<path fill="none" stroke="#000000" d="M56.5222,-102.4156C64.5856,-102.4156 73.7846,-102.4156 83.3101,-102.4156"/>
<polygon fill="#000000" stroke="#000000" points="83.321,-105.9157 93.321,-102.4156 83.3209,-98.9157 83.321,-105.9157"/>
</g>
<!-- s804 -->
<g id="node3" class="node">
<title>s804</title>
<polygon fill="none" stroke="#000000" points="266.8995,-65.2156 266.8995,-139.6156 368.4991,-139.6156 368.4991,-65.2156 266.8995,-65.2156"/>
<text text-anchor="middle" x="307.9493" y="-106.6156" font-family="Times,serif" font-size="14.00" fill="#000000">s804</text>
<text text-anchor="middle" x="307.9493" y="-89.8156" font-family="Times,serif" font-size="14.00" fill="#000000">→ CHOICE</text>
<polyline fill="none" stroke="#000000" points="348.9991,-65.2156 348.9991,-139.6156 "/>
<text text-anchor="middle" x="358.7491" y="-123.0156" font-family="Times,serif" font-size="14.00" fill="#000000"> </text>
<polyline fill="none" stroke="#000000" points="348.9991,-114.8156 368.4991,-114.8156 "/>
<text text-anchor="middle" x="358.7491" y="-98.2156" font-family="Times,serif" font-size="14.00" fill="#000000"> </text>
<polyline fill="none" stroke="#000000" points="348.9991,-90.0156 368.4991,-90.0156 "/>
<text text-anchor="middle" x="358.7491" y="-73.4156" font-family="Times,serif" font-size="14.00" fill="#000000"> </text>
</g>
<!-- s803&#45;&gt;s804 -->
<g id="edge7" class="edge">
<title>s803&#45;&gt;s804</title>
<path fill="none" stroke="#000000" d="M230.1071,-102.4156C238.9349,-102.4156 247.9288,-102.4156 256.6274,-102.4156"/>
<polygon fill="#000000" stroke="#000000" points="256.6756,-105.9157 266.6755,-102.4156 256.6755,-98.9157 256.6756,-105.9157"/>
</g>
<!-- s805 -->
<g id="node4" class="node">
<title>s805</title>
<g id="a_node4"><a xlink:href="javascript-grammar.json._identifier_reference.dot.svg" xlink:title="s805 SYMBOL\n_identifier_reference">
<ellipse fill="none" stroke="#000000" cx="616.1719" cy="-171.4156" rx="94.1107" ry="29.3315"/>
<text text-anchor="middle" x="616.1719" y="-175.6156" font-family="Times,serif" font-size="14.00" fill="#000000">s805 SYMBOL</text>
<text text-anchor="middle" x="616.1719" y="-158.8156" font-family="Times,serif" font-size="14.00" fill="#000000">_identifier_reference</text>
</a>
</g>
</g>
<!-- s804&#45;&gt;s805 -->
<g id="edge2" class="edge">
<title>s804:p0&#45;&gt;s805</title>
<path fill="none" stroke="#000000" d="M368.4991,-127.4156C424.7644,-127.4156 487.1265,-138.5598 535.1982,-149.6312"/>
<polygon fill="#000000" stroke="#000000" points="534.6964,-153.1085 545.2319,-151.9885 536.2975,-146.2941 534.6964,-153.1085"/>
<text text-anchor="middle" x="445.1829" y="-145.6156" font-family="Times,serif" font-size="14.00" fill="#000000">_identifier_reference</text>
</g>
<!-- s806 -->
<g id="node5" class="node">
<title>s806</title>
<polygon fill="none" stroke="#000000" points="580.5674,-81.6156 580.5674,-123.2156 651.7764,-123.2156 651.7764,-81.6156 580.5674,-81.6156"/>
<text text-anchor="middle" x="616.1719" y="-106.6156" font-family="Times,serif" font-size="14.00" fill="#000000">s806</text>
<text text-anchor="middle" x="616.1719" y="-89.8156" font-family="Times,serif" font-size="14.00" fill="#000000">→ ALIAS</text>
</g>
<!-- s804&#45;&gt;s806 -->
<g id="edge4" class="edge">
<title>s804:p1&#45;&gt;s806</title>
<path fill="none" stroke="#000000" d="M368.4991,-102.4156C438.9507,-102.4156 520.675,-102.4156 570.3834,-102.4156"/>
<polygon fill="#000000" stroke="#000000" points="570.4891,-105.9157 580.4891,-102.4156 570.4891,-98.9157 570.4891,-105.9157"/>
<text text-anchor="middle" x="445.1829" y="-106.6156" font-family="Times,serif" font-size="14.00" fill="#000000">member_expression</text>
</g>
<!-- s808 -->
<g id="node7" class="node">
<title>s808</title>
<polygon fill="none" stroke="#000000" points="580.5674,-12.6156 580.5674,-54.2156 651.7764,-54.2156 651.7764,-12.6156 580.5674,-12.6156"/>
<text text-anchor="middle" x="616.1719" y="-37.6156" font-family="Times,serif" font-size="14.00" fill="#000000">s808</text>
<text text-anchor="middle" x="616.1719" y="-20.8156" font-family="Times,serif" font-size="14.00" fill="#000000">→ ALIAS</text>
</g>
<!-- s804&#45;&gt;s808 -->
<g id="edge6" class="edge">
<title>s804:p2&#45;&gt;s808</title>
<path fill="none" stroke="#000000" d="M368.4991,-77.4156C439.9993,-77.4156 521.3449,-59.4195 570.6992,-46.4455"/>
<polygon fill="#000000" stroke="#000000" points="571.6743,-49.8078 580.4306,-43.843 569.8658,-43.0454 571.6743,-49.8078"/>
<text text-anchor="middle" x="445.1829" y="-80.6156" font-family="Times,serif" font-size="14.00" fill="#000000">call_expression</text>
</g>
<!-- s807 -->
<g id="node6" class="node">
<title>s807</title>
<g id="a_node6"><a xlink:href="javascript-grammar.json.decorator_member_expression.dot.svg" xlink:title="s807 SYMBOL\ndecorator_member_expression">
<ellipse fill="none" stroke="#000000" cx="880.8347" cy="-106.4156" rx="133.2155" ry="29.3315"/>
<text text-anchor="middle" x="880.8347" y="-110.6156" font-family="Times,serif" font-size="14.00" fill="#000000">s807 SYMBOL</text>
<text text-anchor="middle" x="880.8347" y="-93.8156" font-family="Times,serif" font-size="14.00" fill="#000000">decorator_member_expression</text>
</a>
</g>
</g>
<!-- s806&#45;&gt;s807 -->
<g id="edge3" class="edge">
<title>s806&#45;&gt;s807</title>
<path fill="none" stroke="#000000" d="M651.8655,-102.9551C674.5281,-103.2976 705.505,-103.7658 737.3495,-104.2471"/>
<polygon fill="#000000" stroke="#000000" points="737.6579,-107.752 747.7097,-104.4036 737.7638,-100.7528 737.6579,-107.752"/>
</g>
<!-- s809 -->
<g id="node8" class="node">
<title>s809</title>
<g id="a_node8"><a xlink:href="javascript-grammar.json.decorator_call_expression.dot.svg" xlink:title="s809 SYMBOL\ndecorator_call_expression">
<ellipse fill="none" stroke="#000000" cx="880.8347" cy="-29.4156" rx="115.4261" ry="29.3315"/>
<text text-anchor="middle" x="880.8347" y="-33.6156" font-family="Times,serif" font-size="14.00" fill="#000000">s809 SYMBOL</text>
<text text-anchor="middle" x="880.8347" y="-16.8156" font-family="Times,serif" font-size="14.00" fill="#000000">decorator_call_expression</text>
</a>
</g>
</g>
<!-- s808&#45;&gt;s809 -->
<g id="edge5" class="edge">
<title>s808&#45;&gt;s809</title>
<path fill="none" stroke="#000000" d="M651.8655,-32.8762C678.8062,-32.469 717.4966,-31.8843 755.4264,-31.311"/>
<polygon fill="#000000" stroke="#000000" points="755.6218,-34.8086 765.5677,-31.1577 755.5159,-27.8094 755.6218,-34.8086"/>
</g>
</g>
</svg>
