<?xml version="1.0" encoding="UTF-8" standalone="no"?>
<!DOCTYPE svg PUBLIC "-//W3C//DTD SVG 1.1//EN"
 "http://www.w3.org/Graphics/SVG/1.1/DTD/svg11.dtd">
<!-- Generated by graphviz version 2.40.1 (20161225.0304)
 -->
<!-- Title: named_imports Pages: 1 -->
<svg width="1788pt" height="263pt"
 viewBox="0.00 0.00 1787.66 262.83" xmlns="http://www.w3.org/2000/svg" xmlns:xlink="http://www.w3.org/1999/xlink">
<g id="graph0" class="graph" transform="scale(1 1) rotate(0) translate(4 258.8313)">
<title>named_imports</title>
<polygon fill="#ffffff" stroke="transparent" points="-4,4 -4,-258.8313 1783.6633,-258.8313 1783.6633,4 -4,4"/>
<!-- s97 -->
<g id="node1" class="node">
<title>s97</title>
<polygon fill="none" stroke="#000000" points="0,-86.6156 0,-128.2156 56.4418,-128.2156 56.4418,-86.6156 0,-86.6156"/>
<text text-anchor="middle" x="28.2209" y="-111.6156" font-family="Times,serif" font-size="14.00" fill="#000000">s97</text>
<text text-anchor="middle" x="28.2209" y="-94.8156" font-family="Times,serif" font-size="14.00" fill="#000000">→ SEQ</text>
</g>
<!-- s98 -->
<g id="node2" class="node">
<title>s98</title>
<ellipse fill="none" stroke="#000000" cx="156.7209" cy="-107.4156" rx="63.059" ry="29.3315"/>
<text text-anchor="middle" x="156.7209" y="-111.6156" font-family="Times,serif" font-size="14.00" fill="#000000">s98 STRING</text>
<text text-anchor="middle" x="156.7209" y="-94.8156" font-family="Times,serif" font-size="14.00" fill="#000000">&quot;{&quot;</text>
</g>
<!-- s97&#45;&gt;s98 -->
<g id="edge1" class="edge">
<title>s97&#45;&gt;s98</title>
<path fill="none" stroke="#000000" d="M56.7392,-107.4156C64.7212,-107.4156 73.7821,-107.4156 83.112,-107.4156"/>
<polygon fill="#000000" stroke="#000000" points="83.3033,-110.9157 93.3032,-107.4156 83.3032,-103.9157 83.3033,-110.9157"/>
</g>
<!-- s99 -->
<g id="node3" class="node">
<title>s99</title>
<polygon fill="none" stroke="#000000" points="257.0001,-82.6156 257.0001,-132.2156 358.5997,-132.2156 358.5997,-82.6156 257.0001,-82.6156"/>
<text text-anchor="middle" x="298.0499" y="-111.6156" font-family="Times,serif" font-size="14.00" fill="#000000">s99</text>
<text text-anchor="middle" x="298.0499" y="-94.8156" font-family="Times,serif" font-size="14.00" fill="#000000">→ CHOICE</text>
<polyline fill="none" stroke="#000000" points="339.0997,-82.6156 339.0997,-132.2156 "/>
<text text-anchor="middle" x="348.8497" y="-115.6156" font-family="Times,serif" font-size="14.00" fill="#000000"> </text>
<polyline fill="none" stroke="#000000" points="339.0997,-107.4156 358.5997,-107.4156 "/>
<text text-anchor="middle" x="348.8497" y="-90.8156" font-family="Times,serif" font-size="14.00" fill="#000000"> </text>
</g>
<!-- s98&#45;&gt;s99 -->
<g id="edge12" class="edge">
<title>s98&#45;&gt;s99</title>
<path fill="none" stroke="#000000" d="M220.3541,-107.4156C229.0484,-107.4156 237.9585,-107.4156 246.608,-107.4156"/>
<polygon fill="#000000" stroke="#000000" points="246.6136,-110.9157 256.6136,-107.4156 246.6135,-103.9157 246.6136,-110.9157"/>
</g>
<!-- s100 -->
<g id="node4" class="node">
<title>s100</title>
<polygon fill="none" stroke="#000000" points="395.5997,-125.6156 395.5997,-167.2156 452.0415,-167.2156 452.0415,-125.6156 395.5997,-125.6156"/>
<text text-anchor="middle" x="423.8206" y="-150.6156" font-family="Times,serif" font-size="14.00" fill="#000000">s100</text>
<text text-anchor="middle" x="423.8206" y="-133.8156" font-family="Times,serif" font-size="14.00" fill="#000000">→ SEQ</text>
</g>
<!-- s99&#45;&gt;s100 -->
<g id="edge10" class="edge">
<title>s99:p0&#45;&gt;s100</title>
<path fill="none" stroke="#000000" d="M358.5997,-119.4156C367.7708,-119.4156 377.1535,-121.7229 385.8403,-124.9886"/>
<polygon fill="#000000" stroke="#000000" points="384.7316,-128.3203 395.3039,-129.0109 387.4697,-121.8781 384.7316,-128.3203"/>
</g>
<!-- s108 -->
<g id="node12" class="node">
<title>s108</title>
<ellipse fill="none" stroke="#000000" cx="515.4441" cy="-95.4156" rx="45.3054" ry="29.3315"/>
<text text-anchor="middle" x="515.4441" y="-99.6156" font-family="Times,serif" font-size="14.00" fill="#000000">s108 </text>
<text text-anchor="middle" x="515.4441" y="-82.8156" font-family="Times,serif" font-size="14.00" fill="#000000">BLANK</text>
</g>
<!-- s99&#45;&gt;s108 -->
<g id="edge11" class="edge">
<title>s99:p1&#45;&gt;s108</title>
<path fill="none" stroke="#000000" d="M358.5997,-95.4156C392.0919,-95.4156 429.6072,-95.4156 459.5481,-95.4156"/>
<polygon fill="#000000" stroke="#000000" points="459.8038,-98.9157 469.8037,-95.4156 459.8037,-91.9157 459.8038,-98.9157"/>
</g>
<!-- s101 -->
<g id="node5" class="node">
<title>s101</title>
<polygon fill="none" stroke="#000000" points="578.8467,-128.6156 578.8467,-170.2156 650.0557,-170.2156 650.0557,-128.6156 578.8467,-128.6156"/>
<text text-anchor="middle" x="614.4512" y="-153.6156" font-family="Times,serif" font-size="14.00" fill="#000000">s101</text>
<text text-anchor="middle" x="614.4512" y="-136.8156" font-family="Times,serif" font-size="14.00" fill="#000000">→ ALIAS</text>
</g>
<!-- s100&#45;&gt;s101 -->
<g id="edge3" class="edge">
<title>s100&#45;&gt;s101</title>
<path fill="none" stroke="#000000" d="M452.3599,-146.8648C482.9891,-147.3468 532.1062,-148.1198 568.2542,-148.6886"/>
<polygon fill="#000000" stroke="#000000" points="568.4957,-152.1928 578.5495,-148.8506 568.6059,-145.1936 568.4957,-152.1928"/>
</g>
<!-- s102 -->
<g id="node6" class="node">
<title>s102</title>
<g id="a_node6"><a xlink:href="javascript-grammar.json._import_export_specifier.dot.svg" xlink:title="s102 SYMBOL\n_import_export_specifier">
<ellipse fill="none" stroke="#000000" cx="798.9829" cy="-154.4156" rx="111.8545" ry="29.3315"/>
<text text-anchor="middle" x="798.9829" y="-158.6156" font-family="Times,serif" font-size="14.00" fill="#000000">s102 SYMBOL</text>
<text text-anchor="middle" x="798.9829" y="-141.8156" font-family="Times,serif" font-size="14.00" fill="#000000">_import_export_specifier</text>
</a>
</g>
</g>
<!-- s101&#45;&gt;s102 -->
<g id="edge2" class="edge">
<title>s101&#45;&gt;s102</title>
<path fill="none" stroke="#000000" d="M650.4688,-150.3916C658.6426,-150.613 667.7688,-150.8603 677.3681,-151.1204"/>
<polygon fill="#000000" stroke="#000000" points="677.4316,-154.6233 687.5228,-151.3956 677.6213,-147.6259 677.4316,-154.6233"/>
</g>
<!-- s103 -->
<g id="node7" class="node">
<title>s103</title>
<polygon fill="none" stroke="#000000" points="947.9101,-137.6156 947.9101,-179.2156 1030.7937,-179.2156 1030.7937,-137.6156 947.9101,-137.6156"/>
<text text-anchor="middle" x="989.3519" y="-162.6156" font-family="Times,serif" font-size="14.00" fill="#000000">s103</text>
<text text-anchor="middle" x="989.3519" y="-145.8156" font-family="Times,serif" font-size="14.00" fill="#000000">→ REPEAT</text>
</g>
<!-- s102&#45;&gt;s103 -->
<g id="edge9" class="edge">
<title>s102&#45;&gt;s103</title>
<path fill="none" stroke="#000000" d="M910.8225,-156.7656C920.1438,-156.9615 929.2451,-157.1527 937.7538,-157.3315"/>
<polygon fill="#000000" stroke="#000000" points="937.7422,-160.8319 947.8136,-157.5428 937.8893,-153.8334 937.7422,-160.8319"/>
</g>
<!-- s104 -->
<g id="node8" class="node">
<title>s104</title>
<polygon fill="none" stroke="#000000" points="1090.3726,-161.6156 1090.3726,-203.2156 1146.8144,-203.2156 1146.8144,-161.6156 1090.3726,-161.6156"/>
<text text-anchor="middle" x="1118.5935" y="-186.6156" font-family="Times,serif" font-size="14.00" fill="#000000">s104</text>
<text text-anchor="middle" x="1118.5935" y="-169.8156" font-family="Times,serif" font-size="14.00" fill="#000000">→ SEQ</text>
</g>
<!-- s103&#45;&gt;s104 -->
<g id="edge7" class="edge">
<title>s103&#45;&gt;s104</title>
<path fill="none" stroke="#000000" d="M1030.9562,-166.1415C1046.6646,-169.0585 1064.4604,-172.3632 1079.8922,-175.2289"/>
<polygon fill="#000000" stroke="#000000" points="1079.6725,-178.7478 1090.1435,-177.1325 1080.9506,-171.8655 1079.6725,-178.7478"/>
</g>
<!-- s109 -->
<g id="node13" class="node">
<title>s109</title>
<polygon fill="none" stroke="#000000" points="1067.7937,-69.6156 1067.7937,-119.2156 1169.3933,-119.2156 1169.3933,-69.6156 1067.7937,-69.6156"/>
<text text-anchor="middle" x="1108.8435" y="-98.6156" font-family="Times,serif" font-size="14.00" fill="#000000">s109</text>
<text text-anchor="middle" x="1108.8435" y="-81.8156" font-family="Times,serif" font-size="14.00" fill="#000000">→ CHOICE</text>
<polyline fill="none" stroke="#000000" points="1149.8933,-69.6156 1149.8933,-119.2156 "/>
<text text-anchor="middle" x="1159.6433" y="-102.6156" font-family="Times,serif" font-size="14.00" fill="#000000"> </text>
<polyline fill="none" stroke="#000000" points="1149.8933,-94.4156 1169.3933,-94.4156 "/>
<text text-anchor="middle" x="1159.6433" y="-77.8156" font-family="Times,serif" font-size="14.00" fill="#000000"> </text>
</g>
<!-- s103&#45;&gt;s109 -->
<g id="edge15" class="edge">
<title>s103&#45;&gt;s109</title>
<path fill="none" stroke="#000000" d="M1030.9562,-137.8134C1040.0153,-133.3273 1049.7686,-128.4975 1059.3624,-123.7467"/>
<polygon fill="#000000" stroke="#000000" points="1061.0755,-126.8041 1068.4838,-119.2298 1057.9691,-120.5311 1061.0755,-126.8041"/>
</g>
<!-- s105 -->
<g id="node9" class="node">
<title>s105</title>
<ellipse fill="none" stroke="#000000" cx="1277.1222" cy="-183.4156" rx="68.4585" ry="29.3315"/>
<text text-anchor="middle" x="1277.1222" y="-187.6156" font-family="Times,serif" font-size="14.00" fill="#000000">s105 STRING</text>
<text text-anchor="middle" x="1277.1222" y="-170.8156" font-family="Times,serif" font-size="14.00" fill="#000000">&quot;,&quot;</text>
</g>
<!-- s104&#45;&gt;s105 -->
<g id="edge4" class="edge">
<title>s104&#45;&gt;s105</title>
<path fill="none" stroke="#000000" d="M1146.9353,-182.5944C1161.5132,-182.6864 1180.0763,-182.8035 1198.5864,-182.9202"/>
<polygon fill="#000000" stroke="#000000" points="1198.8168,-186.4217 1208.8387,-182.9849 1198.861,-179.4218 1198.8168,-186.4217"/>
</g>
<!-- s106 -->
<g id="node10" class="node">
<title>s106</title>
<polygon fill="none" stroke="#000000" points="1414.9755,-204.6156 1414.9755,-246.2156 1486.1845,-246.2156 1486.1845,-204.6156 1414.9755,-204.6156"/>
<text text-anchor="middle" x="1450.58" y="-229.6156" font-family="Times,serif" font-size="14.00" fill="#000000">s106</text>
<text text-anchor="middle" x="1450.58" y="-212.8156" font-family="Times,serif" font-size="14.00" fill="#000000">→ ALIAS</text>
</g>
<!-- s105&#45;&gt;s106 -->
<g id="edge6" class="edge">
<title>s105&#45;&gt;s106</title>
<path fill="none" stroke="#000000" d="M1336.8165,-197.8697C1359.1341,-203.2735 1384.1054,-209.3199 1404.9543,-214.3681"/>
<polygon fill="#000000" stroke="#000000" points="1404.2855,-217.8073 1414.8284,-216.759 1405.9329,-211.0039 1404.2855,-217.8073"/>
</g>
<!-- s106&#45;&gt;s103 -->
<g id="edge8" class="edge">
<title>s106&#45;&gt;s103</title>
<path fill="none" stroke="#000000" d="M1414.7457,-231.0331C1345.4521,-240.4334 1189.2222,-254.4563 1067.7937,-212.4156 1050.8447,-206.5476 1034.1741,-195.9557 1020.5897,-185.6973"/>
<polygon fill="#000000" stroke="#000000" points="1022.5845,-182.8139 1012.5553,-179.3983 1018.2656,-188.3227 1022.5845,-182.8139"/>
</g>
<!-- s107 -->
<g id="node11" class="node">
<title>s107</title>
<g id="a_node11"><a xlink:href="javascript-grammar.json._import_export_specifier.dot.svg" xlink:title="s107 SYMBOL\n_import_export_specifier">
<ellipse fill="none" stroke="#000000" cx="1667.7361" cy="-225.4156" rx="111.8545" ry="29.3315"/>
<text text-anchor="middle" x="1667.7361" y="-229.6156" font-family="Times,serif" font-size="14.00" fill="#000000">s107 SYMBOL</text>
<text text-anchor="middle" x="1667.7361" y="-212.8156" font-family="Times,serif" font-size="14.00" fill="#000000">_import_export_specifier</text>
</a>
</g>
</g>
<!-- s106&#45;&gt;s107 -->
<g id="edge5" class="edge">
<title>s106&#45;&gt;s107</title>
<path fill="none" stroke="#000000" d="M1486.4389,-225.4156C1502.9742,-225.4156 1523.6738,-225.4156 1545.1165,-225.4156"/>
<polygon fill="#000000" stroke="#000000" points="1545.3465,-228.9157 1555.3465,-225.4156 1545.3465,-221.9157 1545.3465,-228.9157"/>
</g>
<!-- s108&#45;&gt;s109 -->
<g id="edge16" class="edge">
<title>s108&#45;&gt;s109</title>
<path fill="none" stroke="#000000" d="M561.0019,-95.4156C591.4516,-95.4156 632.4043,-95.4156 668.5557,-95.4156 668.5557,-95.4156 668.5557,-95.4156 989.3519,-95.4156 1011.6282,-95.4156 1036.0637,-95.2653 1057.6334,-95.0811"/>
<polygon fill="#000000" stroke="#000000" points="1057.6777,-98.581 1067.6459,-94.9916 1057.615,-91.5812 1057.6777,-98.581"/>
</g>
<!-- s110 -->
<g id="node14" class="node">
<title>s110</title>
<ellipse fill="none" stroke="#000000" cx="1277.1222" cy="-106.4156" rx="68.4585" ry="29.3315"/>
<text text-anchor="middle" x="1277.1222" y="-110.6156" font-family="Times,serif" font-size="14.00" fill="#000000">s110 STRING</text>
<text text-anchor="middle" x="1277.1222" y="-93.8156" font-family="Times,serif" font-size="14.00" fill="#000000">&quot;,&quot;</text>
</g>
<!-- s109&#45;&gt;s110 -->
<g id="edge13" class="edge">
<title>s109:p0&#45;&gt;s110</title>
<path fill="none" stroke="#000000" d="M1169.3933,-106.4156C1178.8325,-106.4156 1188.7368,-106.4156 1198.5561,-106.4156"/>
<polygon fill="#000000" stroke="#000000" points="1198.735,-109.9157 1208.735,-106.4156 1198.7349,-102.9157 1198.735,-109.9157"/>
<text text-anchor="middle" x="1189.1433" y="-110.6156" font-family="Times,serif" font-size="14.00" fill="#000000">,</text>
</g>
<!-- s111 -->
<g id="node15" class="node">
<title>s111</title>
<ellipse fill="none" stroke="#000000" cx="1277.1222" cy="-29.4156" rx="45.3054" ry="29.3315"/>
<text text-anchor="middle" x="1277.1222" y="-33.6156" font-family="Times,serif" font-size="14.00" fill="#000000">s111 </text>
<text text-anchor="middle" x="1277.1222" y="-16.8156" font-family="Times,serif" font-size="14.00" fill="#000000">BLANK</text>
</g>
<!-- s109&#45;&gt;s111 -->
<g id="edge14" class="edge">
<title>s109:p1&#45;&gt;s111</title>
<path fill="none" stroke="#000000" d="M1159.5935,-69.4156C1159.5935,-40.8528 1191.0872,-31.1427 1221.4689,-28.4208"/>
<polygon fill="#000000" stroke="#000000" points="1221.9341,-31.8978 1231.6826,-27.7485 1221.4742,-24.913 1221.9341,-31.8978"/>
</g>
<!-- s112 -->
<g id="node16" class="node">
<title>s112</title>
<ellipse fill="none" stroke="#000000" cx="1450.58" cy="-68.4156" rx="68.4585" ry="29.3315"/>
<text text-anchor="middle" x="1450.58" y="-72.6156" font-family="Times,serif" font-size="14.00" fill="#000000">s112 STRING</text>
<text text-anchor="middle" x="1450.58" y="-55.8156" font-family="Times,serif" font-size="14.00" fill="#000000">&quot;}&quot;</text>
</g>
<!-- s110&#45;&gt;s112 -->
<g id="edge17" class="edge">
<title>s110&#45;&gt;s112</title>
<path fill="none" stroke="#000000" d="M1338.2769,-93.0183C1351.6983,-90.078 1366.0171,-86.9411 1379.7815,-83.9257"/>
<polygon fill="#000000" stroke="#000000" points="1380.666,-87.315 1389.6853,-81.756 1379.168,-80.4772 1380.666,-87.315"/>
</g>
<!-- s111&#45;&gt;s112 -->
<g id="edge18" class="edge">
<title>s111&#45;&gt;s112</title>
<path fill="none" stroke="#000000" d="M1320.4455,-39.1564C1338.4685,-43.2087 1359.861,-48.0185 1380.041,-52.5558"/>
<polygon fill="#000000" stroke="#000000" points="1379.3058,-55.9778 1389.8301,-54.7567 1380.8414,-49.1483 1379.3058,-55.9778"/>
</g>
</g>
</svg>
