<?xml version="1.0" encoding="UTF-8" standalone="no"?>
<!DOCTYPE svg PUBLIC "-//W3C//DTD SVG 1.1//EN"
 "http://www.w3.org/Graphics/SVG/1.1/DTD/svg11.dtd">
<!-- Generated by graphviz version 2.40.1 (20161225.0304)
 -->
<!-- Title: _jsx_identifier Pages: 1 -->
<svg width="529pt" height="136pt"
 viewBox="0.00 0.00 528.84 135.83" xmlns="http://www.w3.org/2000/svg" xmlns:xlink="http://www.w3.org/1999/xlink">
<g id="graph0" class="graph" transform="scale(1 1) rotate(0) translate(4 131.8313)">
<title>_jsx_identifier</title>
<polygon fill="#ffffff" stroke="transparent" points="-4,4 -4,-131.8313 524.8444,-131.8313 524.8444,4 -4,4"/>
<!-- s424 -->
<g id="node1" class="node">
<title>s424</title>
<polygon fill="none" stroke="#000000" points="0,-24.6156 0,-74.2156 101.5996,-74.2156 101.5996,-24.6156 0,-24.6156"/>
<text text-anchor="middle" x="41.0498" y="-53.6156" font-family="Times,serif" font-size="14.00" fill="#000000">s424</text>
<text text-anchor="middle" x="41.0498" y="-36.8156" font-family="Times,serif" font-size="14.00" fill="#000000">→ CHOICE</text>
<polyline fill="none" stroke="#000000" points="82.0996,-24.6156 82.0996,-74.2156 "/>
<text text-anchor="middle" x="91.8496" y="-57.6156" font-family="Times,serif" font-size="14.00" fill="#000000"> </text>
<polyline fill="none" stroke="#000000" points="82.0996,-49.4156 101.5996,-49.4156 "/>
<text text-anchor="middle" x="91.8496" y="-32.8156" font-family="Times,serif" font-size="14.00" fill="#000000"> </text>
</g>
<!-- s425 -->
<g id="node2" class="node">
<title>s425</title>
<polygon fill="none" stroke="#000000" points="227.0409,-77.6156 227.0409,-119.2156 298.2499,-119.2156 298.2499,-77.6156 227.0409,-77.6156"/>
<text text-anchor="middle" x="262.6454" y="-102.6156" font-family="Times,serif" font-size="14.00" fill="#000000">s425</text>
<text text-anchor="middle" x="262.6454" y="-85.8156" font-family="Times,serif" font-size="14.00" fill="#000000">→ ALIAS</text>
</g>
<!-- s424&#45;&gt;s425 -->
<g id="edge2" class="edge">
<title>s424:p0&#45;&gt;s425</title>
<path fill="none" stroke="#000000" d="M101.5996,-61.4156C141.2055,-61.4156 184.931,-72.1765 216.8139,-82.0918"/>
<polygon fill="#000000" stroke="#000000" points="216.1381,-85.5504 226.7291,-85.2666 218.2728,-78.8838 216.1381,-85.5504"/>
<text text-anchor="middle" x="145.256" y="-73.6156" font-family="Times,serif" font-size="14.00" fill="#000000">identifier</text>
</g>
<!-- s427 -->
<g id="node4" class="node">
<title>s427</title>
<g id="a_node4"><a xlink:href="javascript-grammar.json.identifier.dot.svg" xlink:title="s427 SYMBOL\nidentifier">
<ellipse fill="none" stroke="#000000" cx="262.6454" cy="-29.4156" rx="73.9667" ry="29.3315"/>
<text text-anchor="middle" x="262.6454" y="-33.6156" font-family="Times,serif" font-size="14.00" fill="#000000">s427 SYMBOL</text>
<text text-anchor="middle" x="262.6454" y="-16.8156" font-family="Times,serif" font-size="14.00" fill="#000000">identifier</text>
</a>
</g>
</g>
<!-- s424&#45;&gt;s427 -->
<g id="edge3" class="edge">
<title>s424:p1&#45;&gt;s427</title>
<path fill="none" stroke="#000000" d="M101.5996,-37.4156C126.9417,-37.4156 154.4993,-36.4153 179.5365,-35.122"/>
<polygon fill="#000000" stroke="#000000" points="179.9322,-38.6058 189.7293,-34.5726 179.5554,-31.616 179.9322,-38.6058"/>
<text text-anchor="middle" x="145.256" y="-41.6156" font-family="Times,serif" font-size="14.00" fill="#000000">identifier</text>
</g>
<!-- s426 -->
<g id="node3" class="node">
<title>s426</title>
<g id="a_node3"><a xlink:href="javascript-grammar.json.jsx_identifier.dot.svg" xlink:title="s426 SYMBOL\njsx_identifier">
<ellipse fill="none" stroke="#000000" cx="447.1114" cy="-98.4156" rx="73.9667" ry="29.3315"/>
<text text-anchor="middle" x="447.1114" y="-102.6156" font-family="Times,serif" font-size="14.00" fill="#000000">s426 SYMBOL</text>
<text text-anchor="middle" x="447.1114" y="-85.8156" font-family="Times,serif" font-size="14.00" fill="#000000">jsx_identifier</text>
</a>
</g>
</g>
<!-- s425&#45;&gt;s426 -->
<g id="edge1" class="edge">
<title>s425&#45;&gt;s426</title>
<path fill="none" stroke="#000000" d="M298.6502,-98.4156C317.0169,-98.4156 340.194,-98.4156 362.74,-98.4156"/>
<polygon fill="#000000" stroke="#000000" points="363.035,-101.9157 373.035,-98.4156 363.0349,-94.9157 363.035,-101.9157"/>
</g>
</g>
</svg>
