<?xml version="1.0" encoding="UTF-8" standalone="no"?>
<!DOCTYPE svg PUBLIC "-//W3C//DTD SVG 1.1//EN"
 "http://www.w3.org/Graphics/SVG/1.1/DTD/svg11.dtd">
<!-- Generated by graphviz version 2.40.1 (20161225.0304)
 -->
<!-- Title: call_expression Pages: 1 -->
<svg width="965pt" height="221pt"
 viewBox="0.00 0.00 964.54 220.83" xmlns="http://www.w3.org/2000/svg" xmlns:xlink="http://www.w3.org/1999/xlink">
<g id="graph0" class="graph" transform="scale(1 1) rotate(0) translate(4 216.8313)">
<title>call_expression</title>
<polygon fill="#ffffff" stroke="transparent" points="-4,4 -4,-216.8313 960.5436,-216.8313 960.5436,4 -4,4"/>
<!-- s525 -->
<g id="node1" class="node">
<title>s525</title>
<polygon fill="none" stroke="#000000" points="0,-85.6156 0,-127.2156 65.0084,-127.2156 65.0084,-85.6156 0,-85.6156"/>
<text text-anchor="middle" x="32.5042" y="-110.6156" font-family="Times,serif" font-size="14.00" fill="#000000">s525</text>
<text text-anchor="middle" x="32.5042" y="-93.8156" font-family="Times,serif" font-size="14.00" fill="#000000">→ PREC</text>
</g>
<!-- s526 -->
<g id="node2" class="node">
<title>s526</title>
<polygon fill="none" stroke="#000000" points="102.0084,-85.6156 102.0084,-127.2156 158.4502,-127.2156 158.4502,-85.6156 102.0084,-85.6156"/>
<text text-anchor="middle" x="130.2293" y="-110.6156" font-family="Times,serif" font-size="14.00" fill="#000000">s526</text>
<text text-anchor="middle" x="130.2293" y="-93.8156" font-family="Times,serif" font-size="14.00" fill="#000000">→ SEQ</text>
</g>
<!-- s525&#45;&gt;s526 -->
<g id="edge10" class="edge">
<title>s525&#45;&gt;s526</title>
<path fill="none" stroke="#000000" d="M65.0452,-106.4156C73.5855,-106.4156 82.8774,-106.4156 91.6984,-106.4156"/>
<polygon fill="#000000" stroke="#000000" points="91.7642,-109.9157 101.7641,-106.4156 91.7641,-102.9157 91.7642,-109.9157"/>
</g>
<!-- s527 -->
<g id="node3" class="node">
<title>s527</title>
<polygon fill="none" stroke="#000000" points="195.4502,-69.2156 195.4502,-143.6156 297.0498,-143.6156 297.0498,-69.2156 195.4502,-69.2156"/>
<text text-anchor="middle" x="236.5" y="-110.6156" font-family="Times,serif" font-size="14.00" fill="#000000">s527</text>
<text text-anchor="middle" x="236.5" y="-93.8156" font-family="Times,serif" font-size="14.00" fill="#000000">→ CHOICE</text>
<polyline fill="none" stroke="#000000" points="277.5498,-69.2156 277.5498,-143.6156 "/>
<text text-anchor="middle" x="287.2998" y="-127.0156" font-family="Times,serif" font-size="14.00" fill="#000000"> </text>
<polyline fill="none" stroke="#000000" points="277.5498,-118.8156 297.0498,-118.8156 "/>
<text text-anchor="middle" x="287.2998" y="-102.2156" font-family="Times,serif" font-size="14.00" fill="#000000"> </text>
<polyline fill="none" stroke="#000000" points="277.5498,-94.0156 297.0498,-94.0156 "/>
<text text-anchor="middle" x="287.2998" y="-77.4156" font-family="Times,serif" font-size="14.00" fill="#000000"> </text>
</g>
<!-- s526&#45;&gt;s527 -->
<g id="edge4" class="edge">
<title>s526&#45;&gt;s527</title>
<path fill="none" stroke="#000000" d="M158.6112,-106.4156C166.6908,-106.4156 175.8186,-106.4156 185.0543,-106.4156"/>
<polygon fill="#000000" stroke="#000000" points="185.0741,-109.9157 195.0741,-106.4156 185.074,-102.9157 185.0741,-109.9157"/>
</g>
<!-- s528 -->
<g id="node4" class="node">
<title>s528</title>
<g id="a_node4"><a xlink:href="javascript-grammar.json._expression.dot.svg" xlink:title="s528 SYMBOL\n_expression">
<ellipse fill="none" stroke="#000000" cx="473.6524" cy="-183.4156" rx="73.9667" ry="29.3315"/>
<text text-anchor="middle" x="473.6524" y="-187.6156" font-family="Times,serif" font-size="14.00" fill="#000000">s528 SYMBOL</text>
<text text-anchor="middle" x="473.6524" y="-170.8156" font-family="Times,serif" font-size="14.00" fill="#000000">_expression</text>
</a>
</g>
</g>
<!-- s527&#45;&gt;s528 -->
<g id="edge1" class="edge">
<title>s527:p0&#45;&gt;s528</title>
<path fill="none" stroke="#000000" d="M297.0498,-131.4156C337.7759,-131.4156 381.7126,-144.2985 415.574,-157.2395"/>
<polygon fill="#000000" stroke="#000000" points="414.7071,-160.6594 425.2943,-161.0612 417.2685,-154.1448 414.7071,-160.6594"/>
<text text-anchor="middle" x="348.4846" y="-148.6156" font-family="Times,serif" font-size="14.00" fill="#000000">_expression</text>
</g>
<!-- s529 -->
<g id="node5" class="node">
<title>s529</title>
<g id="a_node5"><a xlink:href="javascript-grammar.json.super.dot.svg" xlink:title="s529 SYMBOL\nsuper">
<ellipse fill="none" stroke="#000000" cx="473.6524" cy="-106.4156" rx="73.9667" ry="29.3315"/>
<text text-anchor="middle" x="473.6524" y="-110.6156" font-family="Times,serif" font-size="14.00" fill="#000000">s529 SYMBOL</text>
<text text-anchor="middle" x="473.6524" y="-93.8156" font-family="Times,serif" font-size="14.00" fill="#000000">super</text>
</a>
</g>
</g>
<!-- s527&#45;&gt;s529 -->
<g id="edge2" class="edge">
<title>s527:p1&#45;&gt;s529</title>
<path fill="none" stroke="#000000" d="M297.0498,-106.4156C327.2189,-106.4156 360.2871,-106.4156 389.5685,-106.4156"/>
<polygon fill="#000000" stroke="#000000" points="389.7568,-109.9157 399.7568,-106.4156 389.7568,-102.9157 389.7568,-109.9157"/>
<text text-anchor="middle" x="348.4846" y="-110.6156" font-family="Times,serif" font-size="14.00" fill="#000000">super</text>
</g>
<!-- s530 -->
<g id="node6" class="node">
<title>s530</title>
<g id="a_node6"><a xlink:href="javascript-grammar.json.function.dot.svg" xlink:title="s530 SYMBOL\nfunction">
<ellipse fill="none" stroke="#000000" cx="473.6524" cy="-29.4156" rx="73.9667" ry="29.3315"/>
<text text-anchor="middle" x="473.6524" y="-33.6156" font-family="Times,serif" font-size="14.00" fill="#000000">s530 SYMBOL</text>
<text text-anchor="middle" x="473.6524" y="-16.8156" font-family="Times,serif" font-size="14.00" fill="#000000">function</text>
</a>
</g>
</g>
<!-- s527&#45;&gt;s530 -->
<g id="edge3" class="edge">
<title>s527:p2&#45;&gt;s530</title>
<path fill="none" stroke="#000000" d="M297.0498,-81.4156C337.7759,-81.4156 381.7126,-68.5328 415.574,-55.5918"/>
<polygon fill="#000000" stroke="#000000" points="417.2685,-58.6865 425.2943,-51.7701 414.7071,-52.1719 417.2685,-58.6865"/>
<text text-anchor="middle" x="348.4846" y="-84.6156" font-family="Times,serif" font-size="14.00" fill="#000000">function</text>
</g>
<!-- s531 -->
<g id="node7" class="node">
<title>s531</title>
<polygon fill="none" stroke="#000000" points="584.3854,-81.6156 584.3854,-131.2156 685.985,-131.2156 685.985,-81.6156 584.3854,-81.6156"/>
<text text-anchor="middle" x="625.4352" y="-110.6156" font-family="Times,serif" font-size="14.00" fill="#000000">s531</text>
<text text-anchor="middle" x="625.4352" y="-93.8156" font-family="Times,serif" font-size="14.00" fill="#000000">→ CHOICE</text>
<polyline fill="none" stroke="#000000" points="666.485,-81.6156 666.485,-131.2156 "/>
<text text-anchor="middle" x="676.235" y="-114.6156" font-family="Times,serif" font-size="14.00" fill="#000000"> </text>
<polyline fill="none" stroke="#000000" points="666.485,-106.4156 685.985,-106.4156 "/>
<text text-anchor="middle" x="676.235" y="-89.8156" font-family="Times,serif" font-size="14.00" fill="#000000"> </text>
</g>
<!-- s528&#45;&gt;s531 -->
<g id="edge7" class="edge">
<title>s528&#45;&gt;s531</title>
<path fill="none" stroke="#000000" d="M521.2439,-160.7296C538.1239,-152.6832 557.3439,-143.5213 575.1274,-135.0442"/>
<polygon fill="#000000" stroke="#000000" points="576.7553,-138.1456 584.2761,-130.6831 573.7432,-131.8267 576.7553,-138.1456"/>
</g>
<!-- s529&#45;&gt;s531 -->
<g id="edge8" class="edge">
<title>s529&#45;&gt;s531</title>
<path fill="none" stroke="#000000" d="M547.8,-106.4156C556.5267,-106.4156 565.357,-106.4156 573.88,-106.4156"/>
<polygon fill="#000000" stroke="#000000" points="574.096,-109.9157 584.096,-106.4156 574.096,-102.9157 574.096,-109.9157"/>
</g>
<!-- s530&#45;&gt;s531 -->
<g id="edge9" class="edge">
<title>s530&#45;&gt;s531</title>
<path fill="none" stroke="#000000" d="M521.2439,-52.1017C538.1239,-60.1481 557.3439,-69.31 575.1274,-77.7871"/>
<polygon fill="#000000" stroke="#000000" points="573.7432,-81.0045 584.2761,-82.1481 576.7553,-74.6857 573.7432,-81.0045"/>
</g>
<!-- s532 -->
<g id="node8" class="node">
<title>s532</title>
<g id="a_node8"><a xlink:href="javascript-grammar.json.arguments.dot.svg" xlink:title="s532 SYMBOL\narguments">
<ellipse fill="none" stroke="#000000" cx="882.8106" cy="-145.4156" rx="73.9667" ry="29.3315"/>
<text text-anchor="middle" x="882.8106" y="-149.6156" font-family="Times,serif" font-size="14.00" fill="#000000">s532 SYMBOL</text>
<text text-anchor="middle" x="882.8106" y="-132.8156" font-family="Times,serif" font-size="14.00" fill="#000000">arguments</text>
</a>
</g>
</g>
<!-- s531&#45;&gt;s532 -->
<g id="edge5" class="edge">
<title>s531:p0&#45;&gt;s532</title>
<path fill="none" stroke="#000000" d="M685.985,-118.4156C726.182,-118.4156 770.5718,-124.0114 807.0062,-130.1079"/>
<polygon fill="#000000" stroke="#000000" points="806.613,-133.5916 817.0615,-131.8365 807.799,-126.6928 806.613,-133.5916"/>
<text text-anchor="middle" x="747.5313" y="-130.6156" font-family="Times,serif" font-size="14.00" fill="#000000">arguments</text>
</g>
<!-- s533 -->
<g id="node9" class="node">
<title>s533</title>
<g id="a_node9"><a xlink:href="javascript-grammar.json.template_string.dot.svg" xlink:title="s533 SYMBOL\ntemplate_string">
<ellipse fill="none" stroke="#000000" cx="882.8106" cy="-68.4156" rx="73.9667" ry="29.3315"/>
<text text-anchor="middle" x="882.8106" y="-72.6156" font-family="Times,serif" font-size="14.00" fill="#000000">s533 SYMBOL</text>
<text text-anchor="middle" x="882.8106" y="-55.8156" font-family="Times,serif" font-size="14.00" fill="#000000">template_string</text>
</a>
</g>
</g>
<!-- s531&#45;&gt;s533 -->
<g id="edge6" class="edge">
<title>s531:p1&#45;&gt;s533</title>
<path fill="none" stroke="#000000" d="M685.985,-94.4156C725.9974,-94.4156 770.1943,-89.0694 806.5531,-83.2254"/>
<polygon fill="#000000" stroke="#000000" points="807.2941,-86.6505 816.5902,-81.568 806.1536,-79.7441 807.2941,-86.6505"/>
<text text-anchor="middle" x="747.5313" y="-97.6156" font-family="Times,serif" font-size="14.00" fill="#000000">template_string</text>
</g>
</g>
</svg>
