<?xml version="1.0" encoding="UTF-8" standalone="no"?>
<!DOCTYPE svg PUBLIC "-//W3C//DTD SVG 1.1//EN"
 "http://www.w3.org/Graphics/SVG/1.1/DTD/svg11.dtd">
<!-- Generated by graphviz version 2.40.1 (20161225.0304)
 -->
<!-- Title: _jsx_attribute Pages: 1 -->
<svg width="376pt" height="144pt"
 viewBox="0.00 0.00 376.27 143.83" xmlns="http://www.w3.org/2000/svg" xmlns:xlink="http://www.w3.org/1999/xlink">
<g id="graph0" class="graph" transform="scale(1 1) rotate(0) translate(4 139.8313)">
<title>_jsx_attribute</title>
<polygon fill="#ffffff" stroke="transparent" points="-4,4 -4,-139.8313 372.2704,-139.8313 372.2704,4 -4,4"/>
<!-- s455 -->
<g id="node1" class="node">
<title>s455</title>
<polygon fill="none" stroke="#000000" points="0,-42.6156 0,-92.2156 101.5996,-92.2156 101.5996,-42.6156 0,-42.6156"/>
<text text-anchor="middle" x="41.0498" y="-71.6156" font-family="Times,serif" font-size="14.00" fill="#000000">s455</text>
<text text-anchor="middle" x="41.0498" y="-54.8156" font-family="Times,serif" font-size="14.00" fill="#000000">→ CHOICE</text>
<polyline fill="none" stroke="#000000" points="82.0996,-42.6156 82.0996,-92.2156 "/>
<text text-anchor="middle" x="91.8496" y="-75.6156" font-family="Times,serif" font-size="14.00" fill="#000000"> </text>
<polyline fill="none" stroke="#000000" points="82.0996,-67.4156 101.5996,-67.4156 "/>
<text text-anchor="middle" x="91.8496" y="-50.8156" font-family="Times,serif" font-size="14.00" fill="#000000"> </text>
</g>
<!-- s456 -->
<g id="node2" class="node">
<title>s456</title>
<g id="a_node2"><a xlink:href="javascript-grammar.json.jsx_attribute.dot.svg" xlink:title="s456 SYMBOL\njsx_attribute">
<ellipse fill="none" stroke="#000000" cx="294.5374" cy="-106.4156" rx="73.9667" ry="29.3315"/>
<text text-anchor="middle" x="294.5374" y="-110.6156" font-family="Times,serif" font-size="14.00" fill="#000000">s456 SYMBOL</text>
<text text-anchor="middle" x="294.5374" y="-93.8156" font-family="Times,serif" font-size="14.00" fill="#000000">jsx_attribute</text>
</a>
</g>
</g>
<!-- s455&#45;&gt;s456 -->
<g id="edge1" class="edge">
<title>s455:p0&#45;&gt;s456</title>
<path fill="none" stroke="#000000" d="M101.5996,-79.4156C140.5411,-79.4156 183.4808,-84.877 218.9456,-90.8872"/>
<polygon fill="#000000" stroke="#000000" points="218.7659,-94.4086 229.2185,-92.6783 219.9683,-87.5126 218.7659,-94.4086"/>
<text text-anchor="middle" x="161.202" y="-91.6156" font-family="Times,serif" font-size="14.00" fill="#000000">jsx_attribute</text>
</g>
<!-- s457 -->
<g id="node3" class="node">
<title>s457</title>
<g id="a_node3"><a xlink:href="javascript-grammar.json.jsx_expression.dot.svg" xlink:title="s457 SYMBOL\njsx_expression">
<ellipse fill="none" stroke="#000000" cx="294.5374" cy="-29.4156" rx="73.9667" ry="29.3315"/>
<text text-anchor="middle" x="294.5374" y="-33.6156" font-family="Times,serif" font-size="14.00" fill="#000000">s457 SYMBOL</text>
<text text-anchor="middle" x="294.5374" y="-16.8156" font-family="Times,serif" font-size="14.00" fill="#000000">jsx_expression</text>
</a>
</g>
</g>
<!-- s455&#45;&gt;s457 -->
<g id="edge2" class="edge">
<title>s455:p1&#45;&gt;s457</title>
<path fill="none" stroke="#000000" d="M101.5996,-55.4156C140.3601,-55.4156 183.1115,-50.1981 218.4999,-44.4376"/>
<polygon fill="#000000" stroke="#000000" points="219.4691,-47.8241 228.7536,-42.7203 218.3128,-40.9202 219.4691,-47.8241"/>
<text text-anchor="middle" x="161.202" y="-59.6156" font-family="Times,serif" font-size="14.00" fill="#000000">jsx_expression</text>
</g>
</g>
</svg>
