<?xml version="1.0" encoding="UTF-8" standalone="no"?>
<!DOCTYPE svg PUBLIC "-//W3C//DTD SVG 1.1//EN"
 "http://www.w3.org/Graphics/SVG/1.1/DTD/svg11.dtd">
<!-- Generated by graphviz version 2.40.1 (20161225.0304)
 -->
<!-- Title: finally_clause Pages: 1 -->
<svg width="425pt" height="67pt"
 viewBox="0.00 0.00 425.29 66.83" xmlns="http://www.w3.org/2000/svg" xmlns:xlink="http://www.w3.org/1999/xlink">
<g id="graph0" class="graph" transform="scale(1 1) rotate(0) translate(4 62.8313)">
<title>finally_clause</title>
<polygon fill="#ffffff" stroke="transparent" points="-4,4 -4,-62.8313 421.2895,-62.8313 421.2895,4 -4,4"/>
<!-- s305 -->
<g id="node1" class="node">
<title>s305</title>
<polygon fill="none" stroke="#000000" points="0,-8.6156 0,-50.2156 56.4418,-50.2156 56.4418,-8.6156 0,-8.6156"/>
<text text-anchor="middle" x="28.2209" y="-33.6156" font-family="Times,serif" font-size="14.00" fill="#000000">s305</text>
<text text-anchor="middle" x="28.2209" y="-16.8156" font-family="Times,serif" font-size="14.00" fill="#000000">→ SEQ</text>
</g>
<!-- s306 -->
<g id="node2" class="node">
<title>s306</title>
<ellipse fill="none" stroke="#000000" cx="160.6707" cy="-29.4156" rx="68.4585" ry="29.3315"/>
<text text-anchor="middle" x="160.6707" y="-33.6156" font-family="Times,serif" font-size="14.00" fill="#000000">s306 STRING</text>
<text text-anchor="middle" x="160.6707" y="-16.8156" font-family="Times,serif" font-size="14.00" fill="#000000">&quot;finally&quot;</text>
</g>
<!-- s305&#45;&gt;s306 -->
<g id="edge1" class="edge">
<title>s305&#45;&gt;s306</title>
<path fill="none" stroke="#000000" d="M56.6347,-29.4156C64.3113,-29.4156 73.0073,-29.4156 82.0218,-29.4156"/>
<polygon fill="#000000" stroke="#000000" points="82.2976,-32.9157 92.2975,-29.4156 82.2975,-25.9157 82.2976,-32.9157"/>
</g>
<!-- s307 -->
<g id="node3" class="node">
<title>s307</title>
<g id="a_node3"><a xlink:href="javascript-grammar.json.statement_block.dot.svg" xlink:title="s307 SYMBOL\nstatement_block">
<ellipse fill="none" stroke="#000000" cx="341.0945" cy="-29.4156" rx="76.3905" ry="29.3315"/>
<text text-anchor="middle" x="341.0945" y="-33.6156" font-family="Times,serif" font-size="14.00" fill="#000000">s307 SYMBOL</text>
<text text-anchor="middle" x="341.0945" y="-16.8156" font-family="Times,serif" font-size="14.00" fill="#000000">statement_block</text>
</a>
</g>
</g>
<!-- s306&#45;&gt;s307 -->
<g id="edge2" class="edge">
<title>s306&#45;&gt;s307</title>
<path fill="none" stroke="#000000" d="M229.1385,-29.4156C237.5217,-29.4156 246.1712,-29.4156 254.7735,-29.4156"/>
<polygon fill="#000000" stroke="#000000" points="254.8314,-32.9157 264.8314,-29.4156 254.8314,-25.9157 254.8314,-32.9157"/>
</g>
</g>
</svg>
