<?xml version="1.0" encoding="UTF-8" standalone="no"?>
<!DOCTYPE svg PUBLIC "-//W3C//DTD SVG 1.1//EN"
 "http://www.w3.org/Graphics/SVG/1.1/DTD/svg11.dtd">
<!-- Generated by graphviz version 2.40.1 (20161225.0304)
 -->
<!-- Title: catch_clause Pages: 1 -->
<svg width="1184pt" height="144pt"
 viewBox="0.00 0.00 1183.71 143.83" xmlns="http://www.w3.org/2000/svg" xmlns:xlink="http://www.w3.org/1999/xlink">
<g id="graph0" class="graph" transform="scale(1 1) rotate(0) translate(4 139.8313)">
<title>catch_clause</title>
<polygon fill="#ffffff" stroke="transparent" points="-4,4 -4,-139.8313 1179.7124,-139.8313 1179.7124,4 -4,4"/>
<!-- s296 -->
<g id="node1" class="node">
<title>s296</title>
<polygon fill="none" stroke="#000000" points="0,-46.6156 0,-88.2156 56.4418,-88.2156 56.4418,-46.6156 0,-46.6156"/>
<text text-anchor="middle" x="28.2209" y="-71.6156" font-family="Times,serif" font-size="14.00" fill="#000000">s296</text>
<text text-anchor="middle" x="28.2209" y="-54.8156" font-family="Times,serif" font-size="14.00" fill="#000000">→ SEQ</text>
</g>
<!-- s297 -->
<g id="node2" class="node">
<title>s297</title>
<ellipse fill="none" stroke="#000000" cx="160.6707" cy="-67.4156" rx="68.4585" ry="29.3315"/>
<text text-anchor="middle" x="160.6707" y="-71.6156" font-family="Times,serif" font-size="14.00" fill="#000000">s297 STRING</text>
<text text-anchor="middle" x="160.6707" y="-54.8156" font-family="Times,serif" font-size="14.00" fill="#000000">&quot;catch&quot;</text>
</g>
<!-- s296&#45;&gt;s297 -->
<g id="edge1" class="edge">
<title>s296&#45;&gt;s297</title>
<path fill="none" stroke="#000000" d="M56.6347,-67.4156C64.3113,-67.4156 73.0073,-67.4156 82.0218,-67.4156"/>
<polygon fill="#000000" stroke="#000000" points="82.2976,-70.9157 92.2975,-67.4156 82.2975,-63.9157 82.2976,-70.9157"/>
</g>
<!-- s298 -->
<g id="node3" class="node">
<title>s298</title>
<polygon fill="none" stroke="#000000" points="264.8995,-42.6156 264.8995,-92.2156 366.4991,-92.2156 366.4991,-42.6156 264.8995,-42.6156"/>
<text text-anchor="middle" x="305.9493" y="-71.6156" font-family="Times,serif" font-size="14.00" fill="#000000">s298</text>
<text text-anchor="middle" x="305.9493" y="-54.8156" font-family="Times,serif" font-size="14.00" fill="#000000">→ CHOICE</text>
<polyline fill="none" stroke="#000000" points="346.9991,-42.6156 346.9991,-92.2156 "/>
<text text-anchor="middle" x="356.7491" y="-75.6156" font-family="Times,serif" font-size="14.00" fill="#000000"> </text>
<polyline fill="none" stroke="#000000" points="346.9991,-67.4156 366.4991,-67.4156 "/>
<text text-anchor="middle" x="356.7491" y="-50.8156" font-family="Times,serif" font-size="14.00" fill="#000000"> </text>
</g>
<!-- s297&#45;&gt;s298 -->
<g id="edge7" class="edge">
<title>s297&#45;&gt;s298</title>
<path fill="none" stroke="#000000" d="M229.1198,-67.4156C237.6544,-67.4156 246.3377,-67.4156 254.7481,-67.4156"/>
<polygon fill="#000000" stroke="#000000" points="254.8433,-70.9157 264.8432,-67.4156 254.8432,-63.9157 254.8433,-70.9157"/>
</g>
<!-- s299 -->
<g id="node4" class="node">
<title>s299</title>
<polygon fill="none" stroke="#000000" points="402.4991,-78.6156 402.4991,-120.2156 458.9409,-120.2156 458.9409,-78.6156 402.4991,-78.6156"/>
<text text-anchor="middle" x="430.72" y="-103.6156" font-family="Times,serif" font-size="14.00" fill="#000000">s299</text>
<text text-anchor="middle" x="430.72" y="-86.8156" font-family="Times,serif" font-size="14.00" fill="#000000">→ SEQ</text>
</g>
<!-- s298&#45;&gt;s299 -->
<g id="edge5" class="edge">
<title>s298:p0&#45;&gt;s299</title>
<path fill="none" stroke="#000000" d="M366.4991,-79.4156C375.1442,-79.4156 384.1599,-81.0882 392.6089,-83.466"/>
<polygon fill="#000000" stroke="#000000" points="391.6202,-86.8242 402.2108,-86.5232 393.744,-80.1542 391.6202,-86.8242"/>
</g>
<!-- s303 -->
<g id="node8" class="node">
<title>s303</title>
<ellipse fill="none" stroke="#000000" cx="563.1698" cy="-29.4156" rx="45.3054" ry="29.3315"/>
<text text-anchor="middle" x="563.1698" y="-33.6156" font-family="Times,serif" font-size="14.00" fill="#000000">s303 </text>
<text text-anchor="middle" x="563.1698" y="-16.8156" font-family="Times,serif" font-size="14.00" fill="#000000">BLANK</text>
</g>
<!-- s298&#45;&gt;s303 -->
<g id="edge6" class="edge">
<title>s298:p1&#45;&gt;s303</title>
<path fill="none" stroke="#000000" d="M366.4991,-55.4156C415.2914,-55.4156 470.31,-47.4534 509.7215,-40.3413"/>
<polygon fill="#000000" stroke="#000000" points="510.4462,-43.7668 519.6445,-38.5092 509.1752,-36.8831 510.4462,-43.7668"/>
</g>
<!-- s300 -->
<g id="node5" class="node">
<title>s300</title>
<ellipse fill="none" stroke="#000000" cx="563.1698" cy="-106.4156" rx="68.4585" ry="29.3315"/>
<text text-anchor="middle" x="563.1698" y="-110.6156" font-family="Times,serif" font-size="14.00" fill="#000000">s300 STRING</text>
<text text-anchor="middle" x="563.1698" y="-93.8156" font-family="Times,serif" font-size="14.00" fill="#000000">&quot;(&quot;</text>
</g>
<!-- s299&#45;&gt;s300 -->
<g id="edge2" class="edge">
<title>s299&#45;&gt;s300</title>
<path fill="none" stroke="#000000" d="M459.1338,-100.9173C467.0046,-101.3333 475.947,-101.8059 485.2057,-102.2952"/>
<polygon fill="#000000" stroke="#000000" points="485.1698,-105.7981 495.3406,-102.8309 485.5393,-98.8079 485.1698,-105.7981"/>
</g>
<!-- s301 -->
<g id="node6" class="node">
<title>s301</title>
<g id="a_node6"><a xlink:href="javascript-grammar.json.identifier.dot.svg" xlink:title="s301 SYMBOL\nidentifier">
<ellipse fill="none" stroke="#000000" cx="741.1317" cy="-101.4156" rx="73.9667" ry="29.3315"/>
<text text-anchor="middle" x="741.1317" y="-105.6156" font-family="Times,serif" font-size="14.00" fill="#000000">s301 SYMBOL</text>
<text text-anchor="middle" x="741.1317" y="-88.8156" font-family="Times,serif" font-size="14.00" fill="#000000">identifier</text>
</a>
</g>
</g>
<!-- s300&#45;&gt;s301 -->
<g id="edge3" class="edge">
<title>s300&#45;&gt;s301</title>
<path fill="none" stroke="#000000" d="M631.4656,-104.4968C639.9198,-104.2593 648.6377,-104.0143 657.2907,-103.7712"/>
<polygon fill="#000000" stroke="#000000" points="657.5011,-107.2668 667.3989,-103.4872 657.3045,-100.2696 657.5011,-107.2668"/>
</g>
<!-- s302 -->
<g id="node7" class="node">
<title>s302</title>
<ellipse fill="none" stroke="#000000" cx="919.0936" cy="-96.4156" rx="68.4585" ry="29.3315"/>
<text text-anchor="middle" x="919.0936" y="-100.6156" font-family="Times,serif" font-size="14.00" fill="#000000">s302 STRING</text>
<text text-anchor="middle" x="919.0936" y="-83.8156" font-family="Times,serif" font-size="14.00" fill="#000000">&quot;)&quot;</text>
</g>
<!-- s301&#45;&gt;s302 -->
<g id="edge4" class="edge">
<title>s301&#45;&gt;s302</title>
<path fill="none" stroke="#000000" d="M814.8002,-99.3459C823.3912,-99.1045 832.1786,-98.8576 840.8289,-98.6146"/>
<polygon fill="#000000" stroke="#000000" points="841.0029,-102.1111 850.9006,-98.3316 840.8062,-95.1139 841.0029,-102.1111"/>
</g>
<!-- s304 -->
<g id="node9" class="node">
<title>s304</title>
<g id="a_node9"><a xlink:href="javascript-grammar.json.statement_block.dot.svg" xlink:title="s304 SYMBOL\nstatement_block">
<ellipse fill="none" stroke="#000000" cx="1099.5174" cy="-67.4156" rx="76.3905" ry="29.3315"/>
<text text-anchor="middle" x="1099.5174" y="-71.6156" font-family="Times,serif" font-size="14.00" fill="#000000">s304 SYMBOL</text>
<text text-anchor="middle" x="1099.5174" y="-54.8156" font-family="Times,serif" font-size="14.00" fill="#000000">statement_block</text>
</a>
</g>
</g>
<!-- s302&#45;&gt;s304 -->
<g id="edge8" class="edge">
<title>s302&#45;&gt;s304</title>
<path fill="none" stroke="#000000" d="M983.2123,-86.1097C994.8445,-84.24 1007.11,-82.2685 1019.1394,-80.335"/>
<polygon fill="#000000" stroke="#000000" points="1019.8517,-83.7655 1029.1695,-78.7228 1018.7408,-76.8542 1019.8517,-83.7655"/>
</g>
<!-- s303&#45;&gt;s304 -->
<g id="edge9" class="edge">
<title>s303&#45;&gt;s304</title>
<path fill="none" stroke="#000000" d="M608.3792,-32.3312C685.931,-37.3718 849.3099,-48.1624 987.3224,-58.4156 996.1952,-59.0748 1005.4608,-59.7842 1014.699,-60.5051"/>
<polygon fill="#000000" stroke="#000000" points="1014.4492,-63.9962 1024.6926,-61.29 1014.9974,-57.0177 1014.4492,-63.9962"/>
</g>
</g>
</svg>
