<?xml version="1.0" encoding="UTF-8" standalone="no"?>
<!DOCTYPE svg PUBLIC "-//W3C//DTD SVG 1.1//EN"
 "http://www.w3.org/Graphics/SVG/1.1/DTD/svg11.dtd">
<!-- Generated by graphviz version 2.40.1 (20161225.0304)
 -->
<!-- Title: jsx_element Pages: 1 -->
<svg width="816pt" height="67pt"
 viewBox="0.00 0.00 816.17 66.83" xmlns="http://www.w3.org/2000/svg" xmlns:xlink="http://www.w3.org/1999/xlink">
<g id="graph0" class="graph" transform="scale(1 1) rotate(0) translate(4 62.8313)">
<title>jsx_element</title>
<polygon fill="#ffffff" stroke="transparent" points="-4,4 -4,-62.8313 812.1703,-62.8313 812.1703,4 -4,4"/>
<!-- s395 -->
<g id="node1" class="node">
<title>s395</title>
<polygon fill="none" stroke="#000000" points="0,-8.6156 0,-50.2156 56.4418,-50.2156 56.4418,-8.6156 0,-8.6156"/>
<text text-anchor="middle" x="28.2209" y="-33.6156" font-family="Times,serif" font-size="14.00" fill="#000000">s395</text>
<text text-anchor="middle" x="28.2209" y="-16.8156" font-family="Times,serif" font-size="14.00" fill="#000000">→ SEQ</text>
</g>
<!-- s396 -->
<g id="node2" class="node">
<title>s396</title>
<g id="a_node2"><a xlink:href="javascript-grammar.json.jsx_opening_element.dot.svg" xlink:title="s396 SYMBOL\njsx_opening_element">
<ellipse fill="none" stroke="#000000" cx="188.4358" cy="-29.4156" rx="95.988" ry="29.3315"/>
<text text-anchor="middle" x="188.4358" y="-33.6156" font-family="Times,serif" font-size="14.00" fill="#000000">s396 SYMBOL</text>
<text text-anchor="middle" x="188.4358" y="-16.8156" font-family="Times,serif" font-size="14.00" fill="#000000">jsx_opening_element</text>
</a>
</g>
</g>
<!-- s395&#45;&gt;s396 -->
<g id="edge1" class="edge">
<title>s395&#45;&gt;s396</title>
<path fill="none" stroke="#000000" d="M56.4953,-29.4156C64.082,-29.4156 72.7557,-29.4156 81.9513,-29.4156"/>
<polygon fill="#000000" stroke="#000000" points="82.1077,-32.9157 92.1077,-29.4156 82.1077,-25.9157 82.1077,-32.9157"/>
</g>
<!-- s397 -->
<g id="node3" class="node">
<title>s397</title>
<polygon fill="none" stroke="#000000" points="320.4298,-8.6156 320.4298,-50.2156 403.3134,-50.2156 403.3134,-8.6156 320.4298,-8.6156"/>
<text text-anchor="middle" x="361.8716" y="-33.6156" font-family="Times,serif" font-size="14.00" fill="#000000">s397</text>
<text text-anchor="middle" x="361.8716" y="-16.8156" font-family="Times,serif" font-size="14.00" fill="#000000">→ REPEAT</text>
</g>
<!-- s396&#45;&gt;s397 -->
<g id="edge4" class="edge">
<title>s396&#45;&gt;s397</title>
<path fill="none" stroke="#000000" d="M284.5374,-29.4156C293.3299,-29.4156 301.9921,-29.4156 310.1569,-29.4156"/>
<polygon fill="#000000" stroke="#000000" points="310.2053,-32.9157 320.2053,-29.4156 310.2052,-25.9157 310.2053,-32.9157"/>
</g>
<!-- s398 -->
<g id="node4" class="node">
<title>s398</title>
<g id="a_node4"><a xlink:href="javascript-grammar.json._jsx_child.dot.svg" xlink:title="s398 SYMBOL\n_jsx_child">
<ellipse fill="none" stroke="#000000" cx="513.0464" cy="-29.4156" rx="73.9667" ry="29.3315"/>
<text text-anchor="middle" x="513.0464" y="-33.6156" font-family="Times,serif" font-size="14.00" fill="#000000">s398 SYMBOL</text>
<text text-anchor="middle" x="513.0464" y="-16.8156" font-family="Times,serif" font-size="14.00" fill="#000000">_jsx_child</text>
</a>
</g>
</g>
<!-- s397&#45;&gt;s398 -->
<g id="edge2" class="edge">
<title>s397&#45;&gt;s398</title>
<path fill="none" stroke="#000000" d="M403.5809,-23.3084C412.1171,-22.9618 421.38,-22.7553 430.7818,-22.6891"/>
<polygon fill="#000000" stroke="#000000" points="431.0163,-26.1888 441.0105,-22.6723 431.0047,-19.1888 431.0163,-26.1888"/>
</g>
<!-- s398&#45;&gt;s397 -->
<g id="edge3" class="edge">
<title>s398&#45;&gt;s397</title>
<path fill="none" stroke="#000000" d="M441.0105,-36.159C431.7857,-36.1935 422.4902,-36.0936 413.6752,-35.8594"/>
<polygon fill="#000000" stroke="#000000" points="413.6921,-32.3581 403.5809,-35.5228 413.4587,-39.3543 413.6921,-32.3581"/>
</g>
<!-- s399 -->
<g id="node5" class="node">
<title>s399</title>
<g id="a_node5"><a xlink:href="javascript-grammar.json.jsx_closing_element.dot.svg" xlink:title="s399 SYMBOL\njsx_closing_element">
<ellipse fill="none" stroke="#000000" cx="715.4748" cy="-29.4156" rx="92.8914" ry="29.3315"/>
<text text-anchor="middle" x="715.4748" y="-33.6156" font-family="Times,serif" font-size="14.00" fill="#000000">s399 SYMBOL</text>
<text text-anchor="middle" x="715.4748" y="-16.8156" font-family="Times,serif" font-size="14.00" fill="#000000">jsx_closing_element</text>
</a>
</g>
</g>
<!-- s398&#45;&gt;s399 -->
<g id="edge5" class="edge">
<title>s398&#45;&gt;s399</title>
<path fill="none" stroke="#000000" d="M586.987,-29.4156C595.3482,-29.4156 603.9778,-29.4156 612.6234,-29.4156"/>
<polygon fill="#000000" stroke="#000000" points="612.7647,-32.9157 622.7646,-29.4156 612.7646,-25.9157 612.7647,-32.9157"/>
</g>
</g>
</svg>
