<?xml version="1.0" encoding="UTF-8" standalone="no"?>
<!DOCTYPE svg PUBLIC "-//W3C//DTD SVG 1.1//EN"
 "http://www.w3.org/Graphics/SVG/1.1/DTD/svg11.dtd">
<!-- Generated by graphviz version 2.40.1 (20161225.0304)
 -->
<!-- Title: anonymous_class Pages: 1 -->
<svg width="1128pt" height="144pt"
 viewBox="0.00 0.00 1128.08 143.83" xmlns="http://www.w3.org/2000/svg" xmlns:xlink="http://www.w3.org/1999/xlink">
<g id="graph0" class="graph" transform="scale(1 1) rotate(0) translate(4 139.8313)">
<title>anonymous_class</title>
<polygon fill="#ffffff" stroke="transparent" points="-4,4 -4,-139.8313 1124.0753,-139.8313 1124.0753,4 -4,4"/>
<!-- s474 -->
<g id="node1" class="node">
<title>s474</title>
<polygon fill="none" stroke="#000000" points="0,-46.6156 0,-88.2156 56.4418,-88.2156 56.4418,-46.6156 0,-46.6156"/>
<text text-anchor="middle" x="28.2209" y="-71.6156" font-family="Times,serif" font-size="14.00" fill="#000000">s474</text>
<text text-anchor="middle" x="28.2209" y="-54.8156" font-family="Times,serif" font-size="14.00" fill="#000000">→ SEQ</text>
</g>
<!-- s475 -->
<g id="node2" class="node">
<title>s475</title>
<polygon fill="none" stroke="#000000" points="93.4418,-46.6156 93.4418,-88.2156 176.3254,-88.2156 176.3254,-46.6156 93.4418,-46.6156"/>
<text text-anchor="middle" x="134.8836" y="-71.6156" font-family="Times,serif" font-size="14.00" fill="#000000">s475</text>
<text text-anchor="middle" x="134.8836" y="-54.8156" font-family="Times,serif" font-size="14.00" fill="#000000">→ REPEAT</text>
</g>
<!-- s474&#45;&gt;s475 -->
<g id="edge3" class="edge">
<title>s474&#45;&gt;s475</title>
<path fill="none" stroke="#000000" d="M56.5245,-67.4156C64.6857,-67.4156 73.8581,-67.4156 82.9751,-67.4156"/>
<polygon fill="#000000" stroke="#000000" points="83.188,-70.9157 93.1879,-67.4156 83.1879,-63.9157 83.188,-70.9157"/>
</g>
<!-- s476 -->
<g id="node3" class="node">
<title>s476</title>
<g id="a_node3"><a xlink:href="javascript-grammar.json.decorator.dot.svg" xlink:title="s476 SYMBOL\ndecorator">
<ellipse fill="none" stroke="#000000" cx="287.0584" cy="-67.4156" rx="73.9667" ry="29.3315"/>
<text text-anchor="middle" x="287.0584" y="-71.6156" font-family="Times,serif" font-size="14.00" fill="#000000">s476 SYMBOL</text>
<text text-anchor="middle" x="287.0584" y="-54.8156" font-family="Times,serif" font-size="14.00" fill="#000000">decorator</text>
</a>
</g>
</g>
<!-- s475&#45;&gt;s476 -->
<g id="edge1" class="edge">
<title>s475&#45;&gt;s476</title>
<path fill="none" stroke="#000000" d="M176.466,-61.3248C185.3486,-60.961 195.0271,-60.7477 204.8425,-60.6851"/>
<polygon fill="#000000" stroke="#000000" points="205.0968,-64.185 215.0931,-60.6745 205.0894,-57.185 205.0968,-64.185"/>
</g>
<!-- s476&#45;&gt;s475 -->
<g id="edge2" class="edge">
<title>s476&#45;&gt;s475</title>
<path fill="none" stroke="#000000" d="M215.0931,-74.1568C205.4691,-74.198 195.7568,-74.0948 186.5747,-73.8473"/>
<polygon fill="#000000" stroke="#000000" points="186.5783,-70.3455 176.466,-73.5065 186.3424,-77.3415 186.5783,-70.3455"/>
</g>
<!-- s477 -->
<g id="node4" class="node">
<title>s477</title>
<ellipse fill="none" stroke="#000000" cx="466.0203" cy="-67.4156" rx="68.4585" ry="29.3315"/>
<text text-anchor="middle" x="466.0203" y="-71.6156" font-family="Times,serif" font-size="14.00" fill="#000000">s477 STRING</text>
<text text-anchor="middle" x="466.0203" y="-54.8156" font-family="Times,serif" font-size="14.00" fill="#000000">&quot;class&quot;</text>
</g>
<!-- s476&#45;&gt;s477 -->
<g id="edge4" class="edge">
<title>s476&#45;&gt;s477</title>
<path fill="none" stroke="#000000" d="M360.8823,-67.4156C369.6019,-67.4156 378.5263,-67.4156 387.3102,-67.4156"/>
<polygon fill="#000000" stroke="#000000" points="387.5365,-70.9157 397.5365,-67.4156 387.5365,-63.9157 387.5365,-70.9157"/>
</g>
<!-- s478 -->
<g id="node5" class="node">
<title>s478</title>
<polygon fill="none" stroke="#000000" points="571.2491,-42.6156 571.2491,-92.2156 672.8487,-92.2156 672.8487,-42.6156 571.2491,-42.6156"/>
<text text-anchor="middle" x="612.2989" y="-71.6156" font-family="Times,serif" font-size="14.00" fill="#000000">s478</text>
<text text-anchor="middle" x="612.2989" y="-54.8156" font-family="Times,serif" font-size="14.00" fill="#000000">→ CHOICE</text>
<polyline fill="none" stroke="#000000" points="653.3487,-42.6156 653.3487,-92.2156 "/>
<text text-anchor="middle" x="663.0987" y="-75.6156" font-family="Times,serif" font-size="14.00" fill="#000000"> </text>
<polyline fill="none" stroke="#000000" points="653.3487,-67.4156 672.8487,-67.4156 "/>
<text text-anchor="middle" x="663.0987" y="-50.8156" font-family="Times,serif" font-size="14.00" fill="#000000"> </text>
</g>
<!-- s477&#45;&gt;s478 -->
<g id="edge7" class="edge">
<title>s477&#45;&gt;s478</title>
<path fill="none" stroke="#000000" d="M534.4567,-67.4156C543.2845,-67.4156 552.2784,-67.4156 560.977,-67.4156"/>
<polygon fill="#000000" stroke="#000000" points="561.0252,-70.9157 571.0251,-67.4156 561.0251,-63.9157 561.0252,-70.9157"/>
</g>
<!-- s479 -->
<g id="node6" class="node">
<title>s479</title>
<g id="a_node6"><a xlink:href="javascript-grammar.json.class_heritage.dot.svg" xlink:title="s479 SYMBOL\nclass_heritage">
<ellipse fill="none" stroke="#000000" cx="861.8763" cy="-106.4156" rx="73.9667" ry="29.3315"/>
<text text-anchor="middle" x="861.8763" y="-110.6156" font-family="Times,serif" font-size="14.00" fill="#000000">s479 SYMBOL</text>
<text text-anchor="middle" x="861.8763" y="-93.8156" font-family="Times,serif" font-size="14.00" fill="#000000">class_heritage</text>
</a>
</g>
</g>
<!-- s478&#45;&gt;s479 -->
<g id="edge5" class="edge">
<title>s478:p0&#45;&gt;s479</title>
<path fill="none" stroke="#000000" d="M672.8487,-79.4156C710.5638,-79.4156 752.0901,-84.7482 786.5914,-90.6736"/>
<polygon fill="#000000" stroke="#000000" points="786.1362,-94.1473 796.5927,-92.4411 787.3545,-87.2541 786.1362,-94.1473"/>
<text text-anchor="middle" x="730.496" y="-90.6156" font-family="Times,serif" font-size="14.00" fill="#000000">class_heritage</text>
</g>
<!-- s480 -->
<g id="node7" class="node">
<title>s480</title>
<ellipse fill="none" stroke="#000000" cx="861.8763" cy="-29.4156" rx="45.3054" ry="29.3315"/>
<text text-anchor="middle" x="861.8763" y="-33.6156" font-family="Times,serif" font-size="14.00" fill="#000000">s480 </text>
<text text-anchor="middle" x="861.8763" y="-16.8156" font-family="Times,serif" font-size="14.00" fill="#000000">BLANK</text>
</g>
<!-- s478&#45;&gt;s480 -->
<g id="edge6" class="edge">
<title>s478:p1&#45;&gt;s480</title>
<path fill="none" stroke="#000000" d="M672.8487,-55.4156C718.8735,-55.4156 770.6188,-47.7573 808.3187,-40.7534"/>
<polygon fill="#000000" stroke="#000000" points="809.3946,-44.1115 818.5631,-38.8022 808.0848,-37.2351 809.3946,-44.1115"/>
</g>
<!-- s481 -->
<g id="node8" class="node">
<title>s481</title>
<g id="a_node8"><a xlink:href="javascript-grammar.json.class_body.dot.svg" xlink:title="s481 SYMBOL\nclass_body">
<ellipse fill="none" stroke="#000000" cx="1046.3423" cy="-67.4156" rx="73.9667" ry="29.3315"/>
<text text-anchor="middle" x="1046.3423" y="-71.6156" font-family="Times,serif" font-size="14.00" fill="#000000">s481 SYMBOL</text>
<text text-anchor="middle" x="1046.3423" y="-54.8156" font-family="Times,serif" font-size="14.00" fill="#000000">class_body</text>
</a>
</g>
</g>
<!-- s479&#45;&gt;s481 -->
<g id="edge8" class="edge">
<title>s479&#45;&gt;s481</title>
<path fill="none" stroke="#000000" d="M927.1717,-92.6108C941.4032,-89.602 956.5726,-86.3949 971.1532,-83.3122"/>
<polygon fill="#000000" stroke="#000000" points="972.0749,-86.6948 981.1347,-81.2019 970.6269,-79.8462 972.0749,-86.6948"/>
</g>
<!-- s480&#45;&gt;s481 -->
<g id="edge9" class="edge">
<title>s480&#45;&gt;s481</title>
<path fill="none" stroke="#000000" d="M905.5922,-38.4211C924.9943,-42.418 948.4008,-47.2397 970.5084,-51.7939"/>
<polygon fill="#000000" stroke="#000000" points="970.055,-55.2739 980.5556,-53.8636 971.4674,-48.4178 970.055,-55.2739"/>
</g>
</g>
</svg>
