<?xml version="1.0" encoding="UTF-8" standalone="no"?>
<!DOCTYPE svg PUBLIC "-//W3C//DTD SVG 1.1//EN"
 "http://www.w3.org/Graphics/SVG/1.1/DTD/svg11.dtd">
<!-- Generated by graphviz version 2.40.1 (20161225.0304)
 -->
<!-- Title: for_statement Pages: 1 -->
<svg width="2140pt" height="298pt"
 viewBox="0.00 0.00 2140.04 297.83" xmlns="http://www.w3.org/2000/svg" xmlns:xlink="http://www.w3.org/1999/xlink">
<g id="graph0" class="graph" transform="scale(1 1) rotate(0) translate(4 293.8313)">
<title>for_statement</title>
<polygon fill="#ffffff" stroke="transparent" points="-4,4 -4,-293.8313 2136.0388,-293.8313 2136.0388,4 -4,4"/>
<!-- s175 -->
<g id="node1" class="node">
<title>s175</title>
<polygon fill="none" stroke="#000000" points="0,-123.6156 0,-165.2156 56.4418,-165.2156 56.4418,-123.6156 0,-123.6156"/>
<text text-anchor="middle" x="28.2209" y="-148.6156" font-family="Times,serif" font-size="14.00" fill="#000000">s175</text>
<text text-anchor="middle" x="28.2209" y="-131.8156" font-family="Times,serif" font-size="14.00" fill="#000000">→ SEQ</text>
</g>
<!-- s176 -->
<g id="node2" class="node">
<title>s176</title>
<ellipse fill="none" stroke="#000000" cx="161.6707" cy="-144.4156" rx="68.4585" ry="29.3315"/>
<text text-anchor="middle" x="161.6707" y="-148.6156" font-family="Times,serif" font-size="14.00" fill="#000000">s176 STRING</text>
<text text-anchor="middle" x="161.6707" y="-131.8156" font-family="Times,serif" font-size="14.00" fill="#000000">&quot;for&quot;</text>
</g>
<!-- s175&#45;&gt;s176 -->
<g id="edge1" class="edge">
<title>s175&#45;&gt;s176</title>
<path fill="none" stroke="#000000" d="M56.5222,-144.4156C64.5856,-144.4156 73.7846,-144.4156 83.3101,-144.4156"/>
<polygon fill="#000000" stroke="#000000" points="83.321,-147.9157 93.321,-144.4156 83.3209,-140.9157 83.321,-147.9157"/>
</g>
<!-- s177 -->
<g id="node3" class="node">
<title>s177</title>
<ellipse fill="none" stroke="#000000" cx="335.1284" cy="-144.4156" rx="68.4585" ry="29.3315"/>
<text text-anchor="middle" x="335.1284" y="-148.6156" font-family="Times,serif" font-size="14.00" fill="#000000">s177 STRING</text>
<text text-anchor="middle" x="335.1284" y="-131.8156" font-family="Times,serif" font-size="14.00" fill="#000000">&quot;(&quot;</text>
</g>
<!-- s176&#45;&gt;s177 -->
<g id="edge2" class="edge">
<title>s176&#45;&gt;s177</title>
<path fill="none" stroke="#000000" d="M230.2258,-144.4156C238.8698,-144.4156 247.7659,-144.4156 256.5496,-144.4156"/>
<polygon fill="#000000" stroke="#000000" points="256.7874,-147.9157 266.7873,-144.4156 256.7873,-140.9157 256.7874,-147.9157"/>
</g>
<!-- s178 -->
<g id="node4" class="node">
<title>s178</title>
<polygon fill="none" stroke="#000000" points="440.3573,-94.8156 440.3573,-194.0156 541.9569,-194.0156 541.9569,-94.8156 440.3573,-94.8156"/>
<text text-anchor="middle" x="481.4071" y="-148.6156" font-family="Times,serif" font-size="14.00" fill="#000000">s178</text>
<text text-anchor="middle" x="481.4071" y="-131.8156" font-family="Times,serif" font-size="14.00" fill="#000000">→ CHOICE</text>
<polyline fill="none" stroke="#000000" points="522.4569,-94.8156 522.4569,-194.0156 "/>
<text text-anchor="middle" x="532.2069" y="-177.4156" font-family="Times,serif" font-size="14.00" fill="#000000"> </text>
<polyline fill="none" stroke="#000000" points="522.4569,-169.2156 541.9569,-169.2156 "/>
<text text-anchor="middle" x="532.2069" y="-152.6156" font-family="Times,serif" font-size="14.00" fill="#000000"> </text>
<polyline fill="none" stroke="#000000" points="522.4569,-144.4156 541.9569,-144.4156 "/>
<text text-anchor="middle" x="532.2069" y="-127.8156" font-family="Times,serif" font-size="14.00" fill="#000000"> </text>
<polyline fill="none" stroke="#000000" points="522.4569,-119.6156 541.9569,-119.6156 "/>
<text text-anchor="middle" x="532.2069" y="-103.0156" font-family="Times,serif" font-size="14.00" fill="#000000"> </text>
</g>
<!-- s177&#45;&gt;s178 -->
<g id="edge7" class="edge">
<title>s177&#45;&gt;s178</title>
<path fill="none" stroke="#000000" d="M403.5649,-144.4156C412.3926,-144.4156 421.3865,-144.4156 430.0851,-144.4156"/>
<polygon fill="#000000" stroke="#000000" points="430.1333,-147.9157 440.1333,-144.4156 430.1332,-140.9157 430.1333,-147.9157"/>
</g>
<!-- s179 -->
<g id="node5" class="node">
<title>s179</title>
<g id="a_node5"><a xlink:href="javascript-grammar.json.lexical_declaration.dot.svg" xlink:title="s179 SYMBOL\nlexical_declaration">
<ellipse fill="none" stroke="#000000" cx="795.0118" cy="-260.4156" rx="86.7504" ry="29.3315"/>
<text text-anchor="middle" x="795.0118" y="-264.6156" font-family="Times,serif" font-size="14.00" fill="#000000">s179 SYMBOL</text>
<text text-anchor="middle" x="795.0118" y="-247.8156" font-family="Times,serif" font-size="14.00" fill="#000000">lexical_declaration</text>
</a>
</g>
</g>
<!-- s178&#45;&gt;s179 -->
<g id="edge3" class="edge">
<title>s178:p0&#45;&gt;s179</title>
<path fill="none" stroke="#000000" d="M541.9569,-181.4156C544.3175,-181.4156 647.6708,-213.889 721.5463,-237.1961"/>
<polygon fill="#000000" stroke="#000000" points="720.7171,-240.6045 731.3068,-240.2762 722.8237,-233.929 720.7171,-240.6045"/>
<text text-anchor="middle" x="620.2171" y="-226.6156" font-family="Times,serif" font-size="14.00" fill="#000000">lexical_declaration</text>
</g>
<!-- s180 -->
<g id="node6" class="node">
<title>s180</title>
<g id="a_node6"><a xlink:href="javascript-grammar.json.variable_declaration.dot.svg" xlink:title="s180 SYMBOL\nvariable_declaration">
<ellipse fill="none" stroke="#000000" cx="795.0118" cy="-183.4156" rx="92.2388" ry="29.3315"/>
<text text-anchor="middle" x="795.0118" y="-187.6156" font-family="Times,serif" font-size="14.00" fill="#000000">s180 SYMBOL</text>
<text text-anchor="middle" x="795.0118" y="-170.8156" font-family="Times,serif" font-size="14.00" fill="#000000">variable_declaration</text>
</a>
</g>
</g>
<!-- s178&#45;&gt;s180 -->
<g id="edge4" class="edge">
<title>s178:p1&#45;&gt;s180</title>
<path fill="none" stroke="#000000" d="M541.9569,-156.4156C595.3737,-156.4156 654.7769,-162.4376 702.5983,-168.7936"/>
<polygon fill="#000000" stroke="#000000" points="702.2411,-172.2771 712.6208,-170.1529 703.1819,-165.3406 702.2411,-172.2771"/>
<text text-anchor="middle" x="620.2171" y="-169.6156" font-family="Times,serif" font-size="14.00" fill="#000000">variable_declaration</text>
</g>
<!-- s181 -->
<g id="node7" class="node">
<title>s181</title>
<g id="a_node7"><a xlink:href="javascript-grammar.json.expression_statement.dot.svg" xlink:title="s181 SYMBOL\nexpression_statement">
<ellipse fill="none" stroke="#000000" cx="795.0118" cy="-106.4156" rx="96.569" ry="29.3315"/>
<text text-anchor="middle" x="795.0118" y="-110.6156" font-family="Times,serif" font-size="14.00" fill="#000000">s181 SYMBOL</text>
<text text-anchor="middle" x="795.0118" y="-93.8156" font-family="Times,serif" font-size="14.00" fill="#000000">expression_statement</text>
</a>
</g>
</g>
<!-- s178&#45;&gt;s181 -->
<g id="edge5" class="edge">
<title>s178:p2&#45;&gt;s181</title>
<path fill="none" stroke="#000000" d="M541.9569,-132.4156C593.8001,-132.4156 651.3062,-126.9489 698.3813,-121.0288"/>
<polygon fill="#000000" stroke="#000000" points="699.0963,-124.4658 708.5689,-119.7203 698.2045,-117.5228 699.0963,-124.4658"/>
<text text-anchor="middle" x="620.2171" y="-135.6156" font-family="Times,serif" font-size="14.00" fill="#000000">expression_statement</text>
</g>
<!-- s182 -->
<g id="node8" class="node">
<title>s182</title>
<g id="a_node8"><a xlink:href="javascript-grammar.json.empty_statement.dot.svg" xlink:title="s182 SYMBOL\nempty_statement">
<ellipse fill="none" stroke="#000000" cx="795.0118" cy="-29.4156" rx="78.8922" ry="29.3315"/>
<text text-anchor="middle" x="795.0118" y="-33.6156" font-family="Times,serif" font-size="14.00" fill="#000000">s182 SYMBOL</text>
<text text-anchor="middle" x="795.0118" y="-16.8156" font-family="Times,serif" font-size="14.00" fill="#000000">empty_statement</text>
</a>
</g>
</g>
<!-- s178&#45;&gt;s182 -->
<g id="edge6" class="edge">
<title>s178:p3&#45;&gt;s182</title>
<path fill="none" stroke="#000000" d="M541.9569,-107.4156C550.362,-107.4156 551.9394,-104.1385 559.9569,-101.6156 614.8917,-84.329 677.2026,-65.2117 723.8604,-50.9936"/>
<polygon fill="#000000" stroke="#000000" points="725.0243,-54.2979 733.5708,-48.0364 722.9849,-47.6016 725.0243,-54.2979"/>
<text text-anchor="middle" x="620.2171" y="-105.6156" font-family="Times,serif" font-size="14.00" fill="#000000">empty_statement</text>
</g>
<!-- s183 -->
<g id="node9" class="node">
<title>s183</title>
<polygon fill="none" stroke="#000000" points="928.5463,-119.6156 928.5463,-169.2156 1030.1459,-169.2156 1030.1459,-119.6156 928.5463,-119.6156"/>
<text text-anchor="middle" x="969.5961" y="-148.6156" font-family="Times,serif" font-size="14.00" fill="#000000">s183</text>
<text text-anchor="middle" x="969.5961" y="-131.8156" font-family="Times,serif" font-size="14.00" fill="#000000">→ CHOICE</text>
<polyline fill="none" stroke="#000000" points="1010.6459,-119.6156 1010.6459,-169.2156 "/>
<text text-anchor="middle" x="1020.3959" y="-152.6156" font-family="Times,serif" font-size="14.00" fill="#000000"> </text>
<polyline fill="none" stroke="#000000" points="1010.6459,-144.4156 1030.1459,-144.4156 "/>
<text text-anchor="middle" x="1020.3959" y="-127.8156" font-family="Times,serif" font-size="14.00" fill="#000000"> </text>
</g>
<!-- s179&#45;&gt;s183 -->
<g id="edge10" class="edge">
<title>s179&#45;&gt;s183</title>
<path fill="none" stroke="#000000" d="M856.0136,-239.4028C868.1536,-234.2259 880.5415,-228.1924 891.5463,-221.4156 911.8717,-208.8993 932.0721,-191.6094 947.9636,-176.5839"/>
<polygon fill="#000000" stroke="#000000" points="950.6262,-178.8788 955.4004,-169.4205 945.77,-173.8372 950.6262,-178.8788"/>
</g>
<!-- s180&#45;&gt;s183 -->
<g id="edge11" class="edge">
<title>s180&#45;&gt;s183</title>
<path fill="none" stroke="#000000" d="M871.8513,-167.1585C887.3425,-163.881 903.428,-160.4778 918.2906,-157.3333"/>
<polygon fill="#000000" stroke="#000000" points="919.3035,-160.6965 928.3624,-155.2024 917.8545,-153.8481 919.3035,-160.6965"/>
</g>
<!-- s181&#45;&gt;s183 -->
<g id="edge12" class="edge">
<title>s181&#45;&gt;s183</title>
<path fill="none" stroke="#000000" d="M875.0593,-122.9172C889.6016,-125.9151 904.5536,-128.9974 918.433,-131.8586"/>
<polygon fill="#000000" stroke="#000000" points="917.8278,-135.3073 928.3285,-133.8985 919.2412,-128.4515 917.8278,-135.3073"/>
</g>
<!-- s182&#45;&gt;s183 -->
<g id="edge13" class="edge">
<title>s182&#45;&gt;s183</title>
<path fill="none" stroke="#000000" d="M853.1826,-49.3054C866.2066,-54.7352 879.6714,-61.156 891.5463,-68.4156 911.6497,-80.7057 931.6972,-97.6147 947.5497,-112.3634"/>
<polygon fill="#000000" stroke="#000000" points="945.3103,-115.0632 954.9767,-119.4005 950.1249,-109.9819 945.3103,-115.0632"/>
</g>
<!-- s184 -->
<g id="node10" class="node">
<title>s184</title>
<g id="a_node10"><a xlink:href="javascript-grammar.json.expression_statement.dot.svg" xlink:title="s184 SYMBOL\nexpression_statement">
<ellipse fill="none" stroke="#000000" cx="1283.2008" cy="-183.4156" rx="96.569" ry="29.3315"/>
<text text-anchor="middle" x="1283.2008" y="-187.6156" font-family="Times,serif" font-size="14.00" fill="#000000">s184 SYMBOL</text>
<text text-anchor="middle" x="1283.2008" y="-170.8156" font-family="Times,serif" font-size="14.00" fill="#000000">expression_statement</text>
</a>
</g>
</g>
<!-- s183&#45;&gt;s184 -->
<g id="edge8" class="edge">
<title>s183:p0&#45;&gt;s184</title>
<path fill="none" stroke="#000000" d="M1030.1459,-156.4156C1082.4284,-156.4156 1140.4457,-162.1846 1187.7253,-168.3892"/>
<polygon fill="#000000" stroke="#000000" points="1187.2691,-171.8593 1197.6453,-169.7179 1188.1985,-164.9212 1187.2691,-171.8593"/>
<text text-anchor="middle" x="1108.4061" y="-169.6156" font-family="Times,serif" font-size="14.00" fill="#000000">expression_statement</text>
</g>
<!-- s185 -->
<g id="node11" class="node">
<title>s185</title>
<g id="a_node11"><a xlink:href="javascript-grammar.json.empty_statement.dot.svg" xlink:title="s185 SYMBOL\nempty_statement">
<ellipse fill="none" stroke="#000000" cx="1283.2008" cy="-106.4156" rx="78.8922" ry="29.3315"/>
<text text-anchor="middle" x="1283.2008" y="-110.6156" font-family="Times,serif" font-size="14.00" fill="#000000">s185 SYMBOL</text>
<text text-anchor="middle" x="1283.2008" y="-93.8156" font-family="Times,serif" font-size="14.00" fill="#000000">empty_statement</text>
</a>
</g>
</g>
<!-- s183&#45;&gt;s185 -->
<g id="edge9" class="edge">
<title>s183:p1&#45;&gt;s185</title>
<path fill="none" stroke="#000000" d="M1030.1459,-132.4156C1087.1646,-132.4156 1151.0333,-125.8029 1200.341,-119.2472"/>
<polygon fill="#000000" stroke="#000000" points="1200.8782,-122.7065 1210.3176,-117.8953 1199.9381,-115.7699 1200.8782,-122.7065"/>
<text text-anchor="middle" x="1108.4061" y="-135.6156" font-family="Times,serif" font-size="14.00" fill="#000000">empty_statement</text>
</g>
<!-- s186 -->
<g id="node12" class="node">
<title>s186</title>
<polygon fill="none" stroke="#000000" points="1416.7353,-126.6156 1416.7353,-176.2156 1518.3349,-176.2156 1518.3349,-126.6156 1416.7353,-126.6156"/>
<text text-anchor="middle" x="1457.7851" y="-155.6156" font-family="Times,serif" font-size="14.00" fill="#000000">s186</text>
<text text-anchor="middle" x="1457.7851" y="-138.8156" font-family="Times,serif" font-size="14.00" fill="#000000">→ CHOICE</text>
<polyline fill="none" stroke="#000000" points="1498.8349,-126.6156 1498.8349,-176.2156 "/>
<text text-anchor="middle" x="1508.5849" y="-159.6156" font-family="Times,serif" font-size="14.00" fill="#000000"> </text>
<polyline fill="none" stroke="#000000" points="1498.8349,-151.4156 1518.3349,-151.4156 "/>
<text text-anchor="middle" x="1508.5849" y="-134.8156" font-family="Times,serif" font-size="14.00" fill="#000000"> </text>
</g>
<!-- s184&#45;&gt;s186 -->
<g id="edge16" class="edge">
<title>s184&#45;&gt;s186</title>
<path fill="none" stroke="#000000" d="M1367.2766,-168.8203C1380.5382,-166.5181 1394.025,-164.1768 1406.6273,-161.9891"/>
<polygon fill="#000000" stroke="#000000" points="1407.2693,-165.4301 1416.5233,-160.2712 1406.072,-158.5332 1407.2693,-165.4301"/>
</g>
<!-- s185&#45;&gt;s186 -->
<g id="edge17" class="edge">
<title>s185&#45;&gt;s186</title>
<path fill="none" stroke="#000000" d="M1349.4893,-122.5981C1368.1263,-127.1478 1388.2996,-132.0725 1406.6076,-136.5419"/>
<polygon fill="#000000" stroke="#000000" points="1406.0205,-140.0013 1416.5653,-138.9728 1407.6807,-133.201 1406.0205,-140.0013"/>
</g>
<!-- s187 -->
<g id="node13" class="node">
<title>s187</title>
<g id="a_node13"><a xlink:href="javascript-grammar.json._expressions.dot.svg" xlink:title="s187 SYMBOL\n_expressions">
<ellipse fill="none" stroke="#000000" cx="1700.3821" cy="-190.4156" rx="73.9667" ry="29.3315"/>
<text text-anchor="middle" x="1700.3821" y="-194.6156" font-family="Times,serif" font-size="14.00" fill="#000000">s187 SYMBOL</text>
<text text-anchor="middle" x="1700.3821" y="-177.8156" font-family="Times,serif" font-size="14.00" fill="#000000">_expressions</text>
</a>
</g>
</g>
<!-- s186&#45;&gt;s187 -->
<g id="edge14" class="edge">
<title>s186:p0&#45;&gt;s187</title>
<path fill="none" stroke="#000000" d="M1518.3349,-163.4156C1553.9504,-163.4156 1593.0654,-168.5347 1625.8798,-174.3149"/>
<polygon fill="#000000" stroke="#000000" points="1625.386,-177.7824 1635.8504,-176.125 1626.6365,-170.895 1625.386,-177.7824"/>
<text text-anchor="middle" x="1572.492" y="-174.6156" font-family="Times,serif" font-size="14.00" fill="#000000">_expressions</text>
</g>
<!-- s188 -->
<g id="node14" class="node">
<title>s188</title>
<ellipse fill="none" stroke="#000000" cx="1700.3821" cy="-113.4156" rx="45.3054" ry="29.3315"/>
<text text-anchor="middle" x="1700.3821" y="-117.6156" font-family="Times,serif" font-size="14.00" fill="#000000">s188 </text>
<text text-anchor="middle" x="1700.3821" y="-100.8156" font-family="Times,serif" font-size="14.00" fill="#000000">BLANK</text>
</g>
<!-- s186&#45;&gt;s188 -->
<g id="edge15" class="edge">
<title>s186:p1&#45;&gt;s188</title>
<path fill="none" stroke="#000000" d="M1518.3349,-139.4156C1562.1086,-139.4156 1611.2135,-131.9576 1647.3826,-125.0302"/>
<polygon fill="#000000" stroke="#000000" points="1648.0879,-128.4587 1657.2259,-123.0971 1646.7388,-121.5899 1648.0879,-128.4587"/>
</g>
<!-- s189 -->
<g id="node15" class="node">
<title>s189</title>
<ellipse fill="none" stroke="#000000" cx="1879.344" cy="-151.4156" rx="68.4585" ry="29.3315"/>
<text text-anchor="middle" x="1879.344" y="-155.6156" font-family="Times,serif" font-size="14.00" fill="#000000">s189 STRING</text>
<text text-anchor="middle" x="1879.344" y="-138.8156" font-family="Times,serif" font-size="14.00" fill="#000000">&quot;)&quot;</text>
</g>
<!-- s187&#45;&gt;s189 -->
<g id="edge18" class="edge">
<title>s187&#45;&gt;s189</title>
<path fill="none" stroke="#000000" d="M1765.2445,-176.2806C1779.1699,-173.2459 1793.9578,-170.0233 1808.1098,-166.9392"/>
<polygon fill="#000000" stroke="#000000" points="1809.2555,-170.2718 1818.2809,-164.7227 1807.7649,-163.4323 1809.2555,-170.2718"/>
</g>
<!-- s188&#45;&gt;s189 -->
<g id="edge19" class="edge">
<title>s188&#45;&gt;s189</title>
<path fill="none" stroke="#000000" d="M1743.7038,-122.6144C1762.9908,-126.7097 1786.2177,-131.6416 1807.9575,-136.2578"/>
<polygon fill="#000000" stroke="#000000" points="1807.3131,-139.6989 1817.822,-138.3523 1808.767,-132.8515 1807.3131,-139.6989"/>
</g>
<!-- s190 -->
<g id="node16" class="node">
<title>s190</title>
<g id="a_node16"><a xlink:href="javascript-grammar.json._statement.dot.svg" xlink:title="s190 SYMBOL\n_statement">
<ellipse fill="none" stroke="#000000" cx="2058.3058" cy="-151.4156" rx="73.9667" ry="29.3315"/>
<text text-anchor="middle" x="2058.3058" y="-155.6156" font-family="Times,serif" font-size="14.00" fill="#000000">s190 SYMBOL</text>
<text text-anchor="middle" x="2058.3058" y="-138.8156" font-family="Times,serif" font-size="14.00" fill="#000000">_statement</text>
</a>
</g>
</g>
<!-- s189&#45;&gt;s190 -->
<g id="edge20" class="edge">
<title>s189&#45;&gt;s190</title>
<path fill="none" stroke="#000000" d="M1947.7678,-151.4156C1956.5144,-151.4156 1965.5456,-151.4156 1974.5007,-151.4156"/>
<polygon fill="#000000" stroke="#000000" points="1974.5598,-154.9157 1984.5597,-151.4156 1974.5597,-147.9157 1974.5598,-154.9157"/>
</g>
</g>
</svg>
