<?xml version="1.0" encoding="UTF-8" standalone="no"?>
<!DOCTYPE svg PUBLIC "-//W3C//DTD SVG 1.1//EN"
 "http://www.w3.org/Graphics/SVG/1.1/DTD/svg11.dtd">
<!-- Generated by graphviz version 2.40.1 (20161225.0304)
 -->
<!-- Title: _jsx_attribute_name Pages: 1 -->
<svg width="647pt" height="136pt"
 viewBox="0.00 0.00 647.38 135.83" xmlns="http://www.w3.org/2000/svg" xmlns:xlink="http://www.w3.org/1999/xlink">
<g id="graph0" class="graph" transform="scale(1 1) rotate(0) translate(4 131.8313)">
<title>_jsx_attribute_name</title>
<polygon fill="#ffffff" stroke="transparent" points="-4,4 -4,-131.8313 643.3796,-131.8313 643.3796,4 -4,4"/>
<!-- s458 -->
<g id="node1" class="node">
<title>s458</title>
<polygon fill="none" stroke="#000000" points="0,-24.6156 0,-74.2156 101.5996,-74.2156 101.5996,-24.6156 0,-24.6156"/>
<text text-anchor="middle" x="41.0498" y="-53.6156" font-family="Times,serif" font-size="14.00" fill="#000000">s458</text>
<text text-anchor="middle" x="41.0498" y="-36.8156" font-family="Times,serif" font-size="14.00" fill="#000000">→ CHOICE</text>
<polyline fill="none" stroke="#000000" points="82.0996,-24.6156 82.0996,-74.2156 "/>
<text text-anchor="middle" x="91.8496" y="-57.6156" font-family="Times,serif" font-size="14.00" fill="#000000"> </text>
<polyline fill="none" stroke="#000000" points="82.0996,-49.4156 101.5996,-49.4156 "/>
<text text-anchor="middle" x="91.8496" y="-32.8156" font-family="Times,serif" font-size="14.00" fill="#000000"> </text>
</g>
<!-- s459 -->
<g id="node2" class="node">
<title>s459</title>
<polygon fill="none" stroke="#000000" points="321.6837,-77.6156 321.6837,-119.2156 392.8927,-119.2156 392.8927,-77.6156 321.6837,-77.6156"/>
<text text-anchor="middle" x="357.2882" y="-102.6156" font-family="Times,serif" font-size="14.00" fill="#000000">s459</text>
<text text-anchor="middle" x="357.2882" y="-85.8156" font-family="Times,serif" font-size="14.00" fill="#000000">→ ALIAS</text>
</g>
<!-- s458&#45;&gt;s459 -->
<g id="edge2" class="edge">
<title>s458:p0&#45;&gt;s459</title>
<path fill="none" stroke="#000000" d="M101.5996,-61.4156C175.6623,-61.4156 260.5598,-76.8093 311.5015,-87.7383"/>
<polygon fill="#000000" stroke="#000000" points="311.0157,-91.2146 321.532,-89.9271 312.5081,-84.3756 311.0157,-91.2146"/>
<text text-anchor="middle" x="180.6312" y="-79.6156" font-family="Times,serif" font-size="14.00" fill="#000000">property_identifier</text>
</g>
<!-- s461 -->
<g id="node4" class="node">
<title>s461</title>
<g id="a_node4"><a xlink:href="javascript-grammar.json.jsx_namespace_name.dot.svg" xlink:title="s461 SYMBOL\njsx_namespace_name">
<ellipse fill="none" stroke="#000000" cx="357.2882" cy="-29.4156" rx="97.751" ry="29.3315"/>
<text text-anchor="middle" x="357.2882" y="-33.6156" font-family="Times,serif" font-size="14.00" fill="#000000">s461 SYMBOL</text>
<text text-anchor="middle" x="357.2882" y="-16.8156" font-family="Times,serif" font-size="14.00" fill="#000000">jsx_namespace_name</text>
</a>
</g>
</g>
<!-- s458&#45;&gt;s461 -->
<g id="edge3" class="edge">
<title>s458:p1&#45;&gt;s461</title>
<path fill="none" stroke="#000000" d="M101.5996,-37.4156C150.4243,-37.4156 204.4677,-35.9403 250.2436,-34.2568"/>
<polygon fill="#000000" stroke="#000000" points="250.6206,-37.7452 260.482,-33.8718 250.3575,-30.7501 250.6206,-37.7452"/>
<text text-anchor="middle" x="180.6312" y="-41.6156" font-family="Times,serif" font-size="14.00" fill="#000000">jsx_namespace_name</text>
</g>
<!-- s460 -->
<g id="node3" class="node">
<title>s460</title>
<g id="a_node3"><a xlink:href="javascript-grammar.json._jsx_identifier.dot.svg" xlink:title="s460 SYMBOL\n_jsx_identifier">
<ellipse fill="none" stroke="#000000" cx="565.6466" cy="-98.4156" rx="73.9667" ry="29.3315"/>
<text text-anchor="middle" x="565.6466" y="-102.6156" font-family="Times,serif" font-size="14.00" fill="#000000">s460 SYMBOL</text>
<text text-anchor="middle" x="565.6466" y="-85.8156" font-family="Times,serif" font-size="14.00" fill="#000000">_jsx_identifier</text>
</a>
</g>
</g>
<!-- s459&#45;&gt;s460 -->
<g id="edge1" class="edge">
<title>s459&#45;&gt;s460</title>
<path fill="none" stroke="#000000" d="M393.1063,-98.4156C417.3586,-98.4156 450.4603,-98.4156 481.1867,-98.4156"/>
<polygon fill="#000000" stroke="#000000" points="481.4997,-101.9157 491.4997,-98.4156 481.4996,-94.9157 481.4997,-101.9157"/>
</g>
</g>
</svg>
